<svg width="400" height="400" version="1.1" viewBox="0 0 400 400" xmlns="http://www.w3.org/2000/svg">
<g fill-rule="evenodd">
<path d="m81 68c-7.1 0.86-15 2.5-15 3.1 0 0.19-0.12 0.31-0.28 0.28s-0.75 0.13-1.3 0.37c-0.57 0.24-1.2 0.43-1.5 0.43s-1.8 0.75-3.4 1.7c-1.6 0.92-3.1 1.7-3.2 1.7-0.18 0-1.3 0.96-2.5 2.1-1.2 1.2-3 2.9-4.1 3.9-1.8 1.6-2.2 2.4-4.7 8-0.29 0.65-0.71 2.2-0.94 3.3s-0.57 2.3-0.76 2.6c-0.19 0.24-0.24 0.63-0.098 0.85 0.14 0.22 0.068 0.62-0.15 0.89-1.4 1.7-1.7 204-0.28 207 0.37 0.92 0.89 2.4 1.2 3.4 2.4 8.6 11 16 21 19 1.7 0.54 3.3 1.1 3.5 1.3 2 1.5 3.1 1.6 56 1.7 31 0.048 50-0.056 50-0.27-0.12-0.19 0.037-0.34 0.34-0.34 0.3 0 0.65 0.16 0.77 0.34 0.26 0.42 61 0.55 62 0.14 0.16-0.16 1.3-0.32 2.6-0.38 1.3-0.053 2.3-0.26 2.4-0.45 0.065-0.19 0.36-0.26 0.65-0.15 0.3 0.11 0.76 0.022 1-0.2 0.27-0.22 0.58-0.32 0.68-0.22 0.55 0.55 12-4.7 12-5.5 0-0.15 0.24-0.28 0.54-0.28s0.98-0.59 1.5-1.3c0.55-0.72 1.1-1.2 1.2-1.1 0.1 0.1 0.58-0.34 1.1-1 0.48-0.65 1.1-1.3 1.4-1.5 0.3-0.17 0.55-0.53 0.55-0.8 0-0.27 0.26-0.6 0.57-0.72 0.32-0.12 0.83-0.84 1.1-1.6s0.99-1.9 1.5-2.6c0.52-0.68 0.81-1.2 0.66-1.2s-0.089-0.22 0.14-0.5 0.3-0.61 0.17-0.74-0.049-0.24 0.19-0.24c0.24 0 0.43-0.3 0.43-0.67s0.14-0.82 0.32-1c0.18-0.19 0.52-1.4 0.76-2.6 0.24-1.2 0.53-2.6 0.63-3 0.88-3.6 1.1-49 0.24-49-0.26-0.085-0.46-0.37-0.46-0.63 0-0.68-2.9-3.9-3.6-3.9-0.29 0-0.52-0.15-0.52-0.33 0-0.36-2-1.3-2.8-1.3-1.3 0-1.4-1-1.3-7.7l0.18-6.5 8.4-0.1c7-0.082 8.5-0.01 8.6 0.42 0.11 0.29 0.23 9.7 0.27 21 0.052 15 0.18 21 0.51 21 0.24 0.081 0.36 0.36 0.26 0.63-0.1 0.27 0.032 0.72 0.3 1 0.27 0.28 1.1 1.2 1.8 2 0.72 0.81 1.4 1.5 1.6 1.5 0.18 0.033 0.44 0.26 0.59 0.5 0.68 1.1 8.5 0.43 9.3-0.79 0.18-0.28 0.32-0.38 0.33-0.22 0.01 0.52 3.4-2.3 8-6.5 5.7-5.3 7.4-6.9 8.4-7.9 0.46-0.42 2.1-2.1 3.7-3.8 1.6-1.7 3-3 3.2-3s0.4-0.24 0.4-0.54 0.23-0.67 0.51-0.83c0.54-0.31 10-9.3 16-15 2-2 3.8-3.6 3.9-3.6s1.7-1.6 3.6-3.5 3.6-3.5 3.8-3.5c0.18 0 1.8-1.5 3.6-3.3 1.8-1.8 3.4-3.3 3.5-3.3 0.43 0 1.9-1.6 1.9-2.1 0-0.23 0.37-0.68 0.83-1s2-1.7 3.4-3.1c1.4-1.4 2.4-2.2 2.3-1.9-0.17 0.3 1.2-1.1 3.1-3.1 1.9-2 3.6-3.6 3.8-3.6 0.42 0 1.8-1.5 1.8-2 7e-3 -0.18 0.59-1 1.3-1.9s1.4-2 1.5-2.5c0.14-0.54 0.37-0.98 0.52-0.98 1 0 0.67-6.6-0.47-8.9-0.94-1.9-5.1-7-5.8-7-0.16 0-0.95-0.62-1.7-1.4s-2.1-1.9-2.9-2.5-1.8-1.5-2.3-1.9c-0.5-0.46-1.1-0.83-1.3-0.83-0.19 0-0.35-0.2-0.35-0.44 0-0.49-1.8-2.5-2.3-2.5-0.43 0-2.5-2.2-2.3-2.4 0.11-0.11-0.01-0.2-0.27-0.2-0.26 0-1.7-1.2-3.1-2.6s-3.7-3.4-5-4.5c-1.3-1.1-2.4-2.2-2.6-2.5-0.25-0.71-3.5-4.1-3.9-4.1-0.16-2e-3 -2.8-2.5-5.9-5.6-7.9-7.8-8.2-8.1-8.7-8.1-0.22 0-1.3-1.1-2.5-2.5-1.1-1.4-3-3.3-4.2-4.2-1.9-1.5-3.8-3.2-13-12-1.8-1.7-3.8-3.6-4.6-4.2-0.79-0.58-1.9-1.5-2.4-2.1s-1.3-1.3-1.7-1.5c-0.41-0.23-1.7-1.1-2.8-1.9-4.8-3.4-10-1.5-12 4.1-0.66 2-0.71 3.4-0.72 22l-9e-3 20-19-0.16v-6.1-6.1l1.6-0.31c0.89-0.17 1.8-0.58 2.1-0.91 0.25-0.33 0.47-0.44 0.47-0.25 6e-3 0.19 0.18 0.057 0.39-0.3 0.21-0.36 0.6-0.65 0.88-0.65 0.59 0 3.2-3.1 3.8-4.5 0.72-1.7 0.78-50 0.062-51-0.18-0.22-0.24-0.5-0.13-0.61 0.11-0.11 0.034-0.85-0.18-1.6-0.21-0.78-0.49-2.1-0.61-2.9-0.31-2-1.7-5-2.9-6.2-0.54-0.57-1.9-2.2-3-3.6s-2.5-2.9-3.1-3.2c-0.55-0.35-1.1-0.73-1.2-0.84-0.52-0.58-4.5-3-4.9-3-0.28 0-0.87-0.33-1.3-0.74-0.7-0.65-3.7-2-5.3-2.4-0.3-0.076-1.2-0.3-2.1-0.51-1.4-0.34-161-0.86-164-0.52m32 6.8c58-0.13 128 0.24 130 0.68 11 2.7 18 11 19 23 0.47 4.9 0.49 43 0.026 44-0.72 1.9-14 2.7-17 1l-1.2-0.73-0.031-8.4c-0.099-27-0.41-29-4.5-34-3.1-3.3-5.3-4.2-13-5.2-7.8-1-139-0.84-143 0.22-7.5 1.9-12 7.2-13 15-0.66 5.1-0.9 176-0.25 179 2.5 12 9.1 14 34 14 5.3-0.077 35-0.18 66-0.24 62-0.11 58 0.034 64-2.3 8.3-3.3 9.4-7.3 9.5-33 0.02-11 0.085-12 0.67-13 1.5-1.8 15-2.1 17-0.29l1 1-0.11 18c-0.16 28-0.61 31-5.9 38-3.6 5.1-11 9.1-17 9.9-1.2 0.15-37 0.32-79 0.38-42 0.06-78 0.12-79 0.12-18 0.1-30-8.3-32-23-0.55-3.4-0.5-193 0.052-198 1.9-17 11-25 29-27 1.9-0.22 4-0.46 4.6-0.55 0.61-0.083 3.4-0.071 6.1 0.027 2.8 0.097 14 0.16 24 0.14m58 27c65-0.03 62-0.26 65 5 1.6 3 1.6 3.1 1.6 21 0.041 16 0.1 17 1.8 20 2 3 3.6 3.7 8.5 3.8 6.7 0.16 6-0.61 6 6.7 0 4.9-0.11 6.3-0.52 6.7-0.38 0.32-8.1 0.47-29 0.57-33 0.16-33 0.18-36 3.4-3.5 3.6-3.5 3.9-3.4 32 0.086 35-3.8 32 40 32l28 0.12 0.26 1.4c0.33 1.8 0.3 11-0.032 12-0.25 0.9-0.36 0.93-4.7 1.2-10 0.58-11 1.1-11 23-0.29 23-0.72 24-10 26-3.4 0.67-130 0.55-137-0.12-8.5-0.8-12-3.4-13-11-1.1-5.6-0.52-170 0.58-174 2.3-8.9 3.6-9.3 25-9.1 8 0.11 39 0.18 69 0.17m121 26c4.2 3.7 9.2 8.4 13 12 1.6 1.6 4.7 4.5 6.9 6.5 3.6 3.3 7.6 7.1 23 22 3.4 3.3 7.4 7.1 8.9 8.5 21 20 23 21 20 25-0.78 1.3-12 12-25 25-4.4 4.2-9.3 8.9-11 11-1.7 1.6-6.3 6.1-10 10-7.3 7-13 13-22 22-5.6 5.4-7.6 6.5-9.3 5-0.64-0.58-0.68-1.8-0.68-22 0-25 0.18-23-3.3-25-1.7-0.78-1.8-0.79-43-0.86-44-0.081-44-0.081-46-2l-0.9-1.1 0.053-23c0.049-22 0.093-24 0.73-24 1.6-2.4-0.99-2.2 47-2.5l43-0.18 1.4-1.1c2.5-1.9 2.4-1.2 2.4-25v-21l0.83-0.14c1.1-0.19 2.1 0.46 5.6 3.6" fill="#060605"/>
<path d="m84 75c-0.61 0.19-1.6 0.24-2.1 0.12s-1-0.06-1 0.13-1.1 0.45-2.5 0.58c-4.5 0.42-13 2.5-13 3.2 0 0.16-0.21 0.29-0.47 0.29-1.3 0-6.9 4.5-6.7 5.4 0.051 0.16-0.05 0.25-0.22 0.2-0.59-0.17-3 3.1-4.4 5.9-2.6 5.3-2.7 6.7-3.1 24-0.19 8.4-0.45 15-0.59 16-0.14 0.23-0.074 0.29 0.17 0.14 0.43-0.27 0.29 14-0.14 14-0.11 0.18-0.07 0.33 0.095 0.33 0.4 0 0.56 23 0.19 27-0.16 1.9-0.17 3.4-0.033 3.4 0.14 0 0.27 19 0.29 43 0.03 33-0.064 43-0.39 43-0.28-0.18-0.33-0.1-0.14 0.21 0.37 0.6 0.47 27 0.098 27-0.15-0.095-0.28 0.17-0.28 0.59 0 0.42 0.12 0.76 0.28 0.76 0.15 0 0.22 1 0.15 2.3-0.33 5.9 1.9 16 4 18 0.1 0.1 0.82 0.98 1.6 1.9 0.86 1.1 1.6 1.7 1.9 1.5 0.24-0.14 0.2 0.031-0.091 0.39-0.29 0.36-0.35 0.6-0.13 0.53 0.22-0.063 1.2 0.51 2.3 1.3s2 1.4 2.1 1.4c0.13 0 0.67 0.31 1.2 0.69 1.3 0.91 7 3.5 8.2 3.7 0.51 0.086 3.5 0.35 6.6 0.59s5.7 0.56 5.9 0.71c0.15 0.15 0.47 0.11 0.71-0.086 0.57-0.47 22-0.69 21-0.22-0.12 0.2 0.085 0.22 0.5 0.048 0.78-0.32 4.5-0.34 6.3-0.04 1 0.18 1 0.16 0.18-0.13-0.64-0.22 0.47-0.34 3.5-0.36 3-0.021 4.3 0.086 3.9 0.33-0.42 0.27-0.23 0.36 0.74 0.36 0.92 0 1.1-0.098 0.77-0.34-0.34-0.21 0.86-0.33 3.3-0.31 2.2 0.013 3.6 0.15 3.3 0.34-0.32 0.2-0.042 0.31 0.8 0.29 1.1-0.017 1.2-0.078 0.56-0.34-0.91-0.39 60-0.39 64 2e-3 1.6 0.15 3 0.17 3.1 0.047 0.051-0.13 1.2-0.2 2.5-0.16 2.7 0.078 15 0.12 19 0.07 2.7-0.043 7.5-0.039 13 0.012 4 0.036 8.4-0.34 11-0.92 0.61-0.14 1.4-0.27 1.8-0.29 0.36-0.015 0.65-0.16 0.65-0.32s0.31-0.29 0.7-0.29c0.38 0 0.9-0.24 1.1-0.54s0.81-0.65 1.2-0.79c0.44-0.14 1.3-0.57 1.8-0.97 0.56-0.39 1-0.62 1-0.51 0 0.57 5.1-4.7 6.1-6.4 1.6-2.6 3.1-5.5 3.1-6.2 0-0.31 0.18-0.57 0.39-0.57s0.29-0.16 0.17-0.36 0.024-1.7 0.32-3.4c0.8-4.5 0.94-8.2 1.1-27l0.11-17-0.89-0.58c-1.3-0.83-15-0.63-15 0.23-0.43 0.46-0.57 3.5-0.76 17-0.22 16-0.55 20-1.5 19-0.18-0.16-0.2-0.09-0.062 0.16 0.3 0.53-1.8 4.9-2.4 4.9-0.21 0-0.29 0.15-0.18 0.34 0.51 0.83-7.6 5.5-9.7 5.6-0.8 0.013-2.5 0.3-2.5 0.42 0 0.15-4.8 0.43-8.4 0.48-2 0.031-3.6 0.17-3.6 0.31s-0.33 0.19-0.74 0.12c-0.4-0.078-14-0.15-31-0.16-17-9e-3 -31-0.022-31-0.03-9.7-0.18-43-0.1-43 0.096 0.21 0.34-0.4 0.37-0.74 0.032-0.24-0.24-4.5-0.19-10 0.13-4.4 0.24-16-0.6-17-1.2-0.25-0.15-0.7-0.32-1-0.37-4.1-0.67-7.7-3.4-10-7.9-2.4-4.2-2.5-6.2-2.5-29 1e-3 -40 0.5-153 0.68-154 0.11-0.61 0.26-1.7 0.35-2.4 0.33-2.8 2-7 2.8-7 0.18 0 0.29-0.15 0.24-0.33-0.45-1.6 9.2-8.1 10-7 0.13 0.13 0.46 0.049 0.74-0.18 0.28-0.24 1.1-0.32 1.8-0.2 0.72 0.12 1.2 0.069 1.1-0.1s6.2-0.33 14-0.35c7.8-0.02 14-0.14 15-0.26 0.32-0.12 0.58-0.038 0.58 0.19 0 0.23 0.29 0.41 0.65 0.4 0.55-5e-3 0.57-0.058 0.093-0.36-0.69-0.44-2.6-0.41 15-0.29 8 0.056 18 0.1 23 0.1 4.5 0 8.2 0.083 8.1 0.18-0.063 0.1 1.6 0.19 3.7 0.2 2.1 0.01 3.6-0.11 3.4-0.27-0.28-0.18-0.063-0.29 0.58-0.3 0.6-3e-3 0.94 0.15 0.81 0.36-0.13 0.2 0.031 0.37 0.35 0.37 0.32 0 0.58-0.17 0.58-0.37 0-0.23 2.7-0.37 7.2-0.37 4.7 0 7.2 0.13 7 0.37-0.25 0.4 0.29 0.52 0.66 0.14 0.12-0.12 5-0.26 11-0.31 5.9-0.045 9.9 0.032 9 0.17-2.8 0.43-0.12 0.39 4.3-0.067 2.3-0.24 4.5-0.31 4.9-0.15 0.39 0.16 3 0.33 5.7 0.38 9.9 0.2 15 2.4 19 7.5 2.6 3.8 2.8 5.5 2.9 26l0.037 15 1.1 0.55c1.4 0.73 14 0.79 15 0.07l0.93-0.47 0.064-17c0.035-9.3 0.082-18 0.1-20 0.058-4.8-0.34-9.7-0.9-11-0.15-0.36-0.19-0.86-0.089-1.1s-0.048-0.8-0.33-1.2-0.51-0.94-0.51-1.2c0-1.6-3.3-6.7-5.9-9-1.7-1.5-8.8-5.4-9.4-5.2-0.17 0.056-1.3-0.09-2.6-0.32-1.5-0.27-6.6-0.41-14-0.38-8.4 0.03-12-0.077-12-0.36 0-0.27-0.58-0.32-1.8-0.14-2.3 0.34-12 0.34-16-6e-3 -2.4-0.2-3-0.16-2.8 0.18 0.22 0.35-2.7 0.4-14 0.22-7.6-0.12-16-0.21-19-0.2s-7.2 0.047-9.8 0.066c-2.6 0.02-11 0.017-19-6e-3 -7.8-0.024-17 0.02-20 0.097-3.5 0.083-5.8-1e-3 -5.8-0.21 0-0.44-3.2-0.45-4.7-0.01-0.64 0.18-1.3 0.23-1.4 0.092-0.14-0.13-3.9-0.24-8.3-0.24-4.4 0-8.3-0.11-8.6-0.24-0.3-0.14-1.1-0.093-1.7 0.093m23 27c0.46 0.088 1.2 0.088 1.7 0 0.46-0.089 0.083-0.16-0.83-0.16-0.92 0-1.3 0.072-0.83 0.16m4.3 0.011c0.97 0.076 2.5 0.076 3.3-2e-3 0.86-0.078 0.063-0.14-1.8-0.14-1.8 1e-3 -2.5 0.064-1.6 0.14m11 0.077c-2 0.2-2.2 0.28-1 0.33 3.5 0.14 0.34 1.6-3.4 1.6-1.4-0.012-3.2 0.13-3.9 0.32-0.72 0.19-2.2 0.37-3.3 0.4-2 0.051-4.9 0.75-9.4 2.3-4.3 1.4-5.2 2-9.9 5.6-0.32 0.25-0.9 0.96-1.3 1.6s-0.79 1.2-0.9 1.3c-0.36 0.34-2.2 3.3-2.2 3.5 0 0.13-0.39 1-0.86 2-0.48 0.95-1.2 3-1.5 4.5s-0.81 2.9-0.99 3.1c-0.18 0.19-0.32 0.81-0.32 1.4 0 0.56-0.24 2.1-0.53 3.4-0.29 1.3-0.64 3.3-0.77 4.4-0.13 1.1-0.42 2.9-0.63 3.9-0.72 3.4-1 145-0.34 148 0.43 1.7 0.3 2.7-0.34 2.6-0.38-0.091-0.38-3e-3 -0.015 0.44 0.76 0.92 4.8 2.1 8.2 2.3 1.7 0.12 3.5 0.28 3.9 0.37 0.58 0.12 52 0.54 54 0.45 4.2-0.14 65-6e-3 70 0.16 3.4 0.13 6.3 0.097 6.5-0.066s1.4-0.35 2.6-0.42 2.3-0.22 2.4-0.34c0.1-0.12 1.2-0.59 2.5-1.1 3.8-1.4 4.8-3.1 5.2-8.7 0.14-2.2 0.32-3.1 0.51-2.6 0.23 0.6 0.29 0.52 0.31-0.44 0.014-0.65-0.14-1.3-0.34-1.4-0.39-0.24-0.52-2.1-0.16-2.5 0.11-0.11 0.19-5.4 0.18-12-0.039-15 0.21-16 4-19 2.2-1.4 5.1-2.1 7.9-1.8 1.3 0.12 2.2 0.051 2.2-0.16 0-0.2-0.18-0.24-0.41-0.1-0.28 0.17-0.33-9e-3 -0.15-0.56 0.39-1.2-0.48-3-1.6-3.2-0.54-0.13-1.1-0.33-1.3-0.46-0.2-0.12-2.5-0.23-5.2-0.23-2.7-2e-3 -6.4-0.27-8.5-0.62-2-0.34-6.7-0.72-10-0.84-13-0.43-18-0.84-21-1.7-1.6-0.43-3.4-0.87-4.1-0.98-2.4-0.38-4.9-1.9-5.4-3.2-0.58-1.7-0.54-1.8 0.6-1.9 0.66-0.027 0.39-0.16-0.79-0.39-3.4-0.65-6.8-3.5-7.8-6.7-0.56-1.7-0.96-48-0.43-51 0.07-0.31 0.26-1.1 0.41-1.8 0.55-2.4 3.7-6.9 4.5-6.4 0.12 0.064 0.41-0.13 0.65-0.43 0.96-1.2 23-2.7 23-1.6 0.096 0.16 0.31 0.2 0.48 0.098 0.61-0.37 14-0.45 14-0.077-0.12 0.2-0.039 0.25 0.19 0.11 0.51-0.32 22-0.37 23-0.059 1.3 0.79 1.8-1.1 1.9-6.9l0.12-5.7-3.3-0.052c-4-0.063-6.5-0.37-7.1-0.87-0.26-0.2-0.46-0.25-0.46-0.11s-0.24 0.037-0.52-0.23c-0.29-0.27-1-0.88-1.7-1.4-0.63-0.48-1-1-0.94-1.2 0.11-0.18 0.032-0.33-0.18-0.33-0.49 0-1.6-2.1-1.3-2.6 0.11-0.18-6e-3 -0.4-0.26-0.48-0.43-0.14-0.54-3.8-0.34-12 0.021-0.82-0.083-6.5-0.23-13l-0.27-11-1.1-2c-1.2-2.4-1.7-2.7-4-3.5-3.8-1.2-7.5-1.4-29-1.4-10 0.029-19 0.049-20 0.043-0.41-5e-3 -2.5-0.051-4.7-0.1-2.2-0.051-4 0.041-4 0.21s-0.19 0.18-0.42 0.038-1.4-0.22-2.5-0.17c-3 0.13-21 0.077-34-0.11-6.4-0.086-13-0.04-14 0.1m-43 3c-1.3 1.4-1.8 2.6-0.97 2 0.2-0.13 0.37-0.42 0.37-0.65s0.53-0.97 1.2-1.6c0.65-0.67 1.1-1.2 0.97-1.2s-0.82 0.67-1.6 1.5m-2.2 5c-0.14 0.74-0.18 1.4-0.089 1.5 0.09 0.091 0.28-0.44 0.42-1.2 0.14-0.74 0.18-1.4 0.089-1.5-0.091-0.09-0.28 0.44-0.42 1.2m-0.45 5.2c1e-3 1.6 0.066 2.2 0.14 1.4 0.079-0.87 0.077-2.2-2e-3 -3-0.08-0.76-0.14-0.046-0.14 1.6m2e-3 6.5c0 1.7 0.064 2.4 0.14 1.6 0.078-0.86 0.078-2.3 0-3.1s-0.14-0.16-0.14 1.6m209 2.7c-0.04 0.24-0.094 6.1-0.12 13s-0.18 13-0.33 14c-0.16 0.51-0.14 0.74 0.027 0.5 0.17-0.24 0.31 3.3 0.31 7.8 0 9.4-0.23 10-3.3 12l-1.5 0.79-42 0.11c-48 0.12-47 0.041-47 2.8-0.11 0.56-0.31 0.95-0.44 0.87-0.27-0.17-0.16 45 0.11 46 0.22 0.9 2 2 3.3 2 0.5 0 0.98 0.079 1.1 0.18 0.32 0.32 78 0.39 78 0.068 0-0.33 3.6 0.045 4.3 0.44 0.2 0.12 0.67 0.18 1 0.12 0.77-0.13 4 2 4.8 3.1 0.64 0.96 0.97 19 0.34 18-0.22-0.13-0.4-0.067-0.4 0.15 0 0.22 0.17 0.39 0.38 0.39 0.21 0 0.34 0.58 0.3 1.3s-0.22 1.3-0.38 1.3-0.3 0.84-0.3 1.9c0 1.2 0.14 1.8 0.38 1.6 0.25-0.15 0.36 2.4 0.34 7.8-0.018 4.4-0.17 8-0.34 8-0.43 0-0.056 2.2 0.63 3.6 0.38 0.81 0.82 1.2 1.4 1.2 0.65-5e-3 0.69-0.072 0.24-0.36-0.45-0.29-0.38-0.36 0.31-0.36 1.2-8e-3 2.8-1.1 6.6-5 3.6-3.6 5.3-5.2 5.6-5.2 0.088 0 1.9-1.8 4.1-4 2.2-2.2 4.8-4.8 5.8-5.7 1-0.94 2.3-2.2 2.9-2.7 0.58-0.56 1.1-1 1.2-1s1-0.93 2.1-2.1c2.1-2.2 6.7-6.7 8.8-8.7 0.71-0.66 4.2-4 7.8-7.4 7.5-7.2 9.6-9.1 10-8.9 0.18 0.056 0.24-0.049 0.13-0.23-0.26-0.43 7.6-7.9 8-7.6 0.18 0.11 0.27 0.026 0.22-0.18s2.6-3.2 6-6.6c3.4-3.4 6.2-6.5 6.3-6.8 1.1-3.8 0.91-4-10-14-0.91-0.84-1.9-1.5-2.1-1.4-0.25 0.095-0.38-0.027-0.28-0.27 0.095-0.25-1.3-1.8-3.1-3.4-8.2-7.5-17-16-17-17 0.039-0.17-0.08-0.21-0.26-0.099-0.18 0.11-2.7-2.1-5.5-4.9-2.9-2.8-5.7-5.5-6.2-6.1-0.58-0.53-1.2-1.2-1.5-1.5s-1.9-1.8-3.7-3.5c-1.8-1.6-5.4-5-8.1-7.6-2.6-2.5-4.9-4.6-5.1-4.5-0.19 0.051-0.34-0.14-0.34-0.42s-0.58-0.9-1.3-1.4c-0.71-0.48-1.8-1.6-2.4-2.4-0.62-0.86-1.3-1.5-1.4-1.5-0.15 0.047-0.85-0.44-1.6-1.1-2.9-2.6-3.9-3.5-4.1-3.5-0.16 0-0.29-0.22-0.29-0.49 0-0.65-2.6-1.5-2.7-0.86m-210 31 0.087 23 0.19-23c0.1-12 0.066-23-0.087-23-0.15-0.19-0.24 10-0.19 23m0.047 27c0 1.9 0.062 2.7 0.14 1.8 0.076-0.97 0.076-2.6 0-3.5-0.077-0.97-0.14-0.18-0.14 1.8m0.025 12c0 4.6 0.053 6.5 0.12 4.2s0.065-6 0-8.3c-0.065-2.3-0.12-0.42-0.12 4.2m-0.04 12c0 1.3 0.067 1.9 0.15 1.2s0.082-1.7 0-2.4-0.15-0.12-0.15 1.2m-0.12 39c0 20 0.084 37 0.19 36 0.24-0.24 0.25-73 3e-3 -73-0.1-0.1-0.19 16-0.19 36m119-14c0.085 0.077 1.3 0.24 2.7 0.35 1.6 0.14 2.3 0.097 1.7-0.1-0.91-0.31-4.7-0.53-4.4-0.25m12 0.49c0.46 0.089 1.1 0.085 1.5-8e-3 0.35-0.092-0.023-0.16-0.84-0.16s-1.1 0.08-0.64 0.17m4.4-1e-3c0.46 0.089 1.2 0.089 1.7 0 0.46-0.088 0.083-0.16-0.83-0.16-0.92 0-1.3 0.072-0.83 0.16m6.7 0.01c0.87 0.078 2.3 0.078 3.1 0s0.16-0.14-1.6-0.14-2.4 0.064-1.6 0.14m5.6-9e-3c0.46 0.089 1.1 0.085 1.5-8e-3 0.35-0.092-0.023-0.16-0.84-0.16-0.82 4e-3 -1.1 0.08-0.64 0.17m4.1 0.01c0.87 0.078 2.2 0.077 3-3e-3 0.76-0.079 0.046-0.14-1.6-0.14-1.6 1e-3 -2.2 0.066-1.4 0.14m14 3e-3c1.3 0.072 3.3 0.071 4.4-2e-3 1.2-0.073 0.12-0.13-2.3-0.13-2.4 1e-3 -3.4 0.061-2.1 0.13m10 0.84c0.09 0.61 0.23 1.1 0.31 1.1s0.14-0.5 0.14-1.1-0.14-1.1-0.31-1.1-0.23 0.5-0.14 1.1m0.18 9.6c0 0.92 0.072 1.3 0.16 0.83 0.089-0.46 0.089-1.2 0-1.7-0.088-0.46-0.16-0.083-0.16 0.83m-175 41c4e-3 0.81 0.08 1.1 0.17 0.64 0.088-0.46 0.085-1.1-8e-3 -1.5s-0.16 0.023-0.16 0.84m0.32 2.2c-8e-3 0.41 0.22 1.2 0.52 1.7 0.66 1.2 0.66 0.6 0-1.1-0.33-0.85-0.5-1-0.52-0.56" fill="#fbc604"/>
<path d="m127 75c0.66 0.082 1.7 0.082 2.4 0s0.12-0.15-1.2-0.15c-1.3 0-1.9 0.068-1.2 0.15m16-2e-3c0.56 0.085 1.4 0.082 1.9-5e-3 0.46-0.088-5e-3 -0.16-1-0.16-1 3e-3 -1.4 0.074-0.83 0.16m15 0c0.56 0.085 1.4 0.082 1.9-5e-3 0.46-0.088-5e-3 -0.16-1-0.16-1 3e-3 -1.4 0.074-0.83 0.16m-46 0.38c0.87 0.078 2.2 0.077 3-3e-3 0.76-0.079 0.046-0.14-1.6-0.14-1.6 1e-3 -2.2 0.067-1.4 0.14m38 0c0.87 0.078 2.2 0.077 3-3e-3 0.76-0.079 0.046-0.14-1.6-0.14-1.6 1e-3 -2.2 0.067-1.4 0.14m34-6e-3c0.56 0.085 1.4 0.083 1.9-5e-3 0.46-0.088-5e-3 -0.16-1-0.16-1 3e-3 -1.4 0.075-0.83 0.16m35 3e-3c0.67 0.082 1.7 0.08 2.2-4e-3 0.56-0.085 0.012-0.15-1.2-0.15s-1.7 0.071-1 0.15m34 5.8c0 0.064 0.54 0.6 1.2 1.2l1.2 1.1-1.1-1.2c-1-1.1-1.3-1.4-1.3-1.1m-158 13c0.56 0.085 1.4 0.083 1.9-5e-3 0.46-0.088-5e-3 -0.16-1-0.16-1 3e-3 -1.4 0.075-0.83 0.16m12 6e-3c0.87 0.078 2.2 0.077 3-2e-3 0.76-0.08 0.046-0.14-1.6-0.14-1.6 2e-3 -2.2 0.067-1.4 0.14m-10 7c0.46 0.088 1.2 0.088 1.7 0 0.46-0.088 0.084-0.16-0.83-0.16s-1.3 0.073-0.83 0.16m73 0.38c0.97 0.076 2.6 0.076 3.5 0 0.97-0.076 0.18-0.14-1.8-0.14-1.9 0-2.7 0.063-1.8 0.14m12-0.01c0.46 0.088 1.1 0.085 1.5-8e-3 0.35-0.092-0.023-0.16-0.84-0.16s-1.1 0.08-0.64 0.17m79 2c0 1.3 0.068 1.9 0.15 1.2s0.082-1.7 0-2.4-0.15-0.12-0.15 1.2m-25 18c1e-3 1.6 0.066 2.2 0.14 1.4 0.079-0.87 0.077-2.2-2e-3 -3-0.08-0.76-0.14-0.046-0.14 1.6m-167 15c0 2.8 0.059 3.9 0.13 2.5s0.071-3.6 0-5-0.13-0.25-0.13 2.5m193 1.5c0 0.71 0.076 1 0.17 0.65 0.093-0.36 0.093-0.94 0-1.3-0.093-0.36-0.17-0.065-0.17 0.65m-186 0.93c4e-3 0.82 0.08 1.1 0.17 0.64 0.088-0.46 0.085-1.1-8e-3 -1.5-0.092-0.35-0.16 0.023-0.16 0.84m-6.6 6.1c0 1.5 0.065 2.2 0.14 1.4s0.08-2 0-2.8-0.14-0.14-0.14 1.4m-0.039 7c0 0.71 0.076 1 0.17 0.65 0.093-0.36 0.093-0.94 0-1.3-0.094-0.36-0.17-0.065-0.17 0.65m0.041 5.4c2e-3 1.6 0.067 2.2 0.14 1.4s0.077-2.2-3e-3 -3c-0.079-0.76-0.14-0.045-0.14 1.6m184 1.7c0 0.92 0.072 1.3 0.16 0.83 0.089-0.46 0.089-1.2 0-1.7-0.088-0.46-0.16-0.084-0.16 0.83m-204 2.8c4e-3 0.81 0.08 1.1 0.17 0.64 0.088-0.46 0.085-1.1-8e-3 -1.5-0.092-0.35-0.16 0.023-0.16 0.84m27 6.5c0 1.7 0.064 2.4 0.14 1.6s0.078-2.3 0-3.1-0.14-0.16-0.14 1.6m256-2.1c0 0.064 0.54 0.6 1.2 1.2l1.2 1.1-1.1-1.2c-1-1.1-1.3-1.4-1.3-1.1m6.7 6.7c0.69 0.71 1.3 1.3 1.4 1.3 0.1 0-0.38-0.58-1.1-1.3s-1.3-1.3-1.4-1.3 0.38 0.58 1.1 1.3m-263 0.56c0 0.71 0.076 1 0.17 0.65 0.093-0.36 0.093-0.94 0-1.3-0.093-0.36-0.17-0.065-0.17 0.65m-27 13c0 0.92 0.072 1.3 0.16 0.83 0.089-0.46 0.089-1.2 0-1.7-0.088-0.46-0.16-0.084-0.16 0.83m20 3.1c3e-3 1 0.075 1.4 0.16 0.83s0.083-1.4-5e-3 -1.9c-0.088-0.46-0.16 6e-3 -0.16 1m0.013 8.7c0 1.3 0.067 1.9 0.15 1.2 0.082-0.66 0.082-1.7 0-2.4s-0.15-0.12-0.15 1.2m-0.025 4.3c4e-3 0.82 0.08 1.1 0.17 0.64 0.089-0.46 0.085-1.1-7e-3 -1.5-0.093-0.35-0.16 0.023-0.16 0.84m-8e-3 10c0 0.71 0.076 1 0.17 0.65 0.093-0.36 0.093-0.94 0-1.3-0.094-0.36-0.17-0.065-0.17 0.65m0.025 10c0 1.1 0.07 1.6 0.16 1 0.084-0.56 0.084-1.5 0-2-0.085-0.56-0.16-0.1-0.16 1m128 2.5c0.46 0.088 1.2 0.088 1.7 0s0.083-0.16-0.83-0.16c-0.92 0-1.3 0.072-0.83 0.16m3.7 1e-3c0.46 0.088 1.1 0.085 1.5-8e-3 0.35-0.092-0.023-0.16-0.84-0.16s-1.1 0.08-0.64 0.17m7.4 0.015c2.9 0.062 7.7 0.062 11 0 2.9-0.063 0.53-0.11-5.3-0.11-5.8 0-8.2 0.051-5.3 0.11m20-9e-3c0.66 0.082 1.7 0.082 2.4 0s0.12-0.15-1.2-0.15-1.9 0.068-1.2 0.15m7.4 5e-3c1.1 0.075 2.8 0.075 3.9 0 1.1-0.075 0.2-0.14-1.9-0.14s-3 0.061-1.9 0.14m6.9-7e-3c0.56 0.085 1.4 0.082 1.9-5e-3 0.46-0.088-5e-3 -0.16-1-0.16-1 3e-3 -1.4 0.074-0.83 0.16m5.6 7e-3c0.97 0.076 2.5 0.075 3.3-3e-3 0.86-0.077 0.063-0.14-1.8-0.14-1.8 1e-3 -2.5 0.065-1.6 0.14m14-5e-3c0.67 0.083 1.7 0.081 2.2-4e-3 0.56-0.084 0.012-0.15-1.2-0.15s-1.7 0.071-1 0.15m6.5-2e-3c0.56 0.085 1.4 0.082 1.9-5e-3 0.46-0.088-5e-3 -0.16-1-0.16-1 3e-3 -1.4 0.074-0.83 0.16m7.8-0.011c0.36 0.093 0.94 0.093 1.3 0 0.36-0.093 0.065-0.17-0.65-0.17s-1 0.076-0.65 0.17m-36 7.8c0.36 0.093 0.94 0.093 1.3 0 0.36-0.093 0.065-0.17-0.65-0.17s-1 0.076-0.65 0.17m-164 14c0 1.5 0.066 2.2 0.15 1.4 0.08-0.76 0.08-2 0-2.8s-0.15-0.14-0.15 1.4m174 0.26c0.36 0.093 0.94 0.093 1.3 0 0.36-0.093 0.065-0.17-0.65-0.17s-1 0.076-0.65 0.17m-201 11c3e-3 1 0.075 1.4 0.16 0.83s0.083-1.4-5e-3 -1.9-0.16 5e-3 -0.16 1m194 5c0 1.7 0.064 2.4 0.14 1.6 0.077-0.87 0.077-2.3 0-3.1-0.078-0.87-0.14-0.16-0.14 1.6m52 4.2-1.1 1.2 1.2-1.1c0.66-0.6 1.2-1.1 1.2-1.2 0-0.29-0.31-0.034-1.3 1.1m-219 9.2c0 1.5 0.066 2.2 0.15 1.4s0.08-2 0-2.8-0.15-0.14-0.15 1.4m185 11c1e-3 2.6 0.06 3.7 0.13 2.3 0.072-1.4 0.071-3.6-1e-3 -4.8s-0.13-0.13-0.13 2.5m-158 9.7c0.67 0.083 1.7 0.081 2.2-3e-3 0.56-0.085 0.011-0.15-1.2-0.15s-1.7 0.071-1 0.15m19-6e-3c0.46 0.088 1.1 0.085 1.5-8e-3 0.36-0.092-0.022-0.16-0.84-0.16s-1.1 0.08-0.64 0.17m8.3-7e-3c0.36 0.093 0.94 0.093 1.3 0 0.36-0.093 0.065-0.17-0.65-0.17s-1 0.076-0.65 0.17m3.9 7e-3c0.46 0.088 1.1 0.085 1.5-8e-3 0.35-0.092-0.023-0.16-0.84-0.16s-1.1 0.08-0.64 0.17m3.7 6e-3c0.67 0.083 1.7 0.081 2.2-3e-3 0.56-0.085 0.012-0.15-1.2-0.15s-1.7 0.071-1 0.15m18-7e-3c0.46 0.089 1.2 0.089 1.7 0 0.46-0.088 0.084-0.16-0.83-0.16s-1.3 0.072-0.83 0.16m16 5e-3c0.56 0.085 1.4 0.083 1.9-5e-3 0.46-0.088-5e-3 -0.16-1-0.16-1 3e-3 -1.4 0.075-0.83 0.16m5.7-4e-3c0.46 0.088 1.1 0.085 1.5-8e-3 0.35-0.092-0.023-0.16-0.84-0.16s-1.1 0.08-0.64 0.17m15-7e-3c0.36 0.093 0.94 0.093 1.3 0 0.36-0.093 0.065-0.17-0.65-0.17s-1 0.076-0.65 0.17m24 0.38c0.56 0.085 1.4 0.083 1.9-5e-3 0.46-0.088-6e-3 -0.16-1-0.16-1 3e-3 -1.4 0.075-0.83 0.16m-129 7c0.46 0.089 1.1 0.086 1.5-7e-3s-0.023-0.16-0.84-0.16-1.1 0.08-0.64 0.17m15 0c0.46 0.088 1.2 0.088 1.7 0 0.46-0.089 0.083-0.16-0.83-0.16-0.92 0-1.3 0.072-0.83 0.16m15 0.012c1.1 0.075 2.7 0.074 3.7-2e-3 0.96-0.076 0.081-0.14-2-0.14s-2.8 0.063-1.7 0.14m10-0.012c0.46 0.089 1.1 0.086 1.5-7e-3s-0.023-0.16-0.84-0.16c-0.81 4e-3 -1.1 0.08-0.64 0.17m12-6e-3c0.36 0.093 0.94 0.093 1.3 0 0.36-0.094 0.065-0.17-0.65-0.17s-1 0.076-0.65 0.17m16 0.013c0.67 0.082 1.7 0.08 2.2-4e-3 0.56-0.085 0.012-0.15-1.2-0.15s-1.7 0.071-1 0.15m8 7e-3c1.6 0.069 4.2 0.069 5.7 0 1.6-0.07 0.29-0.13-2.9-0.13-3.2 0-4.4 0.057-2.9 0.13m13-0.02c0.36 0.093 0.94 0.093 1.3 0 0.36-0.094 0.065-0.17-0.65-0.17s-1 0.076-0.65 0.17m8.7 0.012c0.66 0.082 1.7 0.082 2.4 0s0.12-0.15-1.2-0.15-1.9 0.067-1.2 0.15m5.6 4e-3c0.87 0.077 2.3 0.077 3.1 0 0.87-0.078 0.16-0.14-1.6-0.14-1.7 0-2.4 0.064-1.6 0.14m9.4 4e-3c2 0.067 5.2 0.067 7.2 0 2-0.066 0.36-0.12-3.6-0.12-4 0-5.6 0.055-3.6 0.12m16-0.01c0.56 0.084 1.5 0.084 2 0 0.56-0.085 0.1-0.16-1-0.16-1.1 0-1.6 0.07-1 0.16m-78 19c0.46 0.088 1.2 0.088 1.7 0 0.46-0.089 0.083-0.16-0.83-0.16-0.92 0-1.3 0.072-0.83 0.16m15 0c0.46 0.089 1.1 0.085 1.5-7e-3 0.35-0.093-0.023-0.16-0.84-0.16s-1.1 0.08-0.64 0.17m14 0.01c0.87 0.078 2.2 0.077 3-3e-3 0.76-0.079 0.046-0.14-1.6-0.14-1.6 2e-3 -2.2 0.067-1.4 0.14m14-0.01c0.46 0.089 1.1 0.085 1.5-7e-3 0.35-0.093-0.023-0.16-0.84-0.16s-1.1 0.08-0.64 0.17" fill="#8e7818"/>
<path d="m87 102c-0.3 0.2-1.2 0.34-2 0.33-0.84-0.012-1.6 0.19-1.8 0.49-0.18 0.28-0.32 0.38-0.33 0.23s-0.34 0.061-0.76 0.48c-0.41 0.42-0.94 0.64-1.2 0.5-0.23-0.14-0.31-0.09-0.18 0.12 0.29 0.47-1 1.7-1.4 1.3-0.15-0.15-0.22-0.1-0.16 0.11 0.15 0.49-0.85 3.1-1.2 3.1-0.14 0-0.16 0.44-0.062 0.98 0.12 0.6 0.044 0.89-0.18 0.75-0.22-0.14-0.3 0.13-0.2 0.69 0.096 0.5 0.03 0.91-0.15 0.91-0.18 0-0.29 1.5-0.26 3.2 0.046 2.3-0.019 2.9-0.23 1.9-0.26-1.1-0.3-1-0.32 0.93-0.016 1.6 0.074 2 0.3 1.5 0.21-0.5 0.33 0.27 0.34 2.3 0.017 2-0.1 3-0.36 2.8-0.26-0.16-0.32 1.2-0.2 4.1 0.35 8.5 0.21 50-0.17 50-0.2 0.068-0.35 0.57-0.34 1.1 0.023 0.88 0.059 0.91 0.34 0.25 0.21-0.49 0.33 0.44 0.34 2.7 0.016 2.2-0.11 3.4-0.34 3.2-0.21-0.13-0.37 0.21-0.36 0.81 4e-3 0.81 0.086 0.92 0.36 0.48 0.24-0.37 0.34 2.3 0.31 7.8-0.026 4.6-0.16 7.7-0.31 6.9-0.19-1.1-0.27-0.52-0.27 2-2e-3 2.4 0.081 3.1 0.27 2.2 0.22-1.1 0.28-0.86 0.28 1.1 8e-3 1.7-0.073 2.1-0.28 1.5-0.25-0.79-0.3-0.82-0.33-0.17-0.02 0.42 0.13 0.93 0.34 1.1 0.4 0.4 0.54 72 0.14 73-0.17 0.75-0.13 0.82 0.21 0.37 0.34-0.44 0.4-0.22 0.3 1-0.069 0.87-0.013 1.6 0.12 1.6s0.36 0.46 0.49 1c0.59 2.5 2.7 5.6 3.7 5.6 0.21 3e-3 0.19-0.11-0.04-0.27-0.23-0.15-0.37-0.56-0.31-0.9 0.054-0.35-0.062-1.3-0.26-2-0.7-2.8-0.37-144 0.34-148 0.21-1 0.5-2.8 0.63-3.9 0.13-1.1 0.48-3.1 0.77-4.4 0.29-1.3 0.53-2.8 0.53-3.4 0-0.56 0.14-1.2 0.32-1.4 0.18-0.19 0.62-1.6 0.99-3.1s1.1-3.6 1.5-4.5c0.48-0.95 0.86-1.8 0.86-2 0-0.24 1.9-3.2 2.2-3.5 0.11-0.1 0.51-0.68 0.9-1.3s0.96-1.3 1.3-1.6c4.7-3.6 5.6-4.2 9.9-5.6 4.5-1.5 7.5-2.2 9.4-2.3 1.1-0.029 2.6-0.21 3.3-0.4 0.72-0.19 2.5-0.34 3.9-0.32 2.6 0.021 4.3-0.39 4.8-1.1 0.16-0.25-0.32-0.4-1.4-0.4-1.2-4e-3 -1.4-0.1-1-0.36 0.36-0.23-2-0.28-6.5-0.14-4.9 0.14-7.2 0.084-7.3-0.2-0.14-0.22-0.7-0.39-1.2-0.38-0.9 0.024-0.93 0.058-0.26 0.37 0.55 0.26 0.41 0.29-0.56 0.12-2.7-0.46-10-0.56-9.6-0.13 0.45 0.33 0.41 0.36-0.18 0.12-1.1-0.45-7-0.58-7.6-0.17m-11 116c0 1.3 0.068 1.9 0.15 1.2s0.082-1.7 0-2.4-0.15-0.12-0.15 1.2m-3e-3 5c2e-3 1.2 0.071 1.7 0.15 1 0.083-0.67 0.081-1.7-3e-3 -2.2-0.085-0.56-0.15-0.012-0.15 1.2m117 9.3c-1.2 0.17-1.2 0.27-0.6 1.9 0.45 1.3 3 2.8 5.4 3.2 0.69 0.11 2.6 0.55 4.1 0.98 3 0.81 8.1 1.2 21 1.7 3.7 0.13 8.3 0.5 10 0.84 2.1 0.34 5.8 0.61 8.5 0.62 2.6 3e-3 5 0.11 5.2 0.23 0.2 0.12 0.81 0.33 1.3 0.46 1.1 0.27 2 2 1.6 3.2-0.18 0.55-0.13 0.73 0.15 0.56 0.23-0.14 0.41-0.077 0.41 0.14 0 0.53 1 0.5 1.3-0.045 0.15-0.24 0.23-1.2 0.19-2.2s0.076-1.8 0.27-2c0.19-0.12 0.37-1.8 0.4-3.8 0.036-2.4-0.075-3.5-0.33-3.3-0.32 0.2-0.59-1.1-0.43-2.1 0.062-0.39-0.98-0.35-1.2 0.053-0.12 0.19-7.5 0.32-17 0.32-9.2-7e-3 -16-0.14-16-0.29 0.77-0.23 0.66-0.29-0.65-0.32-0.87-0.021-1.6 0.094-1.6 0.26s-1 0.33-2.3 0.37c-1.6 0.057-2.2-0.027-1.8-0.29 0.38-0.25-1.5-0.36-5.9-0.34-4.1 0.02-6.1 0.15-5.6 0.35 0.59 0.2-0.023 0.24-1.7 0.11-1.4-0.12-2.8-0.36-2.9-0.54-0.19-0.18-0.53-0.3-0.74-0.27-0.21 0.03-0.85 0.12-1.4 0.21m16 0.73c-0.35 0.093-1 0.097-1.5 8e-3s-0.17-0.16 0.64-0.17 1.2 0.069 0.84 0.16m-133 6.8c0 0.71 0.076 1 0.17 0.65 0.093-0.36 0.093-0.94 0-1.3-0.093-0.36-0.17-0.065-0.17 0.65" fill="#eea205"/>
<path d="m88 75c0.36 0.093 0.94 0.093 1.3 0 0.36-0.093 0.064-0.17-0.65-0.17-0.71 0-1 0.076-0.65 0.17m46 0.021c1.8 0.068 4.6 0.068 6.3-1e-3 1.7-0.068 0.2-0.12-3.3-0.12-3.5 1e-3 -4.8 0.057-3 0.12m58 0.36c0.56 0.085 1.4 0.083 1.9-5e-3s-5e-3 -0.16-1-0.16c-1 3e-3 -1.4 0.075-0.83 0.16m18-0.011c0.36 0.094 0.94 0.094 1.3 0 0.36-0.093 0.065-0.17-0.65-0.17s-1 0.076-0.65 0.17m7.6 7e-3c0.46 0.089 1.1 0.085 1.5-7e-3 0.35-0.093-0.023-0.17-0.84-0.16-0.82 4e-3 -1.1 0.08-0.64 0.17m13 0c0.46 0.089 1.1 0.085 1.5-7e-3 0.35-0.093-0.023-0.17-0.84-0.16-0.82 4e-3 -1.1 0.08-0.64 0.17m4.4 0c0.46 0.089 1.1 0.085 1.5-7e-3 0.35-0.093-0.023-0.17-0.84-0.16-0.81 4e-3 -1.1 0.08-0.64 0.17m-112 19c1.3 0.072 3.3 0.072 4.4-2e-3 1.2-0.073 0.12-0.13-2.3-0.13-2.4 1e-3 -3.4 0.061-2.1 0.13m8.3-0.02c0.36 0.094 0.94 0.094 1.3 0 0.36-0.093 0.065-0.17-0.65-0.17s-1 0.076-0.65 0.17m7.6 0.012c0.66 0.082 1.8 0.084 2.6 3e-3 0.77-0.08 0.23-0.15-1.2-0.15-1.4-2e-3 -2.1 0.064-1.4 0.14m14 0.37c0.56 0.085 1.5 0.085 2 0 0.56-0.085 0.1-0.16-1-0.16s-1.6 0.07-1 0.16m-45 7.4c1.4 0.071 3.6 0.071 5 0 1.4-0.072 0.25-0.13-2.5-0.13s-3.9 0.058-2.5 0.13m21 2e-3c2.8 0.063 7.4 0.063 10 0s0.51-0.12-5.1-0.12-7.9 0.052-5.1 0.12m47-9e-3c0.66 0.082 1.7 0.082 2.4 0s0.12-0.15-1.2-0.15-1.9 0.068-1.2 0.15m8.2-6e-3c0.46 0.088 1.1 0.085 1.5-8e-3 0.35-0.092-0.022-0.16-0.84-0.16s-1.1 0.08-0.64 0.17m7.2 0.015c2.4 0.064 6.2 0.064 8.5-1e-3s0.31-0.12-4.4-0.12c-4.7 0-6.6 0.053-4.1 0.12m17-1e-3c2.2 0.066 5.7 0.066 7.8 0s0.28-0.12-4-0.12c-4.3 0-6 0.054-3.8 0.12m-88 0.36c0.46 0.089 1.1 0.085 1.5-7e-3 0.35-0.093-0.023-0.16-0.84-0.16-0.82 4e-3 -1.1 0.08-0.64 0.17m43 6e-3c0.66 0.081 1.8 0.083 2.6 3e-3 0.77-0.081 0.23-0.15-1.2-0.15-1.4-2e-3 -2.1 0.064-1.4 0.15m80 9c0 0.92 0.072 1.3 0.16 0.83 0.088-0.46 0.088-1.2 0-1.7-0.089-0.46-0.16-0.083-0.16 0.83m-194 1.7c2e-3 1.2 0.071 1.7 0.15 1 0.083-0.67 0.081-1.7-3e-3 -2.2-0.085-0.56-0.15-0.012-0.15 1.2m20 9.8c0 4.8 0.052 6.7 0.12 4.4 0.064-2.4 0.064-6.3 0-8.7-0.065-2.4-0.12-0.44-0.12 4.4m-20-5.4c2e-3 1.2 0.071 1.7 0.15 1 0.083-0.66 0.081-1.7-3e-3 -2.2-0.085-0.56-0.15-0.012-0.15 1.2m27 5c0 1.3 0.067 1.9 0.15 1.2s0.082-1.7 0-2.4-0.15-0.12-0.15 1.2m160 4.1c0 1.3 0.067 1.9 0.15 1.2 0.082-0.66 0.082-1.7 0-2.4-0.083-0.66-0.15-0.12-0.15 1.2m53-0.56c0.69 0.71 1.3 1.3 1.4 1.3s-0.38-0.58-1.1-1.3-1.3-1.3-1.4-1.3c-0.1 0 0.38 0.58 1.1 1.3m6.9 6.1c1 1 1.9 1.9 2 1.9s-0.64-0.83-1.6-1.9c-1-1-1.9-1.9-2-1.9s0.64 0.83 1.6 1.9m-60 5.9c0 0.71 0.076 1 0.17 0.65 0.093-0.36 0.093-0.94 0-1.3s-0.17-0.065-0.17 0.65m67 1.2c0.91 0.97 1.7 1.8 1.8 1.8 0.28 0-0.016-0.33-1.7-1.9l-1.8-1.7 1.7 1.8m-228 6.6c0 3.4 0.056 4.7 0.12 3.1 0.069-1.7 0.069-4.4 0-6.1-0.068-1.7-0.12-0.3-0.12 3.1m179-2c0.36 0.093 0.94 0.093 1.3 0 0.36-0.093 0.065-0.17-0.65-0.17s-1 0.076-0.65 0.17m54 0.6c0 0.064 0.54 0.61 1.2 1.2l1.2 1.1-1.1-1.2c-1-1.1-1.3-1.4-1.3-1.1m-234 14c0 3.7 0.056 5.1 0.12 3.2 0.067-1.9 0.067-4.9-1e-3 -6.7-0.067-1.8-0.12-0.22-0.12 3.4m-6.7 2.6c4e-3 0.82 0.08 1.1 0.17 0.64 0.089-0.46 0.085-1.1-7e-3 -1.5-0.093-0.35-0.16 0.022-0.16 0.84m0.06 9.4c0 3.8 0.055 5.3 0.12 3.4 0.067-1.9 0.067-5 0-6.9s-0.12-0.34-0.12 3.4m119-2.9-1.1 1.2 1.2-1.1c0.66-0.6 1.2-1.1 1.2-1.2 0-0.29-0.3-0.035-1.3 1.1m37 4.2c0.56 0.085 1.4 0.082 1.9-5e-3 0.46-0.088-5e-3 -0.16-1-0.16-1 3e-3 -1.4 0.074-0.83 0.16m35-0.011c0.36 0.093 0.94 0.093 1.3 0 0.36-0.093 0.065-0.17-0.65-0.17s-1 0.076-0.65 0.17m-75 6.8c0 0.92 0.072 1.3 0.16 0.83 0.089-0.46 0.089-1.2 0-1.7-0.088-0.46-0.16-0.084-0.16 0.83m-135 3.7c0 1.1 0.069 1.6 0.15 1s0.085-1.5 0-2-0.15-0.1-0.15 1m20 2.2c0 0.92 0.072 1.3 0.16 0.83 0.088-0.46 0.088-1.2 0-1.7-0.089-0.46-0.16-0.083-0.16 0.83m-20 4.1c0 0.92 0.072 1.3 0.16 0.83 0.089-0.46 0.089-1.2 0-1.7-0.088-0.46-0.16-0.084-0.16 0.83m27 0.37c0 0.92 0.072 1.3 0.16 0.83 0.089-0.46 0.089-1.2 0-1.7-0.088-0.46-0.16-0.083-0.16 0.83m0.026 5.4c1e-3 1.6 0.066 2.2 0.14 1.4 0.078-0.87 0.077-2.2-3e-3 -3-0.079-0.76-0.14-0.046-0.14 1.6m-0.034 4.8c4e-3 0.82 0.08 1.1 0.17 0.64 0.088-0.46 0.085-1.1-8e-3 -1.5-0.092-0.35-0.16 0.023-0.16 0.84m-27 3.1c0 1.5 0.066 2.2 0.15 1.4 0.08-0.76 0.08-2 0-2.8s-0.15-0.14-0.15 1.4m312 0.83-1.1 1.2 1.2-1.1c0.66-0.6 1.2-1.1 1.2-1.2 0-0.29-0.3-0.034-1.3 1.1m-292 3.8c1e-3 2.2 0.062 3.1 0.14 1.9 0.074-1.2 0.073-3-1e-3 -4.1-0.075-1.1-0.14-0.098-0.13 2.1m284 3.2-2.6 2.7 2.7-2.6c2.5-2.4 2.9-2.8 2.6-2.8-0.056 0-1.3 1.2-2.7 2.7m-278 0.65c0 0.92 0.072 1.3 0.16 0.83 0.089-0.46 0.089-1.2 0-1.7-0.088-0.46-0.16-0.084-0.16 0.83m-6.6 5.4c-1e-3 1.8 0.061 2.6 0.14 1.8s0.078-2.4 2e-3 -3.3c-0.077-0.97-0.14-0.27-0.14 1.6m276 2.1-1.5 1.6 1.6-1.5c0.87-0.8 1.6-1.5 1.6-1.6 0-0.28-0.32 0-1.7 1.5m-276 9.2c0 1.9 0.062 2.7 0.14 1.8 0.077-0.97 0.077-2.6 0-3.5-0.076-0.97-0.14-0.18-0.14 1.8m156-2.7c0.46 0.088 1.2 0.088 1.7 0 0.46-0.088 0.084-0.16-0.83-0.16s-1.3 0.072-0.83 0.16m7.2-6e-3c0.36 0.093 0.94 0.093 1.3 0 0.36-0.093 0.065-0.17-0.65-0.17s-1 0.076-0.65 0.17m-156 4.9c0 1.5 0.066 2.2 0.15 1.4s0.08-2 0-2.8-0.15-0.14-0.15 1.4m144 2.9c0.87 0.078 2.3 0.078 3.1 0 0.86-0.078 0.16-0.14-1.6-0.14-1.7 0-2.4 0.064-1.6 0.14m24 2e-3c1.1 0.074 2.8 0.074 3.9 0 1.1-0.075 0.19-0.14-1.9-0.14-2.1 0-3 0.061-1.9 0.14m-168 3.6c2e-3 1.4 0.069 2 0.15 1.2 0.08-0.77 0.079-1.9-3e-3 -2.6-0.082-0.66-0.15-0.028-0.15 1.4m209 0.56c0 1.7 0.064 2.4 0.14 1.6s0.078-2.3 0-3.1-0.14-0.16-0.14 1.6m41 1-1.3 1.4 1.4-1.3c1.3-1.2 1.6-1.5 1.3-1.5-0.062 0-0.69 0.62-1.4 1.4m-276 1.8c4e-3 0.82 0.08 1.1 0.17 0.64 0.088-0.46 0.085-1.1-8e-3 -1.5-0.092-0.35-0.16 0.023-0.16 0.84m236 3c2e-3 1.2 0.071 1.7 0.15 1 0.082-0.67 0.081-1.7-4e-3 -2.2-0.084-0.56-0.15-0.011-0.15 1.2m-236 2c0 1.3 0.068 1.9 0.15 1.2 0.082-0.66 0.082-1.7 0-2.4s-0.15-0.12-0.15 1.2m267 1.7c-1.5 1.5-2.7 2.8-2.6 2.8s1.4-1.2 2.9-2.8c1.5-1.5 2.7-2.8 2.6-2.8s-1.4 1.2-2.9 2.8m-247 16c0 8.6 0.049 12 0.11 7.7 0.06-4.3 0.06-11 0-16-0.059-4.2-0.11-0.66-0.11 7.9m177-15c0.67 0.083 1.7 0.081 2.2-4e-3 0.56-0.084 0.012-0.15-1.2-0.15-1.2 3e-3 -1.7 0.072-1 0.15m-170 13c0 5.7 0.051 8 0.11 5.1s0.062-7.6 0-10c-0.063-2.8-0.11-0.4-0.11 5.3m232-5.6c-0.9 0.92-1.6 1.7-1.5 1.7s0.92-0.75 1.8-1.7 1.6-1.7 1.4-1.7c-0.1 0-0.92 0.75-1.8 1.7m-60 0.82c0.46 0.089 1.1 0.086 1.5-7e-3s-0.023-0.16-0.84-0.16c-0.81 4e-3 -1.1 0.08-0.64 0.17m53 5.8-2.6 2.7 2.7-2.6c2.5-2.4 2.9-2.8 2.6-2.8-0.056 0-1.3 1.2-2.7 2.7m-41 11c0 5.8 0.051 8.2 0.11 5.3s0.063-7.7 0-11c-0.063-2.9-0.11-0.53-0.11 5.3m31-2.1-1.5 1.6 1.6-1.5c1.5-1.4 1.7-1.7 1.5-1.7-0.06 0-0.77 0.71-1.6 1.6m-56 1.6c4e-3 0.82 0.08 1.1 0.17 0.64 0.088-0.46 0.085-1.1-8e-3 -1.5s-0.16 0.023-0.16 0.84m6.7 2.2c2e-3 1.2 0.071 1.7 0.15 1 0.082-0.67 0.08-1.7-4e-3 -2.2-0.085-0.56-0.15-0.012-0.15 1.2m-174 8.1c-1e-3 1.8 0.062 2.6 0.14 1.8 0.077-0.86 0.078-2.4 2e-3 -3.3-0.077-0.97-0.14-0.27-0.14 1.6m192 14c4e-3 0.82 0.08 1.1 0.17 0.64 0.088-0.46 0.085-1.1-8e-3 -1.5-0.092-0.35-0.16 0.023-0.16 0.84m-163 0.82c0.56 0.085 1.5 0.085 2 0 0.56-0.085 0.1-0.15-1-0.15s-1.6 0.069-1 0.15m11 0.01c1.4 0.071 3.6 0.071 4.8-1e-3 1.3-0.072 0.13-0.13-2.5-0.13-2.6 0-3.7 0.059-2.3 0.13m11-0.02c0.36 0.093 0.94 0.093 1.3 0 0.36-0.093 0.064-0.17-0.65-0.17s-1 0.076-0.65 0.17m30 0.018c1.1 0.075 2.8 0.075 3.9 0 1.1-0.075 0.2-0.14-1.9-0.14s-3 0.061-1.9 0.14m9.3-0.012c0.46 0.089 1.2 0.089 1.7 0 0.46-0.088 0.084-0.16-0.83-0.16s-1.3 0.072-0.83 0.16m7.4 7e-3c0.66 0.082 1.7 0.082 2.4 0 0.66-0.082 0.12-0.15-1.2-0.15s-1.9 0.068-1.2 0.15m9.3-6e-3c0.46 0.088 1.1 0.085 1.5-8e-3 0.35-0.092-0.023-0.16-0.84-0.16-0.81 4e-3 -1.1 0.08-0.64 0.17m27 0c0.46 0.088 1.1 0.085 1.5-8e-3 0.35-0.092-0.023-0.16-0.84-0.16s-1.1 0.08-0.64 0.17m-89 7.4c0.56 0.084 1.5 0.084 2 0 0.56-0.085 0.1-0.16-1-0.16-1.1 0-1.6 0.07-1 0.16m11 3e-3c0.67 0.082 1.7 0.08 2.2-4e-3 0.56-0.085 0.012-0.15-1.2-0.15s-1.7 0.071-1 0.15m11-1e-3c0.66 0.082 1.7 0.082 2.4 0 0.66-0.082 0.12-0.15-1.2-0.15s-1.9 0.067-1.2 0.15m38 0c0.66 0.082 1.7 0.082 2.4 0s0.12-0.15-1.2-0.15c-1.3 0-1.9 0.067-1.2 0.15m7 4e-3c0.87 0.077 2.3 0.077 3.1 0 0.87-0.078 0.16-0.14-1.6-0.14-1.7 0-2.4 0.064-1.6 0.14m-86 0.37c1.2 0.074 3.1 0.074 4.3 0 1.2-0.073 0.21-0.13-2.1-0.13s-3.3 0.06-2.1 0.13m41 19c0.76 0.08 2 0.08 2.8 0s0.14-0.14-1.4-0.14c-1.5 0-2.2 0.065-1.4 0.14m8.7-8e-3c0.46 0.088 1.2 0.088 1.7 0 0.46-0.089 0.083-0.16-0.83-0.16-0.92 0-1.3 0.072-0.83 0.16m3.5 4e-3c0.56 0.085 1.4 0.083 1.9-5e-3 0.46-0.088-5e-3 -0.16-1-0.16-1 3e-3 -1.4 0.075-0.83 0.16m4.8-0.01c0.36 0.093 0.94 0.093 1.3 0 0.36-0.094 0.065-0.17-0.65-0.17s-1 0.076-0.65 0.17m13 0c0.36 0.093 0.94 0.093 1.3 0 0.36-0.094 0.065-0.17-0.65-0.17s-1 0.076-0.65 0.17m7.8 0c0.36 0.093 0.94 0.093 1.3 0 0.36-0.094 0.065-0.17-0.65-0.17s-1 0.076-0.65 0.17m4.3 6e-3c0.46 0.089 1.1 0.085 1.5-7e-3 0.35-0.093-0.023-0.16-0.84-0.16s-1.1 0.08-0.64 0.17m7.2-6e-3c0.36 0.093 0.94 0.093 1.3 0 0.36-0.094 0.065-0.17-0.65-0.17s-1 0.076-0.65 0.17m-106 0.38c0.46 0.088 1.2 0.088 1.7 0s0.083-0.16-0.83-0.16c-0.92 0-1.3 0.073-0.83 0.16" fill="#ac9b22"/>
<path d="m90 75c1.3 0.073 3.4 0.073 4.6 0 1.3-0.072 0.23-0.13-2.3-0.13s-3.6 0.059-2.3 0.13m39 3e-3c2.2 0.065 5.7 0.065 7.8-1e-3s0.28-0.12-4-0.12c-4.3 0-6 0.054-3.8 0.12m15-0.015c0.46 0.088 1.2 0.088 1.7 0 0.46-0.089 0.083-0.16-0.83-0.16-0.92 0-1.3 0.072-0.83 0.16m15-7e-3c0.36 0.094 0.94 0.094 1.3 0 0.36-0.093 0.065-0.17-0.65-0.17s-1 0.076-0.65 0.17m-81 0.38c0.46 0.088 1.2 0.088 1.7 0 0.46-0.088 0.084-0.16-0.83-0.16s-1.3 0.073-0.83 0.16m33 1e-3c0.46 0.088 1.1 0.085 1.5-8e-3s-0.023-0.16-0.84-0.16c-0.82 4e-3 -1.1 0.08-0.64 0.17m3.5 7e-3c0.76 0.08 2 0.08 2.8 0s0.14-0.14-1.4-0.14-2.2 0.065-1.4 0.14m36 5e-3c1.2 0.073 3 0.073 4.1-2e-3 1.1-0.074 0.097-0.14-2.1-0.13-2.2 1e-3 -3.1 0.062-1.9 0.14m27 3e-3c3.3 0.061 8.7 0.061 12 0 3.3-0.062 0.6-0.11-6-0.11-6.6 0-9.3 0.05-6 0.11m26-2e-3c1.5 0.07 3.9 0.07 5.4 0 1.5-0.071 0.27-0.13-2.7-0.13-3 0-4.2 0.057-2.7 0.13m16 1e-3c2.1 0.066 5.4 0.066 7.4-1e-3 2-0.066 0.26-0.12-3.8-0.12-4.1 1e-3 -5.7 0.055-3.6 0.12m13-9e-3c0.66 0.082 1.8 0.083 2.6 3e-3 0.77-0.08 0.23-0.15-1.2-0.15s-2.1 0.064-1.4 0.15m7.7 0.28c2.9 0.58 4.1 0.67 3 0.21-0.41-0.16-1.8-0.4-3.1-0.51l-2.4-0.21 2.6 0.51m-170 0.75c-2.2 0.47-4.3 1-4.6 1.3-0.86 0.5-0.62 0.51 1 0.034 1.2-0.35 7.2-1.6 9.3-2 0.66-0.11 0.55-0.16-0.37-0.17-0.71-0.01-3.1 0.37-5.3 0.84m177 1.3c1.1 0.72 2.6 1.5 2.6 1.3 0-0.28-2.3-1.7-2.8-1.7-0.2 2e-3 -0.12 0.17 0.18 0.38m-184 0.84c-0.49 0.36-0.53 0.49-0.15 0.49 0.29 0 0.74-0.22 0.99-0.49 0.25-0.27 0.32-0.49 0.15-0.49s-0.62 0.22-0.99 0.49m-6.9 5.3c-1.8 1.9-2.7 3.1-2.5 3.1 0.09 0 1.1-1.1 2.3-2.4 2.5-2.8 2.6-3.2 0.19-0.65m200 0.65c0.23 0.41 0.77 1.2 1.2 1.7l0.77 0.93-0.55-1.1c-0.3-0.63-0.84-1.4-1.2-1.7-0.58-0.48-0.6-0.46-0.22 0.21m2.9 5.2c0.13 0.61 0.39 1.4 0.57 1.7 0.21 0.36 0.24 0.16 0.085-0.56-0.13-0.61-0.39-1.4-0.56-1.7-0.21-0.36-0.24-0.16-0.086 0.56m-149 3.9-5.4 0.22 5.6 0.077c3.6 0.049 5.6-0.059 5.6-0.29 0-0.2-0.12-0.34-0.28-0.29-0.15 0.042-2.7 0.17-5.6 0.29m29 0.052c13 0.19 23 0.22 23 0.056 0.16-0.16-10-0.32-23-0.35l-23-0.056 23 0.35m33-0.14c0 0.33 14 0.28 14-0.053 0.12-0.12-3.1-0.22-7.1-0.22-4 0-7.3 0.12-7.3 0.28m15 0.18c0 0.15 1 0.26 2.3 0.24 2.5-0.046 2.3-0.22-0.56-0.4-0.97-0.062-1.8 0.013-1.8 0.17m5-0.11c-0.082 0.13 2 0.26 4.7 0.27 4 0.022 4.5-0.031 2.8-0.29-2.3-0.36-7.4-0.35-7.6 0.021m12-0.08c0.87 0.078 2.3 0.078 3.1 0s0.16-0.14-1.6-0.14c-1.7 0-2.4 0.064-1.6 0.14m6.8 0.11c-0.94 0.15-0.13 0.18 1.9 0.083 1.9-0.098 3.6-0.24 3.7-0.32 0.24-0.22-3.7-0.054-5.5 0.24m-119 0.27c2.3 0.065 6 0.065 8.3 0s0.42-0.12-4.2-0.12c-4.6 0-6.5 0.054-4.2 0.12m74-0.012c0.56 0.085 1.5 0.085 2 0s0.1-0.15-1-0.15c-1.1 0-1.6 0.069-1 0.15m57 0.13c5.2 0.37 8.8 0.95 11 1.8 1.3 0.43 1.8 0.51 1.4 0.21-1.5-1.1-9.2-2.4-14-2.3-2.6 0.04-2.6 0.058 1.2 0.33m-138 0.24c0.36 0.093 0.94 0.093 1.3 0 0.36-0.093 0.065-0.17-0.65-0.17s-1 0.077-0.65 0.17m-3.2 0.66c-1.4 0.66-0.76 0.66 0.93 0.013 0.71-0.27 1-0.5 0.74-0.51-0.31-7e-3 -1.1 0.22-1.7 0.5m-6.9 4.2c-1.2 1.3-1.9 2.3-1.7 2.3 0.084 0 0.78-0.75 1.5-1.7 1.5-1.8 1.7-2.3 0.2-0.65m165 0.28c0.69 0.71 1.3 1.3 1.4 1.3s-0.38-0.58-1.1-1.3-1.3-1.3-1.4-1.3 0.38 0.58 1.1 1.3m-190 2.5c-0.34 4.5-0.5 27-0.22 30 0.23 2.4 0.25 2.2 0.14-1.3-0.069-2.2 8e-3 -10 0.17-18 0.3-14 0.28-16-0.099-11m192 1.2c0.52 1.1 1 1.8 1.1 1.7 0.14-0.32-1.3-3.2-1.7-3.4-0.17-0.1 0.12 0.68 0.64 1.7m-101-0.97c0.87 0.078 2.2 0.077 3-3e-3 0.76-0.079 0.046-0.14-1.6-0.14-1.6 2e-3 -2.2 0.067-1.4 0.14m36-0.016c0.36 0.093 0.94 0.093 1.3 0 0.36-0.094 0.065-0.17-0.65-0.17s-1 0.076-0.65 0.17m12 6e-3c0.46 0.088 1.2 0.088 1.7 0 0.46-0.089 0.083-0.16-0.83-0.16-0.92 0-1.3 0.072-0.83 0.16m5.6 0c0.46 0.088 1.2 0.088 1.7 0 0.46-0.089 0.083-0.16-0.83-0.16-0.92 0-1.3 0.072-0.83 0.16m15 0c0.46 0.088 1.2 0.088 1.7 0 0.46-0.089 0.084-0.16-0.83-0.16s-1.3 0.072-0.83 0.16m8.3-6e-3c0.36 0.093 0.94 0.093 1.3 0 0.36-0.094 0.065-0.17-0.65-0.17s-1 0.076-0.65 0.17m-59 0.38c0.46 0.088 1.1 0.085 1.5-8e-3s-0.023-0.16-0.84-0.16c-0.81 4e-3 -1.1 0.08-0.64 0.17m68 0.1c1.7 0.18 3.4 0.5 3.8 0.72s0.96 0.38 1.2 0.37c1.6-0.1-2.6-1.2-5.1-1.3l-3-0.12 3 0.32m-156 1.9c-0.33 0.63-0.53 1.2-0.45 1.3s0.42-0.44 0.76-1.1c0.76-1.6 0.5-1.7-0.32-0.15m172 2c0.3 1.4 0.52 1.7 0.51 0.71-3e-3 -0.39-0.18-0.96-0.38-1.3-0.27-0.4-0.31-0.26-0.13 0.56m-7.9 0.95c0.83 1.6 0.87 2 1.1 13l0.2 11 0.075-10c0.078-11-0.22-13-1.6-14-0.4-0.33-0.31 0.041 0.28 1.2m8.6 5.5c0 1.1 0.069 1.6 0.15 1s0.085-1.5 0-2-0.15-0.1-0.15 1m-175 2.8c4e-3 0.82 0.08 1.1 0.17 0.64 0.088-0.46 0.085-1.1-8e-3 -1.5-0.092-0.35-0.16 0.023-0.16 0.84m217 8.6c-0.34 0.34-0.31 3.4 0.031 3.6 0.15 0.093 0.3-0.73 0.32-1.8 0.042-2.1 0.038-2.1-0.35-1.8m-0.07 5c-0.26 1.1-0.016 16 0.27 16 0.12 0.12 0.19-3.6 0.16-8.3-0.052-8.8-0.073-9.1-0.43-7.7m-25 3.1c2e-3 1.2 0.071 1.7 0.15 1 0.082-0.67 0.08-1.7-4e-3 -2.2-0.085-0.56-0.15-0.011-0.15 1.2m36 0.3c0.12 0.31 0.87 1 1.7 1.6 0.8 0.55 1.5 1.3 1.5 1.6s0.11 0.45 0.25 0.31c0.14-0.14 0.84 0.29 1.6 0.96 0.72 0.67 0.98 0.82 0.58 0.34-1.2-1.5-5.8-5.4-5.5-4.8m14 2.6c0 0.064 0.54 0.61 1.2 1.2l1.2 1.1-1.1-1.2c-1-1.1-1.3-1.4-1.3-1.1m-262 4.6c0.047 2.5 0.16 4.5 0.26 4.4 0.26-0.26 0.14-8.4-0.12-8.7-0.12-0.12-0.19 1.8-0.14 4.3m187-0.66c-9e-3 2.1 0.11 4.2 0.27 4.6s0.22-1.1 0.14-3.3c-0.2-5.5-0.39-6.1-0.41-1.3m70 2.7c1.1 1.2 2.1 2.1 2.1 2.1 0.47 0-0.66-1.3-2.2-2.6l-1.9-1.6 2 2.1m-46 0.46c-1.2 0.67-14 0.75-15 0.093-0.73-0.39-0.76-0.37-0.3 0.19 1 1.2 16 0.74 16-0.53 0-0.18-0.041-0.32-0.092-0.3s-0.51 0.27-1 0.55m-211 3.4c-0.11 0.56-0.17 7.4-0.12 15 0.049 8.8 0.18 13 0.34 11 0.22-2.6 0.26-27 0.046-27-0.034-1e-3 -0.15 0.46-0.26 1m190 2.8c0.89 0.87 2.6 2 2.6 1.7 0-0.074-0.79-0.69-1.8-1.4-1.3-0.92-1.5-0.99-0.81-0.3m47 0.42c-0.16 0.78-0.2 1.5-0.091 1.6 0.28 0.28 0.69-1.6 0.52-2.4-0.088-0.41-0.26-0.11-0.43 0.75m28-0.96c0.021 0.15 0.9 1 1.9 1.9l1.9 1.7-1.8-1.9c-1.9-2-2.1-2.1-2-1.7m-28 3.6c-0.31 0.8-0.27 2.5 0.059 3 0.15 0.24 0.27-0.47 0.27-1.6 0-2.2-9e-3 -2.3-0.33-1.4m-33 6c-0.071 4.9-0.16 5.7-0.73 6-0.61 0.36-0.61 0.38-7e-3 0.39 0.93 0.016 1.1-1 0.94-6.8l-0.12-5.2-0.081 5.6m70-0.17c1.6 1.8 3 3.2 3.1 3.2 0.25 0-4.1-4.8-5.1-5.7-0.48-0.41 0.44 0.72 2 2.5m-37 4.4c0 2.8 0.058 3.9 0.13 2.5 0.071-1.4 0.071-3.6 0-5-0.072-1.4-0.13-0.25-0.13 2.5m43 1.4c1 1.1 1.9 1.9 2 1.8s0.1-0.22 0.015-0.27c-0.088-0.051-0.99-0.84-2-1.8l-1.8-1.7 1.8 1.9m-126 0.87c-8.9 0.2-13 0.62-13 1.4-0.09 0.15 0.7 0.018 1.8-0.28 1.4-0.4 4.8-0.62 12-0.78 5.5-0.12 9.8-0.31 9.6-0.41-0.2-0.1-4.7-0.089-10 0.028m12 0.032c0.084 0.14 8.3 0.26 18 0.28s18-0.06 18-0.17c-0.3-0.3-36-0.4-36-0.1m-27 2.9c-1.2 1.2-3.2 4.4-2.7 4.4 0.16 0 0.52-0.54 0.8-1.2s1.1-1.9 1.9-2.8c1.7-1.8 1.7-2.1-0.042-0.43m98 0.76c-0.23 0.93-1 1.8-2.7 3.1-0.67 0.52-0.63 0.52 0.43 8e-3 1.2-0.6 2.9-2.9 2.6-3.6-0.084-0.25-0.26-0.021-0.4 0.51m49 0.43c0 0.4 1.9 2.5 2.7 2.9 0.98 0.53 0.8 0.26-1-1.5-0.92-0.9-1.7-1.5-1.7-1.4m-56 3.5c0.46 0.088 1.1 0.085 1.5-8e-3 0.35-0.092-0.022-0.16-0.84-0.16s-1.1 0.08-0.64 0.17m-68 0.38c1.2 0.073 3.1 0.073 4.3 0 1.2-0.074 0.21-0.13-2.1-0.13-2.3 0-3.3 0.06-2.1 0.13m7.8-0.018c0.36 0.093 0.94 0.093 1.3 0 0.36-0.094 0.065-0.17-0.65-0.17s-1 0.076-0.65 0.17m5.4 0.018c1.1 0.075 2.7 0.074 3.7-2e-3s0.08-0.14-2-0.14c-2 1e-3 -2.8 0.064-1.7 0.14m30-8e-3c0.56 0.084 1.5 0.084 2 0 0.56-0.085 0.1-0.16-1-0.16-1.1 0-1.6 0.07-1 0.16m4.4-0.01c0.36 0.093 0.94 0.093 1.3 0 0.36-0.094 0.065-0.17-0.65-0.17s-1 0.076-0.65 0.17m3 0c0.36 0.093 0.94 0.093 1.3 0 0.36-0.094 0.065-0.17-0.65-0.17s-1 0.076-0.65 0.17m12 0c0.36 0.093 0.94 0.093 1.3 0 0.36-0.094 0.065-0.17-0.65-0.17s-1 0.076-0.65 0.17m-81 2.4c-0.16 0.26-0.31 8.9-0.32 19l-0.016 19 0.2-19c0.11-10 0.34-19 0.5-19 0.16-0.25 0.22-0.46 0.11-0.46s-0.32 0.21-0.48 0.46m149 0.75c0.63 0.81 4.9 4.5 4.9 4.2 0-0.1-1.2-1.2-2.7-2.5s-2.5-2.1-2.2-1.7m-292 7.9c0 4.5 0.054 6.3 0.12 4 0.065-2.3 0.065-6-1e-3 -8.1-0.065-2.2-0.12-0.29-0.12 4.2m134-1.5c2e-3 1 0.074 1.4 0.16 0.83 0.086-0.56 0.083-1.4-5e-3 -1.9-0.087-0.46-0.16 6e-3 -0.15 1m165 0.69c0 0.35 2.7 2.8 3.5 3.3 0.41 0.22 0.66 0.32 0.56 0.22-0.1-0.093-1.1-0.97-2.1-2-1.1-0.98-1.9-1.7-1.9-1.5m7.4 7c0 0.063 0.54 0.6 1.2 1.2l1.2 1.1-1.1-1.2c-1-1.1-1.3-1.4-1.3-1.1m2.8 2.6c0.1 0.25 0.64 0.78 1.2 1.2 1 0.71 1 0.71-0.085-0.46-1.2-1.3-1.4-1.4-1.1-0.71m-310 0.13c-0.15 0.15-0.27 0.53-0.27 0.84 0 0.42 0.11 0.46 0.41 0.16 0.23-0.23 0.35-0.6 0.27-0.84s-0.26-0.3-0.41-0.16m0.014 7c0.16 7.2 0.37 8.1 0.37 1.7-1e-3 -2.8-0.11-5.5-0.25-6.1-0.14-0.61-0.19 1.4-0.12 4.4m314-0.99c-0.031 0.47-0.24 1.2-0.47 1.7-0.38 0.75-0.37 0.77 0.21 0.21 0.41-0.39 0.57-0.98 0.47-1.7-0.13-0.85-0.17-0.89-0.21-0.21m-5.6 7.8-3.1 3.2 3.2-3.1c3-2.9 3.4-3.3 3.1-3.3-0.055 0-1.5 1.5-3.2 3.2m-289 0.65c1e-3 1.6 0.066 2.2 0.14 1.4 0.078-0.87 0.077-2.2-3e-3 -3-0.079-0.76-0.14-0.046-0.14 1.6m-20 34c0.016 19 0.11 34 0.22 34 0.3 0.3 0.32-66 0.023-67-0.15-0.79-0.25 14-0.24 33m301-28-2 2.1 2.1-2c2-1.9 2.3-2.2 2-2.2-0.058 0-1 0.96-2.1 2.1m-281 1.8c2e-3 1.2 0.071 1.7 0.15 1 0.083-0.66 0.081-1.7-3e-3 -2.2-0.085-0.56-0.15-0.012-0.15 1.2m123 2.5c-0.073 4.5 0.52 6.2 2.2 6.2 0.26 0 0.058-0.28-0.45-0.62s-1-0.69-1.1-0.77c-0.1-0.083-0.28-2.2-0.39-4.7l-0.21-4.5-0.07 4.4m155-0.57-1.3 1.4 1.4-1.3c1.3-1.2 1.6-1.5 1.3-1.5-0.062 0-0.69 0.62-1.4 1.4m-162 0.83c0 0.71 0.076 1 0.17 0.65 0.093-0.36 0.093-0.94 0-1.3s-0.17-0.065-0.17 0.65m158 3.2-2 2.1 2.1-2c2-1.9 2.3-2.2 2-2.2-0.058 0-1 0.96-2.1 2.1m-67 3.1c0.41 0.18 1.4 0.31 2.2 0.3l1.5-0.016-1.5-0.31c-0.82-0.17-1.8-0.3-2.2-0.3l-0.74 5e-3 0.74 0.32m59 5.1-5.6 5.4 5.6-5.3c5-4.7 5.9-5.6 5.6-5.6-0.051 4e-3 -2.6 2.4-5.6 5.4m-264-1.7c0 1.9 0.063 2.7 0.14 1.8s0.076-2.6 0-3.5c-0.076-0.97-0.14-0.18-0.14 1.8m130-3.1c0.97 0.077 2.5 0.076 3.3-2e-3 0.86-0.078 0.063-0.14-1.8-0.14-1.8 1e-3 -2.5 0.065-1.6 0.14m15 5e-3c5.7 0.057 15 0.057 21 0s1.2-0.1-10-0.1-16 0.047-11 0.1m34-0.01c0.66 0.082 1.8 0.083 2.6 3e-3 0.77-0.08 0.23-0.15-1.2-0.15s-2.1 0.064-1.4 0.15m4.8-6e-3c0.46 0.089 1.1 0.086 1.5-7e-3s-0.023-0.16-0.84-0.16-1.1 0.08-0.64 0.17m9.6 6e-3c0.66 0.083 1.7 0.083 2.4 0 0.66-0.082 0.12-0.15-1.2-0.15s-1.9 0.067-1.2 0.15m5.4 2e-3c0.76 0.08 2 0.08 2.8 0s0.14-0.14-1.4-0.14-2.2 0.065-1.4 0.14m12 0.23c0.085 0.073 0.65 0.24 1.3 0.38 0.81 0.18 0.96 0.15 0.56-0.13-0.5-0.34-2.2-0.58-1.8-0.25m-94 2.1c0.24 0.5 0.85 1.3 1.4 1.9 1.2 1.2 0.54-0.068-0.83-1.6-0.83-0.96-0.9-0.99-0.52-0.21m99 1c0.56 0.86 0.69 2.2 0.87 9.7l0.21 8.7-0.028-8.9c-0.029-8.8-0.26-11-1.4-11-0.16 0 6e-3 0.45 0.37 1m42 8.8c-0.99 0.92-1.7 1.7-1.6 1.8s0.98-0.67 2-1.7c2.3-2.3 2.1-2.4-0.33-0.15m-5.7 5.4c-1.9 1.9-3.5 3.6-3.7 3.8s1.4-1.3 3.5-3.3c3.5-3.4 4-3.9 3.7-3.9-0.051 0-1.6 1.5-3.5 3.4m-74 4.2c0.66 0.082 1.7 0.082 2.4 0s0.12-0.15-1.2-0.15-1.9 0.067-1.2 0.15m39 0.57c0.013 1.1 0.72 1.6 0.73 0.56 3e-3 -0.56-0.16-1-0.36-1s-0.37 0.21-0.36 0.46m-216 1.6c4e-3 0.82 0.08 1.1 0.17 0.64 0.089-0.46 0.086-1.1-7e-3 -1.5s-0.16 0.023-0.16 0.84m169 1.5c-0.54 0.71-0.92 1.4-0.85 1.6 0.07 0.19 0.58-0.39 1.1-1.3 1.2-2 1.1-2.1-0.28-0.34m72 2.2c-0.92 0.87-2.1 2.1-2.6 2.7-0.5 0.6 0.29-0.067 1.8-1.5 2.4-2.3 2.9-2.8 2.6-2.8-0.051 9e-3 -0.84 0.72-1.8 1.6m-241 1.9c2e-3 1.2 0.072 1.7 0.15 1s0.081-1.7-4e-3 -2.2c-0.084-0.56-0.15-0.012-0.15 1.2m216 4.1c0 3.3 0.057 4.5 0.13 2.9 0.068-1.7 0.068-4.4-1e-3 -5.9s-0.13-0.19-0.12 3.1m-49 7.8c0 6.5 0.05 9.1 0.11 5.8 0.061-3.3 0.061-8.7-1e-3 -12-0.061-3.2-0.11-0.48-0.11 6m13-11c-5.7 0.33-5.5 0.052-5.3 7l0.12 4.6 0.08-5c0.066-4.2 0.19-5.1 0.69-5.6 0.8-0.66 14-0.99 15-0.36 0.22 0.22 0.57 0.41 0.78 0.41 0.2 0 0.16-0.21-0.092-0.46-0.58-0.59-6.4-0.9-11-0.62m54 4.5-3 3.1 3.1-3c2.8-2.7 3.2-3.2 3-3.2-0.056 0-1.4 1.4-3.1 3.1m-234 2.5c0 1.1 0.069 1.6 0.15 1 0.085-0.56 0.085-1.5 0-2-0.085-0.56-0.15-0.1-0.15 1m192 3.9c2e-3 1.2 0.071 1.7 0.15 1 0.083-0.67 0.081-1.7-4e-3 -2.2-0.084-0.56-0.15-0.011-0.15 1.2m35-0.27c-0.98 0.97-2 2.1-2.3 2.5-0.29 0.4 0.58-0.34 1.9-1.7 1.4-1.3 2.5-2.4 2.5-2.5 0-0.32-0.5 0.077-2.1 1.7m-227 1.8c2e-3 1.4 0.069 2 0.15 1.2 0.08-0.77 0.079-1.9-3e-3 -2.6-0.082-0.66-0.15-0.029-0.15 1.4m216-0.56c-0.071 1-3e-3 1.9 0.15 1.9 0.15 0 0.28-0.83 0.28-1.9 0-2.4-0.26-2.4-0.43 0m-41 3.5c4e-3 0.82 0.08 1.1 0.17 0.64 0.088-0.46 0.085-1.1-8e-3 -1.5-0.093-0.36-0.16 0.022-0.16 0.84m48-0.27-0.71 1 0.99-0.9c1-0.94 1.2-1.1 0.71-1.1-0.15 6e-3 -0.6 0.46-0.99 1m-6.8 1.9c0.037 0.49 0.32 0.96 0.62 1 0.37 0.099 0.41 0.046 0.14-0.16-0.23-0.17-0.51-0.64-0.62-1-0.16-0.58-0.19-0.55-0.14 0.16m4.3 0.029c-0.51 0.4-0.74 0.73-0.52 0.73 0.22 5e-3 0.71-0.32 1.1-0.73 0.84-0.93 0.64-0.93-0.56 0m-45 1.1c0 0.71 0.076 1 0.17 0.65 0.093-0.36 0.093-0.94 0-1.3-0.093-0.36-0.17-0.065-0.17 0.65m-175 1.3c2e-3 1.2 0.072 1.7 0.15 1s0.081-1.7-4e-3 -2.2c-0.084-0.56-0.15-0.012-0.15 1.2m192 1.3c0 1.3 0.068 1.9 0.15 1.2s0.082-1.7 0-2.4-0.15-0.12-0.15 1.2m-17 1.9c0 1.3 0.067 1.9 0.15 1.2 0.082-0.66 0.082-1.7 0-2.4-0.083-0.66-0.15-0.12-0.15 1.2m-195 4.9c-0.016 3.4 0.11 6.3 0.27 6.4 0.28 0.18 0.18-11-0.11-12-0.072-0.2-0.14 2.4-0.16 5.8m187-3.9c-0.14 0.14-0.23 0.76-0.21 1.4l0.034 1.1 0.36-1.2c0.36-1.2 0.29-1.8-0.18-1.3m25 3.5c0 2.1 0.061 3 0.14 1.9 0.075-1.1 0.075-2.8 0-3.9-0.075-1.1-0.14-0.19-0.14 1.9m-25 2.5c-0.039 1.2-0.15 2.8-0.26 3.5l-0.18 1.2 0.39-1.2c0.21-0.68 0.33-2.3 0.26-3.5l-0.13-2.3-0.072 2.3m7.4 1.1c-0.1 3.1-0.75 6.4-1.6 8-0.92 1.8-0.89 2.4 0.033 0.68 1.3-2.4 1.9-5.1 1.8-8.1-0.12-2.7-0.13-2.7-0.2-0.61m17 2.2c4e-3 0.81 0.08 1.1 0.17 0.64 0.088-0.46 0.085-1.1-8e-3 -1.5-0.092-0.35-0.16 0.023-0.16 0.84m-212 7.3c0.14 2.7 0.4 5.5 0.59 6.2 0.24 0.91 0.26 0.46 0.082-1.5-0.14-1.5-0.26-4.3-0.26-6.2s-0.15-3.4-0.34-3.4c-0.2 0-0.23 2-0.082 4.9m184-2.3c-0.4 0.4-1.8 1.1-3.1 1.6s-2.2 0.93-2 0.94c0.96 0.04 4.6-1.6 5.4-2.4 1-1.1 0.8-1.2-0.24-0.16m27 3c0 1.5 0.065 2.2 0.14 1.4 0.08-0.76 0.08-2 0-2.8s-0.14-0.14-0.14 1.4m-178-1.2c0.71 0.32 2 0.63 3 0.7l1.7 0.12-1.7-0.32c-0.92-0.18-2.1-0.5-2.7-0.73-1.6-0.6-1.7-0.43-0.25 0.23m5.5 0.96c0.16 0.16 1.2 0.24 2.3 0.18l2-0.12-2.3-0.18c-1.3-0.099-2.2-0.045-2 0.12m136 0.26-1.7 0.26 1.5 0.018c0.81 0.011 1.9-0.11 2.4-0.28 1.2-0.38 0.19-0.38-2.2 0m-125 0.28c3 0.062 7.9 0.062 11 0 3-0.063 0.55-0.11-5.5-0.11s-8.5 0.051-5.5 0.11m17-0.015c0.46 0.088 1.1 0.085 1.5-8e-3s-0.023-0.16-0.84-0.16-1.1 0.08-0.64 0.17m8.4 0.015c3.4 0.061 8.9 0.061 12 0 3.3-0.062 0.5-0.11-6.2-0.11s-9.4 0.051-6 0.11m26-1e-3c1.9 0.067 5 0.067 6.9 0 1.9-0.068 0.34-0.12-3.4-0.12-3.8 0-5.3 0.055-3.4 0.12m16 0c2.6 0.064 6.8 0.064 9.3 0 2.5-0.064 0.35-0.12-4.7-0.12-5.1 0-7.1 0.053-4.5 0.12m16-4e-3c0.97 0.076 2.6 0.076 3.5 0 0.97-0.077 0.18-0.14-1.8-0.14-1.9 0-2.7 0.062-1.8 0.14m7.8 3e-3c1.4 0.071 3.6 0.07 4.8-2e-3 1.3-0.072 0.13-0.13-2.5-0.13-2.6 1e-3 -3.7 0.06-2.3 0.13m10 0c1.8 0.068 4.7 0.068 6.5 0 1.8-0.068 0.32-0.12-3.2-0.12s-5 0.055-3.2 0.12m-56 0.35c0.36 0.093 0.94 0.093 1.3 0 0.36-0.093 0.065-0.17-0.65-0.17s-1 0.076-0.65 0.17m93 2.5c-0.84 0.65-1.8 1.4-2.2 1.7-0.39 0.26 6e-3 0.11 0.87-0.34 0.87-0.45 1.9-1.2 2.4-1.7 1.1-1.1 0.81-1-1 0.37m21 2.5c-0.25 1.5-0.39 2.7-0.31 2.8 0.22 0.22 1.1-4.6 0.91-5.1-0.078-0.23-0.35 0.78-0.6 2.3m-172 2.8c0.56 0.085 1.5 0.085 2 0s0.1-0.15-1-0.15c-1.1 0-1.6 0.069-1 0.15m16 6e-3c0.87 0.079 2.2 0.078 3-2e-3 0.76-0.08 0.046-0.14-1.6-0.14-1.6 1e-3 -2.2 0.066-1.4 0.14m13 3e-3c1.4 0.071 3.7 0.072 5.2 1e-3 1.5-0.07 0.37-0.13-2.5-0.13-2.9-1e-3 -4.1 0.057-2.7 0.13m9.5-3e-3c0.86 0.078 2.3 0.078 3.1 0s0.16-0.14-1.6-0.14c-1.7 0-2.4 0.064-1.6 0.14m10 2e-3c1.1 0.075 2.8 0.075 3.9 0s0.19-0.14-1.9-0.14c-2.1 0-3 0.061-1.9 0.14m16 0.057c0.46 0.29 1.9 0.15 1.9-0.19 0-0.078-0.54-0.14-1.2-0.14-0.82 4e-3 -1 0.11-0.7 0.32m4.4-0.069c0.46 0.088 1.2 0.088 1.7 0 0.46-0.088 0.083-0.16-0.83-0.16-0.92 0-1.3 0.072-0.83 0.16m15 9e-3c25 0.26 44 0.26 43 7e-3 -0.095-0.15-12-0.24-27-0.19-15 0.047-22 0.13-17 0.18m-76 0.38c1.3 0.072 3.3 0.072 4.4-2e-3 1.2-0.073 0.12-0.13-2.3-0.13-2.4 1e-3 -3.4 0.061-2.1 0.13m162 3.9c-0.44 0.86-1.2 2.1-1.6 2.9l-0.8 1.3 0.79-0.93c0.9-1 2.7-4.4 2.5-4.7-0.077-0.077-0.5 0.56-0.93 1.4m-201 5.7c1.2 1.3 3.6 3.1 3.6 2.7 0-0.079-0.75-0.68-1.7-1.3-1-0.72-1.6-1.4-1.4-1.6 0.14-0.24 0.11-0.31-0.057-0.16s-0.65-9e-3 -1.1-0.36-0.15 0.027 0.61 0.84m196 1.5c-1.2 1.1-1.9 1.9-1.5 1.7 0.7-0.38 4.2-3.8 3.9-3.8-0.093 7e-3 -1.2 0.95-2.4 2.1m-187 4c0.51 0.29 1.1 0.53 1.3 0.53s-0.046-0.24-0.56-0.53c-0.51-0.29-1.1-0.53-1.3-0.53-0.2 0 0.047 0.24 0.56 0.53m178 1.5c-0.22 0.22-1.9 0.57-4.6 0.96l-2.2 0.32 2.6-0.14c2.2-0.11 6.1-1.2 4.8-1.3-0.22-0.017-0.47 0.043-0.56 0.13m-171 0.96c0.71 0.17 3.6 0.4 6.5 0.5 4.9 0.18 5 0.17 1.3-0.13-8-0.64-9.1-0.7-7.8-0.37m19 0.38c-5.4 0.18-4.8 0.21 4.5 0.28 5.8 0.043 11-0.046 11-0.2 0.2-0.33-6.7-0.36-15-0.079m16 0.087c-0.24 0.16 2.7 0.18 6.6 0.043 3.9-0.13 7.1-0.32 7.2-0.41 0.32-0.3-13 0.07-14 0.37m17 0.021c2 0.23 3.3 0.22 3.9-0.017 0.61-0.27-0.19-0.36-3.1-0.35l-3.9 0.016 3.1 0.35m6.4-0.25c0.92 0.063 16 0.16 34 0.22 18 0.055 31 8e-3 29-0.1-1.3-0.11-16-0.21-34-0.22s-30 0.042-29 0.1m66 0.22c0 0.15 3.8 0.26 8.4 0.23s8.1-0.11 7.7-0.18c-1.5-0.27-16-0.31-16-0.047m20-0.048c0.53 0.33 6.1 0.46 5.8 0.13-0.11-0.11-1.6-0.25-3.2-0.32-1.8-0.074-2.8 5e-3 -2.6 0.19m8.5-0.013c-1.1 0.12 0.86 0.24 4.6 0.28 3.6 0.033 6.6-9e-3 6.5-0.094-0.27-0.27-9-0.41-11-0.18" fill="#fbe723"/>
<path d="m135 68c0.46 0.089 1.1 0.086 1.5-7e-3s-0.022-0.16-0.84-0.16-1.1 0.08-0.64 0.17m5.7-6e-3c0.36 0.093 0.94 0.093 1.3 0 0.36-0.093 0.064-0.17-0.65-0.17-0.71 0-1 0.077-0.65 0.17m37 0.37c0.36 0.093 0.94 0.093 1.3 0 0.36-0.093 0.065-0.17-0.65-0.17s-1 0.076-0.65 0.17m-92 6.7c0.56 0.085 1.5 0.085 2 0 0.56-0.085 0.1-0.16-1-0.16s-1.6 0.07-1 0.16m46-0.01c0.36 0.093 0.94 0.093 1.3 0 0.36-0.093 0.065-0.17-0.65-0.17s-1 0.077-0.65 0.17m-30 0.37c0.36 0.093 0.94 0.093 1.3 0 0.36-0.093 0.065-0.17-0.65-0.17s-1 0.076-0.65 0.17m6.9 6e-3c0.46 0.088 1.2 0.088 1.7 0s0.083-0.16-0.83-0.16c-0.92 0-1.3 0.072-0.83 0.16m55 1e-3c0.46 0.088 1.1 0.085 1.5-8e-3 0.35-0.092-0.023-0.16-0.84-0.16s-1.1 0.08-0.64 0.17m5.7 4e-3c0.56 0.085 1.4 0.082 1.9-5e-3 0.46-0.088-5e-3 -0.16-1-0.16-1 3e-3 -1.4 0.074-0.83 0.16m20 2e-3c0.66 0.082 1.7 0.082 2.4 0s0.12-0.15-1.2-0.15-1.9 0.068-1.2 0.15m27-6e-3c0.46 0.088 1.1 0.085 1.5-8e-3 0.35-0.092-0.023-0.16-0.84-0.16s-1.1 0.08-0.64 0.17m16 3e-3c0.56 0.085 1.5 0.085 2 0 0.56-0.085 0.1-0.15-1-0.15s-1.6 0.069-1 0.15m5-3e-3c0.46 0.088 1.1 0.085 1.5-8e-3 0.35-0.092-0.023-0.16-0.84-0.16-0.82 4e-3 -1.1 0.08-0.64 0.17m-61 0.37c0.56 0.085 1.4 0.083 1.9-5e-3 0.46-0.088-5e-3 -0.16-1-0.16-1 3e-3 -1.4 0.075-0.83 0.16m5 2e-3c0.66 0.082 1.7 0.082 2.4 0s0.12-0.15-1.2-0.15-1.9 0.067-1.2 0.15m25-0.013c0.36 0.094 0.94 0.094 1.3 0 0.36-0.093 0.065-0.17-0.65-0.17s-1 0.076-0.65 0.17m21 7e-3c0.46 0.089 1.1 0.085 1.5-7e-3 0.35-0.093-0.023-0.17-0.84-0.16-0.81 4e-3 -1.1 0.08-0.64 0.17m-168 7.7c-0.9 0.92-1.6 1.7-1.4 1.7s0.92-0.75 1.8-1.7c0.9-0.92 1.6-1.7 1.4-1.7s-0.92 0.75-1.8 1.7m35 12c0.36 0.093 0.94 0.093 1.3 0 0.36-0.093 0.065-0.17-0.65-0.17s-1 0.077-0.65 0.17m22 0.01c0.56 0.085 1.5 0.085 2 0 0.56-0.085 0.1-0.16-1-0.16s-1.6 0.07-1 0.16m31 7e-3c0.97 0.076 2.6 0.076 3.5 0 0.97-0.077 0.18-0.14-1.8-0.14-1.9 0-2.7 0.062-1.8 0.14m14 2e-3c1.5 0.071 3.9 0.071 5.4 0 1.5-0.07 0.27-0.13-2.7-0.13s-4.2 0.057-2.7 0.13m9.3-0.013c0.46 0.088 1.2 0.088 1.7 0 0.46-0.088 0.083-0.16-0.83-0.16-0.92 0-1.3 0.073-0.83 0.16m3.7 7e-3c0.67 0.082 1.7 0.081 2.2-4e-3 0.56-0.084 0.012-0.15-1.2-0.15s-1.7 0.071-1 0.15m17 8e-3c2.5 0.064 6.6 0.064 9.1 0 2.5-0.064 0.45-0.12-4.5-0.12-5 0-7 0.052-4.5 0.12m19-4e-3c0.97 0.076 2.6 0.076 3.5 0 0.97-0.077 0.18-0.14-1.8-0.14s-2.7 0.062-1.8 0.14m11-3e-3c0.76 0.08 2 0.08 2.8 0s0.14-0.14-1.4-0.14-2.2 0.065-1.4 0.14m-132 0.37c0.67 0.083 1.7 0.081 2.2-4e-3 0.56-0.084 0.011-0.15-1.2-0.15s-1.7 0.071-1 0.15m138-0.013c0.36 0.093 0.94 0.093 1.3 0 0.36-0.093 0.065-0.17-0.65-0.17s-1 0.076-0.65 0.17m3.2 0.38c0.46 0.089 1.1 0.085 1.5-7e-3 0.35-0.093-0.023-0.17-0.84-0.16-0.82 4e-3 -1.1 0.08-0.64 0.17m-153 4.6-1.1 1.2 1.2-1.1c0.66-0.6 1.2-1.1 1.2-1.2 0-0.29-0.31-0.034-1.3 1.1m44 2c0.46 0.089 1.2 0.089 1.7 0 0.46-0.088 0.083-0.16-0.83-0.16-0.92 0-1.3 0.072-0.83 0.16m31 0.013c1.2 0.073 3.1 0.073 4.3 0 1.2-0.074 0.21-0.13-2.1-0.13-2.3 0-3.3 0.06-2.1 0.13m8.7-6e-3c0.66 0.082 1.7 0.082 2.4 0s0.12-0.15-1.2-0.15-1.9 0.068-1.2 0.15m9.8-0.013c0.36 0.093 0.94 0.093 1.3 0 0.36-0.093 0.065-0.17-0.65-0.17s-1 0.076-0.65 0.17m56 0.01c0.56 0.085 1.5 0.085 2 0s0.1-0.15-1-0.15c-1.1 0-1.6 0.069-1 0.15m-144 2.4-1.1 1.2 1.2-1.1c0.66-0.6 1.2-1.1 1.2-1.2 0-0.29-0.3-0.034-1.3 1.1m182 6c3e-3 1 0.074 1.4 0.16 0.83 0.085-0.56 0.082-1.4-5e-3 -1.9-0.088-0.46-0.16 5e-3 -0.16 1m-18 8.7c0 2.1 0.062 3 0.14 1.9 0.075-1.1 0.075-2.8 0-3.9-0.074-1.1-0.14-0.2-0.14 1.9m-167-1.1c0 1.3 0.068 1.9 0.15 1.2s0.082-1.7 0-2.4-0.15-0.12-0.15 1.2m186 11c0 3.5 0.056 4.9 0.12 3.3 0.069-1.7 0.069-4.5 1e-3 -6.3-0.068-1.8-0.12-0.43-0.12 3m-213-2.6c3e-3 1 0.075 1.4 0.16 0.83s0.083-1.4-5e-3 -1.9c-0.088-0.46-0.16 5e-3 -0.16 1m27 3.1c0 2.8 0.058 3.9 0.13 2.5 0.071-1.4 0.071-3.6 0-5-0.072-1.4-0.13-0.25-0.13 2.5m214-3.2c1.5 1.6 1.9 1.9 1.9 1.7 0-0.059-0.79-0.85-1.8-1.8l-1.8-1.7 1.7 1.8m5.9 5.3c0.69 0.71 1.3 1.3 1.4 1.3s-0.38-0.58-1.1-1.3-1.3-1.3-1.4-1.3 0.38 0.58 1.1 1.3m6.7 6.3c0.69 0.71 1.3 1.3 1.4 1.3 0.1 0-0.38-0.58-1.1-1.3s-1.3-1.3-1.4-1.3 0.38 0.58 1.1 1.3m-50 6c0.36 0.093 0.94 0.093 1.3 0 0.36-0.093 0.065-0.17-0.65-0.17s-1 0.076-0.65 0.17m59 2.3c0.8 0.82 1.5 1.5 1.6 1.5 0.1 0-0.46-0.67-1.3-1.5s-1.5-1.5-1.6-1.5 0.47 0.67 1.3 1.5m4.3 3.8c0 0.064 0.54 0.6 1.2 1.2l1.2 1.1-1.1-1.2c-1-1.1-1.3-1.4-1.3-1.1m-70 1.3c0.46 0.089 1.2 0.089 1.7 0 0.46-0.088 0.084-0.16-0.83-0.16s-1.3 0.072-0.83 0.16m6.9 2.5c2e-3 1.4 0.069 2 0.15 1.2 0.08-0.77 0.079-1.9-3e-3 -2.6-0.082-0.66-0.15-0.029-0.15 1.4m-177 0.74c4e-3 0.81 0.08 1.1 0.17 0.64 0.088-0.46 0.085-1.1-8e-3 -1.5s-0.16 0.023-0.16 0.84m0.018 5.7c0 1.1 0.069 1.6 0.15 1s0.085-1.5 0-2-0.15-0.1-0.15 1m210 1.3c3e-3 1 0.075 1.4 0.16 0.83s0.083-1.4-5e-3 -1.9c-0.088-0.46-0.16 5e-3 -0.16 1m45 2.8c0.8 0.82 1.5 1.5 1.6 1.5 0.1 0-0.46-0.67-1.3-1.5-0.8-0.81-1.5-1.5-1.6-1.5s0.47 0.67 1.3 1.5m-282 0.37c0 0.71 0.076 1 0.17 0.65 0.093-0.36 0.093-0.94 0-1.3-0.093-0.36-0.17-0.065-0.17 0.65m152 0.27c0.66 0.082 1.8 0.083 2.6 3e-3 0.77-0.08 0.23-0.15-1.2-0.15-1.4-1e-3 -2.1 0.064-1.4 0.15m8.3-0.012c0.36 0.093 0.94 0.093 1.3 0 0.36-0.093 0.064-0.17-0.65-0.17s-1 0.076-0.65 0.17m26 0.011c0.56 0.085 1.4 0.082 1.9-5e-3 0.46-0.088-5e-3 -0.16-1-0.16-1 3e-3 -1.4 0.074-0.83 0.16m8.3 2e-3c0.66 0.083 1.7 0.081 2.2-4e-3 0.56-0.084 0.012-0.15-1.2-0.15-1.2 2e-3 -1.7 0.071-1 0.15m92 4.3c0 0.064 0.54 0.61 1.2 1.2l1.2 1.1-1.1-1.2c-1-1.1-1.3-1.4-1.3-1.1m6.9 6.6c1 1 1.9 1.9 2 1.9 0.1 0-0.64-0.83-1.6-1.9-1-1-1.9-1.9-2-1.9-0.1 0 0.64 0.83 1.6 1.9m-151 3c0 1.5 0.065 2.2 0.14 1.4s0.08-2 0-2.8-0.14-0.14-0.14 1.4m154-0.62c0 0.064 0.54 0.6 1.2 1.2l1.2 1.1-1.1-1.2c-1-1.1-1.3-1.4-1.3-1.1m-270 2.5c0 1.1 0.069 1.6 0.15 1s0.085-1.5 0-2-0.15-0.1-0.15 1m116 8.1c0 2.8 0.058 3.9 0.13 2.5 0.071-1.4 0.071-3.6 0-5-0.072-1.4-0.13-0.25-0.13 2.5m-116 0.37c0 2.1 0.061 3 0.14 1.9 0.074-1.1 0.074-2.8 0-3.9-0.075-1.1-0.14-0.2-0.14 1.9m109-1.1c0 0.92 0.073 1.3 0.16 0.83 0.088-0.46 0.088-1.2 0-1.7-0.088-0.46-0.16-0.084-0.16 0.83m173 1.6c0 0.063 0.54 0.6 1.2 1.2l1.2 1.1-1.1-1.2c-1-1.1-1.3-1.4-1.3-1.1m-173 4.1c4e-3 0.82 0.08 1.1 0.17 0.64 0.089-0.46 0.086-1.1-7e-3 -1.5s-0.16 0.023-0.16 0.84m-136 0.93c0 0.71 0.077 1 0.17 0.65 0.093-0.36 0.093-0.94 0-1.3-0.093-0.36-0.17-0.065-0.17 0.65m143 1.5c0 0.71 0.076 1 0.17 0.65 0.094-0.36 0.094-0.94 0-1.3-0.093-0.36-0.17-0.065-0.17 0.65m-6.7 1.1c0 0.92 0.073 1.3 0.16 0.83 0.088-0.46 0.088-1.2 0-1.7s-0.16-0.083-0.16 0.83m0.014 4.6c2e-3 1.2 0.071 1.7 0.15 1 0.082-0.67 0.081-1.7-4e-3 -2.2-0.084-0.56-0.15-0.012-0.15 1.2m-109 4.1c1e-3 3.3 0.058 4.5 0.13 2.9 0.069-1.7 0.069-4.4 0-5.9-0.07-1.6-0.13-0.19-0.13 3.1m116 0.18c0 2.8 0.058 3.9 0.13 2.5 0.071-1.4 0.071-3.6 0-5-0.072-1.4-0.13-0.25-0.13 2.5m169-1.8-1.5 1.6 1.6-1.5c1.5-1.4 1.7-1.7 1.5-1.7-0.061 0-0.77 0.71-1.6 1.6m-284 17c1e-3 4.9 0.053 6.8 0.12 4.3 0.065-2.5 0.064-6.5 0-8.9s-0.12-0.33-0.12 4.6m-27-3c1e-3 2.9 0.059 4 0.13 2.5 0.071-1.5 0.07-3.8-1e-3 -5.2s-0.13-0.15-0.13 2.7m142 0c0 2.2 0.061 3.1 0.14 1.9 0.074-1.2 0.073-3-1e-3 -4.1-0.075-1.1-0.14-0.097-0.13 2.1m155-0.46-1.1 1.2 1.2-1.1c0.66-0.6 1.2-1.1 1.2-1.2 0-0.29-0.31-0.035-1.3 1.1m-7.9 7.5c-0.9 0.92-1.6 1.7-1.5 1.7s0.92-0.75 1.8-1.7c0.9-0.92 1.6-1.7 1.4-1.7-0.1 0-0.92 0.75-1.8 1.7m-83-0.28c0.76 0.08 2 0.08 2.8 0 0.76-0.08 0.14-0.15-1.4-0.15-1.5 0-2.2 0.066-1.4 0.15m18-9e-3c0.46 0.088 1.2 0.088 1.7 0 0.46-0.088 0.083-0.16-0.83-0.16-0.92 0-1.3 0.072-0.83 0.16m-225 6.6c1e-3 2.2 0.062 3.1 0.14 1.9 0.074-1.2 0.073-3-2e-3 -4.1-0.074-1.1-0.13-0.098-0.13 2.1m236 0c4e-3 0.81 0.08 1.1 0.17 0.64 0.089-0.46 0.086-1.1-7e-3 -1.5s-0.16 0.023-0.16 0.84m47 0.37c-0.9 0.92-1.6 1.7-1.4 1.7s0.92-0.75 1.8-1.7c0.9-0.92 1.6-1.7 1.4-1.7-0.1 0-0.92 0.75-1.8 1.7m-127 0.46c2.9 0.063 7.6 0.063 10 0 2.8-0.063 0.4-0.11-5.3-0.11-5.7 0-8 0.052-5.1 0.11m38-0.015c0.46 0.088 1.2 0.088 1.7 0 0.46-0.089 0.083-0.16-0.83-0.16-0.92 0-1.3 0.072-0.83 0.16m6.9 4e-3c1.2 0.081 2.4 0.34 2.5 0.59 0.22 0.31 0.27 0.28 0.16-0.11-0.11-0.42-0.75-0.56-2.5-0.59l-2.4-0.033 2.2 0.15m-18 0.37c0.66 0.082 1.8 0.083 2.6 3e-3s0.23-0.15-1.2-0.15c-1.4-2e-3 -2.1 0.064-1.4 0.15m-163 5.7c0 2.3 0.06 3.3 0.13 2.1 0.073-1.2 0.073-3.1 0-4.3-0.074-1.2-0.13-0.21-0.13 2.1m183 1.5c0 3 0.057 4.2 0.13 2.7 0.07-1.5 0.07-3.9 0-5.4-0.071-1.5-0.13-0.27-0.13 2.7m-177-0.18c3e-3 1 0.075 1.4 0.16 0.83s0.083-1.4-5e-3 -1.9c-0.088-0.46-0.16 5e-3 -0.16 1m241 6.3c-0.9 0.92-1.6 1.7-1.4 1.7 0.1 0 0.92-0.75 1.8-1.7 0.9-0.92 1.6-1.7 1.5-1.7s-0.92 0.75-1.8 1.7m-241 5.4c0 0.71 0.077 1 0.17 0.65 0.093-0.36 0.093-0.94 0-1.3-0.093-0.36-0.17-0.064-0.17 0.65m176 2.9c0.87 0.078 2.2 0.077 3-3e-3 0.76-0.079 0.046-0.14-1.6-0.14-1.6 1e-3 -2.2 0.067-1.4 0.14m5.4-0.017c0.36 0.094 0.94 0.094 1.3 0 0.36-0.093 0.065-0.17-0.65-0.17s-1 0.076-0.65 0.17m-11 0.37c0.36 0.093 0.94 0.093 1.3 0 0.36-0.093 0.065-0.17-0.65-0.17s-1 0.077-0.65 0.17m-9.2 6.6c0 3.1 0.058 4.3 0.13 2.7 0.07-1.6 0.069-4.1-1e-3 -5.6s-0.13-0.17-0.13 2.9m25-1.5c2e-3 1.6 0.067 2.2 0.14 1.4s0.077-2.2-2e-3 -3c-0.08-0.76-0.14-0.046-0.14 1.6m-186 5.7c0 1.7 0.064 2.4 0.14 1.6 0.078-0.87 0.078-2.3 0-3.1-0.078-0.86-0.14-0.16-0.14 1.6m168 2.4c2e-3 1.4 0.068 2 0.15 1.2 0.08-0.77 0.078-1.9-3e-3 -2.6-0.082-0.66-0.15-0.029-0.15 1.4m-6.7 8c0 0.71 0.076 1 0.17 0.65 0.093-0.36 0.093-0.94 0-1.3-0.093-0.36-0.17-0.065-0.17 0.65m-188 4.4c0 1.3 0.067 1.9 0.15 1.2 0.083-0.66 0.083-1.7 0-2.4-0.082-0.66-0.15-0.12-0.15 1.2m8e-3 13c2e-3 1.6 0.067 2.2 0.14 1.4s0.077-2.2-2e-3 -3c-0.08-0.76-0.14-0.045-0.14 1.6m213-0.18c0 0.92 0.072 1.3 0.16 0.83 0.089-0.46 0.089-1.2 0-1.7-0.088-0.46-0.16-0.084-0.16 0.83m-173 2.9c0.56 0.085 1.4 0.083 1.9-5e-3 0.46-0.088-5e-3 -0.16-1-0.16-1 3e-3 -1.4 0.075-0.83 0.16m4.6 0.37c0.66 0.082 1.7 0.082 2.4 0s0.12-0.15-1.2-0.15-1.9 0.068-1.2 0.15m88-0.013c0.36 0.093 0.94 0.093 1.3 0 0.36-0.093 0.064-0.17-0.65-0.17-0.71 0-1 0.076-0.65 0.17m15 6e-3c0.46 0.089 1.2 0.089 1.7 0 0.46-0.088 0.083-0.16-0.83-0.16-0.92 0-1.3 0.072-0.83 0.16m-97 0.37c0.46 0.089 1.1 0.085 1.5-7e-3 0.35-0.093-0.023-0.16-0.84-0.16s-1.1 0.08-0.64 0.17m18 8e-3c0.76 0.08 2 0.08 2.8 0s0.14-0.14-1.4-0.14c-1.5 0-2.2 0.065-1.4 0.14m9.8-1e-3c0.67 0.082 1.7 0.08 2.2-4e-3 0.56-0.085 0.012-0.15-1.2-0.15s-1.7 0.071-1 0.15m17-7e-3c0.46 0.088 1.2 0.088 1.7 0 0.46-0.089 0.083-0.16-0.83-0.16-0.92 0-1.3 0.072-0.83 0.16m4.6 4e-3c0.56 0.085 1.4 0.083 1.9-5e-3 0.46-0.088-6e-3 -0.16-1-0.16-1 3e-3 -1.4 0.075-0.83 0.16m3.7 0c0.56 0.085 1.4 0.083 1.9-5e-3 0.46-0.088-5e-3 -0.16-1-0.16-1 3e-3 -1.4 0.075-0.83 0.16m10 7e-3c0.97 0.076 2.6 0.076 3.5 0 0.97-0.077 0.18-0.14-1.8-0.14s-2.7 0.062-1.8 0.14m6.1-0.011c0.46 0.089 1.1 0.085 1.5-7e-3 0.35-0.093-0.023-0.16-0.84-0.16s-1.1 0.08-0.64 0.17m34 6e-3c0.66 0.081 1.8 0.083 2.6 3e-3 0.77-0.081 0.23-0.15-1.2-0.15-1.4-2e-3 -2.1 0.064-1.4 0.15m10 5e-3c0.97 0.076 2.6 0.076 3.5 0 0.97-0.077 0.18-0.14-1.8-0.14s-2.7 0.062-1.8 0.14m11-0.011c0.46 0.088 1.2 0.088 1.7 0 0.46-0.089 0.083-0.16-0.83-0.16-0.92 0-1.3 0.072-0.83 0.16m0.18 6.7c0.36 0.093 0.94 0.093 1.3 0 0.36-0.093 0.065-0.17-0.65-0.17s-1 0.076-0.65 0.17m-131 0.38c0.56 0.085 1.4 0.083 1.9-5e-3 0.46-0.088-5e-3 -0.16-1-0.16-1 3e-3 -1.4 0.075-0.83 0.16m9.4-4e-3c0.46 0.088 1.2 0.088 1.7 0 0.46-0.089 0.083-0.16-0.83-0.16-0.92 0-1.3 0.072-0.83 0.16m9.3 0c0.46 0.089 1.1 0.086 1.5-7e-3s-0.023-0.16-0.84-0.16c-0.82 4e-3 -1.1 0.08-0.64 0.17m34 6e-3c0.66 0.081 1.8 0.083 2.6 3e-3 0.77-0.081 0.23-0.15-1.2-0.15s-2.1 0.064-1.4 0.15m6.3 6e-3c1.1 0.075 2.7 0.074 3.7-2e-3 0.96-0.076 0.08-0.14-2-0.14s-2.8 0.063-1.7 0.14m9.8-0.018c0.36 0.093 0.94 0.093 1.3 0 0.36-0.094 0.065-0.17-0.65-0.17s-1 0.076-0.65 0.17m54 0.01c0.56 0.084 1.5 0.084 2 0 0.56-0.085 0.1-0.16-1-0.16-1.1 0-1.6 0.07-1 0.16m39 12-1.5 1.6 1.6-1.5c1.5-1.4 1.7-1.7 1.5-1.7-0.061 0-0.77 0.71-1.6 1.6m-93 7.2c0.56 0.085 1.4 0.083 1.9-5e-3 0.46-0.088-6e-3 -0.16-1-0.16-1 3e-3 -1.4 0.075-0.83 0.16m-69 0.37c0.56 0.085 1.5 0.085 2 0s0.1-0.15-1-0.15c-1.1 0-1.6 0.069-1 0.15m9.8-4e-3c0.46 0.088 1.2 0.088 1.7 0 0.46-0.088 0.084-0.16-0.83-0.16s-1.3 0.073-0.83 0.16m6.9 4e-3c0.56 0.085 1.5 0.085 2 0 0.56-0.085 0.1-0.15-1-0.15s-1.6 0.069-1 0.15m96 3e-3c0.67 0.082 1.7 0.081 2.2-4e-3 0.56-0.084 0.012-0.15-1.2-0.15-1.2 2e-3 -1.7 0.072-1 0.15m5-3e-3c0.56 0.085 1.5 0.085 2 0s0.1-0.15-1-0.15c-1.1 0-1.6 0.069-1 0.15m22 3e-3c0.66 0.082 1.7 0.081 2.2-4e-3 0.56-0.084 0.012-0.15-1.2-0.15-1.2 2e-3 -1.7 0.072-1 0.15" fill="#706413"/>
<path d="m86 75c0.36 0.093 0.94 0.093 1.3 0 0.36-0.093 0.065-0.17-0.65-0.17s-1 0.076-0.65 0.17m17 0.37c0.36 0.094 0.94 0.094 1.3 0 0.36-0.093 0.065-0.17-0.65-0.17s-1 0.076-0.65 0.17m6.5 7e-3c0.46 0.089 1.1 0.085 1.5-7e-3 0.35-0.093-0.023-0.17-0.84-0.16-0.81 4e-3 -1.1 0.08-0.64 0.17m54 0c0.46 0.088 1.2 0.088 1.7 0 0.46-0.089 0.084-0.16-0.83-0.16s-1.3 0.072-0.83 0.16m5.2 0c0.46 0.088 1.2 0.088 1.7 0 0.46-0.089 0.083-0.16-0.83-0.16-0.92 0-1.3 0.072-0.83 0.16m86 7.3c1.1 1.1 2.1 2 2.2 2s-0.72-0.92-1.8-2c-1.1-1.1-2.1-2-2.2-2s0.72 0.92 1.8 2m-198 1.2-1.3 1.4 1.4-1.3c1.3-1.2 1.6-1.5 1.3-1.5-0.062 0-0.69 0.62-1.4 1.4m61 10c0.56 0.085 1.4 0.083 1.9-5e-3 0.46-0.088-5e-3 -0.16-1-0.16-1 3e-3 -1.4 0.075-0.83 0.16m25-4e-3c0.46 0.089 1.1 0.085 1.5-7e-3 0.35-0.093-0.023-0.17-0.84-0.16-0.82 5e-3 -1.1 0.08-0.64 0.17m33-1e-3c0.46 0.089 1.2 0.089 1.7 0 0.46-0.088 0.083-0.16-0.83-0.16-0.92 0-1.3 0.072-0.83 0.16m4.3 5e-3c0.56 0.085 1.4 0.083 1.9-5e-3 0.46-0.088-6e-3 -0.16-1-0.16-1 3e-3 -1.4 0.075-0.83 0.16m33-0.011c0.36 0.094 0.94 0.094 1.3 0 0.36-0.093 0.065-0.17-0.65-0.17s-1 0.076-0.65 0.17m-125 0.38c0.46 0.089 1.1 0.086 1.5-7e-3s-0.023-0.16-0.84-0.16c-0.81 4e-3 -1.1 0.08-0.64 0.17m151 4.9c1 1 1.9 1.9 2 1.9s-0.64-0.83-1.6-1.9c-1-1-1.9-1.9-2-1.9s0.64 0.83 1.6 1.9m-164-0.093-1.3 1.4 1.4-1.3c1.3-1.2 1.6-1.5 1.3-1.5-0.062 0-0.69 0.62-1.4 1.4m72 3c0.56 0.085 1.4 0.083 1.9-5e-3 0.46-0.088-5e-3 -0.16-1-0.16-1 3e-3 -1.4 0.075-0.83 0.16m5.7 0.01c1.7 0.068 4.4 0.068 6.1 0 1.7-0.069 0.3-0.12-3.1-0.12s-4.7 0.056-3.1 0.12m16-0.014c0.46 0.089 1.1 0.085 1.5-7e-3 0.35-0.093-0.022-0.16-0.84-0.16s-1.1 0.08-0.64 0.17m13 7e-3c0.66 0.082 1.7 0.08 2.2-4e-3 0.56-0.085 0.012-0.15-1.2-0.15-1.2 2e-3 -1.7 0.071-1 0.15m41 1e-3c0.76 0.08 2 0.08 2.8 0 0.76-0.08 0.14-0.14-1.4-0.14-1.5 0-2.2 0.065-1.4 0.14m39 21c0 10 0.048 14 0.11 9.4 0.058-5.1 0.058-14 0-19-0.058-5.1-0.11-0.94-0.11 9.4m-192-10c0 0.71 0.076 1 0.17 0.65 0.093-0.36 0.093-0.94 0-1.3-0.094-0.36-0.17-0.065-0.17 0.65m175 16c1e-3 7.1 0.05 10 0.11 6.4s0.061-9.5 0-13-0.11-0.53-0.11 6.6m-195-8c0 0.92 0.072 1.3 0.16 0.83 0.089-0.46 0.089-1.2 0-1.7-0.088-0.46-0.16-0.084-0.16 0.83m188 9.3c0 0.92 0.072 1.3 0.16 0.83 0.088-0.46 0.088-1.2 0-1.7s-0.16-0.083-0.16 0.83m-188 4.3c4e-3 0.81 0.08 1.1 0.17 0.64 0.088-0.46 0.085-1.1-8e-3 -1.5-0.092-0.35-0.16 0.023-0.16 0.84m188 0.93c0 0.92 0.072 1.3 0.16 0.83s0.088-1.2 0-1.7c-0.088-0.46-0.16-0.083-0.16 0.83m-168 1.1c0 1.1 0.069 1.6 0.15 1s0.085-1.5 0-2-0.15-0.1-0.15 1m231-1c0 0.064 0.54 0.61 1.2 1.2l1.2 1.1-1.1-1.2c-1-1.1-1.3-1.4-1.3-1.1m-231 6.2c0 0.92 0.072 1.3 0.16 0.83 0.089-0.46 0.089-1.2 0-1.7-0.088-0.46-0.16-0.084-0.16 0.83m240 2c0 0.063 0.54 0.6 1.2 1.2l1.2 1.1-1.1-1.2c-1-1.1-1.3-1.4-1.3-1.1m-240 4.7c0 0.92 0.072 1.3 0.16 0.83 0.089-0.46 0.089-1.2 0-1.7-0.088-0.46-0.16-0.083-0.16 0.83m173 2.2c-0.11 0.17 6e-3 0.34 0.25 0.36 0.24 0.026 0.95 0.14 1.6 0.25 1.1 0.19 1.1 0.19 0.12-0.13-0.54-0.18-1.2-0.43-1.4-0.56-0.21-0.13-0.46-0.089-0.57 0.084m-173 3.8c0 1.7 0.064 2.4 0.14 1.6 0.078-0.87 0.078-2.3 0-3.1-0.078-0.86-0.14-0.16-0.14 1.6m178-2.7c1.2 0.073 3 0.073 4.1-2e-3 1.1-0.074 0.097-0.14-2.1-0.13-2.2 1e-3 -3.1 0.062-1.9 0.14m39 4.7c3e-3 1 0.075 1.4 0.16 0.83s0.083-1.4-5e-3 -1.9c-0.088-0.46-0.16 5e-3 -0.16 1m40 3.6c0.91 0.97 1.7 1.8 1.8 1.8 0.28 0-0.016-0.33-1.7-1.9l-1.8-1.7 1.7 1.8m-100 4.6c0.46 0.089 1.1 0.086 1.5-7e-3s-0.023-0.16-0.84-0.16c-0.81 4e-3 -1.1 0.08-0.64 0.17m107 2.1c0.91 0.97 1.7 1.8 1.8 1.8 0.28 0-0.016-0.33-1.7-1.9l-1.8-1.7 1.7 1.8m-123 5.4c2.1 0.066 5.4 0.066 7.4 0 2-0.067 0.26-0.12-3.8-0.12-4.1 1e-3 -5.7 0.055-3.6 0.12m20-0.011c0.56 0.085 1.5 0.085 2 0s0.1-0.15-1-0.15c-1.1 0-1.6 0.069-1 0.15m24 8e-3c1.1 0.075 2.8 0.075 3.9 0 1.1-0.075 0.19-0.14-1.9-0.14s-3 0.061-1.9 0.14m9.8 1e-3c1.2 0.074 3 0.073 4.1-2e-3 1.1-0.074 0.098-0.13-2.1-0.13-2.2 1e-3 -3.1 0.062-1.9 0.14m8.5 0c1.2 0.074 3 0.073 4.1-2e-3 1.1-0.074 0.097-0.13-2.1-0.13-2.2 1e-3 -3.1 0.062-1.9 0.14m-77 0.42c-0.28 0.18 0.9 0.24 2.8 0.14 1.8-0.099 3.3-0.24 3.4-0.32 0.32-0.3-5.7-0.12-6.2 0.19m7.3-0.066c0.46 0.089 1.1 0.085 1.5-7e-3 0.36-0.093-0.022-0.16-0.84-0.16s-1.1 0.08-0.64 0.17m33 6e-3c0.66 0.081 1.8 0.083 2.6 3e-3 0.77-0.081 0.23-0.15-1.2-0.15-1.4-2e-3 -2.1 0.064-1.4 0.15m8.7 6e-3c1.2 0.074 3 0.073 4.1-1e-3 1.1-0.075 0.098-0.14-2.1-0.13s-3.1 0.062-1.9 0.14m95 1.4c0.69 0.71 1.3 1.3 1.4 1.3s-0.38-0.58-1.1-1.3-1.3-1.3-1.4-1.3c-0.1 0 0.38 0.58 1.1 1.3m-155 2.2c5e-3 0.82 0.08 1.1 0.17 0.64s0.085-1.1-7e-3 -1.5c-0.093-0.35-0.17 0.023-0.16 0.84m-135 1.9c2e-3 1.4 0.069 2 0.15 1.2 0.08-0.77 0.079-1.9-3e-3 -2.6-0.082-0.66-0.15-0.029-0.15 1.4m20 1.5c2e-3 1.2 0.071 1.7 0.15 1 0.083-0.66 0.081-1.7-3e-3 -2.2-0.085-0.56-0.15-0.012-0.15 1.2m278 1.1c1.1 1.1 2.1 2 2.2 2s-0.72-0.92-1.8-2c-1.1-1.1-2.1-2-2.2-2-0.1 0 0.72 0.92 1.8 2m-163 22c0 12 0.047 17 0.1 11s0.057-16 0-22-0.1-1.1-0.1 11m170-14c0.8 0.82 1.5 1.5 1.6 1.5 0.1 0-0.46-0.67-1.3-1.5s-1.5-1.5-1.6-1.5 0.47 0.67 1.3 1.5m-286 7.4c0 4.4 0.054 6.2 0.12 4 0.066-2.2 0.066-5.8 0-8-0.065-2.2-0.12-0.4-0.12 4m-20-3.7c0 0.71 0.076 1 0.17 0.65 0.093-0.36 0.093-0.94 0-1.3-0.093-0.36-0.17-0.064-0.17 0.65m7e-3 5.7c4e-3 0.82 0.08 1.1 0.17 0.64 0.088-0.46 0.085-1.1-8e-3 -1.5-0.092-0.36-0.16 0.022-0.16 0.84m314 4c-0.54 0.74-0.63 1-0.23 0.68 0.61-0.49 1.5-1.9 1.2-1.9-0.071 0-0.52 0.54-1 1.2m-4.4 4.9c-0.9 0.92-1.6 1.7-1.4 1.7 0.1 0 0.92-0.75 1.8-1.7 0.9-0.92 1.6-1.7 1.4-1.7s-0.92 0.75-1.8 1.7m-4.7 4.4-1.1 1.2 1.2-1.1c0.66-0.6 1.2-1.1 1.2-1.2 0-0.29-0.31-0.034-1.3 1.1m-284 11c0 1.3 0.068 1.9 0.15 1.2s0.082-1.7 0-2.4-0.15-0.12-0.15 1.2m115 3c-0.016 0.32 0.23 0.9 0.55 1.3 0.57 0.71 0.57 0.71 0.24-0.022-0.19-0.41-0.43-0.99-0.55-1.3-0.18-0.48-0.21-0.48-0.24 0.022m151 2.8-1.3 1.4 1.4-1.3c0.76-0.7 1.4-1.3 1.4-1.4 0-0.28-0.31-0.017-1.5 1.3m-267 11c0 4.4 0.054 6.2 0.12 4 0.066-2.2 0.066-5.8 0-8-0.065-2.2-0.12-0.4-0.12 4m259-4-1.8 1.9 1.9-1.8c1.8-1.7 2.1-2.1 1.8-2.1-0.059 0-0.93 0.88-1.9 1.9m-7.8 7.4-1.5 1.6 1.6-1.5c0.87-0.8 1.6-1.5 1.6-1.6 0-0.28-0.32 0-1.7 1.5m-272 6.2c0 0.92 0.072 1.3 0.16 0.83 0.089-0.46 0.089-1.2 0-1.7-0.088-0.46-0.16-0.083-0.16 0.83m191 0.28c-0.89 0.87-0.9 0.91-0.098 0.28 1.6-1.2 1.7-1.3 1.4-1.3-0.14 0-0.72 0.46-1.3 1m72 2.2-1.3 1.4 1.4-1.3c0.76-0.7 1.4-1.3 1.4-1.4 0-0.28-0.31-0.016-1.5 1.3m-58 3.7c0.46 0.089 1.1 0.086 1.5-7e-3s-0.023-0.16-0.84-0.16-1.1 0.08-0.64 0.17m52 2.1-1.1 1.2 1.2-1.1c0.66-0.6 1.2-1.1 1.2-1.2 0-0.29-0.31-0.034-1.3 1.1m-62 1c0 0.71 0.076 1 0.17 0.65 0.093-0.36 0.093-0.94 0-1.3-0.094-0.36-0.17-0.065-0.17 0.65m18 1.5c0 1.1 0.07 1.6 0.15 1 0.085-0.56 0.085-1.5 0-2-0.084-0.56-0.15-0.1-0.15 1m23 5.7c2e-3 1.6 0.067 2.2 0.14 1.4s0.077-2.2-2e-3 -3c-0.08-0.76-0.14-0.046-0.14 1.6m-41 2.6c4e-3 0.81 0.08 1.1 0.17 0.64 0.088-0.46 0.085-1.1-8e-3 -1.5s-0.16 0.023-0.16 0.84m-0.34 10c0 1.5 0.065 2.2 0.14 1.4s0.08-2 0-2.8-0.14-0.14-0.14 1.4m-174 7.8c0 0.71 0.076 1 0.17 0.65 0.093-0.36 0.093-0.94 0-1.3-0.093-0.36-0.17-0.064-0.17 0.65m192 6.7c0 1.1 0.069 1.6 0.15 1s0.085-1.5 0-2-0.15-0.1-0.15 1m-144 4c0.56 0.085 1.5 0.085 2 0s0.1-0.15-1-0.15c-1.1 0-1.6 0.069-1 0.15m9.4-4e-3c0.46 0.089 1.2 0.089 1.7 0 0.46-0.088 0.083-0.16-0.83-0.16-0.92 0-1.3 0.072-0.83 0.16m37 7e-3c0.66 0.083 1.7 0.081 2.2-3e-3 0.56-0.085 0.012-0.15-1.2-0.15-1.2 2e-3 -1.7 0.071-1 0.15m49 2e-3c0.76 0.08 2 0.08 2.8 0 0.76-0.08 0.14-0.15-1.4-0.15-1.5 0-2.2 0.066-1.4 0.15m12 7.4c0.36 0.093 0.94 0.093 1.3 0 0.36-0.094 0.065-0.17-0.65-0.17s-1 0.076-0.65 0.17m-132 0.38c0.46 0.088 1.1 0.085 1.5-8e-3s-0.023-0.16-0.84-0.16c-0.82 4e-3 -1.1 0.08-0.64 0.17m162 11-1.1 1.2 1.2-1.1c0.66-0.6 1.2-1.1 1.2-1.2 0-0.29-0.31-0.034-1.3 1.1m-139 7.2c0.56 0.085 1.4 0.083 1.9-5e-3 0.46-0.088-5e-3 -0.16-1-0.16-1 3e-3 -1.4 0.075-0.83 0.16m3.5-4e-3c0.46 0.089 1.1 0.085 1.5-7e-3 0.35-0.093-0.023-0.16-0.84-0.16-0.82 4e-3 -1.1 0.08-0.64 0.17m13-6e-3c0.36 0.093 0.94 0.093 1.3 0 0.36-0.094 0.064-0.17-0.65-0.17s-1 0.076-0.65 0.17m-45 0.37c0.36 0.093 0.94 0.093 1.3 0 0.36-0.093 0.065-0.17-0.65-0.17s-1 0.076-0.65 0.17" fill="#e3ca36"/>
<path d="m105 75c0.66 0.082 1.7 0.082 2.4 0s0.12-0.15-1.2-0.15-1.9 0.068-1.2 0.15m16 0c0.66 0.083 1.7 0.081 2.2-4e-3 0.56-0.084 0.012-0.15-1.2-0.15-1.2 2e-3 -1.7 0.071-1 0.15m46-7e-3c0.46 0.088 1.2 0.088 1.7 0 0.46-0.088 0.084-0.16-0.83-0.16s-1.3 0.072-0.83 0.16m30 0.01c0.87 0.079 2.2 0.078 3-2e-3 0.76-0.08 0.046-0.14-1.6-0.14-1.6 1e-3 -2.3 0.066-1.4 0.14m17-5e-3c0.56 0.085 1.4 0.082 1.9-5e-3 0.46-0.088-5e-3 -0.16-1-0.16-1 3e-3 -1.4 0.074-0.83 0.16m-124 27c0.87 0.078 2.3 0.078 3.1 0 0.87-0.078 0.16-0.14-1.6-0.14-1.7 0-2.4 0.064-1.6 0.14m6.9-0.016c0.36 0.093 0.94 0.093 1.3 0 0.36-0.093 0.065-0.17-0.65-0.17s-1 0.077-0.65 0.17m166 14c4e-3 0.82 0.08 1.1 0.17 0.64 0.088-0.46 0.085-1.1-8e-3 -1.5-0.092-0.35-0.16 0.023-0.16 0.84m-186 20c0 0.92 0.072 1.3 0.16 0.83 0.089-0.46 0.089-1.2 0-1.7-0.088-0.46-0.16-0.084-0.16 0.83m126 36c0.56 0.085 1.4 0.082 1.9-5e-3 0.46-0.088-5e-3 -0.16-1-0.16-1 3e-3 -1.4 0.074-0.83 0.16m35-0.011c0.36 0.093 0.94 0.093 1.3 0 0.36-0.093 0.064-0.17-0.65-0.17s-1 0.076-0.65 0.17m5.2 0.017c0.97 0.076 2.6 0.076 3.5 0s0.18-0.14-1.8-0.14-2.7 0.063-1.8 0.14m-166 3.8c0 0.92 0.072 1.3 0.16 0.83 0.089-0.46 0.089-1.2 0-1.7-0.088-0.46-0.16-0.084-0.16 0.83m-6.6 17c1e-3 1.4 0.068 2 0.15 1.2 0.08-0.77 0.078-1.9-3e-3 -2.6-0.082-0.66-0.15-0.029-0.15 1.4m160 40c0.36 0.093 0.94 0.093 1.3 0 0.36-0.093 0.065-0.17-0.65-0.17s-1 0.076-0.65 0.17m7 0c0.36 0.093 0.94 0.093 1.3 0 0.36-0.093 0.065-0.17-0.65-0.17s-1 0.076-0.65 0.17" fill="#7c5906"/>
</g>
</svg>
