<svg width="400" height="400" version="1.1" viewBox="0 0 400 400" xmlns="http://www.w3.org/2000/svg">
<g fill-rule="evenodd">
<path d="m154 81c-84 0.24-78 0.069-86 2.5-16 5.4-24 21-20 40 3.1 15 14 24 30 26 7.8 0.83 236 0.53 241-0.32 16-2.8 26-12 29-28 1-5 1.1-8.3 0.33-12-0.31-1.4-0.75-3.3-0.98-4.3-2.1-9.4-11-19-21-22-6.5-2-28-2.7-79-2.5-9.6 0.031-52 0.16-94 0.27m156 16c5.5 0.22 8.9 0.53 10 0.94 19 5.2 17 31-2.3 35-4.5 1.1-236 1-240-8e-3 -19-5.3-19-30-0.93-35 3.7-1.1 210-1.8 233-0.87m-227 68c-19 0.9-31 10-34 25-0.24 1.2-0.59 2.9-0.78 3.8-1.3 5.7 0.22 15 3.3 22 4.8 9.8 13 16 26 18 5.6 1 239 0.99 244-0.014 16-3.2 25-12 28-28 2.9-16-5.9-32-20-38-4.2-1.5-8.3-2.1-17-2.5-9.5-0.41-220-0.39-229 0.02m234 16c11 1.9 17 8.5 17 18-4e-3 10-6.6 17-18 19-4.7 0.66-233 0.56-236-0.098-21-4.1-22-31-2.2-36 4.9-1.3 233-1.7 240-0.41m-235 67c-22 1.3-36 15-35 36 0.78 18 10 29 27 33 7.1 1.6 240 1.6 247-7e-3 16-3.7 25-12 27-28 1.1-6.4 1-8.4-1-17-3-12-13-21-28-23-3.8-0.66-227-1.1-238-0.43m218 0.71c17 0.33 19 0.55 22 1.8l0.93 0.42-0.93-0.17c-5.8-1.1-10-1.1-124-1-63 0.032-116 0.17-117 0.3-2.4 0.26-2.7-0.053-0.35-0.42 0.8-0.13 1.6-0.34 1.8-0.47 0.87-0.56 191-0.93 217-0.42m-0.74 1.6c9.1 0.17 17 0.42 17 0.55 0.37 0.13-1.4 0.17-4 0.086-9.3-0.31-37 0.36-36 0.85 1.5 0.44 1.5 0.44-1.9 0.69-8.1 0.6-14 0.69-15 0.27-1.1-0.29-5.8-0.42-14-0.4-12 0.025-15-0.15-8.9-0.7 2.9-0.28 2.6-0.3-2.9-0.35-3.3-0.028-7.5-0.12-9.4-0.21-4.5-0.2-2.5 0.11 3 0.46 3.8 0.24 3.1 0.3-7.2 0.56-6.3 0.16-12 0.2-12 0.083-0.11-0.11 1.6-0.22 3.8-0.24 2.2-0.018 4.9-0.15 5.9-0.29 2.5-0.35-17-0.73-23-0.44l-4.3 0.22 2.4 0.37c2.1 0.32 1.2 0.39-6.5 0.55-4.9 0.1-9.4 0.06-10-0.093s-5.9-0.3-12-0.32c-5.8-0.025-12-0.16-13-0.3s2.6-0.22 8.9-0.18c11 0.065 11 0.049 4.3-0.21-4-0.15-24-0.32-44-0.38-20-0.057-36-0.21-35-0.35 0.82-0.14 12-0.19 26-0.11 13 0.074 33 0 45-0.16 27-0.38 121-0.35 142 0.055m-121 0.46c0.46 0.089 1.2 0.089 1.7 0 0.46-0.088 0.083-0.16-0.83-0.16-0.92 0-1.3 0.072-0.83 0.16m11 0.013c1.4 0.071 3.7 0.072 5.2 1e-3 1.5-0.07 0.37-0.13-2.5-0.13-2.9 0-4.1 0.057-2.7 0.13m21 1e-3c1.4 0.071 3.6 0.071 5 0 1.4-0.072 0.25-0.13-2.5-0.13s-3.9 0.058-2.5 0.13m28 2e-3c3.5 0.061 9.3 0.061 13 0s0.64-0.11-6.4-0.11c-7 0-9.9 0.049-6.4 0.11m38-4e-3c0.97 0.076 2.5 0.075 3.3-2e-3 0.86-0.078 0.063-0.14-1.8-0.14-1.8 2e-3 -2.5 0.065-1.6 0.14m8.7-5e-3c0.66 0.082 1.7 0.082 2.4 0s0.12-0.15-1.2-0.15-1.9 0.067-1.2 0.15m-188 0.82c-2.4 0.12-5.3 0.12-6.5-7e-3 -1.3-0.14 0.5-0.23 4.3-0.23 6 6e-3 6.2 0.022 2.2 0.23m78-0.077c0.87 0.078 2.3 0.078 3.1 0 0.86-0.078 0.16-0.14-1.6-0.14-1.7 0-2.4 0.064-1.6 0.14m72 0.14c2.2 0.17 4.9 0.17 5.9-9e-3 1.4-0.24 0.48-0.32-4-0.31l-5.9 9e-3 4 0.31m66-0.15c-0.46 0.088-1.2 0.088-1.7 0s-0.083-0.16 0.83-0.16c0.92 0 1.3 0.072 0.83 0.16m-112 0.38c-0.77 0.081-1.9 0.079-2.6-3e-3 -0.66-0.081-0.029-0.15 1.4-0.14 1.4 1e-3 2 0.068 1.2 0.15m5.6 0c-0.76 0.08-2 0.08-2.8 0s-0.14-0.14 1.4-0.14 2.2 0.065 1.4 0.14m85-5e-3c-0.56 0.085-1.5 0.085-2 0-0.56-0.084-0.1-0.15 1-0.15 1.1 0 1.6 0.07 1 0.15m-4.1 0.36c-0.36 0.093-0.94 0.093-1.3 0-0.36-0.093-0.065-0.17 0.65-0.17s1 0.077 0.65 0.17m2.9 5.5c23 0.19 31 0.46 32 1.1 0.097 0.097-1.1 0.051-2.8-0.1s-57-0.28-123-0.28-119-0.12-119-0.27c0.67-0.15 42-0.37 91-0.49 49-0.12 90-0.3 90-0.39 0.091-0.092 1.1-0.083 2.2 0.019 1.1 0.1 14 0.28 29 0.4m28 6.6c20 4.8 21 31 0.34 36-3.4 0.93-235 1.2-240 0.31-20-3.8-21-31-1.3-36 5.1-1.3 235-1.7 241-0.38" fill="#070707"/>
<path d="m96 104c-14 0.19-17 0.32-19 0.83-5.7 2.2-7.8 5.3-7.5 11 0.37 6.2 4.1 9.7 11 11 3.3 0.47 228 0.48 232 8e-3 15-2 17-19 2.5-22-2.4-0.48-187-0.77-220-0.34m2.4 83c-16 0.19-19 0.31-21 0.83-12 3.9-11 19 1.7 22 2.8 0.67 230 0.84 234 0.18 7.9-1.1 12-5 12-12-0.023-6.5-3.6-10-11-11-2.9-0.45-182-0.68-216-0.28m83 61c1.6 0.07 4.1 0.07 5.6-1e-3 1.5-0.07 0.17-0.13-2.9-0.13-3.1 0-4.3 0.058-2.7 0.13m58-9e-3c0.56 0.085 1.4 0.082 1.9-6e-3 0.46-0.087-5e-3 -0.16-1-0.15-1 2e-3 -1.4 0.074-0.83 0.16m33-5e-3c0.46 0.088 1.2 0.088 1.7 0 0.46-0.088 0.083-0.16-0.83-0.16-0.92 0-1.3 0.072-0.83 0.16m-138 22c-54 0.25-55 0.26-58 1.8-9.9 4.3-7.4 19 3.6 21 3.1 0.66 228 0.83 234 0.17 8.1-0.93 13-5.4 13-12 0-6.2-4-10-12-11-3.7-0.48-106-0.66-180-0.31" fill="#fbf2d9"/>
<path d="m140 103c-0.045 0.045-13 0.1-28 0.13-34 0.057-35 0.14-39 4.1-6.7 6.7-1.8 18 8.3 20 3.8 0.55 232 0.18 235-0.38 6.7-1.4 10-5.4 11-12 0.37-7.4-3.9-11-14-12-2.7-0.22-171-0.46-172-0.24m176 1.2c15 2.9 13 20-2.5 22-3.6 0.47-229 0.46-232-8e-3 -7.2-1-11-4.6-11-11-0.34-5.7 1.8-8.7 7.5-11 2.9-1.1 233-1.6 238-0.49m-58 82c-2.3 0.049-43 0.15-91 0.22-93 0.14-88 0.031-92 2.1-4.3 2.2-5.7 4.7-5.7 10 3e-3 7.1 3.3 11 11 12 2.6 0.54 231 0.48 234-0.059 9.5-1.7 14-9.3 11-17-2.7-6.2-5.7-6.9-28-7.1-9.2-0.085-21-0.2-26-0.24s-11-0.05-13 0m56 1.1c7.7 1.2 11 4.8 11 11 0.024 6.7-3.9 11-12 12-4.7 0.67-231 0.5-234-0.18-12-2.9-14-18-1.7-22 3.3-1.1 229-1.6 236-0.55m-211 82c-15 0.14-24 0.38-25 0.63-12 2.9-12 19-0.14 23 2.1 0.67 229 1 235 0.34 16-1.7 18-21 2.6-24-2.6-0.53-166-0.78-213-0.32m211 0.71c7.6 0.98 12 4.7 12 11 0 6.7-4.8 11-13 12-5.7 0.66-230 0.49-234-0.17-13-2.8-13-20 0.22-22 4.2-0.86 228-1.2 235-0.33" fill="#d1b837"/>
<path d="m104 100c-25 0.22-25 0.26-30 2.1-8.2 3.6-11 15-5.3 23 2.8 3.9 7 6 14 6.7 6.8 0.68 231 0.14 234-0.57 17-3.8 18-26 1.7-30-4.8-1.2-125-1.7-215-0.91m197 1.1c16 0.4 18 0.61 21 2.4 9.5 4.8 8.8 20-1.1 25-4.5 2.3 3.1 2.1-123 2.3-128 0.13-118 0.29-123-2-10-4.7-11-20-0.54-25 4-2 3.2-1.9 42-2.1 68-0.4 170-0.43 185-0.058m-42 82c-0.067 0.066-39 0.14-87 0.16-100 0.044-94-0.15-100 3.6-9.6 6.4-7.6 22 3.4 27 4.8 2-1.5 2 124 1.7 127-0.24 118-0.059 123-2.5 11-5.2 11-22 0.88-27-3.6-2-6.8-2.5-16-2.7-11-0.22-48-0.43-48-0.28m58 2.1c8.3 2 12 6.4 12 14-3e-3 7.9-4.1 13-12 14-4.5 0.93-234 1-238 0.078-7.6-2.1-11-6.6-12-14-0.5-9.2 5.2-14 17-15 11-0.63 231-0.18 234 0.47m-221 81c-14 0.2-18 0.34-19 0.83-16 4.8-16 25 0.52 31 3.1 0.96 234 0.92 239-0.044 17-3.6 19-26 1.5-31l-2.8-0.81-101-0.023c-56-0.013-109 0.083-118 0.21m221 1.6c15 3.8 16 23 1.4 28-4.3 1.4-236 2-240 0.57-7.7-2.3-11-6.9-11-15 0-7.3 3.2-11 11-14 4.2-1.3 235-1.6 240-0.36" fill="#949285"/>
<path d="m116 101c-38 0.23-38 0.18-42 2.1-10 4.8-9.6 20 0.54 25 4.9 2.3-4.9 2.1 123 2 127-0.13 119 0.012 123-2.3 9.9-5 11-20 1.1-25-3.6-1.8-5.5-2-21-2.4-15-0.37-117-0.34-185 0.058m180 0.86c21 0.15 22 0.28 26 2.1 11 5.5 7.8 22-4.9 25-3.5 0.87-236 0.76-239-0.12-15-4.5-14-23 1.3-26 3.2-0.68 148-1 216-0.53m-212 83c-11 0.67-17 5.9-17 15 0.4 7.4 4.2 12 12 14 3.4 0.93 233 0.86 238-0.078 8.2-1.7 12-6.5 12-14 4e-3 -7.8-3.6-12-12-14-2.7-0.65-223-1.1-234-0.47m226 0.74c13 0.66 18 4.1 18 13 0.6 8-4.3 14-13 15-3.6 0.55-228 0.95-232 0.42-8.3-0.92-13-4-15-10-2.4-7.9 1.4-15 9.5-17 2.9-0.92 215-1.6 232-0.73m-210 82c-22 0.25-22 0.25-27 2.3-9.7 4.7-9.5 20 0.34 25 4.6 2.4-1.4 2.2 79 2.2 121 0.058 163-0.25 166-1.2 15-5 14-24-1.4-28-2.7-0.66-167-1-217-0.46m215 1.1c8.4 1.4 12 5.6 12 13 0 7.9-4.2 13-12 14-5 0.87-233 0.94-237 0.072-15-3.8-15-23-0.69-27 3.7-1.1 231-1.6 238-0.52" fill="#b1b0a4"/>
<path d="m91 102c-9.9 0.18-13 0.35-14 0.82-14 4.6-12 23 3.1 25 3.3 0.53 231 0.54 234 9e-3 8.3-1.3 13-6.2 13-14 0-6.9-3-10-10-12-2.7-0.66-194-1.1-226-0.48m220 1.2c11 0.86 15 4.3 14 12-0.32 6.4-3.9 10-11 12-2.7 0.56-231 0.93-235 0.38-10-1.5-15-13-8.3-20 3.9-4 4.8-4 39-4.1 16-0.026 28-0.084 28-0.13 0.22-0.22 169 0.015 172 0.24m-216 82c-14 0.2-17 0.32-18 0.89-14 4.5-13 22 1.8 26 3.3 0.85 231 0.77 236-0.087 17-2.8 16-24-0.16-27-2.5-0.46-190-0.72-220-0.31m201 1.3c22 0.21 25 0.98 28 7.1 3.5 8-1.1 16-11 17-3.1 0.54-231 0.6-234 0.059-7.7-1.6-11-5.3-11-12-1e-3 -5.3 1.5-7.8 5.7-10 4.1-2.1-0.51-2 92-2.1 47-0.07 88-0.17 91-0.22 2.3-0.05 8.3-0.05 13 0s17 0.16 26 0.24m-174 82c-47 0.22-45 0.12-49 2.2-9.2 4.7-8.7 19 0.77 23 4.3 2 2.8 1.9 50 2 109 0.13 190-0.38 192-1.2 14-4.8 14-23-1.3-26-3.3-0.58-116-0.89-193-0.54m193 1.8c15 3.1 13 22-2.6 24-6.1 0.66-233 0.34-235-0.34-12-3.9-12-20 0.14-23 4.1-0.98 233-1.3 238-0.31" fill="#c2bfb1"/>
<path d="m139 102c-58 0.24-60 0.27-63 1.6-12 4.3-11 21 2.1 25 2.8 0.88 235 1 239 0.12 15-3.8 16-23 0.79-26-3.9-0.89-76-1.2-178-0.81m178 1.2c7.4 1.8 10 5.3 10 12 0 7.5-4.5 12-13 14-3.3 0.53-231 0.52-234-9e-3 -15-2.3-17-21-3.1-25 3.9-1.3 235-1.6 240-0.34m-223 82c-16 0.25-16 0.27-20 2.3-5.5 2.9-7.8 9.2-5.9 16 1.9 6.1 6.3 9.2 15 10 4.8 0.53 229 0.13 232-0.42 8.6-1.3 14-7 13-15-0.65-8.6-5.7-12-18-13-7.1-0.37-191-0.35-216 0.026m221 0.66c17 3 17 24 0.16 27-5 0.86-233 0.94-236 0.087-14-3.7-16-22-1.8-26 3.6-1.2 232-1.7 238-0.58m-207 82c-25 0.18-29 0.28-30 0.83-15 4.3-14 23 0.69 27 3.4 0.87 232 0.8 237-0.072 8.2-1.4 12-6.2 12-14 0-7.6-3.9-12-12-13-2.8-0.46-154-0.7-207-0.32m208 0.9c15 2.6 16 21 1.3 26-3.6 1.2-234 1.9-238 0.67-15-3.6-16-22-1.2-26 3.9-1.2 232-1.4 238-0.3" fill="#bcb4aa"/>
<path d="m94 97c-13 0.19-16 0.33-18 0.86-19 5.3-18 30 0.93 35 3.7 1.1 236 1.1 240 8e-3 20-4.6 21-30 2.3-35-1.5-0.41-4.9-0.72-10-0.94-8.9-0.36-190-0.35-215 0.011m210 1.6c14 0.32 17 0.87 21 3.7 6.3 4.6 7.8 13 3.8 21-2.6 5-7.6 8-15 8.9-4.1 0.54-231 0.19-235-0.36-19-3.2-20-28-1.1-32 2.2-0.47 8.3-0.59 37-0.75 19-0.1 34-0.22 34-0.25 0.18-0.17 147 0.1 155 0.29m-207 82c-15 0.21-18 0.35-20 0.87-20 5.3-18 32 2.2 36 3.3 0.66 231 0.76 236 0.098 11-1.6 18-8.5 18-19 5e-3 -9.5-6.1-16-17-18-3.4-0.61-182-0.99-219-0.46m215 1.9c13 1 19 6.5 19 17 0.012 9.6-5.8 16-16 17-5.2 0.64-230 0.83-234 0.2-12-2-19-11-16-22 2.5-9.7 8-12 28-12 6.5-0.022 12-0.12 12-0.21 0.31-0.31 203-0.092 207 0.22m-197 67c-20 0.12-37 0.36-37 0.53-0.17 0.18 0.67 0.21 1.9 0.078 1.2-0.13 54-0.27 117-0.3 114-0.055 118-0.02 124 1l0.93 0.17-0.87-0.38c-2.5-1.1-8-1.2-88-1.3-45-0.046-98 0.011-118 0.13m125 0.77c-9.3 0.16-21 0.2-25 0.094-4.7-0.11-8.4-0.08-8.3 0.061s24 0.31 53 0.37 53 0.074 53 0.028c-0.055-0.046-7.9-0.19-18-0.32s-22-0.3-28-0.38c-5.7-0.081-18-0.017-27 0.14m-117 0.37-39 0.19 45 0.039c25 0.022 50-0.074 56-0.21 13-0.31 0.71-0.31-61-0.013m75 0.27c1.6 0.069 4.1 0.069 5.6-1e-3 1.5-0.07 0.17-0.13-2.9-0.13-3.1 1e-3 -4.3 0.058-2.7 0.13m-17 0.37c2 0.067 5.2 0.067 7.2 0 2-0.066 0.36-0.12-3.6-0.12s-5.6 0.055-3.6 0.12m57-1e-3c1.4 0.071 3.7 0.071 5.2 1e-3 1.5-0.071 0.37-0.13-2.5-0.13-2.9-1e-3 -4.1 0.057-2.7 0.13m19 0.087c4.3 0.24 18 0.083 18-0.2 0.086-0.086-5-0.13-11-0.093-8.1 0.046-10 0.13-7.2 0.3m-167 0.28c1.8 0.067 4.7 0.067 6.5 0 1.8-0.068 0.32-0.12-3.2-0.12s-5 0.056-3.2 0.12m60-5e-3c0.87 0.078 2.3 0.078 3.1 0 0.87-0.078 0.16-0.14-1.6-0.14-1.7 0-2.4 0.064-1.6 0.14m70 0c0.87 0.079 2.2 0.078 3-2e-3 0.76-0.08 0.046-0.14-1.6-0.14-1.6 1e-3 -2.2 0.066-1.4 0.14m-41 0.53c1.5 0.21 4.7 0.21 8.1 8e-3l5.7-0.33-8.1-8e-3c-6.5-6e-3 -7.6 0.063-5.7 0.33m59-0.16c2 0.067 5.2 0.067 7 0 1.9-0.067 0.24-0.12-3.6-0.12-3.9 1e-3 -5.4 0.056-3.4 0.12m16 0.09c1.7 0.18 3.7 0.5 4.4 0.72 2.3 0.64 9.9 0.44 14-0.36l3.7-0.72-3.3 0.27c-3.7 0.3-8.1 0.3-16-0.013-4.2-0.16-4.8-0.14-2.5 0.11m-164 5.8c0.56 0.085 1.5 0.085 2 0 0.56-0.085 0.1-0.15-1-0.15s-1.6 0.069-1 0.15m47-0.01c0.36 0.094 0.94 0.094 1.3 0 0.36-0.093 0.065-0.17-0.65-0.17s-1 0.076-0.65 0.17m12 0.02c1.6 0.07 4.2 0.07 5.7 0 1.6-0.069 0.29-0.13-2.9-0.13-3.2 0-4.4 0.057-2.9 0.13m12-9e-3c0.56 0.085 1.4 0.083 1.9-5e-3s-5e-3 -0.16-1-0.16c-1 3e-3 -1.4 0.075-0.83 0.16m7.6-5e-3c0.46 0.089 1.2 0.089 1.7 0 0.46-0.088 0.084-0.16-0.83-0.16s-1.3 0.072-0.83 0.16m3.5 5e-3c0.56 0.085 1.4 0.083 1.9-5e-3 0.46-0.088-5e-3 -0.16-1-0.16-1 3e-3 -1.4 0.075-0.83 0.16m22-4e-3c0.46 0.089 1.1 0.085 1.5-7e-3 0.35-0.093-0.022-0.17-0.84-0.16-0.82 5e-3 -1.1 0.08-0.64 0.17m11 0c0.46 0.089 1.1 0.085 1.5-7e-3 0.35-0.093-0.023-0.17-0.84-0.16-0.82 5e-3 -1.1 0.08-0.64 0.17m12 6e-3c0.66 0.082 1.7 0.082 2.4 0s0.12-0.15-1.2-0.15-1.9 0.067-1.2 0.15m13 4e-3c0.87 0.078 2.2 0.077 3-3e-3 0.76-0.079 0.046-0.14-1.6-0.14s-2.2 0.066-1.4 0.14m47 2e-3c1.4 0.071 3.7 0.072 5.2 1e-3 1.5-0.07 0.37-0.13-2.5-0.13-2.9 0-4.1 0.057-2.7 0.13m15-8e-3c0.56 0.085 1.4 0.083 1.9-5e-3 0.46-0.088-5e-3 -0.16-1-0.16-1 3e-3 -1.4 0.075-0.83 0.16m-214 0.37c0.46 0.088 1.2 0.088 1.7 0s0.083-0.16-0.83-0.16c-0.92 0-1.3 0.073-0.83 0.16m21 5.7c-17 0.21-21 0.34-23 0.87-20 5.3-19 33 1.3 36 4.9 0.92 236 0.62 240-0.31 9.6-2.6 15-9.3 15-19 0-9-5.5-15-15-18-3-0.7-170-1.1-218-0.49m215 2.1c11 1.2 18 8.8 17 17-0.067 0.44-0.23 1.6-0.37 2.6-0.34 2.5-3.6 8.7-4.6 8.7-0.14 0-0.67 0.38-1.2 0.86-1.9 1.8-5.9 3.3-11 3.9-3 0.42-233 0.69-235 0.27-8.1-1.7-14-6.3-15-12-0.086-0.46-0.25-0.97-0.36-1.2-1.9-3.1 0.87-12 4.8-16 4.7-4.2 7-4.6 26-4.8 8.4-0.081 16-0.18 16-0.23 5.3-0.39 199-0.09 203 0.32" fill="#747c6c"/>
<path d="m150 98c-0.034 0.032-15 0.14-34 0.25-29 0.16-35 0.28-37 0.75-19 3.9-18 29 1.1 32 3.2 0.56 230 0.91 235 0.36 22-2.9 24-30 2.6-33-4.1-0.6-166-1.4-167-0.84m155 1.2c8.1 0.24 12 0.5 14 0.92 17 4.1 15 26-1.7 30-3.2 0.71-227 1.3-234 0.57-11-1.1-17-7.3-17-17 0.36-7.1 4.6-12 12-14 3.6-0.88 200-1.5 227-0.72m-199 82c-0.091 0.091-5.5 0.18-12 0.21-20 0.068-26 2.4-28 12-2.9 11 3.6 20 16 22 3.9 0.63 229 0.44 234-0.2 10-1.3 16-7.3 16-17-0.013-10-6.2-16-19-17-4.1-0.32-207-0.54-207-0.22m202 1.1c17 0.33 23 4.5 23 16 0 8.5-4.3 14-13 16-4.1 0.88-232 1.3-237 0.41-17-3-21-25-4.4-31 3.9-1.4 7.1-1.4 96-1.5 48-0.02 87-0.091 87-0.16 0.15-0.15 37 0.062 48 0.28m-184 65c-23 0.1-41 0.29-41 0.43-0.13 0.13 51 0.22 115 0.19 63-0.031 116 0.082 118 0.25 4.7 0.39 4.4 0.021-0.4-0.54-4.1-0.47-117-0.66-191-0.33m58 1.4c2.2 0.065 5.8 0.065 8 0 2.2-0.066 0.4-0.12-4-0.12-4.4 0-6.2 0.053-4 0.12m30-9e-3c0.66 0.082 1.7 0.082 2.4 0s0.12-0.15-1.2-0.15-1.9 0.067-1.2 0.15m27 8e-3c1.8 0.067 4.8 0.068 6.7 0 1.9-0.067 0.44-0.12-3.2-0.12-3.7 0-5.2 0.055-3.4 0.12m15-5e-3c0.87 0.078 2.3 0.078 3.1 0 0.86-0.078 0.16-0.14-1.6-0.14-1.7 0-2.4 0.063-1.6 0.14m20-2e-3c0.67 0.082 1.7 0.08 2.2-4e-3 0.56-0.085 0.011-0.15-1.2-0.15s-1.7 0.071-1 0.15m-183 0.38c1.8 0.068 4.6 0.067 6.3-1e-3 1.7-0.069 0.2-0.12-3.3-0.12-3.5 1e-3 -4.8 0.057-3 0.12m61 0c2.2 0.065 5.8 0.065 8 0 2.2-0.065 0.4-0.12-4-0.12-4.4 0-6.2 0.054-4 0.12m20-0.011c0.56 0.086 1.4 0.083 1.9-5e-3 0.46-0.088-5e-3 -0.16-1-0.15-1 2e-3 -1.4 0.074-0.83 0.16m27 0.01c1.7 0.069 4.4 0.069 5.9 0 1.6-0.07 0.19-0.13-3.1-0.12-3.3 0-4.5 0.057-2.9 0.12m22 0c1.6 0.07 4.1 0.069 5.6-1e-3 1.5-0.07 0.17-0.13-2.9-0.13-3.1 0-4.3 0.058-2.7 0.13m70-3e-3c0.97 0.077 2.5 0.076 3.3-2e-3 0.86-0.077 0.063-0.14-1.8-0.14s-2.5 0.065-1.6 0.14m-109 0.37c0.87 0.078 2.3 0.078 3.1 0s0.16-0.14-1.6-0.14c-1.7 0-2.4 0.064-1.6 0.14m79 6e-3c2.5 0.064 6.6 0.064 9.1 0 2.5-0.064 0.45-0.12-4.5-0.12s-7 0.053-4.5 0.12m-96 0.37c2.6 0.064 6.8 0.064 9.4 0s0.47-0.12-4.7-0.12c-5.2 0-7.3 0.052-4.7 0.12m30-4e-3c0.97 0.077 2.5 0.076 3.3-2e-3 0.86-0.078 0.063-0.14-1.8-0.14s-2.5 0.065-1.6 0.14m15 4e-3c2.2 0.065 5.8 0.065 8.1 0s0.52-0.12-4-0.12c-4.5 0-6.4 0.053-4.2 0.12m19-1e-3c1.6 0.07 4.1 0.069 5.6-1e-3 1.5-0.07 0.17-0.13-2.9-0.13-3.1 1e-3 -4.3 0.058-2.7 0.13m20-3e-3c1.1 0.075 2.8 0.075 3.9 0 1.1-0.074 0.19-0.14-1.9-0.14s-3 0.062-1.9 0.14m32 4e-3c2.2 0.066 5.7 0.065 7.8-1e-3 2.1-0.065 0.28-0.12-4-0.12s-6 0.054-3.8 0.12m-98 0.37c1.8 0.068 4.6 0.067 6.3-1e-3 1.7-0.068 0.2-0.12-3.3-0.12-3.5 1e-3 -4.8 0.057-3 0.12m58-0.015c0.46 0.088 1.2 0.088 1.7 0 0.46-0.088 0.083-0.16-0.83-0.16-0.92 0-1.3 0.072-0.83 0.16m17 0.14c5.1 0.59 13 0.69 16 0.21 3-0.46 2.6-0.48-7.4-0.48-5.9 5e-3 -9.6 0.12-8.3 0.27m55-0.14c0.46 0.088 1.2 0.088 1.7 0 0.46-0.088 0.083-0.16-0.83-0.16-0.92 0-1.3 0.072-0.83 0.16m-145 0.47c6.4 0.11 12 0.26 12 0.34 0.2 0.073 0.95 0.091 1.7 0.039 4.2-0.3-3.8-0.66-14-0.62l-11 0.046 12 0.2m32-0.093c0.66 0.082 1.8 0.084 2.6 3e-3 0.77-0.08 0.23-0.15-1.2-0.15-1.4-2e-3 -2.1 0.064-1.4 0.14m5.4 3e-3c0.76 0.08 2 0.08 2.8 0s0.14-0.14-1.4-0.14-2.2 0.065-1.4 0.14m9.5 0.11c-2.3 0.13 0.82 0.16 7 0.062s11-0.23 11-0.3c0.23-0.2-14-0.021-18 0.24m76-0.11c0.56 0.085 1.5 0.085 2 0 0.56-0.084 0.1-0.15-1-0.15-1.1 0-1.6 0.07-1 0.15m-100 0.38c1.4 0.072 3.6 0.071 4.8-1e-3s0.13-0.13-2.5-0.13c-2.6 1e-3 -3.7 0.06-2.3 0.13m50 3e-3c3.2 0.061 8.5 0.061 12 0 3.2-0.062 0.58-0.11-5.8-0.11s-9 0.051-5.8 0.11m36-0.012c0.56 0.085 1.5 0.085 2 0s0.1-0.16-1-0.16c-1.1 0-1.6 0.07-1 0.16m11-0.01c0.36 0.093 0.94 0.093 1.3 0 0.36-0.093 0.065-0.17-0.65-0.17s-1 0.077-0.65 0.17m-166 5.7c-22 0.11 12 0.23 79 0.28 64 0.049 117-0.02 117-0.15-0.3-0.3-142-0.38-196-0.12m197 0.63c0.56 0.085 1.4 0.082 1.9-6e-3 0.46-0.087-5e-3 -0.16-1-0.15-1 2e-3 -1.4 0.074-0.83 0.16m-205 7c-0.61 0.045-7.9 0.15-16 0.23-19 0.18-21 0.61-26 4.8-3.9 3.4-6.7 13-4.8 16 0.11 0.18 0.27 0.7 0.36 1.2 1.1 5.7 6.9 10 15 12 2 0.42 232 0.15 235-0.27 4.6-0.65 8.6-2.1 11-3.9 0.51-0.47 1-0.86 1.2-0.86 0.96 0 4.2-6.3 4.6-8.7 0.14-0.99 0.3-2.2 0.37-2.6 1.3-8.5-5.9-16-17-17-3.5-0.41-198-0.71-203-0.32m207 1.8c17 4.8 16 27-1.5 31-4.6 0.96-236 1-239 0.044-16-5-17-26-0.52-31 3.1-0.92 24-1.1 137-1l101 0.023 2.8 0.81" fill="#7c7464"/>
</g>
</svg>
