<svg width="400" height="400" version="1.1" viewBox="0 0 400 400" xmlns="http://www.w3.org/2000/svg">
<g fill-rule="evenodd">
<path d="m97 45c-1.3 3.4-3.9 10-5.8 15-1.9 5.1-5.1 14-7.2 19-2.1 5.6-5.3 14-7.2 19-4.1 11-7.4 20-9.7 26-0.92 2.4-2.7 7.4-4 11-1.3 3.6-2.9 8.1-3.7 10s-2.4 6.4-3.6 9.8-2.9 8-3.7 10c-0.81 2-2.5 6.6-3.8 10s-3.4 9.1-4.6 12l-2.2 5.7 14 0.097c7.5 0.054 14 0.026 14-0.063 0.089-0.088 1.4-3.7 2.9-8.1 1.5-4.3 3.7-10 4.7-13 1.1-2.9 2.3-6.4 2.8-7.8 1.2-3.9 2.1-5.3 3.8-6.4l1.5-1 30-0.1c22-0.072 31 0.019 32 0.32 3.1 0.83 4 2.6 9.7 18 1.1 3.1 3.1 8.4 4.4 12l2.4 6.3 14 0.097c13 0.092 14 0.062 13-0.56-0.58-1.4-7.5-20-10-28-1.6-4.5-3.5-9.4-4.1-11s-2.4-6.1-3.9-10c-2.6-7-4.6-12-14-37-2.3-5.9-5.4-14-7.1-19-4-11-12-32-17-44l-2.3-5.7-32-0.19-2.3 6.2m21 27c1.3 0.78 2.2 2.3 3.7 6.2 1.4 3.8 7.9 22 12 32 1.8 5.1 4.2 12 5.4 15 2.4 6.7 2.5 8 0.4 10-2.1 2.1-2.4 2.1-24 2.1h-20l-1.6-0.83c-4.2-2.2-4.2-3.6 0.016-16 5.1-15 11-32 14-39 3.5-10 6.2-13 11-9.8m20 98c0.86 0.3 3.1 0.38 3.1 0.11 0-0.16-0.79-0.28-1.8-0.27-0.97 0.016-1.6 0.088-1.4 0.16m137 57c-0.61 0.081-2.5 0.33-4.3 0.55-14 1.8-25 9.4-30 21-2 4.8-2 4.9 0.56 5.3 1.2 0.21 5.5 1 9.6 1.8 5.3 1 7.4 1.3 7.5 0.95 0.33-0.99 3.9-5.1 5.9-6.8 11-9.5 34-7.7 39 3.2 2.8 5.6 4 19 2 22-1.3 1.9-10 4.4-26 7.6-21 4.2-29 6.7-35 12-7.3 6.1-10 13-10 24-0.041 21 11 32 33 33 14 0.59 24-3.4 35-14 5.5-5.1 7.8-4.6 9.5 2.1 0.44 1.7 1.3 4.4 1.9 6l1.1 2.9h11c8.9 0 11-0.099 11-0.46-5.8-14-5.8-14-5.9-49-0.14-43-0.41-48-3-55-3.8-9.2-14-16-28-18-3.6-0.58-22-1.1-25-0.7m10 29c0.46 0.088 1.1 0.085 1.5-8e-3s-0.023-0.16-0.84-0.16c-0.81 4e-3 -1.1 0.08-0.64 0.17m19 35c2.6 2.6 2.5 20-0.21 28-8.3 26-47 25-47-1.2 0-12 6.3-18 24-22 7.5-1.9 13-3.6 17-5.4 2.6-1.1 5.1-0.87 6.5 0.6m29 70c1.4 0.071 3.6 0.071 4.8-1e-3 1.3-0.073 0.13-0.13-2.5-0.13-2.6 0-3.7 0.059-2.3 0.13m-61 3.1c-0.68 0.44 0.3 0.44 2 0l1.1-0.28-1.3-0.038c-0.71-0.021-1.5 0.12-1.9 0.32" fill="#fabf1a"/>
<path d="m106 27c5.4 0.058 14 0.058 20 0 5.6-0.057 1.1-0.1-9.9-0.1s-16 0.047-10 0.1m-11 0.45c0.21 0.34 0.072 0.4-0.53 0.21-0.61-0.19-0.86-0.088-1 0.42-0.1 0.38-0.74 1.1-1.4 1.6-0.68 0.51-1.2 1-1.2 1.1 0.058 0.99-0.14 1.5-0.51 1.3-0.29-0.18-0.36-0.014-0.22 0.53 0.12 0.44 0.048 0.8-0.15 0.8-0.2 0-0.26 0.16-0.14 0.35 0.12 0.2-0.063 0.99-0.41 1.8-0.34 0.77-0.65 1.5-0.68 1.6-0.68 2.3-1.5 4.4-1.6 4.3-0.12-0.073-0.24 0.28-0.27 0.77-0.074 1.2-0.89 3.1-1.2 2.9-0.37-0.23-0.81 0.88-0.53 1.3 0.11 0.18 0.02 0.34-0.21 0.34-0.24 0-0.32 0.3-0.2 0.7 0.14 0.45 8e-3 0.78-0.39 0.93-0.39 0.15-0.54 0.5-0.42 0.97 0.11 0.4 0.035 0.74-0.16 0.74s-0.3 0.21-0.24 0.47c0.18 0.78-1.3 4.7-1.7 4.5-0.2-0.12-0.26-0.061-0.14 0.14 0.29 0.47-0.48 3.5-0.89 3.5-0.18 0-0.3 0.12-0.26 0.28 0.14 0.66-0.59 2.6-1.2 3.2-0.47 0.45-0.62 0.93-0.46 1.4 0.18 0.56 0.12 0.68-0.23 0.47-0.34-0.21-0.4-0.12-0.24 0.32 0.13 0.34 0.058 0.62-0.16 0.62-0.22 0-0.3 0.26-0.18 0.58 0.14 0.38 0.072 0.48-0.21 0.31-0.29-0.18-0.35-0.06-0.19 0.35 0.13 0.34 0.058 0.62-0.16 0.62-0.22 0-0.3 0.25-0.18 0.56 0.12 0.31 0.034 0.56-0.18 0.56s-0.3 0.26-0.18 0.58c0.14 0.36 0.069 0.48-0.18 0.32-0.27-0.17-0.32 0.019-0.14 0.58 0.2 0.62 0.14 0.76-0.2 0.54-0.34-0.21-0.41-0.072-0.26 0.51 0.12 0.44 0.094 0.8-0.047 0.8s-0.28 0.29-0.3 0.65c-0.049 0.71-2.2 7-2.6 7.6-0.14 0.22-0.27 0.49-0.28 0.59-0.11 0.85-0.66 1.8-0.94 1.6-0.19-0.12-0.34-0.036-0.34 0.18s0.18 0.39 0.39 0.39 0.29 0.17 0.16 0.38-0.42 0.26-0.64 0.12c-0.26-0.16-0.32-0.032-0.17 0.36 0.31 0.8-0.078 1.8-0.58 1.5-0.25-0.15-0.31 0.05-0.18 0.56 0.12 0.44 0.04 0.8-0.17 0.8-0.21 0-0.28 0.26-0.15 0.58 0.14 0.38 0.071 0.48-0.21 0.31-0.29-0.18-0.35-0.06-0.19 0.35 0.13 0.34 0.067 0.62-0.14 0.62s-0.35 0.21-0.32 0.46c0.15 1.1-0.049 1.8-0.46 1.5-0.29-0.18-0.36-0.066-0.2 0.35 0.13 0.34 0.087 0.62-0.097 0.62s-0.32 0.53-0.3 1.2c0.018 0.65-0.16 1.2-0.4 1.3s-0.34 0.3-0.22 0.48c0.12 0.19 0.054 0.34-0.14 0.34s-0.35 0.42-0.35 0.92c0 0.51-0.23 1.2-0.51 1.5-0.28 0.34-0.46 0.92-0.39 1.3 0.064 0.38-0.079 0.68-0.32 0.68s-0.35 0.22-0.25 0.48c0.1 0.26-0.041 0.89-0.32 1.4-0.28 0.5-0.51 0.74-0.52 0.54-0.024-0.47-0.74 0.61-0.74 1.1 0 0.2 0.18 0.12 0.4-0.18 0.33-0.46 0.36-0.44 0.18 0.12-0.12 0.37-0.22 0.76-0.22 0.86s-0.15 0.084-0.34-0.03c-0.39-0.24-1.2 1.9-0.94 2.4 0.11 0.18 8e-3 0.33-0.23 0.33-0.25 0-0.33 0.26-0.19 0.62 0.13 0.34 0.038 0.74-0.2 0.89-0.39 0.24-0.56 0.87-0.66 2.5-0.017 0.27-0.21 0.38-0.43 0.24-0.22-0.14-0.35-0.02-0.3 0.26 0.16 0.82-0.45 2.9-0.78 2.7-0.17-0.1-0.26 0.1-0.2 0.46 0.058 0.36-0.06 0.86-0.26 1.1-0.2 0.25-0.26 0.46-0.12 0.46s0.037 0.38-0.22 0.83c-0.25 0.46-0.51 1.2-0.58 1.6s-0.37 0.99-0.67 1.3-0.44 0.72-0.3 0.85 0.044 0.25-0.21 0.25-0.36 0.15-0.24 0.34c0.12 0.19 0 0.42-0.26 0.53-0.35 0.14-0.33 0.28 0.091 0.58 0.48 0.34 0.48 0.39-0.053 0.4-0.73 7e-3 -1.1 0.88-0.8 1.7 0.17 0.45 0.1 0.53-0.26 0.31-0.36-0.22-0.43-0.14-0.26 0.31 0.13 0.34 0.057 0.62-0.16 0.62s-0.3 0.26-0.18 0.58c0.14 0.36 0.069 0.48-0.18 0.32-0.27-0.17-0.32 0.02-0.14 0.58 0.19 0.6 0.14 0.76-0.19 0.56-0.32-0.2-0.38-0.056-0.2 0.51 0.16 0.5 0.089 0.79-0.19 0.79-0.24 0-0.34 0.26-0.21 0.58 0.13 0.33 0.064 0.48-0.15 0.35-0.2-0.12-0.38 0.075-0.41 0.44-0.045 0.7-0.15 1.3-0.3 1.6-0.047 0.1-0.15 0.52-0.22 0.92-0.076 0.4-0.3 0.79-0.51 0.86-0.2 0.068-0.28 0.35-0.18 0.63 0.11 0.28-0.15 1.3-0.58 2.2-0.42 0.96-0.77 2-0.77 2.2 0 0.28-0.33 0.84-0.74 1.2-0.41 0.41-0.56 0.74-0.35 0.74 0.22 0 0.29 0.17 0.16 0.38s-0.41 0.27-0.62 0.14c-0.25-0.15-0.29 0.046-0.14 0.55 0.16 0.5 0.09 0.79-0.18 0.79-0.24 0-0.34 0.26-0.21 0.58 0.14 0.38 0.072 0.48-0.21 0.31-0.29-0.18-0.35-0.061-0.19 0.35 0.13 0.34 0.057 0.62-0.16 0.62s-0.3 0.25-0.19 0.54c0.12 0.3-0.045 0.8-0.36 1.1-0.31 0.31-0.46 0.73-0.33 0.94 0.13 0.2 0.037 0.37-0.2 0.37-0.24 0-0.34 0.25-0.22 0.56 0.12 0.3 0.051 0.56-0.15 0.56s-0.36 0.47-0.36 1-0.12 1.2-0.28 1.3c-0.15 0.15-0.28 0.39-0.29 0.52-0.052 0.91-0.62 2.3-0.94 2.3-0.21 0-0.3 0.15-0.18 0.32 0.11 0.18-0.081 0.89-0.42 1.6s-0.66 1.7-0.7 2.2c-0.096 1.2-1.1 3.3-1.7 3.3-0.22 0-0.28 0.33-0.14 0.79 0.18 0.56 0.12 0.71-0.2 0.51-0.32-0.2-0.38-0.056-0.2 0.51 0.15 0.48 0.089 0.79-0.17 0.79-0.23 0-0.31 0.17-0.19 0.37s0.034 0.37-0.2 0.37c-0.24 0-0.34 0.25-0.22 0.56 0.12 0.3 0.057 0.56-0.13 0.56s-0.24 0.28-0.11 0.62c0.17 0.45 0.1 0.53-0.26 0.31s-0.43-0.14-0.26 0.31c0.13 0.34 0.058 0.62-0.16 0.62-0.22 0-0.3 0.24-0.19 0.54s-7e-3 0.76-0.27 1c-0.26 0.26-0.44 0.74-0.4 1.1 0.046 0.32-0.17 1.1-0.48 1.8-0.31 0.7-0.63 1.6-0.71 2-0.077 0.4-0.36 0.98-0.64 1.3-0.27 0.32-0.43 0.77-0.34 1s-0.019 0.54-0.23 0.67c-0.22 0.13-0.39 0.57-0.39 0.98 0 0.41-0.15 0.65-0.33 0.54-0.18-0.11-0.43 0.058-0.56 0.38-0.34 0.88-0.26 1.2 0.15 0.52 0.31-0.48 0.36-0.46 0.36 0.093 3e-3 0.36-0.26 0.65-0.59 0.65-0.38 0-0.52 0.2-0.38 0.56 0.12 0.31 0.034 0.56-0.18 0.56s-0.3 0.26-0.18 0.58c0.14 0.36 0.069 0.48-0.18 0.32-0.27-0.17-0.32 0.019-0.14 0.58 0.19 0.61 0.14 0.76-0.18 0.56-0.32-0.2-0.38-0.062-0.21 0.46 0.16 0.5 0.04 0.82-0.36 0.97-0.41 0.16-0.52 0.47-0.34 1 0.18 0.56 0.12 0.71-0.19 0.52-0.29-0.18-0.4-0.036-0.34 0.42 0.13 0.87-0.35 2.4-0.98 3.1-0.27 0.3-0.48 0.68-0.48 0.84 0.01 1.6-1.9 6.9-2.5 7.2-0.27 0.1-0.4 0.34-0.28 0.52 0.31 0.5-0.21 1.9-0.61 1.6-0.46-0.28-0.44 3.6 0.026 4.3 0.2 0.31 0.36 0.4 0.36 0.21 3e-3 -0.19 0.46 0.081 1 0.6 0.94 0.88 2.5 1.9 3.1 2 0.15 0.033 0.32 0.082 0.37 0.11 0.4 0.21 42 0.16 42-0.05-0.094-0.15 0.073-0.28 0.37-0.28 0.68 0 3.3-2.3 3.5-3 0.066-0.29 0.29-0.78 0.49-1.1 0.29-0.45 0.32-0.41 0.14 0.17-0.15 0.46-0.11 0.6 0.11 0.37 0.59-0.64 1.2-2.8 0.92-3.4-0.16-0.43-0.095-0.52 0.24-0.31 0.36 0.22 0.41 0.083 0.21-0.54-0.2-0.62-0.15-0.76 0.21-0.54 0.33 0.2 0.41 0.12 0.25-0.29-0.32-0.84 0.51-3.4 0.92-2.8 0.19 0.28 0.21 0.032 0.066-0.6-0.19-0.82-0.14-1 0.22-0.78 0.32 0.2 0.41 0.12 0.29-0.22-0.1-0.28 0.085-0.84 0.42-1.2 0.48-0.57 0.49-0.65 0.044-0.39-0.48 0.28-0.49 0.24-0.037-0.32 0.28-0.35 0.56-1.2 0.61-1.8 0.051-0.65 0.27-1.2 0.48-1.3 0.21-0.071 0.29-0.37 0.18-0.66s-0.025-0.53 0.19-0.53 0.3-0.25 0.18-0.56c-0.12-0.31-0.049-0.56 0.15-0.56s0.36-0.38 0.36-0.83c2e-3 -1.2 1.1-3.7 1.5-3.5 0.37 0.23 0.93-0.88 0.61-1.2-0.11-0.11-0.19 0.028-0.19 0.3s-0.087 0.41-0.19 0.3c-0.32-0.32 0.24-1.4 0.6-1.2 0.18 0.11 0.35-0.097 0.37-0.46 0.022-0.37 0.077-0.92 0.12-1.2 0.045-0.3 0.11-0.86 0.15-1.2 0.035-0.37 0.19-0.59 0.34-0.5 0.15 0.094 0.3-0.33 0.32-0.94 0.023-0.61 0.19-1.2 0.37-1.4 0.18-0.13 0.38-0.65 0.43-1.1 0.056-0.5 0.22-1 0.37-1.1 0.15-0.11 0.28-0.41 0.3-0.66 0.021-0.26 0.062-0.63 0.093-0.83 0.11-0.72 52-0.49 52 0.23 0.13 0.33 0.038 0.84-0.2 1.1-0.35 0.42-0.3 0.47 0.27 0.25 0.63-0.24 0.64-0.2 0.17 0.38-0.4 0.5-0.42 0.62-0.041 0.53 0.53-0.12 1.2 1.8 0.86 2.4-0.13 0.2-0.039 0.25 0.2 0.1 0.37-0.23 0.52 0.19 0.4 1.1-0.017 0.13 0.15 0.35 0.37 0.49s0.61 1.1 0.86 2.2 0.59 1.9 0.75 1.9c0.16 0 0.18 0.44 0.043 0.98-0.19 0.74-0.13 0.91 0.23 0.69 0.31-0.19 0.42-0.12 0.3 0.22-0.093 0.28 0.045 0.73 0.31 0.99s0.38 0.72 0.27 1-7e-3 0.54 0.24 0.54c0.25 0 0.35 0.25 0.24 0.56-0.12 0.31-0.068 0.56 0.11 0.56 0.18 0 0.24 0.38 0.14 0.83-0.15 0.67-0.1 0.72 0.21 0.28 0.42-0.59 0.6 0.033 0.47 1.6-0.032 0.37 0.096 0.57 0.28 0.46 0.42-0.26 0.91 1.1 0.58 1.6-0.13 0.21 0.029 0.37 0.35 0.37s0.58 0.18 0.58 0.39c0 0.22-0.21 0.29-0.46 0.16-0.25-0.13-0.21-0.014 0.11 0.26 0.57 0.49 1.7 3.4 1.6 4.3-0.022 0.25 0.13 0.35 0.35 0.22 0.24-0.15 0.31 0.053 0.18 0.55-0.12 0.45 0.016 0.97 0.31 1.2 0.28 0.24 0.42 0.57 0.31 0.76-0.11 0.18-0.023 0.33 0.2 0.33 0.22 0 0.33 0.41 0.23 0.93-0.094 0.51-0.027 0.84 0.15 0.74 0.17-0.11 0.51 0.39 0.75 1.1 0.24 0.71 0.59 1.3 0.79 1.3s0.31 0.29 0.25 0.64 0.058 0.67 0.26 0.7c0.9 0.14 2 0.62 2 0.87 0 0.36-1.3 0.34 22 0.34 23 0 22 0.03 23-0.7 0.51-0.29 1-0.53 1.2-0.53 0.41-0.022 0.82-0.55 0.95-1.2 0.5-2.5 0.67-4.5 0.39-4.5-0.18 0-0.22-0.17-0.091-0.39 0.13-0.21 0.016-0.66-0.26-1-0.42-0.52-0.41-0.56 0.061-0.29 0.33 0.19 0.26-0.032-0.18-0.55-0.41-0.48-0.55-0.76-0.31-0.62 0.33 0.19 0.33-0.015 0.02-0.84-0.23-0.6-0.56-1-0.75-0.88-0.19 0.12-0.22-0.15-0.072-0.62 0.2-0.62 0.14-0.76-0.21-0.54-0.34 0.21-0.4 0.11-0.24-0.32 0.13-0.34 0.063-0.62-0.15-0.62-0.22 0-0.28-0.32-0.15-0.74 0.16-0.5 0.04-0.82-0.36-0.97-0.4-0.15-0.51-0.47-0.36-0.97 0.17-0.53 0.1-0.66-0.21-0.46-0.32 0.2-0.38 0.061-0.21-0.47 0.14-0.43 0.024-0.96-0.27-1.3-0.28-0.28-0.44-0.71-0.35-0.96 0.084-0.25-0.15-0.46-0.53-0.47-0.53-4e-3 -0.56-0.078-0.17-0.33 0.4-0.25 0.41-0.46 0.064-1-0.4-0.63-0.42-0.63-0.23-0.025 0.12 0.37 0.057 0.57-0.13 0.46-0.34-0.21-0.97-2.4-0.84-2.9 0.039-0.15-0.07-0.28-0.24-0.28-0.25 0-0.7-1.1-1.4-3.3-0.03-0.1-0.26-0.67-0.5-1.3-0.24-0.6-0.36-1.3-0.25-1.6 0.11-0.28 0.032-0.41-0.17-0.28-0.33 0.21-0.51-0.39-0.46-1.6 9e-3 -0.25-0.13-0.46-0.3-0.46-0.17 0-0.21-0.28-0.081-0.62 0.17-0.45 0.1-0.53-0.26-0.31-0.36 0.22-0.43 0.14-0.26-0.31 0.13-0.34 0.064-0.62-0.15-0.62-0.22 0-0.28-0.33-0.13-0.79 0.16-0.49 0.11-0.7-0.12-0.56-0.46 0.29-1.2-1.8-0.94-2.6 0.16-0.41 0.036-0.48-0.48-0.29-0.63 0.24-0.64 0.2-0.13-0.44 0.31-0.38 0.35-0.57 0.1-0.42-0.42 0.25-1.4-1.5-1.7-3.1-0.063-0.31-0.28-0.98-0.49-1.5-1.2-2.9-1.9-5.1-1.8-5.6 0.057-0.36-0.035-0.56-0.2-0.46-0.42 0.26-1.2-2.3-0.89-2.8 0.18-0.28 0.11-0.34-0.2-0.15-0.35 0.22-0.4 0.075-0.2-0.54 0.18-0.56 0.13-0.75-0.14-0.58-0.26 0.16-0.32 0.036-0.19-0.32 0.12-0.32 0.042-0.58-0.18-0.58s-0.3-0.26-0.18-0.57c0.12-0.31 0.074-0.54-0.1-0.51-0.75 0.14-1-0.064-0.53-0.38 0.44-0.28 0.38-0.47-0.37-1.1-0.77-0.65-0.82-0.81-0.35-1.1 0.48-0.32 0.46-0.37-0.093-0.38-0.56-5e-3 -0.84-0.64-0.69-1.6 0.024-0.15-0.14-0.28-0.37-0.28-0.22 0-0.31-0.25-0.2-0.56 0.12-0.3 0.083-0.56-0.077-0.56-0.46 0-2-4.7-1.7-5.2 0.18-0.28 0.12-0.35-0.15-0.18-0.4 0.24-0.57-0.27-0.53-1.5 9e-3 -0.25-0.13-0.37-0.31-0.26-0.3 0.19-0.36-5e-3 -0.48-1.4-0.02-0.26-0.26-0.7-0.53-0.98-0.29-0.3-0.4-0.88-0.26-1.4 0.16-0.65 0.1-0.83-0.22-0.63-0.31 0.19-0.37 0.082-0.2-0.36 0.14-0.35 0.092-0.54-0.097-0.42-0.19 0.12-0.44 0.041-0.57-0.17s-0.056-0.38 0.16-0.38c0.22 0 0.39-0.16 0.39-0.36s-0.29-0.25-0.65-0.12c-0.57 0.21-0.58 0.16-0.14-0.38 0.44-0.54 0.42-0.63-0.18-0.65-0.39-0.016-0.49-0.11-0.23-0.22 0.56-0.23 0.62-0.9 0.069-0.77-0.43 0.1-1.9-3.4-1.6-3.8 0.096-0.15 0.011-0.34-0.19-0.4s-0.41-0.46-0.48-0.86c-0.063-0.41-0.24-0.95-0.4-1.2-0.16-0.25-0.15-0.46 0.011-0.47s0.068-0.15-0.22-0.33c-0.28-0.18-0.53-0.83-0.56-1.4-0.023-0.61-0.17-1-0.32-0.94-0.25 0.15-0.44-0.71-0.32-1.4 0.024-0.15-0.13-0.28-0.35-0.28-0.23 0-0.29-0.32-0.14-0.79 0.18-0.57 0.12-0.71-0.21-0.5-0.3 0.18-0.4 0.1-0.29-0.23 0.094-0.28-0.051-0.73-0.32-1s-0.49-0.69-0.49-0.93c3e-3 -0.26 0.15-0.21 0.36 0.12 0.25 0.39 0.36 0.41 0.36 0.081 3e-3 -0.26-0.25-0.57-0.56-0.69-0.37-0.14-0.49-0.47-0.33-0.96 0.14-0.45 0.092-0.65-0.14-0.51-0.47 0.29-0.86-0.7-0.58-1.4 0.12-0.31 0.074-0.54-0.1-0.51-0.76 0.14-1-0.066-0.51-0.4 0.37-0.24 0.4-0.36 0.093-0.36-0.26-4e-3 -0.46-0.24-0.46-0.53 0-0.29-0.12-0.58-0.28-0.65-0.38-0.17-1.7-3.6-1.7-4.6-0.02-0.44-0.14-0.74-0.26-0.66-0.33 0.2-1.1-2.5-0.82-2.9 0.12-0.2 0.064-0.27-0.13-0.14-0.42 0.26-1.4-2.2-1.1-2.7 0.31-0.51-0.18-1.5-0.61-1.3-0.23 0.14-0.27-0.081-0.11-0.6 0.18-0.56 0.13-0.75-0.14-0.58-0.25 0.16-0.32 0.036-0.18-0.32 0.15-0.39-3e-3 -0.58-0.47-0.6-0.39-0.016-0.49-0.11-0.22-0.22 0.25-0.1 0.46-0.35 0.46-0.55s-0.16-0.27-0.34-0.15c-0.19 0.12-0.45 0.043-0.58-0.16s-0.056-0.38 0.16-0.38c0.62 0 0.46-0.65-0.37-1.4-0.42-0.39-0.79-1.1-0.82-1.5-0.032-0.43-0.18-0.79-0.32-0.79-0.26 0-0.81-2-0.69-2.5 0.033-0.13-0.12-0.36-0.35-0.5-0.23-0.14-0.45-0.77-0.5-1.4-0.045-0.63-0.21-1.1-0.36-0.97s-0.3-0.089-0.32-0.41c-0.071-0.89-0.13-1.1-0.65-2-0.28-0.51-0.32-0.77-0.084-0.63 0.25 0.16 0.32 0.033 0.18-0.32-0.12-0.32-0.39-0.58-0.59-0.58-0.2 0-0.28-0.25-0.16-0.56 0.12-0.3 0.04-0.56-0.17-0.56-0.22 0-0.28-0.33-0.13-0.79 0.16-0.49 0.11-0.7-0.13-0.56-0.23 0.14-0.29-0.077-0.17-0.57 0.14-0.54 0.073-0.72-0.22-0.54-0.28 0.17-0.35 0.06-0.2-0.31 0.12-0.32 0.041-0.58-0.18-0.58-0.22 0-0.29-0.28-0.16-0.62 0.17-0.45 0.1-0.53-0.26-0.31-0.36 0.22-0.43 0.14-0.26-0.31 0.16-0.42 0.037-0.63-0.4-0.65-0.39-0.017-0.45-0.1-0.17-0.22 0.25-0.1 0.46-0.35 0.46-0.55s-0.16-0.26-0.35-0.14c-0.42 0.26-1-0.79-1.2-2.1-0.068-0.49-0.25-1.1-0.41-1.4-0.16-0.26-0.17-0.66-0.026-0.89 0.16-0.26 0.1-0.33-0.16-0.16-0.38 0.23-0.62-0.44-0.47-1.4 0.024-0.15-0.096-0.28-0.27-0.28-0.42 0-1.3-2.9-0.98-3.3 0.12-0.2 0.053-0.36-0.16-0.36-0.21 0-0.27-0.28-0.14-0.62 0.16-0.42 0.095-0.53-0.2-0.35-0.4 0.25-0.58-0.26-0.53-1.5 9e-3 -0.25-0.16-0.35-0.38-0.22-0.24 0.15-0.3 0.01-0.16-0.38 0.13-0.34 0.08-0.62-0.11-0.62s-0.25-0.25-0.13-0.56c0.12-0.31 0.019-0.56-0.22-0.56-0.24 0-0.33-0.17-0.2-0.37 0.34-0.55-0.16-1.8-0.67-1.7-0.26 0.05-0.43-0.34-0.43-0.93 9e-3 -0.59-0.18-1-0.46-1-0.26 0-0.48-0.42-0.48-0.93s-0.13-0.93-0.3-0.93c-0.16 0-0.52-0.62-0.79-1.4-0.27-0.76-0.59-1.6-0.69-1.9-0.14-0.36-0.032-0.44 0.33-0.25 0.36 0.19 0.35 0.12-0.047-0.22-0.74-0.64-1.6-2.7-1.3-3.2 0.13-0.2-3e-3 -0.5-0.29-0.67-0.71-0.42-1.3-2.2-0.56-1.8 0.28 0.14 0.21 0.018-0.15-0.28-0.42-0.34-0.56-0.77-0.4-1.2 0.16-0.42 0.11-0.58-0.14-0.42-0.5 0.31-0.89-0.67-0.58-1.5 0.17-0.45 0.1-0.53-0.26-0.31-0.36 0.22-0.43 0.14-0.26-0.31 0.13-0.34 0.08-0.62-0.11-0.62s-0.25-0.26-0.13-0.57c0.14-0.35 0.036-0.53-0.26-0.46-0.29 0.066-0.88-0.95-1.5-2.6-0.57-1.5-1.5-3.3-2.2-3.9-0.63-0.65-1-1.3-0.87-1.4 0.15-0.15-0.041-0.15-0.42-6e-3 -0.46 0.18-0.61 0.13-0.45-0.14 0.41-0.67-1.2-0.94-2.9-0.48-1.8 0.49-39 0.35-40-0.16-0.82-0.23-1-0.19-0.79 0.16m40 16c0.95 2.5 2.4 6.4 3.3 8.5s2.5 6.5 3.7 9.6c1.2 3.2 2.6 6.9 3.2 8.3 0.6 1.4 2.1 5.6 3.4 9.3s2.5 6.8 2.6 7.1c0.17 0.22 1.7 4.1 3.3 8.7 1.6 4.6 3.3 9.1 3.7 10 0.41 0.92 2.2 5.6 4 10 1.8 4.8 4.1 11 5.1 14 3.2 8.1 11 29 16 43 1.8 4.9 3.4 9.2 3.6 9.6 0.55 1 4.9 13 4.9 14 0 0.64-27 0.6-28-0.039-0.2-0.25-1.6-3.8-3-7.9-1.5-4.1-3-8.2-3.4-9.3-0.43-1-1.9-4.8-3.2-8.3-2.9-7.8-3.7-9.3-5.6-10-2.3-1.1-62-1.1-64 0.044-2.3 1.4-2.5 1.7-8.4 18-1.9 5.3-4.2 12-5 14l-1.6 4.2h-14c-15 0-15 0.049-13-2.1 0.31-0.59 2-5.1 3.8-9.9s3.5-9.4 3.8-10c0.3-0.61 0.93-2.2 1.4-3.5 4.3-12 5.5-15 5.8-16 0.16-0.2 1.7-4.3 3.3-9.1 1.7-4.8 3.3-9.2 3.6-9.8 0.31-0.6 1.9-4.8 3.5-9.4 1.6-4.6 3.2-8.8 3.5-9.5s1.6-3.9 2.8-7.3c1.2-3.4 2.8-7.7 3.5-9.6 0.75-1.9 2.8-7.5 4.6-12 1.8-4.9 3.4-9.3 3.7-9.7 0.25-0.46 1.8-4.6 3.4-9.3 1.6-4.6 3.3-9.1 3.7-9.9 0.37-0.82 2-5.1 3.5-9.4 1.6-4.4 3.1-8.4 3.4-9l0.52-1 33 0.19 1.7 4.6m-19 28c-0.91 0.29-2 1.1-2.9 2.1-0.98 1.2-4.3 11-15 41-1.8 5.4-3.5 10-3.7 11-2.7 5.3-2.3 9.5 1.1 11 1.8 1.1 41 1.2 43 0.13 1.6-0.87 3-2.6 3.2-4.1 0.21-1.1-4-15-5.9-19-0.28-0.61-1.9-5.1-3.6-10-1.7-4.9-3.3-9.4-3.6-10-0.31-0.6-1.8-4.6-3.3-9-4.3-12-6-15-10-14m90 1.6c0 0.19-0.21 0.32-0.46 0.28-0.78-0.12-1.9 0.47-2.9 1.6-0.54 0.57-1.1 0.92-1.2 0.78s-0.22-0.09-0.18 0.11c0.16 0.78-0.029 1.3-0.38 1.1-0.21-0.13-0.27 0.019-0.15 0.35 0.12 0.32 0.026 0.58-0.21 0.58-0.28 0-0.34 0.29-0.19 0.79 0.17 0.53 0.12 0.7-0.16 0.53-0.27-0.17-0.41 0.24-0.41 1.2 0 0.83 0.18 1.5 0.4 1.5 0.22 0 0.3 0.31 0.16 0.73-0.28 0.89 0.38 2.2 1.1 2.2 0.51 0 1.2 0.89 1.3 1.7 0.02 0.2 0.2 0.37 0.39 0.37 0.19 0 0.62 0.33 0.95 0.74 0.33 0.41 0.49 0.49 0.36 0.18-0.15-0.36-0.047-0.32 0.3 0.099 0.32 0.39 0.78 0.56 1.1 0.42 0.35-0.14 0.6-0.045 0.6 0.22 0 0.3 0.32 0.37 0.96 0.21 0.64-0.16 0.87-0.11 0.71 0.16-0.17 0.27 0.6 0.34 2.5 0.2 1.9-0.13 2.5-0.083 2 0.16-0.56 0.27-0.19 0.35 1.5 0.35 3.7-0.011 4.8 0.069 5.2 0.38 0.21 0.16 1.2 0.42 2.2 0.57 1 0.15 2.2 0.33 2.6 0.4 0.41 0.074 1.5 0.24 2.4 0.36 0.92 0.12 1.7 0.36 1.8 0.52 0.058 0.16 0.5 0.22 0.98 0.13 0.48-0.091 0.98 0.016 1.1 0.24s0.57 0.41 0.97 0.41c0.4 0 0.72 0.17 0.72 0.37s0.18 0.37 0.39 0.37c0.22 0 0.29-0.17 0.16-0.37s-0.047-0.37 0.18-0.37 0.5 0.25 0.62 0.56c0.12 0.31 0.37 0.56 0.57 0.56s0.25-0.16 0.13-0.37c-0.13-0.21 0.018-0.27 0.35-0.15 0.32 0.12 0.47 0.39 0.34 0.6-0.15 0.24 0.12 0.32 0.73 0.2 0.6-0.12 0.88-0.043 0.74 0.19-0.14 0.23 0.077 0.29 0.57 0.17 0.44-0.12 0.8-0.089 0.8 0.056 0 0.43 3.7 1.5 4.4 1.2 0.41-0.16 0.5-0.082 0.29 0.25-0.22 0.35-0.083 0.41 0.54 0.21 0.62-0.2 0.76-0.15 0.54 0.21-0.21 0.34-0.11 0.4 0.37 0.22 0.36-0.14 0.89-0.065 1.2 0.17 0.28 0.23 0.51 0.31 0.51 0.18 0-0.13 0.44 0.047 0.97 0.4s1.3 0.66 1.7 0.69c0.42 0.031 0.83 0.25 0.91 0.48 0.078 0.24 0.3 0.34 0.48 0.22 0.19-0.12 0.34-0.023 0.34 0.2s0.17 0.31 0.37 0.18c0.2-0.13 0.58-0.097 0.83 0.065 0.46 0.29 0.65 0.35 1.4 0.44 0.2 0.026 0.37 0.29 0.37 0.59 0 0.36 0.21 0.46 0.62 0.31 0.39-0.15 0.53-0.089 0.37 0.16-0.13 0.22 0.014 0.49 0.33 0.61 0.38 0.14 0.49 0.063 0.34-0.24-0.13-0.25-0.012-0.19 0.26 0.13 0.27 0.32 0.7 0.52 0.95 0.43 0.26-0.086 0.56 0.097 0.68 0.41 0.12 0.31 0.42 0.48 0.67 0.39 0.25-0.097 0.92 0.25 1.5 0.77s1.2 0.85 1.4 0.73c0.19-0.12 0.45 0.046 0.57 0.36 0.12 0.32 0.54 0.58 0.94 0.58s0.81 0.25 0.92 0.55c0.12 0.3 0.35 0.47 0.52 0.36s0.48 0.1 0.69 0.46 0.39 0.51 0.39 0.34 0.36 0.075 0.78 0.56c0.42 0.48 0.66 0.62 0.52 0.32-0.14-0.3 0.12-0.14 0.56 0.37s0.7 0.68 0.56 0.37c-0.14-0.3 0.12-0.14 0.57 0.37 0.45 0.51 0.96 0.88 1.1 0.84 0.17-0.049 0.59 0.33 0.92 0.83 0.33 0.51 0.79 0.92 1 0.92 0.23-2e-3 0.89 0.54 1.5 1.2 0.58 0.66 0.92 0.97 0.77 0.67-0.16-0.31 0.21-0.18 0.9 0.3 0.65 0.46 1.2 1 1.2 1.2 0 0.22 1 1.4 2.3 2.6 1.3 1.2 2 2 1.6 1.7-0.41-0.26 0.059 0.24 1 1.1 0.98 0.87 1.7 1.7 1.6 1.8s0.14 0.44 0.54 0.72c0.41 0.29 0.66 0.66 0.56 0.83-0.1 0.17 0.083 0.41 0.42 0.54 0.33 0.13 0.5 0.34 0.37 0.47-0.13 0.13 0.1 0.47 0.51 0.76 0.41 0.29 0.66 0.66 0.56 0.83-0.1 0.17 0.071 0.41 0.39 0.53s0.48 0.37 0.37 0.56c-0.11 0.18 0.053 0.43 0.37 0.56 0.32 0.12 0.48 0.37 0.37 0.56-0.11 0.18 0.06 0.44 0.38 0.56 0.35 0.13 0.5 0.46 0.37 0.8-0.12 0.31-0.072 0.48 0.11 0.37s0.43 0.056 0.55 0.37c0.13 0.35 0.066 0.48-0.17 0.33-0.22-0.13-0.18 0.097 0.079 0.51 0.26 0.42 0.58 0.69 0.72 0.6 0.46-0.28 3.5 6.2 3.3 7.2-0.052 0.31 0.09 0.39 0.37 0.22 0.29-0.18 0.36-0.12 0.19 0.15-0.15 0.24-0.012 0.68 0.3 0.99 0.31 0.31 0.47 0.81 0.36 1.1s-0.03 0.54 0.19 0.54c0.22 0 0.29 0.28 0.16 0.62-0.17 0.44-0.1 0.53 0.24 0.32 0.36-0.22 0.41-0.083 0.21 0.54-0.19 0.61-0.14 0.76 0.18 0.56s0.38-0.05 0.18 0.56c-0.19 0.61-0.14 0.76 0.18 0.56 0.33-0.2 0.38-0.05 0.19 0.56-0.19 0.6-0.14 0.76 0.18 0.56s0.38-0.05 0.18 0.56c-0.17 0.52-0.13 0.75 0.11 0.6 0.2-0.13 0.47 0.028 0.59 0.34 0.13 0.33 0.063 0.48-0.15 0.35-0.2-0.12-0.37-0.049-0.37 0.17 0 0.22 0.15 0.39 0.33 0.39 0.18 0 0.53 0.79 0.77 1.8 0.25 0.97 0.53 2.1 0.64 2.5 1.2 4.6 1.3 6.5 0.24 5.2-0.3-0.41-0.7-0.7-0.88-0.65-0.18 0.047-0.68-0.41-1.1-1s-0.93-1-1.1-0.92c-0.17 0.11-0.67-0.31-1.1-0.93-0.44-0.62-0.94-1-1.1-0.93s-0.76-0.35-1.3-1c-0.55-0.66-0.86-0.96-0.7-0.65 0.46 0.87-0.78-0.13-3.1-2.5-1.1-1.1-1.9-1.9-1.9-1.8s-0.27-0.043-0.6-0.38c-0.33-0.33-0.83-0.52-1.1-0.41-0.27 0.1-0.59 0.031-0.72-0.16-0.3-0.49-4.6-0.46-4.6 0.039 0 0.22-0.18 0.28-0.41 0.14-0.23-0.14-0.55-0.025-0.73 0.26-0.17 0.28-0.45 0.52-0.61 0.52-0.43 0.014-2.9 2.5-2.8 2.9 0.045 0.15-0.1 0.28-0.33 0.28-0.22 0-0.31 0.25-0.2 0.56 0.12 0.31 0.038 0.56-0.18 0.56-0.24 0-0.29 0.44-0.13 1.2 0.18 0.8 0.13 1.1-0.16 0.9-0.26-0.16-0.41 0.07-0.4 0.6 4e-3 0.7 0.074 0.76 0.39 0.3 0.29-0.41 0.33-0.25 0.15 0.65-0.15 0.74-0.088 1.2 0.15 1.2 0.21 0 0.29 0.25 0.18 0.55-0.12 0.32 0.047 0.65 0.4 0.79 0.34 0.13 0.53 0.45 0.43 0.72-0.1 0.26 0.097 0.7 0.44 0.97 0.57 0.45 0.58 0.43 0.081-0.25-0.3-0.41 0.29 0.093 1.3 1.1 2.2 2.2 3.6 3.3 3.9 3.2 0.13-0.039 0.54 0.3 0.93 0.74 0.58 0.69 0.59 0.74 0.044 0.31-0.36-0.28-0.65-0.42-0.65-0.32 0 0.1 0.61 0.65 1.4 1.2 0.75 0.57 1.2 0.8 1.1 0.51-0.15-0.29 0.25 0.053 0.89 0.77s1.3 1.3 1.5 1.2c0.19-0.05 0.7 0.4 1.1 1 0.44 0.6 0.94 1 1.1 0.92 0.16-0.098 0.73 0.4 1.3 1.1 0.54 0.71 1.1 1.3 1.3 1.2 0.15-0.044 0.73 0.46 1.3 1.1s1.2 1.2 1.5 1.2c0.27 0 0.86 0.5 1.3 1.1 0.44 0.61 0.92 1 1.1 0.95 0.15-0.092 0.75 0.24 1.3 0.74 0.58 0.5 1.2 0.9 1.3 0.9s0.63 0.59 1.1 1.3c0.43 0.72 0.92 1.2 1.1 1.1 0.17-0.11 0.79 0.3 1.4 0.9 0.58 0.6 1.2 1.1 1.4 1.1 0.2 0 0.65 0.26 1 0.57 1.3 1.1 8.5 1.5 7.9 0.4-0.11-0.18 0.019-0.25 0.29-0.16 0.27 0.089 1.3-0.72 2.3-1.8 0.98-1.1 1.8-1.8 1.8-1.7 4e-3 0.16 0.28-0.28 0.62-0.96s0.87-1.3 1.2-1.4c1.1-0.38 1.8-1.3 1.6-1.9-0.17-0.44-0.064-0.52 0.42-0.34 0.4 0.15 0.55 0.1 0.4-0.14-0.24-0.39 1.2-2 2.1-2.3 0.27-0.089 0.48-0.41 0.49-0.71 2e-3 -0.85 3.2-4.4 3.8-4.2 0.27 0.1 0.39 0.025 0.27-0.18-0.13-0.2 0.032-0.63 0.35-0.95 0.32-0.32 0.58-0.46 0.58-0.32 0 0.14 0.25 0.051 0.55-0.2 0.3-0.25 0.46-0.61 0.34-0.8-0.26-0.42 4.3-5.6 4.7-5.3 0.16 0.099 0.52-0.1 0.8-0.44 0.35-0.43 0.36-0.54 0.042-0.34-1.1 0.64-0.31-0.48 2-2.9 1.3-1.4 2.4-2.7 2.4-2.8-0.026-0.44 0.72-2.2 0.92-2.2 0.12 0 0.11 0.19-0.038 0.43-0.16 0.26-0.1 0.33 0.16 0.16 0.63-0.39 0.55-3.8-0.093-4-0.29-0.11-0.63-0.71-0.77-1.3-0.14-0.62-0.41-1.1-0.61-1.1-0.2 0-0.27-0.14-0.16-0.32 0.11-0.18-0.13-0.62-0.53-0.98-0.4-0.36-0.73-0.53-0.73-0.36s-0.34-9e-3 -0.76-0.39c-0.42-0.38-1-0.73-1.4-0.78-0.34-0.051-0.68-0.27-0.75-0.48-0.22-0.65-3.8-0.49-4 0.19-0.12 0.32-0.45 0.49-0.74 0.38-0.3-0.12-1.3 0.59-2.4 1.7-1 1.1-1.8 1.8-1.8 1.6 0-0.17-0.33-0.015-0.73 0.35-0.4 0.36-0.63 0.83-0.5 1 0.13 0.21 0.065 0.27-0.14 0.15-0.44-0.28-2.1 1.4-1.7 1.7 0.14 0.14-0.72 1.1-1.9 2.2-1.2 1.1-2.3 2.3-2.5 2.8-0.18 0.46-0.51 0.8-0.73 0.75-0.23-0.053-0.61 0.23-0.84 0.63-1 1.8-1.4 1.9-1.3 0.35 0.15-2.2-2e-3 -3.9-0.34-3.7-0.17 0.1-0.23-0.33-0.14-0.96 0.095-0.65 0.019-1.1-0.18-0.93-0.19 0.12-0.29-0.38-0.21-1.2 0.1-1.1 0.045-1.2-0.29-0.81-0.34 0.44-0.38 0.3-0.21-0.67 0.15-0.86 0.085-1.1-0.21-0.96-0.29 0.18-0.34-0.044-0.16-0.75 0.18-0.73 0.13-0.94-0.18-0.74-0.32 0.2-0.37-2e-3 -0.19-0.71 0.14-0.54 0.092-0.98-0.097-0.98-0.19 0-0.26-0.34-0.15-0.75 0.16-0.6 0.057-0.7-0.5-0.52-0.49 0.16-0.55 0.13-0.21-0.12 0.52-0.38 0.23-2.5-0.3-2.1-0.16 0.1-0.47-0.32-0.68-0.93s-0.27-1.1-0.13-1.1c0.14-3e-3 0.055-0.14-0.2-0.29-0.25-0.16-0.52-0.61-0.59-1-0.077-0.4-0.26-1-0.41-1.4-0.15-0.35-0.15-0.83 2e-3 -1.1 0.17-0.28 0.12-0.35-0.15-0.18-0.4 0.25-0.57-0.27-0.53-1.5 0.01-0.26-0.12-0.46-0.29-0.46-0.38 0-0.9-1.5-0.77-2.2 0.053-0.28-0.056-0.41-0.24-0.29-0.41 0.25-1.3-1.5-0.99-2 0.21-0.34-0.79-2.6-1.2-2.6-0.11 0-0.079 0.19 0.067 0.43 0.17 0.27 0.1 0.33-0.19 0.15-0.25-0.15-0.36-0.52-0.25-0.82 0.11-0.3 0.044-0.44-0.16-0.31s-0.74-0.58-1.2-1.6c-0.46-0.98-0.98-1.9-1.2-2-0.18-0.13-0.19-0.45-0.035-0.7 0.17-0.27 0.14-0.38-0.065-0.25-0.2 0.12-0.76-0.56-1.3-1.5s-1.2-2-1.6-2.4c-0.42-0.39-0.5-0.58-0.18-0.45 0.31 0.13 0.22-0.033-0.18-0.37s-0.7-0.76-0.65-0.94-0.49-0.92-1.2-1.6c-0.71-0.71-1.3-1.4-1.3-1.5 0-0.12-0.46-0.64-1-1.2-0.56-0.52-1-1.1-1-1.3s-0.67-0.96-1.5-1.7c-0.81-0.72-1.1-1.1-0.74-0.81 0.42 0.29 0.27-9e-3 -0.35-0.69-1.1-1.3-1.5-1.5-1.1-0.73 0.13 0.25-1-0.83-2.6-2.4-1.5-1.6-3-2.9-3.2-2.9s-0.48-0.19-0.63-0.43c-0.17-0.28-0.086-0.33 0.26-0.16 0.29 0.15 0.05-0.16-0.52-0.69-0.58-0.53-1.2-0.87-1.4-0.76-0.18 0.11-0.6-0.22-0.94-0.73s-0.75-0.85-0.92-0.75c-0.17 0.1-0.57-0.18-0.88-0.64-0.32-0.46-0.58-0.67-0.59-0.47-5e-3 0.2-0.35-0.057-0.77-0.57-0.42-0.51-0.65-0.68-0.52-0.37 0.14 0.31-0.063 0.21-0.44-0.21s-0.88-0.7-1.1-0.63c-0.24 0.078-0.8-0.36-1.3-0.98s-0.97-1-1.1-0.93c-0.17 0.11-0.31 6e-3 -0.31-0.22 0-0.23-0.15-0.32-0.34-0.2-0.19 0.12-0.41 0-0.49-0.26s-0.47-0.46-0.86-0.46c-0.39-1e-3 -0.66-0.22-0.61-0.49 0.056-0.27-0.069-0.38-0.28-0.26s-0.38 0.048-0.38-0.18c0-0.23-0.17-0.31-0.37-0.19-0.2 0.13-0.37 0.058-0.37-0.15 0-0.21-0.23-0.29-0.5-0.19-0.28 0.11-1-0.23-1.6-0.74-0.61-0.51-1.2-0.83-1.3-0.7-0.13 0.13-0.24 0.032-0.24-0.22 0-0.25-0.15-0.36-0.34-0.24s-0.4 0.077-0.46-0.085c-0.15-0.35-3.5-2.3-3.9-2.3-0.17 4e-3 -0.054 0.17 0.25 0.36 0.39 0.25 0.41 0.36 0.081 0.36-0.26 3e-3 -0.57-0.24-0.69-0.55-0.12-0.3-0.36-0.46-0.54-0.35-0.18 0.11-0.33 0.01-0.33-0.23 0-0.24-0.26-0.33-0.58-0.21-0.32 0.12-0.48 0.074-0.37-0.11 0.23-0.38-0.82-0.87-1.3-0.6-0.16 0.1-0.5-0.066-0.75-0.37-0.25-0.3-0.74-0.55-1.1-0.55-0.34 0-0.78-0.16-0.98-0.36-0.2-0.2-0.73-0.42-1.2-0.48-0.45-0.069-0.92-0.23-1-0.36s-0.46-0.14-0.75-0.032c-0.29 0.11-0.52 0.02-0.52-0.2s-0.23-0.31-0.51-0.2c-0.28 0.11-0.78-0.077-1.1-0.41-0.33-0.33-0.6-0.49-0.6-0.35s-0.21 0.1-0.46-0.08c-0.25-0.18-0.96-0.39-1.6-0.45-0.61-0.06-1.3-0.26-1.5-0.45-0.19-0.19-0.65-0.34-1-0.34-0.37 0-0.67-0.15-0.67-0.34 0-0.48-2.5-1.3-3.2-0.99-0.36 0.14-0.46 0.062-0.3-0.21 0.18-0.29-0.047-0.36-0.71-0.23-0.6 0.12-0.88 0.043-0.74-0.19 0.14-0.23-0.077-0.29-0.57-0.17-0.44 0.12-0.8 0.038-0.8-0.17 0-0.21-0.33-0.29-0.74-0.18-0.41 0.11-0.74 0.024-0.74-0.18 0-0.22-0.4-0.28-0.96-0.14-0.55 0.14-0.87 0.095-0.75-0.099 0.25-0.41-2.6-0.92-3.2-0.57-0.23 0.14-0.3 0.08-0.16-0.14 0.24-0.38-3-1.1-4.1-0.88-0.27 0.049-1.4-0.081-2.4-0.29s-2.7-0.49-3.6-0.62c-0.92-0.14-2.1-0.31-2.6-0.39-2.2-0.34-10-0.4-10-0.077m-88 22c-0.13 0.13-0.059 0.46 0.16 0.74 0.22 0.27 0.31 0.74 0.2 1-0.12 0.3-0.048 0.65 0.15 0.77 0.2 0.12 0.28 0.36 0.17 0.53-0.1 0.17 0.051 0.5 0.34 0.74 0.29 0.24 0.44 0.68 0.33 0.97-0.11 0.29-0.023 0.53 0.2 0.53s0.3 0.25 0.18 0.56-0.011 0.56 0.24 0.56c0.25 0 0.35 0.25 0.24 0.56s-0.034 0.56 0.18 0.56 0.3 0.24 0.19 0.54-0.057 0.64 0.13 0.75 0.23 0.48 0.11 0.81c-0.16 0.43-0.093 0.52 0.24 0.31 0.35-0.22 0.41-0.088 0.22 0.5-0.14 0.46-0.089 0.79 0.13 0.79 0.21 0 0.28 0.28 0.15 0.62-0.15 0.39-0.09 0.52 0.16 0.37 0.26-0.16 0.32 0.036 0.19 0.55-0.13 0.51-0.068 0.71 0.18 0.56 0.24-0.15 0.32 0.021 0.21 0.45-0.11 0.42 0.15 1 0.66 1.5 0.46 0.43 0.71 0.78 0.54 0.78-0.17 0-0.14 0.21 0.067 0.46 0.47 0.59 1.3 3.2 1.4 4.2 0.024 0.43 0.27 1.1 0.54 1.4 0.27 0.33 0.5 1 0.5 1.5 0 0.51 0.14 0.92 0.31 0.92 0.17 0 0.22 0.25 0.1 0.56-0.12 0.31-0.034 0.56 0.18 0.56s0.31 0.23 0.2 0.51c-0.11 0.28 0.065 0.77 0.38 1.1 0.32 0.32 0.48 0.84 0.35 1.2-0.13 0.34-0.029 0.58 0.25 0.58 0.26 0 0.37 0.1 0.25 0.22-0.12 0.12 0.098 0.57 0.49 1 0.4 0.42 0.71 0.95 0.71 1.2s-0.23 0.11-0.49-0.23c-0.54-0.71-22-1.1-21-0.35 0.23 0.37-1.6 0.96-1.9 0.63-0.11-0.11 0.063-0.49 0.38-0.85 0.32-0.36 0.7-1.1 0.84-1.7 0.14-0.56 0.4-1.1 0.57-1.2 0.17-0.11 0.21-0.46 0.081-0.8-0.15-0.4-0.088-0.52 0.2-0.34 0.28 0.17 0.35 0.066 0.21-0.31-0.12-0.32-0.027-0.58 0.21-0.58 0.24 0 0.34-0.15 0.22-0.34-0.12-0.19-0.032-0.81 0.18-1.4 0.3-0.79 0.47-0.91 0.71-0.52 0.21 0.34 0.3 0.087 0.26-0.75-0.043-0.88 0.088-1.2 0.43-1.2 0.34 0.07 0.42-0.13 0.25-0.65-0.14-0.42-0.071-0.75 0.14-0.75 0.21 0 0.29-0.25 0.17-0.56-0.12-0.31-0.047-0.56 0.16-0.56 0.2 0 0.36-0.21 0.35-0.46-0.046-1.2 0.13-1.8 0.51-1.5 0.28 0.17 0.32-0.013 0.14-0.58-0.2-0.62-0.14-0.76 0.2-0.54 0.3 0.19 0.38 0.14 0.2-0.14-0.31-0.5 1.3-5.6 1.7-5.4 0.15 0.092 0.18-0.17 0.076-0.58-0.11-0.43-0.012-0.74 0.24-0.74 0.24 0 0.34-0.16 0.22-0.34-0.12-0.19-0.041-0.45 0.17-0.58s0.3-0.38 0.19-0.55 0.03-0.54 0.31-0.82c0.28-0.28 0.46-0.79 0.41-1.1-0.15-1 0.66-3.2 1.2-3.2 0.27 0 0.49-0.17 0.49-0.37s-0.18-0.37-0.39-0.37c-0.22 0-0.29-0.17-0.16-0.38s0.37-0.29 0.54-0.18c0.17 0.1 0.22-0.14 0.12-0.55-0.14-0.54-0.012-0.74 0.47-0.74 0.36 0 0.55 0.11 0.42 0.24m213 48c-0.36 0.093-0.94 0.093-1.3 0-0.36-0.093-0.064-0.17 0.65-0.17 0.71 0 1 0.076 0.65 0.17m-197 27c0.46 0.088 1.1 0.085 1.5-8e-3s-0.023-0.16-0.84-0.16-1.1 0.08-0.64 0.17m-93 37c0.97 0.076 2.6 0.076 3.5 0 0.97-0.077 0.18-0.14-1.8-0.14-1.9 0-2.7 0.062-1.8 0.14m21-3e-3c0.76 0.08 2 0.08 2.8 0s0.14-0.14-1.4-0.14-2.2 0.065-1.4 0.14m107 4e-3c1.1 0.075 2.7 0.074 3.7-2e-3s0.08-0.14-2-0.14-2.8 0.063-1.7 0.14m11 1e-3c1.4 0.071 3.7 0.071 5.2 1e-3 1.5-0.071 0.37-0.13-2.5-0.13-2.9 0-4.1 0.058-2.7 0.13m9.5-0.013c0.46 0.089 1.1 0.085 1.5-7e-3 0.35-0.093-0.023-0.16-0.84-0.16-0.81 4e-3 -1.1 0.08-0.64 0.17m92 8.5c-0.075 0.068-3.5 0.46-5.8 0.66-0.92 0.081-2.1 0.24-2.6 0.36-1.1 0.27-2.9 0.59-4.1 0.77-2 0.3-4.6 0.82-4.6 0.92 0 0.029-0.56 0.11-1.2 0.17-0.69 0.067-1.4 0.33-1.5 0.58-0.16 0.25-0.47 0.34-0.7 0.2-0.23-0.14-0.41-0.06-0.41 0.18 0 0.24-0.25 0.34-0.56 0.22-0.31-0.12-0.56-0.057-0.56 0.13s-0.28 0.24-0.62 0.11c-0.39-0.15-0.53-0.09-0.37 0.16 0.16 0.26-0.035 0.32-0.55 0.19-0.49-0.13-0.71-0.064-0.57 0.16 0.24 0.4-1.6 1.4-1.9 1.1-0.11-0.11 0.023-0.2 0.3-0.2 0.27 0 0.41-0.088 0.3-0.19-0.3-0.3-1.4 0.23-1.2 0.57 0.23 0.37-2.9 2.2-3.9 2.3-0.38 0.029-0.62 0.18-0.52 0.35 0.16 0.26-0.14 0.36-0.84 0.26-0.13-0.017-0.37 0.19-0.54 0.46s-0.46 0.5-0.65 0.5c-0.19 0-0.71 0.42-1.2 0.93s-0.7 0.68-0.56 0.37c0.14-0.3-0.18-0.055-0.7 0.56s-0.96 1.2-0.97 1.4c-7e-3 0.15-0.19 0.28-0.4 0.28-0.22 0-0.27-0.21-0.12-0.46 0.15-0.26-0.091-0.15-0.53 0.24-0.86 0.76-1.1 1.2-0.38 0.74 0.27-0.16 0.33-0.1 0.16 0.17-0.15 0.24-0.4 0.35-0.56 0.26-0.16-0.098-0.77 0.36-1.4 1-0.94 1-0.96 1.1-0.15 0.48 0.51-0.38 0.18 0.034-0.74 0.93-0.92 0.9-1.7 1.7-1.7 1.8-0.14 0.72-0.66 1.4-0.93 1.3-0.18-0.11-0.23 0.056-0.11 0.37 0.14 0.37 0.013 0.58-0.35 0.58-0.32 0-0.68 0.16-0.8 0.37-0.14 0.22 0.031 0.27 0.41 0.12 0.43-0.16 0.55-0.1 0.37 0.19-0.15 0.24-0.5 0.43-0.78 0.43s-0.63 0.19-0.78 0.43c-0.16 0.26-0.1 0.33 0.16 0.16 0.24-0.14 0.43-0.088 0.43 0.13s-0.24 0.39-0.54 0.39c-0.3 0-0.73 0.35-0.96 0.79-0.34 0.63-0.32 0.74 0.08 0.53 0.28-0.14 0.21-0.02-0.14 0.27-0.35 0.29-0.53 0.64-0.4 0.77 0.13 0.13 0.037 0.24-0.21 0.24-0.25 0-0.36 0.16-0.24 0.34 0.26 0.42-0.92 3-1.4 3-0.18 0-0.22 0.17-0.095 0.37 0.13 0.2 0.058 0.37-0.15 0.37-0.21 0-0.29 0.23-0.18 0.52 0.11 0.28-0.037 0.74-0.33 1-0.29 0.27-0.45 0.79-0.35 1.1 0.095 0.36-8e-3 0.66-0.23 0.66-0.22 0-0.31 0.25-0.19 0.56 0.12 0.3 0.038 0.56-0.18 0.56s-0.32 0.33-0.25 0.74c0.089 0.46-0.057 0.74-0.39 0.74-0.29 0-0.53 0.18-0.53 0.39s0.2 0.27 0.43 0.12c0.3-0.18 0.36-0.062 0.19 0.38-0.14 0.36-0.25 0.76-0.25 0.89s-0.18-2e-3 -0.4-0.31c-0.3-0.42-0.34-0.31-0.16 0.49 0.15 0.68 0.095 0.97-0.16 0.81-0.25-0.15-0.39 0.49-0.39 1.8 0 1.7 0.1 2 0.56 1.8 0.31-0.12 0.56-0.029 0.56 0.2 0 0.22-0.17 0.41-0.37 0.41s-0.37 0.17-0.37 0.37 0.25 0.37 0.56 0.37c0.31 0 0.56 0.25 0.56 0.56 0 0.31 0.011 0.63 0.024 0.72 0.059 0.4 3.5 3.7 3.8 3.6 0.15-0.067 0.28 0.064 0.28 0.29 0 0.23 0.15 0.32 0.33 0.21 0.18-0.11 0.54 0.045 0.79 0.35 0.55 0.66 1.7 0.73 1.9 0.12 0.085-0.26 0.34-0.31 0.62-0.14 0.39 0.24 0.39 0.36-0.021 0.62-0.4 0.25-0.37 0.32 0.11 0.32 0.34 3e-3 0.68-0.19 0.76-0.43 0.09-0.27 0.42-0.33 0.85-0.16 0.6 0.23 0.63 0.33 0.16 0.65-0.4 0.28-0.17 0.33 0.85 0.19 0.94-0.13 1.3-0.065 1.2 0.2-0.16 0.26 0.14 0.34 0.91 0.23 0.64-0.093 1.2 7e-3 1.3 0.22 0.089 0.27 0.44 0.25 1.1-0.052 0.54-0.24 1.1-0.3 1.2-0.12 0.11 0.18-9e-3 0.42-0.26 0.53-0.26 0.11 0.2 0.11 1 4e-3 1.1-0.15 1.3-0.1 0.93 0.19-0.67 0.47-0.27 0.49 1.6 0.069 1-0.24 1.4-0.19 1.6 0.16 0.11 0.28 0.5 0.4 0.95 0.28 0.42-0.11 0.76-0.036 0.76 0.16s0.41 0.28 0.92 0.19c0.51-0.096 1.2-0.053 1.6 0.096 0.58 0.24 1.7 0.43 3.4 0.57 0.31 0.025 0.81 0.14 1.1 0.25 0.5 0.18 2.4 0.18 4.2 0.011 0.36-0.034 0.65-0.21 0.65-0.39s0.25-0.24 0.56-0.12c0.3 0.12 0.56 0.024 0.56-0.21 0-0.23 0.094-0.33 0.21-0.21 0.11 0.12 0.81-0.35 1.6-1 0.74-0.68 1.5-1.1 1.7-1 0.21 0.13 0.23 0.02 0.056-0.26-0.19-0.3-0.059-0.66 0.34-0.95 0.35-0.26 0.62-0.57 0.6-0.69-0.048-0.33 1.1-2.4 1.3-2.4 0.11 0 0.078 0.19-0.067 0.43-0.16 0.27-0.1 0.33 0.17 0.16 0.24-0.15 0.34-0.42 0.22-0.62-0.24-0.39 1.2-2.6 1.7-2.6 0.18 0 1.1-0.5 2.1-1.1 2.9-1.8 14-3.3 14-1.9 0 0.16 0.33 0.21 0.74 0.1 0.41-0.11 0.74-0.023 0.74 0.18s0.36 0.28 0.8 0.17c0.54-0.14 0.71-0.073 0.54 0.22-0.17 0.28-0.06 0.35 0.31 0.2 0.32-0.12 0.58-0.036 0.58 0.19 0 0.23 0.19 0.37 0.42 0.32 0.23-0.05 0.5 0.14 0.6 0.42 0.13 0.34 0.031 0.42-0.29 0.22-0.31-0.19-0.38-0.15-0.21 0.14 0.15 0.24 0.38 0.36 0.52 0.28 0.75-0.47 3 3.1 2.4 3.9-0.11 0.18-9e-3 0.33 0.23 0.33 0.27 0 0.37 0.42 0.27 1.1-0.089 0.61-0.025 1.1 0.14 1.1 0.17 0 0.31 0.82 0.31 1.8 0 1.7-0.061 1.8-0.8 1.6-0.55-0.14-0.72-0.074-0.53 0.22 0.26 0.42-0.59 0.6-2.1 0.45-0.36-0.036-0.65 0.097-0.65 0.3 0 0.2-0.52 0.28-1.2 0.18-0.79-0.12-1.1-0.051-0.9 0.23 0.18 0.29-0.054 0.34-0.76 0.16-0.64-0.16-0.93-0.12-0.78 0.12 0.14 0.23-0.15 0.3-0.74 0.19-0.66-0.13-0.89-0.053-0.71 0.23 0.18 0.29-0.11 0.36-0.96 0.21-0.98-0.17-1.1-0.12-0.67 0.23 0.47 0.37 0.46 0.4-0.12 0.22-1-0.34-3.8 0.18-3.1 0.6 0.33 0.23 0.2 0.26-0.39 0.093-0.53-0.15-0.99-0.075-1.1 0.18-0.27 0.43-3.6 1.1-5.8 1.2-0.65 0.026-1.1 0.18-1 0.35 0.1 0.17-0.2 0.3-0.67 0.29-1.4-0.013-3.4 0.26-4.1 0.55-0.35 0.15-0.79 0.17-0.99 0.047-0.2-0.12-0.46-0.072-0.57 0.12-0.12 0.19-0.83 0.34-1.6 0.34-0.76 0-1.4 0.15-1.5 0.34-0.063 0.19-0.63 0.27-1.3 0.17-0.75-0.11-1.1-0.032-0.92 0.22 0.14 0.22-0.034 0.34-0.41 0.28-0.36-0.057-0.85 0.055-1.1 0.25s-0.61 0.25-0.81 0.13c-0.2-0.12-0.47-0.047-0.6 0.17s-0.56 0.29-0.95 0.17c-0.39-0.12-0.71-0.063-0.71 0.14 0 0.2-0.33 0.27-0.74 0.17-0.43-0.11-0.74-0.012-0.74 0.24 0 0.24-0.16 0.34-0.35 0.22-0.54-0.33-2.3 0.2-2 0.62 0.14 0.23-0.071 0.28-0.56 0.12-0.57-0.18-0.79-0.092-0.79 0.33 0 0.32-0.29 0.58-0.65 0.58-0.56-5e-3 -0.57-0.06-0.093-0.4 0.46-0.33 0.44-0.36-0.12-0.18-0.37 0.12-0.75 0.22-0.83 0.22s-0.16 0.25-0.16 0.56c0 0.3-0.12 0.53-0.28 0.5-0.15-0.032-0.75 0.14-1.3 0.37-0.58 0.24-1.2 0.34-1.4 0.22-0.19-0.12-0.34-6e-3 -0.34 0.24s-0.11 0.34-0.24 0.21-0.48-0.044-0.78 0.2-0.8 0.48-1.1 0.53c-0.32 0.047-0.73 0.35-0.91 0.67-0.18 0.32-0.48 0.49-0.68 0.37s-0.35-0.029-0.35 0.2-0.17 0.31-0.37 0.18c-0.2-0.12-0.37-0.056-0.37 0.15 0 0.21-0.52 0.65-1.2 0.98-0.85 0.44-1.1 0.47-0.9 0.1 0.14-0.27-0.021-0.16-0.36 0.25-0.34 0.41-0.76 0.7-0.95 0.65-0.19-0.051-0.34 0.15-0.34 0.45 0 0.3-0.44 0.83-0.97 1.2-0.53 0.35-1.6 1.3-2.4 2-0.77 0.76-1.5 1.3-1.6 1.2-0.12-0.12-0.22 0.041-0.22 0.36s-0.58 0.95-1.3 1.4-1.3 0.88-1.3 0.98 0.17 0.074 0.37-0.052c0.57-0.35 0.44 0.41-0.15 0.9-0.29 0.24-1.1 1.4-1.9 2.6-0.77 1.2-1.5 2.1-1.6 2-0.13-0.082-0.23 0.17-0.21 0.56 0.015 0.39-0.12 0.7-0.31 0.69-0.65-0.035-1.1 1.2-0.54 1.6 0.39 0.25 0.36 0.32-0.16 0.33-0.37 3e-3 -0.57 0.17-0.44 0.38 0.13 0.2 0.071 0.37-0.12 0.37s-0.34 0.21-0.33 0.46c0.047 1.2-0.13 1.8-0.51 1.6-0.28-0.17-0.33 0.012-0.15 0.58 0.18 0.56 0.13 0.75-0.14 0.58-0.27-0.17-0.33 0.1-0.19 0.83 0.13 0.63 0.043 1.2-0.2 1.3-0.23 0.14-0.32 0.41-0.2 0.6 0.12 0.19 0.073 0.34-0.099 0.34s-0.34 0.54-0.38 1.2c-0.037 0.66-0.17 2-0.29 2.9-0.27 2-0.28 11-9e-3 14 0.1 0.92 0.25 2.3 0.32 3 0.074 0.72 0.34 1.7 0.6 2.2 0.25 0.47 0.36 1.2 0.25 1.7-0.13 0.53 2e-3 1 0.36 1.3 0.32 0.26 0.5 0.78 0.4 1.2-0.097 0.37-0.014 0.67 0.18 0.67s0.25 0.35 0.11 0.79c-0.18 0.56-0.12 0.71 0.2 0.51 0.33-0.2 0.38-0.05 0.18 0.56-0.18 0.57-0.13 0.75 0.15 0.58 0.23-0.14 0.44-0.035 0.46 0.23s0.089 0.74 0.13 1c0.042 0.31 0.1 0.76 0.13 1 0.032 0.27 0.32 0.35 0.7 0.21 0.57-0.21 0.58-0.17 0.14 0.38-0.46 0.57-0.33 0.79 0.42 0.67 0.15-0.025 0.77 0.98 1.4 2.2 0.6 1.2 1.6 2.9 2.1 3.6 0.55 0.72 0.76 1.2 0.47 1-0.29-0.16 0.14 0.31 0.95 1 0.81 0.72 1.6 1.3 1.8 1.3 0.15 7e-3 0.28 0.19 0.28 0.41s-0.21 0.27-0.46 0.11c-0.33-0.2-0.32-0.096 0.035 0.34 0.27 0.34 0.69 0.58 0.93 0.53 0.24-0.045 0.38 0.14 0.33 0.41-0.056 0.27 0.055 0.39 0.25 0.27 0.19-0.12 0.8 0.33 1.3 0.99s0.88 0.96 0.74 0.65c-0.14-0.3 0.095-0.16 0.52 0.32s0.77 0.76 0.77 0.62 0.48 0.093 1.1 0.52c0.59 0.42 1.3 0.77 1.5 0.77s0.41 0.17 0.41 0.37 0.25 0.37 0.56 0.37c0.3 0 0.56 0.26 0.56 0.58 0 0.32 0.17 0.47 0.37 0.35 0.2-0.13 0.37-0.042 0.37 0.19 0 0.23 0.17 0.31 0.37 0.18s0.37-0.043 0.37 0.18 0.13 0.34 0.28 0.24c0.44-0.27 3.1 1.1 2.8 1.4-0.16 0.16 0.068 0.19 0.5 0.059 0.48-0.15 0.95-0.036 1.2 0.29 0.25 0.3 0.77 0.44 1.2 0.32 0.43-0.11 0.69-0.053 0.57 0.14-0.12 0.19 0.31 0.36 0.95 0.39 0.64 0.027 1.2 0.22 1.3 0.43s0.55 0.31 1.1 0.21c0.51-0.093 0.85-0.035 0.75 0.13-0.1 0.16 0.49 0.23 1.3 0.15 0.92-0.087 1.4-2e-3 1.3 0.22-0.15 0.24 3.2 0.32 9.7 0.24 11-0.14 12-0.2 12-0.64 0-0.17 0.38-0.27 0.83-0.24s0.96 0.028 1.1-0.02 0.4-0.12 0.56-0.17 0.53-0.18 0.83-0.3c2.1-0.82 4.5-1.4 4.9-1.2 0.27 0.17 0.34 0.11 0.17-0.16-0.24-0.4 0.27-0.57 1.5-0.53 0.25 9e-3 0.37-0.13 0.26-0.3-0.11-0.18 0.23-0.42 0.74-0.55 0.52-0.13 0.94-0.4 0.94-0.59 0-0.19 0.17-0.25 0.37-0.12s0.37 0.084 0.37-0.094 0.59-0.6 1.3-0.95c1.5-0.74 1.8-0.77 1.4-0.2-0.17 0.27-0.1 0.33 0.19 0.15 0.25-0.15 0.36-0.37 0.24-0.49-0.36-0.36 4.6-3.5 5.1-3.2 0.25 0.14 0.32 0.12 0.17-0.054-0.28-0.31 2.2-3.1 2.7-3.1 0.15 0 0.27 0.29 0.27 0.65-4e-3 1.7 0.37 3.6 0.74 3.7 0.23 0.076 0.32 0.29 0.21 0.48s0.092 0.34 0.46 0.34c0.57 5e-3 0.58 0.061 0.11 0.36-0.46 0.3-0.43 0.36 0.18 0.37 0.52 8e-3 0.6 0.1 0.27 0.31-0.34 0.22-0.23 0.43 0.42 0.78 0.49 0.26 1.1 0.87 1.4 1.3s0.56 0.85 0.69 0.82c0.25-0.047 2.1 0.4 3 0.71 1.2 0.43 31 0.31 31-0.13 0-0.26 0.32-0.34 0.81-0.22 0.78 0.2 0.78 0.22 0.093 0.5-0.48 0.19-0.53 0.29-0.16 0.3 0.3 0.011 0.8-0.14 1.1-0.34 0.3-0.2 0.4-0.36 0.2-0.36s0.3-0.34 1.1-0.75c1.7-0.87 1.8-0.89 1.4-0.28-0.19 0.32-0.077 0.3 0.35-0.045 0.68-0.55 0.86-0.98 0.26-0.6-0.6 0.37-0.42-0.42 0.21-0.95 1.2-1 1.7-2.6 1.6-5.2-0.078-1.4-0.012-2.4 0.15-2.3 0.6 0.37 0.26-0.24-0.63-1.1-0.6-0.6-0.84-1.1-0.68-1.6 0.18-0.47 0.11-0.56-0.25-0.33-0.37 0.23-0.43 0.14-0.25-0.33 0.13-0.35 0.11-0.55-0.054-0.45-0.16 0.1-0.6-0.33-0.98-0.96s-0.48-1-0.25-0.88c0.32 0.2 0.32 0.032-1e-3 -0.67-0.24-0.52-0.55-0.86-0.69-0.78-0.44 0.27-1.1-1.7-0.9-2.5 0.17-0.53 0.1-0.66-0.21-0.47-0.32 0.2-0.38 0.056-0.2-0.51 0.2-0.64 0.13-0.74-0.42-0.55-0.55 0.19-0.59 0.15-0.21-0.26 0.63-0.68 0.58-1.1-0.093-0.86-0.68 0.26-0.74-0.64-0.092-1.3 0.37-0.37 0.33-0.42-0.19-0.22-0.68 0.26-0.91-0.36-0.28-0.76 0.6-0.37 0.44-1.3-0.18-1.1-0.35 0.14-0.56-6e-3 -0.56-0.38 0-0.33 0.17-0.6 0.37-0.6 0.2 0 0.36-0.46 0.34-1-0.023-0.89-0.064-0.93-0.33-0.28l-0.3 0.74-0.32-0.74c-0.18-0.41-0.32-17-0.32-36 0-20-0.14-36-0.31-35-0.17 0.11-0.25-0.99-0.19-2.4 0.069-1.4-5e-3 -2.6-0.16-2.6-0.16 1e-3 -0.27-0.54-0.26-1.2 0.019-0.66-0.23-2.5-0.56-4-0.33-1.5-0.65-3.1-0.71-3.5-0.066-0.41-0.24-1-0.38-1.4-0.14-0.34-0.3-0.84-0.34-1.1-0.041-0.27-0.2-0.68-0.34-0.92s-0.17-0.74-0.047-1.1c0.18-0.57 0.15-0.59-0.18-0.13-0.41 0.57-0.58 0.06-0.5-1.5 0.032-0.59-1.3-3.4-1.6-3.4-0.11 0-0.096 0.17 0.03 0.37 0.13 0.2 0.033 0.37-0.21 0.37-0.26 0-0.35-0.31-0.23-0.77 0.15-0.56 0.059-0.72-0.33-0.57-0.29 0.11-0.53 0.041-0.53-0.16 0-0.69-0.12-0.92-0.7-1.3-0.32-0.24-0.47-0.55-0.33-0.69 0.14-0.14-0.11-0.57-0.56-0.94-0.45-0.38-0.69-0.69-0.53-0.7s-0.3-0.53-1-1.2c-0.72-0.63-1.2-1.3-1.1-1.5 0.13-0.21 0.071-0.28-0.14-0.16-0.41 0.25-1.7-0.98-1.4-1.3 0.11-0.11-0.091-0.43-0.44-0.71-0.42-0.34-0.54-0.36-0.36-0.053 0.15 0.26 0.12 0.46-0.071 0.46s-0.44-0.35-0.55-0.78c-0.11-0.43-0.37-0.68-0.57-0.55-0.2 0.12-0.72-0.23-1.2-0.8-0.44-0.56-0.69-0.77-0.56-0.46 0.13 0.3-0.096 0.17-0.51-0.29-0.41-0.47-0.84-0.84-0.95-0.83-0.74 0.059-0.97-0.02-0.81-0.28 0.1-0.16-0.17-0.32-0.59-0.35-0.42-0.032-0.89-0.25-1-0.48-0.14-0.23-0.41-0.43-0.59-0.44-0.83-0.046-3.4-1.6-3.2-1.9 0.12-0.2 0.047-0.25-0.17-0.12-0.5 0.31-1.6-0.11-1.4-0.51 0.26-0.42-1.2-0.84-1.7-0.51-0.27 0.17-0.33 0.1-0.17-0.16 0.26-0.43-0.38-0.61-1.7-0.49-0.39 0.034-0.57-0.11-0.42-0.34 0.15-0.24-0.029-0.37-0.44-0.31-0.38 0.047-1.3-0.2-2.1-0.54-0.78-0.34-1.7-0.53-2.1-0.41-0.39 0.12-1.1-0.073-1.7-0.45-0.69-0.45-0.92-0.5-0.7-0.15 0.22 0.36 0.19 0.44-0.13 0.24-0.25-0.15-0.82-0.34-1.3-0.41-0.45-0.07-1.5-0.24-2.3-0.37-0.82-0.13-1.8-0.29-2.2-0.35-0.41-0.056-0.74-0.14-0.74-0.2 0-0.052-0.42-0.12-0.93-0.15-0.51-0.032-1.2-0.2-1.4-0.38-0.37-0.23-0.44-0.19-0.23 0.14 0.22 0.35 0.12 0.38-0.41 0.1-0.38-0.2-1.6-0.4-2.7-0.46-2.3-0.11-14-0.21-14-0.13m17 12c14 1.5 25 7 30 15 5 7.7 5 8.3 5.4 53 0.26 35 0.3 37 1 40 1 4.6 2.6 9.6 3.6 12 0.46 0.92 0.96 2 1.1 2.5l0.26 0.83h-11-11l-0.95-1.6c-0.84-1.4-1.8-4.2-3.2-9.4-0.51-1.9-1.7-3.1-3-3.1-1 0-1.7 0.52-7 5-10 8.8-18 12-29 12-19 0.6-31-6.6-36-22-2.3-7.3-2.5-17-0.43-22 0.27-0.71 0.87-2.3 1.3-3.5 2.7-7.2 9.8-14 18-17 4.3-1.6 16-4.5 24-6.1 26-5 28-5.6 28-14-0.015-18-7-25-24-24-11 0.36-16 3.1-22 11-1.4 1.9-1.9 2.3-2.5 2.2-0.41-0.11-4.8-0.9-9.8-1.8-5-0.86-9.1-1.6-9.2-1.7-0.96-0.7 5.4-13 8.4-16 9.6-9.9 27-14 49-12m-2.9 65c-4.2 1.4-9.7 3.1-12 3.7-14 3.4-20 7.1-22 16-6.1 19 15 33 33 23 10-6 14-15 14-32 0.012-10-0.14-11-2.5-12-1.8-0.87-1.9-0.85-10 2m3.2 9.9c-0.12 0.32-0.24 1.1-0.26 1.8-0.036 1.1-0.05 1.1-0.33 0.25-0.25-0.78-0.3-0.68-0.33 0.67-0.02 0.88 0.11 1.5 0.29 1.4 0.34-0.21 0.15 2.9-0.23 3.9-0.12 0.31-0.18 0.71-0.13 0.9 0.18 0.76-1.2 5.8-1.5 5.8-0.22 0-0.3 0.1-0.18 0.23 0.33 0.33-1.1 3-1.7 3.2-0.86 0.33-1.5 1.8-0.7 1.5 0.78-0.28 0.81-0.31-1.7 1.9-1.1 0.95-2.1 1.6-2.3 1.5-0.17-0.11-0.4 0.054-0.52 0.36-0.13 0.34-0.45 0.46-0.84 0.31-0.45-0.17-0.55-0.11-0.34 0.23 0.21 0.35 0.092 0.41-0.46 0.24-0.44-0.14-0.96-0.02-1.3 0.29-0.33 0.33-0.93 0.45-1.6 0.33-0.73-0.14-0.97-0.071-0.78 0.22 0.19 0.3-0.5 0.42-2.4 0.42-2-4e-3 -2.6-0.11-2.2-0.4 0.44-0.31 0.33-0.36-0.46-0.23-0.56 0.09-1 0.038-1-0.12 0-0.28-1.6-0.82-2.6-0.88-0.3-0.019-0.52-0.24-0.47-0.48 0.048-0.25-0.12-0.37-0.38-0.27s-0.96-0.32-1.5-0.94c-0.59-0.62-0.95-1.1-0.79-1.1 0.16 0 0.026-0.26-0.29-0.57-1.2-1.2-1.7-4.7-0.97-7.2 0.45-1.6 2.4-4.8 3-4.8 0.22 0 0.28 0.19 0.14 0.43-0.16 0.27-0.1 0.33 0.17 0.16 0.24-0.15 0.35-0.4 0.25-0.56-0.2-0.33 0.53-1 2.2-2 0.91-0.57 1-0.58 0.85-0.089-0.15 0.4-0.06 0.52 0.29 0.39 0.28-0.11 0.43-0.42 0.32-0.7-0.22-0.57 4-2 6.3-2.1 0.72-0.038 1.2-0.16 1.2-0.28-0.18-0.29 3.9-1.1 4.3-0.87 0.18 0.11 0.32 2e-3 0.32-0.24 0-0.27 0.41-0.37 1.1-0.27 0.66 0.097 1 0.016 0.86-0.21-0.13-0.21 0.022-0.27 0.37-0.14 0.33 0.12 0.65 0.05 0.72-0.17s0.95-0.43 1.9-0.47c1-0.042 1.9-0.27 2-0.51 0.08-0.24 0.38-0.44 0.67-0.44 0.29 0 0.52-0.17 0.52-0.37s0.18-0.37 0.41-0.37c0.23 0 0.31 0.26 0.18 0.59m46 27c3e-3 1 0.075 1.4 0.16 0.83s0.083-1.4-5e-3 -1.9c-0.088-0.46-0.16 5e-3 -0.16 1" fill="#040404"/>
<path d="m108 39c4.4 0.059 12 0.059 16 0s0.68-0.11-8.1-0.11c-8.8 0-12 0.049-7.8 0.11m216 200c0.69 0.71 1.3 1.3 1.4 1.3s-0.38-0.58-1.1-1.3-1.3-1.3-1.4-1.3 0.38 0.58 1.1 1.3m7.9 22c0 1.1 0.07 1.6 0.15 1 0.085-0.56 0.085-1.5 0-2-0.084-0.56-0.15-0.1-0.15 1m-24 37c0 0.92 0.072 1.3 0.16 0.83 0.088-0.46 0.088-1.2 0-1.7-0.088-0.46-0.16-0.084-0.16 0.83m25 26c2e-3 1.2 0.071 1.7 0.15 1 0.082-0.67 0.081-1.7-4e-3 -2.2-0.084-0.56-0.15-0.012-0.15 1.2m-68 8.7c0.8 0.81 1.5 1.5 1.6 1.5s-0.46-0.67-1.3-1.5c-0.8-0.82-1.5-1.5-1.6-1.5s0.47 0.67 1.3 1.5" fill="#5b490c"/>
<path d="m102 158c7.7 0.056 20 0.056 28 0 7.8-0.055 1.5-0.1-14-0.1-15 0-22 0.046-14 0.1m-60 36c0.082 0.31 0.55 0.59 1 0.62 0.71 0.054 0.74 0.026 0.16-0.14-0.41-0.11-0.88-0.39-1-0.62-0.2-0.28-0.26-0.23-0.16 0.14m241 50c0.66 0.082 1.8 0.083 2.6 3e-3 0.77-0.08 0.23-0.15-1.2-0.15s-2.1 0.064-1.4 0.15m49 21c3e-3 1 0.075 1.4 0.16 0.83s0.083-1.4-5e-3 -1.9c-0.088-0.46-0.16 5e-3 -0.16 1m-97 49c0 0.71 0.076 1 0.17 0.65 0.094-0.36 0.094-0.94 0-1.3-0.093-0.36-0.17-0.064-0.17 0.65" fill="#2c2207"/>
<path d="m89 68c-0.23 0.66-0.35 1.3-0.27 1.3 0.079 0.08 0.33-0.39 0.56-1 0.23-0.65 0.35-1.3 0.27-1.3-0.08-0.079-0.33 0.39-0.56 1m43 36c0.14 0.51 0.4 1.2 0.59 1.5 0.24 0.39 0.27 0.27 0.095-0.37-0.14-0.51-0.4-1.2-0.59-1.5-0.24-0.39-0.27-0.27-0.095 0.37m-57 74c-0.23 0.66-0.35 1.3-0.27 1.3 0.079 0.08 0.33-0.39 0.56-1 0.23-0.65 0.35-1.3 0.27-1.3s-0.33 0.39-0.56 1m89 16c0.094 0.15 6.2 0.28 14 0.28s14-0.12 14-0.28c0.094-0.15-6-0.28-14-0.28s-14 0.12-14 0.28m-115 0.18c3.8 0.06 10 0.06 14 0s0.69-0.11-6.9-0.11c-7.6 0-11 0.05-6.9 0.11m235 50c0.36 0.094 0.94 0.094 1.3 0 0.36-0.093 0.064-0.17-0.65-0.17s-1 0.076-0.65 0.17m17 4.7c0 0.064 0.54 0.6 1.2 1.2l1.2 1.1-1.1-1.2c-1-1.1-1.3-1.4-1.3-1.1m31 19c0 2.2 0.061 3.1 0.14 1.9s0.073-3-1e-3 -4.1c-0.075-1.1-0.14-0.098-0.13 2.1m-0.045 5.6c4e-3 0.81 0.079 1.1 0.17 0.64 0.089-0.46 0.085-1.1-7e-3 -1.5-0.093-0.35-0.17 0.023-0.16 0.84m-30 16c0.46 0.088 1.2 0.088 1.7 0 0.46-0.089 0.084-0.16-0.83-0.16s-1.3 0.072-0.83 0.16m1.6 49-1.3 1.4 1.4-1.3c0.76-0.7 1.4-1.3 1.4-1.4 0-0.28-0.31-0.016-1.5 1.3" fill="#7c7414"/>
<path d="m97 27c2 0.4 38 0.38 39-0.029 0.43-0.19-7.8-0.31-20-0.3-11 0.014-20 0.16-19 0.32m43 2c0.69 0.71 1.3 1.3 1.4 1.3 0.1 0-0.38-0.58-1.1-1.3s-1.3-1.3-1.4-1.3 0.38 0.58 1.1 1.3m7.1 16c0.23 0.74 0.55 1.4 0.72 1.4s0.11-0.46-0.13-1c-0.69-1.6-1-1.8-0.58-0.34m-65 6.9c-0.22 0.42-0.35 0.93-0.29 1.1s0.31-0.14 0.55-0.76c0.49-1.3 0.34-1.5-0.26-0.37m202 51c0.8 0.82 1.5 1.5 1.6 1.5s-0.47-0.67-1.3-1.5c-0.8-0.82-1.5-1.5-1.6-1.5s0.47 0.67 1.3 1.5m-172 0.69c-0.41 0.66-0.99 2.4-0.68 2.1 0.41-0.47 1.2-2.4 1-2.4-0.086 0-0.24 0.14-0.35 0.32m-1.8 4.9c-0.12 0.51-0.33 1.3-0.47 1.7s0.015 0.27 0.35-0.3 0.54-1.3 0.47-1.7c-0.095-0.45-0.2-0.36-0.35 0.3m12 3.3c0.56 1.7 0.88 2 0.54 0.55-0.14-0.61-0.42-1.3-0.62-1.5s-0.16 0.22 0.081 0.93m-18 13c-0.28 0.3-0.4 0.65-0.27 0.77 0.31 0.31 1.1-0.49 0.91-0.95-0.074-0.2-0.36-0.12-0.63 0.18m183 9.8c0.32 0.61 0.66 1.1 0.76 1.1 0.1 0-0.073-0.5-0.39-1.1-0.32-0.61-0.66-1.1-0.76-1.1s0.074 0.5 0.39 1.1m-105 2.7c0.23 0.74 0.55 1.4 0.72 1.4s0.11-0.46-0.13-1c-0.69-1.6-1-1.8-0.58-0.34m150 19c-2.6 3.1-3.4 4.1-1.8 2.5 1.5-1.6 4.2-4.8 3.9-4.8-0.085 0-1 1-2.1 2.3m-11 12c-0.45 0.61-0.76 1.1-0.69 1.1 0.074 0 0.58-0.5 1.1-1.1 0.54-0.61 0.85-1.1 0.69-1.1s-0.67 0.5-1.1 1.1m-231 0.59c-0.34 0.9-0.27 1 0.31 0.54 0.62-0.52 50-0.78 51-0.27 0.67 0.24 0.79 0.19 0.61-0.28-0.34-0.89-52-0.88-52 6e-3m-1.6 4.8c-0.23 0.74-0.27 1.2-0.088 1 0.36-0.37 0.92-2.4 0.67-2.4-0.089 0-0.35 0.61-0.58 1.4m55-0.15c0.14 0.46 0.4 1 0.59 1.2 0.19 0.2 0.15-0.18-0.078-0.83-0.47-1.3-0.9-1.7-0.51-0.36m53-0.093c0.14 0.51 0.4 1.2 0.59 1.5 0.24 0.39 0.27 0.27 0.096-0.37-0.14-0.51-0.4-1.2-0.59-1.5-0.24-0.39-0.27-0.27-0.096 0.37m-51 3.7c0.56 1.7 0.88 2 0.54 0.55-0.14-0.61-0.42-1.3-0.62-1.5-0.2-0.2-0.16 0.22 0.081 0.93m53 1.8c0.32 0.82 0.65 1.4 0.73 1.3 0.18-0.18-0.89-2.8-1.1-2.8-0.096 0 0.089 0.67 0.41 1.5m112 2c-0.9 0.92-1.6 1.7-1.4 1.7s0.92-0.75 1.8-1.7c0.9-0.92 1.6-1.7 1.4-1.7s-0.92 0.75-1.8 1.7m-225 0.58c-0.22 0.42-0.34 0.96-0.26 1.2 0.08 0.24 0.33-0.1 0.56-0.76 0.47-1.3 0.31-1.6-0.3-0.43m-2.1 6.2c-0.37 1.2-0.36 1.3 0.12 0.67 0.47-0.63 0.76-2.1 0.42-2.1-0.068 0-0.31 0.62-0.54 1.4m122 14c-0.12 0.36-0.66 1.1-1.2 1.8l-0.96 1.1 1.2-1.1c0.64-0.58 1.3-1.4 1.4-1.8 0.23-0.88-0.061-0.93-0.37-0.055m-51 0.28c0.21 0.41 0.77 1.1 1.2 1.5 0.84 0.71 0.84 0.7-0.052-0.38-1.5-1.8-1.6-1.9-1.2-1.1m-77 1.7c-0.66 0.6-1.1 1.1-0.9 1.1s0.79-0.5 1.4-1.1c1.4-1.4 1.1-1.4-0.47 0.011m-43 1.7c0.37 0.37 38 0.44 38 0.071 0-0.18-8.7-0.32-19-0.32-11 0-19 0.11-19 0.25m126-0.047c0.29 0.29 39 0.4 39 0.12 0.38-0.15-8.4-0.28-19-0.28s-20 0.071-20 0.16m92 16c-1.4 0.75-1.3 1.1 0.093 0.34 0.61-0.32 1.1-0.65 1.1-0.75 0-0.24-0.04-0.22-1.2 0.41m80 9.2c0.69 0.71 1.3 1.3 1.4 1.3 0.1 0-0.38-0.58-1.1-1.3s-1.3-1.3-1.4-1.3c-0.1 0 0.38 0.58 1.1 1.3m9.3 20c3e-3 0.39 0.18 0.96 0.38 1.3 0.28 0.41 0.31 0.26 0.13-0.56-0.3-1.4-0.52-1.7-0.51-0.71m-66 6.1c-1.5 0.94-1.5 1.3 0.017 0.44 1.6-0.84 1.5-0.79 1.3-0.99-0.094-0.094-0.7 0.15-1.4 0.55m67 0.82c-0.016 0.97 0.1 1.8 0.27 1.8s0.23-0.62 0.16-1.4c-0.21-2.2-0.39-2.3-0.42-0.37m-69 0.72c-0.24 0.24-0.44 0.32-0.44 0.16 0-0.43-0.8 0.5-2 2.4-0.6 0.92-1.3 1.9-1.5 2.2-0.21 0.31-0.018 0.25 0.45-0.15 0.46-0.39 0.83-0.9 0.83-1.1 0-0.24 0.78-1.2 1.7-2.2s1.7-1.7 1.6-1.7c-0.098 0-0.38 0.2-0.62 0.44m-43 1.9c0 0.064 0.54 0.61 1.2 1.2l1.2 1.1-1.1-1.2c-1-1.1-1.3-1.4-1.3-1.1m66 2c0.1 1.1 0.66 1.7 0.69 0.74 0.015-0.56-0.14-1-0.34-1s-0.36 0.12-0.34 0.28m-58 2.2c0 0.16 0.34 0.32 0.75 0.35s0.65-0.1 0.53-0.29c-0.26-0.42-1.3-0.47-1.3-0.056m59 1.6c0 1.1 0.07 1.6 0.16 1 0.084-0.56 0.084-1.5 0-2-0.085-0.56-0.16-0.1-0.16 1m-41 1.9c1 0.44 1.4 0.44 1.1 0-0.12-0.2-0.59-0.36-1-0.34-0.78 0.025-0.78 0.037-0.071 0.34m87 9.1c4e-3 0.82 0.08 1.1 0.17 0.64 0.089-0.46 0.085-1.1-7e-3 -1.5-0.093-0.36-0.16 0.022-0.16 0.84m0.065 14c0 4.7 0.053 6.6 0.12 4.1s0.064-6.2 0-8.5c-0.065-2.3-0.12-0.31-0.12 4.4m-113 4c-0.65 1.1-0.94 1.7-0.64 1.4 0.67-0.69 2.3-3.3 2-3.3-0.1 0-0.72 0.88-1.4 1.9m113 13c0 4.5 0.054 6.3 0.12 4s0.065-6-1e-3 -8.1c-0.065-2.2-0.12-0.3-0.12 4.2m-46-5.9c-0.39 0.44-0.38 0.54 0.053 0.54 0.29 0 0.63-0.25 0.74-0.56 0.27-0.7-0.17-0.7-0.8 0.014m-3.9 1.2c-0.36 0.093-0.65 0.33-0.65 0.54s0.18 0.25 0.4 0.12 0.84-0.38 1.4-0.55c1.1-0.32 0.061-0.42-1.1-0.11m-2.7 0.75c-1.1 0.27-1.5 0.78-0.39 0.57 0.53-0.1 1.1-0.33 1.2-0.51 0.11-0.18 0.15-0.31 0.087-0.28-0.063 0.023-0.45 0.12-0.86 0.22m-5.1 1.1c-0.56 0.085-0.94 0.29-0.84 0.45 0.22 0.36 2 0.059 2.3-0.39 0.11-0.18 0.067-0.3-0.098-0.27-0.16 0.031-0.76 0.13-1.3 0.21m-12 4.7c-1 0.78-2.9 2.8-2.6 2.8 0.073 0 1-0.83 2.1-1.9 2.2-2 2.3-2.3 0.48-0.98m23-0.64c-0.15 0.15-0.27 0.52-0.27 0.84 0 0.42 0.11 0.46 0.41 0.16 0.23-0.23 0.35-0.6 0.27-0.84-0.078-0.24-0.26-0.3-0.41-0.16m-27 11c0.14 0.61 0.41 1.3 0.58 1.5 0.17 0.19 0.16-0.21-0.037-0.88-0.45-1.6-0.89-2-0.54-0.57m74 2.4c0 1.9 0.062 2.7 0.14 1.8 0.077-0.97 0.077-2.6 0-3.5-0.076-0.97-0.14-0.18-0.14 1.8m-53 1.2-1.1 1.2 1.2-1.1c0.66-0.6 1.2-1.1 1.2-1.2 0-0.29-0.3-0.034-1.3 1.1m52 4.1c0 0.76 0.15 1.3 0.34 1.2 0.36-0.22 0.29-1.9-0.1-2.3-0.13-0.13-0.24 0.39-0.24 1.1m3.4 14c0.22 0.62 0.46 1.1 0.55 0.98 0.18-0.18-0.52-2.1-0.76-2.1-0.096 0 2e-3 0.51 0.22 1.1m-115 3.9c0 0.19 0.51 0.93 1.1 1.6l1.1 1.3-1-1.5c-0.57-0.82-1.1-1.6-1.1-1.6-0.059-0.084-0.11 5e-3 -0.11 0.2m73 5.3c-0.26 0.41-0.3 0.74-0.1 0.74 0.2 0 0.54-0.33 0.76-0.74 0.22-0.41 0.26-0.74 0.1-0.74-0.16 0-0.5 0.33-0.76 0.74m-68 1.1c0.8 0.82 1.5 1.5 1.6 1.5s-0.47-0.67-1.3-1.5c-0.8-0.82-1.5-1.5-1.6-1.5s0.46 0.67 1.3 1.5m114 1.6c-0.072 0.91 0.011 1.5 0.18 1.3 0.47-0.47 0.73-3 0.31-3-0.2 0-0.42 0.74-0.5 1.6m-51 0.65c-1.3 0.85-2.2 1.6-2.1 1.7 0.14 0.14 3.3-2 4.4-3 0.83-0.72-0.14-0.19-2.3 1.2m49 2.5c-0.47 0.6-0.71 1.1-0.52 1.1 0.34 0 1.2-0.91 1.7-1.8 0.5-0.89-0.34-0.41-1.2 0.67m-2.3 2.2c-0.71 0.4-1 0.72-0.69 0.72s1-0.33 1.5-0.73c1.1-0.92 0.86-0.91-0.79 9e-3m-59 1.5c-1 0.39-1.4 0.63-0.85 0.52 1.3-0.25 2.9-0.85 2.9-1.1 0-0.11-0.041-0.18-0.092-0.16-0.051 0.015-0.93 0.35-1.9 0.74m37-0.12c3.3 0.062 8.7 0.062 12 0 3.3-0.061 0.6-0.11-6-0.11-6.6 0-9.3 0.05-6 0.11m-46 2.3c0 0.46 0.39 0.46 1.1 0 0.45-0.29 0.4-0.36-0.28-0.36-0.46-3e-3 -0.83 0.16-0.83 0.36m-18 0.33c0 0.22 0.62 0.43 1.4 0.46 5.4 0.19 11 0.16 12-0.055 0.85-0.15-1.4-0.28-5.2-0.31-3.7-0.029-7-0.15-7.3-0.28-0.32-0.12-0.59-0.041-0.59 0.18" fill="#1c1c1c"/>
<path d="m234 320c0 0.71 0.076 1 0.17 0.65 0.094-0.36 0.094-0.94 0-1.3-0.093-0.36-0.17-0.064-0.17 0.65m97 7.8c0 0.92 0.073 1.3 0.16 0.83 0.088-0.46 0.088-1.2 0-1.7s-0.16-0.083-0.16 0.83m-62 26c0.67 0.083 1.7 0.081 2.2-3e-3 0.56-0.085 0.012-0.15-1.2-0.15s-1.7 0.071-1 0.15" fill="#845c08"/>
<path d="m281 227c2.1 0.066 5.4 0.066 7.4 0 2-0.067 0.26-0.12-3.8-0.12-4.1 1e-3 -5.7 0.055-3.6 0.12m-1.1 18c0.46 0.089 1.1 0.086 1.5-7e-3s-0.023-0.16-0.84-0.16c-0.82 4e-3 -1.1 0.08-0.64 0.17m7.2-6e-3c0.36 0.093 0.94 0.093 1.3 0 0.36-0.093 0.065-0.17-0.65-0.17s-1 0.077-0.65 0.17m45 50c0 15 0.046 21 0.1 14s0.056-20 0-27-0.1-1.4-0.1 14m-25 6.7c0 1.1 0.069 1.6 0.15 1s0.085-1.5 0-2-0.15-0.1-0.15 1m-0.025 3.3c0 0.71 0.076 1 0.17 0.65 0.093-0.36 0.093-0.94 0-1.3-0.093-0.36-0.17-0.065-0.17 0.65" fill="#3c3c0c"/>
<path d="m73 77c-0.14 0.54-0.18 1.1-0.089 1.1 0.088 0.088 0.27-0.28 0.41-0.83 0.14-0.54 0.18-1.1 0.089-1.1-0.088-0.088-0.27 0.28-0.41 0.83m36 93c0.46 0.088 1.1 0.085 1.5-8e-3 0.36-0.093-0.022-0.16-0.84-0.16s-1.1 0.08-0.64 0.17m5.4 3e-3c0.56 0.086 1.4 0.083 1.9-5e-3s-5e-3 -0.16-1-0.15c-1 2e-3 -1.4 0.074-0.83 0.16m6.7 9e-3c1.2 0.073 3 0.073 4.1-2e-3 1.1-0.074 0.098-0.14-2.1-0.13s-3.1 0.062-1.9 0.14m-72 25c3.1 0.062 8.2 0.062 11 0 3.1-0.062 0.56-0.11-5.6-0.11s-8.8 0.051-5.6 0.11m120-2e-3c1.7 0.069 4.4 0.069 6.1 0 1.7-0.068 0.31-0.12-3.1-0.12-3.4 0-4.7 0.056-3.1 0.12m15 0c1.4 0.071 3.6 0.071 4.8-1e-3s0.13-0.13-2.5-0.13c-2.6 0-3.7 0.059-2.3 0.13m22 5.7c0 0.71 0.076 1 0.17 0.65 0.094-0.36 0.094-0.94 0-1.3-0.093-0.36-0.17-0.065-0.17 0.65m-32 5.8c0.56 0.085 1.4 0.083 1.9-5e-3 0.46-0.088-5e-3 -0.16-1-0.16-1 3e-3 -1.4 0.075-0.83 0.16m110 8.5c0.76 0.08 2 0.08 2.8 0s0.14-0.15-1.4-0.15-2.2 0.066-1.4 0.15m-35 23-1.1 1.2 1.2-1.1c1.1-1 1.4-1.3 1.1-1.3-0.063 0-0.6 0.54-1.2 1.2m35 17c0.56 0.085 1.5 0.085 2 0 0.56-0.084 0.1-0.15-1-0.15-1.1 0-1.6 0.07-1 0.15m59 25c0 1.3 0.067 1.9 0.15 1.2s0.082-1.7 0-2.4-0.15-0.12-0.15 1.2m-46 23c0 0.71 0.076 1 0.17 0.65 0.093-0.36 0.093-0.94 0-1.3-0.094-0.36-0.17-0.065-0.17 0.65m10 6.3c0 0.71 0.076 1 0.17 0.65 0.093-0.36 0.093-0.94 0-1.3-0.094-0.36-0.17-0.065-0.17 0.65m-48 7.8c0 1.7 0.064 2.4 0.14 1.6s0.078-2.3 0-3.1c-0.078-0.87-0.14-0.16-0.14 1.6m84-0.37c0 0.92 0.072 1.3 0.16 0.83 0.088-0.46 0.088-1.2 0-1.7-0.089-0.46-0.16-0.083-0.16 0.83m-109 2c4e-3 0.82 0.08 1.1 0.17 0.64 0.088-0.46 0.085-1.1-8e-3 -1.5s-0.16 0.023-0.16 0.84m45 7.9c0.56 0.085 1.5 0.085 2 0s0.1-0.15-1-0.15c-1.1 0-1.6 0.069-1 0.15m64 1.5c-0.089 0.15-0.027 0.61 0.14 1 0.26 0.65 0.3 0.61 0.32-0.28 0.026-1-0.15-1.3-0.46-0.74m-48 29-0.93 0.54 0.93-0.25c1-0.27 1.3-0.45 1.1-0.68-0.085-0.086-0.57 0.088-1.1 0.38" fill="#1c1c08"/>
</g>
</svg>
