<svg width="400" height="400" version="1.1" viewBox="0 0 400 400" xmlns="http://www.w3.org/2000/svg">
<g fill-rule="evenodd">
<path d="m211 95c-2.9 3.6-7.2 8.6-9.4 11-4.4 5-32 38-37 44-1.3 1.5-8.5 10-16 19-14 16-16 19-21 25-1.6 2-6.6 8.1-11 14-4.5 5.4-9.4 11-11 13s-4.4 5.5-6.5 8c-2 2.5-4.4 5.4-5.3 6.5l-1.6 1.9 5.4-0.019c8-0.028 12 1.3 18 5.2l2.4 1.9 1.6-1.9c0.9-1 2.5-3.1 3.6-4.5 1.1-1.4 6.6-8.1 12-15 5.6-6.7 12-14 13-16s4.2-5 5.4-6.5c1.2-1.4 3-3.5 3.9-4.7 1.7-2.1 2.8-3.5 16-19 11-13 12-15 28-33 7.6-9.1 14-17 15-18 0.81-1 2.5-3 3.7-4.5s3.9-4.7 5.9-7.2 5.3-6.5 7.3-8.9l3.6-4.4-1.2-0.64c-3.4-1.8-6.9-3.4-12-5.2-4.3-1.7-10-3.9-10-3.8-0.015 0.011-1.1 1.3-2.4 2.9m28 20c-3.6 4.3-7.5 9-8.7 10-1.2 1.4-3.6 4.3-5.2 6.3-4.3 5.3-6.1 7.5-16 19-5 6-10 12-12 14-1.5 1.8-3.4 4.1-4.3 5.1s-2.5 2.8-3.6 4.2c-3 3.7-7.1 8.6-19 22-5.7 6.8-11 14-12 15-1.2 1.4-3.5 4.2-5 6.1-1.6 1.9-4.2 5-5.7 6.9-1.5 1.9-6.3 7.6-11 13-4.3 5.1-9.3 11-11 13-1.8 2.3-3.4 4.2-3.5 4.2-0.14 0.056-3e-3 0.91 0.3 1.9l0.55 1.8 3.9 0.22c13 0.74 25 10 28 22l0.64 2.3 0.66-0.91c0.36-0.5 5-6.2 10-13s11-14 13-16c2-2.4 4.8-6 6.3-7.8 9.5-12 12-15 18-22 7.6-9.3 15-18 16-20 1.1-1.4 16-20 20-24 1.4-1.6 3.4-4.1 4.5-5.6s4.8-5.9 8.1-10c15-19 21-26 23-29l2.1-2.5-4-3.8c-8.7-8.4-25-22-29-23-0.37-0.14-2.6 2.3-7 7.6m44 30c-1.4 1.8-3.5 4.4-4.6 5.8-3.1 3.8-15 18-19 23-7.5 9.2-8.5 10-10 13-1.8 2.2-13 16-20 25-1.8 2.3-4.2 5.1-5.2 6.4-4 5-7.6 9.5-12 15-10 13-15 19-21 26-1.9 2.4-7.2 8.8-12 14-4.5 5.5-9.2 11-11 13-1.3 1.6-2.7 3.2-3.1 3.5-0.96 0.79-0.82 0.94 2.6 2.6 6.4 3.2 11 9.3 12 16 0.27 1.5 0.56 2.9 0.66 3 0.23 0.23 3-3.1 13-15 4.5-5.6 11-13 14-17 3.1-3.8 6.9-8.5 8.5-11 1.6-2 3.5-4.4 4.2-5.2s3.3-4.1 5.9-7.2c9.1-11 13-17 15-19 2-2.5 5.7-7 7.9-9.7 1.4-1.7 2.9-3.6 12-15 10-13 11-14 12-15 2-2.5 5.7-7.1 8.6-11 14-17 17-21 17-21 0-1.9-13-23-14-23-0.1 6e-3 -1.3 1.5-2.7 3.2" fill="#f8c017"/>
<path d="m269 25c-1.5 0.28-3 0.62-3.3 0.76-0.7 0.31-1.1 0.38-2.2 0.46-0.47 0.031-0.76 0.21-0.65 0.39s-0.1 0.26-0.48 0.16c-0.38-0.099-0.92 0.055-1.2 0.34-0.29 0.29-0.71 0.46-0.94 0.38-0.23-0.076-0.67 0.12-0.98 0.43s-2 1.3-3.8 2.1-3.6 1.9-4.1 2.4c-0.5 0.46-1.2 0.95-1.7 1.1-0.41 0.13-0.75 0.4-0.75 0.59s-0.42 0.51-0.93 0.71c-0.51 0.19-0.89 0.51-0.83 0.71 0.053 0.19-0.9 1.2-2.1 2.1-1.2 0.99-2.4 2.2-2.6 2.6s-0.64 0.92-0.98 1-0.84 0.47-1.1 0.81c-0.34 0.42-0.35 0.52-0.042 0.34 0.25-0.15-0.47 0.69-1.6 1.9-1.1 1.2-2.3 2.6-2.5 3.1-0.26 0.51-0.66 0.89-0.89 0.84-0.23-0.048-0.6 0.24-0.82 0.65-0.22 0.4-0.28 0.74-0.15 0.74 0.14 0-0.44 0.63-1.3 1.4-0.84 0.77-1.5 1.5-1.5 1.7s-0.42 0.64-0.93 1c-0.51 0.4-0.93 0.96-0.93 1.2s-0.59 0.96-1.3 1.5c-0.72 0.55-1.2 1.1-1.1 1.2 0.1 0.1-0.27 0.58-0.82 1.1-0.56 0.48-1 1-1 1.2s-0.46 0.7-1 1.1c-0.56 0.44-1 0.97-1 1.2 0 0.43-1.4 2-3.5 4.1-0.8 0.77-1.3 1.4-1.1 1.4 0.17 0-0.22 0.47-0.86 1.1-0.65 0.58-1.2 1.2-1.2 1.4s-0.87 1.3-1.9 2.4-1.9 2.1-1.9 2.3c0.042 0.13-0.5 0.69-1.2 1.2-0.71 0.54-1.2 1.1-1.1 1.3s-0.013 0.46-0.27 0.62c-0.26 0.16-0.92 0.9-1.5 1.6s-1.9 2.2-3 3.3c-1.1 1.1-1.7 1.8-1.4 1.7 0.3-0.17-0.57 0.95-1.9 2.5-1.4 1.5-2.5 2.9-2.5 3 0 0.099-0.5 0.75-1.1 1.4-2.9 3.3-5.6 6.6-5.6 6.9 0 0.19-0.43 0.63-0.96 0.98-0.53 0.35-0.88 0.7-0.79 0.8s-0.74 1.1-1.8 2.3c-1.1 1.2-2.3 2.6-2.6 3.1-0.3 0.56-0.7 1-0.9 1-0.2 0-0.36 0.24-0.36 0.52 0 0.29-0.67 1.1-1.5 1.7-0.82 0.65-1.4 1.3-1.3 1.4s-0.31 0.6-0.91 1.1c-0.6 0.5-1.1 1.1-1.1 1.3 0 0.44-0.093 0.55-3.3 3.9-1.2 1.3-2.2 2.6-2.2 2.8s-0.3 0.73-0.66 0.99-0.93 0.9-1.3 1.4-1.4 1.8-2.4 2.8c-0.99 1-2.7 3-3.8 4.4-1.1 1.4-3.9 4.8-6.2 7.5-2.3 2.7-4.2 5-4.2 5.1s-0.42 0.59-0.93 1c-0.51 0.4-0.84 0.88-0.72 1.1 0.12 0.19 0.057 0.34-0.13 0.34-0.44 0-4.9 5.4-4.9 5.9 0 0.22-0.41 0.66-0.91 0.99-0.99 0.65-5 5.5-5 6 0 0.18-1 1.4-2.3 2.7s-2.3 2.4-2.3 2.6-0.38 0.59-0.83 1.1c-0.46 0.46-0.83 0.97-0.83 1.1s-0.88 1.3-1.9 2.4c-1.1 1.2-2.2 2.5-2.6 2.9-0.34 0.46-2.1 2.5-3.8 4.6-1.7 2.1-3.2 3.9-3.2 3.9 0 0.084-0.54 0.72-1.2 1.4-2.2 2.4-5.3 6-4.7 5.7 0.3-0.17 0.11 0.09-0.44 0.57-1.3 1.1-4.8 5.4-4.8 5.8 0 0.18-0.79 1.1-1.8 2.1-0.97 0.98-1.7 1.9-1.7 2.1 0.053 0.18-0.14 0.41-0.44 0.52-0.29 0.11-1.6 1.6-3 3.3s-2.8 3.3-3.2 3.5-0.61 0.53-0.5 0.71c0.11 0.18-0.22 0.61-0.73 0.95-0.52 0.34-0.94 0.83-0.94 1.1 0 0.46-2.5 3.4-4.4 5.3-0.51 0.48-0.93 1-0.93 1.2 0 0.19-0.19 0.47-0.42 0.61-0.58 0.36-3.1 3.7-3.1 4.1 0 0.18-0.42 0.6-0.94 0.94-0.52 0.34-1.1 1-1.3 1.5-0.19 0.51-0.52 0.83-0.72 0.7-0.2-0.13-0.39-0.053-0.42 0.16-0.025 0.22-0.067 0.56-0.092 0.76-0.026 0.2-0.4 0.61-0.84 0.92-0.44 0.31-1.4 1.5-2.1 2.6-0.75 1.1-1.5 2-1.7 2s-0.35 0.24-0.35 0.54-0.33 0.77-0.74 1.1c-0.41 0.28-0.64 0.61-0.52 0.73s-0.15 0.41-0.59 0.64c-0.44 0.24-0.72 0.51-0.63 0.61 0.098 0.098-0.22 0.61-0.7 1.1s-0.79 1.1-0.68 1.3c0.11 0.18 0.024 0.32-0.19 0.32s-0.39 0.15-0.39 0.34-0.67 1.5-1.5 2.9c-0.81 1.4-1.5 2.8-1.5 3.1 0 0.32-0.19 0.64-0.42 0.72-0.23 0.076-0.44 0.66-0.46 1.3s-0.19 1.1-0.38 0.94c-0.18-0.11-0.24 0.15-0.13 0.59 0.11 0.44 0.039 0.8-0.17 0.8-0.22 0-0.28 0.4-0.14 0.96 0.14 0.57 0.098 0.87-0.11 0.74-0.44-0.27-0.95 2.6-0.58 3.2 0.18 0.29 0.12 0.34-0.18 0.16-0.31-0.19-0.43-0.058-0.37 0.41 0.048 0.38-9e-3 0.94-0.13 1.2-0.12 0.3-0.34 1.2-0.5 2s-0.34 1.7-0.4 2c-0.063 0.3-0.26 1.4-0.43 2.4-0.18 1-0.42 2.1-0.54 2.4-0.12 0.3-0.31 1.1-0.41 1.9-0.11 0.71-0.62 3.2-1.1 5.6s-0.97 4.5-1 4.7c-0.024 0.26-0.2 0.46-0.4 0.46-0.19 0-0.27 0.42-0.18 0.93 0.098 0.51 0.014 0.93-0.18 0.93s-0.28 0.33-0.17 0.74c0.11 0.41 0.023 0.74-0.18 0.74-0.21 0-0.3 0.5-0.22 1.1 0.09 0.61 6e-3 1.1-0.19 1.1s-0.27 0.42-0.17 0.93c0.098 0.51 0.023 0.93-0.16 0.93s-0.31 0.29-0.26 0.65c0.044 0.36-0.024 0.9-0.15 1.2-0.2 0.49-3 14-3.5 17-0.1 0.61-0.44 2.1-0.74 3.3-0.3 1.2-0.55 2.5-0.55 2.9 5e-3 0.36-0.17 0.65-0.38 0.65-0.22 0-0.31 0.41-0.21 0.93 0.098 0.51 0.014 0.93-0.18 0.93s-0.28 0.33-0.17 0.74c0.11 0.41 0.023 0.74-0.19 0.74-0.21 0-0.3 0.41-0.2 0.91 0.096 0.5 0.061 0.96-0.078 1-0.14 0.058-0.8 2.9-1.5 6.2-1.3 6.4-3.3 17-3.6 18-0.067 0.31-0.24 1.3-0.38 2.3-0.14 0.97-0.42 1.8-0.62 1.8-0.2 0-0.26 0.42-0.12 0.96 0.17 0.69 0.12 0.88-0.2 0.68-0.32-0.2-0.38 0.042-0.21 0.91 0.13 0.65 0.1 1.1-0.059 1-0.37-0.23-1.3 5.2-0.99 5.7 0.13 0.2 0.035 0.37-0.2 0.37-0.27 0-0.37 0.42-0.27 1.1 0.09 0.61 0.048 1.1-0.093 1.1-0.84 0-2.4 17-1.8 19 0.52 2.4 2.8 5.2 4.3 5.3 0.46 0.026 0.84 0.2 0.84 0.38 0 0.47 7.5-0.034 7.8-0.53 0.14-0.22 0.65-0.41 1.1-0.42 1.3-0.022 4-0.74 4-1.1 0-0.15 0.21-0.27 0.46-0.26 1.4 0.054 2.2-0.14 1.9-0.51-0.17-0.28 0.012-0.33 0.58-0.15 0.62 0.2 0.76 0.15 0.54-0.21-0.21-0.34-0.11-0.4 0.32-0.24 0.34 0.13 0.62 0.076 0.62-0.12 0-0.2 0.12-0.33 0.28-0.29 0.15 0.038 0.86-0.18 1.6-0.5s2.2-0.87 3.3-1.2c1.1-0.37 2.1-0.82 2.3-1 0.12-0.19 0.34-0.32 0.47-0.29 0.54 0.13 2.5-0.45 2.5-0.74 0-0.17 0.42-0.24 0.93-0.15 0.63 0.11 1-0.025 1.2-0.42 0.14-0.35 0.5-0.52 0.9-0.42 0.37 0.097 0.86-0.046 1.1-0.32 0.23-0.27 0.68-0.39 1-0.27 0.42 0.16 0.5 0.088 0.28-0.27-0.22-0.36-0.14-0.43 0.31-0.26 0.34 0.13 0.62 0.091 0.62-0.087 0-0.18 0.36-0.23 0.8-0.12 0.6 0.16 0.72 0.086 0.5-0.28-0.22-0.36-0.14-0.43 0.3-0.26 0.33 0.13 0.84-5e-3 1.1-0.3 0.52-0.52 1.8-1.1 5.6-2.4 1-0.35 2.3-0.87 2.8-1.2 0.51-0.29 1.1-0.49 1.3-0.45 0.23 0.045 0.61-0.16 0.86-0.46s0.71-0.44 1-0.31c0.39 0.15 0.5 0.079 0.32-0.2-0.17-0.28-0.066-0.35 0.31-0.21 0.32 0.12 0.58 0.052 0.58-0.15 0-0.21 0.36-0.28 0.8-0.17 0.6 0.16 0.72 0.086 0.5-0.28-0.22-0.36-0.14-0.43 0.31-0.26 0.34 0.13 0.62 0.08 0.62-0.11 0-0.19 0.23-0.26 0.51-0.15 0.28 0.11 0.61-0.082 0.74-0.42 0.14-0.36 0.47-0.53 0.79-0.4 0.3 0.12 0.55 0.063 0.55-0.12 0-0.18 0.62-0.52 1.4-0.76 0.76-0.23 1.8-0.58 2.2-0.77 3.7-1.5 3.9-1.6 6.3-2.4 1.1-0.36 1.9-0.82 1.9-1 0-0.2 0.098-0.26 0.22-0.14 0.31 0.31 2.4-0.46 2.4-0.89 0-0.2 0.17-0.25 0.37-0.13 0.2 0.13 0.37 0.058 0.37-0.15 0-0.21 0.28-0.28 0.62-0.14 0.44 0.17 0.53 0.1 0.32-0.24-0.22-0.35-0.083-0.41 0.54-0.21 0.57 0.18 0.75 0.13 0.58-0.15-0.15-0.25 0.04-0.41 0.49-0.41 0.41 0 0.84-0.16 0.95-0.34 0.12-0.19 0.83-0.55 1.6-0.8 0.76-0.25 2.1-0.79 3-1.2s1.8-0.77 2-0.8c0.2-0.031 0.7-0.19 1.1-0.35s1.2-0.46 1.8-0.67c0.56-0.21 1-0.52 1-0.69 0-0.17 0.23-0.23 0.51-0.12 0.28 0.11 0.74-0.023 1-0.29 0.28-0.27 0.72-0.5 0.97-0.52 1.5-0.12 1.6-0.18 1.4-0.58-0.18-0.29-0.066-0.36 0.35-0.2 0.35 0.14 0.62 0.056 0.62-0.18 0-0.23 0.11-0.31 0.25-0.17 0.14 0.14 0.51 0.026 0.83-0.25 0.32-0.27 1.4-0.8 2.4-1.2 1-0.37 2.6-1.1 3.4-1.5 0.88-0.46 1.9-0.74 2.2-0.62 0.4 0.15 0.51 0.084 0.33-0.2-0.17-0.27-0.071-0.35 0.27-0.22 0.3 0.11 0.76-0.03 1-0.32 0.27-0.29 0.81-0.44 1.2-0.34 0.52 0.14 0.64 0.054 0.42-0.29-0.2-0.32-0.12-0.42 0.22-0.31 0.28 0.094 0.73-0.044 0.99-0.31 0.26-0.26 0.75-0.37 1.1-0.24 0.44 0.17 0.52 0.097 0.3-0.26s-0.14-0.43 0.3-0.26c0.33 0.13 0.86-0.022 1.2-0.33 0.31-0.31 0.57-0.43 0.57-0.26 3e-3 0.17 0.13 0.13 0.28-0.085s1.1-0.69 2-1.1c0.97-0.36 2-0.87 2.2-1.1 0.25-0.25 0.67-0.39 0.92-0.31s0.46-0.027 0.46-0.25c0-0.22 0.12-0.37 0.28-0.34 0.6 0.13 2.5-0.59 3.7-1.4 0.7-0.48 1.5-0.75 1.8-0.62 0.43 0.16 0.51 0.091 0.29-0.27-0.22-0.36-0.14-0.43 0.31-0.26 0.34 0.13 0.62 0.065 0.62-0.14s0.17-0.28 0.37-0.15 0.37 0.043 0.37-0.18 0.17-0.31 0.37-0.18c0.2 0.13 0.37 0.057 0.37-0.15s0.24-0.29 0.53-0.18c0.29 0.11 0.86-0.13 1.3-0.53s1.1-0.86 1.6-1c0.75-0.24 7.6-6.8 7.2-6.8-0.1 0 0.4-0.52 1.1-1.1 0.72-0.63 1.2-1.3 1.1-1.5-0.1-0.17 0.31-0.66 0.92-1.1 0.61-0.43 1.1-0.99 1-1.2-0.048-0.24 0.12-0.4 0.38-0.35 0.25 0.051 0.46-0.24 0.46-0.65 0-0.44 0.25-0.74 0.62-0.74 0.34 0 0.51-0.11 0.37-0.24-0.14-0.14 0.09-0.48 0.5-0.77 0.41-0.29 0.66-0.67 0.55-0.84-0.11-0.18 0.18-0.58 0.64-0.91 0.46-0.32 0.84-0.73 0.84-0.9s0.54-0.76 1.2-1.3c0.66-0.56 1.2-1.2 1.2-1.5 0-0.29 0.41-0.88 0.91-1.3 0.5-0.44 0.84-0.91 0.75-1.1s0.67-1.1 1.7-2.2c1-1.1 1.8-2.1 1.8-2.3 0-0.19 0.16-0.35 0.36-0.35 0.2 0 0.55-0.35 0.78-0.79 0.34-0.64 0.32-0.73-0.08-0.48-0.37 0.22-0.36 0.13 0.041-0.36 0.3-0.37 0.92-0.81 1.4-0.99 0.47-0.18 1-0.74 1.2-1.3 0.2-0.51 0.52-0.93 0.73-0.93s0.38-0.24 0.38-0.54c0-0.3 0.34-0.73 0.76-0.95 0.42-0.22 0.71-0.58 0.64-0.79-0.069-0.21 0.76-1.3 1.8-2.4 1.1-1.1 1.7-1.9 1.4-1.8-0.96 0.37-0.63-0.062 0.82-1 0.76-0.52 1.2-0.94 1-0.95-0.2-4e-3 0.053-0.35 0.56-0.77 0.51-0.42 0.68-0.65 0.37-0.52-0.37 0.16-0.34 0.067 0.087-0.28 0.35-0.29 0.53-0.64 0.4-0.77s-0.073-0.24 0.13-0.24 0.57-0.43 0.8-0.95c0.24-0.52 0.6-0.84 0.81-0.71 0.21 0.13 0.33 0.096 0.28-0.072s0.19-0.72 0.55-1.2c0.36-0.5 0.65-0.81 0.65-0.68s0.4-0.12 0.9-0.56c0.58-0.52 0.78-0.94 0.56-1.2-0.22-0.27-0.033-0.57 0.55-0.88 0.49-0.26 0.98-0.81 1.1-1.2 0.1-0.4 0.37-0.62 0.59-0.49 0.22 0.14 0.4 3e-3 0.4-0.29s0.26-0.64 0.58-0.76c0.32-0.12 0.5-0.35 0.4-0.52-0.1-0.16 0.31-0.68 0.9-1.2 0.6-0.48 1.1-1 1.1-1.2s0.41-0.69 0.92-1.1c0.5-0.4 0.88-0.86 0.83-1-0.047-0.17 0.41-0.76 1-1.3 0.61-0.56 0.86-0.89 0.56-0.74-0.3 0.15 0.028-0.27 0.74-0.92 0.71-0.66 1-1.1 0.74-0.94-0.31 0.14 0.026-0.24 0.74-0.85 0.71-0.61 1.2-1.2 1-1.4s0.073-0.56 0.49-0.93c0.42-0.36 0.74-0.79 0.71-0.96-0.029-0.16 0.15-0.36 0.4-0.45 0.29-0.097 0.34 0.03 0.15 0.36-0.18 0.3-0.16 0.38 0.041 0.2 0.19-0.17 0.34-0.42 0.34-0.56 2e-3 -0.14 0.29-0.66 0.65-1.2 0.36-0.5 0.65-0.79 0.65-0.64s0.5-0.29 1.1-0.98 1.1-1.4 1.1-1.5c0-0.48 3.7-4.9 4.3-5.1 0.32-0.12 0.48-0.38 0.36-0.58-0.12-0.2 0.1-0.52 0.49-0.73 0.69-0.37 2.5-2.9 2.4-3.4-0.03-0.13 0.44-0.61 1-1.1s1.1-1.1 1.1-1.3 0.19-0.6 0.43-0.74c0.29-0.18 0.33-0.096 0.12 0.26-0.17 0.29 0.062 0.2 0.51-0.2 0.45-0.39 0.74-0.93 0.64-1.2s0.35-0.91 1-1.4c0.65-0.54 0.94-0.86 0.63-0.72-0.31 0.14 0.028-0.27 0.74-0.92 0.71-0.65 1-1.1 0.74-0.92-0.3 0.14 0.11-0.36 0.93-1.1 0.82-0.75 1.3-1.3 1-1.1-0.94 0.47-0.43-0.39 0.66-1.1 1.2-0.78 3.8-3.8 2.9-3.4-0.29 0.15 9e-3 -0.21 0.67-0.8s1.2-1.2 1.2-1.4c0-0.19 0.33-0.56 0.74-0.81 0.41-0.25 0.74-0.67 0.74-0.92-2e-3 -0.25 0.54-0.93 1.2-1.5 1-0.88 1.1-0.98 0.28-0.62l-0.93 0.42 0.93-0.76c0.51-0.42 1.1-0.76 1.2-0.77 0.15-4e-3 0.28-0.2 0.28-0.44 0-0.24 0.62-1 1.4-1.7 0.76-0.7 1.2-1.2 0.93-1-0.88 0.48-0.46-0.3 0.74-1.4 0.66-0.59 0.95-0.95 0.65-0.8-0.37 0.18-0.32 9e-3 0.15-0.53 0.39-0.44 0.92-0.8 1.2-0.8s0.6-0.2 0.74-0.43c0.18-0.3 0.049-0.36-0.44-0.18-0.79 0.28-0.22-0.29 1.7-1.7 0.5-0.37 0.66-0.55 0.35-0.4-0.31 0.14-0.18-0.15 0.28-0.66 0.46-0.5 0.84-1.2 0.84-1.4 5e-3 -0.45 0.064-0.44 0.36 0.023 0.3 0.47 0.36 0.47 0.36 0.021 3e-3 -0.3 0.46-1 1-1.6 0.56-0.6 0.81-0.98 0.56-0.83-1 0.6-0.36-0.19 0.92-1.1 0.76-0.52 1.2-0.94 1.1-0.94s0.12-0.34 0.66-0.77c0.54-0.42 0.98-1 0.98-1.3s0.17-0.53 0.37-0.53 0.37-0.23 0.37-0.52c0-0.28 0.25-0.61 0.56-0.73 0.31-0.12 0.52-0.34 0.46-0.5-0.1-0.3 0.71-1.3 2.4-2.9 0.56-0.54 1-1.2 1-1.5 0-0.26 0.58-0.92 1.3-1.5 0.71-0.54 1.2-1.1 1.1-1.3s0.24-0.56 0.76-0.9 0.84-0.76 0.73-0.94 0.21-0.65 0.72-1c0.5-0.4 0.83-0.81 0.72-0.92s0.3-0.58 0.92-1c0.62-0.46 1-0.96 0.95-1.1s0.33-0.64 0.94-1.1c0.61-0.44 1.1-1 1.1-1.3s0.33-0.7 0.74-0.91 0.74-0.6 0.74-0.85c0-0.25 0.33-0.66 0.74-0.92 0.41-0.25 0.74-0.68 0.74-0.95s0.41-0.88 0.92-1.3c0.5-0.47 0.83-1 0.72-1.2-0.11-0.17-0.061-0.32 0.1-0.32 0.16-4e-3 0.72-0.35 1.2-0.77 0.51-0.42 0.68-0.64 0.37-0.49-0.3 0.15 0.11-0.36 0.93-1.1 0.82-0.77 1.2-1.3 0.95-1.1-0.29 0.16 0.33-0.74 1.4-2 1.1-1.3 1.9-2.4 1.9-2.6 0-0.16 0.43-0.49 0.95-0.72 0.52-0.24 0.86-0.57 0.75-0.75-0.11-0.18 0.3-0.76 0.9-1.3 0.6-0.54 1.1-1.2 1.1-1.4s0.33-0.67 0.74-0.93c0.41-0.25 0.74-0.62 0.74-0.81 0-0.19 0.78-1.1 1.7-2.1 0.96-0.94 1.8-2 1.8-2.3s0.5-0.97 1-1.4c0.51-0.44 0.84-0.88 0.73-0.99-0.11-0.11 0.24-0.48 0.76-0.82s0.96-0.84 0.96-1.1c0-0.25 0.41-0.77 0.9-1.1 0.5-0.37 0.82-0.8 0.73-0.96-0.095-0.15 0.32-0.65 0.93-1.1 0.61-0.45 1-0.94 0.94-1.1-0.091-0.15 0.42-0.71 1.1-1.3 0.71-0.54 1.3-1.2 1.3-1.5 0-0.27 0.25-0.59 0.56-0.71 0.31-0.12 0.56-0.46 0.56-0.77s0.33-0.73 0.74-0.95c0.41-0.22 0.74-0.61 0.74-0.87 0-0.26 0.62-1.1 1.4-1.9 0.75-0.8 1.4-1.6 1.4-1.7 0.01-0.12 0.52-0.67 1.1-1.2 0.61-0.56 0.86-0.91 0.56-0.77-0.31 0.14-0.14-0.15 0.37-0.64 0.51-0.49 0.97-1.1 1-1.3s0.38-0.74 0.74-1.1c0.36-0.37 0.89-1 1.2-1.5s0.69-0.68 0.89-0.56c0.2 0.12 0.24 0.037 0.11-0.19-0.14-0.23 0.16-0.68 0.68-1 0.51-0.34 0.85-0.75 0.74-0.92s0.16-0.5 0.59-0.73c0.43-0.23 0.69-0.64 0.59-0.92-0.11-0.28 0.23-0.78 0.74-1.1 0.52-0.34 0.84-0.71 0.72-0.83-0.12-0.12 0.12-0.45 0.52-0.73 0.41-0.28 0.74-0.74 0.74-1 0-0.28 0.6-1.1 1.3-1.7 1.5-1.4 2.4-2.8 1.6-2.4-0.28 0.14-0.11-0.088 0.37-0.51s0.74-0.77 0.58-0.77c-0.16 0 0.026-0.24 0.42-0.53 0.4-0.29 0.72-0.66 0.73-0.83 9e-3 -0.29 1.2-2.3 1.6-2.7 0.11-0.1 0.59-0.98 1.1-1.9 0.49-0.97 1-1.8 1.2-1.8 0.19 0 0.24-0.17 0.11-0.37-0.13-0.2-0.043-0.37 0.18-0.37 0.23 0 0.31-0.17 0.18-0.37s-0.043-0.37 0.18-0.37 0.31-0.17 0.18-0.37c-0.13-0.2-0.042-0.37 0.18-0.37 0.23 0 0.32-0.15 0.21-0.34-0.32-0.52 0.19-1.5 0.64-1.3 0.25 0.15 0.31 0.014 0.16-0.37-0.13-0.34-0.058-0.62 0.16-0.62 0.22 0 0.3-0.25 0.18-0.56-0.12-0.31-0.034-0.56 0.18-0.56s0.3-0.26 0.18-0.57c-0.14-0.36-0.069-0.48 0.18-0.32 0.27 0.17 0.32-0.011 0.16-0.54-0.16-0.49-0.089-0.79 0.18-0.79 0.23 0 0.36-0.21 0.27-0.46-0.085-0.25 0.077-0.69 0.36-0.97 0.33-0.33 0.43-0.89 0.28-1.6-0.16-0.71-0.086-1.1 0.21-1.1 0.29 0 0.36-0.33 0.2-0.96-0.17-0.68-0.12-0.88 0.2-0.69 0.31 0.19 0.39-0.067 0.26-0.9-0.094-0.64-0.01-1.2 0.19-1.2 0.21 0 0.27-0.86 0.14-2.1-0.13-1.3-0.095-1.8 0.095-1.4 0.19 0.45 0.31-1.2 0.31-4.3 0-2.9-0.13-4.7-0.3-4.3-0.17 0.42-0.21-0.21-0.088-1.4 0.15-1.6 0.092-2.1-0.22-1.9-0.3 0.18-0.35-0.084-0.18-0.93 0.17-0.84 0.11-1.1-0.18-0.93-0.3 0.18-0.35-0.084-0.19-0.93 0.18-0.9 0.13-1.1-0.23-0.9-0.34 0.21-0.4 0.082-0.22-0.5 0.14-0.43 0.095-0.79-0.094-0.79s-0.26-0.44-0.16-0.98c0.12-0.63 0.049-0.9-0.2-0.74-0.25 0.15-0.31-0.052-0.18-0.56 0.14-0.54 0.073-0.72-0.22-0.54-0.28 0.17-0.35 0.06-0.2-0.31 0.12-0.32 0.027-0.58-0.21-0.58-0.24 0-0.32-0.18-0.19-0.39 0.13-0.22-0.049-0.72-0.41-1.1-0.36-0.39-0.54-0.72-0.39-0.72s0.048-0.38-0.21-0.83c-0.26-0.46-0.42-0.96-0.38-1.1 0.13-0.45-1-2.5-1.4-2.5-0.18 0-0.55-0.58-0.81-1.3s-0.6-1.3-0.76-1.3c-0.16 0-0.3-0.25-0.3-0.56 0-0.3-0.17-0.56-0.37-0.56s-0.37-0.26-0.37-0.57-0.25-0.66-0.55-0.78c-0.3-0.12-0.46-0.36-0.35-0.55 0.11-0.18-0.053-0.43-0.37-0.56s-0.49-0.36-0.38-0.53c0.11-0.17-0.14-0.49-0.55-0.71s-0.73-0.52-0.71-0.67c0.12-0.77-0.11-1.2-0.64-1.2-0.32 0-0.68-0.32-0.78-0.72s-0.59-0.98-1.1-1.3-0.89-0.79-0.89-1c-2e-3 -0.25-1-1.4-2.2-2.6-1.2-1.2-2.1-2.3-2-2.5 0.098-0.16-0.071-0.49-0.37-0.74-0.3-0.25-0.55-0.34-0.55-0.2 0 0.14-1.5-1.3-3.4-3.2-1.9-1.9-3.3-3.2-3.1-2.9 0.15 0.31-0.027 0.22-0.4-0.18-1.1-1.2-4.5-3.9-4.9-3.9-0.2 0-1.1-0.69-1.9-1.5s-1.5-1.4-1.5-1.2c-6e-3 0.18-0.18 0.026-0.39-0.33-0.21-0.36-0.53-0.56-0.71-0.45s-0.51-0.14-0.74-0.56-0.55-0.67-0.72-0.57-0.41-0.066-0.54-0.38c-0.12-0.32-0.39-0.47-0.6-0.34-0.21 0.13-0.48-0.028-0.6-0.34-0.12-0.32-0.36-0.49-0.53-0.39s-0.48-0.1-0.69-0.46-0.39-0.52-0.39-0.35c-0.014 0.38-2.3-1.2-2.7-1.9-0.16-0.27-0.46-0.39-0.65-0.28s-0.35 0.011-0.35-0.24-0.097-0.36-0.22-0.24c-0.12 0.12-0.54-0.11-0.94-0.51s-0.87-0.63-1.1-0.52c-0.18 0.11-0.44 0.035-0.56-0.17s-0.56-0.38-0.95-0.38-0.72-0.18-0.72-0.39c0-0.33-3-2-3.7-2-0.48-0.034-4.2-1.9-4.5-2.2-0.13-0.18-0.45-0.2-0.71-0.039-0.33 0.2-0.38 0.14-0.17-0.2 0.22-0.36 0.14-0.42-0.31-0.25-0.34 0.13-0.62 0.058-0.62-0.16 0-0.22-0.26-0.3-0.58-0.18-0.32 0.12-0.48 0.069-0.37-0.12 0.25-0.4-1.8-0.92-2.4-0.59-0.21 0.13-0.38 0.04-0.38-0.2 0-0.24-0.25-0.34-0.56-0.22-0.31 0.12-0.56 0.071-0.56-0.1s-0.54-0.42-1.2-0.54c-0.66-0.13-1.6-0.32-2.1-0.43-4.6-1-15-1.2-20-0.32m16 11c15 2.9 39 19 50 33 1.2 1.6 2.5 3.3 2.8 3.6 1.4 1.5 4.8 9.1 5.9 13 3.6 14 0.14 24-14 43-2.5 3.3-1.9 3.5-5.5-2.2-1.7-2.7-4-6.1-5.2-7.5-1.1-1.4-2.6-3.3-3.3-4.3-10-13-29-30-46-40-8.4-5.1-27-14-30-14-1.8 0 11-15 17-19 7.3-5.6 18-7.8 28-5.9m-49 35c7.4 1.9 20 7.7 27 12 1.3 0.85 3.3 2.1 4.4 2.8 18 11 40 34 50 51 2.6 4.5 3.3 2.9-8.3 17l-1.6 2-1.1-2.2c-9.4-19-34-43-57-57-7.6-4.5-17-9.1-25-12-1.8-0.66-3.5-1.3-3.7-1.5-0.35-0.32 10-13 11-13 0.2 1e-3 2.2 0.49 4.5 1.1m-16 23c5.8 2 16 6.7 16 7.4 0 0.23-1.5 2.3-3.4 4.5-6.1 7.3-11 14-13 16-0.9 1.2-2.6 3.2-3.7 4.5-1.1 1.3-2.7 3.2-3.5 4.3-0.81 1-3.7 4.5-6.5 7.8s-7.7 9.1-11 13c-3.2 3.9-6.7 8-7.8 9.3-1.1 1.2-3.3 3.9-5 5.9-1.6 2-3.6 4.4-4.4 5.4-0.77 0.92-5.1 6.1-9.5 11-8.1 9.7-12 14-16 19-1.2 1.5-2.8 3.4-3.5 4.2-0.68 0.85-2.7 3.3-4.5 5.4-1.8 2.1-7.1 8.5-12 14-4.6 5.6-9.6 12-11 13-1.4 1.7-3.1 3.9-3.7 4.7-1.4 1.9-1.3 1.9-3.6-0.12-4.6-4.2-12-6.1-20-5.3-1.9 0.16-3.5 0.25-3.6 0.2-0.061-0.054 1.6-2.2 3.7-4.8 2.1-2.6 5-6.1 6.4-7.9 1.4-1.8 3.1-3.8 3.7-4.5 0.64-0.71 1.8-2 2.5-3 0.71-0.92 2.8-3.5 4.6-5.7 1.8-2.2 5.3-6.5 7.8-9.4 2.4-3 5.6-6.8 7-8.5 1.4-1.7 3.3-4 4-5 0.77-1 1.9-2.4 2.6-3.1s1.8-2.1 2.7-3.1c0.81-1 6.5-7.9 13-15 6.2-7.4 13-15 14-17s4.2-5 5.4-6.4c1.2-1.4 3-3.6 4.1-4.9 1-1.3 7.4-8.9 14-17 6.8-8 13-15 14-16 0.83-1 2.7-3.2 4.1-4.8 1.4-1.6 3.3-3.8 4.1-4.9 4.6-5.8 3.7-5.6 12-2.7m28 14c3.5 2.4 12 9.1 14 11 0.81 0.75 2.6 2.3 4.1 3.5 1.4 1.2 4.7 4.1 7.2 6.5l4.6 4.4-1.4 2c-0.8 1.1-2.3 3-3.3 4.2-1 1.2-3.2 3.8-4.7 5.7s-6.3 7.9-11 13c-13 16-15 18-17 20-0.91 1.2-4.7 5.8-8.4 10-10 12-18 22-21 26-0.94 1.2-2.7 3.4-4 4.9-1.2 1.5-6.2 7.5-11 13-4.8 5.9-9.4 12-10 13-0.86 1-2.5 3.1-3.7 4.6-1.2 1.5-3.1 3.9-4.3 5.4-1.2 1.4-6.2 7.5-11 13-4.8 5.9-9.5 12-10 13l-1.7 2.1-1.2-3c-5.1-13-15-21-28-22l-3.7-0.25-0.49-1.7c-0.61-2.1-0.43-2.5 2.6-5.9 1.3-1.5 2.9-3.4 3.5-4.2 1.3-1.7 22-27 26-32 1.4-1.6 2.7-3.3 3-3.7 0.3-0.45 1.5-1.9 2.6-3.2 1.1-1.3 3.2-3.8 4.7-5.6s6.3-7.7 11-13c4.6-5.4 9.6-11 11-13 1.5-1.9 3.6-4.3 4.5-5.4 1.9-2.2 22-26 28-34 2.1-2.5 4.7-5.8 6-7.2 1.2-1.4 2.9-3.5 3.7-4.5 0.79-1 2.5-3.1 3.7-4.5 1.2-1.4 4.5-5.3 7.2-8.6 3.2-3.8 5.1-5.9 5.5-5.8 0.28 0.11 1.5 0.89 2.8 1.7m43 41c3.3 4.9 6.2 10 7.7 14l0.81 1.9-5.1 6.2c-2.8 3.4-6.8 8.3-8.9 11-2.1 2.5-4.5 5.5-5.4 6.7-0.93 1.1-2.5 3-3.4 4.3-0.97 1.2-5.2 6.4-9.3 11-4.2 5.1-8.9 11-11 13s-4.3 5.2-5.8 7-3.9 4.8-5.3 6.5c-2.6 3.2-5.7 7-13 16-12 15-14 17-22 27-1.4 1.8-4.4 5.5-6.7 8.2-5.9 7.2-13 16-16 19-9.8 12-9.1 12-9.4 9.5-0.94-6.1-1.8-8.4-4.3-12-2.1-2.8-7-6.6-9.6-7.6-2.3-0.83-2.4-0.68 1-4.7 1.6-1.9 6.6-8 11-14s9.3-11 11-13 2.8-3.4 3.5-4.3c0.68-0.86 2.5-3.1 4.1-5.1 1.6-1.9 6.7-8.3 11-14 4.7-5.8 9.8-12 11-14 1.5-1.8 3.7-4.6 4.9-6.1 4-5 24-29 29-36 1.3-1.6 3.1-3.8 3.9-4.9 1.7-2.3 23-28 26-32l2.3-2.7 1.3 1.6c0.72 0.86 2.8 3.8 4.6 6.5m-190 100c6.6 1.7 10 6 11 14 0.88 6 1.9 6.7 8.3 6.3 13-0.8 23 6.3 25 19 0.32 1.6 0.59 3.5 0.59 4.4 0 3.9 1.2 4.8 7.6 5.7 11 1.7 17 8.9 15 20l-0.26 1.7-3.2 1.5c-1.8 0.84-5.6 2.5-8.6 3.7s-6.6 2.8-8.1 3.5c-1.5 0.71-5.4 2.4-8.6 3.7-3.2 1.3-7.2 3-8.9 3.8-1.7 0.8-5.7 2.5-8.9 3.8-3.2 1.3-7 3-8.6 3.7-3.3 1.6-3.4 1.5-3.8-0.78-2.1-14-16-27-33-31-2.8-0.72-5.2-1.4-5.3-1.4-0.15-0.15 2.4-13 3-15 0.29-1 1.9-8.4 3.5-16 1.7-7.9 3.4-16 3.9-18 0.48-1.8 1.2-5.2 1.7-7.4 0.44-2.2 0.93-4.2 1.1-4.4 0.96-1 12-1.1 15-0.087m-25 72c9.1 2.6 18 9 22 16 1.1 2 4.2 11 3.9 11-0.14 0.11-6.9 2.7-15 5.8-3.8 1.4-9.9 3.7-14 5.1-7.3 2.7-11 3.9-11 3.7-0.6-0.7 4.7-29 7.6-42 0.4-1.7 0.47-1.7 6.2-5e-3" fill="#050404"/>
<path d="m271 36c-9.8 1.9-16 6.7-28 21-2.8 3.3-3.3 4.3-2.3 4.3 2.2 0 18 7.2 26 12 22 13 51 40 60 57 0.88 1.7 0.78 1.8 5.4-4.5 18-25 17-43-5.8-65-19-18-40-27-55-24" fill="#f74a68"/>
<path d="m89 250c-1.4 0.11-1.8 0.28-1.9 0.97-0.12 0.46-1.4 6.4-2.8 13s-3 14-3.5 16-1.9 8.6-3.1 14c-1.2 5.8-2.4 12-2.7 13-0.59 2.8-0.54 3.2 0.48 3.2 1.3 0 9.4 2.6 13 4.2 12 5.1 22 17 24 28 0.26 1.3 0.5 2.4 0.52 2.5 0.028 0.051 3-1.2 6.5-2.7s9-3.9 12-5.1c3.1-1.3 7.2-3.1 9.3-4s6.3-2.8 9.4-4.1c12-5.1 20-8.7 20-9.1 1.1-1.1 0.55-8.9-0.75-12-2.9-6.1-7.5-9-16-9.7-4.2-0.4-5.9-1.6-5.9-4.2 0-6.2-3.6-15-7.8-19-4.8-4.5-7.9-5.5-17-5.6-8.6-0.14-8.5-0.1-9.8-7.5-1.9-11-8.7-14-24-13" fill="#fbda82"/>
<path d="m227 77c-2.9 3.5-5.1 6.4-4.9 6.6 0.18 0.16 2.7 1.2 5.7 2.3 30 11 65 41 79 66l2.2 4.1 2.3-2.8c1.2-1.5 3.5-4.4 5-6.4 1.5-2 3.1-4 3.6-4.5l0.83-0.9-1.5-2.8c-16-30-55-60-86-68-0.91-0.22-1.4 0.24-6.3 6.1m87 55c1.1 1.6 2.7 4.4 3.7 6.2l1.7 3.3-2.7 3.3c-1.5 1.8-2.9 3.4-3 3.4-0.18 0.068-0.32 0.28-0.32 0.48 0 0.32-4.3 5.8-4.9 6.2-0.14 0.1-1-1.3-2-3.1-0.95-1.8-2.6-4.6-3.7-6.2l-2-2.8 2.9-3.5c1.6-1.9 4-5 5.5-6.9 3.1-4 2.6-4 4.9-0.44m-242 190c0.31 0.21 0.88 0.38 1.3 0.38 0.95 8e-3 0.65-0.2-0.71-0.51-0.81-0.18-0.96-0.15-0.56 0.13m14 5.1c1 0.6 2.4 1.4 3 1.8 1.6 1.1 2.3 1.4 1.3 0.54-1.2-0.99-4.4-2.9-5.4-3.2-0.41-0.13 0.12 0.25 1.2 0.85m-16 4.7c-0.14 0.74-0.18 1.4-0.089 1.5 0.091 0.09 0.28-0.44 0.42-1.2 0.14-0.74 0.18-1.4 0.089-1.5-0.091-0.09-0.28 0.44-0.42 1.2m24 0.9c1.2 1.2 2.3 2.2 2.4 2.2s-0.8-1-2-2.2c-1.2-1.2-2.3-2.2-2.4-2.2s0.8 1 2 2.2m6.1 8.3c0 0.2 0.24 0.79 0.53 1.3 0.29 0.51 0.53 0.76 0.53 0.56 0-0.2-0.24-0.79-0.53-1.3-0.29-0.51-0.53-0.76-0.53-0.56m-35 20c0 0.71 0.077 1 0.17 0.65 0.093-0.36 0.093-0.94 0-1.3-0.093-0.36-0.17-0.065-0.17 0.65m-0.4 2.5c-0.045 1 0.04 1.1 0.78 0.94 0.65-0.18 0.69-0.26 0.21-0.36-0.34-0.072-0.7-0.5-0.78-0.94-0.11-0.58-0.17-0.47-0.21 0.36" fill="#1d86ae"/>
<path d="m244 74c0.3 0.19 0.97 0.46 1.5 0.59 0.64 0.17 0.76 0.14 0.37-0.096-0.31-0.19-0.97-0.45-1.5-0.59-0.64-0.17-0.76-0.14-0.37 0.096m3.3 1.4c0.51 0.29 1.1 0.53 1.3 0.53 0.2 0-0.046-0.24-0.56-0.53s-1.1-0.53-1.3-0.53c-0.2 0 0.047 0.24 0.56 0.53m11 5.2c0 0.1 0.5 0.44 1.1 0.76s1.1 0.49 1.1 0.39-0.5-0.44-1.1-0.76-1.1-0.49-1.1-0.39m-24 8.2c0.51 0.29 1.1 0.53 1.3 0.53 0.2 0-0.047-0.24-0.56-0.53s-1.1-0.53-1.3-0.53 0.046 0.24 0.56 0.53m56 15c0.69 0.71 1.3 1.3 1.4 1.3s-0.38-0.58-1.1-1.3-1.3-1.3-1.4-1.3 0.38 0.58 1.1 1.3m-16 11c0 0.064 0.54 0.6 1.2 1.2l1.2 1.1-1.1-1.2c-1-1.1-1.3-1.4-1.3-1.1m5.7 5.4c1.4 1.4 2.7 2.6 2.8 2.6 0.1 0-0.97-1.2-2.4-2.6s-2.7-2.6-2.8-2.6 0.97 1.2 2.4 2.6m6.1 6.1c1.7 1.7 3.2 3.1 3.3 3.1 0.1 0-1.2-1.4-2.9-3.1-1.7-1.7-3.2-3.1-3.3-3.1s1.2 1.4 2.9 3.1m25 2.3c-0.36 0.37-1.6 2-2.9 3.6-4.5 5.9-8.1 10-8.5 9.9-0.23-0.068-0.28 0.016-0.11 0.19 0.17 0.17 0.49 0.31 0.71 0.31 0.22 0 0.48 0.23 0.57 0.52 0.11 0.34 0.013 0.42-0.3 0.22-0.31-0.19-0.38-0.15-0.21 0.14 0.15 0.24 0.41 0.34 0.59 0.23 0.62-0.38 4.7 6.2 4.2 6.9-0.12 0.2-7e-3 0.32 0.26 0.27 0.3-0.061 0.48 0.22 0.46 0.71-0.015 0.45 0.11 0.73 0.28 0.62 0.34-0.21 1.4 2 1.2 2.6-0.047 0.21-0.015 0.26 0.071 0.11s0.29-0.2 0.45-0.1c0.16 0.099 0.6-0.19 0.99-0.64 0.58-0.68 0.59-0.73 0.049-0.32-0.36 0.28-0.65 0.34-0.65 0.13 0-0.47 0.93-1.3 1.2-1 0.11 0.1 0.84-0.6 1.6-1.6 0.79-0.97 1.1-1.5 0.79-1.3-0.89 0.71-0.8-0.06 0.1-0.88 0.41-0.37 0.74-0.9 0.74-1.2 0-0.44 0.45-0.65 1.2-0.55 0.3 0.041 4-4.6 4-5 0-0.15-0.86 0.84-1.9 2.2-1 1.4-2 2.4-2.1 2.3-0.27-0.27 4-5.4 4.3-5.2 0.16 0.098 0.51-0.11 0.78-0.47 0.27-0.35 0.36-0.54 0.2-0.4-0.37 0.3-4-6.7-3.7-7.1 0.12-0.19 0.011-0.3-0.23-0.24-0.24 0.056-0.53-0.13-0.63-0.41-0.12-0.34-0.03-0.42 0.29-0.22 0.31 0.19 0.38 0.15 0.21-0.14-0.15-0.24-0.41-0.34-0.59-0.23-0.18 0.11-0.5-0.12-0.72-0.52-0.51-0.94-0.49-1.3 0.039-0.92 0.27 0.16 0.33 0.1 0.16-0.17-0.15-0.24-0.41-0.35-0.58-0.24-0.17 0.11-0.66-0.29-1.1-0.88-0.86-1.2-0.99-1.7-0.34-1.3 0.26 0.16 0.33 0.1 0.16-0.16-0.35-0.57-0.48-0.54-1.2 0.24m-21 1.7c0 0.063 0.54 0.6 1.2 1.2l1.2 1.1-1.1-1.2c-1-1.1-1.3-1.4-1.3-1.1m28 6.9c0.52 1 1 1.9 1.1 1.9 0.1 0-0.24-0.83-0.75-1.9-0.52-1-1-1.9-1.1-1.9s0.24 0.83 0.75 1.9m-15 9c0.75 1.2 1.4 2.1 1.5 2.1 0.25 0-1.1-2.1-2-3.2-0.47-0.56-0.25-0.054 0.51 1.1m8.3 5.5c-0.44 0.62-0.9 1-1 0.92-0.19-0.19 1.3-2.1 1.7-2.1 0.081 0-0.22 0.51-0.66 1.1m-239 169c-0.48 0.28-0.58 0.66-0.4 1.5 0.16 0.82 0.11 1.1-0.19 0.9-0.3-0.18-0.35 0.084-0.18 0.93 0.17 0.84 0.11 1.1-0.18 0.93-0.3-0.18-0.35 0.084-0.19 0.93 0.17 0.84 0.12 1.1-0.18 0.93-0.3-0.18-0.36 0.098-0.21 0.96 0.16 0.96 0.12 1.1-0.2 0.67-0.32-0.43-0.36-0.22-0.19 0.93 0.17 1.1 0.13 1.3-0.17 0.93-0.3-0.42-0.34-0.24-0.16 0.71 0.19 0.96 0.13 1.2-0.22 0.97-0.36-0.22-0.41-7e-3 -0.2 0.92 0.2 0.9 0.15 1.1-0.18 0.93-0.34-0.21-0.39 0.04-0.2 0.97 0.19 0.98 0.16 1.1-0.17 0.69-0.33-0.43-0.37-0.22-0.19 0.93 0.14 0.92 0.1 1.3-0.1 0.99-0.38-0.57-0.29-0.95-2.1 8.8-0.69 3.8-1.2 7.3-1 7.9 0.15 0.76 0.087 1-0.22 0.81-0.32-0.2-0.37 0.15-0.18 1.3 0.18 1.1 0.13 1.5-0.17 1.3-0.31-0.19-0.36 0.22-0.18 1.5 0.19 1.4 0.14 1.7-0.25 1.4-0.36-0.22-0.43-0.13-0.24 0.34 0.14 0.36 0.25 0.87 0.25 1.1 0 1.3 0.65 1.2 18-5.5 17-6.5 18-7 19-7.4 0.13-0.21 0.39-0.29 0.58-0.18 0.18 0.11 0.56 0.069 0.84-0.1 0.58-0.36-0.75-6.6-1.5-7.1-0.23-0.14-0.29-0.47-0.13-0.73 0.18-0.29 0.14-0.38-0.099-0.23-0.44 0.27-0.95-0.75-0.63-1.3 0.11-0.18 0.022-0.34-0.21-0.34s-0.31-0.17-0.18-0.37c0.13-0.2 0.042-0.37-0.18-0.37-0.23 0-0.31-0.17-0.19-0.37 0.13-0.2 0.025-0.37-0.22-0.37-0.25 0-0.34-0.11-0.21-0.24 0.13-0.13-0.048-0.48-0.4-0.77-0.35-0.29-0.4-0.4-0.11-0.25 0.31 0.16 0.19-0.21-0.3-0.9-0.46-0.65-0.93-1.2-1-1.2s0.023 0.29 0.3 0.65c0.46 0.58 0.44 0.6-0.12 0.16-0.34-0.27-0.55-0.69-0.46-0.93 0.093-0.24-0.96-1.5-2.3-2.8l-2.5-2.4 2 2.2c1.4 1.5 1.2 1.4-0.72-0.56-1.5-1.5-2.6-2.6-2.5-2.3 0.24 0.4 0.15 0.42-0.48 0.079-0.43-0.23-0.78-0.51-0.78-0.61s0.19-0.075 0.43 0.07c0.26 0.16 0.33 0.1 0.17-0.15-0.14-0.23-0.48-0.32-0.76-0.22s-0.63-0.01-0.79-0.26c-0.19-0.31-0.13-0.36 0.2-0.15 0.31 0.19 0.4 0.16 0.23-0.11-0.14-0.23-0.48-0.32-0.76-0.22s-0.63-0.01-0.79-0.26c-0.19-0.31-0.13-0.36 0.2-0.15 0.31 0.19 0.4 0.16 0.23-0.11-0.14-0.23-0.53-0.31-0.86-0.18-0.44 0.17-0.52 0.096-0.3-0.26 0.2-0.32 0.16-0.4-0.12-0.23-0.23 0.14-0.88-9e-3 -1.4-0.34s-0.73-0.5-0.36-0.39c0.42 0.13 0.58 0.057 0.42-0.19-0.14-0.22-0.56-0.32-0.93-0.22-0.38 0.099-0.65 5e-3 -0.61-0.21 0.11-0.53-6.4-2.9-7.3-2.6-0.48 0.14-0.61 0.064-0.42-0.25 0.2-0.32 0.056-0.38-0.51-0.2-0.46 0.15-0.79 0.089-0.79-0.14 0-0.24-0.46-0.3-1.2-0.15-0.84 0.17-1.1 0.11-0.9-0.2 0.32-0.51 0.23-0.52-0.6-0.034" fill="#206486"/>
<path d="m278 24c0.36 0.094 0.94 0.094 1.3 0 0.36-0.093 0.064-0.17-0.65-0.17-0.71 0-1 0.076-0.65 0.17m-16 15c-0.76 0.4-1.4 0.82-1.4 0.92 0 0.16 2.9-1.2 3.3-1.5 0.43-0.39-0.69-0.022-1.9 0.63m33-0.21c0.51 0.29 1.1 0.53 1.3 0.53 0.2 0-0.047-0.24-0.56-0.53-0.51-0.29-1.1-0.53-1.3-0.53s0.046 0.24 0.56 0.53m2.6 1.1c0.51 0.29 1.1 0.53 1.3 0.53 0.2 0-0.046-0.24-0.56-0.53-0.51-0.29-1.1-0.53-1.3-0.53-0.2 0 0.047 0.24 0.56 0.53m-44 5.8-1.8 1.9 1.9-1.8c1.8-1.7 2.1-2.1 1.8-2.1-0.058 0-0.93 0.88-1.9 1.9m56 0.47c0.41 0.33 1.1 0.77 1.5 0.97l0.74 0.36-0.74-0.6c-0.41-0.33-1.1-0.77-1.5-0.97l-0.74-0.36 0.74 0.6m-62 5.8-1.5 1.6 1.6-1.5c1.5-1.4 1.7-1.7 1.5-1.7-0.06 0-0.77 0.71-1.6 1.6m71 0.16c0.31 0.5 3.2 2.8 3.2 2.6 0-0.094-0.78-0.81-1.7-1.6s-1.6-1.2-1.5-1m11 9.5c3.6 3.7 4.1 4.2 4.1 3.9 0-0.054-1.8-1.8-4-4l-4-3.9 3.9 4m-75 4.2c0.51 0.29 1.1 0.53 1.3 0.53 0.2 0-0.047-0.24-0.56-0.53-0.51-0.29-1.1-0.53-1.3-0.53-0.2 0 0.046 0.24 0.56 0.53m84 6.7c2e-3 0.2 0.34 0.79 0.76 1.3 0.5 0.62 0.63 0.68 0.38 0.19-0.62-1.2-1.1-1.9-1.1-1.5m-59 7.4c0 0.1 0.5 0.54 1.1 0.98 0.61 0.44 1.1 0.71 1.1 0.61 0-0.1-0.5-0.54-1.1-0.98s-1.1-0.71-1.1-0.61m66 11c0 0.71 0.077 1 0.17 0.65 0.093-0.36 0.093-0.94 0-1.3-0.093-0.36-0.17-0.065-0.17 0.65m0.41 4.8c0 1.7 0.064 2.4 0.14 1.6s0.078-2.3 0-3.1-0.14-0.16-0.14 1.6m-133-1.4-1.1 1.2 1.2-1.1c0.66-0.6 1.2-1.1 1.2-1.2 0-0.29-0.31-0.034-1.3 1.1m17 3.6c0.71 0.39 1.5 0.71 1.7 0.71s-0.21-0.32-0.93-0.71-1.5-0.71-1.7-0.71c-0.2 0 0.21 0.32 0.93 0.71m75 3.4c0 0.064 0.54 0.61 1.2 1.2l1.2 1.1-1.1-1.2c-1-1.1-1.3-1.4-1.3-1.1m5.2 5.6c0 0.064 0.54 0.6 1.2 1.2l1.2 1.1-1.1-1.2c-1-1.1-1.3-1.4-1.3-1.1m30 8c-0.42 0.82-0.67 1.5-0.57 1.5s0.52-0.67 0.94-1.5c0.42-0.82 0.67-1.5 0.57-1.5s-0.52 0.67-0.94 1.5m-69 11c0.8 0.82 1.5 1.5 1.6 1.5s-0.47-0.67-1.3-1.5c-0.8-0.82-1.5-1.5-1.6-1.5s0.47 0.67 1.3 1.5m61 0.62c-0.57 0.75-0.85 1.2-0.62 1.1 0.47-0.29 2.1-2.5 1.8-2.5-0.092 0-0.63 0.61-1.2 1.4m-6.5 1.4c0.2 0.41 0.64 1.1 0.97 1.5l0.6 0.74-0.36-0.74c-0.2-0.41-0.64-1.1-0.97-1.5l-0.6-0.74 0.36 0.74m-47 5.2c0.69 0.71 1.3 1.3 1.4 1.3 0.1 0-0.38-0.58-1.1-1.3s-1.3-1.3-1.4-1.3c-0.1 0 0.38 0.58 1.1 1.3m-9.1 89c-0.4 0.29-0.62 0.62-0.5 0.74s0.52-0.12 0.89-0.53c0.79-0.87 0.62-0.96-0.39-0.22m-12 15c-0.49 0.41-0.81 0.82-0.71 0.91s0.57-0.24 1-0.75c1-1.1 0.89-1.2-0.33-0.16m-161 2.8c0.36 0.093 0.94 0.093 1.3 0 0.36-0.094 0.065-0.17-0.65-0.17s-1 0.076-0.65 0.17m4.4 0c0.36 0.093 0.94 0.093 1.3 0 0.36-0.094 0.064-0.17-0.65-0.17s-1 0.076-0.65 0.17m15 5c0 0.064 0.54 0.61 1.2 1.2l1.2 1.1-1.1-1.2c-1-1.1-1.3-1.4-1.3-1.1m-21 5c0.36 0.093 0.94 0.093 1.3 0 0.36-0.094 0.064-0.17-0.65-0.17s-1 0.076-0.65 0.17m15 3.6c0 0.064 0.54 0.6 1.2 1.2l1.2 1.1-1.1-1.2c-1-1.1-1.3-1.4-1.3-1.1m128 8.7c-0.68 0.66-1.1 1.2-0.9 1.2 0.38 0 2.5-2.2 2.3-2.3-0.087-0.053-0.72 0.44-1.4 1.1m-90 6.6c0.69 0.71 1.3 1.3 1.4 1.3s-0.38-0.58-1.1-1.3-1.3-1.3-1.4-1.3c-0.1 0 0.38 0.58 1.1 1.3m-31 1.2c0.48 0.46 1.2 0.82 1.5 0.81 0.42-0.016 0.32-0.15-0.29-0.39-0.5-0.2-1.2-0.57-1.5-0.81s-0.19-0.068 0.29 0.39m7.2 0.73c0.76 0.08 2 0.08 2.8 0s0.14-0.14-1.4-0.14c-1.5 0-2.2 0.065-1.4 0.14m17 5.4c1.5 1.6 1.9 1.9 1.9 1.7 0-0.059-0.79-0.85-1.8-1.8l-1.8-1.7 1.7 1.8m82 3c-0.4 0.3-0.52 0.6-0.3 0.74 0.21 0.13 0.56-0.11 0.78-0.52 0.47-0.88 0.42-0.9-0.48-0.22m-77 3.7c0.34 0.71 0.68 1.2 0.76 1.1 0.17-0.17-0.95-2.4-1.2-2.4-0.093 0 0.11 0.58 0.45 1.3m75-0.073c-1 1.2-1.6 2.1-1.4 2.1 0.23 0 2.6-3 2.4-3.1-0.071-0.062-0.55 0.39-1.1 1m-49 11c0 0.081 0.71 0.71 1.6 1.4s1.3 0.96 1.1 0.6c-0.54-0.67-2.6-2.3-2.6-2m-21 4c0.48 0.42 1 0.76 1.3 0.76 0.46 0 0.43-0.019-1-0.88l-1.1-0.65 0.87 0.76m2.6 1c0.46 0.089 1.1 0.086 1.5-7e-3 0.36-0.093-0.022-0.16-0.84-0.16s-1.1 0.08-0.64 0.17m-76 1.8c-0.14 0.74-0.18 1.4-0.089 1.5 0.09 0.091 0.28-0.44 0.42-1.2 0.14-0.74 0.18-1.4 0.089-1.5-0.091-0.09-0.28 0.44-0.42 1.2m126 3.4c-0.78 0.96-1.2 1.6-1 1.5 0.5-0.31 2.8-3.2 2.6-3.2-0.095 0-0.81 0.78-1.6 1.7m-104 18c0 0.056 1.3 1.3 2.9 2.9l2.9 2.8-2.8-2.9c-2.6-2.7-3-3-3-2.8m66 1.9c-0.51 0.29-0.76 0.53-0.56 0.53 0.2 0 0.79-0.24 1.3-0.53 0.51-0.29 0.76-0.53 0.56-0.53-0.2 0-0.79 0.24-1.3 0.53m-59 5.5c0.57 0.75 1.1 1.4 1.2 1.4 0.26 0-1.3-2.2-1.8-2.5-0.23-0.14 0.047 0.35 0.62 1.1m69 2.3c-1.4 0.75-1.3 1.1 0.093 0.34 0.61-0.32 1.1-0.65 1.1-0.75 0-0.24-0.04-0.22-1.2 0.41m-20 8.5c-0.66 0.29-1.2 0.61-1.2 0.71 0 0.29 2.2-0.55 2.4-0.92 0.26-0.42 0.23-0.42-1.2 0.22m-42 3.9c0.24 2 0.57 2.4 1.5 1.9 0.64-0.4 0.63-0.41-0.086-0.22-0.67 0.18-0.82-0.029-1.2-1.6l-0.41-1.8 0.2 1.7m3.1 0.93c-0.51 0.29-0.76 0.53-0.56 0.53 0.2 0 0.79-0.24 1.3-0.53s0.76-0.53 0.56-0.53c-0.2 0-0.79 0.24-1.3 0.53m-61 28c0 0.064 0.54 0.61 1.2 1.2l1.2 1.1-1.1-1.2c-1-1.1-1.3-1.4-1.3-1.1" fill="#4b5023"/>
<path d="m93 240c0.46 0.089 1.1 0.085 1.5-7e-3 0.35-0.093-0.023-0.16-0.84-0.16-0.82 4e-3 -1.1 0.08-0.64 0.17m34 21c0.56 0.085 1.5 0.085 2 0s0.1-0.15-1-0.15c-1.1 0-1.6 0.069-1 0.15m47 36c0 0.064 0.54 0.6 1.2 1.2l1.2 1.1-1.1-1.2c-1-1.1-1.3-1.4-1.3-1.1" fill="#8a7816"/>
<path d="m97 239c0.76 0.08 2 0.08 2.8 0s0.14-0.15-1.4-0.15-2.2 0.066-1.4 0.15m50 29c0.8 0.81 1.5 1.5 1.6 1.5s-0.47-0.67-1.3-1.5c-0.8-0.82-1.5-1.5-1.6-1.5s0.47 0.67 1.3 1.5m19 35c0.8 0.82 1.5 1.5 1.6 1.5s-0.47-0.67-1.3-1.5c-0.8-0.82-1.5-1.5-1.6-1.5s0.46 0.67 1.3 1.5m15 7.9c-0.016 0.36 0.12 0.65 0.3 0.65s0.55-0.29 0.83-0.65c0.46-0.58 0.44-0.6-0.1-0.17-0.5 0.39-0.65 0.39-0.8 0-0.12-0.3-0.2-0.24-0.22 0.17m-72 24c0.34 0.71 0.68 1.2 0.76 1.1 0.17-0.17-0.96-2.4-1.2-2.4-0.094 0 0.11 0.58 0.45 1.3" fill="#a69c25"/>
</g>
</svg>
