<svg width="400" height="400" version="1.1" viewBox="0 0 400 400" xmlns="http://www.w3.org/2000/svg">
<g fill-rule="evenodd">
<path d="m315 86c-4.3 1.5-16 5.6-26 9-9.8 3.4-26 9.2-36 13-10 3.6-22 7.8-26 9.4-20 7-18 2.9-18 52 0.43 43-0.12 39 6.1 46 5.8 6.1 7 7.9 8.5 12 0.95 2.9 1.5 3.2 3.2 1.8 3.5-2.8 6.2-4.4 9.2-5.6 7.2-2.8 40-14 42-14 9.7-1.6 17 7 14 16-1.7 4.7-5.9 7.3-18 11-3.5 1.2-9.3 3.2-13 4.6-16 6.1-22 7.6-26 7-5.6-0.88-8.7-3.6-11-9.2-1.3-3.9-0.95-4.1-8 4.2-5.1 6-5.5 7.6-4.3 18 0.22 2 0.4 5.1 0.4 6.9 0.025 12 3 13 16 10 8.5-1.9 9.3-1.9 14 1.3 4.1 3 6 2.8 11-0.9 4.4-3.3 4.6-3.4 11-3.5l5.6-0.072 4.4-2.3c3.2-1.7 5.3-2.5 7.9-3 4.2-0.9 5.7-1.7 10-5.6 2.9-2.6 4.1-3.4 11-6.6 11-5.4 14-8.3 16-13 0.32-1.2 1.1-3.2 1.8-4.4 2.4-4.5 3.2-9.8 3.7-23 0.12-3.7 0.5-9.1 0.84-12 0.75-6.7 1.1-18 2.5-73 0.52-21 0.51-44-0.02-46-1.1-3.8-2.7-3.9-13-0.21m-9 37c9.5 2.8 9.1 15-0.68 20-7.9 3.8-62 22-66 22-13 0.69-16-14-4-19 1.3-0.62 7.2-2.8 13-4.8 5.9-2 19-6.6 29-10 24-8.4 24-8.4 29-7.1m1.9 40c6.8 2.9 8 13 2.3 18-2.9 2.5-15 7.2-34 13-3.2 1-12 4-20 6.7-16 5.5-19 6.1-23 4.6-7.3-2.8-9-12-3.2-17 2.4-2.2 4.5-3.1 21-8.7 7.9-2.7 16-5.7 19-6.6 27-10 33-12 38-9.5" fill="#42bac2"/>
<path d="m74 83c-2.4 1-2.6 16-1.9 144 0.28 48 0.026 46 7.5 50 3.2 1.6 34 13 73 26 16 5.7 26 9.1 28 9.7 6.4 2.3 6.6 1.6 6.7-24 0.047-17-0.17-17-5.2-14-11 8.6-21 3.5-22-12-0.55-8.7-0.39-8.6-16-8.6-30-0.073-34-0.93-37-9.2-1.8-5.4-1.6-32 0.32-36 3-6.9 5.4-7.5 30-7.8 23-0.32 22 0.19 23-9 1-14 10-19 21-9.9 3.9 3.2 5.4 3.5 6.4 1.3 0.88-2 0.68-54-0.22-57-2.1-5.9-1.1-5.5-55-25-13-4.6-30-11-39-14-16-5.8-19-6.6-20-5.9" fill="#fbb13f"/>
<path d="m329 53c-2.8 0.49-2.2 0.3-21 7.1-53 19-100 35-105 38-3.2 1.3-4.3 1.3-8.5-0.52-2-0.84-11-4.3-20-7.7-103-38-100-37-106-37-12 0-20 6.9-21 19-0.31 2.4-0.4 32-0.31 103l0.13 99 0.86 3.4c1.9 7.6 6.4 15 12 19 5.3 4 5.7 4.2 50 21 11 4.1 22 8.5 26 9.8 5.9 2.3 40 15 49 18 15 5.5 16 5.3 49-7.1 29-11 44-16 72-26 33-12 35-13 40-18 6.8-6.9 9.4-13 10-24 0.55-6.2 0.54-190-0.011-196-1.6-16-12-24-27-21m18 23c-0.09 0.59-0.17 0.2-0.17-0.87-3e-3 -1.1 0.071-1.6 0.16-1.1 0.093 0.48 0.095 1.4 6e-3 2m-269 0.83c1.4 0.4 10 3.5 19 6.8 9.1 3.3 31 11 48 17s32 12 34 13c9.6 3.5 14 7.1 16 14 1.1 3.6 1.1 63 7e-3 66-2.2 5.8-6.1 5.3-13-1.5-9-8.6-13-7.6-14 3.5-0.49 8.1-1.5 10-5.2 12-1.6 0.85-1.9 0.87-22 1.1-29 0.35-27-1.2-27 20 0 21-1.6 20 27 20 25 0.011 26 0.26 27 12 0.79 13 4.4 14 13 6.2 6.6-6.2 9.6-7.3 12-4.5 2.2 2.2 2.2 2.3 2.1 30l-0.11 25-0.98 1.9c-2.9 5.7-3.5 5.6-31-4.5-10-3.8-27-10-38-14-55-20-52-19-55-24-3.3-4.9-3 4.3-3-101v-94l0.99-1.9c1.8-3.5 5.1-4.5 10-3m254 0.75c0.68 0.48 1.6 1.7 2.1 2.7l0.91 1.9-0.095 74c-0.14 109-0.22 113-2.2 118-2.8 6.2-4.6 7-43 21-12 4.1-21 7.5-43 16-38 14-37 14-40 10-2.2-2.5-2.2-1.8-2.6-36-0.41-40-0.79-38 6.4-46 8-8.9 8.1-11 0.22-19-7.7-8.4-7.1-3.8-7.1-51-0.075-53-2.1-48 27-59 7.6-2.7 18-6.6 24-8.6 8.7-3.1 59-21 67-24 3.8-1.3 7.8-1.3 9.6 0.044m15 5.3c-0.093 0.48-0.17 0.087-0.17-0.88 0-0.97 0.076-1.4 0.17-0.88 0.093 0.48 0.093 1.3 0 1.8m-6e-3 19c-0.099 0.38-0.18 0.069-0.18-0.68s0.08-1.1 0.18-0.68c0.098 0.38 0.098 0.99 0 1.4m0 3.5c-0.099 0.38-0.18 0.068-0.18-0.68s0.08-1.1 0.18-0.68c0.098 0.38 0.098 0.99 0 1.4m-48 24c-0.64 0.22-6.7 2.3-13 4.6-6.8 2.3-17 5.8-22 7.8-5.6 2-13 4.6-16 5.7-10 3.6-13 5.5-12 8.8 0.93 2.2 3.8 2.8 8.1 1.7 4.7-1.2 58-20 60-21 6.7-3.4 2.8-10-4.5-7.7m48 36c-0.093 0.48-0.17 0.088-0.17-0.88 0-0.97 0.076-1.4 0.17-0.88 0.093 0.48 0.093 1.3 0 1.8m-57 6.9c-29 9.6-51 18-53 19-4.7 3.2-2.2 8.4 3.6 7.6 0.98-0.15 9.4-2.9 19-6.1 9.4-3.2 21-7.3 26-9 20-6.9 22-8.2 21-12-1.2-3.5-3.8-3.4-17 0.96m57 3.7c-0.082 0.91-0.15 0.17-0.15-1.7s0.067-2.6 0.15-1.7c0.083 0.91 0.083 2.4 0 3.3m-0.016 6.4c-0.099 0.38-0.18 0.068-0.18-0.68s0.08-1.1 0.18-0.68c0.098 0.38 0.098 0.99 0 1.4m0 14c-0.099 0.38-0.18 0.068-0.18-0.68s0.08-1.1 0.18-0.68c0.098 0.38 0.098 0.99 0 1.4m-163 9.5c1 0.51 4.4 3.7 9 8.3 13 14 14 14 2.5 26-13 13-16 14-19 6.4-1.3-3.5-2.2-4.7-4.4-5.8l-1.9-0.91-21-0.2c-23-0.21-23-0.18-25-2.6-2.5-2.9-3.1-12-1-16 2.4-4.1 3.5-4.2 27-4.2 24 0 23 0.059 26-6.4 2.1-5.1 4-6.2 7.6-4.5m163 8.5c-0.089 0.59-0.16 0.11-0.16-1.1 0-1.2 0.074-1.7 0.16-1.1 0.09 0.59 0.09 1.6 0 2.1m-70 2.2c-1.9 0.52-17 5.8-30 10-12 4.2-14 6.2-12 10 1.5 2.9 4.9 2.8 14-0.29 32-11 35-12 36-14 2.6-4.3-1.5-7.6-7.4-6m70 32c-0.082 0.91-0.15 0.17-0.15-1.7s0.067-2.6 0.15-1.7c0.083 0.91 0.083 2.4 0 3.3m-0.016 4.1c-0.099 0.38-0.18 0.068-0.18-0.68s0.08-1.1 0.18-0.68c0.098 0.38 0.098 0.99 0 1.4m7e-3 8c-0.094 0.49-0.17 0.18-0.18-0.68s0.072-1.3 0.17-0.88c0.098 0.37 0.1 1.1 8e-3 1.6m3e-3 10c-0.089 0.59-0.16 0.11-0.16-1.1 0-1.2 0.074-1.7 0.16-1.1 0.09 0.59 0.09 1.6 0 2.1" fill="#0b394b"/>
<path d="m319 83c-2.8 0.94-9.8 3.4-16 5.4-24 8.5-43 15-49 17-3.7 1.3-13 4.7-21 7.5-22 7.8-24 9.2-25 18-0.71 4.5-0.2 75 0.55 78 0.75 2.4 2.2 4.4 6.7 9.3 8.4 9.1 8.2 13-1.2 23-2 2.2-3.8 4.6-4.4 5.9l-1 2.1 0.13 19c0.33 48 0.36 48 4.6 48 1.2 0 32-11 45-16 3.4-1.3 13-4.8 21-7.8s18-6.5 21-7.7c3.2-1.2 9-3.3 13-4.7 16-5.6 15-4.3 16-33 1.3-87 1.4-163 0.21-165-1.6-2.6-3.3-2.7-10-0.36m8 0.98c1.7 1.7 2 14 1.2 48-1.4 55-1.8 67-2.5 73-0.34 3-0.72 8.5-0.84 12-0.43 13-1.3 18-3.7 23-0.65 1.2-1.4 3.2-1.8 4.4-1.3 4.8-4.8 7.7-16 13-6.7 3.3-7.9 4-11 6.6-4.3 3.9-5.8 4.7-10 5.6-2.6 0.55-4.7 1.4-7.9 3l-4.4 2.3-5.6 0.072c-6.4 0.081-6.6 0.14-11 3.5-4.9 3.7-6.8 3.9-11 0.9-4.4-3.2-5.1-3.3-14-1.3-13 3-16 1.1-16-10-4e-3 -1.8-0.18-4.9-0.4-6.9-1.1-11-0.76-12 4.3-18 7.1-8.3 6.7-8.1 8-4.2 1.8 5.5 5 8.3 11 9.2 4 0.62 9.3-0.83 26-7 3.5-1.3 9.3-3.4 13-4.6 12-4 16-6.6 18-11 3.3-8.8-4.1-17-14-16-2.2 0.36-35 11-42 14-3 1.2-5.7 2.8-9.2 5.6-1.7 1.4-2.2 1.1-3.2-1.8-1.5-4.4-2.7-6.2-8.5-12-6.2-6.5-5.7-2.4-6.1-46-0.48-49-1.9-45 18-52 4.4-1.6 16-5.8 26-9.4 10-3.6 26-9.4 36-13 9.8-3.4 21-7.5 26-9 8.4-3 11-3.3 12-2m-29 39c-1.1 0.3-10 3.5-21 7-10 3.6-24 8.2-29 10-5.9 2-12 4.2-13 4.8-12 5.8-9.1 20 4 19 4.4-0.23 59-18 66-22 14-6.6 7.4-24-7.2-20m8.4 2.1c6.8 3.5 5.4 12-2.6 16-6.2 2.7-60 21-64 22-9.5 1.5-15-7.6-8-14 2.6-2.4-0.55-1.2 52-19 17-5.8 19-6.2 22-4.3m-5.2 37c-3.5 0.51-17 4.9-32 10-2.4 0.88-11 3.8-19 6.6-16 5.6-18 6.5-21 8.7-5.8 5.4-4.1 14 3.2 17 4 1.5 7.2 0.9 23-4.6 7.7-2.7 17-5.7 20-6.7 19-5.9 31-11 34-13 8.1-7.2 1.9-20-8.9-18m5.5 3.2c6.6 3.4 5.7 12-1.7 16-6.5 3.3-62 22-66 22-12 0.52-13-12-2.5-17 2.3-1 58-20 62-21 3.3-0.93 6.8-0.81 9 0.32m-22 48c4.4 2.3 5.7 7.7 3 12-2.2 3.5-2.9 3.8-29 13-21 7.3-23 7.7-27 4.4-7.1-5.4-3.5-14 7.9-18 37-13 41-14 45-12" fill="#2b9abb"/>
<path d="m329 52c-1.3 0.19-3.8 0.77-5.5 1.3-5.2 1.6-111 39-119 42-5.8 2.3-5.8 2.2-17-1.9-15-5.7-109-40-112-41-14-3.8-26 2.1-30 15l-0.85 3.2v102c0 97 0.034 102 0.71 105 2.3 11 8.2 19 18 24 1.5 0.75 18 7.1 37 14s43 16 55 21c29 11 32 12 35 13 3.9 0.8 11 0.8 15 0 3.2-0.66 3.5-0.77 34-12 11-4 36-13 57-21s38-14 39-15c10-4.6 17-13 19-25 0.91-4.5 0.73-205-0.19-209-3-12-13-18-27-16m11 1.8c9.3 2.7 14 9.3 15 21 0.55 5.5 0.56 189 0.011 196-0.97 11-3.6 17-10 24-5.5 5.6-7.5 6.5-40 18-28 10-43 16-72 26-33 12-35 13-49 7.1-8.8-3.3-43-16-49-18-3.4-1.3-15-5.7-26-9.8-44-17-45-17-50-21-5.7-4.3-10-11-12-19l-0.86-3.4-0.13-99c-0.09-71-2e-3 -100 0.31-103 1.6-12 9.3-19 21-19 5.8 0 2.6-1.1 106 37 9.2 3.4 18 6.8 20 7.7 4.2 1.8 5.3 1.9 8.5 0.52 1.3-0.55 5-2 8.2-3.1 16-5.8 110-39 115-41 4.2-1.3 11-1.4 15-0.22m6.4 21c3e-3 1.1 0.079 1.5 0.17 0.87 0.089-0.59 0.087-1.5-6e-3 -2-0.092-0.48-0.17 5e-3 -0.16 1.1m-5e-3 6.8c0 0.97 0.076 1.4 0.17 0.88 0.093-0.48 0.093-1.3 0-1.8-0.093-0.48-0.17-0.088-0.17 0.88m-0.016 19c0 0.75 0.08 1.1 0.18 0.68 0.098-0.38 0.098-0.99 0-1.4-0.099-0.38-0.18-0.068-0.18 0.68m0 3.5c0 0.75 0.08 1.1 0.18 0.68 0.098-0.38 0.098-0.99 0-1.4-0.099-0.38-0.18-0.069-0.18 0.68m0.016 60c0 0.97 0.076 1.4 0.17 0.88 0.093-0.48 0.093-1.3 0-1.8-0.093-0.48-0.17-0.088-0.17 0.88m0.03 9.8c0 1.8 0.067 2.6 0.15 1.7 0.083-0.91 0.083-2.4 0-3.3-0.082-0.91-0.15-0.17-0.15 1.7m-0.046 7.4c0 0.75 0.08 1.1 0.18 0.68 0.098-0.38 0.098-0.99 0-1.4-0.099-0.38-0.18-0.068-0.18 0.68m0 14c0 0.75 0.08 1.1 0.18 0.68 0.098-0.38 0.098-0.99 0-1.4-0.099-0.38-0.18-0.069-0.18 0.68m0.026 18c0 1.2 0.074 1.7 0.16 1.1 0.09-0.59 0.09-1.6 0-2.1-0.089-0.59-0.16-0.11-0.16 1.1m0.02 34c0 1.8 0.067 2.6 0.15 1.7 0.083-0.91 0.083-2.4 0-3.3-0.082-0.91-0.15-0.17-0.15 1.7m-0.046 5.1c0 0.75 0.08 1.1 0.18 0.68 0.098-0.38 0.098-0.99 0-1.4-0.099-0.38-0.18-0.069-0.18 0.68m8e-3 8c4e-3 0.86 0.084 1.2 0.18 0.68 0.093-0.49 0.09-1.2-8e-3 -1.6-0.098-0.37-0.17 0.025-0.17 0.88m0.018 9.6c0 1.2 0.074 1.7 0.16 1.1 0.09-0.59 0.09-1.6 0-2.1-0.089-0.59-0.16-0.11-0.16 1.1" fill="#04090f"/>
<path d="m70 77c-1.3 0.66-2 1.4-2.7 2.8l-0.99 1.9v94c0 106-0.27 96 3 101 3.6 5.4 0.26 4 55 24 11 3.9 28 10 38 14 27 10 28 10 31 4.5l0.98-1.9 0.11-25c0.12-28 0.11-28-2.1-30-2.8-2.8-5.8-1.7-12 4.5-8.8 8.3-12 6.5-13-6.2-0.73-12-1.3-12-27-12-29-0.013-27 1.2-27-20 0-21-2.1-20 27-20 27-0.32 26-0.083 27-14 0.68-11 4.6-12 14-3.5 7.1 6.8 11 7.3 13 1.5 1.1-2.9 1.1-62-7e-3 -66-2.1-6.8-6.1-10-16-14-1.8-0.65-17-6.3-34-13s-39-14-48-17c-23-8.3-23-8.4-27-6.6m24 9.2c8.9 3.3 32 12 51 18 45 17 45 16 47 25 0.54 2.8 0.51 56-0.03 58-1.1 5-3.8 4.7-10-1.2-9.2-8.7-16-5.5-17 7.6-0.34 5.5-0.85 7.3-2.4 8.7-2 1.8-2.2 1.8-23 2.1-18 0.19-20 0.28-22 0.91-2.6 1.2-4.2 2.6-5.2 4.9l-1 2.2v15 15l1.1 2.3c2.7 5.5 3.7 5.8 28 6.1 25 0.32 24-0.024 24 9.9 0.69 14 7.5 18 18 8.6 5.7-5 7.6-5.5 9.2-2.2 0.92 1.8 1.1 44 0.24 47-1.3 4.7-3.9 4.7-16 0.076-15-5.7-34-13-47-17-49-18-48-18-51-20-3.5-2.2-5.6-5.2-6.4-9.2-0.68-3.2-1.1-182-0.45-185 1.4-6.7 2.8-6.6 24 1.2" fill="#785b41"/>
<path d="m322 77c-8.5 3-59 21-67 24-5.6 2-16 5.9-24 8.6-18 6.5-22 8.4-24 13-2.6 4.8-2.5 2.5-2.4 45 0.067 47-0.58 42 7.1 51 7.8 8.5 7.8 10-0.22 19-7.2 8-6.8 5.3-6.4 46 0.35 35 0.31 34 2.6 36 2.9 3.2 2.5 3.3 40-10 22-8 31-11 43-16 38-14 40-15 43-21 2-4.4 2.1-8.5 2.2-118l0.095-74-0.91-1.9c-1.9-3.8-5.9-4.8-12-2.8m6 4.1c2.9 1.3 3 4.2 2.2 92-0.7 83-0.92 95-1.8 97-1.5 4.5-4.1 6.3-15 10-3.8 1.4-9.6 3.5-13 4.7-3.2 1.2-13 4.7-21 7.7s-18 6.5-21 7.8c-13 5-44 16-45 16-4.2 0-4.2-0.34-4.6-48l-0.13-19 1-2.1c0.6-1.3 2.4-3.7 4.4-5.9 9.3-10 9.5-14 1.2-23-4.5-4.9-5.9-6.9-6.7-9.3-0.76-2.4-1.3-73-0.55-78 1.3-8.4 3.3-9.8 25-18 7.8-2.8 17-6.1 21-7.5 6.2-2.3 25-9 49-17 21-7.4 22-7.7 24-6.7m-28 43c-1.3 0.3-8 2.5-15 4.9-52 18-49 17-52 19-6.8 6.2-1.5 15 8 14 3.5-0.56 57-19 64-22 12-5.2 7.4-19-5-16m5.3 4.7c3.2 1.6 2.3 5.6-1.6 7.6-2.6 1.3-55 20-60 21-4.3 1.1-7.2 0.52-8.1-1.7-1.4-3.3 1-5.1 12-8.8 3.4-1.2 11-3.8 16-5.7 5.6-2 16-5.5 22-7.8 6.8-2.3 13-4.4 13-4.6 1.7-0.61 4.8-0.55 6.1 0.12m-6.5 35c-3.5 0.98-59 20-62 21-11 4.9-9 17 2.5 17 3.9-0.18 60-19 66-22 12-6 5.5-20-7.3-16m6.8 4.5c1.6 0.84 2.2 2.9 1.4 4.6-1.2 2.6-3.3 3.5-21 9.5-5 1.7-17 5.8-26 9-9.4 3.2-18 6-19 6.1-5.8 0.87-8.3-4.4-3.6-7.6 1.7-1.2 2.3-1.4 24-8.9 40-14 41-14 44-13m-126 37c-0.66 0.56-1.6 2.1-2.2 3.6-1.5 3.9-2.3 5-4.4 6l-1.9 0.93-40 0.41 20 0.085c25 0.11 24 0.33 27-6.5 3.6-7.4 5.4-6.7 18 6.9 9.6 11 9.6 11-1.5 22-9.3 9.5-11 11-14 8.2-0.64-0.61-1.2-1.3-1.2-1.6 0-0.67-1.9-4-2.9-5.1-2.5-2.7-1.8-2.6-24-2.5-23 0.16-24 0.078-26-2.2-2.7-2.5-3.8-11-1.8-15 0.53-1.1 0.55-1.2 0.072-0.6-2.3 2.9-1.7 13 0.92 16 2.1 2.4 1.8 2.4 25 2.6l21 0.2 1.9 0.91c2.2 1.1 3.1 2.3 4.4 5.8 3 8.1 6 7 19-6.4 11-12 11-12-2.5-26-9.1-9.3-11-11-14-8.2m100 5.7c-1.5 0.26-25 8-38 13-11 4-15 12-7.9 18 4.3 3.3 6.3 2.9 27-4.4 22-7.6 23-8.2 26-9.8 9-6 3.6-18-7.2-16m4.3 4.8c3.7 1.5 3.3 5.9-0.67 8.2-1.5 0.9-13 5-33 12-9 3.1-12 3.2-14 0.29-2.1-4 0.32-6 12-10 32-11 33-12 36-10" fill="#267e90"/>
<path d="m179 206c-0.5 0.35-1.7 2.3-2.6 4.2-1.6 3.5-2.8 4.9-5.1 5.9-0.43 0.19-10 0.44-22 0.55l-21 0.2-1.8 0.98c-4.8 2.7-5.6 15-1.2 18 2.5 2.3 3.5 2.3 26 2.2 22-0.16 22-0.22 24 2.5 1 1.1 2.9 4.4 2.9 5.1 0 0.26 0.53 0.97 1.2 1.6 2.6 2.5 4.4 1.3 14-8.2 11-11 11-12 1.5-22-10-11-13-13-15-11" fill="#4a9164"/>
<path d="m73 80c-3.6 1.6-3.4-4.7-3.2 97 0.24 94 0.21 93 1.9 96 2.9 5.8-0.66 4.2 56 25 13 4.8 31 12 47 17 12 4.6 15 4.6 16-0.076 0.89-3.3 0.67-45-0.24-47-1.6-3.3-3.5-2.8-9.2 2.2-10 9-17 5.7-18-8.6-0.48-9.9 0.37-9.5-24-9.9-24-0.31-25-0.52-28-6.1l-1.1-2.3v-15-15l1-2.2c1.1-2.3 2.6-3.7 5.2-4.9 1.4-0.62 3.5-0.71 22-0.91 21-0.23 21-0.25 23-2.1 1.6-1.4 2.1-3.3 2.4-8.7 0.82-13 8.1-16 17-7.6 6.2 5.9 8.9 6.2 10 1.2 0.54-2.4 0.57-55 0.03-58-1.7-9-1.2-8.8-47-25-19-6.9-42-15-51-18-16-6-19-6.8-21-5.9m22 8.6c8.9 3.2 26 9.6 39 14 53 19 53 19 55 25 0.89 2.6 1.1 55 0.22 57-0.98 2.2-2.5 1.9-6.4-1.3-6.8-5.5-13-5.8-17-0.72-2.3 2.5-2.9 4.6-3.4 11-0.68 9.2 0.61 8.7-23 9-32 0.44-32 0.64-32 29 0.35 23 0.88 23 38 23 15 0.038 15-0.046 16 8.6 0.95 15 10 20 22 12 5.1-3.9 5.3-3.3 5.2 14-0.071 26-0.26 27-6.7 24-1.8-0.63-11-4-28-9.7-39-14-70-25-73-26-4.2-2.1-6.3-4.9-6.9-9.4-0.98-6.9-1.2-181-0.26-183 1.6-3 2.5-2.8 22 4.3" fill="#a46444"/>
</g>
</svg>
