<svg width="16" height="16" version="1.1" xmlns="http://www.w3.org/2000/svg">
<defs>
<style type="text/css">.ColorScheme-Text {
color:#000;
}</style>
</defs>
<path class="ColorScheme-Text" d="m7.5 0c-4.1 0-7.5 3.4-7.5 7.5 0 4.1 3.4 7.5 7.5 7.5s7.5-3.4 7.5-7.5c0-4.1-3.4-7.5-7.5-7.5zm0 1.5c3.3 0 6 2.7 6 6s-2.7 6-6 6-6-2.7-6-6c2.2e-16 -3.3 2.7-6 6-6zm3 2.5a0.5 0.5 0 0 0-0.055 0.0059 0.5 0.5 0 0 0-0.25 0.16l-2.7 2.7-1.7-1.7a0.5 0.5 0 1 0-0.69 0.69l2 2a0.5 0.5 0 0 0 0.69 0l3-3a0.5 0.5 0 0 0-0.38-0.85z" fill="currentColor"/>
</svg>
