<svg width="400" height="400" version="1.1" viewBox="0 0 400 400" xmlns="http://www.w3.org/2000/svg">
<g fill-rule="evenodd">
<path d="m112 21c-0.053 0.054-1.2 0.19-2.6 0.31-1.4 0.12-3 0.3-3.7 0.42-0.64 0.11-1.4 0.24-1.8 0.3-0.33 0.051-0.81 0.23-1.1 0.39-0.26 0.16-0.64 0.2-0.84 0.073-0.2-0.12-0.48-0.043-0.61 0.18s-0.4 0.31-0.59 0.2c-0.18-0.11-0.45-0.026-0.59 0.2-0.14 0.22-0.4 0.31-0.59 0.2-0.18-0.12-0.45-0.027-0.59 0.2s-0.41 0.3-0.61 0.18c-0.2-0.12-0.36-0.039-0.36 0.19 0 0.23-0.13 0.38-0.29 0.33-0.16-0.045-0.67 0.12-1.1 0.38s-0.94 0.35-1.1 0.21c-0.14-0.14-0.25-0.031-0.25 0.23 0 0.26-0.18 0.37-0.39 0.24-0.22-0.13-0.39-0.045-0.39 0.2s-0.18 0.33-0.39 0.19c-0.22-0.13-0.5 0.031-0.63 0.36-0.13 0.34-0.39 0.51-0.58 0.39-0.19-0.12-0.35-0.02-0.35 0.22s-0.16 0.34-0.37 0.21c-0.2-0.12-0.55 0.085-0.77 0.47-0.22 0.38-0.41 0.52-0.42 0.3-0.011-0.22-0.38 0.049-0.83 0.59-0.44 0.54-0.69 0.71-0.55 0.39 0.14-0.32-0.13-0.15-0.6 0.39s-0.97 0.98-1.1 0.98c-0.38 0-4.9 4.6-4.9 5 0 0.18-0.44 0.68-0.98 1.1s-0.71 0.68-0.39 0.54c0.32-0.14 0.24 0.031-0.2 0.38-0.43 0.35-0.74 0.81-0.68 1 0.056 0.2-0.16 0.48-0.49 0.6s-0.49 0.38-0.37 0.58 0.019 0.35-0.22 0.35-0.33 0.18-0.19 0.39c0.13 0.22-0.031 0.5-0.37 0.63-0.33 0.13-0.51 0.39-0.39 0.58 0.12 0.19 0.019 0.35-0.22 0.35s-0.33 0.18-0.2 0.39c0.13 0.22 0.055 0.39-0.17 0.39-0.23 0-0.38 0.13-0.35 0.29 0.13 0.6-0.55 2.4-0.91 2.4-0.2 0-0.27 0.16-0.15 0.36 0.12 0.2 0.043 0.48-0.18 0.61s-0.31 0.4-0.2 0.59c0.11 0.18 0.026 0.45-0.2 0.59-0.22 0.14-0.31 0.4-0.2 0.59 0.12 0.18 0.027 0.45-0.2 0.59s-0.3 0.41-0.18 0.61c0.12 0.2 0.091 0.58-0.073 0.84-0.16 0.26-0.32 0.75-0.36 1.1s-0.27 2.4-0.52 4.5c-0.84 7.1-0.4 288 0.45 291 0.37 1.5 0.57 2.8 0.46 3s-0.055 0.34 0.13 0.34c0.19 0 0.66 1 1 2.2s1.3 3.4 2 4.9c0.73 1.4 1.2 2.6 1 2.6-0.16 6e-3 0.013 0.19 0.39 0.41 0.38 0.22 0.6 0.55 0.49 0.73-0.11 0.18 0.073 0.43 0.41 0.56 0.34 0.13 0.51 0.39 0.39 0.59s0.046 0.45 0.37 0.58c0.32 0.12 0.54 0.36 0.49 0.53-0.055 0.17 0.6 0.99 1.5 1.8 0.86 0.84 1.1 1.2 0.59 0.79-0.54-0.4-0.11 0.18 0.94 1.3 1.1 1.1 2.1 1.9 2.2 1.8s0.67 0.3 1.1 0.9c0.46 0.59 0.73 0.81 0.59 0.49-0.14-0.32 0.089-0.2 0.51 0.28 0.42 0.47 0.87 0.76 1 0.63s0.34 0.053 0.48 0.4c0.14 0.35 0.4 0.54 0.6 0.42 0.19-0.12 0.46 0.056 0.59 0.39 0.13 0.34 0.39 0.51 0.58 0.39 0.19-0.12 0.35-0.019 0.35 0.22s0.18 0.33 0.39 0.2c0.21-0.13 0.39-0.045 0.39 0.2 0 0.24 0.16 0.34 0.36 0.21 0.2-0.12 0.62 0.035 0.93 0.35s0.68 0.46 0.81 0.33 0.24-0.074 0.24 0.13 0.38 0.4 0.84 0.44 0.97 0.26 1.1 0.51c0.15 0.24 0.39 0.42 0.53 0.39 0.68-0.14 3 0.51 3 0.83 0 0.2 0.18 0.26 0.39 0.13 0.22-0.13 0.6-0.12 0.85 0.04 0.25 0.15 0.91 0.32 1.5 0.38 0.56 0.054 2.6 0.29 4.5 0.52 5.1 0.61 177 0.6 182-0.015 2.1-0.24 4.4-0.46 5.1-0.49 0.7-0.025 1.3-0.2 1.3-0.38s0.35-0.25 0.78-0.13c0.43 0.11 0.78 0.089 0.78-0.052 0-0.3 4.7-1.9 5.2-1.7 0.16 0.053 0.29-0.057 0.29-0.25 0-0.32 2.1-1.3 2.5-1.3 0.12 0.022 0.57-0.32 1-0.76 0.44-0.44 0.95-0.7 1.1-0.59 0.18 0.11 0.44-0.067 0.57-0.4 0.13-0.34 0.43-0.48 0.69-0.33 0.25 0.15 0.35 0.11 0.22-0.093s0.13-0.6 0.57-0.87c0.66-0.41 0.75-0.4 0.53 0.019-0.15 0.28 0.087 0.078 0.52-0.46s0.94-0.98 1.1-0.98c0.18 0 1.3-0.97 2.5-2.1 1.2-1.2 1.8-1.9 1.3-1.6-0.43 0.32-0.25-0.047 0.4-0.82 0.64-0.77 1.3-1.3 1.5-1.2 0.17 0.092 0.27 0.021 0.23-0.16-0.13-0.6 0.52-1.7 0.88-1.5 0.2 0.12 0.33 0.077 0.3-0.1-0.14-0.8 0.07-1.3 0.44-1.1 0.22 0.14 0.36 0.1 0.3-0.075-0.18-0.57 0.94-2.9 1.3-2.6 0.19 0.12 0.22-0.091 0.084-0.46-0.19-0.49-0.12-0.58 0.26-0.35 0.33 0.2 0.42 0.17 0.26-0.1-0.28-0.46 0.48-2.4 0.94-2.4 0.16 0 0.27-0.22 0.25-0.49-0.054-0.82 1-4.2 1.4-4.2 0.16 0 0.2-0.25 0.088-0.55-0.12-0.3-0.03-0.66 0.19-0.79s0.3-0.5 0.19-0.8c-0.12-0.3-0.081-0.77 0.081-1 0.48-0.78 0.55-2.2 0.89-19 0.32-15 0.62-19 1.7-19 0.22 0 0.29-0.18 0.15-0.39-0.13-0.22-0.061-0.39 0.16-0.39 0.22 0 0.29-0.29 0.15-0.65-0.17-0.43-0.1-0.56 0.2-0.37 0.3 0.19 0.37 0.061 0.2-0.39s-0.11-0.58 0.2-0.39c0.3 0.19 0.37 0.061 0.2-0.39-0.19-0.49-0.12-0.58 0.26-0.35 0.33 0.2 0.42 0.17 0.26-0.1-0.27-0.44 0.47-2.4 0.9-2.4 0.14 0 0.27-0.38 0.31-0.84s0.2-0.95 0.38-1.1 0.37-0.58 0.45-1c0.073-0.43 0.28-0.84 0.47-0.9 0.18-0.067 0.24-0.38 0.12-0.68-0.12-0.31-0.01-0.56 0.24-0.56 0.25 0 0.36-0.15 0.25-0.33-0.23-0.38 0.56-3.2 0.9-3.2 0.12 0 0.27-0.56 0.31-1.2 0.048-0.68 0.22-1.3 0.39-1.5 0.17-0.12 0.31-0.4 0.31-0.62 0.022-1.2 1.1-5.7 1.4-5.9 0.19-0.12 0.27-0.35 0.17-0.51-0.1-0.16 0.1-2 0.45-4 1.2-7.1 0.88-23-0.64-30-0.43-2-0.68-3.8-0.57-4 0.11-0.18-6e-3 -0.32-0.26-0.32-0.27 0-0.37-0.33-0.26-0.78 0.11-0.43 0.024-0.78-0.2-0.78-0.22 0-0.31-0.35-0.2-0.78s0.026-0.78-0.19-0.78c-0.22 0-0.3-0.26-0.18-0.57 0.12-0.32 0.076-0.66-0.1-0.77-0.35-0.22-1.4-3.8-1.3-4.2 0.048-0.16-0.1-0.29-0.34-0.29s-0.35-0.22-0.26-0.48c0.088-0.27-0.083-0.73-0.38-1-0.3-0.3-0.45-0.78-0.34-1.1s0.053-0.54-0.13-0.54c-0.42 0-1.2-2.2-0.91-2.5 0.13-0.13 0.013-0.23-0.25-0.23s-0.37-0.18-0.24-0.39c0.13-0.21 0.045-0.39-0.2-0.39-0.24 0-0.33-0.18-0.2-0.39s0.045-0.39-0.2-0.39c-0.24-1e-3 -0.33-0.18-0.2-0.39 0.13-0.22 0.045-0.39-0.2-0.39s-0.33-0.18-0.2-0.39c0.13-0.22 0.045-0.39-0.2-0.39-0.24 0-0.33-0.18-0.2-0.39 0.13-0.21 0.07-0.39-0.14-0.39-0.48 0-1.8-3.8-1.4-4.3 0.13-0.2 0.049-0.48-0.17-0.62-0.27-0.17-0.42-18-0.44-55-0.021-30-0.1-55-0.18-56-0.15-1.6-0.42-3.4-0.56-3.7-0.044-0.11-0.049-0.36-0.012-0.55s-0.13-0.48-0.36-0.62c-0.24-0.15-0.46-0.65-0.49-1.1s-0.21-0.84-0.4-0.84c-0.18 0-0.22-0.18-0.089-0.39 0.13-0.21 0.045-0.39-0.2-0.39s-0.33-0.18-0.2-0.39c0.13-0.22 0.026-0.39-0.24-0.39-0.26 0-0.36-0.12-0.22-0.26s-0.051-0.5-0.42-0.81c-0.45-0.37-0.48-0.47-0.092-0.3 0.32 0.14 0.15-0.12-0.39-0.59-0.54-0.47-0.71-0.73-0.39-0.59s0.058-0.21-0.59-0.79c-0.64-0.58-0.91-0.93-0.59-0.78 0.32 0.15-0.2-0.47-1.2-1.4-0.97-0.9-1.4-1.4-0.98-1.2 0.43 0.27-0.54-0.76-2.1-2.3-1.6-1.5-2.8-2.8-2.5-2.8 0.21-7e-3 -4-4.4-9.4-9.8s-9.9-9.7-10-9.6c-0.15 0.093-8.8-8.4-19-19s-19-19-19-19-2.1-1.7-4.3-4c-2.2-2.3-3.8-3.8-3.5-3.4 0.28 0.43 0.023 0.25-0.58-0.39-0.6-0.64-1.2-1.1-1.4-1.1-0.18 0.056-0.43-0.16-0.56-0.49-0.12-0.32-0.38-0.49-0.58-0.37-0.19 0.12-0.46-0.056-0.59-0.39-0.13-0.34-0.39-0.51-0.58-0.39-0.19 0.12-0.35 0.019-0.35-0.22s-0.18-0.33-0.39-0.2-0.39 0.045-0.39-0.2c0-0.24-0.16-0.34-0.36-0.21-0.2 0.12-0.48 0.043-0.61-0.18s-0.41-0.3-0.61-0.18c-0.2 0.12-0.36 0.02-0.36-0.23 0-0.25-0.26-0.36-0.57-0.24s-0.67 0.06-0.79-0.14-0.47-0.26-0.78-0.14-0.77 0.077-1-0.088c-0.27-0.17-1.4-0.35-2.5-0.41-2.4-0.14-124-0.37-124-0.24m90 0.78c-16 0.056-41 0.056-57 0-16-0.057-2.7-0.1 28-0.1 31 0 44 0.046 28 0.1m50 8.5c0.73 0.75 1.2 1.4 1.1 1.4s-0.79-0.62-1.5-1.4c-0.73-0.75-1.2-1.4-1.1-1.4 0.11 0 0.79 0.62 1.5 1.4m-111-0.68c0.25 0.16-0.41 0.31-1.5 0.35-1.1 0.033-1.8-0.099-1.7-0.29 0.26-0.42 2.5-0.46 3.2-0.053m68 0.092c0 0.22-0.66 0.37-1.5 0.34l-1.5-0.051 1.4-0.29c0.75-0.16 1.4-0.31 1.5-0.34 0.054-0.028 0.098 0.12 0.098 0.34m22 0.22c0.095 0.096-1.6 0.15-3.7 0.13-2.3-0.028-3.4-0.15-2.7-0.3 1.2-0.27 6.1-0.13 6.4 0.18m9.7 1.1c0.85 0.59 5 4.5 9.3 8.7 25 24 43 43 43 43 0.18 0.32-6.7-6.4-15-15-17-17-33-32-36-35-2.6-2.3-3.9-2.9-6.8-2.9-1.4 0-2.6-0.14-2.6-0.3 0-0.81 6.2 0.17 7.7 1.2m-132-0.86c-12 1.7-22 10-25 22l-0.9 3.1-0.082 141c-0.054 91 0.054 143 0.3 145 1.6 13 10 23 23 27 3.3 0.87 183 0.9 187 0.034 15-3.2 24-15 24-32 0-3.2 0.15-5.3 0.38-5.3 0.5 0 0.49 6.3-0.027 11-1.6 13-10 24-23 27-3.6 1-181 1.3-187 0.33-12-2.1-22-11-25-24-0.9-3.7-1.1-288-0.16-292 3-13 16-24 27-24 1.1 6e-3 0.88 0.1-0.98 0.37m40-0.19c-0.37 0.097-1.1 0.1-1.6 7e-3 -0.49-0.093-0.18-0.17 0.68-0.18 0.86-5e-3 1.3 0.072 0.88 0.17m13 0.011c-0.59 0.089-1.6 0.089-2.1 0-0.59-0.09-0.11-0.16 1.1-0.16 1.2 0 1.7 0.073 1.1 0.16m15-0.011c-0.37 0.097-1.1 0.1-1.6 7e-3 -0.49-0.093-0.18-0.17 0.68-0.18 0.86-5e-3 1.3 0.072 0.88 0.17m12 0c-0.37 0.097-1.1 0.1-1.6 7e-3 -0.49-0.093-0.18-0.17 0.68-0.18 0.86-5e-3 1.3 0.072 0.88 0.17m4.3 0.01c-0.59 0.089-1.6 0.091-2.3 4e-3s-0.22-0.16 1.1-0.16 1.9 0.069 1.3 0.16m9 6e-3c-0.81 0.084-2.1 0.084-2.9 0-0.8-0.085-0.15-0.15 1.5-0.15s2.3 0.069 1.5 0.15m-116 2.2c0 0.067-0.57 0.64-1.3 1.3l-1.3 1.1 1.1-1.3c1.1-1.2 1.4-1.4 1.4-1.1m175 6.7c2.5 2.5 4.4 4.5 4.3 4.5-0.11 0-2.2-2-4.7-4.5-2.5-2.5-4.4-4.5-4.3-4.5 0.11 0 2.2 2 4.7 4.5m-37 2.7c4.4 2.3 4.1 0.29 4.3 31l0.2 27 1.2 3.4c2.9 8.1 8.9 14 17 17 4.2 1.3 11 1.7 33 1.7 26 0.021 25-0.84 24 18-0.44 14-0.45 30-0.036 48 0.56 24 0.38 24-17 15-12-6.1-20-8.1-31-8.8-12-0.7-103-0.57-108 0.15-16 2.5-31 10-43 22-7.2 7.4-10 6.7-11-2.7-0.62-7-0.44-155 0.19-158 1.7-8 7.7-14 16-15 4.5-0.77 113-0.28 115 0.51m22 11c2.6 1.5 48 47 49 50 1.8 3.5 0.61 6.5-3.1 7.6-2.8 0.85-38 0.69-41-0.18-6.3-1.7-10-5.5-12-12-0.83-2.9-1.3-34-0.58-40 0.84-6.3 3.5-8.1 8.1-5.5m33 5.3c3.5 3.5 6.3 6.4 6.2 6.4-0.11 0-3.1-2.9-6.6-6.4-3.5-3.5-6.3-6.4-6.2-6.4 0.11 0 3.1 2.9 6.6 6.4m-204-0.68c-0.098 0.38-0.18 0.068-0.18-0.68s0.081-1.1 0.18-0.68 0.098 0.99 0 1.4m-0.37 210c-0.055 38-0.1 6.8-0.1-68s0.045-106 0.1-68 0.055 99 0 137m224-191c2 2 3.6 3.7 3.5 3.7-0.11 0-1.9-1.7-3.9-3.7-2-2-3.6-3.7-3.5-3.7 0.11 0 1.9 1.7 3.9 3.7m7.4 7.5 2.9 3-3-2.9c-2.8-2.7-3.2-3.1-2.9-3.1 0.059 0 1.4 1.4 3 3m6.6 20c4.9 5.6 5.2 6.1 5.1 11l-0.073 4.3-0.22-4.3c-0.33-6.5-0.04-6.1-18-24-3.7-3.7-6.7-6.9-6.6-7 0.017-0.37 16 16 19 20m-0.72-14c1.2 1.2 2 2.1 1.9 2.1s-1.2-0.97-2.3-2.1c-1.2-1.2-2-2.1-1.9-2.1 0.11 0 1.2 0.97 2.3 2.1m5.7 62c-0.094 0.49-0.17 0.18-0.18-0.68-4e-3 -0.86 0.072-1.3 0.17-0.88 0.098 0.37 0.1 1.1 8e-3 1.6m0.5 19c0 0.68-0.12 1.1-0.27 0.96-0.36-0.36-0.52-1.5-0.27-1.9 0.37-0.6 0.54-0.31 0.54 0.92m-0.12 28c-0.098 0.38-0.18 0.069-0.18-0.68s0.08-1.1 0.18-0.68c0.099 0.38 0.099 0.99 0 1.4m7e-3 3.7c-0.093 0.48-0.17 0.088-0.17-0.88 0-0.97 0.077-1.4 0.17-0.88 0.093 0.48 0.093 1.3 0 1.8m-66 2.8c20 0.65 37 8.2 49 22 33 38 9.1 97-40 102-5.2 0.54-107 0.53-112-9e-3 -24-2.9-45-22-51-45-9.2-36 13-70 50-78 6.9-1.4 73-2.1 104-1.1m66 6.1c-0.093 0.49-0.17 0.18-0.18-0.68-5e-3 -0.86 0.072-1.3 0.17-0.88 0.098 0.37 0.1 1.1 8e-3 1.6m7.8 10c-0.09 0.59-0.17 0.2-0.17-0.87s0.071-1.6 0.16-1.1c0.093 0.48 0.096 1.4 6e-3 2m-5.5 9.5c11 20 12 48 2.5 69-1.6 3.4-4.7 9.1-4.9 8.9-0.097-0.098 0.33-1 0.94-2.1 13-21 13-51 2.1-73-2.8-5.6-3-6.4-0.6-2.1m-128 4.7c-8 1.4-8.1 2.1-8.3 33l-0.1 24 1.1 2.2c2.2 4.6 4.1 5.1 16 5.2 12 0.023 15-0.75 16-4.7 1.4-4.2-1.9-6.6-10-7.2-7.9-0.56-10-2.5-10-8.4 0-4.3 2.4-6.8 7.1-7.6 4.3-0.7 5.6-1.1 6.9-2.2 3.5-3 1.7-7.4-3.5-8.4-1.2-0.22-3.1-0.58-4.4-0.8-4.4-0.8-6.4-3.1-6.4-7.4 0-4.9 2.1-6.7 8.9-7.6 8.5-1.2 11-6.6 4.3-9.9-2.1-1.1-13-1.6-17-0.8m-62 1.6c-2 0.42-3.2 1.5-4.4 3.8l-1.1 2.2-0.12 24c-0.083 17 0.014 25 0.33 26 1.3 6.2 7.9 7.6 11 2.1 0.82-1.7 0.92-2.6 1.2-10 0.57-19 3.4-19 14-0.59 6.2 10 7.4 12 9.7 13 3.5 2.4 7.7 1.2 9.6-2.9 0.82-1.8 0.83-2.1 0.83-27v-25l-0.98-2c-1.6-3.2-4.4-4.5-7-3.2-3.1 1.6-3.6 3.5-3.9 14-0.32 9.8-0.68 12-2.5 12-2.6 1.2-4.6-1.1-12-13-8.3-13-10-15-14-14m98 0.37c-2.3 0.92-3.7 4.5-3.1 7.7 0.3 1.7 6.1 29 8.5 40 2.4 11 4.2 14 8.6 14 3.5-0.34 4.7-2.1 7.8-11 2.7-8 3.9-9.8 6.3-9.8 2 0 3.3 2.2 6 10 1 3.1 2.1 6.1 2.4 6.7 3 6 8.9 5.8 12-0.32 1.2-2.5 11-46 12-49 0.42-5.1-1.7-8.2-5.4-7.9-3.9 0.38-5 2.4-7.9 14-3.8 16-6.7 17-11 5.6-2.6-6.7-4.3-8.6-7.8-8.6-3.3 2e-3 -4.8 1.7-7.9 8.7-4.8 11-7.7 9.2-11-6.1-2.2-12-4.5-15-9.2-13m108 23c-0.098 0.38-0.18 0.068-0.18-0.68s0.08-1.1 0.18-0.68c0.099 0.38 0.099 0.99 0 1.4m0 15c-0.098 0.38-0.18 0.068-0.18-0.68s0.08-1.1 0.18-0.68c0.099 0.38 0.099 0.99 0 1.4m-19 44c0.06 4.7-0.011 8.6-0.16 8.7-0.15 0.15-0.28-3.7-0.29-8.6-0.012-4.9 0.058-8.8 0.16-8.7 0.098 0.099 0.23 4 0.29 8.6m8-4.3c-0.094 0.49-0.17 0.18-0.18-0.68-4e-3 -0.86 0.072-1.3 0.17-0.88 0.098 0.37 0.1 1.1 8e-3 1.6m-225 0.94c0.74 0.35 2.8 2.2 4.6 4.1 11 12 23 18 40 21 8.5 1.5 108 1.8 118 0.42 12-1.7 21-5.2 31-12 9.4-6.1 12-4.2 12 8-0.5 10-5.5 17-15 19-4.8 0.97-180 1.1-183 0.097-11-3.3-14-9.4-14-27-0.022-14 1.4-17 6.5-14m215 49c0 0.067-0.57 0.64-1.3 1.3l-1.3 1.1 1.1-1.3c1.1-1.2 1.4-1.4 1.4-1.1m-204 12c0.15 0.24-0.41 0.37-1.4 0.34l-1.7-0.051 1.4-0.29c0.75-0.16 1.4-0.31 1.4-0.34s0.18 0.12 0.32 0.34m179 0.25c0.09 0.078-0.84 0.14-2.1 0.14-1.4 0-2.1-0.15-2-0.38 0.21-0.34 3.6-0.13 4.1 0.24" fill="#0e435d"/>
<path d="m113 49c-5.5 1.5-8.1 3.9-9.9 9.2-1.1 3.4-1.4 13-1.7 59-0.13 19-0.44 46-0.68 58-0.62 33-0.62 37 0.084 38 0.32 0.38 0.53 0.75 0.49 0.82-0.048 0.073 0.015 0.4 0.14 0.72 0.49 1.3 1.9 0.52 5.4-2.9 6.7-6.6 18-13 29-17 11-3.5 16-4.1 35-4.2 20-0.012 36-1.2 43-3.1 0.86-0.24 2.4-0.6 3.3-0.79 1.9-0.39 6.6-2.7 6.6-3.2 0-0.18 0.18-0.32 0.41-0.32 0.56 0 4.7-2.9 5.7-4 0.46-0.5 3.1-2.3 6-4 28-17 32-20 45-35 5.3-5.8 8-7.4 11-6.3 1.5 0.49 3.1 3 3.1 4.8 0 0.33 0.18 1.4 0.4 2.3 0.22 0.92 0.94 4 1.6 6.9 1.4 6.2 3.1 11 4.5 12l0.94 1-0.23-16c-0.24-16-0.38-18-1.8-19-1.9-1.8-4.5-2-25-2-10-0.011-20-0.19-22-0.39-12-1.5-22-10-26-22-0.87-2.9-0.89-3.3-1-28l-0.14-25-0.86-0.27c-0.47-0.15-0.95-0.41-1.1-0.59-0.8-1.2-108-1.8-112-0.54m113 93c7.9 2.4 7.6 12-0.43 14-2.5 0.66-70 0.77-74 0.13-9.8-1.7-10-12-0.43-14 3.1-0.6 73-0.48 75 0.13m-64 67c-26 1.1-46 14-55 35-3.5 8.5-3.3 20 0.33 25 0.5 0.66 1.3 2 1.7 3 0.92 2.1 3.1 4.1 4.8 4.5 2.3 0.5 2.8-0.72 3.7-9 0.29-2.6 0.62-5 0.74-5.5 0.12-0.43 0.39-4.5 0.62-9 0.69-14 2.5-19 8.8-22 7-3.4 13-0.6 20 10 1.7 2.6 3.6 5.1 4.2 5.7l1.1 0.98 0.7-0.86c0.39-0.48 0.89-2.1 1.1-3.8 1.9-13 13-18 21-10 3 2.6 3.3 2.6 6.7-0.35 4-3.5 5.5-4.1 11-4.8 16-1.8 17-2 19-4.1 2.1-2.3 7.1-4 15-4.9 1.5-0.18 2.1-0.39 1.8-0.61-0.36-0.23-0.16-0.34 0.64-0.37 0.64-0.017 4.9-0.46 9.4-0.99 4.5-0.53 9.8-1.1 12-1.4 6.2-0.69 14-2.2 11-2.3-0.26-7e-3 -0.38-0.27-0.25-0.6 0.12-0.32-0.014-0.65-0.3-0.72s-1.4-0.44-2.5-0.8c-5.3-1.8-71-3.3-97-2.2" fill="#f6bc47"/>
<path d="m244 61c-1.1 3-0.72 36 0.49 38 1.4 3.1 2.6 4.4 5.4 5.8l2.6 1.3 17 0.12c21 0.15 22-0.055 20-4.1-0.59-1.3-35-36-40-41-3.1-2.7-4.7-2.9-5.7-0.45m57 111c-0.35 2.3-1.9 7.3-3.2 9.9-0.55 1.2-1.6 4.5-2.4 7.4-2.3 8.9-2.3 8.9-13 6-9.6-2.6-23-3.6-40-2.9l-9.4 0.34 15 0.23c20 0.3 25 1.4 39 7.2 13 5.5 13 5.1 14-11 0.13-3 0.42-8.5 0.65-12 0.41-6.6 0.32-8.9-0.21-5.4m-201 155c-0.26 0.48-0.55 2.9-0.65 5.4-0.57 14 3.2 20 13 21 4.1 0.43 25-0.088 32-0.8 2.3-0.22 5.6-0.51 7.3-0.64 4.4-0.33 3.4-0.9-3.6-2.1-19-3.2-29-7.8-41-19-5.7-5.3-6.8-6-7.7-4.2m192 14c-4.8 2.9-9.1 4.7-17 6.9-6.5 2-7.2 2.3-7.2 3 0 1.9 21 1.8 24-0.054 4-2 6.7-7.6 5.3-11-0.62-1.6-1.7-1.4-6 1.2" fill="#47c3c8"/>
<path d="m118 44c0.7 0.087 1.8 0.087 2.5 0s0.13-0.16-1.3-0.16c-1.4 0-2 0.071-1.3 0.16m20-2e-3c0.59 0.089 1.5 0.087 2-6e-3 0.48-0.092-6e-3 -0.17-1.1-0.16s-1.5 0.079-0.87 0.17m22-4e-3c0.49 0.093 1.2 0.09 1.6-8e-3 0.37-0.098-0.024-0.17-0.88-0.17-0.86 4e-3 -1.2 0.084-0.68 0.18m3.1 0c0.49 0.093 1.2 0.09 1.6-8e-3 0.37-0.098-0.024-0.17-0.88-0.17-0.86 4e-3 -1.2 0.084-0.68 0.18m3.1 0c0.49 0.093 1.2 0.09 1.6-8e-3 0.37-0.098-0.024-0.17-0.88-0.17-0.86 4e-3 -1.2 0.084-0.68 0.18m60 2.6c0.39 0.68 0.55 6.8 0.72 27 0.21 26 0.23 26 1.1 29 3.6 12 14 21 26 22 1.6 0.2 11 0.38 22 0.39 24 0.024 26 0.3 26 5.2 0.18 1.4 0.55 20 0.6 31 0.019 3.7 0.66 4.1 0.74 0.39 0.031-1.4 0.25-8.5 0.48-16 0.78-24 3.4-22-28-22-26-0.28-26-0.27-32-3.3-5.8-2.9-11-8.3-14-14-2.2-5-2.2-4.9-2.5-32l-0.23-25-0.91-1.5c-0.98-1.6-1.6-2-0.76-0.59m-129 49c0 18 0.047 25 0.11 16 0.058-9 0.058-24 0-33-0.059-9-0.11-1.6-0.11 16m53 47c-9.7 1.9-9.4 13 0.43 14 3.7 0.65 71 0.53 74-0.13 8-2.1 8.3-12 0.43-14-2-0.61-72-0.74-75-0.13m-53 45c0.033 26 0.085 28 0.73 29 1.4 2.6 3.1 2.2 7-1.4 12-12 25-18 41-21 7-1.4 12-1.6 42-1.6 16-0.031 28-0.19 27-0.35-5.4-0.57-57-0.9-62-0.39-17 1.7-35 9.8-46 20-3.2 3.1-6 5.1-6.7 4.7-1.8-1.1-2-3.2-2.3-31l-0.28-26 0.036 28m125 4.8c0.38 0.098 0.99 0.098 1.4 0 0.38-0.099 0.068-0.18-0.68-0.18s-1.1 0.08-0.68 0.18m-67 16c-26 2.5-48 20-53 44-8.1 32 12 66 42 70 6.8 1 28 0.51 55-1.3 4.8-0.32 15-0.68 22-0.79 7.1-0.11 14-0.29 14-0.4 0.86-0.11 6.4-0.35 12-0.55 20-0.68 32-5.1 44-17 5.5-5.4 13-19 14-26 0.15-0.93 0.44-1.6 0.66-1.4 0.21 0.13 0.34-1e-3 0.3-0.29-0.048-0.29 0.011-0.79 0.13-1.1 0.3-0.79 1.4-6.9 1.8-11 3.2-25-16-49-44-54-5.9-1.2-99-2-109-0.92m84 1.9c13 0.63 18 1.1 20 1.8 1.1 0.36 2.2 0.72 2.5 0.8s0.43 0.4 0.3 0.72c-0.12 0.32-9e-3 0.59 0.25 0.6 2.5 0.063-5 1.6-11 2.3-1.9 0.22-7.2 0.83-12 1.4-4.5 0.53-8.7 0.98-9.4 0.99-0.81 0.022-1 0.14-0.64 0.37 0.35 0.22-0.26 0.43-1.8 0.61-7.5 0.9-12 2.6-15 4.9-1.9 2.1-2.7 2.3-19 4.1-6 0.68-7.5 1.3-11 4.8-3.4 3-3.7 3-6.7 0.35-8.7-7.7-19-2.6-21 10-0.24 1.6-0.74 3.3-1.1 3.8l-0.7 0.86-1.1-0.98c-0.58-0.54-2.5-3.1-4.2-5.7-7.1-11-13-13-20-10-6.2 3.1-8.1 7.7-8.8 22-0.22 4.5-0.5 8.6-0.62 9-0.12 0.43-0.45 2.9-0.74 5.5-0.92 8.3-1.4 9.5-3.7 9-1.7-0.38-3.9-2.4-4.8-4.5-0.43-0.97-1.2-2.3-1.7-3-3.6-4.8-3.8-17-0.33-25 7.2-18 23-30 45-34 5.9-1.1 66-1.3 87-0.36m-27 24c11 3.9 7.4 15-4.7 16-8.2 0.82-8.7 7.6-0.7 8.8 6.9 1.1 9.8 2.8 11 6.6 1.8 5.4-1.8 9.9-9.1 11-5.1 0.88-6.4 1.8-6.4 4.4 0 3.1 1.5 3.8 8.4 4.3 8.8 0.59 13 3.4 13 9.4 0.76 8.4-4.6 12-18 12-23-0.17-26-3.2-24-29 0.22-3.5 0.5-12 0.62-18 0.37-19 1.3-23 7.8-25 3.5-1.5 18-1.7 22-0.42m76-0.33c3.6 1.1 6.3 4.1 7.1 8.2 0.61 2.9 0.41 5.4-1.2 14-0.2 1.1-0.72 4.1-1.2 6.5-0.95 5.5-1.9 11-2.2 12-0.11 0.54-0.48 2.6-0.82 4.5-0.33 1.9-0.96 4.9-1.4 6.6-0.44 1.7-0.95 4.3-1.1 5.8-0.48 3.7-2.5 9.5-4.1 12-5.7 7.8-18 6-22-3.1-0.5-1.3-1.2-3-1.5-3.9-1.4-3.6-2.2-3.3-4.4 1.8-3.1 7.2-7.9 10-14 8.4-5.5-1.5-7.9-5.3-9.5-15-3.1-19-4.2-26-5.9-34-2.9-15-2.9-16-0.27-19 5.8-7.6 14-3.3 17 9.1 2 8.2 2.9 8.8 6.4 3.8 4.1-5.7 8.8-7.4 14-4.8 1.9 1 2.6 1.8 5.9 6.2 2.5 3.4 3.7 2 6-6.3 2.1-7.8 4.8-11 9.4-12 2.1-0.43 2.4-0.41 4.6 0.24m-151 2.5c2.6 1.4 3.8 2.9 9.3 12 9.9 16 11 16 12 1.3 0.53-10 2.5-14 8.1-14 7.3-0.47 8.9 3.3 9.5 23 0.22 7 0.61 17 0.87 23 0.69 15-0.61 20-6.6 23-5.6 2.7-11-0.098-16-8.5-1.4-2.3-3.6-6.1-5-8.4-6-10-7.5-9.8-7.9 1.9-0.16 4.3-0.48 7.6-0.8 8.5-3.5 9.7-16 8.5-17-1.7-0.76-4.2 0.075-50 0.97-53 1.9-6.1 7.4-8.6 13-5.8" fill="#f27654"/>
<path d="m119 43c-7.3 0.17-9.7 0.36-11 0.85-5.5 2.1-9 5.8-11 12-0.86 2.6-1.4 156-0.52 160 1.1 5.3 4.4 5 11-0.86 14-13 29-19 47-21 1.9-0.21 15-0.55 29-0.76 37-0.56 50-0.86 50-1.1-0.41-0.41-75-0.055-80 0.38-18 1.6-34 8.8-49 22-3.9 3.6-5.6 3.9-7 1.3-1.3-2.5-1.7-155-0.35-160 1.8-6.5 6.2-11 13-12 1.9-0.4 14-0.49 57-0.44 62 0.076 57-0.19 59 3.1l0.89 1.4 0.23 25c0.24 27 0.24 27 2.5 32 2.6 5.8 7.8 11 14 14 6.2 3 6.1 3 32 3.3 25 0.28 25 0.2 27 3.1 1.4 2.1 1.5 12 0.34 37-0.23 4.9 0.27 3.7 1.3-3.3 1.5-10 2.1-31 0.97-34-1.9-4.6-2.6-4.8-24-4.8-34-0.027-39-1.1-46-10-5.6-7.2-5.6-7.5-5.9-36-0.2-18-0.4-25-0.77-26-0.66-2.2-2.9-4.5-4.9-5.1-1.7-0.46-88-0.81-105-0.42m31 163c-38 5.9-61 41-51 78 5.9 23 27 42 51 45 4.4 0.54 107 0.55 112 9e-3 50-5.1 73-65 40-102-8.3-9.6-20-16-34-20l-3.5-0.86-55-0.084c-45-0.068-56 0.015-59 0.45m98 1.3c16 0.43 20 1.4 29 5.9 20 10 32 30 29 50-0.48 3.7-1.5 9.8-1.8 11-0.12 0.32-0.18 0.82-0.13 1.1 0.048 0.29-0.084 0.42-0.3 0.29-0.21-0.13-0.5 0.5-0.66 1.4-1.1 6.8-8.4 20-14 26-12 11-23 16-44 17-5.9 0.2-11 0.44-12 0.55-0.86 0.1-7.4 0.28-14 0.4-7.1 0.11-17 0.47-22 0.79-27 1.8-48 2.3-55 1.3-30-4.5-50-38-42-70 5.8-23 28-41 53-44 4.4-0.43 79-0.46 94-0.046m-56 25c-9.7 1.4-11 4.9-12 26-0.12 6.3-0.4 14-0.62 18-1.6 26 0.93 29 24 29 14 0.099 19-3.3 18-12-0.55-6-4.5-8.8-13-9.4-6.9-0.46-8.4-1.2-8.4-4.3 0-2.7 1.3-3.5 6.4-4.4 7.2-1.2 11-5.7 9.1-11-1.3-3.8-4.1-5.5-11-6.6-8-1.2-7.5-8 0.7-8.8 10-1 15-8.7 7.9-14-2.9-2.4-13-3.5-21-2.4m90-0.023c-4.6 0.93-7.3 4.4-9.4 12-2.2 8.3-3.5 9.7-6 6.3-3.3-4.4-4-5.2-5.9-6.2-4.8-2.6-9.5-0.94-14 4.8-3.5 5-4.4 4.5-6.4-3.8-3-12-11-17-17-9.1-2.6 3.4-2.6 4.7 0.27 19 1.6 8.3 2.7 15 5.9 34 1.6 9.8 4 14 9.5 15 6.3 1.7 11-1.1 14-8.4 2.2-5.1 3-5.4 4.4-1.8 0.34 0.86 1 2.6 1.5 3.9 3.6 9.1 16 11 22 3.1 1.6-2.2 3.6-8 4.1-12 0.19-1.4 0.7-4 1.1-5.8 0.44-1.7 1.1-4.7 1.4-6.6 0.33-1.9 0.7-4 0.82-4.5 0.28-1.3 1.2-6.6 2.2-12 0.43-2.5 0.94-5.4 1.2-6.5 1.6-8.6 1.8-11 1.2-14-0.84-4.1-3.5-7.1-7.1-8.2-2.2-0.65-2.5-0.66-4.6-0.24m-153 1.8c-2.7 0.71-5.3 3.5-6.2 6.7-0.9 3-1.7 49-0.97 53 1.9 10 14 11 17 1.7 0.32-0.86 0.63-4.3 0.8-8.5 0.45-12 1.9-12 7.9-1.9 1.4 2.3 3.6 6.1 5 8.4 5 8.4 10 11 16 8.5 6-2.9 7.3-7.3 6.6-23-0.26-5.8-0.65-16-0.87-23-0.61-19-2.2-23-9.5-23-5.6 0.36-7.5 3.7-8.1 14-0.75 15-2.1 14-12-1.3-7.5-12-10-14-16-13m80 1.8c6.5 3.3 4.1 8.7-4.3 9.9-6.8 0.95-8.9 2.8-8.9 7.6 0 4.3 2 6.6 6.4 7.4 1.2 0.22 3.2 0.58 4.4 0.8 5.2 0.95 7 5.4 3.5 8.4-1.3 1.1-2.6 1.5-6.9 2.2-4.7 0.77-7.1 3.3-7.1 7.6 0 5.9 2.4 7.9 10 8.4 8.2 0.58 12 2.9 10 7.2-1.3 3.9-3.9 4.7-16 4.7-12-0.023-14-0.6-16-5.2l-1.1-2.2 0.1-24c0.12-29 0.19-30 4.8-32 3.7-1.9 17-2.1 21-0.35m-74 2c2 1.4 3.3 3.2 9.4 13 7.6 12 9.6 14 12 13 1.9-0.84 2.2-2.6 2.5-12 0.37-11 0.88-13 3.9-14 2.5-1.3 5.3-0.043 7 3.2l0.98 2v25c0 25-0.01 25-0.83 27-1.9 4-6.1 5.3-9.6 2.9-2.3-1.6-3.5-3.4-9.7-13-11-18-14-18-14 0.59-0.24 7.9-0.34 8.8-1.2 10-2.6 5.4-9.3 4.1-11-2.1-0.32-1.5-0.42-9.1-0.33-26l0.12-24 1.1-2.2c2-4.1 5.8-5.2 9.4-2.7m97-0.55c2.6 1.2 3.5 3.5 5.2 13 2.8 15 5.7 17 11 6.1 3.1-7 4.6-8.7 7.9-8.7 3.5-2e-3 5.2 1.9 7.8 8.6 4.5 12 7.4 10 11-5.6 2.8-12 3.9-14 7.9-14 3.7-0.35 5.8 2.8 5.4 7.9-0.3 3.7-11 47-12 49-2.8 6.1-8.7 6.3-12 0.32-0.3-0.59-1.4-3.6-2.4-6.7-2.6-8-3.9-10-6-10-2.4 0-3.6 1.8-6.3 9.8-3.1 9.1-4.3 11-7.8 11-4.4 0.42-6.2-2.4-8.6-14-2.3-11-8.2-38-8.5-40-0.97-5.5 2.8-9.5 7.1-7.5" fill="#dc4d5c"/>
<path d="m113 44c-8.5 0.87-14 5.6-15 14-0.55 2.8-0.22 135 0.37 149 0.37 8.4 0.98 10 3.1 9.5 0.8-0.3 0.83-0.4 0.29-1-0.33-0.38-0.61-0.87-0.62-1.1-0.017-0.22-0.23-0.63-0.47-0.92-0.55-0.66-0.54-7 0.046-38 0.24-13 0.55-39 0.68-58 0.32-46 0.59-55 1.7-59 1.8-5.4 4.4-7.7 10-9.2 4.8-1.2 111-0.71 112 0.56 0.73 1.1 2 0.84 2-0.47 0-1.9-1.5-3.9-3.3-4.5-1.6-0.53-105-0.94-110-0.44m174 91c-1.1 0.52-3.2 2.4-5.3 4.6-16 17-18 18-46 36-2.8 1.7-5.5 3.5-6 4-1 1.1-5.1 4-5.7 4-0.23 0-0.41 0.14-0.41 0.32 0 0.52-4.7 2.8-6.6 3.2-0.97 0.2-2.5 0.55-3.3 0.79-4.2 1.2-12 2-23 2.7l-5.1 0.29 3.3 0.27c4.4 0.36 39 0.85 60 0.86 16 0.011 18 0.088 23 0.89 5.9 0.86 8.2 0.98 8.2 0.44 0-0.14 0.4-0.37 0.88-0.49 0.91-0.24 2.8-2 6.6-6 2.2-2.3 4.2-3.9 4.2-3.4 3e-3 0.17 0.14 0.088 0.31-0.17 0.38-0.6 2.2-0.68 4.1-0.18l1.5 0.38 0.96-2c3.6-7.5 4.9-19 2.4-20-1-0.56-2.9-5.9-4.4-12-0.75-3.2-1.5-6.5-1.8-7.5s-0.39-1.9-0.39-2.3c0-4.1-3.9-6.3-7.8-4.4" fill="#e1d87b"/>
<path d="m110 20c-21 2.1-34 15-37 35-0.55 5-0.53 282 0.013 288 2.2 21 15 34 36 36 5.8 0.58 177 0.55 183-0.026 17-1.7 29-12 34-27 1.8-5.7 2-8.6 2.3-25l0.25-15 2.4-5.1c12-25 12-57-0.78-81l-1.6-3.1-0.22-56c-0.24-61-0.13-59-2.4-64-2.2-4.9-9.1-12-53-55-26-25-26-26-31-27l-3.1-0.88-64-0.044c-35-0.024-64 0.018-65 0.092m126 1.4c1.1 0.062 2.2 0.25 2.5 0.41 0.27 0.16 0.74 0.2 1 0.088s0.65-0.052 0.78 0.14 0.48 0.26 0.79 0.14 0.57-0.015 0.57 0.24c0 0.25 0.16 0.35 0.36 0.23 0.2-0.12 0.48-0.043 0.61 0.18s0.41 0.3 0.61 0.18c0.2-0.12 0.36-0.029 0.36 0.21 0 0.24 0.18 0.33 0.39 0.2s0.39-0.045 0.39 0.2 0.16 0.34 0.35 0.22c0.19-0.12 0.45 0.057 0.58 0.39 0.13 0.34 0.39 0.51 0.59 0.39 0.19-0.12 0.45 0.046 0.58 0.37 0.12 0.32 0.37 0.54 0.56 0.49 0.18-0.055 0.82 0.43 1.4 1.1 0.6 0.64 0.86 0.82 0.58 0.39-0.28-0.43 1.3 1.1 3.5 3.4 2.2 2.3 4.2 4.1 4.3 4s8.8 8.4 19 19 19 19 19 19c0.15-0.094 4.7 4.2 10 9.6s9.6 9.8 9.4 9.8c-0.21 8e-3 0.93 1.3 2.5 2.8 1.6 1.5 2.6 2.6 2.1 2.3-0.43-0.27 9e-3 0.25 0.98 1.2 0.97 0.9 1.5 1.5 1.2 1.4-0.32-0.15-0.059 0.2 0.59 0.78 0.64 0.58 0.91 0.93 0.59 0.79s-0.15 0.12 0.39 0.59c0.54 0.47 0.71 0.73 0.39 0.59-0.39-0.17-0.36-0.069 0.092 0.3 0.37 0.31 0.56 0.67 0.42 0.81s-0.039 0.26 0.22 0.26c0.26 0 0.37 0.18 0.24 0.39-0.13 0.22-0.045 0.39 0.2 0.39s0.33 0.18 0.2 0.39c-0.13 0.22-0.092 0.39 0.089 0.39 0.18 0 0.36 0.38 0.4 0.84s0.26 0.96 0.49 1.1c0.24 0.15 0.4 0.43 0.36 0.62s-0.032 0.44 0.012 0.55c0.14 0.36 0.41 2.1 0.56 3.7 0.08 0.86 0.16 26 0.18 56 0.026 37 0.17 54 0.44 55 0.22 0.14 0.3 0.42 0.17 0.62-0.31 0.5 0.96 4.3 1.4 4.3 0.21 0 0.27 0.18 0.14 0.39-0.13 0.22-0.045 0.39 0.2 0.39 0.24 0 0.33 0.18 0.2 0.39-0.13 0.21-0.045 0.39 0.2 0.39s0.33 0.18 0.2 0.39c-0.13 0.22-0.044 0.39 0.2 0.39 0.24 0 0.33 0.18 0.2 0.39s-0.045 0.39 0.2 0.39c0.24 0 0.33 0.18 0.2 0.39-0.13 0.22-0.026 0.39 0.24 0.39s0.38 0.1 0.25 0.23c-0.31 0.31 0.48 2.5 0.91 2.5 0.19 0 0.25 0.24 0.13 0.54s0.039 0.78 0.34 1.1c0.3 0.3 0.47 0.76 0.38 1-0.089 0.27 0.028 0.48 0.26 0.48s0.38 0.13 0.34 0.29c-0.14 0.47 0.94 4 1.3 4.2 0.18 0.11 0.22 0.46 0.1 0.77-0.12 0.32-0.042 0.57 0.18 0.57 0.22 0 0.3 0.35 0.19 0.78s-0.024 0.78 0.2 0.78c0.22 0 0.31 0.35 0.2 0.78-0.12 0.46-0.012 0.78 0.26 0.78 0.25 0 0.37 0.15 0.26 0.32-0.11 0.18 0.15 2 0.57 4 1.5 7.2 1.9 23 0.64 30-0.35 2-0.55 3.8-0.45 4 0.1 0.16 0.023 0.39-0.17 0.51-0.3 0.19-1.4 4.7-1.4 5.9-4e-3 0.22-0.14 0.49-0.31 0.62-0.17 0.12-0.34 0.78-0.39 1.5-0.048 0.68-0.19 1.2-0.31 1.2-0.34 2e-3 -1.1 2.8-0.9 3.2 0.11 0.18-3e-3 0.33-0.25 0.33-0.25 0-0.36 0.25-0.24 0.56 0.12 0.31 0.065 0.62-0.12 0.68-0.18 0.068-0.39 0.48-0.47 0.9-0.074 0.43-0.27 0.88-0.45 1s-0.34 0.61-0.38 1.1-0.17 0.84-0.31 0.84c-0.43 0-1.2 2-0.9 2.4 0.17 0.27 0.075 0.31-0.26 0.1-0.38-0.23-0.45-0.14-0.26 0.35 0.17 0.45 0.11 0.58-0.2 0.39-0.3-0.19-0.37-0.062-0.2 0.39s0.11 0.58-0.2 0.39c-0.3-0.19-0.37-0.064-0.2 0.37 0.14 0.36 0.068 0.65-0.15 0.65-0.22 0-0.29 0.18-0.16 0.39 0.13 0.22 0.063 0.39-0.15 0.39-1 0-1.3 3.4-1.7 19-0.34 17-0.41 18-0.89 19-0.16 0.26-0.2 0.73-0.081 1 0.12 0.3 0.032 0.67-0.19 0.8s-0.31 0.49-0.19 0.79c0.12 0.3 0.076 0.55-0.088 0.55-0.32 0-1.4 3.4-1.4 4.2 0.018 0.27-0.095 0.49-0.25 0.49-0.46 0-1.2 2-0.94 2.4 0.17 0.27 0.074 0.31-0.26 0.1-0.38-0.23-0.45-0.14-0.26 0.35 0.14 0.37 0.1 0.58-0.084 0.46-0.35-0.22-1.5 2.1-1.3 2.6 0.057 0.18-0.077 0.21-0.3 0.075-0.37-0.23-0.58 0.3-0.44 1.1 0.03 0.18-0.11 0.22-0.3 0.1-0.36-0.22-1 0.86-0.88 1.5 0.039 0.18-0.065 0.25-0.23 0.16-0.17-0.091-0.83 0.47-1.5 1.2-0.64 0.77-0.82 1.1-0.4 0.82 0.42-0.32-0.18 0.38-1.3 1.6-1.2 1.2-2.3 2.1-2.5 2.1-0.18 0-0.69 0.44-1.1 0.98s-0.67 0.74-0.52 0.46c0.22-0.42 0.13-0.43-0.53-0.019-0.44 0.27-0.69 0.66-0.57 0.87s0.026 0.25-0.22 0.093c-0.25-0.16-0.56-0.013-0.69 0.33-0.13 0.33-0.38 0.52-0.57 0.4-0.18-0.11-0.69 0.15-1.1 0.59-0.44 0.44-0.89 0.78-1 0.76-0.47-0.089-2.5 0.94-2.5 1.3 0 0.19-0.13 0.3-0.29 0.25-0.44-0.15-5.2 1.4-5.2 1.7 0 0.14-0.35 0.16-0.78 0.052-0.43-0.11-0.78-0.052-0.78 0.13s-0.57 0.36-1.3 0.38c-0.7 0.024-3 0.24-5.1 0.49-5.2 0.61-177 0.62-182 0.015-1.9-0.23-4-0.47-4.5-0.52-0.56-0.054-1.2-0.22-1.5-0.38-0.25-0.16-0.63-0.17-0.85-0.04-0.21 0.13-0.39 0.075-0.39-0.13 0-0.32-2.3-0.97-3-0.83-0.14 0.027-0.38-0.15-0.53-0.39-0.15-0.24-0.65-0.47-1.1-0.51s-0.84-0.23-0.84-0.44-0.11-0.26-0.24-0.13-0.5-0.015-0.81-0.33-0.73-0.47-0.93-0.35c-0.2 0.12-0.36 0.026-0.36-0.21 0-0.24-0.18-0.33-0.39-0.2-0.22 0.13-0.39 0.045-0.39-0.2s-0.16-0.34-0.35-0.22c-0.19 0.12-0.45-0.057-0.58-0.39-0.13-0.34-0.39-0.51-0.59-0.39-0.19 0.12-0.46-0.07-0.6-0.42-0.14-0.35-0.35-0.53-0.48-0.4s-0.58-0.15-1-0.63c-0.42-0.47-0.65-0.6-0.51-0.28 0.14 0.32-0.13 0.1-0.59-0.49-0.46-0.59-0.98-1-1.1-0.9s-1.2-0.73-2.2-1.8c-1.1-1.1-1.5-1.7-0.94-1.3 0.54 0.4 0.27 0.046-0.59-0.79-0.86-0.84-1.5-1.7-1.5-1.8 0.056-0.17-0.16-0.41-0.49-0.53-0.32-0.12-0.49-0.38-0.37-0.58s-0.056-0.46-0.39-0.59c-0.33-0.13-0.52-0.38-0.41-0.56 0.11-0.18-0.11-0.51-0.49-0.73-0.38-0.22-0.56-0.41-0.39-0.41 0.16-7e-3 -0.3-1.2-1-2.6-0.73-1.4-1.6-3.6-2-4.9s-0.86-2.2-1-2.2c-0.19 0-0.25-0.15-0.13-0.34s-0.09-1.5-0.46-3c-0.85-3.5-1.3-284-0.45-291 0.25-2.1 0.49-4.2 0.52-4.5s0.2-0.81 0.36-1.1c0.16-0.26 0.2-0.64 0.073-0.84-0.12-0.2-0.043-0.48 0.18-0.61s0.31-0.4 0.2-0.59c-0.11-0.18-0.026-0.45 0.2-0.59 0.22-0.14 0.31-0.4 0.2-0.59-0.12-0.18-0.027-0.45 0.2-0.59s0.3-0.41 0.18-0.61c-0.12-0.2-0.058-0.36 0.15-0.36 0.36 0 1-1.8 0.91-2.4-0.035-0.16 0.12-0.29 0.35-0.29 0.23 0 0.3-0.18 0.17-0.39-0.13-0.21-0.045-0.39 0.2-0.39s0.34-0.16 0.22-0.35c-0.12-0.19 0.058-0.46 0.39-0.58 0.34-0.13 0.5-0.41 0.37-0.63-0.13-0.22-0.047-0.39 0.19-0.39s0.34-0.16 0.22-0.35 0.048-0.45 0.37-0.58 0.54-0.39 0.49-0.6c-0.056-0.21 0.25-0.66 0.68-1 0.43-0.35 0.52-0.53 0.2-0.38-0.32 0.14-0.15-0.099 0.39-0.54s0.98-0.94 0.98-1.1c0-0.38 4.6-5 4.9-5 0.14 0 0.64-0.44 1.1-0.98s0.74-0.71 0.6-0.39c-0.14 0.32 0.1 0.15 0.55-0.39 0.44-0.54 0.82-0.8 0.83-0.59 0.012 0.22 0.2 0.079 0.42-0.3 0.22-0.38 0.57-0.59 0.77-0.47 0.2 0.12 0.37 0.03 0.37-0.21s0.16-0.34 0.35-0.22c0.19 0.12 0.46-0.058 0.58-0.39 0.13-0.33 0.41-0.5 0.63-0.36 0.22 0.13 0.39 0.046 0.39-0.19s0.18-0.33 0.39-0.2c0.21 0.13 0.39 0.026 0.39-0.24 0-0.26 0.11-0.37 0.25-0.23 0.14 0.14 0.62 0.04 1.1-0.21s0.96-0.42 1.1-0.38c0.16 0.046 0.29-0.1 0.29-0.33 0-0.23 0.16-0.31 0.36-0.19 0.2 0.12 0.48 0.043 0.61-0.18s0.4-0.31 0.59-0.2c0.18 0.11 0.45 0.026 0.59-0.2 0.14-0.22 0.4-0.31 0.59-0.2 0.18 0.12 0.45 0.027 0.59-0.2s0.41-0.3 0.61-0.18c0.2 0.12 0.58 0.091 0.84-0.073 0.26-0.16 0.75-0.34 1.1-0.39 0.33-0.05 1.1-0.18 1.8-0.3 0.64-0.11 2.3-0.3 3.7-0.42 1.4-0.12 2.6-0.26 2.6-0.31 0.14-0.13 122 0.095 124 0.24m-91 0.55c16 0.056 41 0.056 57 0 16-0.057 3-0.1-28-0.1-31 0-44 0.046-28 0.1m106 8.5c0.73 0.75 1.4 1.4 1.5 1.4s-0.4-0.62-1.1-1.4-1.4-1.4-1.5-1.4c-0.11 0 0.4 0.62 1.1 1.4m-114-0.62c-0.12 0.19 0.64 0.33 1.7 0.29 1.1-0.032 1.7-0.19 1.5-0.35-0.64-0.41-2.9-0.37-3.2 0.053m70 0.039-1.4 0.29 1.5 0.051c0.81 0.029 1.5-0.12 1.5-0.34s-0.044-0.37-0.098-0.34c-0.053 0.028-0.71 0.18-1.5 0.34m17 0.04c-0.69 0.15 0.42 0.28 2.7 0.3 2.1 0.025 3.8-0.032 3.7-0.13-0.31-0.31-5.2-0.44-6.4-0.18m8.4 0.052c0 0.16 1.2 0.3 2.6 0.3 2.9 0 4.2 0.55 6.8 2.9 2.8 2.5 19 18 36 35 8.6 8.5 15 15 15 15-0.29-0.51-18-19-43-43-9.7-9.5-9.9-9.7-14-10-1.7-0.12-3.1-0.093-3.1 0.072m-127 0.47c-11 2.5-20 12-23 23-0.9 3.8-0.74 288 0.16 292 3.1 13 13 22 25 24 5.8 1 183 0.69 187-0.33 13-3.7 22-14 23-27 0.51-4.2 0.53-11 0.027-11-0.23 0-0.38 2.1-0.38 5.3 0 17-9.3 29-24 32-4.1 0.87-184 0.84-187-0.034-13-3.3-22-14-23-27-0.25-2.1-0.36-53-0.3-145l0.082-141 0.9-3.1c3.4-12 13-20 25-22 1.9-0.26 2.1-0.36 0.98-0.37-0.86-4e-3 -2.5 0.21-3.7 0.47m41-0.28c0.49 0.094 1.2 0.09 1.6-7e-3 0.37-0.098-0.024-0.18-0.88-0.17-0.86 4e-3 -1.2 0.084-0.68 0.18m13 4e-3c0.59 0.089 1.6 0.089 2.1 0 0.59-0.09 0.11-0.16-1.1-0.16-1.2 0-1.7 0.073-1.1 0.16m15-4e-3c0.49 0.094 1.2 0.09 1.6-7e-3 0.37-0.098-0.024-0.18-0.88-0.17-0.86 4e-3 -1.2 0.084-0.68 0.18m12 0c0.49 0.094 1.2 0.09 1.6-7e-3 0.37-0.098-0.024-0.18-0.88-0.17-0.86 4e-3 -1.2 0.084-0.68 0.18m3.5 7e-3c0.7 0.087 1.8 0.085 2.3-4e-3s0.012-0.16-1.3-0.16-1.8 0.075-1.1 0.16m8.4 2e-3c0.81 0.084 2.1 0.084 2.9 0 0.81-0.085 0.15-0.15-1.5-0.15s-2.3 0.069-1.5 0.15m-114 3.3-1.1 1.3 1.3-1.1c0.7-0.63 1.3-1.2 1.3-1.3 0-0.3-0.32-0.036-1.4 1.1m176 5.6c2.5 2.5 4.6 4.5 4.7 4.5 0.11 0-1.8-2-4.3-4.5-2.5-2.5-4.6-4.5-4.7-4.5-0.11 0 1.8 2 4.3 4.5m18 19c3.5 3.5 6.5 6.4 6.6 6.4 0.11 0-2.7-2.9-6.2-6.4-3.5-3.5-6.5-6.4-6.6-6.4-0.11 0 2.7 2.9 6.2 6.4m-204-1.4c0 0.75 0.081 1.1 0.18 0.68s0.098-0.99 0-1.4-0.18-0.069-0.18 0.68m-0.29 142c0 75 0.045 106 0.1 68 0.055-38 0.055-99 0-137s-0.1-6.8-0.1 68m224-123c2 2 3.8 3.7 3.9 3.7 0.11 0-1.5-1.7-3.5-3.7-2-2-3.8-3.7-3.9-3.7-0.11 0 1.5 1.7 3.5 3.7m4.7 4.6c0 0.059 1.4 1.4 3 3l3 2.9-2.9-3c-2.7-2.8-3.1-3.2-3.1-2.9m-9.8 2.7c-6e-3 0.13 3 3.3 6.6 7 18 18 17 17 18 24l0.22 4.3 0.073-4.3c0.085-5.1-0.13-5.5-5.1-11-3.2-3.7-19-20-19-20m18 6c1.2 1.2 2.2 2.1 2.3 2.1s-0.76-0.97-1.9-2.1c-1.2-1.2-2.2-2.1-2.3-2.1-0.11 0 0.76 0.97 1.9 2.1m6 62c4e-3 0.86 0.084 1.2 0.18 0.68 0.093-0.49 0.09-1.2-8e-3 -1.6-0.098-0.37-0.17 0.024-0.17 0.88m0.14 19c-0.25 0.4-0.087 1.5 0.27 1.9 0.15 0.15 0.27-0.28 0.27-0.96 0-1.2-0.17-1.5-0.54-0.92m0.24 28c0 0.75 0.08 1.1 0.18 0.68 0.099-0.38 0.099-0.99 0-1.4-0.098-0.38-0.18-0.068-0.18 0.68m0.015 3.5c0 0.97 0.077 1.4 0.17 0.88 0.093-0.48 0.093-1.3 0-1.8-0.093-0.48-0.17-0.088-0.17 0.88m-7e-3 9.2c4e-3 0.86 0.084 1.2 0.18 0.68 0.094-0.49 0.09-1.2-8e-3 -1.6-0.097-0.37-0.17 0.024-0.17 0.88m7.8 9.8c3e-3 1.1 0.079 1.5 0.17 0.87 0.09-0.59 0.087-1.5-6e-3 -2-0.092-0.48-0.17 6e-3 -0.16 1.1m-4.8 12c11 23 11 52-2.1 73-0.62 1-1 2-0.94 2.1 0.22 0.22 3.3-5.4 4.9-8.9 9.6-21 8.5-49-2.5-69-2.4-4.2-2.2-3.4 0.6 2.1m16 27c0 0.75 0.08 1.1 0.18 0.68 0.099-0.38 0.099-0.99 0-1.4-0.098-0.38-0.18-0.069-0.18 0.68m0 15c0 0.75 0.08 1.1 0.18 0.68 0.099-0.38 0.099-0.99 0-1.4-0.098-0.38-0.18-0.068-0.18 0.68m-19 44c0.013 4.9 0.14 8.8 0.29 8.6 0.29-0.29 0.16-17-0.13-17-0.098-0.098-0.17 3.8-0.16 8.7m8.3-5.1c4e-3 0.86 0.084 1.2 0.18 0.68 0.093-0.49 0.09-1.2-8e-3 -1.6-0.098-0.37-0.17 0.024-0.17 0.88m-12 52-1.1 1.3 1.3-1.1c0.7-0.63 1.3-1.2 1.3-1.3 0-0.3-0.32-0.036-1.4 1.1m-204 11-1.4 0.29 1.7 0.051c1 0.032 1.6-0.099 1.4-0.34-0.13-0.22-0.28-0.37-0.32-0.34s-0.69 0.18-1.4 0.34m177 0.01c-0.14 0.23 0.65 0.38 2 0.38 1.2 0 2.2-0.063 2.1-0.14-0.43-0.37-3.9-0.58-4.1-0.24" fill="#04070b"/>
<path d="m293 182c-0.59 0.076-1.1 0.3-1.1 0.5 0 0.2-0.13 0.33-0.29 0.28-0.61-0.17-2.1 0.94-4.3 3.3-3.8 4.1-5.8 5.8-6.7 6-0.48 0.13-0.88 0.39-0.88 0.58 0 0.19-0.13 0.33-0.29 0.3-3.3-0.53 5.8 2.1 10 2.9 3.9 0.72 4.6-0.058 6.5-7.5 1.4-5.6 1.4-5.9 0.2-5.9-0.43 0-1.1-0.14-1.4-0.31-0.36-0.17-1.1-0.25-1.7-0.17" fill="#a2f6d1"/>
<path d="m111 41c-8 1.4-14 7.1-16 15-0.64 3-0.82 151-0.19 158 0.74 8.3 3.7 9.8 9 4.7 2.8-2.6 3.5-4 0.87-1.7-4.1 3.6-7.4 3.1-8.3-1.3-0.84-4-0.34-158 0.52-160 2.1-6.3 6.2-10 12-12 2.8-0.75 112-0.88 114-0.13 2.1 0.57 4.2 2.9 4.9 5.3 0.41 1.5 0.58 7.2 0.76 25l0.22 23 0.082-25c0.096-29 0.26-28-4-30l-1.6-0.84-56-0.055c-31-0.031-57 0.093-58 0.28m131 11c-2.8 1.5-3.2 4.7-2.9 26 0.21 21 0.58 23 5.4 27 4.7 4.4 6 4.6 29 4.7 20 0.032 21-0.044 23-2.1 3.4-3.4 2.9-4.1-24-31-26-27-27-27-30-25m5.7 6.9c2.3 1.2 41 41 42 43 1.9 4 0.85 4.2-20 4.1l-17-0.12-2.6-1.3c-6.1-3-6.3-3.9-6.5-25-0.14-21 0.083-22 4-20m56 101c-0.26 2-0.73 4.7-1 6-0.5 2.2-1 9.8-1.6 23-0.66 16-1.2 16-14 10-17-7.6-23-8-104-6.5-39 0.71-34 0.98 19 1.1 69 0.16 68 0.052 87 9.3 17 8.3 18 7.7 17-12-0.14-4.6-0.36-14-0.49-22-0.13-7.3-0.28-13-0.32-13-0.043-0.051-0.29 1.5-0.56 3.5m-134 45c-9.2 0.15-17 0.43-18 0.67-1.5 0.41-1.5 0.41 0.59 0.24 1.2-0.099 26-0.21 55-0.24 29-0.033 51-0.2 49-0.36-5.8-0.41-67-0.62-87-0.3m-73 111c-1.6 1.6-2 4.1-2 14 0.027 17 3.2 23 14 27 3.1 0.97 178 0.87 183-0.097 9-1.8 14-8.3 15-19 0.58-12-2.3-14-12-8-9.7 6.3-19 9.8-31 12-9.7 1.4-109 1-118-0.42-17-3-29-9.3-40-21-4.5-4.9-6.9-5.9-9.1-3.7m12 14c12 11 22 16 41 19 7 1.2 8 1.7 3.6 2.1-1.8 0.13-5.1 0.42-7.3 0.64-7.3 0.71-28 1.2-32 0.8-10-1.1-14-7-13-21 0.32-8 0.96-8.1 8.4-1.1m190 8.5c1.4 3.5-1.3 9.1-5.3 11-3.7 1.9-24 1.9-24 0.054 0-0.76 0.71-1.1 7.2-3 7.4-2.2 12-4.1 17-6.9 4.3-2.6 5.4-2.8 6-1.2" fill="#299cb4"/>
</g>
</svg>
