<svg width="16" height="16" version="1.1" xmlns="http://www.w3.org/2000/svg">
<defs>
<style type="text/css">.ColorScheme-Text {
color:#000;
}</style>
</defs>
<path class="ColorScheme-Text" d="m7.4 1c-0.3-0.044-0.71 0.064-1.3 0.25-1.6 0.49-1.7 0.7-1.1 2.5-0.51 0.35-0.89 0.9-1.3 1.3-1.8-0.61-2.1-0.44-2.5 1.2-0.46 1.6-0.19 1.8 1.6 2.2 0.024 0.46 0.13 0.92 0.33 1.4-1.6 1.1-1.8 1.5-0.71 2.7 1.1 1.2 1.4 1 2.8-0.16 0.64 0.41 1.4 0.66 2.2 0.76 0.32 1.9 0.65 2.1 2.3 1.6 1.6-0.51 1.7-0.67 1.2-2.5 0.51-0.35 0.89-0.9 1.3-1.3 1.7 0.59 2.2 0.53 2.5-1.1 0.38-1.7 0.18-1.8-1.6-2.2-0.024-0.46-0.14-0.92-0.33-1.4 1.6-1.1 1.8-1.5 0.72-2.7-1.1-1.2-1.4-1-2.8 0.16-0.64-0.41-1.4-0.67-2.2-0.77-0.39-1.3-0.61-1.8-1.1-1.8zm0.6 4.5a2.5 2.5 0 0 1 2.5 2.5 2.5 2.5 0 0 1-2.5 2.5 2.5 2.5 0 0 1-2.5-2.5 2.5 2.5 0 0 1 2.5-2.5z" fill="currentColor"/>
</svg>
