<svg width="400" height="436" version="1.1" viewBox="0 0 400 436" xmlns="http://www.w3.org/2000/svg">
<g fill-rule="evenodd">
<path d="m58 26c-0.58 0.93 0.4 1.2 2.7 0.85 0.14-0.025 0.36-0.32 0.49-0.65 0.27-0.7-2.7-0.89-3.1-0.2m200-0.12c-0.72 0.18-0.72 0.2 0 0.67 0.79 0.52 5.3 0.4 5.3-0.14 0-0.64-3.5-0.99-5.3-0.53m25 1.7c0 0.19 0.27 0.56 0.6 0.84 0.33 0.27 0.5 0.65 0.38 0.85s0.42 0.36 1.2 0.36c1.5 0 1.7-0.28 0.92-1.3-0.55-0.68-3.1-1.3-3.1-0.76m-239 6c-0.53 0.35-0.53 0.44 0 0.79 0.9 0.59 1.2 0.49 1.2-0.39s-0.3-0.98-1.2-0.39m-2.1 1.6c-1.2 0.71-1.7 1.6-1.2 2.1 0.52 0.52 1.7-0.067 1.7-0.84 0-0.37 0.21-0.89 0.47-1.2 0.75-0.75 0.23-0.82-0.97-0.12m265 0.67c0.13 0.35 0.24 0.8 0.24 1s0.45 0.37 1 0.37c1.2 0 1.3-0.99 0.23-1.6-1.1-0.6-1.7-0.51-1.5 0.22m-277 14c-0.77 1.1-0.8 1.2-0.2 1 0.39-0.15 0.86-0.27 1-0.27s0.41-0.45 0.51-1c0.26-1.4-0.26-1.3-1.4 0.27m32 4.4c-1.5 0.24-2.5 0.7-3.2 1.4-0.55 0.55-1.9 1.8-2.9 2.8l-1.9 1.8-0.072 9.2c-0.091 12-0.21 113-0.25 203-0.029 78 0.11 88 1.3 89 0.42 0.3 1.1 1.1 1.4 1.7 0.81 1.3-0.77 1.2 21 1.7 11 0.22 17 0.49 18 0.83 1.2 0.33 3.3 0.44 6 0.32 2.3-0.1 7.2-0.048 11 0.12 5.6 0.26 6.7 0.21 7.5-0.3 0.62-0.41 1.4-0.53 2.4-0.37 0.8 0.13 3.3 0.041 5.6-0.2 3.6-0.38 4.6-0.34 7.5 0.26 2.8 0.6 3.5 0.62 4.3 0.16 0.66-0.37 3.1-0.61 7.7-0.75 6.1-0.19 6.8-0.28 7.3-0.99 0.49-0.67 0.56-8.8 0.47-57l-0.1-56-0.9-1.9c-0.78-1.6-0.85-2.1-0.52-3.8 1.7-8.7 1.7-9.3 0.97-16-0.8-6.4-0.83-9.5-0.18-15 0.23-2.1 0.57-6 0.75-8.7 0.3-4.5 0.41-5 1.4-6 0.58-0.61 1.2-1.6 1.3-2.1 0.57-2.3 3.1-5.3 5-5.8 0.96-0.28 2.1-0.8 2.5-1.2 1.2-1.1 5.8-1.3 29-1.3 14-0.014 22-0.18 24-0.47 4.1-0.71 3.9 0.01 3.9-17 8e-3 -14 0.034-14 0.86-15 0.67-1.1 0.9-2.3 1.1-5.5 0.16-3.2 0.39-4.4 1-5.4 0.45-0.72 1.2-2 1.7-2.9 1.2-2.3 3.6-4.5 5-4.8 0.89-0.19 2-1.2 4-3.5 2.2-2.5 3.1-3.3 4.4-3.6 0.88-0.24 2.1-0.6 2.8-0.79 1.3-0.41 6.8-0.42 9.4-0.015 0.99 0.15 2.6 0.11 3.5-0.1 1.2-0.26 2.5-0.24 4 0.053 1.4 0.27 3.2 0.31 4.7 0.11 8.4-1.2 11-1.3 14-0.62 6.8 1.7 16 0.44 17-2.3 0.34-1.1 0.32-33-0.038-52-0.24-12-0.26-13-1.2-14-0.53-0.77-1.2-2-1.4-2.7-0.65-1.9-2.5-2.3-8.9-2.2-4.4 0.086-5.3-5e-3 -6.6-0.7-2.3-1.2-29-1.6-101-1.5-13 0.019-25 0.017-28-6e-3 -38-0.3-84-0.32-86-0.034m261 13c0 0.77 0.075 1.4 0.17 1.4s0.45 0.11 0.8 0.24c0.78 0.3 0.91-1.8 0.15-2.6-0.8-0.8-1.1-0.55-1.1 0.92m-132 0.43c0.33 0.87-0.51 1.7-1.1 1.1-0.51-0.51-0.2-1.7 0.45-1.7 0.23 0 0.53 0.28 0.67 0.63m97 3.7c-8e-3 0.8-0.26 1.9-0.55 2.4l-0.54 0.97-0.49-0.91c-0.44-0.81-0.3-3.2 0.24-4.1 0.48-0.78 1.4 0.28 1.3 1.6m-5.9 16c0.22 0.59-0.033 1-0.6 1-0.18 0-0.33-0.36-0.33-0.8 0-0.92 0.61-1.1 0.93-0.24m-94 5.1c1.3 0.75 2.7 1.2 4.6 1.4 3.1 0.31 5.9 2.5 6.9 5.3 0.25 0.72 0.82 1.8 1.3 2.4 2.4 3-0.34 9.2-4.7 11-0.99 0.34-2.2 1-2.8 1.5l-0.96 0.9-27-0.11c-57-0.24-76-0.49-78-1.1-1.2-0.3-2.9-0.66-3.7-0.8-0.97-0.17-1.7-0.57-2-1.1-0.25-0.49-0.97-1.4-1.6-2l-1.2-1.1v-5.6-5.6l2.5-1.8-1.2-1.1c-3.4-3.1-4.6-3.1 54-3l52 0.041 1.8 1.1m82 26c0 1-0.8 2.6-1.2 2.4-0.43-0.27-0.56-2.7-0.16-3.1 0.38-0.38 1.4 0.14 1.4 0.72m60 5.8c-1.3 0.18-2.6 0.61-3 0.97-0.6 0.6 0.029 0.65 8.1 0.65h8.7l-1.1-0.88c-1.3-0.99-8-1.4-13-0.74m-166 1.9c-0.46 0.46-0.7-0.26-0.38-1.2l0.32-0.93 0.15 0.93c0.08 0.51 0.042 1-0.086 1.2m198 8.2c0.19 0.3 0.29 0.86 0.22 1.2-0.12 0.72 0.58 0.91 1.4 0.38 0.6-0.38 0.21-1-1-1.7-0.78-0.41-0.89-0.41-0.61 0.04m-192 3.6c0.57 0.91-0.54 2.8-1.7 3-1.9 0.3-2.7-2.1-1.1-3.3 1.1-0.78 2.3-0.69 2.9 0.24m-57 1.4c-0.26 0.69-0.3 0.69-0.68 0.024-0.48-0.86-0.056-1.8 0.55-1.2 0.22 0.22 0.28 0.74 0.13 1.1m63 6.2 1.9 2.4h5.2c3.6 0 5.6-0.18 6.6-0.57 1.5-0.64 4.5-0.17 6.9 1.1 1.4 0.75 2.8 0.87 3.1 0.27 1.2-1.9 2.8-0.98 3.2 1.8 0.15 0.98 0.66 2.3 1.1 2.9 1.3 1.7 1.5 5.9 0.32 7.1-0.48 0.51-1.1 1.6-1.3 2.5-0.24 0.86-0.95 2.1-1.6 2.9-0.64 0.72-1.2 1.5-1.2 1.7 0 1.2-2.1 1.3-17 1.5-19 0.2-18 0.2-30 0.04-5.6-0.075-12-0.086-14-0.023-2.2 0.062-10 0.014-17-0.11-11-0.19-14-0.12-16 0.42-1.6 0.36-3.6 0.53-4.4 0.4-2.6-0.42-10-0.53-12-0.18-2.3 0.36-6.3-0.63-7.7-1.9-1.5-1.3-1.3-8.9 0.26-9.5 0.31-0.12 0.86-1.3 1.2-2.5 0.4-1.4 1.1-2.6 1.6-3 0.52-0.41 0.95-0.98 0.95-1.3 0-0.29 0.8-1.2 1.8-2l1.8-1.5 19 0.19c10 0.1 21 0.31 23 0.46 2.5 0.17 6.5 0.029 11-0.41 4.7-0.42 8.9-0.57 11-0.42 1.9 0.14 3.8 0.1 4.3-0.089 0.53-0.2 1.9-0.19 3.2 0.027 4.3 0.71 11-0.027 11-1.3 1.7-4.3 1.6-4.3 4.4-0.83m194 3c0 0.33 0.18 0.6 0.4 0.6s0.4-0.27 0.4-0.6-0.18-0.6-0.4-0.6-0.4 0.27-0.4 0.6m-88 5.8c-1.8 0.73-19 1.1-22 0.45-2.7-0.56-13-0.48-15 0.11-1.3 0.49-2.1 3.5-1.8 6.7 0.19 2.1 0.087 3.6-0.33 5.3-0.4 1.6-0.66 5.3-0.79 11l-0.19 9.1h1.7c3.4 0 4.6-1.4 3.5-4.4-0.64-1.8-0.72-4.1-0.43-13l0.17-5.1 1.8-1.8c0.97-1 2.1-2 2.5-2.2 1.4-0.76 11-1.1 14-0.46 2.5 0.49 3.2 0.48 5.8-0.095 5-1.1 6.5-1.1 11-0.19 4.3 0.85 4.7 0.86 22 0.48 12-0.25 18-0.25 20 0.011 6.2 1 20-0.16 20-1.7 0-1.1-4.4-3.2-7.4-3.6-1.7-0.23-4.7-0.68-6.6-1-4.9-0.83-26-0.64-28 0.25-0.96 0.45-1.9 0.54-3.4 0.33-1.2-0.16-4.6-0.4-7.7-0.54-3.1-0.14-6.3-0.33-7.2-0.42s-2 0.014-2.6 0.24m-155 39c0.36 2.2-0.54 3.4-2.6 3.2-2.9-0.27-3.1-1.7-0.67-3.9 2.2-2 2.8-1.9 3.2 0.7m-39 0.83c0.36 0.43 0.31 0.61-0.22 0.81-0.79 0.3-1.6-0.3-1.2-0.93 0.36-0.59 0.83-0.55 1.4 0.12m46-0.19c0.54 0.87-0.3 1.6-1.8 1.6-1.8 0-2.4-0.69-1.4-1.5 0.84-0.61 2.8-0.72 3.2-0.18m-15 2.7c0.67 0.61 1.7 0.7 7.6 0.72 7.3 0.017 8.8 0.32 10 2.1 1 1.2 1.6 1.1 2.8-0.39 2-2.5 4.9 1.2 4.2 5.3-0.22 1.2-0.44 2.9-0.49 3.8-0.24 4.7-1.8 7.1-5.8 9.2l-2.2 1.1-21 0.31c-28 0.41-28 0.43-28-2.6-1e-3 -1-0.35-2.2-0.87-3.1-2-3.2-0.73-13 1.7-13 0.19 0 0.9-0.54 1.6-1.2 1.2-1.2 1.3-1.2 5.1-1.2 2.1-4e-3 5.4-0.3 7.3-0.65 2.9-0.56 8.1-0.98 15-1.3 1.4-0.054 2.2 0.13 2.7 0.62m61 14c-1.9 1.7-3.1 4.3-2.6 5.3 0.65 1.3 1 24 1.3 88 0.12 24 0.36 44 0.54 45l0.32 1.4 0.43-1.6c0.23-0.88 0.54-7.3 0.69-14 0.23-11 0.38-13 1.1-16 0.81-3.1 0.86-9.3 0.12-15-0.14-1.1-0.049-3.3 0.2-4.8 0.5-3 1.3-37 1.4-60l0.058-14 1.1-2.3c0.6-1.3 1.1-2.9 1.1-3.5 0-1.4 1.2-2.7 2.7-2.8 2.4-0.12 4.5-0.29 9.3-0.75 2.8-0.26 5.8-0.48 6.7-0.48 2.9-0.014 4.5-0.01 11 0.024 16 0.083 20 9e-3 23-0.35 2-0.26 4.7-0.24 8 0.065 3.9 0.34 6.3 0.33 10-0.058 3-0.28 9.7-0.55 15-0.61s10-0.3 12-0.54 3.6-0.44 5.1-0.44c2.7-2e-3 3.5-0.51 1.8-1.2-0.5-0.19-1.1-0.62-1.4-0.96-0.44-0.52-0.65-0.53-1.6-0.058-0.95 0.49-1.2 0.46-2.5-0.33-1.6-0.99 3.2-0.91-74-1.2l-30-0.1-1.6 1.4m-110 27c1.9 0.72 0.12 2.3-1.9 1.7-1.6-0.45-1.7-1.2-0.22-1.6 1.4-0.38 1.4-0.38 2.1-0.11m24 0.19c1.3 0.48 0.45 1.6-1.2 1.6-0.93 0-1.4-1.2-0.67-1.6 0.69-0.44 0.5-0.44 1.8 0.064m223 6c-0.36 1.8-0.3 3.6 0.13 4.3 0.6 0.95 1.3-1.5 1-3.5-0.31-2.1-0.83-2.5-1.2-0.85m-239 6.5c0.22 0.58-1.4 2.2-2.3 2.2-1.1 0-1.9-1.3-1.2-2.1 0.81-0.89 3.2-0.99 3.5-0.15m239 4.4c-0.38 2.7-0.51 16-0.2 20 0.21 2.7 0.71 3.6 0.71 1.2 0-0.93 0.29-2.2 0.64-2.9 0.56-1.1 0.58-1.6 0.17-4.1-0.35-2.1-0.36-3.1-0.05-3.9 0.32-0.83 0.3-1.4-0.082-2.4-0.42-1-0.41-1.6 0.092-3.6 0.57-2.2 0.56-2.4-0.23-4l-0.83-1.7-0.22 1.6m-198 6.8c-0.16 1.1-1.4 1.3-1.7 0.24-0.36-1.1 0.5-2.2 1.3-1.5 0.31 0.26 0.51 0.84 0.45 1.3m18-0.61c0.44 0.28 0.42 0.56-0.11 1.6-0.78 1.5-1.3 1.6-1.7 0.25-0.46-1.8 0.41-2.7 1.8-1.8m-44 7.3c0.36 0.66 0.34 0.93-0.086 1.2-1.3 0.84-2.5-0.28-1.5-1.4 0.67-0.81 1.1-0.75 1.6 0.26m56 5.3c0.32 0.51 0.25 0.84-0.3 1.4-0.97 0.96-2.1-0.3-1.4-1.6 0.46-0.87 1.1-0.79 1.7 0.2m-84 2.4c1 1-0.95 2-2.3 1.1-0.51-0.32-0.48-0.46 0.2-0.98 0.97-0.74 1.5-0.78 2.1-0.16m28 0.16c0.39 1-0.8 1.9-1.8 1.4-1-0.55-1.1-1.1-0.15-1.6 1-0.59 1.7-0.52 2 0.2m-28 9.8c-0.071 0.74-0.31 1.3-0.53 1.3-0.48-0.1-0.75-1.9-0.42-2.8 0.41-1.1 1.1 0.053 0.95 1.6m252 1.8c-0.41 0.41-0.36 2.9 0.064 3.1 0.2 0.12 0.45-0.14 0.56-0.58 0.26-0.98-0.23-2.9-0.63-2.5m-215 8c0.15 2-0.84 2.9-2.2 1.9-0.8-0.56-0.8-0.64-0.19-2.2 0.9-2.3 2.2-2.1 2.4 0.29m18 1.4c0 0.36-0.36 1.1-0.8 1.6l-0.8 0.94-0.8-0.94c-1-1.2-1-1.9 0.05-2.6 0.99-0.7 2.4-0.12 2.4 1m-5.2 7.3c0.5 0.53 1.7 1.2 2.7 1.4 3.5 0.88 2.7 2.8-1.2 2.8-3 0-4-0.64-4.4-2.7-0.45-2.4 1.3-3.3 3-1.6m28 9.8c0.73 0.81 0.53 2.3-0.46 3.4-0.59 0.68-0.66 0.65-1.3-0.6-1.5-2.8-0.13-4.9 1.8-2.8m-71 5.5c0.16 1.1-1 1.6-1.9 0.78-0.5-0.5-0.51-0.7-0.065-1.2 0.7-0.85 1.8-0.6 1.9 0.45m295 8.6c0.054 0.5 0.11 1 0.13 1.2 0.1 0.93 2-0.52 2-1.5 0-0.36-0.42-0.57-1.1-0.57-0.94 0-1.1 0.16-1 0.9m-292 3.7c0.76 0.55 0.76 0.58 0.015 1.4-1 1.1-2.2 1.1-2.5-0.14-0.44-1.8 0.85-2.4 2.4-1.3m-7.5 10c0.2 4.6-2.2 6.3-3.1 2.2-0.42-1.9 0.07-4.8 0.9-5.3 1.2-0.72 2.1 0.61 2.2 3.1m42 3.5c-0.049 0.48-0.6 0.39-0.77-0.13-0.088-0.26 0.056-0.41 0.32-0.32s0.47 0.29 0.45 0.45m-29 2.9c2 2 2.1 2.3 1.2 3-0.55 0.46-5-2.8-5-3.6 0-0.2 1.2-0.96 1.9-1.2 0.05-0.015 0.9 0.79 1.9 1.8m14-0.87c0.64 0.77-0.77 2.1-1.5 1.4-0.62-0.62-0.61-1.4 0.025-1.6 0.81-0.33 0.98-0.29 1.4 0.27m46 7.8c0.66 0.26 0.63 0.34-0.3 0.76-0.93 0.42-1 0.39-1-0.32 0-0.84 0.18-0.9 1.3-0.44m-13 3.3c-0.49 0.91-1.5 0.84-2.1-0.14-0.33-0.52-0.25-0.87 0.35-1.5l0.77-0.86 0.7 0.87c0.54 0.67 0.61 1 0.28 1.7m-94 18c0 0.32 0.33 0.76 0.74 0.98 0.64 0.34 0.72 0.27 0.55-0.59-0.2-1-1.3-1.4-1.3-0.4m280 4.6c-0.44 2.4-0.2 2.8 1.3 2 1.2-0.64 1-2.3-0.23-2.3-0.55 0-1 0.11-1 0.25m-255 14c0 0.34 0.5 0.53 1.4 0.53 1.6 0 2.3-0.69 0.94-0.96-1.5-0.3-2.3-0.14-2.3 0.43" fill="#efe5ae"/>
<path d="m265 210c0.61 0.092 1.5 0.09 2-5e-3 0.49-0.095-5e-3 -0.17-1.1-0.17s-1.5 0.081-0.9 0.17m18 0.081c1.1 0.14 2.5 0.56 3 0.93 0.89 0.59 1.1 0.61 2.1 0.12 0.92-0.48 1.1-0.47 1.6 0.053 0.28 0.33 0.92 0.76 1.4 0.96 1.7 0.66 0.96 1.2-1.8 1.2-1.5 2e-3 -3.8 0.2-5.1 0.44s-6.6 0.49-12 0.54-12 0.33-15 0.61c-4.2 0.39-6.6 0.4-10 0.058-3.4-0.3-6-0.32-8-0.065-2.8 0.36-7.7 0.43-23 0.35-6.6-0.034-8.2-0.038-11-0.024-0.94 4e-3 -4 0.22-6.7 0.48-4.8 0.46-6.9 0.63-9.3 0.75-1.4 0.074-2.7 1.4-2.7 2.8 0 0.63-0.49 2.2-1.1 3.5l-1.1 2.3-0.058 14c-0.091 23-0.87 57-1.4 60-0.25 1.5-0.34 3.7-0.2 4.8 0.74 6 0.69 12-0.12 15-0.69 2.7-0.84 5-1.1 16-0.24 12-0.62 16-1.3 15-0.15-0.15-0.37-5.3-0.5-12-0.21-10-0.23-9.9-0.27 6.8-0.055 20-0.087 20 2.2 18 1.2-0.68 1.3-0.67 5 0.42 3.7 1.1 3.9 1.1 10 0.83 9.1-0.41 10-0.4 17 0.11 3.4 0.27 10 0.37 16 0.25 5.8-0.11 11-0.19 12-0.18 0.95 0.011 2.8-0.26 4.1-0.6 2-0.52 3.1-0.55 7.5-0.16 2.8 0.25 5.4 0.47 5.7 0.5s1.9-0.21 3.5-0.51c2.4-0.45 3.5-0.46 6-0.055 5.1 0.83 9.5 0.74 13-0.27 1.5-0.5 3.8-0.89 5-0.89 2.9 0 5.5-1.9 7-5 1.2-2.5 1.3-5.2 0.82-26-0.32-15-0.32-35 0.014-63 0.21-17 0.36-42 0.29-44-0.036-0.88-0.031-2.7 0.011-4l0.077-2.4-2.1-1.1c-2-1-2.3-1.6-0.88-1.6 1.9 0 2.4-3.3 0.96-6-0.72-1.4-1.5-1.6-6.8-1.5-3.3 0.038-3.9 0.12-2.4 0.31m-10 7.2c1 1.2-1.1 2.8-2.2 1.8-0.86-0.78-0.93-1.4-0.26-2.1 0.7-0.7 1.7-0.59 2.5 0.28m-59 0.21c0.75 0.55 0.74 0.58-0.29 1.1-1.3 0.57-3.1 0.21-3.1-0.59 0-0.99 2.3-1.3 3.4-0.46m-7.1 7.4c0.12 0.86-1.2 2.9-1.9 2.9-0.8 0-1.2-2.1-0.58-3.1 0.82-1.3 2.3-1.1 2.5 0.21m68 7.9c0.56 0.53-2 2.1-3.5 2.2-0.92 0.017-2.5-0.92-2.5-1.5 0-1.5 4.6-2 6-0.68m7.2 16c-0.014 1.8-0.5 2.5-1.9 2.7-1.7 0.31-1.9 0.11-1.6-1.2 0.4-1.6 3.4-3 3.4-1.5m-61 0.87c1.2 2.4-0.27 5.1-2.5 4.6-2.1-0.46-2.2-4.1-0.13-5.2 1.5-0.83 2-0.74 2.6 0.57m17 18c1.2 0.62 0.76 1.2-0.94 1.2-1.4 0-1.4-0.028-1.4-1.7 9e-3 -1.7 0.02-1.7 0.7-0.85 0.38 0.47 1.1 1.1 1.6 1.3m38 0.27c1 0.4 0.81 2.5-0.34 3-1.3 0.6-2.1 0.23-2.3-1.1-0.38-2 0.64-2.7 2.7-1.9m-57 15 0.85 0.7-0.96 1.2c-0.96 1.2-0.97 1.2-1.8 0.44-1-0.92-1.1-2.1-0.14-2.6 0.95-0.55 1.1-0.54 2.1 0.27m33 4.2c-1.2 2.4-4.9 2.9-4.7 0.69 0.22-2.2 0.53-2.7 2-3.3 2.1-0.89 3.7 0.61 2.7 2.6m13 11c0.77 0.49 0.58 2.8-0.29 3.5-0.91 0.7-1.7-0.075-1.7-1.7 0-1.8 0.83-2.6 2-1.8m-86 2.6c4e-3 0.88 0.086 1.2 0.18 0.7 0.096-0.5 0.092-1.2-8e-3 -1.6-0.1-0.38-0.18 0.025-0.17 0.9m57-0.52c1.3 1.3 7e-3 2.8-2.1 2.3-1.5-0.3-2.2-1.3-1.5-2.2 0.62-0.75 2.9-0.84 3.5-0.15m-17 3.1c0.74 0.3 0.72 0.36-0.33 0.77-1.6 0.62-1.9 0.56-1.9-0.36 0-0.85 0.78-1 2.2-0.42m-41 18c0 2.8 0.064 3.9 0.14 2.5s0.078-3.6 0-5-0.14-0.25-0.14 2.5m74-3.1c1.1 1.1-1.3 2.1-4.6 1.8-3.1-0.29-4.3-1.1-3-2.1 1.1-0.85 6.7-0.62 7.6 0.32m30 0.78c0.42 0.46 1.4 1.2 2.2 1.6l1.4 0.72-1.1 0.43c-1.7 0.64-2.2 0.55-3.5-0.67-0.66-0.6-1.5-1.3-1.8-1.6-0.33-0.29-0.5-0.69-0.38-0.9 0.42-0.69 2.4-0.39 3.2 0.47m-63 12c0.22 1.1-2.4 3-3.9 2.8-1.5-0.22-2.6-2.1-2-3.4 0.71-1.3 5.6-0.87 5.9 0.55m-29 0.089c3.1 1.3 2.7 3.8-0.65 3.8-2.7 0-3.7-1.9-2.1-3.9 0.52-0.64 1.1-0.63 2.8 0.071m81 9c1.2 1.5-0.99 3.3-2.6 2.2-1.1-0.76-1.1-1.4-0.019-2.7 0.88-1.1 1.4-1 2.6 0.56m-29 0.77c0.13 0.2 0.038 0.49-0.2 0.64-0.59 0.37-1.7-0.11-1.4-0.6 0.31-0.51 1.3-0.52 1.6-0.031m36 4.9c0.38 1.2-0.72 1.9-2.8 1.9-3.4 0-3.7-2.4-0.39-3.1 1.8-0.4 2.8-0.035 3.2 1.2" fill="#f5ad07"/>
<path d="m62 26c0.64 0.78 0.1 1-2.6 1.3-1.6 0.17-2.2 0.11-2-0.23 0.18-0.29-0.016-0.46-0.54-0.46-0.8 0-1.1 0.56-0.52 0.9 0.16 0.092 0.081 0.12-0.19 0.051s-0.6 0.058-0.73 0.27-0.41 0.28-0.62 0.16c-0.21-0.13-0.28-0.4-0.15-0.61 0.13-0.2-0.036-0.37-0.36-0.37-1.3 0-1.9 0.51-1.9 1.6 0 0.85-0.15 1.1-0.6 0.92-0.33-0.13-0.6-0.031-0.6 0.21 0 0.24-0.36 0.44-0.8 0.44s-0.8-0.18-0.8-0.4c0-1.6-2.3 0.31-2.5 2.1-0.18 1.7-1.4 2.9-3.2 3.3-0.62 0.12-1 0.41-0.88 0.63 0.14 0.22 0.049 0.4-0.2 0.4s-0.35 0.15-0.24 0.34c0.51 0.82-0.6 3.3-1.5 3.3-0.94 0.013-2.4 0.9-2.3 1.5 0.015 0.18-0.11 0.34-0.27 0.34s-0.57 0.18-0.9 0.38c-0.33 0.21-1.1 0.33-1.7 0.27-1.2-0.12-1.3 0.013-1.7 1.7-0.2 0.83-0.14 1.1 0.21 0.84 0.3-0.19 0.37-0.12 0.19 0.17-0.16 0.26-0.7 0.36-1.2 0.23-0.69-0.17-1.1-0.02-1.4 0.57-0.62 1.2-0.54 1.7 0.27 1.7 0.6 0.024 0.58 0.078-0.1 0.37-0.44 0.19-0.6 0.36-0.36 0.37 0.52 0.033 0.42 1.6-0.17 2.7-0.5 0.93-2.3 1.2-1.9 0.29 0.13-0.34 0.058-0.49-0.17-0.35-0.52 0.32-0.51 2.2 5e-3 2.2 0.22 0 0.4-0.18 0.4-0.4s0.18-0.4 0.41-0.4c0.24 0 0.3 0.43 0.15 1-0.19 0.75-0.032 1.2 0.59 1.8 1.3 1.2 1.1 2.5-0.35 3-0.66 0.25-1.1 0.29-0.98 0.087 0.12-0.2-0.22-0.37-0.76-0.37-0.95 0-1.5 0.65-1.5 1.8 0 0.31 0.36 0.57 0.8 0.57s0.8 0.19 0.8 0.43c0 0.24-0.39 0.33-0.9 0.2-0.5-0.12-0.68-0.12-0.4 6e-3s0.5 0.5 0.5 0.82-0.18 0.48-0.39 0.35c-0.59-0.37-0.55 300 0.037 300 0.33 0.4 0.33 0.54 2e-3 0.54-0.83 0-0.51 2.1 0.35 2.3 0.44 0.12 0.8 0.41 0.81 0.66 3e-3 0.25 0.18 0.18 0.4-0.15 0.29-0.44 0.16-0.79-0.46-1.3-0.88-0.73 1.3-0.82 2.4-0.097 0.76 0.47 0.38 3.4-0.45 3.4-0.21 0-0.25-0.22-0.081-0.5 0.19-0.32 0.055-0.3-0.39 0.064-0.38 0.31-0.6 0.85-0.48 1.2 0.15 0.43 0.024 0.38-0.38-0.14-0.57-0.74-0.6-0.72-0.6 0.44 0 1.8 0.76 3.7 1.6 4.2 0.42 0.22 0.76 0.72 0.76 1.1 0 0.39 0.24 1 0.53 1.4 0.46 0.63 0.53 0.64 0.53 0.077 0-0.36-0.15-0.65-0.33-0.65-0.51 0-0.4-1.5 0.14-1.8 0.26-0.16 0.55-0.083 0.63 0.18 0.086 0.26 0.41 0.47 0.72 0.47 0.31 0 0.54 0.14 0.5 0.3-0.18 0.87 0.65 1.7 1.7 1.7 1.1 0 1.1 0.087 0.88 1.1-0.16 0.6-0.28 1.5-0.29 2s-0.17 0.9-0.37 0.9c-0.2 0-0.27-0.25-0.15-0.55 0.17-0.44-1.2-1.4-1.9-1.4-0.077 0 0.044 0.72 0.27 1.6 0.33 1.3 0.58 1.6 1.4 1.6 0.75 0 1 0.27 1.2 1.2 0.16 0.81 0.48 1.2 0.98 1.2 0.47 0 0.66-0.2 0.52-0.56-0.45-1.2 0.61-0.98 2.1 0.39 1.2 1.1 1.6 1.3 1.7 0.8 0.082-0.39 0.56-0.62 1.3-0.62 1.2 0 1.3 0.22 1.2 1.9-0.027 0.65 0.13 0.82 0.61 0.63 0.4-0.15 0.54-0.086 0.38 0.18-0.17 0.27 0.025 0.35 0.53 0.22 0.94-0.25 1.1 0.37 0.2 1.1-0.63 0.52-0.42 1.4 0.23 0.98 0.21-0.13 0.26-0.43 0.11-0.67-0.16-0.26-0.082-0.32 0.21-0.14 0.26 0.16 0.37 0.63 0.24 1-0.37 1.2 0.49 2.4 1.7 2.4h1l-1.1-0.83c-0.58-0.46-1.1-1.1-1.1-1.4 0-0.45 0.2-0.37 0.74 0.29 0.57 0.7 0.81 0.79 1.1 0.38 0.21-0.34 0.17-0.43-0.11-0.26-0.24 0.15-0.55 0.085-0.68-0.14-0.16-0.25 0.44-0.41 1.6-0.41 1.7 0 1.8 0.084 1.8 0.98 0 1.1 0.65 1.7 1.7 1.5 0.38-0.063 0.7 0.07 0.7 0.3s0.3 0.3 0.67 0.16c0.43-0.16 0.57-0.098 0.39 0.18-0.5 0.82 2.1 1.1 2.8 0.31 0.17-0.19 0.044-0.19-0.29-1e-3 -0.51 0.29-0.52 0.24-0.071-0.31 0.63-0.78 1.5-0.52 1.9 0.54 0.13 0.42 0.58 0.95 1 1.2 0.94 0.5 0.62 1.5-0.55 1.7-0.48 0.091 51 0.19 115 0.22 64 0.029 116-0.1 116-0.29 0-0.19-0.27-0.57-0.61-0.85-0.51-0.42-0.57-0.4-0.36 0.15 0.14 0.38 0.053 0.66-0.22 0.66-0.26 0-0.36-0.16-0.24-0.37s0-0.45-0.28-0.55c-0.28-0.1-0.04-0.31 0.52-0.46 0.86-0.23 1-0.46 0.86-1.4l-0.17-1.2 2.9-0.12c2.9-0.12 2.9-0.13 3.2-1.3 0.23-1.3 2.2-1.6 3.4-0.56 0.61 0.51 1.4-0.68 1.4-2.2 0-1.2 0.77-1.9 1.8-1.5 2 0.82 3.8 0.45 3.8-0.77 0-0.95 0.2-1.2 1.2-1.4 0.91-0.18 1.2-0.48 1.3-1.3 0.099-0.86 0.42-1.2 1.4-1.5 0.72-0.2 1.3-0.5 1.3-0.67 0-0.62 1.9-1.6 2.2-1.1 0.17 0.27 0.11 0.35-0.15 0.19-0.24-0.15-0.55-0.085-0.68 0.14-0.14 0.22-0.055 0.41 0.18 0.41s0.6 0.4 0.8 0.9c0.32 0.79 0.36 0.73 0.39-0.53 0.022-1.2-0.15-1.5-1.4-2.1-1.8-0.87-1.8-1.7 0.032-2 1.3-0.15 1.4-0.091 1.3 0.76-0.097 0.51-0.021 0.92 0.17 0.92 0.19 0 0.34-0.54 0.34-1.2 0-0.8 0.2-1.2 0.6-1.2 0.33 0 0.6-0.21 0.6-0.47 0-0.26 0.14-0.33 0.3-0.17 0.16 0.16-0.049 0.56-0.48 0.87-0.75 0.55-0.75 0.57 0.15 0.57 0.84 0 0.91-0.14 0.7-1.4-0.14-0.84-0.076-1.3 0.15-1.2 0.21 0.13 0.36-0.27 0.33-0.89-0.028-0.68-0.12-0.84-0.23-0.42-0.43 1.6-2.3 0.31-2.8-1.9-0.38-2 3e-3 -2.7 1.3-2.4 1.4 0.35 1.4 0.36 1.5 1.9 0.035 1.1 0.16 1.3 1 1.2 1.4-0.16 1.4 0.2 1.6-10 0.24-11 0.11-10 2.4-10 1.5-0.21 2.7-1.3 2.3-2-0.098-0.16 3.2-0.3 7.3-0.3 8.7-0.01 10-0.22 11-1.6 0.33-0.73 0.32-1-0.039-1.1-0.3-0.11-0.2-0.3 0.26-0.48 0.46-0.19 0.86-0.11 1.1 0.2 0.55 0.89 3.6 0.12 3.8-0.98 0.24-0.94 1.5-1.4 3.7-1.4 0.86 0 1.1-0.25 1.4-1.3 0.33-1.1 0.55-1.3 1.5-1.2 0.96 0.099 1.1-0.017 1-0.9-0.046-0.56-0.22-1-0.4-1s-0.31-0.2-0.31-0.44c0-0.24 0.28-0.34 0.62-0.2 0.44 0.17 0.79-0.16 1.2-1.1 0.32-0.75 0.76-1.5 0.98-1.6s0.41-0.76 0.41-1.4c0-1 0.12-1.1 1.4-1.1 0.85 0.024 1.3 0.22 1.2 0.48-0.092 0.24 0.19 0.47 0.63 0.5 1.1 0.082 1.4 0.47 0.71 0.9-0.36 0.22-0.68 0.19-0.84-0.073-0.15-0.24-0.48-0.3-0.75-0.13-0.65 0.4 0.24 0.99 1.5 1 0.69 5e-3 0.97-0.28 1.1-1.2 0.18-0.89 0.49-1.2 1.3-1.3 0.81-0.095 1.1-0.4 1.3-1.4 0.2-0.97 0.13-1.2-0.28-1.1-0.3 0.11-0.45 0.36-0.34 0.54s-0.34 0.06-1-0.27c-2-1-2-3.7 0.051-3.7 0.42 0 0.96-0.44 1.2-1 0.25-0.55 0.56-1 0.69-1 1.1-0.14 1.8-0.4 2.7-0.97 0.56-0.36 1.1-0.56 1.2-0.43 0.13 0.13 0.022 0.23-0.23 0.23-0.26 0-0.47 0.26-0.47 0.59 0 0.38-0.23 0.5-0.67 0.33-0.45-0.17-0.57-0.1-0.38 0.21 0.4 0.64 1.6 0.59 2.2-0.098 0.78-0.93 1.1-6.3 0.35-6-0.33 0.13-0.83-0.05-1.1-0.39-0.35-0.42-0.37-0.62-0.064-0.62 0.25 0 0.45 0.21 0.45 0.47 0 0.26 0.094 0.37 0.21 0.26 0.38-0.37-0.25-1.4-0.94-1.6-1.4-0.38-2.1-6.5-0.73-6.9 1.4-0.44 3.6-0.6 3.1-0.22-0.52 0.36-0.52 0.41 0.048 0.42 1.1 0.011 1.1-1.3 1.1-79 4e-3 -74-0.065-80-0.89-80-0.21 0-0.84-0.36-1.4-0.8-0.56-0.44-1.2-0.69-1.4-0.56-0.53 0.33 0.72-2 1.5-2.8 0.95-0.95 0.058-4.2-1.2-4.5-0.52-0.13-0.95-0.49-0.95-0.8 0-0.5-0.49-0.73-1.3-0.6-0.16 0.026-0.3-0.13-0.3-0.35s-0.29-0.4-0.65-0.4c-0.52 0-0.61-0.28-0.42-1.4 0.21-1.3 0.17-1.4-0.42-0.9-0.47 0.38-0.57 0.39-0.36 0.032 0.2-0.33 0.036-0.5-0.49-0.5-1.2 0-2.1-0.43-2.1-1 0-0.3-0.43-0.83-0.96-1.2-1.1-0.71-1.5-1.9-0.95-2.5 0.51-0.51-1.1-1.4-2.1-1.2-0.54 0.14-0.66-0.02-0.52-0.72 0.19-1-0.6-1.4-3.1-1.6-0.78-0.06-1.5-0.12-1.7-0.14s-0.3-0.39-0.3-0.82c0-1.3-2.1-1.5-13-1.3-5.4 0.11-11 0.067-12-0.086l-2.6-0.28-0.047-26c-0.046-26-0.24-33-0.86-31-0.61 2.2-2.4 0.59-2.1-1.9 0.88-6.3 0.13-14-1.4-15-0.72-0.11-0.87-0.39-0.87-1.7 0-2.1-0.62-3.6-1.5-3.6-0.6 0-0.82-0.4-1-1.9-0.33-2.2-0.79-2.9-1.9-2.9-0.74 0-0.71 0.093 0.29 1 0.61 0.56 0.99 1.1 0.85 1.3-0.14 0.14-0.53-0.098-0.87-0.52s-0.52-0.56-0.39-0.3c0.13 0.26 0.09 0.56-0.087 0.67-0.18 0.11-0.35-0.17-0.38-0.62-0.034-0.45-0.37-1.2-0.75-1.6-0.38-0.42-0.49-0.76-0.25-0.76 0.24 0 0.52 0.22 0.63 0.5s0.22 0.027 0.23-0.55c0.035-1.1-0.52-1.8-1.8-2-0.44-0.081-0.89-0.58-1-1.1-0.26-1.1-2.8-2-2.8-0.97 0 0.3-0.22 0.47-0.5 0.38s-1-0.27-1.6-0.41c-1-0.23-1.1-0.39-0.98-1.6 0.11-0.91-0.024-1.4-0.39-1.6-0.87-0.33-1.4-0.25-1.1 0.19 0.14 0.22 0.061 0.4-0.17 0.4-0.24 0-0.32-0.48-0.18-1.2 0.28-1.4-0.09-1.7-2.5-1.9-2-0.17-2.6-0.42-2.6-1.2 0-1.1-6.2-2-6.8-1-0.22 0.36-0.52 0.39-1.1 0.093-0.43-0.23-2.4-0.35-4.5-0.26-2.1 0.081-4.1-0.029-4.5-0.24-0.83-0.45-0.98-1.8-0.23-2.1 0.28-0.11-1-0.22-2.8-0.23-2.1-0.021-3.2 0.11-3.1 0.37 0.14 0.22-0.023 0.4-0.35 0.4s-0.71-0.17-0.84-0.38c-0.13-0.21-0.73-0.4-1.3-0.41-0.6-0.017-2.6-0.13-4.4-0.25-2.2-0.15-3.3-0.078-3.3 0.21 0 0.59-1.3 0.54-1.9-0.067-0.37-0.37-0.57-0.38-0.78-0.029-0.44 0.71-3.6 0.92-6.2 0.42-2.3-0.46-3.1-1.1-1.3-1.1 0.55 0 1-0.14 1-0.3s-3.5-0.3-7.8-0.3c-4.3 0-7.8 0.13-7.8 0.29 0 0.16 0.3 0.18 0.66 0.037 0.45-0.17 0.6-0.075 0.47 0.31-0.12 0.37-0.88 0.59-2.2 0.65-1.4 0.062-1.8-0.012-1.2-0.27 0.56-0.25-0.043-0.35-2-0.33-1.5 0.014-2.4 0.1-1.9 0.2s0.8 0.34 0.67 0.55c-0.13 0.21-0.39 0.28-0.59 0.16-0.2-0.12-2.1-0.33-4.3-0.46-4.8-0.29-5.3-0.53-1.2-0.53 1.8 0 3.1-0.17 3.1-0.4 0-0.49-5.1-0.5-9.2-0.015-1.8 0.21-3.1 0.2-3.1-0.011-0.078-0.21-33-0.36-80-0.37-68-8e-3 -79 0.069-79 0.56m130 0.53c-1 0.083-2.8 0.083-4 2e-3 -1.2-0.081-0.31-0.15 1.9-0.15s3.2 0.065 2.1 0.15m6-0.017c-0.38 0.1-1 0.1-1.4 0-0.38-0.1-0.07-0.18 0.7-0.18s1.1 0.082 0.7 0.18m83 1.6c0.15 0.39 0.061 0.57-0.23 0.48-0.6-0.2-0.93-1.1-0.4-1.1 0.22 0 0.5 0.28 0.63 0.63m21 4.6c0 0.23 0.18 0.31 0.4 0.18s0.4-0.057 0.4 0.18c0 0.61-0.62 0.52-1.2-0.18-0.34-0.42-0.36-0.6-0.049-0.6 0.25 0 0.45 0.19 0.45 0.42m8.6 6c0.4 0.44 0.52 0.8 0.28 0.8s-0.64-0.36-0.88-0.8-0.36-0.8-0.28-0.8 0.48 0.36 0.88 0.8m-271 0.2c0 0.33-0.3 0.6-0.67 0.6-0.77 0-0.39 0.52 0.48 0.64 0.38 0.055 0.59-0.26 0.59-0.88 0-0.53-0.09-0.96-0.2-0.96s-0.2 0.27-0.2 0.6m-2.1 1.3c-0.59 0.59-0.3 1.8 0.29 1.2 0.31-0.28 0.4-0.58 0.2-0.65s-0.26-0.3-0.14-0.5c0.26-0.42 0.035-0.49-0.35-0.099m-3.5 5.7c0 0.19-0.26 0.56-0.57 0.82-0.52 0.43-0.61 0.051-0.26-1.1 0.085-0.28 0.83-0.052 0.83 0.25m285 2.8c0.33 0.21 0.39 0.44 0.14 0.59-0.22 0.14-0.62-0.023-0.89-0.35-0.54-0.65-0.12-0.79 0.75-0.24m-236 3c20-0.24 21-0.22 25 0.45 3.7 0.64 4 0.64 5.4 8e-3 1.6-0.72 4.6-0.68 10 0.16 5.7 0.82 37 0.7 40-0.15 2.2-0.74 3.1-0.74 14 0.017 8.6 0.62 17 0.62 19 0.013 2.6-0.84 4.4-0.82 5.6 0.052 0.92 0.65 3.6 0.71 39 0.9l38 0.2 1.5 0.9c1.8 1.1 3 1.1 3.9 0.25 0.96-0.87 4.8-0.97 5.7-0.15 0.39 0.33 1.5 0.87 2.6 1.2 1.4 0.46 2 0.92 2.5 1.9 0.37 0.74 1.1 1.8 1.6 2.3l0.93 0.99 0.26 21c0.15 12 0.43 21 0.65 21 0.83 1.6 0.97 5.3 0.28 7.4-0.59 1.8-0.61 2.6-0.16 7.3 0.75 8 0.7 8.7-0.8 11-1.9 2.8-0.9 2.7-28 2.9-28 0.16-30 0.27-28 1.3 2.6 1 0.98 3.7-1.7 2.8-1.4-0.48-3.7 0.49-4.7 2-0.62 0.88-1.3 1.2-2.6 1.4-1.3 0.19-1.9 0.53-2.3 1.1-0.25 0.48-0.88 1.3-1.4 1.8-0.52 0.48-0.94 1.2-0.94 1.7s-0.54 1.4-1.2 2.2c-1.1 1.3-1.2 1.6-1.6 6.7-0.22 2.9-0.69 6.7-1 8.4-1.1 5.1-1.2 12-0.19 15 0.76 2.3 0.8 2.8 0.4 5.4-0.25 1.6-0.34 3.3-0.21 3.8 0.29 1.1-0.6 3.4-1.8 4.4-0.85 0.77-1.7 0.8-27 0.99l-26 0.2-1.3 0.94c-0.72 0.52-2.1 1-3 1.2-2.2 0.28-3.1 0.76-3.1 1.7 0 0.42-0.46 1.3-1 2-0.56 0.66-1.2 1.8-1.5 2.5-0.25 0.73-0.85 1.8-1.3 2.4-1.1 1.3-1.5 8.8-1.4 22 0.17 12 0.18 15 0.079 20-0.048 2.8 1e-3 31 0.11 63 0.12 36 0.053 58-0.19 59-1 2.7-10 4-24 3.1-0.99-0.059-4.5 0.042-7.8 0.22-3.3 0.18-13 0.19-21 0.024-8.4-0.17-21-0.35-28-0.4-12-0.092-13-0.11-14-0.98-0.92-0.72-1.5-0.84-2.8-0.65-1.4 0.19-1.8 0.087-2.4-0.56-0.38-0.44-1.3-1.4-2-2.2l-1.3-1.4-0.28-15c-0.15-8.2-0.28-23-0.28-32-1e-3 -11-0.16-18-0.47-19-0.58-2.9-0.56-8.5 0.047-11 0.34-1.5 0.5-32 0.63-113 0.096-61 0.19-111 0.2-111 0.029-0.11 2.4-2.6 3.1-3.4 2.4-2.4 3.4-3.1 4-3.1 0.38-2e-3 1.2-0.31 1.9-0.68 1.4-0.78 8.7-1.3 13-0.95 1.5 0.12 4.9 0.2 7.4 0.17m239 3.5c0.4 0.44 0.52 0.8 0.28 0.8s-0.64-0.36-0.88-0.8-0.36-0.8-0.28-0.8 0.48 0.36 0.88 0.8m2.9 23c-0.092 0.61-0.17 0.2-0.17-0.9s0.073-1.6 0.17-1.1c0.095 0.49 0.097 1.4 5e-3 2m-243 15c-0.85 0.24-0.9 0.32-0.29 0.55 1.8 0.7 1.7 3.2-0.2 4.1l-1.2 0.62 0.17 4.8c0.16 4.6 0.22 4.9 1.2 5.7 0.57 0.46 1.1 1.2 1.3 1.7s0.66 0.98 1.1 1.1c1.2 0.36 38 0.97 61 1 18 0.039 32 0.44 39 1.1 3.7 0.35 3.8 0.33 8.6-1.5 3.3-1.2 4.3-1.9 6.7-4.7 1.6-1.9 1.6-3.2 0.08-5-0.5-0.6-1-1.8-1.2-2.6-0.18-1.1-0.63-1.8-1.4-2.4-0.65-0.48-1.2-1.1-1.2-1.4 0-0.4-0.85-0.62-3.1-0.81-4.4-0.37-5.2-0.57-6.4-1.6l-1-0.96-42 7e-3c-38 7e-3 -42 0.071-44 0.66-1.3 0.6-1.6 0.6-4.1-8e-3 -2.8-0.68-12-0.87-14-0.3m244 3.7c-0.094 3.4-0.66 4.3-0.71 1.2-0.027-1.7 0.12-2.9 0.35-2.9 0.22 0 0.38 0.76 0.35 1.7m7e-3 13c0.022 0.28-0.14 0.5-0.36 0.5s-0.38-0.68-0.36-1.5c0.038-1.4 0.58-0.69 0.72 1m0.04 4.2c0 3-0.2 2.9-0.55-0.17-0.16-1.5-0.11-2.3 0.14-2.3 0.23 0 0.4 1.1 0.4 2.5m-6e-3 7.2c3e-3 0.82-0.17 1.5-0.39 1.5s-0.4-0.94-0.39-2.1c5e-3 -1.5 0.12-1.9 0.39-1.5 0.21 0.33 0.39 1.3 0.39 2.1m32 9.4c-0.3 0.3-0.99-0.42-0.99-1 0-0.55 0.093-0.53 0.57 0.12 0.31 0.43 0.5 0.84 0.43 0.92m13 14c-0.14 0.13-0.34 0.01-0.44-0.27-0.099-0.28-0.31-0.42-0.48-0.32-0.16 0.1-0.3-0.078-0.3-0.4 0-0.48 0.13-0.47 0.74 0.082 0.4 0.37 0.62 0.77 0.48 0.9m-195 2.3c0 0.58 0.17 0.92 0.4 0.78 0.22-0.14 0.4-0.6 0.4-1s-0.18-0.78-0.4-0.78-0.4 0.46-0.4 1m1.1 2.2c-2 1-18 1.6-22 0.78-2.1-0.4-3.2-0.4-5.2-0.029-3 0.56-12 0.67-38 0.46-21-0.16-22-0.073-23 1.8-0.12 0.49-0.66 1.4-1.2 2.1-0.54 0.64-1.2 2-1.4 3-0.25 0.99-0.9 2.3-1.5 3-1 1.2-1.1 2.3-0.28 5.6 0.44 1.8-0.85 1.8 59 1.8 58-0.033 58-0.049 58-1.4 0-0.26 0.45-0.91 1-1.4 0.55-0.52 1.2-1.7 1.4-2.6s0.78-2 1.2-2.5c0.77-0.84 0.77-0.86-0.24-4-0.56-1.7-1-3.5-1-4-0.011-1.4-0.57-2-1.5-1.5-1.7 0.91-5 0.35-5.8-0.98-0.63-1.1-3.5-1.1-4.8-0.12-1.8 1.3-11 1.7-12 0.45-1.7-1.2-1.8-1.3-3.3-0.47m162 4.2c0.85 0.5 2.9 1.1 4.7 1.3 4.6 0.67 5.2 1.5 4.6 6.5-0.2 1.6-0.22 3.9-0.043 5.2 0.25 1.9 0.18 11-0.13 18-0.019 0.44 0.072 8.1 0.2 17 0.2 14 0.13 17-0.39 21-0.69 5.3-0.77 12-0.16 13 0.24 0.64 0.3 7.2 0.15 18-0.13 9.2-0.22 17-0.2 17 0.44 8.2-0.034 23-0.8 25-0.71 1.8-0.83 2.9-0.75 6.6 0.22 10-5.3 18-13 17-1.1-0.12-2.2-0.035-2.4 0.18-0.95 0.95-4.8 1.6-6.2 0.99-1-0.41-2-0.46-3.9-0.22-6 0.76-6.2 0.57-6.2-6.8-0.13-23-0.1-31 0.17-41 0.17-5.9 0.15-13-0.042-15-0.4-4.6-0.2-6.2 0.91-7.2 0.78-0.71 0.78-0.72-0.02-2-0.76-1.2-0.81-1.9-0.78-12 0.037-15-0.59-27-1.4-29-0.36-0.69-0.96-2.5-1.3-4.1-0.79-3.2-2.4-5.6-4.3-6.2-0.68-0.22-1.8-0.85-2.6-1.4-0.98-0.72-1.9-0.99-3.2-0.99-1.9 0-2-0.083-6.1-3.2-0.81-0.62-1.1-1.2-1.1-2.2 0-1.1-0.18-1.4-1.1-1.6-0.84-0.22-18-1-21-0.99-0.33 3e-3 -6.9 0.17-15 0.37-13 0.33-14 0.31-15-0.3-1.1-0.94-0.74-29 0.36-31 0.36-0.55 1-1.8 1.5-2.7 1.2-2.3-2.4-2.2 47-2.2l45 0.017 1.5 0.88m-224 45c-0.11 0.11-5.3 0.3-11 0.42l-11 0.21-1.2 1.1c-0.65 0.62-1.5 1.3-2 1.6-0.88 0.5-1.1 6.9-0.4 13l0.32 2.9 1.4 0.26c0.78 0.14 6.1 0.15 12 1e-3s14-0.28 18-0.31 8.2-0.21 8.8-0.42 2.6-0.55 4.6-0.76c4.7-0.48 5.7-0.87 7.8-2.7l1.7-1.5 0.082-5.7c0.092-6.5-0.08-7.1-1.5-5.7-1.5 1.5-3.9 1.1-5.7-0.85-0.9-0.96-1.1-0.98-7.2-0.98-3.5-1e-3 -8-0.11-10-0.25s-3.9-0.15-4-0.043m179 10c1.2 0.78 2.3 4.1 2.2 6.5-0.062 1.2 0.16 2.4 0.61 3.3 0.67 1.3 0.7 3.4 0.42 41-0.35 48-0.36 48-0.013 76l0.28 22-1.2 1.4c-0.68 0.77-1.2 1.6-1.2 1.8 0 0.24-0.5 0.75-1.1 1.1-1.1 0.7-1.4 1-2.1 2.1-0.24 0.39-1.4 0.67-3.4 0.84-2.3 0.19-3.4 0.48-4.3 1.2-1.3 0.97-2.8 1.1-17 0.96-2.1-0.016-5.1-0.019-6.6-7e-3s-5.1 0.017-8.1 0.011-19-9e-3 -35-8e-3c-16 2e-3 -31-0.059-34-0.14l-4.3-0.14-0.64-1.2c-0.51-0.98-0.69-3.1-0.88-10-0.23-9-0.23-17-0.031-75 0.12-34 0.041-42-0.46-43-0.43-1.1-0.95-12-0.95-19l-1e-3 -5 2-2.1c1.1-1.1 2.5-2.2 3.1-2.4 2.5-0.64 111-0.18 112 0.48m39 90c-0.38 0.22-0.7 0.65-0.7 0.94 0 0.29-0.36 0.63-0.8 0.74-0.97 0.26-1.5 1.4-0.87 2 0.58 0.58 1.7-0.3 1.7-1.3 0-0.52 0.29-0.75 0.92-0.75 1.3 0 2-0.77 1.4-1.5-0.52-0.63-0.72-0.64-1.6-0.098m40 6.6c0 0.33-0.18 0.6-0.4 0.6s-0.4-0.27-0.4-0.6 0.18-0.6 0.4-0.6 0.4 0.27 0.4 0.6m-9.2 27c0 0.36-0.24 0.5-0.6 0.36-0.33-0.13-0.6-0.39-0.6-0.59 0-0.2 0.27-0.36 0.6-0.36s0.6 0.26 0.6 0.59m-5.2 2.6c-0.8 0.51 0.2 0.51 1.4 0l0.8-0.34-0.8-0.022c-0.44-0.012-1.1 0.15-1.4 0.37m-0.26 1.4c0.12 0.32 5e-3 0.66-0.26 0.77-0.26 0.11-0.16 0.21 0.22 0.22 0.44 0.02 0.7-0.26 0.7-0.77 0-0.44-0.2-0.8-0.44-0.8-0.24 0-0.34 0.26-0.22 0.57m-16 7c0.21 1.4 5e-3 2.1-0.64 2.1-0.31 0-0.52-0.62-0.56-1.6-0.074-1.9 0.94-2.3 1.2-0.46m4.3 0.18c0 0.28-0.36 0.54-0.8 0.58s-0.8-0.12-0.8-0.34c0-0.22 0.17-0.3 0.37-0.17 0.2 0.13 0.49 0.047 0.62-0.18 0.34-0.56 0.6-0.51 0.6 0.11m-27 2.7c0.72 0.33 1 0.78 1 1.5 0 0.58 0.22 1.3 0.48 1.5 0.37 0.37 0.1 0.48-1.2 0.48-2 0-2.9-1.3-2.1-3 0.53-1.2 0.51-1.1 1.9-0.54m5.4 1.5c0 0.6-1.5 1.7-2 1.5-0.66-0.41 0.26-1.8 1.2-1.8 0.43 0 0.79 0.15 0.79 0.34m-5.4 21c-0.4 0.44-0.82 0.72-0.93 0.6s0.13-0.56 0.53-1 0.82-0.72 0.93-0.6-0.13 0.56-0.53 1m-287 1.3c0.14-0.14 0.26-0.077 0.26 0.15s0.55 0.35 1.2 0.27c0.73-0.085 1.1 0.016 0.98 0.25-0.13 0.22-0.5 0.4-0.82 0.4s-0.53 0.2-0.48 0.45c0.055 0.25-0.14 0.54-0.44 0.65-0.43 0.16-0.45 0.026-0.091-0.64 0.36-0.66 0.34-0.8-0.086-0.63-0.29 0.11-0.88-0.2-1.3-0.7-0.46-0.53-0.51-0.7-0.14-0.42 0.35 0.27 0.76 0.37 0.9 0.23m7.4 11c-0.36 0.36-0.85 0.53-1.1 0.38-0.75-0.46-0.48-0.85 0.65-0.94 1-0.083 1-0.04 0.44 0.56m0.73 2.2c0.28 1.5 1.2 2.4 2.3 2.2 1.3-0.2 1.1-0.86-0.77-2.2l-1.8-1.3 0.24 1.3m270 0.12c0 0.75 0.68 1.1 1 0.53 0.2-0.32 0.11-0.36-0.27-0.14-0.31 0.18-0.42 0.17-0.25-0.013 0.17-0.19 0.69-0.37 1.2-0.4 0.76-0.056 0.78-0.01 0.19 0.42-0.36 0.26-0.66 0.71-0.66 0.98 0 0.28-0.26 0.4-0.6 0.27-0.33-0.13-0.6-0.045-0.6 0.18s-0.16 0.31-0.36 0.19-0.31 0.09-0.25 0.48c0.16 1-0.5 1.7-1.5 1.5-0.6-0.11-0.72-0.037-0.42 0.26 0.82 0.82 2.3 0.24 2.4-0.94 0.081-0.71 0.36-1.1 0.8-1.1 2.1-0.019 2.7-2.6 0.66-2.7-0.91-0.026-1.4 0.14-1.4 0.5m-268 0.77c0 0.62-0.84 0.48-1.2-0.21-0.41-0.77-0.38-0.8 0.38-0.4 0.46 0.24 0.83 0.52 0.83 0.61m262 4.7c-0.34 0.45-0.93 0.82-1.3 0.82s-0.67 0.15-0.67 0.33c0 0.43 1.6 0.42 2.3-0.018 0.29-0.19 0.47-0.7 0.4-1.1-0.14-0.81-0.14-0.81-0.76 0.012m-253 0.84c0.14 0.36 0.68 0.77 1.2 0.9 0.57 0.14 0.96 0.53 0.96 0.97 0 0.96 0.28 1.1 2.6 1.3 1.1 0.096 1.7 0.094 1.3-5e-3 -0.41-0.1-0.59-0.37-0.42-0.65 0.16-0.27-5e-3 -0.24-0.39 0.075-0.59 0.48-0.82 0.39-1.9-0.73-0.66-0.7-1.5-1.3-1.8-1.4s-0.86-0.33-1.2-0.62c-0.56-0.46-0.61-0.45-0.4 0.12m249 1.2c0 0.65-2 1.8-3 1.8-0.38 0-0.58 0.11-0.45 0.24 0.6 0.6 3.6-0.34 3.9-1.2 0.19-0.51 0.59-1 0.88-1.1 0.29-0.12 0.12-0.22-0.37-0.24-0.54-0.019-0.9 0.2-0.9 0.56m-7.7 2.8c0.25 0.66 0.94 0.82 0.94 0.23 0-0.21 0.5-0.45 1.1-0.54 0.78-0.12 0.61-0.18-0.59-0.23-1.4-0.048-1.6 0.06-1.5 0.54" fill="#070706"/>
<path d="m81 53c1.2 0.081 3 0.081 4-2e-3 1-0.082 0.087-0.15-2.1-0.15s-3 0.068-1.9 0.15m24-5e-3c0.72 0.089 1.8 0.087 2.4-4e-3s0.013-0.16-1.3-0.16-1.8 0.077-1.1 0.17m44 0.4c0.72 0.089 1.9 0.089 2.6 0 0.72-0.088 0.13-0.16-1.3-0.16s-2 0.073-1.3 0.16m88 6e-3c1.1 0.082 2.7 0.081 3.6-3e-3s0.068-0.15-1.9-0.15-2.7 0.07-1.7 0.15m10 1e-3c1.5 0.077 4 0.077 5.6 1e-3 1.6-0.076 0.4-0.14-2.7-0.14-3.1-1e-3 -4.4 0.061-2.9 0.14m-193 15c0 5.1 0.057 7.1 0.13 4.5 0.07-2.6 0.069-6.7-1e-3 -9.2-0.07-2.5-0.13-0.34-0.13 4.7m242 3.6c2e-3 1.3 0.077 1.8 0.17 1.1s0.087-1.8-4e-3 -2.4-0.16-0.013-0.16 1.3m-242 7c0 0.77 0.082 1.1 0.18 0.7 0.1-0.38 0.1-1 0-1.4-0.1-0.38-0.18-0.07-0.18 0.7m0.083 27c0 6.3 0.056 8.8 0.12 5.7 0.068-3.1 0.068-8.3 0-11-0.067-3.1-0.12-0.57-0.12 5.7m232 47c-0.82 0.82-20 1.3-27 0.75-15-1.2-15-0.62-16 19-0.2 13-0.16 14 0.45 14 0.61 0.61 2.6 0.67 22 0.64 28-0.037 29 0.12 29 3.2 0.011 1.7 4.5 4.5 7.2 4.5 2 0 2.4 0.16 3.5 1.2 0.69 0.66 1.5 1.2 1.8 1.2 1.2 0 3.5 3.5 4.2 6.4 0.4 1.5 1 3.3 1.4 4 1.1 2.1 2 18 1.9 33-0.031 5.1 0.096 6.9 0.56 7.8 0.56 1.2 0.54 1.4-0.25 2.7-0.8 1.4-0.84 1.7-0.53 6.4 0.18 2.7 0.28 5.2 0.21 5.5-0.47 2.5-0.89 38-0.56 48l0.29 8.8 2.4-0.092c3.2-0.12 6.3-0.12 9.3-6e-3 2.1 0.084 2.6-0.037 3.5-0.83 0.91-0.85 1.2-0.91 3.8-0.66 2.6 0.25 2.8 0.2 3.9-0.72 0.65-0.54 1.8-1.3 2.4-1.6 2.8-1.5 4.9-7.7 4.9-15 0-2.1 0.26-4.6 0.58-5.7 0.69-2.3 1.3-11 1.1-16-0.22-5.5-0.24-10-0.086-27 0.1-11 0.012-16-0.36-17-0.6-2-0.36-8.1 0.54-14 0.49-3.2 0.58-6.8 0.44-18-0.092-7.6-0.16-16-0.16-18s0.027-7.1 0.043-11c0.086-21 0.34-19-4.5-20-1.9-0.25-4.3-0.84-5.4-1.3-1.9-0.81-27-1.3-35-0.71-0.77 0.06-4.7-0.013-8.8-0.16s-7.5-0.18-7.6-0.073m7 1.3c3.1 0.14 6.5 0.39 7.7 0.54 1.5 0.21 2.5 0.12 3.4-0.33 1.9-0.9 23-1.1 28-0.25 1.9 0.32 4.8 0.77 6.6 1 3 0.4 7.4 2.5 7.4 3.6 0 1.6-14 2.7-20 1.7-1.6-0.26-8.4-0.26-20-0.011-17 0.38-18 0.37-22-0.48-4.6-0.92-6.1-0.9-11 0.19-2.6 0.57-3.3 0.58-5.8 0.095-3.1-0.61-13-0.3-14 0.46-0.41 0.22-1.5 1.2-2.5 2.2l-1.8 1.8-0.17 5.1c-0.29 8.8-0.21 11 0.43 13 1 3-0.12 4.4-3.5 4.4h-1.7l0.19-9.1c0.13-6.2 0.39-9.9 0.79-11 0.42-1.7 0.52-3.2 0.33-5.3-0.29-3.2 0.49-6.2 1.8-6.7 1.5-0.59 12-0.67 15-0.11 3 0.63 20 0.28 22-0.45 0.55-0.22 1.7-0.33 2.6-0.24s4.1 0.28 7.2 0.42m-239 35c0 7.3 0.054 10 0.12 6.7s0.067-9.5 0-13c-0.066-3.7-0.12-0.78-0.12 6.5m282 5.2c0.25 0.66-0.34 1.2-0.92 0.82-0.42-0.26-0.11-1.4 0.38-1.4 0.17 0 0.42 0.26 0.54 0.59m5.1 21c0 0.33-0.18 0.6-0.4 0.6s-0.4-0.27-0.4-0.6 0.18-0.6 0.4-0.6 0.4 0.27 0.4 0.6m-4.9 16c-0.53 0.86-1.1 0.67-1.1-0.36 0-0.98 0.43-1.3 1-0.8 0.4 0.33 0.41 0.6 0.057 1.2m-18 13c0.3 2-0.42 4.4-1 3.5-0.67-1.1-0.28-5.8 0.44-5.4 0.18 0.11 0.44 0.96 0.58 1.9m0.16 14c-0.5 1.9-0.52 2.5-0.092 3.6 0.38 0.93 0.4 1.5 0.082 2.4-0.31 0.81-0.3 1.9 0.05 3.9 0.42 2.5 0.39 3-0.17 4.1-0.36 0.69-0.64 2-0.64 2.9 0 2.4-0.51 1.6-0.71-1.2-0.31-4.1-0.18-17 0.2-20l0.22-1.6 0.83 1.7c0.79 1.6 0.8 1.8 0.23 4m-265 28c0 0.77 0.082 1.1 0.18 0.7 0.1-0.38 0.1-1 0-1.4-0.1-0.38-0.18-0.07-0.18 0.7m264 3.6c-0.12 0.44-0.37 0.7-0.56 0.58-0.43-0.26-0.48-2.7-0.064-3.1 0.4-0.4 0.88 1.6 0.63 2.5m8 3.9c0.1 0.17-0.039 0.73-0.32 1.2l-0.5 0.94-0.24-0.92c-0.33-1.3 0.47-2.2 1.1-1.3m8.4 4.8c0.62 0.69 0.54 0.83-1.5 2.6-2.3 2-3 2.2-3.8 1.3-1.5-1.8 3.7-5.6 5.3-3.9m-280 52c0 3.4 0.061 4.8 0.14 3.1s0.075-4.5 0-6.2-0.14-0.31-0.14 3.1" fill="#48b6d0"/>
<path d="m61 26c-0.51 0.59-1 0.78-1.9 0.65-0.65-0.096-1.3 3e-3 -1.4 0.22-0.31 0.5 4.2 0.074 4.8-0.44 0.21-0.21 0.14-0.54-0.18-0.81-0.41-0.34-0.71-0.26-1.2 0.38m160-0.49c0 0.33 4.8 0.13 5.2-0.22 0.091-0.08-1-0.15-2.5-0.15-1.5 0-2.7 0.16-2.7 0.36m12 0.038c0 0.23-1.3 0.4-3.1 0.4-4.1 0-3.6 0.24 1.2 0.53 2.2 0.13 4.1 0.34 4.3 0.46 0.2 0.12 0.46 0.051 0.59-0.16 0.13-0.21-0.17-0.46-0.67-0.55s0.35-0.19 1.9-0.2c1.9-0.018 2.5 0.084 2 0.32-0.6 0.26-0.32 0.35 1.1 0.37 1.4 0.02 2-0.15 2.1-0.57 0.19-0.49 1.4-0.62 6.5-0.69l6.3-0.089-6.1-0.12c-3.8-0.076-6.4 0.04-6.9 0.3-0.54 0.29-0.79 0.29-0.79 0.01 0-0.26-1.6-0.41-4.2-0.41-2.5 0-4.2 0.16-4.2 0.4m24 0c0 0.22-0.45 0.4-1 0.4s-1 0.14-1 0.32c0 0.42 4.3 1.3 5.6 1.1 0.55-0.074 1.4-0.15 1.9-0.17 0.5-0.018 0.9-0.22 0.9-0.45 0-0.26-0.94-0.35-2.6-0.23-2.6 0.19-4.6-0.6-2.7-1.1 0.57-0.15 0.53-0.2-0.18-0.23-0.5-0.025-0.9 0.13-0.9 0.35m-69 0.7c1.2 0.081 3 0.081 4-2e-3 1-0.082 0.087-0.15-2.1-0.15s-3 0.068-1.9 0.15m8.6-0.019c0.38 0.1 1 0.1 1.4 0 0.38-0.1 0.07-0.18-0.7-0.18s-1.1 0.082-0.7 0.18m68 0.52c0.14 0.22 0.6 0.4 1 0.4s0.78-0.18 0.78-0.4-0.46-0.4-1-0.4c-0.58 0-0.92 0.17-0.78 0.4m-210 0.37c-0.13 0.2-0.06 0.48 0.15 0.61 0.21 0.13 0.49 0.059 0.62-0.16s0.55-0.29 0.93-0.17c0.58 0.19 0.6 0.16 0.087-0.21-0.74-0.53-1.5-0.56-1.8-0.072m220 0.028c0.14 0.22 0.52 0.4 0.85 0.4s0.49-0.18 0.35-0.4-0.52-0.4-0.85-0.4-0.49 0.18-0.35 0.4m5.1 0.48c0.087 0.26 0.37 0.55 0.63 0.63 0.29 0.098 0.38-0.085 0.23-0.48-0.28-0.73-1.1-0.88-0.86-0.16m1.5 0.32c0 1 1.2 1.6 3.1 1.6l1.5-0.057-1.4-0.24c-1.1-0.19-1.4-0.42-1.4-1.1 0.045-0.59-0.2-0.84-0.86-0.9-0.68-0.057-0.93 0.13-0.93 0.7m-232 1.6c-0.14 0.22 0.12 0.4 0.58 0.4s0.82-0.18 0.82-0.4-0.26-0.4-0.58-0.4-0.69 0.18-0.82 0.4m241 0c0.78 0.5 1.2 0.5 1.2 0 0-0.22-0.4-0.4-0.9-0.39-0.73 5e-3 -0.78 0.08-0.3 0.39m-246 2.8c-0.23 0.14-0.4 0.37-0.38 0.51 0.16 1.2-0.024 1.5-0.89 1.2-0.92-0.23-1.9 0.98-1.9 2.4 0 0.3-0.39 0.5-0.9 0.47-1.1-0.069-1.5 0.42-1.5 1.8-5e-3 0.92-0.15 1-0.98 0.9-0.54-0.097-1.1 5e-3 -1.2 0.23s-0.046 0.4 0.2 0.4c0.26 0 0.19 0.26-0.18 0.63-0.86 0.86-0.8 1.6 0.071 0.86 0.38-0.35 0.84-0.65 1-0.66 0.16-0.016 0.29-0.14 0.27-0.26-0.052-0.46 1.4-1.3 2.3-1.4 0.88-0.013 2-2.5 1.5-3.3-0.11-0.19-7e-3 -0.34 0.24-0.34s0.34-0.18 0.2-0.4 0.28-0.51 0.92-0.64c1.2-0.24 3.3-1.9 3.3-2.5 0-0.4-1.4-0.38-2 0.022m256 0.17c0.58 0.7 1.2 0.79 1.2 0.18 0-0.23-0.18-0.31-0.4-0.18s-0.4 0.057-0.4-0.18-0.2-0.42-0.45-0.42c-0.31 0-0.3 0.18 0.049 0.6m4.7 2c-0.8 0.82-0.3 2.6 0.8 2.8 0.6 0.13 1.3 0.31 1.6 0.4s0.5-0.11 0.5-0.44c0-0.42-0.27-0.53-0.92-0.36-0.8 0.2-0.97 0.033-1.3-1.2-0.21-0.81-0.51-1.3-0.68-1.2m3.7 3.8c0.24 0.44 0.63 0.8 0.88 0.8s0.12-0.36-0.28-0.8-0.79-0.8-0.88-0.8 0.041 0.36 0.28 0.8m4.2 4c0.38 0.42 0.71 1.1 0.75 1.6 0.033 0.45 0.21 0.73 0.38 0.62 0.18-0.11 0.22-0.41 0.087-0.67-0.13-0.26 0.045-0.12 0.39 0.3s0.73 0.67 0.86 0.54c0.13-0.13-0.42-0.88-1.2-1.7-1.5-1.5-2.5-2-1.3-0.68m-281 2.6c-0.53 0.3-1 0.83-1.1 1.2-0.12 0.84-0.16 0.85 1.2-0.55 1.3-1.3 1.3-1.4-0.1-0.64m-1.8 3.3c-0.15 0.15-0.27 0.55-0.27 0.9s-0.39 0.82-0.87 1c-1.2 0.54-1.4 1.4-0.32 1.3 0.93-0.07 1.6-1 1.8-2.5 0.11-1 0.085-1.1-0.32-0.68m286 0.33c0.27 0.33 0.67 0.48 0.89 0.35 0.24-0.15 0.18-0.38-0.14-0.59-0.86-0.55-1.3-0.41-0.75 0.24m-250 2.6c-3.2 0.17-5 0.46-5.8 0.92-0.66 0.37-1.5 0.68-1.9 0.68-0.58 2e-3 -1.6 0.76-4 3.1-0.79 0.77-3.1 3.3-3.1 3.4-0.016 0.062-0.11 50-0.2 111-0.13 81-0.3 112-0.63 113-0.61 2.6-0.63 8.3-0.047 11 0.32 1.6 0.47 7.8 0.47 19 2e-3 9.3 0.13 24 0.28 32l0.28 15 1.3 1.4c0.71 0.76 1.6 1.7 2 2.2 0.57 0.65 1 0.75 2.4 0.56 1.4-0.19 1.9-0.068 2.8 0.65 1.1 0.87 1.4 0.89 14 0.98 6.9 0.051 19 0.23 28 0.4 8.4 0.17 18 0.16 21-0.024 3.3-0.18 6.8-0.28 7.8-0.22 14 0.81 23-0.39 24-3.1 0.24-0.64 0.31-22 0.19-59-0.11-32-0.16-60-0.11-63 0.097-5.6 0.087-8.3-0.079-20-0.19-13 0.27-21 1.4-22 0.48-0.59 1.1-1.7 1.3-2.4 0.25-0.73 0.91-1.9 1.5-2.5 0.56-0.66 1-1.5 1-2 0-0.93 0.88-1.4 3.1-1.7 0.92-0.12 2.3-0.64 3-1.2l1.3-0.94 26-0.2c25-0.19 26-0.22 27-0.99 1.2-1.1 2.1-3.3 1.8-4.4-0.13-0.51-0.032-2.2 0.21-3.8 0.4-2.6 0.36-3.1-0.4-5.4-1-3-0.92-9.5 0.19-15 0.36-1.6 0.83-5.4 1-8.4 0.38-5.1 0.45-5.4 1.6-6.7 0.66-0.75 1.2-1.7 1.2-2.2s0.42-1.2 0.94-1.7c0.52-0.48 1.1-1.3 1.4-1.8 0.33-0.62 0.99-0.95 2.3-1.1 1.4-0.2 2-0.56 2.6-1.4 1.1-1.5 3.4-2.5 4.7-2 2.7 0.94 4.4-1.8 1.7-2.8-2.8-1.1-0.45-1.2 28-1.3 27-0.15 26-0.041 28-2.9 1.5-2.2 1.6-2.9 0.8-11-0.44-4.7-0.43-5.5 0.16-7.3 0.69-2.1 0.55-5.8-0.28-7.4-0.22-0.43-0.5-9.4-0.65-21l-0.26-21-0.93-0.99c-0.51-0.54-1.2-1.6-1.6-2.3-0.51-1-1.1-1.5-2.5-1.9-1-0.33-2.2-0.87-2.6-1.2-0.97-0.82-4.8-0.72-5.7 0.15-0.98 0.89-2.1 0.81-3.9-0.25l-1.5-0.9-38-0.2c-35-0.19-38-0.25-39-0.9-1.2-0.87-3.1-0.89-5.6-0.052-1.9 0.61-11 0.6-19-0.013-11-0.76-11-0.76-14-0.017-2.5 0.85-34 0.97-40 0.15-5.9-0.84-8.8-0.89-10-0.16-1.4 0.63-1.7 0.63-5.4-8e-3 -3.9-0.67-4.9-0.69-25-0.45-2.5 0.031-5.9-0.046-7.4-0.17-1.5-0.12-4.9-0.11-7.4 0.023m-38 1.4c-0.38 0.44-0.38 0.6 0 0.75 0.36 0.14 0.37 0.29 0.039 0.53-0.54 0.4-0.6 3.7-0.073 3.7 0.2 0 0.27 0.16 0.14 0.37-0.12 0.2 0.32 0.16 0.98-0.087 1.5-0.55 1.6-1.9 0.35-3-0.62-0.58-0.78-1.1-0.59-1.8 0.28-1.1-0.082-1.3-0.85-0.44m204 1.2c36 0.11 41 0.26 43 1.5 1.4 0.72 2.1 0.78 5.6 0.55 5.8-0.38 9.8 0.49 9.8 2.1 0 0.38 0.55 1.5 1.2 2.5l1.2 1.9 0.16 8.3c0.3 15 0.3 55 8e-3 56-0.87 2.7-10 4-17 2.3-2.7-0.67-5.6-0.54-14 0.62-1.5 0.21-3.3 0.17-4.7-0.11-1.5-0.29-2.8-0.31-4-0.053-0.95 0.21-2.5 0.26-3.5 0.1-2.6-0.41-8.1-0.4-9.4 0.015-0.64 0.2-1.9 0.55-2.8 0.79-1.3 0.34-2.2 1.1-4.4 3.6-2 2.3-3.1 3.3-4 3.5-1.4 0.3-3.8 2.6-5 4.8-0.47 0.85-1.2 2.1-1.7 2.9-0.64 1-0.87 2.2-1 5.4-0.17 3.2-0.39 4.4-1.1 5.5-0.82 1.4-0.85 1.8-0.86 15-0.01 17 0.16 16-3.9 17-1.6 0.29-10 0.45-24 0.47-23 0.022-27 0.24-29 1.3-0.4 0.36-1.5 0.89-2.5 1.2-1.8 0.53-4.4 3.6-5 5.8-0.14 0.57-0.73 1.5-1.3 2.1-0.97 1-1.1 1.5-1.4 6-0.18 2.7-0.52 6.6-0.75 8.7-0.65 5.9-0.62 8.9 0.18 15 0.78 6.3 0.74 6.9-0.97 16-0.33 1.7-0.25 2.2 0.52 3.8l0.9 1.9 0.1 56c0.091 48 0.025 57-0.47 57-0.52 0.71-1.2 0.8-7.3 0.99-4.6 0.14-7 0.38-7.7 0.75-0.82 0.46-1.4 0.44-4.3-0.16-2.9-0.6-3.9-0.64-7.5-0.26-2.3 0.24-4.8 0.33-5.6 0.2-0.98-0.16-1.8-0.036-2.4 0.37-0.79 0.52-1.9 0.56-7.5 0.3-3.6-0.17-8.5-0.22-11-0.12-2.7 0.12-4.8 8e-3 -6-0.32-1.2-0.34-7.1-0.61-18-0.83-22-0.44-20-0.32-21-1.7-0.37-0.61-0.97-1.3-1.3-1.6-1.6-1.2-1.6 0.2-1.5-188l0.043-113 1.7-1.8c2.9-3 4.7-4.4 6-4.7 0.71-0.17 32-0.21 70-0.097s84 0.25 102 0.3m86 1c0.24 0.44 0.63 0.8 0.88 0.8s0.12-0.36-0.28-0.8-0.79-0.8-0.88-0.8 0.041 0.36 0.28 0.8m-293 7c0 0.74 0.1 0.88 0.34 0.5 0.45-0.71 0.45-1.5 6e-3 -1.5-0.19 0-0.35 0.47-0.35 1m295 3.6c-0.61 1.6-0.25 3.6 0.74 4 0.76 0.35 1 0.34 1.2-0.079 0.11-0.3-0.14-0.64-0.58-0.78-0.79-0.25-0.92-0.71-0.79-2.7 0.08-1.2-0.17-1.4-0.54-0.47m-133 1.8c-0.41 0.67 0.52 1.4 1.1 0.88 0.46-0.46 0.17-1.3-0.44-1.3-0.19 0-0.47 0.2-0.62 0.44m97 2.3c-0.53 0.86-0.67 3.3-0.24 4.1l0.49 0.91 0.54-0.97c1-1.8 0.25-5.7-0.79-4m37 7.5c3e-3 1.1 0.081 1.5 0.17 0.9 0.092-0.61 0.09-1.5-5e-3 -2-0.095-0.49-0.17 5e-3 -0.17 1.1m-43 11c0 0.44 0.18 0.8 0.4 0.8s0.4-0.36 0.4-0.8-0.18-0.8-0.4-0.8-0.4 0.36-0.4 0.8m-201 4.1c-1.6 0.55-1.7 1.4-0.3 2.7l1.2 1.1-2.5 1.8v5.6 5.6l1.2 1.1c0.63 0.59 1.4 1.5 1.6 2 0.3 0.57 0.98 0.97 2 1.1 0.82 0.14 2.5 0.5 3.7 0.8 2.4 0.58 21 0.83 77 1.1l28 0.12 0.96-0.9c0.53-0.5 1.8-1.2 2.8-1.5 4.4-1.5 7.1-7.7 4.7-11-0.45-0.57-1-1.6-1.3-2.4-0.95-2.8-3.8-5-6.9-5.3-1.9-0.19-3.3-0.61-4.6-1.4l-1.8-1.1-52-0.041c-30-0.024-53 0.11-53 0.32m15 1.4c2.5 0.61 2.8 0.61 4.1 8e-3 1.2-0.59 5.4-0.65 44-0.66l42-7e-3 1 0.96c1.2 1.1 1.9 1.3 6.4 1.6 2.2 0.19 3.1 0.41 3.1 0.81 0 0.3 0.53 0.94 1.2 1.4 0.81 0.6 1.3 1.4 1.4 2.4 0.14 0.86 0.67 2 1.2 2.6 1.5 1.8 1.5 3.1-0.08 5-2.4 2.8-3.3 3.5-6.7 4.7-4.9 1.8-5 1.8-8.6 1.5-7-0.67-21-1.1-39-1.1-23-0.049-60-0.66-61-1-0.49-0.15-1-0.65-1.1-1.1s-0.72-1.2-1.3-1.7c-0.98-0.8-1-1.1-1.2-5.7l-0.17-4.8 1.2-0.62c1.9-0.98 2-3.4 0.2-4.1-2.6-1 10-1.2 14-0.25m229 4.6c0.036 2.2 0.12 2.6 0.35 1.7 0.46-1.8 0.46-4.6 0-4.6-0.23 0-0.38 1.2-0.35 2.9m-7e-3 11c-0.022 0.82 0.14 1.5 0.36 1.5 0.46 0 0.46-0.57 0-2-0.29-0.89-0.32-0.84-0.36 0.5m0.21 5c0.35 3.1 0.55 3.2 0.55 0.17 0-1.4-0.18-2.5-0.4-2.5-0.26 0-0.31 0.85-0.14 2.3m-56 4c-0.4 0.4-0.27 2.8 0.16 3.1 0.4 0.24 1.2-1.4 1.2-2.4 0-0.58-0.98-1.1-1.4-0.72m55 2.8c-3e-3 1.2 0.17 2.1 0.39 2.1 0.51 0 0.51-2.8 0-3.6-0.28-0.43-0.39-3e-3 -0.39 1.5m-160 4.6c-0.17 0.4-0.2 0.83-0.061 0.97 0.41 0.41 0.73-0.16 0.55-0.95-0.16-0.7-0.19-0.7-0.48-0.014m168 0.98c2.4 0.071 6.2 0.07 8.4-1e-3s0.3-0.13-4.3-0.13c-4.6 1e-3 -6.5 0.059-4.1 0.13m24 3.4c0 0.36 0.19 0.77 0.43 0.92 0.69 0.42 0.75 0.045 0.14-0.79-0.47-0.65-0.57-0.67-0.57-0.12m4.4 3.8c-0.018 0.25 0.42 0.75 0.97 1.1 0.55 0.36 1 0.9 1 1.2 0 0.61 0.85 1 2.1 1 0.5 0 0.68 0.17 0.51 0.46-0.17 0.28-0.11 0.35 0.16 0.19 0.86-0.53 0.057-1.5-1-1.2-0.9 0.23-0.99 0.15-0.79-0.62 0.24-0.93-1.3-2.3-2.1-1.9-0.21 0.13-0.48 0.011-0.59-0.27-0.13-0.32-0.21-0.34-0.23-0.048m-192 4.4c-1.6 1.2-0.83 3.6 1.1 3.3 1.2-0.18 2.3-2.1 1.7-3-0.58-0.92-1.7-1-2.9-0.24m198 0.64c-0.03 0.73 0.16 1.1 0.55 1.1 0.33 0 0.6 0.14 0.6 0.32s0.36 0.34 0.8 0.38c0.67 0.051 0.73-0.064 0.39-0.71-0.23-0.42-0.54-0.75-0.7-0.73-0.8 0.12-1.2-0.12-1.4-0.75-0.11-0.43-0.2-0.28-0.23 0.4m-253 0.16c-0.32 0.32 0.041 0.94 0.55 0.94 0.21 0 0.38-0.27 0.38-0.6 0-0.62-0.47-0.8-0.92-0.34m61 5.5c-0.3 0.71-0.73 1.8-0.96 2.4-0.49 1.3-7 2-11 1.3-1.3-0.22-2.7-0.23-3.2-0.027-0.51 0.19-2.5 0.23-4.3 0.089-2.1-0.16-6.3 0-11 0.42-4.9 0.44-8.9 0.58-11 0.41-2.1-0.15-12-0.35-23-0.46l-19-0.19-1.8 1.5c-0.98 0.8-1.8 1.7-1.8 2 0 0.29-0.43 0.86-0.95 1.3-0.56 0.44-1.2 1.7-1.6 3-0.37 1.3-0.92 2.4-1.2 2.5-1.6 0.6-1.8 8.1-0.26 9.5 1.4 1.3 5.4 2.3 7.7 1.9 2.2-0.35 9.9-0.24 12 0.18 0.83 0.14 2.8-0.04 4.4-0.4 2.5-0.54 4.9-0.61 16-0.42 7.4 0.12 15 0.17 17 0.11 2.2-0.063 8.6-0.052 14 0.023 12 0.16 10 0.16 30-0.04 15-0.16 17-0.34 17-1.5 0-0.2 0.45-0.89 1-1.6s1.3-2 1.6-2.9c0.34-0.95 0.98-2.1 1.4-2.6 1.1-1.2 0.94-5.4-0.36-7.1-0.48-0.6-0.99-1.9-1.1-2.9-0.41-2.7-2-3.6-3.2-1.8-0.37 0.6-1.7 0.48-3.1-0.27-2.4-1.3-5.4-1.7-6.9-1.1-0.94 0.39-3 0.57-6.6 0.57h-5.2l-1.9-2.4c-2.4-3-2.8-3.1-3.5-1.5m195-0.33c0 0.32 0.14 0.5 0.3 0.4 0.16-0.1 0.38 0.041 0.48 0.32 0.099 0.28 0.3 0.4 0.44 0.27 0.14-0.13-0.074-0.54-0.48-0.9-0.61-0.55-0.74-0.56-0.74-0.082m-193 3c0 0.43-0.18 0.89-0.4 1-0.23 0.14-0.4-0.2-0.4-0.78 0-0.56 0.18-1 0.4-1s0.4 0.35 0.4 0.78m194 0.88c-0.51 0.92-0.75 1.5-0.52 1.4 0.23-0.14 0.89 0.12 1.5 0.57 1.2 0.97 2.3 0.87 1.3-0.13-0.36-0.36-0.66-1.1-0.66-1.6-0.013-1.9-0.61-2-1.6-0.27m-191 2c1.7 1.2 10 0.89 12-0.45 1.4-1 4.2-0.95 4.8 0.12 0.79 1.3 4.1 1.9 5.8 0.98 0.94-0.5 1.5 0.047 1.5 1.5 3e-3 0.47 0.46 2.2 1 4 1 3.1 1 3.1 0.24 4-0.43 0.46-0.97 1.6-1.2 2.5s-0.88 2.1-1.4 2.6c-0.55 0.52-1 1.2-1 1.4 0 1.3-0.64 1.4-58 1.4-60 0.034-59 0.073-59-1.8-0.78-3.3-0.73-4.4 0.28-5.6 0.55-0.64 1.2-2 1.5-3 0.25-0.99 0.89-2.3 1.4-3 0.54-0.64 1.1-1.6 1.2-2.1 0.47-1.9 1.6-2 23-1.8 27 0.21 35 0.1 38-0.46 2-0.38 3.1-0.37 5.2 0.029 4.2 0.8 20 0.25 22-0.78 1.5-0.79 1.6-0.78 3.3 0.47m67 3.1c-0.66 0.15-1.3 0.8-1.9 1.9-0.48 0.94-1.2 2.2-1.5 2.7-1 1.6-1.4 30-0.44 31 0.69 0.77 24 0.85 28 0.1 0.72-0.14-4.9-0.21-12-0.15-13 0.096-14 0.047-14-0.59-0.64-0.64-0.68-1.8-0.48-15 0.24-15 0.099-14 2.9-18 1.1-1.3 5.7-1.8 13-1.2 6.3 0.49 14 0.42 21-0.19 3.2-0.27 8.7-0.47 12-0.45s7.5 0.041 8.8 0.049 9.5-8e-3 18-0.034c15-0.048 16-0.026 18 0.82 1.1 0.48 3.5 1.1 5.4 1.3 4.8 0.64 4.6-0.51 4.5 20-0.016 4.1-0.036 9.1-0.043 11s0.063 10 0.16 18c0.14 11 0.046 15-0.44 18-0.9 5.9-1.1 12-0.54 14 0.37 1.2 0.46 5.5 0.36 17-0.15 16-0.13 21 0.086 27 0.2 5.1-0.38 14-1.1 16-0.33 1.1-0.58 3.6-0.58 5.7 0 7.1-2.1 13-4.9 15-0.7 0.36-1.8 1.1-2.4 1.6-1.1 0.91-1.4 0.97-3.9 0.72-2.5-0.25-2.8-0.2-3.8 0.66-0.83 0.78-1.4 0.91-3.3 0.83-2.7-0.12-6.2-0.12-9.5 0.01l-2.4 0.092-0.29-8.8c-0.32-9.8 0.094-45 0.56-48 0.062-0.33-0.034-2.8-0.21-5.5-0.31-4.6-0.28-5 0.53-6.4 0.79-1.3 0.81-1.5 0.25-2.7-0.47-0.99-0.6-2.7-0.56-7.8 0.089-15-0.82-31-1.9-33-0.35-0.67-0.96-2.5-1.4-4-0.75-2.9-3.1-6.4-4.2-6.4-0.32 0-1.1-0.54-1.8-1.2-1.1-1-1.6-1.2-3.5-1.2-2.7 0-7.2-2.8-7.2-4.5-3e-3 -0.49-0.18-1.2-0.39-1.5-0.29-0.45-0.39-0.23-0.39 0.87-5e-3 1.1 0.24 1.7 1.1 2.3 4 3.1 4.2 3.2 6.1 3.2 1.4 0 2.2 0.27 3.2 0.99 0.74 0.54 1.9 1.2 2.6 1.4 1.9 0.62 3.5 2.9 4.3 6.2 0.38 1.6 0.98 3.4 1.3 4.1 0.84 1.6 1.5 14 1.4 29-0.024 9.9 0.023 11 0.78 12 0.8 1.3 0.8 1.3 0.02 2-1.1 1-1.3 2.6-0.91 7.2 0.19 2.2 0.21 8.9 0.042 15-0.27 9.5-0.31 17-0.17 41 0.042 7.4 0.22 7.6 6.2 6.8 1.9-0.24 3-0.18 3.9 0.22 1.4 0.57 5.2-0.041 6.2-0.99 0.21-0.21 1.3-0.3 2.4-0.18 7.4 0.76 13-6.6 13-17-0.081-3.7 0.041-4.7 0.75-6.6 0.76-1.9 1.2-17 0.8-25-0.024-0.44 0.066-8.3 0.2-17 0.15-10 0.097-17-0.15-18-0.61-1.6-0.53-8 0.16-13 0.52-4 0.59-7.6 0.39-21-0.13-9-0.22-17-0.2-17 0.31-7.2 0.38-17 0.13-18-0.18-1.3-0.16-3.7 0.043-5.2 0.64-5 0.049-5.9-4.6-6.5-1.9-0.27-3.9-0.84-4.7-1.3l-1.5-0.88-45-0.017c-25-9e-3 -45 0.085-46 0.21m26 36c0.15 0.15 4.6 0.39 10 0.54 5.3 0.15 10 0.4 10 0.54 0.71 0.24 0.72 0.22 0.11-0.17-0.38-0.24-2.7-0.53-5.2-0.62-12-0.46-16-0.54-15-0.29m-148 4.7c-2.1 1.9-2.2 2.2-1.2 3.2 2.1 1.9 4.9 0.24 4.3-2.7-0.43-2.3-1-2.4-3.1-0.51m-37 1.5c-0.39 0.63 0.37 1.2 1.2 0.93 0.53-0.2 0.58-0.38 0.22-0.81-0.55-0.66-1-0.7-1.4-0.12m44 0.1c-1 0.74-0.44 1.5 1.2 1.5 1.6 0 2.5-0.8 1.7-1.5-0.63-0.63-2-0.6-2.9 0.069m203 0.048c-0.25 0.66 0.34 1.2 0.92 0.82 0.42-0.26 0.11-1.4-0.38-1.4-0.17 0-0.42 0.26-0.54 0.59m-225 2.2c-2.8 0.15-6.5 0.56-8.4 0.92-1.9 0.36-5.1 0.65-7.3 0.65-3.8 8e-3 -3.9 0.043-5.1 1.2-0.68 0.66-1.4 1.2-1.6 1.2-2.4 0-3.7 9.6-1.7 13 0.52 0.84 0.87 2.1 0.87 3.1 2e-3 3-0.27 3 28 2.6l21-0.31 2.2-1.1c4-2 5.6-4.5 5.8-9.2 0.045-0.88 0.26-2.6 0.49-3.8 0.76-4.1-2.2-7.8-4.2-5.3-1.1 1.5-1.7 1.5-2.8 0.39-1.6-1.8-3.1-2.1-10-2.1-6-0.013-7-0.11-7.6-0.72-0.83-0.75-0.87-0.76-9.7-0.28m18 2.4c6.1 2e-3 6.3 0.023 7.2 0.98 1.8 2 4.3 2.3 5.7 0.85 1.4-1.4 1.6-0.78 1.5 5.7l-0.082 5.7-1.7 1.5c-2 1.9-3.1 2.3-7.8 2.7-2 0.2-4 0.54-4.6 0.76s-4.5 0.4-8.8 0.42-12 0.16-18 0.31-11 0.14-12-1e-3l-1.4-0.26-0.32-2.9c-0.68-6-0.48-12 0.4-13 0.43-0.24 1.3-0.95 2-1.6l1.2-1.1 11-0.21c6.2-0.12 11-0.3 11-0.42s1.9-0.092 4 0.043 6.6 0.25 10 0.25m53 9.3c-0.61 0.16-2 1.2-3.1 2.4l-2 2.1 1e-3 5c2e-3 7.7 0.52 18 0.95 19 0.5 1.3 0.58 8.7 0.46 43-0.2 58-0.2 66 0.031 75 0.19 7.3 0.37 9.5 0.88 10l0.64 1.2 4.3 0.14c2.4 0.076 17 0.14 34 0.14 16-1e-3 32 2e-3 35 8e-3s6.6 1e-3 8.1-0.011 4.5-9e-3 6.6 7e-3c14 0.1 16 0.014 17-0.96 0.93-0.69 2-0.98 4.3-1.2 2-0.17 3.2-0.44 3.4-0.84 0.65-1.1 0.97-1.4 2.1-2.1 0.6-0.38 1.1-0.9 1.1-1.1 0-0.24 0.55-1.1 1.2-1.8l1.2-1.4-0.28-22c-0.34-28-0.34-28 0.013-76 0.28-37 0.26-39-0.42-41-0.45-0.87-0.68-2.1-0.61-3.3 0.12-2.4-0.97-5.7-2.2-6.5-1-0.65-109-1.1-112-0.48m109 1.3c3 0.5 3.9 7.4 0.92 7.4-1.5 0-1.1 0.57 0.88 1.6l2.1 1.1-0.077 2.4c-0.042 1.3-0.047 3.1-0.011 4 0.079 1.9-0.079 26-0.29 44-0.33 28-0.34 48-0.014 63 0.46 21 0.38 24-0.82 26-1.5 3.1-4.1 5-7 5-1.3 0-3.5 0.39-5 0.89-3.1 1-7.5 1.1-13 0.27-2.5-0.41-3.6-0.4-6 0.055-1.6 0.3-3.2 0.54-3.5 0.51s-2.9-0.24-5.7-0.5c-4.3-0.39-5.5-0.36-7.5 0.16-1.3 0.34-3.2 0.61-4.1 0.6-0.95-0.01-6.5 0.073-12 0.18-6.3 0.12-13 0.016-16-0.25-6.4-0.51-7.4-0.51-17-0.11-6.2 0.28-6.4 0.26-10-0.83-3.7-1.1-3.8-1.1-5-0.42-2.5 1.5-2.3 5.4-2.3-58-0.023-66-0.3-88-1.1-90-0.54-0.96 0.5-3.2 2.4-5.1l1.6-1.6 54 0.1c30 0.055 54 0.2 55 0.32m-20 7.1c-0.68 0.68-0.6 1.3 0.26 2.1 1.2 1.1 3.3-0.64 2.2-1.8-0.78-0.86-1.8-0.97-2.5-0.28m-59 0.2c-0.38 0.1-0.7 0.44-0.7 0.75 0 0.81 1.9 1.2 3.1 0.59 1.8-0.82-0.18-1.9-2.4-1.3m-6.9 7.4c-0.62 0.95-0.22 3.1 0.58 3.1 0.7 0 2.1-2 1.9-2.9-0.19-1.3-1.7-1.5-2.5-0.21m130 5.3c-0.37 0.37-0.33 1.6 0.057 1.9 0.61 0.38 1.3-1.2 0.72-1.7-0.28-0.24-0.64-0.31-0.78-0.17m-65 2.3c-1.6 0.68-1.7 1.5-0.28 2.1 1.8 0.83 6.1-0.64 5-1.7-0.9-0.85-3.2-1.1-4.7-0.44m-202 5.5c-1.6 0.46-1.4 1 0.56 1.4 1.7 0.32 2.6-0.28 1.8-1.2-0.57-0.69-0.52-0.69-2.3-0.17m24 0.087c-0.78 0.94 0.5 1.7 1.8 1.1 1.1-0.5 0.93-0.97-0.52-1.4-0.51-0.15-1-0.033-1.3 0.3m187 11c-1 0.56-1.9 2.3-1.4 2.8 0.57 0.57 3-0.32 3.2-1.2 0.62-2.3 0.14-2.7-1.8-1.7m-61 0.38c-2.1 1.1-2 4.8 0.13 5.2 2.2 0.49 3.7-2.3 2.5-4.6-0.68-1.3-1.1-1.4-2.6-0.57m-144 1.3c-0.69 0.76 0.079 2.1 1.2 2.1 0.82 0 2.5-1.6 2.3-2.2-0.32-0.84-2.7-0.74-3.5 0.15m44 9.9c-0.61 0.74-0.066 2 0.87 2 0.76 0 0.93-1.6 0.23-2.1-0.44-0.37-0.68-0.33-1.1 0.17m18 0.58c-0.32 0.52 0.16 2.8 0.59 2.8 0.48 0 1.3-2.3 1-2.8-0.33-0.54-1.3-0.55-1.6-0.014m100 6.7c-9e-3 1.7 0.013 1.7 1.4 1.7 1.7 0 2.2-0.6 0.94-1.2-0.5-0.26-1.2-0.85-1.6-1.3-0.68-0.84-0.69-0.83-0.7 0.85m-143 0.42c-0.6 1.1 0.51 2.1 1.4 1.2 0.52-0.52 0.5-0.68-0.19-1.3-0.75-0.68-0.8-0.67-1.2 0.085m181 0.6c-0.72 1.9 0.68 3.5 2.3 2.7 1.2-0.52 1.4-2.6 0.34-3-1.1-0.42-2.5-0.27-2.7 0.28m-125 4.8c-0.79 0.95 0.5 2.3 1.4 1.4 0.75-0.74 0.52-1.9-0.37-1.9-0.31 0-0.76 0.24-1 0.53m-84 2.5c-0.45 0.54-0.45 0.71 0.037 1 0.88 0.57 1.8 0.25 1.8-0.63 0-1-1.1-1.2-1.8-0.39m28-0.18c-0.95 0.56-0.88 0.96 0.27 1.5 1.3 0.57 2.2-0.34 1.4-1.3-0.58-0.7-0.76-0.72-1.7-0.17m125 7.6c-0.94 0.55-0.88 1.7 0.14 2.6 0.83 0.75 0.85 0.75 1.8-0.44l0.96-1.2-0.85-0.7c-0.98-0.8-1.1-0.82-2.1-0.27m-153 0.87c-0.34 0.88-0.067 2.7 0.42 2.8 0.55 0.12 0.76-2.5 0.24-3-0.29-0.29-0.49-0.22-0.66 0.22m185 0.97c-1.5 0.61-1.8 1.1-2 3.3-0.23 2.3 3.4 1.7 4.7-0.69 1-2-0.53-3.5-2.7-2.6m-150 10c-0.61 1.6-0.6 1.6 0.19 2.2 1.4 0.97 2.4 0.13 2.2-1.9-0.18-2.4-1.5-2.6-2.4-0.29m225-1.2c-0.11 0.18-0.096 0.74 0.036 1.2l0.24 0.92 0.5-0.94c0.64-1.2-0.09-2.3-0.78-1.2m-207 2.3c-0.63 0.76 0.26 2.8 1.2 2.8 0.31 0 0.84-0.48 1.2-1.1 0.68-1.2 0.12-2.3-1.2-2.3-0.39 0-0.94 0.29-1.2 0.64m213 3c-2.4 2.1-2.7 3.9-0.72 3.9 1.4 0 5-3.7 4.3-4.5-0.95-1-1.9-0.9-3.5 0.53m-67-0.38c-0.64 0.64-0.61 2.9 0.053 3.5 0.8 0.66 1.8-0.28 1.9-1.9 0.16-1.7-0.97-2.6-2-1.6m70 0.05c0.58 0.7-0.17 1.5-1.4 1.5-0.63 0-0.92 0.23-0.92 0.75 0 1-1.1 1.9-1.7 1.3-0.6-0.6-0.1-1.7 0.87-2 0.44-0.11 0.8-0.45 0.8-0.74 0-0.48 1-1.3 1.7-1.4 0.14-7e-3 0.45 0.23 0.69 0.52m-101 2.1c-0.72 0.86-0.026 1.9 1.5 2.2 2.1 0.41 3.4-1 2.1-2.3-0.69-0.69-2.9-0.59-3.5 0.15m-121 2.7c-2.2 1.6 0.34 4.7 4 4.7 3.9 0 4.7-2 1.2-2.8-0.98-0.25-2.2-0.88-2.7-1.4-1-1.1-1.5-1.2-2.5-0.44m105 0.68c0 0.92 0.3 0.98 1.9 0.36 1-0.41 1.1-0.47 0.33-0.77-1.4-0.58-2.2-0.43-2.2 0.42m154 1c0 0.33 0.18 0.6 0.4 0.6s0.4-0.27 0.4-0.6-0.18-0.6-0.4-0.6-0.4 0.27-0.4 0.6m-1.6 3.8c-2.3 0.41-2.6 6.6-0.38 7.1 0.71 0.19 1.3 1.2 0.96 1.6-0.12 0.12-0.21-1e-3 -0.21-0.26 0-0.26-0.2-0.47-0.45-0.47-0.31 0-0.3 0.18 0.049 0.6 0.89 1.1 1.1 0.65 1.4-2.5 0.16-1.7 0.53-3.3 0.83-3.6 0.78-0.78 0.69-2.1-0.16-2.1-0.6-5e-3 -0.61-0.063-0.1-0.39 0.71-0.46 0.34-0.46-2-0.047m-229 4.3c-0.7 0.28-0.59 1.7 0.26 3.3l0.73 1.4 0.61-0.97c1.1-1.8 1.2-2.6 0.22-3.3-0.96-0.67-1-0.69-1.8-0.37m-71 5.5c-0.48 0.58 0.028 1.8 0.75 1.8 0.79-0.019 1.3-0.78 1.1-1.5-0.32-0.99-1.1-1.1-1.8-0.25m177-0.054c-1.3 0.97-0.065 1.8 3 2.1 3.3 0.31 5.7-0.65 4.6-1.8-0.94-0.94-6.5-1.2-7.6-0.32m35 0.63c-0.13 0.21 0.041 0.61 0.38 0.9 0.34 0.29 1.1 1 1.8 1.6 1.3 1.2 1.8 1.3 3.5 0.67l1.1-0.43-1.4-0.72c-0.77-0.4-1.7-1.1-2.2-1.6-0.78-0.86-2.8-1.2-3.2-0.47m88 3.9c-0.75 0.52-1.4 0.77-2.6 0.92-0.13 0.017-0.44 0.48-0.69 1-0.25 0.56-0.79 1-1.2 1-2 0-2.1 2.7-0.051 3.7 0.66 0.33 1.1 0.45 1 0.27s0.053-0.43 0.37-0.55c0.36-0.14 0.53-0.65 0.45-1.3-0.11-0.98 0.033-1.1 1.1-1.3 1-0.16 1.2-0.38 1.2-1.1-0.053-0.49 0.1-0.9 0.35-0.9 0.28 0 0.25-0.24-0.1-0.68-0.48-0.59-0.46-0.64 0.15-0.41 0.46 0.17 0.7 0.069 0.7-0.29 0-0.3 0.22-0.64 0.5-0.76s0.32-0.21 0.1-0.21c-0.22-6e-3 -0.79 0.26-1.3 0.6m-152 7.7c-2.6 0.26-2.3 3.8 0.31 4.2 1.5 0.22 4.1-1.7 3.9-2.8-0.15-0.77-2.5-1.5-4.2-1.4m-145 0.5c-0.47 0.75 0.19 2.4 0.96 2.4 1.4 0 2.4-1.6 1.5-2.2-0.91-0.67-2.1-0.73-2.4-0.14m117 0.88c-1.6 2-0.6 3.9 2.1 3.9 3.3 0 3.8-2.5 0.65-3.8-1.7-0.7-2.2-0.72-2.8-0.071m169 0.72c0 0.62-0.18 1.3-0.41 1.4-0.23 0.14-0.68 0.82-1 1.5-0.33 0.7-0.51 0.95-0.4 0.57 0.11-0.38 0.019-0.7-0.2-0.7-0.21 0-0.39 0.26-0.39 0.57 0 0.31-0.22 0.65-0.5 0.74s-0.36 0.33-0.18 0.52c0.18 0.19 0.45 0.17 0.6-0.046 0.15-0.21 0.5-0.41 0.78-0.43 1.2-0.094 1.3-0.18 1.1-0.6-0.15-0.24-0.026-0.6 0.28-0.79 0.46-0.29 0.45-0.35-0.049-0.36-1.3-0.027 0.59-0.79 2-0.8 0.94-8e-3 1.2-0.13 0.86-0.36-0.42-0.26-0.43-0.41-0.055-0.64 0.27-0.17 0.62-0.085 0.78 0.18 0.22 0.36 0.47 0.31 0.96-0.18 0.82-0.82 0.85-1.8 0.058-1.8-0.73 0-0.8 0.65-0.1 0.94 0.28 0.11 0.025 0.18-0.56 0.15-0.58-0.03-0.98-0.25-0.89-0.49 0.1-0.26-0.4-0.45-1.2-0.48-1.3-0.036-1.4 0.055-1.4 1.1m-294 5.5c-0.83 0.51-1.3 3.4-0.9 5.3 0.91 4.1 3.3 2.3 3.1-2.2-0.11-2.5-1.1-3.8-2.2-3.1m290 0.3c0.1 0.27-0.028 0.58-0.29 0.68-0.3 0.12-0.32 0.21-0.04 0.22 0.24 0.018 0.73-0.29 1.1-0.68 0.6-0.66 0.59-0.72-0.15-0.72-0.46 0-0.72 0.2-0.61 0.49m-84 2c-1.1 1.4-1.1 2 0.019 2.7 1.6 1.1 3.8-0.66 2.6-2.2-1.3-1.6-1.8-1.7-2.6-0.56m-27 1.4c-0.3 0.49 0.8 0.97 1.4 0.6 0.23-0.14 0.32-0.43 0.2-0.64-0.3-0.49-1.3-0.48-1.6 0.031m97 1.6c0.039 0.98 0.26 1.6 0.56 1.6 0.65 0 0.85-0.65 0.64-2.1-0.27-1.8-1.3-1.4-1.2 0.46m4.9-0.39c-0.14 0.22-0.42 0.3-0.62 0.18-0.2-0.13-0.37-0.051-0.37 0.17 0 0.22 0.36 0.37 0.8 0.34s0.8-0.29 0.8-0.58c0-0.62-0.26-0.66-0.6-0.11m-2.8 1.2c-0.14 0.22 0.12 0.4 0.58 0.4s0.82-0.18 0.82-0.4-0.26-0.4-0.58-0.4-0.69 0.18-0.82 0.4m-235 0.38c0.088 0.26 0.29 0.47 0.45 0.45 0.48-0.049 0.39-0.6-0.13-0.77-0.26-0.088-0.41 0.056-0.32 0.32m170 0.89c-3.3 0.71-3 3.1 0.39 3.1 2.1 0 3.2-0.75 2.8-1.9-0.39-1.2-1.4-1.6-3.2-1.2m39 0.93c-0.8 1.7 0.098 3 2.1 3 1.3 0 1.6-0.11 1.2-0.48-0.26-0.26-0.48-0.96-0.48-1.5 0-0.74-0.3-1.2-1-1.5-1.3-0.61-1.3-0.62-1.9 0.54m-240-0.11c-1.2 0.56-1.1 0.88 0.2 1.9 0.6 0.45 1.6 1.3 2.2 1.9 1 1 2.3 0.88 2.3-0.3 0-0.3-3.5-4-3.7-3.9-0.049 0.015-0.49 0.22-0.99 0.46m15 0.54c-0.68 0.82 0.27 2 1.1 1.3 0.3-0.25 0.55-0.68 0.55-0.96 0-0.77-1.1-1-1.6-0.37m230 0.95c-0.58 1.1 0.23 1.5 1.2 0.6 0.99-0.9 0.98-1.4-0.011-1.4-0.43 0-0.97 0.35-1.2 0.78m-183 7.2c0 0.71 0.11 0.74 1 0.32 0.93-0.42 0.96-0.5 0.3-0.76-1.2-0.46-1.3-0.4-1.3 0.44m-13 1.3c-0.75 1.1-0.34 2.3 0.82 2.3 1 0 1.4-1.4 0.62-2.4l-0.74-0.91-0.7 1.1m-96 7.3c0.72 0.5 0.82 0.79 0.5 1.4-0.55 1-0.5 1.7 0.2 2.6 0.41 0.52 0.53 0.57 0.38 0.14-0.12-0.35 0.093-0.89 0.48-1.2 0.45-0.36 0.59-0.39 0.39-0.064-0.16 0.28-0.13 0.5 0.081 0.5 0.83 0 1.2-2.9 0.45-3.4-1.1-0.67-3.4-0.65-2.5 0.019m285 3.6c-0.62 1.6 0.72 4.6 2.1 4.6 0.59 0 0.68-0.38 0.67-2.9-0.01-1.8 0.023-1.7-1.4-2.1-0.82-0.2-1.2-0.11-1.3 0.37m3.6 1c-0.4 0.44-0.64 0.9-0.53 1s0.53-0.16 0.93-0.6 0.64-0.9 0.53-1-0.53 0.16-0.93 0.6m-288 1.9c0.43 0.5 1 0.82 1.3 0.7 0.42-0.16 0.44-0.033 0.086 0.63-0.36 0.67-0.34 0.8 0.091 0.64 0.3-0.11 0.49-0.4 0.44-0.65-0.055-0.25 0.16-0.45 0.48-0.45s0.69-0.18 0.82-0.4c0.15-0.24-0.24-0.34-0.98-0.25-0.67 0.078-1.2-0.044-1.2-0.27s-0.12-0.3-0.26-0.15-0.55 0.043-0.9-0.23c-0.37-0.29-0.32-0.11 0.14 0.42m1.7 2.3c-0.43 0.43-0.31 1.7 0.16 1.7 0.23 0 0.31 0.18 0.18 0.4s0.12 0.4 0.58 0.4c0.56 0 0.82 0.26 0.82 0.81 0 0.46 0.49 1.1 1.1 1.5 0.62 0.38 1.1 0.92 0.97 1.2s-0.01 0.5 0.18 0.5c0.19 0 0.36-0.4 0.36-0.9s0.13-1.4 0.29-2c0.26-1 0.19-1.1-0.88-1.1-1.1 0-1.9-0.83-1.7-1.7 0.035-0.16-0.21-0.3-0.54-0.3s-0.6-0.18-0.6-0.4c0-0.46-0.54-0.53-0.93-0.13m284 1.3c0 0.22-0.27 0.4-0.6 0.4s-0.6 0.19-0.6 0.41c0 0.28 0.26 0.28 0.8-0.014 0.71-0.38 1.1-1.2 0.6-1.2-0.11 0-0.2 0.18-0.2 0.4m-3.1 1.1c-1.6 0.2-1.7 1.1-0.12 1.9 1.5 0.8 1.5 0.83 1.5-0.79 0.029-0.77 0.013-1.4-0.035-1.3s-0.67 0.14-1.4 0.22m-0.62 3.5c-0.57 0.53-1.5 1.1-2.2 1.3-0.81 0.27-1.2 0.68-1.3 1.5-0.099 0.84-0.4 1.1-1.3 1.3-0.97 0.19-1.2 0.43-1.2 1.4 0 1.2-1.8 1.6-3.8 0.77-1-0.42-1.8 0.2-1.8 1.5 0 1.5-0.75 2.7-1.4 2.2-1.2-1-3.2-0.7-3.4 0.56-0.22 1.2-0.24 1.2-3.2 1.3l-2.9 0.12 0.17 1.2c0.14 0.97 5e-3 1.2-0.86 1.4-0.56 0.15-0.8 0.36-0.52 0.46 0.28 0.1 0.4 0.35 0.28 0.55s-0.016 0.37 0.24 0.37c0.27 0 0.36-0.28 0.21-0.68-0.22-0.57-0.12-0.56 0.62 0.1 0.71 0.62 0.84 0.65 0.65 0.13-0.2-0.55 0.19-0.68 2.4-0.84 2.9-0.21 5.3-1.2 5.3-2.1 0-0.36 0.39-0.59 1-0.59 0.55 0 1-0.22 1-0.5 4e-3 -0.33 0.14-0.3 0.39 0.1 0.28 0.44 0.39 0.46 0.39 0.076 3e-3 -0.29 0.18-0.41 0.4-0.28s0.82-0.21 1.3-0.78c0.68-0.73 1.4-1 2.4-1 0.79 0 1.5-0.18 1.7-0.41 0.14-0.22 0.4-0.32 0.58-0.2 0.48 0.3 1.1-0.68 1-1.5-0.063-0.39 0.05-0.6 0.25-0.48s0.36 0.04 0.36-0.19 0.27-0.31 0.6-0.18c0.37 0.14 0.6-1e-3 0.6-0.38 0-0.34 0.21-0.68 0.46-0.76 0.26-0.085 0.52-0.6 0.6-1.1 0.33-2.4 0.55-2.8 1.5-2.8 1.1 0 1.3-0.69 0.39-1.1-0.33-0.13-0.5-0.39-0.37-0.59 0.12-0.2 0.42-0.24 0.66-0.097 0.26 0.16 0.32 0.082 0.15-0.19-0.38-0.61-0.36-0.61-1.6 0.5m-275 2.3c0 0.67 0.93 0.78 1.5 0.18 0.6-0.6 0.57-0.64-0.44-0.56-0.6 0.05-1.1 0.22-1.1 0.38m1.4 0.77c-0.15 0.24-0.068 0.64 0.18 0.88 0.33 0.33 0.44 0.3 0.44-0.084 0-0.43 0.12-0.43 0.61-0.023 0.34 0.28 0.52 0.59 0.41 0.7-0.11 0.11-6e-3 0.55 0.23 0.99 0.29 0.54 0.55 0.66 0.84 0.38 0.45-0.45 1.5-0.2 1.5 0.36 0 0.19-0.32 0.24-0.7 0.12-0.59-0.19-0.61-0.16-0.1 0.21 0.33 0.24 1.1 0.44 1.7 0.44s1.3 0.28 1.5 0.61c0.38 0.45 0.38 0.6 0.02 0.6-0.87 0 0.52 1 1.5 1.1 0.96 0.064 1.2-0.46 0.44-0.93-0.26-0.16-0.35-0.11-0.22 0.11 0.13 0.22-0.019 0.4-0.34 0.4-0.5 0-0.5-0.09 0.017-0.66 0.83-0.92 0.75-1.3-0.2-1.1-0.51 0.13-0.7 0.053-0.53-0.22 0.17-0.27 0.025-0.34-0.38-0.18-0.48 0.18-0.64 0.019-0.61-0.63 0.067-1.7-0.08-1.9-1.2-1.9-0.74 0-1.2 0.23-1.3 0.62-0.098 0.47-0.5 0.28-1.7-0.8-1.7-1.6-1.7-1.6-2.1-0.99m272 1.4c0.58 0.22 0.57 0.3-0.063 0.76-0.8 0.58-1.3 0.42-1.3-0.44 0-0.62 0.37-0.71 1.4-0.33m-263 5.1c0 0.34 0.57 1 1.3 1.5 1.1 0.8 1.2 0.82 0.99 0.17-0.25-0.64-0.2-0.67 0.37-0.2 0.36 0.3 0.9 0.58 1.2 0.62s1.1 0.66 1.8 1.4c1 1.1 1.3 1.2 1.9 0.73 0.46-0.38 0.58-0.39 0.37-0.046-0.27 0.45 0.69 0.73 1.8 0.55 0.16-0.026 0.3 0.091 0.3 0.26s0.63 0.28 1.4 0.24c0.96-0.045 1.4 0.11 1.4 0.49 0 0.74 0.65 0.72 0.94-0.035 0.13-0.34-0.089-0.76-0.53-1-0.42-0.22-0.87-0.75-1-1.2-0.34-1.1-1.2-1.3-1.9-0.54-0.45 0.56-0.44 0.6 0.071 0.31 0.33-0.19 0.46-0.19 0.29 1e-3 -0.72 0.79-3.3 0.51-2.8-0.31 0.17-0.28 0.033-0.35-0.39-0.18-0.37 0.14-0.67 0.07-0.67-0.16s-0.32-0.36-0.7-0.3c-1 0.17-1.7-0.4-1.7-1.5 0-0.89-0.16-0.98-1.8-0.98-1.1 0-1.7 0.15-1.6 0.41 0.14 0.22 0.45 0.28 0.68 0.14 0.28-0.17 0.32-0.079 0.11 0.26-0.25 0.41-0.5 0.32-1.1-0.38-0.54-0.66-0.74-0.74-0.74-0.29m78 6.6c0.5 0.096 1.2 0.092 1.6-8e-3 0.38-0.1-0.025-0.18-0.9-0.17-0.88 4e-3 -1.2 0.086-0.7 0.18m26-1e-3c0.5 0.096 1.3 0.096 1.8 0 0.5-0.095 0.09-0.17-0.9-0.17s-1.4 0.078-0.9 0.17" fill="#775b2f"/>
</g>
</svg>
