<svg width="400" height="400" version="1.1" viewBox="0 0 400 400" xmlns="http://www.w3.org/2000/svg">
<g fill-rule="evenodd">
<path d="m253 67c-0.14 27 1.7 24-17 25-7.2 0.14-14 0.23-15 0.22-1.2-0.022-1.9 0.12-1.9 0.39 0 0.29-0.72 0.38-2.2 0.3-1.2-0.069-2.1-0.046-2 0.051 0.097 0.097-0.37 0.36-1 0.59-1.2 0.4-1.6 1.2-0.89 1.7 0.2 0.14 0.4 0.47 0.46 0.74 0.37 1.7 1.4 4 1.8 4 0.43 0 0.72 1.2 0.56 2.3-0.022 0.15 0.29 0.44 0.7 0.66s0.74 0.73 0.74 1.1c0 1 0.66 2.2 1.3 2.2 0.28 0 0.5 0.44 0.52 1 0.049 1.7 0.22 2.1 1.3 2.8 1.1 0.67 1.3 1.2 0.65 1.6-0.59 0.37-0.43 0.82 0.37 1 0.54 0.14 0.74 0.5 0.74 1.3 0 0.63 0.45 1.9 1 2.7 0.55 0.86 1.1 2.2 1.2 2.9s0.41 1.3 0.65 1.3 0.65 0.21 0.9 0.46c0.37 0.37 0.3 0.46-0.38 0.46h-0.84l0.77 1.1c0.42 0.59 0.77 1.3 0.77 1.7s0.18 0.59 0.39 0.59 0.28 0.17 0.15 0.39c-0.13 0.21-0.039 0.63 0.2 0.92 0.25 0.3 0.34 0.94 0.21 1.5-0.15 0.6 0.034 1.5 0.51 2.4 0.41 0.81 0.75 1.8 0.75 2.1s0.21 0.89 0.46 1.1c0.37 0.37 0.36 0.52-0.039 0.77-0.41 0.26-0.4 0.46 0.072 1.2 0.4 0.61 0.52 1.4 0.4 2.7-0.11 1.2-0.018 1.9 0.26 2.1 0.29 0.18 0.41 1.6 0.36 4.4-0.053 3.3 0.03 4.1 0.42 3.9 0.37-0.22 0.36-0.14-0.025 0.34-0.43 0.53-0.43 0.63 0 0.63 0.4 5e-3 0.41 0.071 0.041 0.3-0.34 0.22-0.41 1-0.24 3 0.26 3.2 0.31 3.3 1.3 3.3 1.2 0 0.56 0.91-0.82 1.1-2.1 0.34 1.4 0.66 10 0.92 8.9 0.26 10 0.61 12 3.1l0.85 1.4-0.14 22-0.14 22 2.6-2.3c1.4-1.2 5.2-4.7 8.5-7.8 3.3-3 7.4-6.8 9.3-8.5s4.5-4 5.9-5.4c1.4-1.3 4.8-4.4 7.4-6.7 7.3-6.6 16-14 23-21 3.8-3.4 11-10 17-15 5.4-4.8 11-9.7 12-11l2.2-2.1-2.4-2.2c-1.3-1.2-3.4-3.1-4.6-4.2-2.2-1.9-6.7-6-12-11-1.4-1.3-4.7-4.2-7.2-6.5-5.1-4.5-21-19-28-26-2.6-2.5-8.3-7.6-13-12-4.2-3.9-9.7-8.9-12-11s-5.3-4.9-6.3-5.7l-1.7-1.5-0.1 20" fill="#7f12ef"/>
<path d="m141 115c-1.1 0.62-3.3 1.8-4.8 2.6-15 7.9-34 26-45 42-24 36-26 75-7 117 9.3 20 32 43 53 55 7.9 4.4 9.5 5.3 16 8.3 24 10 50 15 76 14 11-0.64 13-1.1 13-3.2 0-1.5-0.018-1.5-5.7-1.8-57-2.7-111-40-120-83-7.7-38 11-71 53-92 1.6-0.82 2.6-1.5 2.3-1.6-0.4-0.083-0.52-0.35-0.37-0.83 0.16-0.5 0.049-0.71-0.36-0.71-0.32 0-0.58-0.17-0.58-0.37 0-0.2 0.19-0.37 0.43-0.37 0.27 0 0.22-0.24-0.14-0.65-0.91-1-1.7-2.8-1.9-4.4-0.16-0.99-0.46-1.6-0.78-1.6-0.29 0-0.52-0.21-0.52-0.46 0-0.26-0.33-1.1-0.73-1.9-1.4-2.9-2.6-5.8-2.6-6.5 0-0.34-0.15-0.78-0.32-0.97-0.38-0.41-1.9-5.2-1.9-6 0-0.45-0.83-1.8-1.9-3.2-1.8-2.2-2.9-4-3.1-4.8-0.14-0.58-0.78-1.6-1.4-2.3-0.63-0.69-1.4-2.1-1.8-3.2s-0.89-2.1-1.2-2.3c-0.29-0.21-0.58-0.96-0.64-1.7-0.074-0.77-0.3-1.2-0.58-1.2-0.47 0.094-1.6-2.1-1.6-3.2 0-0.32-0.45-1.1-1-1.6s-1-1.3-1.1-1.6c-0.19-1.3-1.4-3.9-1.8-3.9-0.82 0.096-1.5-0.044-1.2-0.27 0.13-0.13-0.015-0.47-0.31-0.77-0.3-0.3-0.45-0.7-0.33-0.88s-0.21-0.34-0.73-0.34c-0.65 0-0.88-0.16-0.74-0.52 0.37-0.97-0.42-0.9-2.5 0.22m18 25c0.071 0.36 0.35 0.74 0.63 0.83 0.32 0.11 0.45-0.072 0.37-0.49-0.07-0.36-0.35-0.74-0.63-0.83-0.32-0.11-0.45 0.072-0.37 0.49" fill="#f78427"/>
<path d="m214 93c-25 2.3-52 10-72 22-2 1.1-3.5 2.1-3.4 2.2 0.094 0.093 0.38 0 0.64-0.21 2.5-2 6.5-3.4 5.7-2-0.13 0.21 0.19 0.37 0.74 0.37 0.53 0 0.88 0.15 0.76 0.34s0.033 0.58 0.33 0.88c0.3 0.3 0.44 0.64 0.31 0.77-0.22 0.22 0.42 0.36 1.2 0.27 0.38-0.044 1.6 2.6 1.8 3.9 0.044 0.3 0.53 1 1.1 1.6s1 1.3 1 1.6c0 1 1.1 3.3 1.6 3.2 0.28-0.055 0.51 0.42 0.58 1.2 0.066 0.7 0.36 1.5 0.64 1.7 0.29 0.22 0.82 1.3 1.2 2.3s1.2 2.5 1.8 3.2c0.63 0.69 1.3 1.7 1.4 2.3 0.22 0.86 1.3 2.6 3.1 4.8 1.1 1.4 1.9 2.8 1.9 3.2 0 0.78 1.5 5.6 1.9 6 0.18 0.19 0.32 0.63 0.32 0.97 0 0.61 1.2 3.6 2.6 6.5 0.4 0.82 0.73 1.7 0.73 1.9-1e-3 0.25 0.23 0.46 0.52 0.46 0.33 0 0.62 0.59 0.78 1.6 0.28 1.7 1 3.4 1.9 4.4 0.36 0.41 0.41 0.65 0.14 0.65-0.24 0-0.43 0.17-0.43 0.37 0 0.2 0.26 0.37 0.58 0.37 0.41 0 0.51 0.22 0.35 0.74-0.18 0.55-0.065 0.74 0.44 0.76 0.5 0.011 0.42 0.15-0.35 0.57-2.2 1.2-0.82 0.74 3.7-1.2 18-7.8 39-12 60-12l4.6-0.071-5.6-0.26c-6.3-0.29-6.8-0.36-5-0.68 1.4-0.25 2-1.2 0.82-1.2-1 0-1.1-0.13-1.3-3.3-0.17-2-0.1-2.8 0.24-3 0.36-0.23 0.36-0.3-0.041-0.3-0.43-5e-3 -0.43-0.1 0-0.63 0.39-0.48 0.39-0.56 0.025-0.34-0.39 0.23-0.47-0.53-0.42-3.9 0.045-2.8-0.072-4.2-0.36-4.4-0.27-0.17-0.37-0.93-0.26-2.1 0.12-1.3-1e-3 -2.1-0.4-2.7-0.47-0.73-0.48-0.93-0.072-1.2 0.4-0.24 0.4-0.4 0.039-0.77-0.25-0.25-0.46-0.77-0.46-1.1s-0.34-1.3-0.75-2.1c-0.48-0.94-0.66-1.8-0.51-2.4 0.13-0.53 0.041-1.2-0.21-1.5-0.24-0.29-0.34-0.71-0.2-0.92 0.13-0.21 0.063-0.39-0.15-0.39s-0.39-0.27-0.39-0.59-0.34-1.1-0.77-1.7l-0.77-1.1h0.84c0.67 0 0.75-0.093 0.38-0.46-0.26-0.26-0.66-0.46-0.9-0.46s-0.54-0.58-0.65-1.3-0.66-2-1.2-2.9c-0.55-0.86-1-2.1-1-2.7 0-0.84-0.2-1.2-0.74-1.3-0.8-0.21-0.96-0.67-0.37-1 0.63-0.39 0.41-0.91-0.65-1.6-1.1-0.67-1.2-1-1.3-2.8-0.016-0.59-0.24-1-0.52-1-0.59 0-1.3-1.2-1.3-2.2 0-0.41-0.33-0.93-0.74-1.1s-0.72-0.52-0.7-0.66c0.17-1.1-0.13-2.3-0.56-2.3-0.43 0-1.5-2.3-1.8-4-0.057-0.27-0.26-0.6-0.45-0.74-1.3-0.97 0.19-1.9 3.9-2.3l2.4-0.27-2 9e-3c-1.1 6e-3 -2.7 0.07-3.5 0.14m-53 47c0.082 0.42-0.051 0.6-0.37 0.49-0.27-0.091-0.56-0.46-0.63-0.83-0.081-0.42 0.052-0.6 0.37-0.49 0.27 0.091 0.56 0.46 0.63 0.83m72 33c0.56 0.085 1.4 0.083 1.9-5e-3 0.46-0.088-5e-3 -0.16-1-0.15-1 2e-3 -1.4 0.074-0.83 0.16m-84 32-1.8 1.9 1.9-1.8c1.1-1 1.9-1.9 1.9-1.9 0-0.28-0.34 0.032-2.1 1.8m-55 107c0 0.064 0.54 0.61 1.2 1.2l1.2 1.1-1.1-1.2c-1-1.1-1.3-1.4-1.3-1.1" fill="#c72ba5"/>
<path d="m248 31c-1.3 0.33-3.8 1.7-4 2.2-0.11 0.28-0.44 0.51-0.74 0.51-0.56 0-1.9 1.7-2.1 2.6-0.063 0.29-0.2 0.61-0.3 0.72-0.98 0.98-1.1 3.4-1 22l0.086 19-5.3-0.11c-2.9-0.062-5.2 0.027-5.1 0.2s-1.5 0.24-3.5 0.16c-2.2-0.09-3.7-6e-3 -3.7 0.21 0 0.2-1 0.39-2.3 0.43-1.3 0.037-5.2 0.4-8.8 0.81s-7.3 0.83-8.3 0.94c-1 0.11-2.9 0.37-4.1 0.58-1.2 0.21-2.8 0.45-3.5 0.54-0.71 0.088-1.9 0.32-2.6 0.52s-1.8 0.36-2.3 0.36c-0.56 1e-3 -1 0.18-1 0.39s-0.16 0.3-0.35 0.18c-0.58-0.36-3.4 0.22-3.1 0.64 0.14 0.22 0.054 0.27-0.2 0.11-0.59-0.36-3.4 0.13-3.2 0.56 0.12 0.19-0.31 0.23-0.98 0.094-0.68-0.14-1.1-0.093-0.98 0.098 0.11 0.18-0.45 0.36-1.2 0.39s-1.7 0.24-2 0.47c-0.45 0.37-5 1.7-7.2 2.1-0.5 0.093-1.1 0.28-1.3 0.42s-0.48 0.27-0.58 0.3c-0.1 0.025-0.73 0.17-1.4 0.33s-1.2 0.42-1.2 0.6-0.25 0.22-0.56 0.099c-0.31-0.12-0.56-0.019-0.56 0.22 0 0.24-0.18 0.32-0.39 0.19-0.47-0.29-4.8 1.3-4.8 1.7 0 0.17-0.23 0.23-0.51 0.12s-0.76 0.057-1.1 0.36c-0.31 0.31-0.66 0.46-0.79 0.33-0.13-0.13-0.23-7e-3 -0.23 0.26 0 0.27-0.11 0.38-0.24 0.25-0.13-0.13-0.76 0.077-1.4 0.47-0.63 0.39-1.3 0.72-1.4 0.73-0.15 0.012-0.9 0.29-1.7 0.61-0.76 0.32-1.7 0.65-2 0.73-0.36 0.074-1.1 0.47-1.7 0.87-0.57 0.4-1.5 0.85-2.1 1-1.3 0.31-5.8 2.5-6.5 3.2-0.89 0.82-4.3 2.5-4.5 2.3-0.13-0.13-0.24-0.044-0.24 0.19 0 0.24-0.23 0.43-0.51 0.43-0.28 0-0.72 0.25-0.97 0.55-0.25 0.3-0.59 0.47-0.75 0.37-0.16-0.098-0.39 0.081-0.51 0.4-0.12 0.32-0.38 0.48-0.58 0.36-0.2-0.12-0.7 0.12-1.1 0.53-0.42 0.42-0.76 0.64-0.76 0.5 0-0.14-0.26 0.068-0.58 0.46-0.32 0.4-0.48 0.47-0.34 0.16 0.13-0.31-0.034-0.22-0.37 0.18-0.34 0.41-0.76 0.7-0.95 0.65s-0.34 0.074-0.34 0.28c0 0.2-0.18 0.37-0.4 0.37s-0.63 0.21-0.91 0.46c-1.2 1.1-1.7 1.4-1.7 1.2 0-0.35-2.7 1.4-3.1 1.9-0.16 0.27-0.44 0.4-0.61 0.3s-0.41 0.069-0.53 0.39-0.39 0.47-0.6 0.34c-0.21-0.13-0.48 0.028-0.6 0.35-0.12 0.32-0.46 0.58-0.76 0.58s-0.44 0.17-0.31 0.37 0.068 0.37-0.13 0.37-1.3 0.74-2.4 1.7c-1.1 0.91-2.1 1.6-2.2 1.5-0.1-0.1-0.56 0.28-1 0.85-0.45 0.57-0.96 1-1.1 1s-0.82 0.5-1.4 1.1c-2.3 2.4-3.6 3.5-4 3.5-0.22 0-1.4 1.2-2.7 2.6-1.3 1.4-2.5 2.6-2.8 2.6-0.54 0-2.5 2-2.2 2.3 0.11 0.11-1.1 1.4-2.7 2.9-1.6 1.5-2.9 2.8-2.9 3s-0.54 0.73-1.2 1.3c-0.66 0.55-1.2 1.2-1.2 1.5 0 0.25-0.42 0.74-0.94 1.1-0.52 0.34-0.86 0.74-0.76 0.9 0.097 0.16-0.52 1-1.4 1.9-0.84 0.9-1.5 1.8-1.6 1.9-0.01 0.16-0.27 0.45-0.57 0.64-0.3 0.19-0.56 0.5-0.56 0.7s-0.33 0.74-0.74 1.2c-1.1 1.3-2.8 3.9-2.8 4.4 0 0.21-0.13 0.38-0.28 0.38s-0.5 0.5-0.77 1.1c-0.27 0.61-0.65 1-0.84 0.9s-0.32-0.077-0.3 0.09c0.14 0.8-0.073 1.3-0.47 1-0.29-0.18-0.36-0.07-0.21 0.32 0.13 0.34-5e-3 0.67-0.33 0.8-0.31 0.12-0.46 0.38-0.33 0.57 0.12 0.2-0.12 0.7-0.53 1.1-0.41 0.42-0.75 0.88-0.75 1 2e-3 0.15-0.23 0.55-0.52 0.89-0.61 0.71-2.1 4-1.8 4 0.1 0-0.073 0.26-0.4 0.59s-0.49 0.74-0.38 0.93c0.12 0.19 0.034 0.34-0.18 0.34-0.22 0-0.39 0.26-0.39 0.57s-0.25 0.66-0.55 0.78-0.45 0.37-0.33 0.57-0.13 0.69-0.56 1.1-0.8 1-0.84 1.4c-0.11 1.2-0.15 1.4-0.64 2.6-0.28 0.66-0.67 1.2-0.87 1.2-0.2 0-0.28 0.32-0.18 0.72 0.1 0.4-0.026 0.8-0.3 0.9-0.27 0.1-0.44 0.61-0.38 1.1 0.062 0.57-0.047 0.85-0.28 0.7-0.23-0.14-0.29 5e-3 -0.14 0.38 0.13 0.34 0.098 0.62-0.071 0.62-0.42 0-2 5.1-1.7 5.5 0.13 0.21-0.012 0.28-0.35 0.15-0.69-0.27-0.75 0.26-0.11 0.95 0.38 0.41 0.34 0.45-0.23 0.25-0.56-0.2-0.66-0.1-0.5 0.5 0.11 0.41 0.026 0.75-0.18 0.75s-0.28 0.24-0.17 0.53c0.11 0.29 0.032 0.59-0.18 0.66s-0.41 0.83-0.44 1.7c-0.033 0.86-0.18 1.6-0.32 1.6s-0.19 0.34-0.11 0.75c0.079 0.41-0.013 0.65-0.21 0.53-0.19-0.12-0.36 0.25-0.38 0.82s-0.12 1.5-0.23 2c-0.11 0.51-0.23 1.3-0.25 1.9s-0.2 1-0.38 1.2-0.35 1.2-0.37 2.5c-0.016 1.2-0.18 2.1-0.36 2-0.19-0.12-0.22 0.54-0.068 1.6 0.2 1.4 0.16 1.7-0.19 1.5-0.35-0.22-0.4 0.16-0.23 1.6 0.15 1.3 0.09 1.9-0.18 1.9-0.27 0-0.34 0.8-0.21 2.4 0.11 1.4 0.05 2.3-0.13 2.2-0.18-0.11-0.33 2.9-0.33 6.8 0 3.9 0.14 7.1 0.32 7.2 0.17 0.11 0.23 1.5 0.13 3-0.1 1.6-0.04 2.8 0.15 2.6 0.18-0.11 0.27 0.61 0.2 1.6-0.074 1.1 0.028 1.8 0.24 1.8 0.22 0 0.29 0.62 0.16 1.5-0.16 1.2-0.099 1.5 0.27 1.2 0.36-0.22 0.44 0.025 0.32 1-0.085 0.73-9e-3 1.2 0.17 1.1 0.18-0.11 0.23 0.4 0.11 1.1s-0.083 1.3 0.075 1.3 0.3 0.93 0.32 2.1c0.018 1.3 0.22 2.2 0.5 2.4 0.26 0.16 0.37 0.56 0.25 0.89-0.12 0.33-0.048 0.59 0.17 0.59 0.24 0 0.3 0.37 0.16 0.96-0.16 0.64-0.11 0.88 0.16 0.71 0.27-0.16 0.32 0.069 0.16 0.71-0.16 0.62-0.088 0.96 0.2 0.96 0.28 0 0.34 0.29 0.19 0.79-0.18 0.56-0.12 0.71 0.2 0.51 0.32-0.2 0.38-0.056 0.2 0.51-0.15 0.47-0.089 0.79 0.15 0.79 0.24 0 0.31 0.36 0.17 0.93-0.19 0.75-0.12 0.89 0.36 0.7 0.33-0.13 0.6-0.045 0.6 0.18 0 0.22-0.17 0.41-0.37 0.41s-0.37 0.17-0.37 0.37 0.21 0.33 0.46 0.28c0.26-0.052 0.42 0.19 0.35 0.56-0.06 0.36 0.075 0.65 0.3 0.65 0.22 0 0.31 0.16 0.2 0.34-0.12 0.19-0.06 0.44 0.13 0.56s0.25 0.57 0.13 1c-0.13 0.49-0.063 0.71 0.17 0.57 0.23-0.14 0.31 0.12 0.2 0.68-0.12 0.6 0.021 0.98 0.4 1.1 0.32 0.12 0.48 0.46 0.37 0.74-0.11 0.29 1e-3 0.52 0.25 0.52 0.25 0 0.35 0.25 0.24 0.56-0.12 0.3-0.067 0.56 0.11 0.56s0.23 0.36 0.12 0.8c-0.14 0.54-0.073 0.72 0.22 0.54 0.28-0.17 0.35-0.06 0.2 0.31-0.12 0.32-0.042 0.57 0.18 0.57 0.22 0 0.29 0.28 0.16 0.62-0.17 0.45-0.1 0.53 0.25 0.31 0.34-0.21 0.4-0.16 0.21 0.15-0.33 0.54 0.81 3.7 1.3 3.7 0.2 0 0.26 0.16 0.14 0.36-0.35 0.57 1.2 3.3 1.9 3.3 0.34 0 0.51 0.1 0.38 0.23-0.13 0.13 0.21 1.1 0.76 2.1 0.98 1.9 1.1 2.1 1.2 2.8 0.025 0.22 0.24 0.27 0.47 0.13 0.28-0.18 0.33-0.1 0.13 0.22-0.19 0.3-0.046 0.67 0.38 0.98 0.38 0.27 0.56 0.5 0.4 0.5-0.16 0-0.028 0.26 0.28 0.57 0.31 0.31 0.46 0.84 0.33 1.2-0.17 0.44-0.097 0.52 0.26 0.3 0.37-0.23 0.43-0.14 0.25 0.33-0.14 0.38-0.096 0.54 0.12 0.41 0.32-0.2 0.42 0.036 0.34 0.78-0.013 0.12 0.28 0.45 0.65 0.73 0.37 0.28 0.52 0.52 0.34 0.52-0.18 6e-3 0.12 0.43 0.67 0.94 0.55 0.51 0.92 0.93 0.81 0.93s-0.011 0.5 0.2 1.1 0.54 1 0.72 0.9c0.18-0.11 0.34-0.042 0.34 0.16 0 0.2 0.24 0.61 0.54 0.91 0.3 0.3 0.59 0.74 0.65 0.98s0.57 0.95 1.1 1.6c0.57 0.62 0.94 1.2 0.84 1.3-0.11 0.11 0.15 0.43 0.57 0.73 0.43 0.3 0.67 0.77 0.56 1.1-0.12 0.3-0.044 0.44 0.16 0.31 0.2-0.12 0.48 0.063 0.62 0.42 0.14 0.36 0.88 1.3 1.7 2.1 0.77 0.8 1.4 1.6 1.3 1.7-0.045 0.13 0.3 0.62 0.77 1.1 0.46 0.47 0.75 1 0.64 1.2-0.11 0.18-0.01 0.45 0.23 0.6 0.29 0.18 0.34 0.094 0.16-0.25-0.15-0.29 0.06-0.11 0.47 0.4 0.41 0.5 0.66 1 0.57 1.2-0.096 0.16 0.053 0.2 0.33 0.09s0.82 0.19 1.2 0.65c0.39 0.47 0.47 0.64 0.18 0.38-0.29-0.26-0.7-0.46-0.91-0.46-0.21 0 0.2 0.4 0.91 0.88 1.6 1.1 3 2.7 2.8 3.2-0.11 0.18 0.26 0.68 0.82 1.1 2.6 2 7.2 6.2 8.7 8.1 0.56 0.68 1.2 1.3 1.5 1.3s1.2 0.72 2.1 1.5 1.3 1.2 0.89 0.91c-0.68-0.47-0.7-0.46-0.23 0.13 0.28 0.36 0.72 0.65 0.98 0.65s0.55 0.33 0.66 0.74c0.13 0.49 0.39 0.67 0.78 0.52 0.4-0.15 0.7 0.068 0.93 0.69 0.19 0.5 0.62 1 0.95 1.1 0.4 0.16 0.53 0.08 0.37-0.23-0.13-0.25 0.11-0.066 0.54 0.42s0.77 0.75 0.77 0.59 0.53 0.33 1.2 1.1 1.4 1.3 1.7 1.2 0.93 0.4 1.5 1.1c0.68 0.9 1.1 1.2 1.4 0.92s0.58-0.086 1 0.57c0.34 0.52 0.73 0.94 0.85 0.93 0.57-0.051 1.3 0.44 1.1 0.74-0.11 0.18 0.098 0.33 0.47 0.33 0.37 0 1.1 0.4 1.6 0.88 0.52 0.48 1.3 1 1.8 1.2 0.87 0.28 1.3 0.56 2.6 1.7 0.38 0.34 0.78 0.52 0.89 0.41s0.31 0.056 0.43 0.38c0.14 0.35 0.46 0.5 0.81 0.36 0.38-0.15 0.49-0.078 0.32 0.2-0.17 0.28-0.07 0.35 0.28 0.22 0.33-0.13 0.72 0.11 0.97 0.59 0.26 0.48 0.65 0.71 0.97 0.59 0.31-0.12 0.45-0.05 0.32 0.16-0.19 0.3 0.33 0.54 0.65 0.3 0.13-0.1 3.8 2 4 2.3 0.1 0.14 0.6 0.32 1.1 0.39s1.2 0.42 1.5 0.77c0.33 0.35 0.7 0.53 0.83 0.4s0.24-0.036 0.24 0.21c0 0.25 0.17 0.35 0.37 0.22 0.2-0.13 0.37-0.043 0.37 0.18 0 0.23 0.17 0.31 0.37 0.18 0.2-0.13 0.37-0.058 0.37 0.15 0 0.21 0.28 0.27 0.62 0.14 0.39-0.15 0.53-0.09 0.37 0.16-0.28 0.44 0.75 0.96 1.3 0.64 0.19-0.12 0.61 0.06 0.94 0.39 0.33 0.33 0.84 0.51 1.1 0.4 0.33-0.13 0.43-0.045 0.26 0.23-0.18 0.29-0.06 0.35 0.35 0.19 0.34-0.13 0.62-0.058 0.62 0.16 0 0.22 0.26 0.3 0.58 0.18 0.33-0.13 0.48-0.064 0.35 0.15-0.12 0.2 0.083 0.37 0.46 0.37s0.89 0.2 1.1 0.44c0.24 0.24 0.44 0.31 0.44 0.14s0.38-0.059 0.83 0.24c0.46 0.3 1.2 0.51 1.6 0.48 0.45-0.036 0.74 0.056 0.65 0.2s0.28 0.38 0.83 0.52c0.54 0.14 1.6 0.57 2.5 0.96 0.8 0.39 1.6 0.62 1.8 0.51 0.18-0.11 0.32-3e-3 0.32 0.24 0 0.24 0.25 0.34 0.56 0.22 0.3-0.12 0.56-0.034 0.56 0.18 0 0.22 0.25 0.3 0.56 0.19 0.3-0.12 0.56-0.034 0.56 0.18s0.25 0.3 0.56 0.18c0.3-0.12 0.56-0.041 0.56 0.17 0 0.22 0.33 0.28 0.79 0.13 0.51-0.16 0.7-0.11 0.55 0.14-0.15 0.24 0.11 0.32 0.7 0.22 0.52-0.095 0.93 5e-3 0.93 0.23 0 0.22 0.17 0.3 0.37 0.17 0.2-0.13 0.37-0.089 0.37 0.081 0 0.46 4.9 1.7 5.7 1.4 0.36-0.14 0.62-0.058 0.62 0.2 0 0.27 0.29 0.34 0.74 0.2 0.46-0.14 0.74-0.067 0.74 0.2 0 0.27 0.36 0.37 0.91 0.26 0.55-0.11 0.82-0.029 0.69 0.2-0.14 0.23 0.15 0.3 0.75 0.18 0.54-0.1 0.98-0.023 0.98 0.18 0 0.21 0.48 0.27 1.1 0.14 0.78-0.16 1.1-0.1 0.87 0.19-0.18 0.28 0.11 0.36 0.89 0.25 0.67-0.099 1.1-0.022 0.93 0.18s0.26 0.28 0.93 0.18c0.69-0.1 1.1-0.024 0.92 0.19-0.14 0.22 0.3 0.28 1.2 0.14 1.2-0.2 1.3-0.16 0.89 0.37-0.53 0.64 0.39 0.6 2.1-0.099 0.68-0.28 0.7-0.25 0.19 0.38-0.59 0.72 0.65 0.74 2.3 0.026 0.4-0.17 0.65-0.12 0.65 0.16 0 0.24-0.17 0.33-0.37 0.2-0.2-0.13-0.37-0.074-0.37 0.12 0 0.44 3.1 0.85 4.8 0.63 0.96-0.12 1.2-0.07 0.74 0.21-0.4 0.27 0 0.32 1.4 0.18 1.1-0.11 2-0.035 2.1 0.16s0.96 0.3 1.9 0.23 1.7 0.02 1.7 0.2c0 0.18 0.18 0.32 0.39 0.32s0.3-0.15 0.19-0.33c-0.11-0.18 0.063-0.43 0.39-0.56 0.41-0.16 0.53-0.068 0.39 0.3-0.17 0.44 0.32 0.5 2.9 0.38 1.7-0.084 3.1-7e-3 2.9 0.17-0.11 0.18 3.6 0.32 8.3 0.32 4.7 1e-3 8.5-0.14 8.5-0.33s1.5-0.24 3.4-0.13c1.8 0.11 3.3 0.06 3.2-0.12-0.11-0.17 0.59-0.27 1.5-0.22s1.5-0.018 1.3-0.16 0.59-0.28 1.8-0.3c1.2-0.017 2.3-0.2 2.4-0.42 0.071-0.21 0.48-0.3 0.91-0.18 0.57 0.15 0.7 0.075 0.49-0.26-0.21-0.34-0.086-0.4 0.47-0.23 0.49 0.16 1 5e-3 1.4-0.42 0.37-0.36 1.3-0.99 2.2-1.4 1.6-0.79 4.5-3.4 4.3-4-0.052-0.18 0.16-0.42 0.46-0.54 0.31-0.12 0.56-0.45 0.56-0.74s0.24-0.9 0.52-1.3c1.6-2.6 1.8-10 0.23-13-0.48-1-0.88-1.9-0.9-2.1-0.086-0.56-3.4-3.7-3.9-3.7-0.32 0-0.93-0.24-1.4-0.54s-1.5-0.65-2.4-0.77-2-0.39-2.4-0.6c-0.44-0.21-2.6-0.32-5.1-0.25-2.4 0.071-4.2-0.017-4.1-0.2 0.11-0.18-0.72-0.25-1.9-0.15-1.1 0.095-2.1 0.068-2.1-0.06 0-0.13-1.6-0.45-3.6-0.72-2-0.27-4.1-0.57-4.7-0.66-0.61-0.095-1.5-0.22-2-0.26-0.51-0.05-1.5-0.28-2.2-0.52-1.2-0.41-3.8-0.96-6.7-1.4-0.71-0.12-1.5-0.34-1.7-0.51-0.2-0.17-1.3-0.48-2.5-0.69-1.2-0.22-3.4-0.9-4.9-1.5-1.5-0.62-3-1-3.1-0.92s-0.34 0.048-0.34-0.15c0-0.42-2.2-1.2-2.6-0.98-0.16 0.097-0.5-0.079-0.76-0.39-0.26-0.31-0.68-0.49-0.94-0.39-0.26 0.1-0.52 0.066-0.59-0.076-0.14-0.32-4.7-2.1-5.6-2.2-0.16-0.019-0.54-0.29-0.85-0.59-0.31-0.31-1.2-0.74-2-0.95-0.8-0.22-1.5-0.56-1.5-0.77s-0.17-0.28-0.37-0.15-0.37 0.042-0.37-0.18c0-0.23-0.17-0.31-0.37-0.18-0.2 0.12-0.37 0.042-0.37-0.19 0-0.23-0.16-0.31-0.36-0.19s-0.67-0.09-1-0.47c-0.84-0.84-1.9-1.3-2.7-1.2-0.31 0.052-0.44-0.023-0.3-0.16 0.14-0.14-0.78-0.78-2-1.4-1.3-0.64-2.5-1.4-2.8-1.6s-0.84-0.56-1.3-0.7c-0.46-0.14-1-0.53-1.3-0.86-0.25-0.33-0.46-0.48-0.46-0.33-7e-3 0.14-0.45-0.14-0.98-0.64s-1.1-0.81-1.3-0.7-0.32 0.014-0.32-0.21-0.17-0.31-0.37-0.18-0.47-0.03-0.6-0.35c-0.12-0.32-0.45-0.58-0.74-0.58s-0.52-0.18-0.52-0.39c0-0.21-0.56-0.62-1.2-0.9-0.68-0.28-1.4-0.78-1.7-1.1-0.26-0.32-0.69-0.58-0.95-0.58s-0.56-0.34-0.66-0.75c-0.11-0.41-0.36-0.7-0.55-0.65-0.2 0.057-0.72-0.31-1.2-0.82-0.45-0.51-0.7-0.68-0.55-0.37 0.34 0.69-2-1.4-6.1-5.6-1.7-1.8-3.4-3.3-3.7-3.5-0.31-0.18-1-1-1.6-1.8s-1.3-1.6-1.6-1.8c-0.27-0.16-0.4-0.45-0.29-0.63 0.11-0.18-0.22-0.61-0.73-0.94-0.51-0.34-0.84-0.76-0.73-0.94s-0.033-0.42-0.32-0.54c-0.6-0.23-3.7-4.4-3.6-4.8 0.042-0.15-0.19-0.42-0.52-0.61s-0.51-0.47-0.4-0.64c0.1-0.17-0.069-0.41-0.39-0.53-0.32-0.12-0.47-0.39-0.34-0.6 0.13-0.21-0.028-0.48-0.34-0.6s-0.48-0.37-0.37-0.55c0.11-0.18 0.028-0.33-0.19-0.33-0.22 0-0.37-0.12-0.35-0.28 0.12-0.74-0.08-1.2-0.41-1-0.21 0.13-0.27-0.018-0.15-0.35 0.13-0.34-0.025-0.66-0.37-0.8-0.32-0.12-0.48-0.4-0.35-0.62s-0.042-0.59-0.39-0.84c-0.34-0.25-0.69-0.77-0.77-1.1-0.078-0.38-0.57-1.6-1.1-2.8-0.52-1.2-0.85-2.1-0.73-2.1s0.04-0.22-0.19-0.5c-0.23-0.27-0.3-0.61-0.17-0.74s0.067-0.24-0.15-0.24c-0.22 0-0.49-0.58-0.62-1.3-0.12-0.71-0.33-1.9-0.45-2.6s-0.38-1.3-0.58-1.3c-0.19 0-0.26-0.14-0.15-0.32 0.11-0.18-0.047-1.7-0.35-3.4-0.3-1.7-0.55-3.7-0.55-4.5-1e-3 -0.78-0.13-1.3-0.28-1.2s-0.28-2.4-0.28-5.5c0-3.1 0.1-5.6 0.23-5.5 0.21 0.13 0.77-4 0.85-6.2 0.02-0.56 0.16-1 0.32-1 0.16 0 0.21-0.42 0.12-0.93-0.093-0.51-0.034-0.85 0.13-0.75 0.16 0.1 0.3-0.22 0.3-0.72s0.28-1.5 0.62-2.2 0.52-1.5 0.4-1.7c-0.12-0.2-0.085-0.37 0.087-0.37s0.34-0.33 0.37-0.73c0.03-0.4 0.5-1.6 1-2.7s1-2.2 1.1-2.6c0.07-0.35 0.47-1 0.89-1.5 0.72-0.77 0.91-1.2 0.81-1.9-0.025-0.15 0.13-0.28 0.35-0.28s0.3-0.15 0.18-0.34c-0.12-0.19 0.082-0.63 0.44-0.99 0.36-0.36 0.67-0.79 0.7-0.96 0.025-0.17 0.067-0.48 0.092-0.7 0.026-0.22 0.21-0.29 0.42-0.16s0.37 0.021 0.37-0.23c0-0.8 3.5-5.8 4.2-6 0.36-0.094 0.65-0.52 0.65-0.95 0-0.43 0.14-0.78 0.3-0.78 0.16 0 0.62-0.26 1-0.58 0.4-0.32 0.47-0.46 0.16-0.31-0.31 0.15-0.17-0.13 0.31-0.62 0.48-0.49 1.6-1.8 2.6-2.9 0.95-1.1 2.1-2 2.5-2.1s0.7-0.32 0.64-0.56c-0.056-0.24 0.058-0.34 0.25-0.22 0.2 0.12 0.65-0.28 1-0.9 0.36-0.61 0.81-1.1 0.99-1.1 0.18 0 1.1-0.66 2.1-1.5 0.97-0.81 1.9-1.4 2-1.2s0.33-0.045 0.46-0.38c0.13-0.33 0.44-0.61 0.7-0.61s0.9-0.41 1.4-0.91c0.54-0.5 0.99-0.79 0.99-0.65 7e-3 0.14 0.26-0.064 0.56-0.46 0.3-0.4 0.54-0.58 0.54-0.41 0 0.17 0.44-0.13 0.97-0.66s1.1-0.88 1.3-0.77c0.18 0.11 0.32 0.057 0.32-0.12s0.67-0.62 1.5-0.98c0.81-0.36 1.5-0.82 1.5-1s0.15-0.27 0.34-0.16c0.19 0.12 0.57 1e-3 0.84-0.26 0.28-0.26 0.75-0.52 1-0.59 0.3-0.067 0.67-0.32 0.82-0.56 0.15-0.24 0.28-0.27 0.29-0.063 9e-3 0.2 0.19 0.079 0.4-0.28 0.21-0.36 0.7-0.65 1.1-0.65 0.4 0 0.72-0.18 0.72-0.41 0-0.22 0.26-0.31 0.57-0.19 0.37 0.14 0.48 0.07 0.32-0.19-0.15-0.25-0.052-0.34 0.26-0.24 0.28 0.098 1.4-0.3 2.4-0.88 1-0.58 2.2-1.1 2.5-1.1s0.62-0.15 0.62-0.34c0-0.19 0.54-0.46 1.2-0.6 0.66-0.14 1.4-0.38 1.6-0.54s0.91-0.4 1.6-0.54c0.72-0.15 1.1-0.42 0.96-0.66-0.15-0.24-0.072-0.29 0.18-0.13 0.24 0.15 0.64 0.13 0.89-0.025 0.47-0.29 0.65-0.34 1.9-0.44 0.37-0.032 0.58-0.21 0.46-0.39-0.11-0.18 0.1-0.26 0.48-0.16s0.92-0.055 1.2-0.34c0.29-0.29 0.73-0.45 0.98-0.37 0.25 0.084 0.46-0.012 0.46-0.21 0-0.2 0.36-0.27 0.8-0.16 0.58 0.15 0.72 0.082 0.51-0.26-0.22-0.35-0.077-0.4 0.54-0.2 0.54 0.17 0.75 0.13 0.59-0.12-0.13-0.22 0.051-0.38 0.42-0.37 0.65 0.017 3.1-0.81 3.4-1.2 0.1-0.1 0.52-0.2 0.92-0.23 0.41-0.024 1.2-0.14 1.7-0.27s2.5-0.57 4.4-0.99c1.9-0.42 3.7-0.81 4-0.86 0.25-0.056 0.56-0.21 0.68-0.33 0.13-0.13 0.46-0.14 0.75-0.033 0.29 0.11 0.81 0.074 1.2-0.079 0.36-0.15 1.1-0.24 1.7-0.2 0.56 0.044 1.2-0.033 1.4-0.17 0.22-0.14 1.5-0.32 2.9-0.42 1.4-0.091 2.5-0.28 2.6-0.42s0.97-0.21 2-0.15c1.3 0.076 1.8-2e-3 1.4-0.24-0.34-0.23 0.9-0.3 3.5-0.2 2.5 0.096 3.8 0.03 3.3-0.18-0.41-0.18-0.85-0.26-0.99-0.18-0.14 0.079-0.37-0.039-0.5-0.26-0.18-0.29 0.33-0.34 1.7-0.18 1.1 0.13 3.4 0.27 5.1 0.31l3.1 0.078-0.11 22c-0.063 12-6e-3 22 0.13 22 0.13 0.13 0.15 0.47 0.04 0.76-0.11 0.28-0.014 0.52 0.21 0.52 0.23 0 0.39 0.12 0.37 0.28s-0.024 0.48 0 0.72c0.055 0.55 3.7 4.1 3.9 3.9 0.1-0.1 0.29 0.091 0.42 0.42 0.13 0.33 0.38 0.51 0.56 0.4 0.18-0.11 0.33-0.045 0.33 0.15 0 0.62 2.3 1.2 4.8 1.2 2.5-8e-3 5.6-1 5.6-1.8 0-0.22 0.16-0.31 0.35-0.19 0.19 0.12 0.53-0.12 0.75-0.53s0.63-0.75 0.91-0.75 1.4-0.99 2.5-2.2c1.1-1.2 2.1-2.1 2.2-2 0.14 0.086 0.87-0.59 1.6-1.5 0.75-0.91 1.6-1.7 1.8-1.7s1.2-0.73 2.1-1.6c4.7-4.6 6.4-6.2 6.6-6.2 0.12 0 1.2-1 2.4-2.3s2.1-2.1 1.9-1.8c-0.21 0.35-0.17 0.44 0.12 0.26 0.24-0.14 0.43-0.51 0.43-0.81 0-0.3 0.29-0.64 0.65-0.76 0.36-0.12 1.5-1 2.5-2 1-0.99 2.7-2.5 3.8-3.3 1.1-0.82 1.9-1.7 1.9-2s0.18-0.55 0.41-0.55c0.5 0 3.6-2.7 7-5.9 4.1-4 6.2-5.9 6.6-5.9 0.17 0 1.3-1.1 2.5-2.4s2.4-2.4 2.6-2.4c0.27 0 0.93-0.58 1.5-1.3 0.54-0.71 1.1-1.3 1.3-1.2 0.18 0.048 1.2-0.83 2.4-2 3.1-3.1 5.2-5 5.5-5 0.15-6e-3 0.99-0.73 1.9-1.6 2.7-2.8 5.8-5.5 6-5.4 0.081 0.081 0.93-0.77 1.9-1.9 0.96-1.1 2-2 2.2-2s1.4-0.99 2.4-2.2c1.1-1.2 2.1-2.1 2.2-2s0.89-0.59 1.7-1.5 1.6-1.7 1.8-1.7 1.2-0.85 2.2-1.9c0.96-1 1.7-1.7 1.7-1.6 2e-3 0.18 0.82-0.56 1.8-1.6 1-1.1 2-1.9 2.2-1.9s1-0.74 1.8-1.6 1.6-1.6 1.7-1.5c0.091 0.092 1.3-1 2.6-2.4 1.3-1.4 2.3-2.6 2.2-2.6s0.05-0.21 0.37-0.46c1-0.82 1.9-6.3 1.1-7.1-0.15-0.15-0.29-0.39-0.31-0.52-0.12-1-1.1-2.5-3-4.4-3.7-3.8-9.9-9.5-12-11-0.94-0.71-2.1-1.8-2.5-2.5-0.51-0.78-0.98-1.1-1.3-0.98-0.32 0.12-0.57 4e-3 -0.58-0.29-0.011-0.28-1-1.3-2.3-2.4-1.2-1-2.9-2.5-3.7-3.3-0.78-0.82-1.4-1.4-1.4-1.2-3e-3 0.16-1.1-0.89-2.5-2.3-1.4-1.4-2.6-2.6-2.8-2.6s-1.1-0.83-2-1.9c-0.93-1-1.9-1.9-2.1-1.9-0.21 0-0.95-0.67-1.7-1.5-0.7-0.82-1.4-1.5-1.6-1.5-0.17 0-1.3-1-2.4-2.2s-2.2-2.2-2.3-2.1c-0.083 0.083-1.4-1.2-3-2.8-1.6-1.6-2.9-2.9-3-2.8s-0.83-0.59-1.7-1.5c-0.85-0.9-1.7-1.6-2-1.6-0.25 0-0.64-0.33-0.85-0.74s-0.89-0.99-1.5-1.3c-0.6-0.31-1.1-0.76-1-1 0.049-0.24-0.077-0.45-0.28-0.46-0.2-0.012-1.4-1.1-2.8-2.5-1.3-1.4-2.6-2.5-2.8-2.5s-1.2-0.91-2.2-2c-0.97-1.1-1.9-2-2.1-1.9-0.34 0.09-2.2-1.6-5.8-5.4-1.3-1.4-2.6-2.5-2.8-2.5s-1.6-1.3-3.1-2.8c-1.5-1.6-2.7-2.7-2.7-2.6 0 0.11-0.55-0.32-1.2-0.96-0.67-0.64-2-1.8-2.9-2.5s-1.9-1.7-2.1-2.1-0.67-0.95-1-1.1c-0.34-0.13-1.5-1.1-2.5-2.1s-2.5-2.3-3.3-2.9c-0.8-0.59-1.3-1.1-1.2-1.1 1 0-3.5-3.3-5.4-3.9-1.9-0.63-5.5-0.99-6.8-0.67m8.6 19c1.6 1.4 4.3 3.8 6 5.5 6 5.6 11 10 16 14 2.4 2.1 10 9.5 18 16s15 14 17 16 4.4 4 5.7 5.2 4.7 4.3 7.6 6.9c2.8 2.5 6.5 5.9 8.2 7.4s3.9 3.6 5 4.6l2 1.8-2.4 2.3c-1.3 1.2-5.3 4.9-8.8 8-9.2 8.1-14 13-17 15-1.2 1.1-4.5 4.1-7.2 6.5-2.7 2.4-6.2 5.6-7.8 7s-4.9 4.4-7.4 6.7-5.8 5.2-7.2 6.5c-1.4 1.3-5.1 4.7-8.2 7.4s-8 7.3-11 10c-7.3 6.8-11 10-11 10-0.14 0-0.14-9.7 7e-3 -22 0.35-29 1.4-27-13-27-27 0.016-48 4.8-71 16-5.9 2.9-18 11-19 12-0.21 0.26-1.8 1.6-3.5 3-28 23-38 60-22 92 18 36 65 63 114 66 4.9 0.26 5.3 0.48 4.9 2.5-0.45 2.4-3.8 3-18 3.4-14 0.38-26-0.61-36-3-3-0.7-7.5-1.8-10-2.4-8-1.9-17-5-27-9.6-7.3-3.2-22-12-27-16-0.92-0.76-2.8-2.3-4.3-3.3-5.2-3.8-14-13-19-18-1.3-1.5-2.8-3.3-3.4-4s-3.1-4.2-5.5-7.8c-35-53-25-118 24-159 1.8-1.5 3.9-3.2 4.6-3.8 2.7-2.2 14-9.7 18-12 7-4 8.6-4.8 13-6.8 2.3-1 5.1-2.3 6.1-2.8 18-8.5 45-14 75-14l15-0.24 1.4-1c2.7-1.9 2.5-0.46 2.7-23 0.058-11 0.2-20 0.3-20 0.11 0 1.5 1.1 3 2.5" fill="#040404"/>
<path d="m136 118c-0.87 0.52-1.6 1-1.6 1.1 0 0.2 2.5-1.2 3.1-1.8 0.64-0.56 0.043-0.32-1.6 0.64m30 58c-0.76 0.4-1.4 0.82-1.4 0.92s0.67-0.16 1.5-0.57c0.81-0.42 1.5-0.84 1.5-0.93 0-0.24-3e-3 -0.24-1.6 0.59m-25 19-1.1 1.2 1.2-1.1c1.1-1 1.4-1.3 1.1-1.3-0.064 0-0.61 0.54-1.2 1.2m95 159c0.36 0.093 0.94 0.093 1.3 0 0.36-0.093 0.065-0.17-0.65-0.17s-1 0.076-0.65 0.17m-27 0.38c0.56 0.084 1.5 0.084 2 0 0.56-0.085 0.1-0.16-1-0.16-1.1 0-1.6 0.07-1 0.16m23 0c0.56 0.085 1.4 0.083 1.9-5e-3 0.46-0.088-5e-3 -0.16-1-0.16-1 3e-3 -1.4 0.075-0.83 0.16m-12 0.38c1.5 0.07 3.9 0.07 5.4 0 1.5-0.071 0.27-0.13-2.7-0.13-3 0-4.2 0.057-2.7 0.13" fill="#824e23"/>
<path d="m72 219c0 0.71 0.076 1 0.17 0.65 0.093-0.36 0.093-0.94 0-1.3-0.093-0.36-0.17-0.064-0.17 0.65m7e-3 7.6c4e-3 0.82 0.08 1.1 0.17 0.64 0.088-0.46 0.085-1.1-8e-3 -1.5-0.092-0.35-0.16 0.023-0.16 0.84m0.74 10c4e-3 0.82 0.08 1.1 0.17 0.64 0.088-0.46 0.085-1.1-8e-3 -1.5-0.093-0.35-0.16 0.023-0.16 0.84m0.36 2.8c0 0.71 0.076 1 0.17 0.65 0.093-0.36 0.093-0.94 0-1.3-0.093-0.36-0.17-0.065-0.17 0.65m46 30c0 0.31 0.14 0.89 0.32 1.3 0.2 0.47 0.32 0.54 0.32 0.18 0-0.31-0.14-0.89-0.32-1.3-0.2-0.47-0.32-0.54-0.32-0.18m7.5 18c0.32 0.61 0.66 1.1 0.76 1.1s-0.074-0.5-0.39-1.1c-0.32-0.61-0.66-1.1-0.76-1.1s0.073 0.5 0.39 1.1m-23 16c0 0.064 0.54 0.6 1.2 1.2l1.2 1.1-1.1-1.2c-1-1.1-1.3-1.4-1.3-1.1m36 1.9c1.1 1.1 2.1 2 2.2 2s-0.72-0.92-1.8-2c-1.1-1.1-2.1-2-2.2-2s0.72 0.92 1.8 2m-30 4.8c1.1 1.1 2.1 2 2.2 2s-0.72-0.92-1.8-2c-1.1-1.1-2.1-2-2.2-2s0.72 0.92 1.8 2m35 0.56c1.4 1.4 2.7 2.6 2.8 2.6 0.1 0-0.97-1.2-2.4-2.6s-2.7-2.6-2.8-2.6 0.97 1.2 2.4 2.6m-5.4 22c0 0.1 0.5 0.44 1.1 0.76s1.1 0.49 1.1 0.39c0-0.1-0.5-0.44-1.1-0.76s-1.1-0.49-1.1-0.39m37 15c0.41 0.18 0.99 0.32 1.3 0.32 0.35 0 0.28-0.12-0.18-0.32-0.41-0.18-0.99-0.32-1.3-0.32-0.35 0-0.28 0.12 0.18 0.32m36 5.8c0.56 0.084 1.5 0.084 2 0 0.56-0.085 0.1-0.16-1-0.16-1.1 0-1.6 0.07-1 0.16m16-4e-3c0.46 0.089 1.1 0.086 1.5-7e-3s-0.023-0.16-0.84-0.16-1.1 0.08-0.64 0.17" fill="#a48b13"/>
<path d="m253 67 0.09 20 0.2-40 2 1.8-0.9-1c-0.49-0.56-1-1-1.2-1s-0.27 9-0.22 20m7.9-13c1 1 1.9 1.9 2 1.9s-0.64-0.83-1.6-1.9c-1-1-1.9-1.9-2-1.9s0.64 0.83 1.6 1.9m5.9 5.5c1 1.1 2.4 2.3 3 2.7 1.3 0.89 0.91 0.5-2.4-2.5l-2.4-2.2 1.9 2m4.6 4.2c0 0.063 0.54 0.6 1.2 1.2l1.2 1.1-1.1-1.2c-1-1.1-1.3-1.4-1.3-1.1m4.3 3.8c3.3 3.2 10 9.6 9.2 8.3-0.61-0.67-3.4-3.2-6.1-5.7s-4.2-3.6-3.1-2.7m11 10c0.35 0.57 18 17 18 17 0-0.1-4.1-4-9.1-8.6-5-4.6-9-8.2-8.9-8m-36 12c-0.94 0.98-1 1.2-0.4 0.78 0.76-0.48 2.2-2.2 1.8-2.2-0.076 0.013-0.72 0.63-1.4 1.4m-27 2.2c0.66 0.082 1.8 0.083 2.6 3e-3 0.77-0.08 0.23-0.15-1.2-0.15-1.4-1e-3 -2.1 0.064-1.4 0.15m82 3.4c1.2 1.3 6.1 5.8 6.1 5.5 0-0.082-1.6-1.6-3.6-3.4s-3.1-2.7-2.5-2.1m6.8 6.1c0.66 0.84 6.3 6 6.3 5.7 0-0.1-1.5-1.6-3.4-3.3-1.9-1.7-3.2-2.8-2.9-2.4m7.9 7.2c0.14 0.23 1.6 1.6 3.3 3.1s2.9 2.5 2.8 2.3c-0.14-0.23-1.6-1.6-3.3-3.1s-2.9-2.5-2.8-2.3m8 7.3c0 0.1 1.5 1.6 3.4 3.3s3 2.6 2.5 2c-1.1-1.3-5.9-5.6-5.9-5.3m9.6 8.9c0.91 0.97 1.8 1.8 2 1.8 0.33 0 0.27-0.065-2.2-2.2-1.4-1.2-1.4-1.2 0.19 0.46m-1.5 5.9c-3.8 3.6-3.8 3.7-0.56 0.77 3.2-2.8 4.9-4.5 4.6-4.5-0.083 7e-3 -1.9 1.7-4 3.7m-8.1 7.2c-4.7 4.2-6.8 6.4-3.1 3.2 3.6-3.1 7.4-6.7 7.2-6.7-0.1-1e-3 -1.9 1.6-4.1 3.5m-9.6 8.7-3.5 3.4 3.4-3c3.1-2.7 4.1-3.7 3.7-3.7-0.063 5e-3 -1.7 1.5-3.6 3.4m-7.8 7c-2.8 2.7-2.9 2.8-0.56 0.77 2.4-2.1 4.2-3.8 3.9-3.8-0.083 7e-3 -1.6 1.4-3.3 3m-7.6 6.9c-2.7 2.6-2.9 2.8-0.74 0.95 1.4-1.2 3-2.7 3.5-3.2 1.8-1.9 0.53-0.89-2.8 2.2m-64-1.7c9.2 0.19 9.7 0.24 11 1.1 0.81 0.48 1.1 0.58 0.74 0.24-1.8-1.5-2.8-1.7-12-1.6l-9.2 0.078 9.6 0.2m-14 0.28c0.66 0.082 1.8 0.083 2.6 3e-3 0.77-0.08 0.23-0.15-1.2-0.15-1.4-1e-3 -2.1 0.064-1.4 0.15m-4.2 0.37c0.56 0.085 1.4 0.083 1.9-5e-3s-5e-3 -0.16-1-0.16c-1 3e-3 -1.4 0.075-0.83 0.16m-3.9 0.37c0.46 0.088 1.2 0.088 1.7 0s0.083-0.16-0.83-0.16c-0.92 0-1.3 0.072-0.83 0.16m-2.8 0.36c0.36 0.093 0.94 0.093 1.3 0 0.36-0.093 0.065-0.17-0.65-0.17s-1 0.076-0.65 0.17m37 1.4c0.19 0.41 0.43 0.99 0.55 1.3 0.18 0.48 0.21 0.48 0.24-0.022 0.016-0.32-0.23-0.9-0.55-1.3-0.57-0.71-0.57-0.71-0.24 0.022m0.97 9.3c-1e-3 4.1 0.053 5.8 0.12 3.8 0.066-2 0.067-5.3 0-7.4-0.066-2.1-0.12-0.48-0.12 3.6m43-3.3c-2.3 2.1-2.4 2.4-0.74 0.95 2.1-1.8 4.2-3.8 3.9-3.8-0.086 8e-3 -1.5 1.3-3.1 2.8m-7.4 6.6c-2.3 2.2-2.5 2.4-0.74 0.96 1.2-1 2.6-2.3 3.1-2.8 1.7-1.8 0.58-0.95-2.4 1.9m-8 7.2-3.1 3 3.2-2.9c2.9-2.5 3.5-3.1 3.1-3.1-0.05 2e-3 -1.5 1.4-3.2 3m-8 7.2-3.3 3.2 3.4-3c3-2.7 3.7-3.3 3.3-3.3-0.051 3e-3 -1.6 1.4-3.4 3.2m-20 9.9c-0.051 5 0.053 8.4 0.26 8.3 0.49-0.18 8.4-7.4 13-12 2-2 1.2-1.3-1.9 1.5s-6.8 6.2-8.2 7.5l-2.6 2.3-0.11-8.3-0.11-8.3-0.085 8.5" fill="#320a58"/>
<path d="m96 133-1.5 1.6 1.6-1.5c1.5-1.4 1.7-1.7 1.5-1.7-0.06 0-0.77 0.71-1.6 1.6m18 0.92-1.3 1.4 1.4-1.3c0.76-0.7 1.4-1.3 1.4-1.4 0-0.28-0.31-0.016-1.5 1.3m-30 38c-0.42 0.82-0.67 1.5-0.57 1.5 0.1 0 0.53-0.67 0.94-1.5 0.42-0.82 0.67-1.5 0.57-1.5s-0.52 0.67-0.94 1.5m145 0.26c0.44 0.44 2.2 0.56 1.9 0.13-0.13-0.21-0.67-0.39-1.2-0.39-0.53 0-0.85 0.12-0.7 0.26m-161 1.6c-0.33 0.63-0.53 1.2-0.45 1.3 0.081 0.08 0.42-0.44 0.76-1.1 0.76-1.6 0.5-1.7-0.32-0.15m103-0.38c-0.76 0.4-1.4 0.82-1.4 0.92 0 0.16 2.9-1.2 3.3-1.5 0.43-0.38-0.69-0.021-1.9 0.63m-22 30-1.1 1.2 1.3-1.1c0.71-0.61 1.4-1.2 1.5-1.2s-7e-3 -0.092-0.21-0.092c-0.2 0-0.85 0.54-1.4 1.2m-90 26c-0.044 0.53 0.079 0.82 0.29 0.69 0.44-0.27 0.49-1.2 0.076-1.4-0.16-0.1-0.33 0.23-0.37 0.74m1.3 11c-0.12 0.12-0.072 0.7 0.1 1.3 0.17 0.6 0.31 1.2 0.31 1.3-4e-3 0.12 0.097 0.31 0.23 0.44 0.2 0.2-0.14-2.9-0.35-3.2-0.039-0.051-0.17 4e-3 -0.28 0.12m56 8.3c0 2.1 0.061 3 0.14 1.9 0.075-1.1 0.075-2.8 0-3.9-0.075-1.1-0.14-0.2-0.14 1.9m6.7 31c0.52 1 1 1.9 1.1 1.9 0.1 0-0.24-0.83-0.75-1.9-0.52-1-1-1.9-1.1-1.9-0.1 0 0.24 0.83 0.75 1.9m-35 24c0.43 0.6 0.97 1.2 1.2 1.4s-0.046-0.35-0.62-1.1c-1.2-1.6-1.7-1.8-0.59-0.26m52 0.2c0.69 0.71 1.3 1.3 1.4 1.3s-0.38-0.58-1.1-1.3-1.3-1.3-1.4-1.3 0.38 0.58 1.1 1.3m-30 5.8c1.5 1.6 1.9 1.9 1.9 1.7 0-0.059-0.79-0.85-1.8-1.8l-1.8-1.7 1.7 1.8m36 0.65c1 1 1.9 1.9 2 1.9s-0.64-0.83-1.6-1.9c-1-1-1.9-1.9-2-1.9s0.64 0.83 1.6 1.9m-54-0.97c0 0.078 0.46 0.44 1 0.8l1 0.66-0.71-0.8c-0.62-0.71-1.3-1.1-1.3-0.66m16 15c0 0.18 0.75 0.86 1.7 1.5 0.92 0.66 1.7 1.1 1.7 1.1 0-0.071-0.75-0.76-1.7-1.5-0.92-0.77-1.7-1.2-1.7-1.1m133 23c1.3 0.074 2.6 0.33 3 0.58 0.5 0.39 0.51 0.36 0.061-0.2-0.4-0.52-1-0.63-3-0.58l-2.5 0.071 2.4 0.13m-27 5.5c0.36 0.093 0.94 0.093 1.3 0 0.36-0.093 0.065-0.17-0.65-0.17s-1 0.076-0.65 0.17m-6.4 12c-0.31 0.2-0.47 0.38-0.37 0.39 0.1 0.019 0.47 0.088 0.81 0.16 0.41 0.078 0.55-0.059 0.42-0.4-0.23-0.61-0.16-0.6-0.86-0.15m4.1 0.51c0 0.3 2.3 0.46 2.4 0.16 0.1-0.17-0.4-0.31-1.1-0.31s-1.3 0.064-1.3 0.14m19 0.16c0 0.17 0.5 0.23 1.1 0.14s1.1-0.23 1.1-0.31-0.5-0.14-1.1-0.14-1.1 0.14-1.1 0.31" fill="#422610"/>
<path d="m109 139c-0.9 0.92-1.6 1.7-1.5 1.7s0.92-0.75 1.8-1.7 1.6-1.7 1.4-1.7c-0.1 0-0.92 0.75-1.8 1.7m29 58-1.1 1.2 1.2-1.1c1.1-1 1.4-1.3 1.1-1.3-0.063 0-0.6 0.54-1.2 1.2m61 156c0.36 0.093 0.94 0.093 1.3 0 0.36-0.093 0.065-0.17-0.65-0.17s-1 0.076-0.65 0.17" fill="#564811"/>
</g>
</svg>
