<svg id="svg" version="1.1" xmlns="http://www.w3.org/2000/svg" xmlns:xlink="http://www.w3.org/1999/xlink" width="400" height="400" viewBox="0, 0, 400,400"><g id="svgg"><path id="path0" d="M253.253 67.476 C 253.113 94.275,254.994 91.632,235.806 92.000 C 228.641 92.138,221.903 92.234,220.833 92.215 C 219.598 92.193,218.889 92.335,218.889 92.604 C 218.889 92.890,218.170 92.988,216.696 92.903 C 215.490 92.834,214.583 92.857,214.681 92.954 C 214.778 93.051,214.307 93.315,213.633 93.542 C 212.440 93.944,212.019 94.747,212.739 95.248 C 212.936 95.385,213.143 95.718,213.200 95.989 C 213.569 97.729,214.613 100.000,215.044 100.000 C 215.477 100.000,215.769 101.203,215.603 102.304 C 215.581 102.450,215.895 102.748,216.300 102.965 C 216.705 103.182,217.037 103.698,217.037 104.111 C 217.037 105.140,217.700 106.296,218.290 106.296 C 218.568 106.296,218.789 106.738,218.805 107.326 C 218.854 109.036,219.030 109.413,220.093 110.085 C 221.155 110.758,221.369 111.278,220.741 111.667 C 220.147 112.033,220.311 112.491,221.111 112.700 C 221.652 112.841,221.852 113.205,221.852 114.047 C 221.852 114.681,222.300 115.905,222.847 116.767 C 223.394 117.628,223.939 118.917,224.057 119.630 C 224.175 120.343,224.469 120.926,224.710 120.926 C 224.951 120.926,225.356 121.134,225.611 121.389 C 225.981 121.759,225.906 121.852,225.234 121.852 L 224.394 121.852 225.160 122.928 C 225.581 123.519,225.926 124.269,225.926 124.594 C 225.926 124.919,226.102 125.185,226.318 125.185 C 226.534 125.185,226.603 125.359,226.471 125.572 C 226.340 125.784,226.432 126.199,226.676 126.493 C 226.927 126.795,227.018 127.433,226.886 127.959 C 226.736 128.556,226.920 129.416,227.400 130.356 C 227.812 131.163,228.148 132.129,228.148 132.504 C 228.148 132.879,228.355 133.392,228.608 133.645 C 228.974 134.011,228.966 134.168,228.569 134.413 C 228.156 134.668,228.168 134.873,228.641 135.602 C 229.036 136.211,229.158 137.042,229.037 138.303 C 228.926 139.460,229.019 140.222,229.292 140.390 C 229.582 140.570,229.699 141.996,229.654 144.807 C 229.601 148.137,229.684 148.901,230.072 148.667 C 230.439 148.446,230.433 148.527,230.047 149.003 C 229.616 149.534,229.616 149.630,230.047 149.635 C 230.444 149.640,230.453 149.706,230.088 149.938 C 229.746 150.155,229.681 150.968,229.848 152.988 C 230.110 156.168,230.161 156.296,231.164 156.296 C 232.388 156.296,231.728 157.203,230.341 157.427 C 228.214 157.771,231.760 158.091,240.556 158.349 C 249.425 158.610,250.776 158.962,252.301 161.415 L 253.148 162.778 253.006 184.805 L 252.863 206.832 255.413 204.570 C 256.815 203.326,260.640 199.830,263.911 196.802 C 267.183 193.774,271.349 189.969,273.170 188.346 C 274.991 186.723,277.655 184.307,279.088 182.976 C 280.522 181.645,283.855 178.615,286.496 176.244 C 293.789 169.694,302.349 161.974,309.975 155.069 C 313.757 151.644,321.266 144.894,326.660 140.069 C 332.055 135.244,337.452 130.373,338.654 129.245 L 340.839 127.193 338.475 124.944 C 337.175 123.706,335.099 121.796,333.861 120.699 C 331.691 118.775,327.165 114.661,321.683 109.630 C 320.240 108.306,316.994 105.389,314.468 103.148 C 309.390 98.642,293.603 84.214,286.111 77.233 C 283.463 74.765,277.831 69.587,273.595 65.725 C 269.360 61.863,263.860 56.820,261.373 54.518 C 258.886 52.216,256.066 49.663,255.105 48.845 L 253.358 47.359 253.253 67.476 " stroke="none" fill="#7f12ef" fill-rule="evenodd"></path><path id="path1" d="M141.474 115.258 C 140.358 115.875,138.214 117.031,136.711 117.828 C 121.838 125.712,102.314 143.873,91.971 159.444 C 67.984 195.560,65.659 234.478,85.002 276.111 C 94.305 296.137,116.587 319.524,137.593 331.311 C 145.487 335.741,147.111 336.562,154.074 339.641 C 177.703 350.088,203.913 354.858,229.694 353.401 C 241.077 352.758,242.963 352.300,242.963 350.179 C 242.963 348.651,242.945 348.645,237.222 348.369 C 180.638 345.633,126.182 307.924,117.631 265.556 C 109.934 227.417,128.835 194.602,170.860 173.146 C 172.471 172.323,173.492 171.612,173.159 171.544 C 172.756 171.461,172.635 171.191,172.787 170.711 C 172.944 170.216,172.836 170.000,172.432 170.000 C 172.113 170.000,171.852 169.833,171.852 169.630 C 171.852 169.426,172.044 169.259,172.280 169.259 C 172.550 169.259,172.498 169.020,172.139 168.611 C 171.225 167.569,170.477 165.858,170.196 164.167 C 170.033 163.181,169.739 162.593,169.412 162.593 C 169.124 162.593,168.889 162.384,168.890 162.130 C 168.890 161.875,168.564 161.000,168.164 160.185 C 166.752 157.307,165.556 154.347,165.556 153.733 C 165.556 153.391,165.410 152.953,165.233 152.759 C 164.857 152.349,163.333 147.533,163.333 146.754 C 163.333 146.304,162.504 144.921,161.393 143.519 C 159.639 141.302,158.510 139.540,158.293 138.676 C 158.149 138.100,157.515 137.065,156.886 136.375 C 156.256 135.686,155.447 134.261,155.088 133.209 C 154.729 132.157,154.200 131.121,153.913 130.906 C 153.626 130.692,153.336 129.942,153.270 129.240 C 153.196 128.470,152.966 127.999,152.690 128.054 C 152.218 128.148,151.111 125.923,151.111 124.882 C 151.111 124.562,150.662 123.831,150.114 123.259 C 149.566 122.687,149.081 121.973,149.037 121.674 C 148.850 120.402,147.641 117.773,147.263 117.817 C 146.448 117.913,145.807 117.773,146.032 117.549 C 146.158 117.422,146.017 117.076,145.720 116.778 C 145.422 116.480,145.273 116.083,145.389 115.896 C 145.505 115.709,145.178 115.556,144.663 115.556 C 144.013 115.556,143.788 115.397,143.926 115.037 C 144.299 114.064,143.504 114.135,141.474 115.258 M159.316 139.834 C 159.387 140.197,159.669 140.569,159.943 140.660 C 160.262 140.766,160.395 140.588,160.313 140.166 C 160.243 139.803,159.961 139.431,159.687 139.340 C 159.368 139.234,159.235 139.412,159.316 139.834 " stroke="none" fill="#f78427" fill-rule="evenodd"></path><path id="path2" d="M213.519 92.851 C 188.123 95.140,161.680 103.257,141.024 115.104 C 139.041 116.242,137.496 117.249,137.589 117.343 C 137.683 117.436,137.972 117.343,138.232 117.136 C 140.699 115.165,144.769 113.761,143.889 115.185 C 143.759 115.396,144.078 115.556,144.630 115.556 C 145.163 115.556,145.505 115.709,145.389 115.896 C 145.273 116.083,145.422 116.480,145.720 116.778 C 146.017 117.076,146.158 117.422,146.032 117.549 C 145.807 117.773,146.448 117.913,147.263 117.817 C 147.641 117.773,148.850 120.402,149.037 121.674 C 149.081 121.973,149.566 122.687,150.114 123.259 C 150.662 123.831,151.111 124.562,151.111 124.882 C 151.111 125.923,152.218 128.148,152.690 128.054 C 152.966 127.999,153.196 128.470,153.270 129.240 C 153.336 129.942,153.626 130.692,153.913 130.906 C 154.200 131.121,154.729 132.157,155.088 133.209 C 155.447 134.261,156.256 135.686,156.886 136.375 C 157.515 137.065,158.149 138.100,158.293 138.676 C 158.510 139.540,159.639 141.302,161.393 143.519 C 162.504 144.921,163.333 146.304,163.333 146.754 C 163.333 147.533,164.857 152.349,165.233 152.759 C 165.410 152.953,165.556 153.391,165.556 153.733 C 165.556 154.347,166.752 157.307,168.164 160.185 C 168.564 161.000,168.890 161.875,168.890 162.130 C 168.889 162.384,169.124 162.593,169.412 162.593 C 169.739 162.593,170.033 163.181,170.196 164.167 C 170.477 165.858,171.225 167.569,172.139 168.611 C 172.498 169.020,172.550 169.259,172.280 169.259 C 172.044 169.259,171.852 169.426,171.852 169.630 C 171.852 169.833,172.113 170.000,172.432 170.000 C 172.844 170.000,172.945 170.215,172.778 170.741 C 172.602 171.294,172.713 171.485,173.216 171.496 C 173.721 171.507,173.635 171.649,172.870 172.064 C 170.695 173.244,172.049 172.809,176.574 170.873 C 194.780 163.085,215.515 158.775,236.296 158.458 L 240.926 158.387 235.370 158.130 C 229.071 157.839,228.570 157.771,230.341 157.451 C 231.734 157.199,232.378 156.296,231.164 156.296 C 230.161 156.296,230.110 156.168,229.848 152.988 C 229.681 150.968,229.746 150.155,230.088 149.938 C 230.453 149.706,230.444 149.640,230.047 149.635 C 229.616 149.630,229.616 149.534,230.047 149.003 C 230.433 148.527,230.439 148.446,230.072 148.667 C 229.684 148.901,229.601 148.137,229.654 144.807 C 229.699 141.996,229.582 140.570,229.292 140.390 C 229.019 140.222,228.926 139.460,229.037 138.303 C 229.158 137.042,229.036 136.211,228.641 135.602 C 228.168 134.873,228.156 134.668,228.569 134.413 C 228.966 134.168,228.974 134.011,228.608 133.645 C 228.355 133.392,228.148 132.879,228.148 132.504 C 228.148 132.129,227.812 131.163,227.400 130.356 C 226.920 129.416,226.736 128.556,226.886 127.959 C 227.018 127.433,226.927 126.795,226.676 126.493 C 226.432 126.199,226.340 125.784,226.471 125.572 C 226.603 125.359,226.534 125.185,226.318 125.185 C 226.102 125.185,225.926 124.919,225.926 124.594 C 225.926 124.269,225.581 123.519,225.160 122.928 L 224.394 121.852 225.234 121.852 C 225.906 121.852,225.981 121.759,225.611 121.389 C 225.356 121.134,224.951 120.926,224.710 120.926 C 224.469 120.926,224.175 120.343,224.057 119.630 C 223.939 118.917,223.394 117.628,222.847 116.767 C 222.300 115.905,221.852 114.681,221.852 114.047 C 221.852 113.205,221.652 112.841,221.111 112.700 C 220.311 112.491,220.147 112.033,220.741 111.667 C 221.369 111.278,221.155 110.758,220.093 110.085 C 219.030 109.413,218.854 109.036,218.805 107.326 C 218.789 106.738,218.568 106.296,218.290 106.296 C 217.700 106.296,217.037 105.140,217.037 104.111 C 217.037 103.698,216.705 103.182,216.300 102.965 C 215.895 102.748,215.581 102.450,215.603 102.304 C 215.769 101.203,215.477 100.000,215.044 100.000 C 214.613 100.000,213.569 97.729,213.200 95.989 C 213.143 95.718,212.941 95.385,212.752 95.248 C 211.404 94.277,212.941 93.381,216.667 92.966 L 219.074 92.698 217.037 92.707 C 215.917 92.713,214.333 92.777,213.519 92.851 M160.313 140.166 C 160.395 140.588,160.262 140.766,159.943 140.660 C 159.669 140.569,159.387 140.197,159.316 139.834 C 159.235 139.412,159.368 139.234,159.687 139.340 C 159.961 139.431,160.243 139.803,160.313 140.166 M232.320 172.858 C 232.883 172.943,233.716 172.941,234.172 172.853 C 234.627 172.765,234.167 172.696,233.148 172.699 C 232.130 172.701,231.757 172.773,232.320 172.858 M148.319 204.907 L 146.481 206.852 148.426 205.014 C 149.495 204.003,150.370 203.128,150.370 203.069 C 150.370 202.793,150.027 203.101,148.319 204.907 M92.963 311.597 C 92.963 311.661,93.505 312.203,94.167 312.801 L 95.370 313.889 94.283 312.685 C 93.269 311.563,92.963 311.311,92.963 311.597 " stroke="none" fill="#c72ba5" fill-rule="evenodd"></path><path id="path3" d="M247.593 30.970 C 246.257 31.296,243.751 32.676,243.552 33.195 C 243.444 33.475,243.113 33.704,242.815 33.704 C 242.254 33.704,240.872 35.391,240.670 36.322 C 240.607 36.614,240.472 36.935,240.370 37.037 C 239.388 38.020,239.275 40.440,239.358 58.864 L 239.444 77.963 234.133 77.851 C 231.211 77.789,228.907 77.878,229.012 78.048 C 229.117 78.218,227.549 78.291,225.528 78.210 C 223.307 78.120,221.852 78.204,221.852 78.420 C 221.852 78.617,220.810 78.808,219.537 78.846 C 218.264 78.883,214.306 79.246,210.741 79.652 C 207.176 80.058,203.426 80.480,202.407 80.591 C 201.389 80.701,199.556 80.963,198.333 81.173 C 197.111 81.382,195.528 81.626,194.815 81.715 C 194.102 81.803,192.935 82.036,192.222 82.232 C 191.509 82.428,190.468 82.589,189.907 82.591 C 189.347 82.592,188.889 82.769,188.889 82.985 C 188.889 83.201,188.732 83.280,188.541 83.162 C 187.966 82.807,185.174 83.386,185.434 83.807 C 185.573 84.031,185.488 84.076,185.229 83.916 C 184.639 83.551,181.793 84.049,182.054 84.472 C 182.170 84.659,181.741 84.700,181.072 84.566 C 180.395 84.431,179.973 84.473,180.090 84.664 C 180.202 84.849,179.640 85.025,178.840 85.056 C 178.040 85.087,177.162 85.298,176.889 85.525 C 176.441 85.897,171.932 87.220,169.656 87.647 C 169.161 87.740,168.577 87.930,168.359 88.069 C 168.141 88.208,167.880 88.343,167.778 88.369 C 167.676 88.394,167.051 88.542,166.389 88.698 C 165.727 88.854,165.185 89.122,165.185 89.294 C 165.185 89.466,164.935 89.510,164.630 89.393 C 164.324 89.276,164.074 89.374,164.074 89.612 C 164.074 89.849,163.897 89.934,163.680 89.800 C 163.214 89.512,158.889 91.060,158.889 91.515 C 158.889 91.687,158.660 91.741,158.381 91.634 C 158.102 91.527,157.622 91.691,157.314 91.998 C 157.006 92.306,156.652 92.454,156.526 92.328 C 156.399 92.202,156.296 92.321,156.296 92.593 C 156.296 92.864,156.187 92.978,156.054 92.844 C 155.921 92.711,155.296 92.921,154.665 93.311 C 154.035 93.701,153.393 94.030,153.239 94.043 C 153.085 94.055,152.335 94.331,151.572 94.655 C 150.809 94.980,149.890 95.306,149.529 95.381 C 149.169 95.455,148.409 95.847,147.840 96.252 C 147.272 96.657,146.317 97.106,145.718 97.251 C 144.423 97.564,139.937 99.762,139.198 100.446 C 138.309 101.268,134.934 102.958,134.683 102.708 C 134.552 102.576,134.444 102.664,134.444 102.901 C 134.444 103.139,134.215 103.333,133.934 103.333 C 133.654 103.333,133.218 103.581,132.966 103.885 C 132.715 104.188,132.378 104.356,132.219 104.257 C 132.060 104.159,131.830 104.338,131.708 104.655 C 131.586 104.973,131.325 105.132,131.127 105.010 C 130.930 104.888,130.428 105.127,130.014 105.542 C 129.599 105.957,129.259 106.181,129.259 106.040 C 129.259 105.900,128.997 106.108,128.676 106.503 C 128.356 106.899,128.201 106.972,128.333 106.667 C 128.465 106.361,128.299 106.444,127.964 106.852 C 127.629 107.259,127.200 107.551,127.011 107.500 C 126.822 107.449,126.667 107.574,126.667 107.778 C 126.667 107.981,126.488 108.148,126.270 108.148 C 126.052 108.148,125.641 108.356,125.357 108.611 C 124.143 109.699,123.704 110.015,123.704 109.799 C 123.704 109.453,120.971 111.182,120.625 111.747 C 120.460 112.017,120.186 112.152,120.016 112.047 C 119.846 111.942,119.608 112.116,119.486 112.433 C 119.364 112.750,119.095 112.905,118.889 112.778 C 118.682 112.650,118.413 112.806,118.291 113.125 C 118.169 113.443,117.827 113.704,117.531 113.704 C 117.235 113.704,117.096 113.870,117.222 114.074 C 117.348 114.278,117.290 114.444,117.093 114.444 C 116.896 114.444,115.823 115.187,114.709 116.095 C 113.595 117.002,112.598 117.660,112.495 117.557 C 112.391 117.453,111.939 117.836,111.490 118.406 C 111.041 118.977,110.526 119.444,110.346 119.444 C 110.166 119.444,109.531 119.944,108.936 120.556 C 106.643 122.909,105.317 124.074,104.932 124.074 C 104.712 124.074,103.493 125.241,102.222 126.667 C 100.952 128.093,99.713 129.259,99.470 129.259 C 98.931 129.259,96.949 131.270,97.220 131.541 C 97.327 131.648,96.121 132.960,94.540 134.457 C 92.960 135.954,91.667 137.306,91.667 137.461 C 91.667 137.616,91.125 138.191,90.463 138.740 C 89.801 139.288,89.259 139.944,89.259 140.196 C 89.259 140.449,88.837 140.932,88.322 141.270 C 87.806 141.608,87.463 142.013,87.560 142.169 C 87.657 142.326,87.045 143.193,86.201 144.097 C 85.356 145.001,84.657 145.872,84.648 146.032 C 84.638 146.192,84.380 146.478,84.074 146.667 C 83.769 146.856,83.519 147.169,83.519 147.364 C 83.519 147.559,83.185 148.109,82.778 148.586 C 81.690 149.861,80.000 152.518,80.000 152.955 C 80.000 153.163,79.874 153.333,79.720 153.333 C 79.566 153.333,79.218 153.834,78.947 154.447 C 78.676 155.059,78.298 155.463,78.107 155.345 C 77.916 155.227,77.783 155.268,77.812 155.435 C 77.951 156.231,77.739 156.686,77.344 156.443 C 77.058 156.265,76.987 156.373,77.136 156.760 C 77.268 157.104,77.131 157.434,76.805 157.559 C 76.499 157.677,76.349 157.934,76.472 158.132 C 76.594 158.330,76.354 158.831,75.939 159.246 C 75.525 159.661,75.187 160.125,75.188 160.278 C 75.190 160.431,74.954 160.832,74.665 161.171 C 74.055 161.883,72.542 165.185,72.825 165.185 C 72.930 165.185,72.752 165.449,72.430 165.771 C 72.108 166.093,71.940 166.509,72.055 166.697 C 72.171 166.884,72.089 167.037,71.874 167.037 C 71.658 167.037,71.481 167.292,71.481 167.604 C 71.481 167.916,71.232 168.267,70.928 168.384 C 70.624 168.501,70.475 168.758,70.597 168.956 C 70.719 169.154,70.468 169.643,70.039 170.043 C 69.610 170.443,69.234 171.055,69.203 171.403 C 69.094 172.627,69.054 172.788,68.558 173.981 C 68.283 174.644,67.892 175.185,67.690 175.185 C 67.487 175.185,67.405 175.508,67.508 175.902 C 67.613 176.302,67.482 176.701,67.211 176.805 C 66.945 176.907,66.773 177.413,66.830 177.929 C 66.892 178.499,66.783 178.776,66.552 178.633 C 66.319 178.489,66.263 178.638,66.407 179.013 C 66.537 179.352,66.505 179.630,66.336 179.630 C 65.912 179.630,64.341 184.719,64.624 185.177 C 64.757 185.391,64.612 185.454,64.278 185.327 C 63.587 185.061,63.525 185.586,64.167 186.277 C 64.546 186.685,64.504 186.731,63.937 186.530 C 63.377 186.332,63.282 186.429,63.439 187.032 C 63.547 187.442,63.465 187.778,63.259 187.778 C 63.053 187.778,62.976 188.017,63.088 188.309 C 63.200 188.602,63.120 188.898,62.910 188.968 C 62.700 189.038,62.501 189.798,62.468 190.657 C 62.435 191.515,62.292 192.219,62.151 192.220 C 62.010 192.221,61.959 192.560,62.039 192.973 C 62.118 193.386,62.026 193.626,61.832 193.507 C 61.639 193.387,61.469 193.758,61.454 194.330 C 61.439 194.902,61.334 195.787,61.220 196.296 C 61.106 196.806,60.994 197.639,60.970 198.148 C 60.946 198.657,60.775 199.183,60.590 199.317 C 60.405 199.451,60.240 200.561,60.223 201.784 C 60.207 203.008,60.044 203.916,59.861 203.803 C 59.670 203.685,59.641 204.342,59.793 205.357 C 59.996 206.709,59.951 207.051,59.600 206.833 C 59.249 206.617,59.195 206.996,59.369 208.461 C 59.519 209.730,59.459 210.370,59.191 210.370 C 58.922 210.370,58.852 211.168,58.980 212.773 C 59.089 214.124,59.030 215.087,58.846 214.973 C 58.661 214.859,58.519 217.828,58.519 221.808 C 58.519 225.679,58.661 228.933,58.834 229.040 C 59.008 229.147,59.067 230.515,58.967 232.079 C 58.863 233.699,58.927 234.835,59.114 234.719 C 59.297 234.606,59.387 235.328,59.316 236.331 C 59.242 237.383,59.344 238.148,59.559 238.148 C 59.780 238.148,59.846 238.769,59.723 239.686 C 59.564 240.877,59.624 241.158,59.990 240.932 C 60.349 240.710,60.426 240.957,60.309 241.961 C 60.224 242.687,60.300 243.192,60.477 243.082 C 60.654 242.973,60.704 243.484,60.587 244.219 C 60.470 244.954,60.504 245.556,60.662 245.556 C 60.820 245.556,60.963 246.490,60.980 247.632 C 60.998 248.893,61.196 249.824,61.485 250.002 C 61.746 250.164,61.857 250.562,61.732 250.889 C 61.607 251.215,61.684 251.481,61.904 251.481 C 62.148 251.481,62.209 251.853,62.062 252.438 C 61.902 253.079,61.954 253.314,62.222 253.148 C 62.490 252.983,62.543 253.217,62.382 253.858 C 62.226 254.480,62.294 254.815,62.577 254.815 C 62.853 254.815,62.921 255.104,62.763 255.602 C 62.584 256.167,62.640 256.311,62.963 256.111 C 63.286 255.912,63.342 256.055,63.163 256.620 C 63.013 257.093,63.074 257.407,63.315 257.407 C 63.560 257.407,63.626 257.772,63.484 258.338 C 63.295 259.090,63.365 259.224,63.848 259.039 C 64.176 258.913,64.444 258.994,64.444 259.220 C 64.444 259.445,64.278 259.630,64.074 259.630 C 63.870 259.630,63.704 259.796,63.704 260.000 C 63.704 260.204,63.912 260.329,64.167 260.278 C 64.425 260.226,64.582 260.471,64.521 260.833 C 64.461 261.190,64.596 261.481,64.820 261.481 C 65.045 261.481,65.133 261.637,65.016 261.826 C 64.899 262.016,64.956 262.266,65.144 262.382 C 65.332 262.498,65.392 262.953,65.277 263.392 C 65.149 263.881,65.214 264.100,65.444 263.958 C 65.673 263.816,65.751 264.079,65.645 264.636 C 65.530 265.237,65.666 265.621,66.045 265.767 C 66.361 265.888,66.529 266.223,66.418 266.512 C 66.308 266.801,66.419 267.037,66.667 267.037 C 66.914 267.037,67.020 267.287,66.903 267.593 C 66.786 267.898,66.836 268.148,67.014 268.148 C 67.192 268.148,67.244 268.508,67.129 268.947 C 66.987 269.490,67.056 269.662,67.345 269.483 C 67.620 269.313,67.692 269.423,67.549 269.796 C 67.427 270.112,67.507 270.370,67.727 270.370 C 67.946 270.370,68.019 270.647,67.888 270.987 C 67.717 271.434,67.786 271.520,68.142 271.300 C 68.480 271.091,68.545 271.139,68.351 271.453 C 68.018 271.991,69.157 275.185,69.682 275.185 C 69.881 275.185,69.944 275.346,69.823 275.543 C 69.472 276.111,71.060 278.889,71.736 278.889 C 72.071 278.889,72.242 278.993,72.115 279.119 C 71.989 279.246,72.328 280.204,72.870 281.249 C 73.854 283.149,73.941 283.363,74.028 284.096 C 74.053 284.312,74.266 284.369,74.502 284.224 C 74.784 284.049,74.828 284.124,74.630 284.443 C 74.442 284.748,74.584 285.112,75.014 285.427 C 75.390 285.701,75.570 285.926,75.415 285.926 C 75.259 285.926,75.387 286.181,75.699 286.492 C 76.010 286.804,76.160 287.331,76.032 287.664 C 75.863 288.104,75.935 288.186,76.296 287.963 C 76.662 287.737,76.728 287.824,76.549 288.292 C 76.404 288.669,76.453 288.835,76.671 288.701 C 76.993 288.502,77.096 288.737,77.012 289.478 C 76.999 289.599,77.290 289.927,77.661 290.207 C 78.031 290.488,78.184 290.722,78.001 290.729 C 77.819 290.735,78.119 291.157,78.669 291.667 C 79.218 292.176,79.585 292.593,79.483 292.593 C 79.381 292.593,79.472 293.092,79.685 293.703 C 79.898 294.314,80.223 294.721,80.406 294.607 C 80.590 294.494,80.741 294.565,80.741 294.767 C 80.741 294.968,80.985 295.376,81.283 295.675 C 81.581 295.973,81.873 296.416,81.931 296.660 C 81.989 296.904,82.500 297.611,83.066 298.232 C 83.633 298.853,84.009 299.448,83.902 299.555 C 83.796 299.661,84.052 299.989,84.472 300.283 C 84.899 300.582,85.144 301.054,85.029 301.354 C 84.913 301.655,84.985 301.790,85.192 301.662 C 85.395 301.537,85.672 301.725,85.809 302.080 C 85.945 302.436,86.689 303.378,87.462 304.174 C 88.234 304.970,88.830 305.732,88.785 305.867 C 88.740 306.001,89.085 306.492,89.551 306.958 C 90.016 307.424,90.305 307.954,90.193 308.136 C 90.080 308.318,90.183 308.588,90.422 308.735 C 90.710 308.914,90.763 308.829,90.581 308.483 C 90.430 308.197,90.641 308.375,91.050 308.879 C 91.459 309.382,91.715 309.922,91.618 310.078 C 91.522 310.234,91.671 310.275,91.949 310.168 C 92.227 310.061,92.773 310.355,93.162 310.820 C 93.551 311.286,93.632 311.458,93.342 311.204 C 93.052 310.949,92.643 310.741,92.433 310.741 C 92.222 310.741,92.631 311.139,93.340 311.625 C 94.946 312.725,96.385 314.371,96.119 314.801 C 96.009 314.980,96.379 315.479,96.941 315.910 C 99.553 317.913,104.110 322.153,105.652 324.016 C 106.215 324.696,106.897 325.284,107.168 325.324 C 107.439 325.364,108.395 326.039,109.293 326.824 C 110.191 327.609,110.593 328.019,110.185 327.737 C 109.504 327.263,109.485 327.274,109.953 327.870 C 110.232 328.227,110.671 328.519,110.928 328.519 C 111.185 328.519,111.482 328.853,111.589 329.261 C 111.718 329.753,111.980 329.927,112.368 329.779 C 112.765 329.626,113.064 329.847,113.300 330.467 C 113.491 330.970,113.918 331.485,114.250 331.612 C 114.655 331.767,114.777 331.692,114.621 331.385 C 114.493 331.132,114.734 331.319,115.157 331.800 C 115.580 332.281,115.926 332.546,115.926 332.389 C 115.926 332.232,116.453 332.720,117.098 333.475 C 117.743 334.230,118.489 334.763,118.757 334.660 C 119.025 334.557,119.688 335.057,120.234 335.772 C 120.917 336.667,121.344 336.952,121.608 336.688 C 121.872 336.424,122.186 336.602,122.616 337.257 C 122.959 337.781,123.343 338.200,123.468 338.189 C 124.035 338.138,124.791 338.628,124.606 338.928 C 124.493 339.110,124.704 339.259,125.075 339.259 C 125.445 339.259,126.175 339.655,126.698 340.139 C 127.220 340.624,128.038 341.144,128.517 341.296 C 129.386 341.572,129.816 341.859,131.107 343.025 C 131.483 343.364,131.883 343.549,131.997 343.435 C 132.111 343.321,132.306 343.491,132.429 343.812 C 132.564 344.163,132.889 344.307,133.240 344.173 C 133.625 344.025,133.734 344.095,133.560 344.377 C 133.390 344.653,133.490 344.731,133.841 344.597 C 134.169 344.471,134.559 344.707,134.815 345.185 C 135.071 345.664,135.461 345.899,135.788 345.774 C 136.096 345.656,136.236 345.724,136.108 345.930 C 135.922 346.232,136.440 346.468,136.759 346.226 C 136.892 346.126,140.519 348.248,140.741 348.555 C 140.843 348.697,141.343 348.871,141.852 348.943 C 142.361 349.015,143.045 349.363,143.371 349.715 C 143.697 350.068,144.072 350.249,144.204 350.117 C 144.336 349.985,144.444 350.081,144.444 350.331 C 144.444 350.580,144.611 350.681,144.815 350.556 C 145.019 350.430,145.185 350.513,145.185 350.741 C 145.185 350.968,145.352 351.052,145.556 350.926 C 145.759 350.800,145.926 350.868,145.926 351.078 C 145.926 351.287,146.203 351.352,146.542 351.222 C 146.929 351.073,147.068 351.132,146.915 351.380 C 146.639 351.825,147.663 352.337,148.184 352.015 C 148.371 351.899,148.794 352.075,149.125 352.405 C 149.455 352.735,149.962 352.915,150.252 352.803 C 150.586 352.675,150.682 352.758,150.514 353.030 C 150.337 353.317,150.454 353.381,150.865 353.223 C 151.205 353.092,151.481 353.165,151.481 353.385 C 151.481 353.604,151.740 353.684,152.056 353.562 C 152.386 353.436,152.535 353.498,152.405 353.708 C 152.280 353.909,152.488 354.074,152.867 354.074 C 153.246 354.074,153.756 354.274,154.000 354.519 C 154.244 354.763,154.444 354.827,154.444 354.661 C 154.444 354.495,154.819 354.602,155.278 354.900 C 155.736 355.197,156.478 355.411,156.927 355.376 C 157.376 355.340,157.669 355.432,157.578 355.579 C 157.487 355.726,157.858 355.959,158.404 356.096 C 158.949 356.232,160.053 356.663,160.859 357.052 C 161.664 357.441,162.467 357.670,162.643 357.561 C 162.819 357.453,162.963 357.558,162.963 357.796 C 162.963 358.033,163.213 358.131,163.519 358.014 C 163.824 357.897,164.074 357.980,164.074 358.199 C 164.074 358.419,164.324 358.502,164.630 358.385 C 164.935 358.267,165.185 358.351,165.185 358.570 C 165.185 358.789,165.435 358.872,165.741 358.755 C 166.046 358.638,166.296 358.714,166.296 358.925 C 166.296 359.148,166.627 359.204,167.083 359.059 C 167.589 358.899,167.785 358.948,167.631 359.196 C 167.481 359.441,167.737 359.521,168.326 359.414 C 168.851 359.319,169.259 359.419,169.259 359.644 C 169.259 359.864,169.426 359.941,169.630 359.815 C 169.833 359.689,170.000 359.726,170.000 359.896 C 170.000 360.352,174.948 361.549,175.675 361.270 C 176.039 361.131,176.296 361.212,176.296 361.467 C 176.296 361.733,176.583 361.811,177.037 361.667 C 177.493 361.522,177.778 361.600,177.778 361.870 C 177.778 362.137,178.136 362.240,178.692 362.134 C 179.246 362.028,179.517 362.105,179.378 362.329 C 179.238 362.557,179.529 362.627,180.130 362.512 C 180.670 362.409,181.111 362.489,181.111 362.690 C 181.111 362.900,181.592 362.959,182.241 362.830 C 183.025 362.673,183.292 362.730,183.114 363.018 C 182.939 363.302,183.220 363.380,184.002 363.265 C 184.673 363.166,185.056 363.243,184.928 363.450 C 184.800 363.657,185.183 363.734,185.854 363.635 C 186.542 363.534,186.909 363.611,186.775 363.829 C 186.636 364.053,187.076 364.105,187.935 363.965 C 189.177 363.764,189.269 363.802,188.826 364.337 C 188.297 364.979,189.217 364.935,190.926 364.238 C 191.607 363.960,191.622 363.990,191.112 364.616 C 190.524 365.338,191.766 365.352,193.426 364.642 C 193.831 364.469,194.074 364.527,194.074 364.797 C 194.074 365.035,193.907 365.126,193.704 365.000 C 193.500 364.874,193.333 364.926,193.333 365.116 C 193.333 365.556,196.455 365.963,198.148 365.742 C 199.106 365.618,199.299 365.672,198.889 365.950 C 198.494 366.217,198.889 366.270,200.260 366.132 C 201.319 366.026,202.284 366.097,202.404 366.291 C 202.524 366.485,203.365 366.588,204.274 366.520 C 205.183 366.452,205.926 366.540,205.926 366.717 C 205.926 366.893,206.102 367.037,206.318 367.037 C 206.534 367.037,206.618 366.888,206.505 366.705 C 206.393 366.523,206.568 366.271,206.895 366.146 C 207.309 365.987,207.428 366.078,207.287 366.447 C 207.117 366.889,207.611 366.952,210.228 366.826 C 211.959 366.742,213.283 366.819,213.173 366.996 C 213.063 367.175,216.756 367.319,221.487 367.320 C 226.223 367.321,230.000 367.175,230.000 366.991 C 230.000 366.807,231.490 366.751,233.365 366.865 C 235.215 366.976,236.641 366.925,236.533 366.750 C 236.425 366.576,237.119 366.479,238.074 366.535 C 239.029 366.591,239.617 366.517,239.379 366.370 C 239.141 366.223,239.967 366.089,241.213 366.072 C 242.460 366.055,243.538 365.867,243.610 365.653 C 243.681 365.439,244.091 365.356,244.520 365.468 C 245.086 365.616,245.221 365.543,245.012 365.204 C 244.800 364.861,244.926 364.800,245.480 364.976 C 245.969 365.131,246.479 364.981,246.915 364.553 C 247.288 364.188,248.259 363.559,249.074 363.156 C 250.679 362.362,253.578 359.719,253.422 359.193 C 253.370 359.014,253.578 358.772,253.885 358.654 C 254.193 358.536,254.444 358.201,254.444 357.910 C 254.444 357.619,254.679 357.012,254.965 356.561 C 256.594 353.994,256.723 346.412,255.193 343.148 C 254.716 342.130,254.310 341.199,254.292 341.081 C 254.206 340.517,250.894 337.407,250.379 337.407 C 250.058 337.407,249.445 337.163,249.018 336.864 C 248.591 336.565,247.513 336.218,246.621 336.094 C 245.729 335.970,244.650 335.700,244.222 335.494 C 243.783 335.282,241.575 335.174,239.164 335.245 C 236.738 335.316,234.972 335.228,235.088 335.042 C 235.201 334.859,234.368 334.791,233.201 334.888 C 232.052 334.983,231.111 334.956,231.111 334.828 C 231.111 334.699,229.486 334.374,227.500 334.105 C 225.514 333.835,223.389 333.537,222.778 333.441 C 222.167 333.346,221.250 333.226,220.741 333.176 C 220.231 333.126,219.231 332.893,218.519 332.659 C 217.286 332.253,214.690 331.704,211.852 331.249 C 211.139 331.134,210.389 330.905,210.185 330.740 C 209.981 330.574,208.857 330.262,207.686 330.047 C 206.515 329.831,204.292 329.149,202.746 328.529 C 201.200 327.910,199.783 327.498,199.597 327.613 C 199.411 327.728,199.259 327.661,199.259 327.465 C 199.259 327.048,197.085 326.223,196.666 326.482 C 196.509 326.579,196.168 326.403,195.909 326.090 C 195.649 325.778,195.224 325.603,194.965 325.703 C 194.705 325.803,194.440 325.769,194.376 325.627 C 194.233 325.312,189.696 323.500,188.783 323.394 C 188.623 323.375,188.241 323.108,187.933 322.801 C 187.626 322.493,186.715 322.064,185.909 321.847 C 185.104 321.630,184.444 321.283,184.444 321.075 C 184.444 320.867,184.278 320.800,184.074 320.926 C 183.870 321.052,183.704 320.968,183.704 320.741 C 183.704 320.513,183.537 320.430,183.333 320.556 C 183.130 320.681,182.963 320.598,182.963 320.370 C 182.963 320.143,182.802 320.056,182.606 320.177 C 182.410 320.298,181.939 320.087,181.559 319.707 C 180.714 318.863,179.630 318.370,178.889 318.495 C 178.583 318.547,178.448 318.472,178.588 318.330 C 178.728 318.187,177.812 317.546,176.551 316.906 C 175.291 316.265,174.050 315.543,173.794 315.302 C 173.538 315.061,172.956 314.745,172.499 314.600 C 172.043 314.455,171.466 314.069,171.217 313.742 C 170.968 313.416,170.759 313.265,170.753 313.408 C 170.746 313.551,170.303 313.263,169.768 312.767 C 169.233 312.271,168.650 311.956,168.472 312.066 C 168.294 312.176,168.148 312.080,168.148 311.852 C 168.148 311.624,167.980 311.541,167.775 311.668 C 167.570 311.795,167.302 311.638,167.180 311.320 C 167.058 311.001,166.726 310.741,166.442 310.741 C 166.158 310.741,165.926 310.566,165.926 310.351 C 165.926 310.137,165.371 309.730,164.693 309.447 C 164.014 309.164,163.244 308.672,162.981 308.355 C 162.717 308.037,162.292 307.778,162.035 307.778 C 161.778 307.778,161.479 307.440,161.371 307.026 C 161.263 306.613,161.016 306.321,160.822 306.378 C 160.627 306.435,160.100 306.065,159.650 305.556 C 159.201 305.046,158.955 304.880,159.104 305.185 C 159.443 305.878,157.110 303.745,152.982 299.588 C 151.240 297.834,149.564 296.250,149.257 296.070 C 148.950 295.889,148.210 295.074,147.611 294.259 C 147.012 293.444,146.301 292.643,146.031 292.477 C 145.761 292.312,145.632 292.028,145.745 291.845 C 145.857 291.663,145.529 291.238,145.015 290.902 C 144.501 290.565,144.173 290.140,144.286 289.957 C 144.399 289.774,144.253 289.533,143.962 289.421 C 143.360 289.190,140.246 285.021,140.361 284.601 C 140.403 284.450,140.168 284.176,139.840 283.992 C 139.512 283.808,139.330 283.519,139.435 283.349 C 139.539 283.180,139.366 282.941,139.048 282.819 C 138.731 282.697,138.576 282.429,138.704 282.222 C 138.831 282.016,138.676 281.747,138.359 281.625 C 138.042 281.503,137.874 281.255,137.987 281.072 C 138.100 280.890,138.015 280.741,137.800 280.741 C 137.584 280.741,137.427 280.616,137.451 280.463 C 137.567 279.728,137.371 279.238,137.041 279.442 C 136.832 279.571,136.769 279.424,136.895 279.096 C 137.024 278.760,136.870 278.431,136.522 278.298 C 136.197 278.173,136.038 277.896,136.170 277.683 C 136.302 277.470,136.128 277.089,135.784 276.838 C 135.440 276.586,135.095 276.070,135.017 275.690 C 134.939 275.311,134.448 274.042,133.924 272.870 C 133.401 271.699,133.074 270.741,133.198 270.741 C 133.322 270.741,133.238 270.517,133.012 270.244 C 132.785 269.970,132.709 269.637,132.843 269.503 C 132.977 269.369,132.910 269.259,132.695 269.259 C 132.479 269.259,132.202 268.676,132.078 267.963 C 131.953 267.250,131.750 266.083,131.626 265.370 C 131.502 264.657,131.242 264.074,131.049 264.074 C 130.855 264.074,130.786 263.930,130.895 263.753 C 131.005 263.576,130.848 262.035,130.547 260.327 C 130.247 258.619,130.001 256.587,130.001 255.811 C 130.000 255.036,129.875 254.478,129.722 254.572 C 129.569 254.666,129.444 252.192,129.444 249.073 C 129.444 245.955,129.546 243.466,129.670 243.543 C 129.882 243.674,130.442 239.569,130.520 237.315 C 130.540 236.755,130.684 236.296,130.841 236.296 C 130.997 236.296,131.049 235.876,130.956 235.363 C 130.863 234.849,130.922 234.513,131.088 234.615 C 131.253 234.718,131.389 234.392,131.389 233.891 C 131.389 233.390,131.668 232.391,132.010 231.671 C 132.352 230.951,132.529 230.197,132.405 229.996 C 132.280 229.794,132.320 229.630,132.492 229.630 C 132.664 229.630,132.830 229.300,132.861 228.897 C 132.891 228.494,133.359 227.286,133.901 226.212 C 134.443 225.138,134.943 223.972,135.012 223.620 C 135.082 223.269,135.483 222.613,135.903 222.162 C 136.620 221.392,136.815 220.938,136.711 220.278 C 136.686 220.125,136.843 220.000,137.059 220.000 C 137.275 220.000,137.356 219.847,137.241 219.659 C 137.125 219.472,137.323 219.026,137.682 218.667 C 138.040 218.309,138.354 217.879,138.380 217.712 C 138.405 217.544,138.447 217.231,138.472 217.015 C 138.498 216.799,138.685 216.726,138.889 216.852 C 139.093 216.978,139.259 216.873,139.259 216.620 C 139.259 215.820,142.748 210.787,143.426 210.610 C 143.783 210.516,144.074 210.091,144.074 209.664 C 144.074 209.238,144.209 208.889,144.374 208.889 C 144.538 208.889,144.997 208.627,145.392 208.306 C 145.788 207.985,145.861 207.845,145.556 207.994 C 145.250 208.143,145.388 207.864,145.863 207.373 C 146.338 206.883,147.504 205.597,148.456 204.517 C 149.407 203.436,150.519 202.498,150.926 202.431 C 151.333 202.364,151.621 202.110,151.565 201.868 C 151.509 201.625,151.623 201.525,151.818 201.646 C 152.013 201.766,152.470 201.362,152.833 200.747 C 153.196 200.133,153.642 199.630,153.825 199.630 C 154.007 199.630,154.948 198.967,155.915 198.158 C 156.882 197.348,157.776 196.788,157.902 196.914 C 158.028 197.040,158.236 196.869,158.364 196.534 C 158.493 196.200,158.806 195.926,159.060 195.926 C 159.314 195.926,159.962 195.517,160.501 195.018 C 161.040 194.518,161.487 194.226,161.493 194.370 C 161.500 194.513,161.750 194.306,162.049 193.911 C 162.348 193.515,162.593 193.330,162.593 193.498 C 162.593 193.667,163.029 193.368,163.563 192.834 C 164.097 192.300,164.680 191.954,164.860 192.065 C 165.039 192.175,165.185 192.122,165.185 191.945 C 165.185 191.768,165.852 191.330,166.667 190.970 C 167.481 190.611,168.148 190.152,168.148 189.951 C 168.148 189.750,168.301 189.681,168.489 189.796 C 168.676 189.912,169.055 189.797,169.331 189.540 C 169.607 189.284,170.077 189.019,170.376 188.952 C 170.674 188.885,171.043 188.635,171.195 188.396 C 171.346 188.158,171.478 188.130,171.487 188.333 C 171.496 188.537,171.674 188.412,171.882 188.056 C 172.089 187.699,172.584 187.407,172.981 187.407 C 173.379 187.407,173.704 187.223,173.704 186.997 C 173.704 186.772,173.962 186.687,174.278 186.808 C 174.644 186.948,174.760 186.878,174.597 186.614 C 174.443 186.364,174.545 186.270,174.856 186.377 C 175.139 186.475,176.217 186.080,177.252 185.500 C 178.287 184.919,179.412 184.444,179.752 184.444 C 180.092 184.444,180.370 184.291,180.370 184.104 C 180.370 183.916,180.912 183.647,181.574 183.505 C 182.236 183.364,182.944 183.120,183.148 182.963 C 183.352 182.806,184.062 182.562,184.725 182.420 C 185.448 182.266,185.834 182.002,185.687 181.764 C 185.541 181.529,185.615 181.475,185.869 181.631 C 186.104 181.777,186.505 181.765,186.759 181.606 C 187.226 181.314,187.410 181.270,188.633 181.168 C 189.001 181.136,189.210 180.960,189.095 180.775 C 188.981 180.591,189.197 180.520,189.574 180.619 C 189.951 180.718,190.495 180.564,190.781 180.277 C 191.068 179.990,191.510 179.824,191.763 179.909 C 192.015 179.993,192.222 179.897,192.222 179.695 C 192.222 179.494,192.582 179.423,193.021 179.537 C 193.602 179.690,193.741 179.619,193.530 179.278 C 193.314 178.929,193.453 178.877,194.074 179.074 C 194.617 179.246,194.824 179.204,194.668 178.951 C 194.535 178.735,194.719 178.571,195.085 178.580 C 195.731 178.597,198.158 177.768,198.519 177.407 C 198.620 177.306,199.037 177.203,199.444 177.178 C 199.852 177.154,200.602 177.033,201.111 176.909 C 201.620 176.785,203.620 176.341,205.556 175.923 C 207.491 175.505,209.278 175.117,209.526 175.062 C 209.775 175.006,210.083 174.855,210.211 174.728 C 210.338 174.600,210.676 174.585,210.962 174.695 C 211.248 174.804,211.773 174.769,212.130 174.616 C 212.486 174.463,213.232 174.374,213.788 174.418 C 214.343 174.462,214.981 174.385,215.205 174.247 C 215.428 174.109,216.724 173.922,218.084 173.832 C 219.443 173.741,220.597 173.551,220.648 173.408 C 220.699 173.265,221.615 173.198,222.685 173.259 C 224.000 173.335,224.462 173.257,224.112 173.019 C 223.777 172.790,225.012 172.720,227.631 172.819 C 230.160 172.915,231.390 172.849,230.926 172.643 C 230.519 172.463,230.072 172.380,229.933 172.460 C 229.794 172.539,229.567 172.421,229.428 172.196 C 229.250 171.908,229.759 171.856,231.162 172.020 C 232.254 172.147,234.538 172.286,236.237 172.329 L 239.326 172.407 239.213 193.963 C 239.150 205.819,239.207 215.627,239.339 215.759 C 239.471 215.890,239.489 216.232,239.379 216.518 C 239.270 216.803,239.365 217.037,239.590 217.037 C 239.816 217.037,239.980 217.162,239.956 217.315 C 239.932 217.468,239.932 217.792,239.956 218.035 C 240.011 218.587,243.624 222.178,243.874 221.928 C 243.974 221.828,244.161 222.019,244.289 222.352 C 244.417 222.686,244.671 222.866,244.854 222.754 C 245.036 222.641,245.185 222.709,245.185 222.905 C 245.185 223.527,247.436 224.074,249.963 224.066 C 252.475 224.058,255.556 223.040,255.556 222.218 C 255.556 221.993,255.714 221.906,255.907 222.026 C 256.101 222.145,256.440 221.905,256.661 221.492 C 256.882 221.079,257.290 220.741,257.568 220.741 C 257.846 220.741,258.958 219.752,260.039 218.544 C 261.119 217.335,262.117 216.417,262.257 216.503 C 262.396 216.589,263.123 215.911,263.872 214.996 C 264.622 214.082,265.430 213.333,265.669 213.333 C 265.908 213.333,266.855 212.601,267.774 211.707 C 272.470 207.135,274.162 205.556,274.365 205.556 C 274.487 205.556,275.584 204.514,276.803 203.241 C 278.022 201.968,278.880 201.160,278.711 201.446 C 278.504 201.798,278.543 201.881,278.832 201.702 C 279.067 201.557,279.259 201.192,279.259 200.892 C 279.259 200.593,279.551 200.249,279.907 200.128 C 280.264 200.008,281.389 199.100,282.407 198.110 C 283.426 197.121,285.134 195.638,286.204 194.814 C 287.273 193.990,288.148 193.070,288.148 192.769 C 288.148 192.468,288.332 192.222,288.556 192.222 C 289.051 192.222,292.185 189.564,295.543 186.296 C 299.684 182.267,301.784 180.370,302.103 180.370 C 302.270 180.370,303.376 179.287,304.560 177.963 C 305.744 176.639,306.933 175.556,307.201 175.556 C 307.470 175.556,308.133 174.974,308.675 174.264 C 309.216 173.554,309.804 173.012,309.981 173.061 C 310.157 173.109,311.228 172.231,312.360 171.111 C 315.490 168.012,317.562 166.137,317.870 166.123 C 318.023 166.117,318.856 165.394,319.722 164.517 C 322.439 161.765,325.520 158.977,325.673 159.130 C 325.754 159.211,326.607 158.357,327.569 157.231 C 328.530 156.106,329.540 155.185,329.814 155.185 C 330.088 155.185,331.190 154.195,332.264 152.985 C 333.337 151.775,334.330 150.855,334.469 150.941 C 334.608 151.027,335.359 150.351,336.137 149.438 C 336.915 148.525,337.738 147.778,337.965 147.778 C 338.192 147.778,339.160 146.927,340.115 145.886 C 341.070 144.846,341.853 144.138,341.855 144.312 C 341.857 144.487,342.678 143.755,343.680 142.685 C 344.682 141.616,345.655 140.741,345.842 140.741 C 346.029 140.741,346.856 140.000,347.680 139.095 C 348.504 138.190,349.253 137.524,349.345 137.616 C 349.436 137.708,350.601 136.615,351.932 135.188 C 353.264 133.760,354.259 132.593,354.143 132.593 C 354.027 132.593,354.193 132.384,354.512 132.130 C 355.540 131.308,356.421 125.804,355.648 125.031 C 355.495 124.878,355.356 124.642,355.339 124.506 C 355.214 123.507,354.197 122.026,352.347 120.147 C 348.608 116.352,342.454 110.608,340.684 109.263 C 339.749 108.552,338.631 107.432,338.199 106.774 C 337.691 105.998,337.217 105.652,336.855 105.791 C 336.530 105.916,336.288 105.795,336.275 105.503 C 336.264 105.226,335.238 104.167,333.996 103.148 C 332.753 102.130,331.098 100.630,330.317 99.815 C 329.537 99.000,328.896 98.461,328.894 98.616 C 328.891 98.772,327.773 97.730,326.409 96.301 C 325.045 94.873,323.783 93.704,323.605 93.704 C 323.427 93.704,322.523 92.870,321.596 91.852 C 320.669 90.833,319.738 90.000,319.528 90.000 C 319.317 90.000,318.574 89.333,317.877 88.519 C 317.180 87.704,316.467 87.037,316.294 87.037 C 316.120 87.037,315.023 86.036,313.856 84.812 C 312.689 83.588,311.666 82.655,311.584 82.737 C 311.501 82.820,310.162 81.576,308.608 79.972 C 307.055 78.368,305.719 77.120,305.641 77.198 C 305.563 77.276,304.808 76.605,303.963 75.707 C 303.117 74.809,302.219 74.074,301.967 74.074 C 301.714 74.074,301.330 73.742,301.113 73.337 C 300.896 72.932,300.225 72.345,299.621 72.033 C 299.018 71.721,298.564 71.268,298.614 71.027 C 298.663 70.786,298.537 70.579,298.333 70.567 C 298.130 70.555,296.888 69.423,295.574 68.051 C 294.260 66.678,292.997 65.556,292.767 65.556 C 292.537 65.556,291.554 64.644,290.583 63.531 C 289.611 62.417,288.680 61.542,288.513 61.586 C 288.176 61.676,286.300 59.947,282.676 56.204 C 281.345 54.829,280.084 53.704,279.875 53.704 C 279.666 53.704,278.275 52.427,276.784 50.868 C 275.294 49.308,274.074 48.124,274.074 48.238 C 274.074 48.351,273.524 47.919,272.851 47.278 C 272.179 46.636,270.858 45.528,269.916 44.815 C 268.974 44.102,268.026 43.139,267.809 42.675 C 267.592 42.211,267.138 41.725,266.800 41.596 C 266.463 41.466,265.336 40.536,264.297 39.528 C 263.258 38.520,261.757 37.214,260.963 36.626 C 260.168 36.037,259.647 35.556,259.805 35.556 C 260.805 35.556,256.272 32.263,254.415 31.642 C 252.524 31.009,248.898 30.652,247.593 30.970 M256.207 49.537 C 257.759 50.912,260.458 53.370,262.207 55.000 C 268.219 60.605,273.527 65.471,277.812 69.306 C 280.174 71.419,288.261 78.815,295.783 85.741 C 303.305 92.667,310.956 99.659,312.785 101.279 C 314.614 102.899,317.199 105.232,318.528 106.464 C 319.857 107.696,323.264 110.787,326.099 113.333 C 328.935 115.880,332.604 119.213,334.254 120.741 C 335.904 122.269,338.149 124.333,339.243 125.328 L 341.232 127.138 338.857 129.409 C 337.550 130.657,333.578 134.260,330.028 137.414 C 320.869 145.554,315.713 150.175,313.130 152.561 C 311.898 153.699,308.658 156.630,305.930 159.074 C 303.202 161.519,299.697 164.685,298.141 166.111 C 296.585 167.537,293.256 170.537,290.743 172.778 C 288.230 175.019,284.988 177.935,283.539 179.259 C 282.091 180.583,278.415 183.917,275.371 186.667 C 272.327 189.417,267.324 194.000,264.253 196.852 C 256.976 203.609,253.125 207.037,252.812 207.037 C 252.673 207.037,252.676 197.328,252.819 185.462 C 253.165 156.718,254.228 158.885,239.790 158.894 C 212.573 158.910,191.344 163.668,168.922 174.778 C 163.007 177.709,150.637 185.382,149.456 186.852 C 149.246 187.113,147.657 188.451,145.926 189.824 C 117.497 212.369,108.415 250.146,123.799 281.852 C 141.463 318.255,188.304 345.343,238.232 348.028 C 243.123 348.291,243.556 348.511,243.174 350.551 C 242.724 352.948,239.339 353.596,225.370 353.961 C 211.003 354.336,199.159 353.349,188.889 350.921 C 185.935 350.223,181.368 349.144,178.739 348.522 C 170.718 346.628,161.986 343.567,151.481 338.970 C 144.163 335.768,129.209 327.009,124.815 323.352 C 123.898 322.589,121.981 321.095,120.556 320.033 C 115.406 316.196,106.384 307.469,101.758 301.852 C 100.500 300.324,98.964 298.529,98.346 297.863 C 97.728 297.197,95.258 293.697,92.856 290.085 C 57.660 237.150,67.506 172.109,116.852 131.569 C 118.685 130.063,120.769 128.346,121.481 127.753 C 124.172 125.516,135.294 118.070,139.506 115.686 C 146.543 111.703,148.093 110.899,152.593 108.899 C 154.935 107.858,157.685 106.603,158.704 106.109 C 176.278 97.594,203.841 92.403,234.107 91.907 L 248.769 91.667 250.218 90.660 C 252.930 88.774,252.766 90.196,252.882 67.500 C 252.940 56.245,253.077 47.037,253.186 47.037 C 253.296 47.037,254.655 48.162,256.207 49.537 " stroke="none" fill="#040404" fill-rule="evenodd"></path><path id="path4" d="M135.648 117.987 C 134.782 118.506,134.074 119.018,134.074 119.125 C 134.074 119.325,136.573 117.906,137.204 117.348 C 137.840 116.785,137.247 117.029,135.648 117.987 M165.463 175.951 C 164.699 176.354,164.074 176.767,164.074 176.868 C 164.074 176.969,164.741 176.712,165.556 176.296 C 166.370 175.881,167.037 175.461,167.037 175.363 C 167.037 175.121,167.034 175.122,165.463 175.951 M140.162 194.537 L 139.074 195.741 140.278 194.653 C 141.400 193.639,141.652 193.333,141.366 193.333 C 141.302 193.333,140.760 193.875,140.162 194.537 M235.648 353.218 C 236.005 353.311,236.588 353.311,236.944 353.218 C 237.301 353.125,237.009 353.049,236.296 353.049 C 235.583 353.049,235.292 353.125,235.648 353.218 M208.611 353.599 C 209.171 353.683,210.088 353.683,210.648 353.599 C 211.208 353.514,210.750 353.444,209.630 353.444 C 208.509 353.444,208.051 353.514,208.611 353.599 M231.209 353.599 C 231.772 353.684,232.605 353.682,233.061 353.594 C 233.516 353.506,233.056 353.436,232.037 353.439 C 231.019 353.442,230.646 353.514,231.209 353.599 M218.796 353.979 C 220.273 354.049,222.690 354.049,224.167 353.979 C 225.644 353.908,224.435 353.851,221.481 353.851 C 218.528 353.851,217.319 353.908,218.796 353.979 " stroke="none" fill="#824e23" fill-rule="evenodd"></path><path id="path5" d="M71.938 218.519 C 71.938 219.231,72.014 219.523,72.107 219.167 C 72.200 218.810,72.200 218.227,72.107 217.870 C 72.014 217.514,71.938 217.806,71.938 218.519 M71.945 226.111 C 71.949 226.926,72.025 227.216,72.114 226.755 C 72.202 226.294,72.199 225.628,72.106 225.273 C 72.014 224.919,71.941 225.296,71.945 226.111 M72.686 236.111 C 72.690 236.926,72.766 237.216,72.855 236.755 C 72.943 236.294,72.940 235.628,72.847 235.273 C 72.754 234.919,72.682 235.296,72.686 236.111 M73.049 238.889 C 73.049 239.602,73.125 239.894,73.218 239.537 C 73.311 239.181,73.311 238.597,73.218 238.241 C 73.125 237.884,73.049 238.176,73.049 238.889 M118.571 269.259 C 118.571 269.565,118.714 270.148,118.889 270.556 C 119.090 271.022,119.207 271.091,119.207 270.741 C 119.207 270.435,119.064 269.852,118.889 269.444 C 118.688 268.978,118.571 268.909,118.571 269.259 M126.111 287.407 C 126.427 288.019,126.769 288.519,126.871 288.519 C 126.973 288.519,126.797 288.019,126.481 287.407 C 126.165 286.796,125.824 286.296,125.722 286.296 C 125.620 286.296,125.795 286.796,126.111 287.407 M102.963 303.079 C 102.963 303.143,103.505 303.684,104.167 304.283 L 105.370 305.370 104.283 304.167 C 103.269 303.045,102.963 302.793,102.963 303.079 M139.259 305.000 C 140.366 306.120,141.354 307.037,141.456 307.037 C 141.558 307.037,140.736 306.120,139.630 305.000 C 138.523 303.880,137.535 302.963,137.433 302.963 C 137.331 302.963,138.153 303.880,139.259 305.000 M109.259 309.815 C 110.366 310.935,111.354 311.852,111.456 311.852 C 111.558 311.852,110.736 310.935,109.630 309.815 C 108.523 308.694,107.535 307.778,107.433 307.778 C 107.331 307.778,108.153 308.694,109.259 309.815 M144.630 310.370 C 146.045 311.796,147.286 312.963,147.388 312.963 C 147.489 312.963,146.415 311.796,145.000 310.370 C 143.585 308.944,142.344 307.778,142.242 307.778 C 142.140 307.778,143.215 308.944,144.630 310.370 M139.259 332.388 C 139.259 332.490,139.759 332.832,140.370 333.148 C 140.981 333.464,141.481 333.639,141.481 333.538 C 141.481 333.436,140.981 333.094,140.370 332.778 C 139.759 332.462,139.259 332.287,139.259 332.388 M176.111 347.778 C 176.519 347.953,177.102 348.096,177.407 348.096 C 177.758 348.096,177.689 347.978,177.222 347.778 C 176.815 347.603,176.231 347.459,175.926 347.459 C 175.576 347.459,175.644 347.577,176.111 347.778 M212.315 353.599 C 212.875 353.683,213.792 353.683,214.352 353.599 C 214.912 353.514,214.454 353.444,213.333 353.444 C 212.213 353.444,211.755 353.514,212.315 353.599 M228.430 353.595 C 228.891 353.684,229.558 353.681,229.912 353.588 C 230.266 353.495,229.889 353.423,229.074 353.427 C 228.259 353.431,227.970 353.507,228.430 353.595 " stroke="none" fill="#a48b13" fill-rule="evenodd"></path><path id="path6" d="M253.052 66.944 L 253.142 86.852 253.241 67.068 L 253.340 47.284 254.355 48.179 L 255.370 49.074 254.472 48.056 C 253.979 47.495,253.437 47.037,253.269 47.037 C 253.101 47.037,253.003 55.995,253.052 66.944 M260.926 54.074 C 261.929 55.093,262.833 55.926,262.935 55.926 C 263.037 55.926,262.299 55.093,261.296 54.074 C 260.293 53.056,259.389 52.222,259.287 52.222 C 259.185 52.222,259.923 53.056,260.926 54.074 M266.852 59.578 C 267.870 60.657,269.204 61.886,269.815 62.309 C 271.099 63.198,270.722 62.805,267.407 59.798 L 265.000 57.615 266.852 59.578 M271.481 63.820 C 271.481 63.883,272.023 64.425,272.685 65.023 L 273.889 66.111 272.801 64.907 C 271.787 63.785,271.481 63.533,271.481 63.820 M275.754 67.639 C 279.078 70.856,286.144 77.218,285.000 75.964 C 284.389 75.295,281.639 72.742,278.889 70.291 C 276.139 67.840,274.728 66.647,275.754 67.639 M286.802 77.697 C 287.153 78.265,304.815 94.549,304.815 94.305 C 304.815 94.205,300.700 90.327,295.671 85.688 C 290.642 81.048,286.651 77.452,286.802 77.697 M251.111 89.915 C 250.173 90.893,250.063 91.109,250.714 90.698 C 251.478 90.216,252.957 88.474,252.545 88.541 C 252.469 88.554,251.824 89.172,251.111 89.915 M224.344 92.119 C 225.001 92.201,226.168 92.202,226.936 92.122 C 227.705 92.042,227.167 91.975,225.741 91.973 C 224.315 91.972,223.686 92.037,224.344 92.119 M306.111 95.520 C 307.341 96.866,312.222 101.274,312.222 101.038 C 312.222 100.956,310.597 99.407,308.611 97.596 C 306.625 95.785,305.500 94.851,306.111 95.520 M312.921 101.581 C 313.579 102.419,319.259 107.546,319.259 107.302 C 319.259 107.200,317.718 105.724,315.833 104.022 C 313.949 102.319,312.639 101.221,312.921 101.581 M320.849 108.752 C 320.987 108.983,322.468 110.399,324.140 111.900 C 325.812 113.401,327.067 114.441,326.929 114.211 C 326.791 113.980,325.310 112.564,323.638 111.063 C 321.966 109.562,320.711 108.522,320.849 108.752 M328.889 116.033 C 328.889 116.134,330.431 117.604,332.315 119.300 C 334.199 120.996,335.324 121.914,334.815 121.340 C 333.700 120.082,328.889 115.774,328.889 116.033 M338.503 124.909 C 339.411 125.876,340.298 126.667,340.474 126.667 C 340.805 126.667,340.742 126.602,338.311 124.446 C 336.917 123.210,336.926 123.230,338.503 124.909 M337.037 130.798 C 333.239 134.445,333.226 134.463,336.481 131.567 C 339.642 128.756,341.407 127.021,341.076 127.051 C 340.993 127.058,339.176 128.744,337.037 130.798 M328.889 137.996 C 324.233 142.208,322.085 144.397,325.741 141.204 C 329.329 138.071,333.186 134.480,332.963 134.479 C 332.861 134.478,331.028 136.061,328.889 137.996 M319.259 146.716 L 315.741 150.080 319.173 147.031 C 322.249 144.299,323.242 143.314,322.892 143.343 C 322.829 143.348,321.194 144.866,319.259 146.716 M311.481 153.760 C 308.640 156.461,308.586 156.536,310.926 154.529 C 313.371 152.432,315.114 150.725,314.780 150.754 C 314.697 150.761,313.213 152.114,311.481 153.760 M303.889 160.616 C 301.166 163.212,301.031 163.386,303.148 161.564 C 304.574 160.338,306.145 158.901,306.639 158.371 C 308.395 156.486,307.173 157.484,303.889 160.616 M239.444 158.874 C 248.681 159.066,249.135 159.109,250.556 159.939 C 251.370 160.415,251.704 160.522,251.296 160.178 C 249.473 158.634,248.546 158.515,238.993 158.596 L 229.815 158.674 239.444 158.874 M225.825 159.156 C 226.483 159.238,227.649 159.239,228.418 159.159 C 229.186 159.079,228.648 159.012,227.222 159.010 C 225.796 159.009,225.168 159.074,225.825 159.156 M221.579 159.525 C 222.142 159.610,222.975 159.608,223.431 159.520 C 223.887 159.432,223.426 159.362,222.407 159.365 C 221.389 159.368,221.016 159.440,221.579 159.525 M217.685 159.891 C 218.144 159.979,218.894 159.979,219.352 159.891 C 219.810 159.803,219.435 159.731,218.519 159.731 C 217.602 159.731,217.227 159.803,217.685 159.891 M214.907 160.255 C 215.264 160.348,215.847 160.348,216.204 160.255 C 216.560 160.162,216.269 160.086,215.556 160.086 C 214.843 160.086,214.551 160.162,214.907 160.255 M252.152 161.667 C 252.339 162.074,252.585 162.657,252.698 162.963 C 252.876 163.443,252.908 163.440,252.934 162.941 C 252.950 162.624,252.704 162.040,252.387 161.645 C 251.820 160.937,251.816 160.938,252.152 161.667 M253.119 170.926 C 253.118 175.000,253.172 176.717,253.239 174.742 C 253.305 172.767,253.306 169.433,253.239 167.335 C 253.173 165.236,253.119 166.852,253.119 170.926 M296.111 167.652 C 293.852 169.793,293.676 170.019,295.370 168.601 C 297.488 166.829,299.567 164.798,299.231 164.830 C 299.145 164.838,297.741 166.108,296.111 167.652 M288.704 174.300 C 286.392 176.492,286.229 176.703,287.963 175.259 C 289.185 174.241,290.589 172.975,291.083 172.445 C 292.781 170.624,291.662 171.496,288.704 174.300 M280.741 181.519 L 277.593 184.514 280.833 181.656 C 283.706 179.123,284.320 178.511,283.981 178.521 C 283.931 178.523,282.472 179.872,280.741 181.519 M272.778 188.744 L 269.444 191.920 272.870 188.871 C 275.910 186.166,276.542 185.539,276.204 185.562 C 276.153 185.565,274.611 186.998,272.778 188.744 M252.678 198.642 C 252.627 203.680,252.731 207.049,252.934 206.975 C 253.423 206.798,261.380 199.589,265.741 195.372 C 267.778 193.402,266.931 194.096,263.859 196.914 C 260.787 199.732,257.082 203.093,255.625 204.384 L 252.977 206.730 252.870 198.458 L 252.763 190.185 252.678 198.642 " stroke="none" fill="#320a58" fill-rule="evenodd"></path><path id="path7" d="M95.723 133.056 L 94.259 134.630 95.833 133.166 C 97.297 131.804,97.578 131.481,97.297 131.481 C 97.237 131.481,96.529 132.190,95.723 133.056 M114.054 133.981 L 112.778 135.370 114.167 134.094 C 114.931 133.392,115.556 132.767,115.556 132.705 C 115.556 132.422,115.242 132.689,114.054 133.981 M84.074 171.852 C 83.658 172.667,83.402 173.333,83.503 173.333 C 83.605 173.333,84.029 172.667,84.444 171.852 C 84.860 171.037,85.117 170.370,85.015 170.370 C 84.913 170.370,84.490 171.037,84.074 171.852 M229.397 172.113 C 229.837 172.553,231.572 172.668,231.307 172.239 C 231.175 172.026,230.633 171.852,230.102 171.852 C 229.570 171.852,229.253 171.969,229.397 172.113 M68.316 173.738 C 67.990 174.368,67.789 174.949,67.869 175.030 C 67.950 175.110,68.293 174.595,68.631 173.884 C 69.393 172.287,69.129 172.165,68.316 173.738 M171.019 173.359 C 170.255 173.762,169.630 174.175,169.630 174.276 C 169.630 174.441,172.555 173.073,172.932 172.732 C 173.358 172.347,172.246 172.711,171.019 173.359 M149.051 203.796 L 147.963 205.000 149.257 203.889 C 149.969 203.278,150.622 202.736,150.708 202.685 C 150.794 202.634,150.701 202.593,150.501 202.593 C 150.302 202.593,149.649 203.134,149.051 203.796 M58.600 229.862 C 58.556 230.392,58.679 230.685,58.891 230.554 C 59.331 230.283,59.379 229.377,58.967 229.123 C 58.807 229.023,58.641 229.356,58.600 229.862 M59.910 240.954 C 59.793 241.071,59.838 241.657,60.010 242.257 C 60.182 242.856,60.319 243.441,60.316 243.556 C 60.312 243.671,60.413 243.870,60.542 243.998 C 60.740 244.196,60.401 241.098,60.195 240.833 C 60.156 240.782,60.028 240.837,59.910 240.954 M116.063 249.259 C 116.063 251.398,116.124 252.273,116.199 251.204 C 116.274 250.134,116.274 248.384,116.199 247.315 C 116.124 246.245,116.063 247.120,116.063 249.259 M122.778 280.370 C 123.294 281.389,123.800 282.222,123.901 282.222 C 124.003 282.222,123.664 281.389,123.148 280.370 C 122.632 279.352,122.126 278.519,122.025 278.519 C 121.923 278.519,122.262 279.352,122.778 280.370 M87.399 304.433 C 87.830 305.038,88.372 305.650,88.603 305.793 C 88.834 305.936,88.557 305.441,87.986 304.693 C 86.748 303.070,86.282 302.863,87.399 304.433 M139.259 304.630 C 139.950 305.343,140.599 305.926,140.701 305.926 C 140.803 305.926,140.321 305.343,139.630 304.630 C 138.939 303.917,138.290 303.333,138.188 303.333 C 138.086 303.333,138.568 303.917,139.259 304.630 M109.614 310.463 C 111.149 312.098,111.481 312.392,111.481 312.114 C 111.481 312.055,110.690 311.263,109.722 310.355 L 107.963 308.704 109.614 310.463 M145.741 311.111 C 146.744 312.130,147.648 312.963,147.750 312.963 C 147.852 312.963,147.114 312.130,146.111 311.111 C 145.108 310.093,144.204 309.259,144.102 309.259 C 144.000 309.259,144.738 310.093,145.741 311.111 M91.852 310.143 C 91.852 310.221,92.310 310.580,92.870 310.941 L 93.889 311.596 93.183 310.798 C 92.559 310.092,91.852 309.744,91.852 310.143 M107.407 325.474 C 107.407 325.654,108.157 326.339,109.074 326.997 C 109.991 327.656,110.741 328.136,110.741 328.064 C 110.741 327.993,109.991 327.308,109.074 326.541 C 108.157 325.775,107.407 325.295,107.407 325.474 M239.986 348.424 C 241.302 348.498,242.635 348.757,242.949 349.001 C 243.448 349.390,243.456 349.364,243.010 348.796 C 242.605 348.280,242.002 348.163,240.047 348.220 L 237.593 348.291 239.986 348.424 M213.056 353.959 C 213.412 354.052,213.995 354.052,214.352 353.959 C 214.708 353.866,214.417 353.790,213.704 353.790 C 212.991 353.790,212.699 353.866,213.056 353.959 M206.667 366.296 C 206.361 366.494,206.194 366.671,206.296 366.689 C 206.398 366.708,206.762 366.777,207.104 366.844 C 207.512 366.922,207.658 366.785,207.527 366.445 C 207.293 365.834,207.363 365.846,206.667 366.296 M210.741 366.810 C 210.741 367.114,213.006 367.267,213.186 366.975 C 213.291 366.806,212.784 366.667,212.059 366.667 C 211.334 366.667,210.741 366.731,210.741 366.810 M230.000 366.973 C 230.000 367.141,230.500 367.206,231.111 367.116 C 231.722 367.026,232.222 366.889,232.222 366.810 C 232.222 366.731,231.722 366.667,231.111 366.667 C 230.500 366.667,230.000 366.804,230.000 366.973 " stroke="none" fill="#422610" fill-rule="evenodd"></path><path id="path8" d="M108.519 139.074 C 107.619 139.991,106.966 140.741,107.068 140.741 C 107.170 140.741,107.989 139.991,108.889 139.074 C 109.789 138.157,110.441 137.407,110.339 137.407 C 110.238 137.407,109.418 138.157,108.519 139.074 M137.940 196.759 L 136.852 197.963 138.056 196.875 C 139.178 195.861,139.430 195.556,139.143 195.556 C 139.080 195.556,138.538 196.097,137.940 196.759 M198.981 352.848 C 199.338 352.941,199.921 352.941,200.278 352.848 C 200.634 352.755,200.343 352.679,199.630 352.679 C 198.917 352.679,198.625 352.755,198.981 352.848 " stroke="none" fill="#564811" fill-rule="evenodd"></path></g></svg>