<svg id="svg" version="1.1" xmlns="http://www.w3.org/2000/svg" xmlns:xlink="http://www.w3.org/1999/xlink" width="400" height="400" viewBox="0, 0, 400,400"><g id="svgg"><path id="path0" d="M140.499 52.863 C 137.208 55.872,131.043 61.500,126.798 65.370 C 122.553 69.241,116.745 74.578,113.892 77.232 C 104.821 85.667,90.723 98.552,85.554 103.131 C 82.805 105.567,79.466 108.567,78.135 109.798 C 76.804 111.030,73.226 114.287,70.184 117.037 C 61.911 124.515,59.258 127.105,59.488 127.478 C 59.603 127.663,65.056 132.621,71.607 138.497 C 78.158 144.372,86.685 152.046,90.556 155.551 C 101.048 165.051,106.766 170.217,110.446 173.519 C 121.622 183.547,129.897 191.058,136.064 196.773 C 139.349 199.817,143.178 203.320,144.573 204.558 L 147.110 206.807 146.981 184.793 L 146.852 162.778 147.744 161.342 C 149.237 158.941,150.481 158.624,159.444 158.355 C 168.255 158.090,171.780 157.770,169.659 157.427 C 168.272 157.203,167.612 156.296,168.836 156.296 C 169.839 156.296,169.890 156.168,170.152 152.988 C 170.319 150.968,170.254 150.155,169.912 149.938 C 169.547 149.706,169.556 149.640,169.953 149.635 C 170.384 149.630,170.384 149.534,169.953 149.003 C 169.567 148.527,169.561 148.446,169.928 148.667 C 170.316 148.901,170.399 148.137,170.346 144.807 C 170.301 141.996,170.418 140.570,170.708 140.390 C 170.981 140.222,171.074 139.460,170.963 138.303 C 170.842 137.042,170.964 136.211,171.359 135.602 C 171.832 134.873,171.844 134.668,171.431 134.413 C 171.034 134.168,171.026 134.011,171.392 133.645 C 171.645 133.392,171.852 132.879,171.852 132.504 C 171.852 132.129,172.188 131.163,172.600 130.356 C 173.040 129.494,173.260 128.542,173.135 128.044 C 173.019 127.579,173.181 126.704,173.496 126.099 C 173.812 125.495,174.071 124.776,174.072 124.502 C 174.073 124.228,174.419 123.519,174.840 122.928 L 175.606 121.852 174.766 121.852 C 174.094 121.852,174.019 121.759,174.389 121.389 C 174.644 121.134,175.049 120.926,175.290 120.926 C 175.531 120.926,175.825 120.343,175.943 119.630 C 176.061 118.917,176.606 117.628,177.153 116.767 C 177.700 115.905,178.148 114.681,178.148 114.047 C 178.148 113.205,178.348 112.841,178.889 112.700 C 179.689 112.491,179.853 112.033,179.259 111.667 C 178.631 111.278,178.845 110.758,179.907 110.085 C 180.970 109.413,181.146 109.036,181.195 107.326 C 181.211 106.738,181.432 106.296,181.710 106.296 C 182.300 106.296,182.963 105.140,182.963 104.111 C 182.963 103.698,183.295 103.182,183.700 102.965 C 184.105 102.748,184.419 102.450,184.397 102.304 C 184.231 101.203,184.523 100.000,184.956 100.000 C 185.387 100.000,186.431 97.729,186.800 95.989 C 186.857 95.718,187.064 95.385,187.261 95.248 C 187.981 94.747,187.560 93.944,186.367 93.542 C 185.693 93.315,185.222 93.051,185.319 92.954 C 185.416 92.857,184.587 92.835,183.476 92.905 C 182.317 92.979,181.240 92.853,180.947 92.610 C 180.667 92.378,179.715 92.203,178.830 92.222 C 177.946 92.240,171.359 92.142,164.194 92.003 C 145.023 91.631,146.913 94.275,146.667 67.492 L 146.481 47.392 140.499 52.863 " stroke="none" fill="#7f12ef" fill-rule="evenodd"></path><path id="path1" d="M256.115 114.438 C 255.987 114.645,255.985 114.981,256.111 115.185 C 256.241 115.396,255.922 115.556,255.370 115.556 C 254.837 115.556,254.495 115.709,254.611 115.896 C 254.727 116.083,254.578 116.480,254.280 116.778 C 253.983 117.076,253.842 117.422,253.968 117.549 C 254.193 117.773,253.552 117.913,252.737 117.817 C 252.359 117.773,251.150 120.402,250.963 121.674 C 250.919 121.973,250.434 122.687,249.886 123.259 C 249.338 123.831,248.889 124.562,248.889 124.882 C 248.889 125.923,247.782 128.148,247.310 128.054 C 247.034 127.999,246.804 128.470,246.730 129.240 C 246.664 129.942,246.374 130.692,246.087 130.906 C 245.800 131.121,245.271 132.157,244.912 133.209 C 244.553 134.261,243.744 135.686,243.114 136.375 C 242.485 137.065,241.851 138.100,241.707 138.676 C 241.490 139.540,240.361 141.302,238.607 143.519 C 237.496 144.921,236.667 146.304,236.667 146.754 C 236.667 147.533,235.143 152.349,234.767 152.759 C 234.590 152.953,234.444 153.391,234.444 153.733 C 234.444 154.347,233.248 157.307,231.836 160.185 C 231.436 161.000,231.110 161.875,231.110 162.130 C 231.111 162.384,230.876 162.593,230.588 162.593 C 230.261 162.593,229.967 163.181,229.804 164.167 C 229.523 165.858,228.775 167.569,227.861 168.611 C 227.502 169.020,227.450 169.259,227.720 169.259 C 227.956 169.259,228.148 169.426,228.148 169.630 C 228.148 169.833,227.887 170.000,227.568 170.000 C 227.164 170.000,227.056 170.216,227.213 170.711 C 227.365 171.191,227.244 171.461,226.841 171.544 C 226.508 171.612,227.529 172.323,229.140 173.146 C 264.769 191.337,284.074 218.025,284.074 249.089 C 284.074 286.828,255.806 320.336,208.478 338.699 C 195.760 343.633,171.941 348.519,160.600 348.519 C 157.425 348.519,157.037 348.703,157.037 350.212 C 157.037 352.305,158.986 352.768,170.478 353.406 C 222.738 356.307,275.547 333.086,303.288 295.006 C 338.201 247.082,335.851 189.225,297.216 145.529 C 288.759 135.965,272.667 122.800,263.477 117.928 C 262.074 117.184,259.896 116.010,258.637 115.319 C 257.251 114.558,256.256 114.210,256.115 114.438 M239.757 139.831 C 239.637 140.145,239.631 140.495,239.744 140.609 C 240.069 140.933,240.741 140.383,240.741 139.793 C 240.741 139.082,240.034 139.109,239.757 139.831 " stroke="none" fill="#f78427" fill-rule="evenodd"></path><path id="path2" d="M183.333 92.937 C 187.091 93.400,188.587 94.284,187.248 95.248 C 187.059 95.385,186.857 95.718,186.800 95.989 C 186.431 97.729,185.387 100.000,184.956 100.000 C 184.523 100.000,184.231 101.203,184.397 102.304 C 184.419 102.450,184.105 102.748,183.700 102.965 C 183.295 103.182,182.963 103.698,182.963 104.111 C 182.963 105.140,182.300 106.296,181.710 106.296 C 181.432 106.296,181.211 106.738,181.195 107.326 C 181.146 109.036,180.970 109.413,179.907 110.085 C 178.845 110.758,178.631 111.278,179.259 111.667 C 179.853 112.033,179.689 112.491,178.889 112.700 C 178.348 112.841,178.148 113.205,178.148 114.047 C 178.148 114.681,177.700 115.905,177.153 116.767 C 176.606 117.628,176.054 118.917,175.927 119.630 C 175.799 120.343,175.513 120.890,175.290 120.845 C 175.068 120.801,174.683 121.009,174.435 121.308 C 174.061 121.758,174.123 121.852,174.795 121.852 L 175.606 121.852 174.840 122.928 C 174.419 123.519,174.073 124.228,174.072 124.502 C 174.071 124.776,173.812 125.495,173.496 126.099 C 173.181 126.704,173.019 127.579,173.135 128.044 C 173.260 128.542,173.040 129.494,172.600 130.356 C 172.188 131.163,171.852 132.129,171.852 132.504 C 171.852 132.879,171.645 133.392,171.392 133.645 C 171.026 134.011,171.034 134.168,171.431 134.413 C 171.844 134.668,171.832 134.873,171.359 135.602 C 170.964 136.211,170.842 137.042,170.963 138.303 C 171.074 139.460,170.981 140.222,170.708 140.390 C 170.418 140.570,170.301 141.996,170.346 144.807 C 170.399 148.137,170.316 148.901,169.928 148.667 C 169.561 148.446,169.567 148.527,169.953 149.003 C 170.384 149.534,170.384 149.630,169.953 149.635 C 169.556 149.640,169.547 149.706,169.912 149.938 C 170.254 150.155,170.319 150.968,170.152 152.988 C 169.890 156.168,169.839 156.296,168.836 156.296 C 167.622 156.296,168.266 157.199,169.659 157.451 C 171.430 157.771,170.929 157.839,164.630 158.130 L 159.074 158.387 163.704 158.458 C 184.363 158.773,204.334 162.890,222.870 170.656 C 227.971 172.793,229.258 173.218,227.130 172.064 C 226.365 171.649,226.279 171.507,226.784 171.496 C 227.287 171.485,227.398 171.294,227.222 170.741 C 227.055 170.215,227.156 170.000,227.568 170.000 C 227.887 170.000,228.148 169.833,228.148 169.630 C 228.148 169.426,227.956 169.259,227.720 169.259 C 227.450 169.259,227.502 169.020,227.861 168.611 C 228.775 167.569,229.523 165.858,229.804 164.167 C 229.967 163.181,230.261 162.593,230.588 162.593 C 230.876 162.593,231.111 162.384,231.110 162.130 C 231.110 161.875,231.436 161.000,231.836 160.185 C 233.248 157.307,234.444 154.347,234.444 153.733 C 234.444 153.391,234.590 152.953,234.767 152.759 C 235.143 152.349,236.667 147.533,236.667 146.754 C 236.667 146.304,237.496 144.921,238.607 143.519 C 240.361 141.302,241.490 139.540,241.707 138.676 C 241.851 138.100,242.485 137.065,243.114 136.375 C 243.744 135.686,244.553 134.261,244.912 133.209 C 245.271 132.157,245.800 131.121,246.087 130.906 C 246.374 130.692,246.664 129.942,246.730 129.240 C 246.804 128.470,247.034 127.999,247.310 128.054 C 247.782 128.148,248.889 125.923,248.889 124.882 C 248.889 124.562,249.338 123.831,249.886 123.259 C 250.434 122.687,250.919 121.973,250.963 121.674 C 251.150 120.402,252.359 117.773,252.737 117.817 C 253.552 117.913,254.193 117.773,253.968 117.549 C 253.842 117.422,253.983 117.076,254.280 116.778 C 254.578 116.480,254.727 116.083,254.611 115.896 C 254.495 115.709,254.837 115.556,255.370 115.556 C 255.922 115.556,256.241 115.396,256.111 115.185 C 255.231 113.761,259.301 115.165,261.768 117.136 C 262.028 117.343,262.317 117.436,262.411 117.343 C 262.663 117.090,256.117 113.408,250.103 110.418 C 231.120 100.982,204.400 93.802,184.630 92.824 C 181.651 92.676,181.397 92.699,183.333 92.937 M240.741 139.793 C 240.741 140.383,240.069 140.933,239.744 140.609 C 239.440 140.304,239.915 139.259,240.359 139.259 C 240.569 139.259,240.741 139.499,240.741 139.793 M166.024 172.858 C 166.587 172.943,167.420 172.941,167.875 172.853 C 168.331 172.765,167.870 172.696,166.852 172.699 C 165.833 172.701,165.461 172.773,166.024 172.858 M251.296 204.815 C 252.299 205.833,253.204 206.667,253.305 206.667 C 253.407 206.667,252.670 205.833,251.667 204.815 C 250.663 203.796,249.759 202.963,249.657 202.963 C 249.556 202.963,250.293 203.796,251.296 204.815 M305.717 312.685 L 304.630 313.889 305.833 312.801 C 306.495 312.203,307.037 311.661,307.037 311.597 C 307.037 311.311,306.731 311.563,305.717 312.685 " stroke="none" fill="#c72ba5" fill-rule="evenodd"></path><path id="path3" d="M148.140 30.863 C 148.033 30.974,147.533 31.145,147.029 31.241 C 144.733 31.678,138.591 35.556,140.195 35.556 C 140.353 35.556,139.832 36.037,139.037 36.626 C 138.243 37.214,136.714 38.548,135.639 39.589 C 134.565 40.630,133.596 41.481,133.485 41.481 C 133.374 41.481,132.319 42.440,131.139 43.611 C 128.676 46.057,125.926 48.486,125.926 48.216 C 125.926 48.114,124.706 49.308,123.216 50.868 C 121.725 52.427,120.334 53.704,120.125 53.704 C 119.916 53.704,118.655 54.829,117.324 56.204 C 113.700 59.947,111.824 61.676,111.487 61.586 C 111.320 61.542,110.389 62.417,109.417 63.531 C 108.446 64.644,107.463 65.556,107.233 65.556 C 107.003 65.556,105.740 66.678,104.426 68.051 C 103.112 69.423,101.912 70.548,101.759 70.551 C 101.606 70.553,101.459 70.722,101.431 70.926 C 101.404 71.130,100.841 71.663,100.182 72.111 C 99.522 72.560,98.883 73.185,98.762 73.500 C 98.641 73.816,98.324 74.074,98.058 74.074 C 97.792 74.074,96.870 74.822,96.009 75.737 C 95.149 76.652,94.444 77.292,94.444 77.161 C 94.444 76.939,92.247 78.989,86.337 84.722 C 85.024 85.995,83.831 87.037,83.685 87.037 C 83.539 87.037,82.817 87.704,82.081 88.519 C 81.345 89.333,80.596 90.000,80.416 90.000 C 80.236 90.000,79.331 90.833,78.404 91.852 C 77.477 92.870,76.573 93.704,76.395 93.704 C 76.217 93.704,74.970 94.857,73.624 96.267 C 72.278 97.677,71.106 98.760,71.019 98.673 C 70.933 98.587,70.359 99.058,69.745 99.721 C 69.131 100.384,67.530 101.843,66.187 102.963 C 64.845 104.083,63.737 105.216,63.725 105.479 C 63.713 105.743,63.495 105.911,63.241 105.853 C 62.986 105.795,61.849 106.663,60.713 107.781 C 59.577 108.900,57.014 111.315,55.018 113.148 C 45.657 121.744,44.074 123.725,44.074 126.853 C 44.074 128.715,44.810 131.586,45.412 132.074 C 45.688 132.298,45.838 132.557,45.745 132.650 C 45.653 132.742,46.739 133.972,48.159 135.381 C 49.579 136.790,50.741 137.826,50.741 137.684 C 50.741 137.541,51.429 138.170,52.269 139.082 C 53.110 139.994,53.956 140.741,54.148 140.741 C 54.341 140.741,55.318 141.616,56.320 142.685 C 57.322 143.755,58.143 144.487,58.145 144.312 C 58.147 144.138,58.930 144.846,59.885 145.886 C 60.840 146.927,61.808 147.778,62.035 147.778 C 62.262 147.778,63.085 148.525,63.863 149.438 C 64.641 150.351,65.392 151.027,65.531 150.941 C 65.670 150.855,66.663 151.775,67.736 152.985 C 68.810 154.195,69.912 155.185,70.186 155.185 C 70.460 155.185,71.470 156.106,72.431 157.231 C 73.393 158.357,74.246 159.211,74.327 159.130 C 74.480 158.977,77.561 161.765,80.278 164.517 C 81.144 165.394,81.977 166.117,82.130 166.123 C 82.442 166.137,84.576 168.072,87.629 171.111 C 88.755 172.231,89.827 173.148,90.012 173.148 C 90.358 173.148,91.052 173.784,95.229 177.935 C 96.577 179.274,97.797 180.370,97.940 180.370 C 98.251 180.370,101.137 183.014,104.244 186.143 C 105.474 187.383,107.065 188.830,107.778 189.359 C 108.491 189.888,110.383 191.581,111.983 193.123 C 113.583 194.665,115.028 195.926,115.194 195.926 C 115.360 195.926,116.368 196.839,117.433 197.956 C 118.499 199.072,119.679 200.083,120.056 200.203 C 120.432 200.322,120.741 200.649,120.741 200.929 C 120.741 201.209,120.933 201.557,121.168 201.702 C 121.457 201.880,121.497 201.797,121.291 201.446 C 121.123 201.160,121.964 201.968,123.159 203.241 C 124.354 204.514,125.450 205.556,125.595 205.556 C 125.740 205.556,126.843 206.514,128.047 207.685 C 132.706 212.218,133.951 213.333,134.351 213.333 C 134.579 213.333,135.375 214.078,136.121 214.988 C 136.867 215.899,137.597 216.607,137.742 216.562 C 137.888 216.518,138.893 217.440,139.975 218.611 C 141.058 219.782,142.167 220.741,142.440 220.741 C 142.713 220.741,143.118 221.079,143.339 221.492 C 143.560 221.905,143.899 222.145,144.093 222.026 C 144.286 221.906,144.444 221.993,144.444 222.218 C 144.444 223.040,147.525 224.058,150.037 224.066 C 152.564 224.074,154.815 223.527,154.815 222.905 C 154.815 222.709,154.964 222.641,155.146 222.754 C 155.329 222.866,155.583 222.686,155.711 222.352 C 155.839 222.019,156.026 221.828,156.126 221.928 C 156.360 222.163,160.000 218.592,160.000 218.128 C 160.000 217.935,159.986 217.671,159.968 217.541 C 159.951 217.411,160.152 217.172,160.414 217.010 C 160.798 216.773,160.871 212.338,160.786 194.561 L 160.681 172.407 164.322 172.314 C 166.324 172.263,168.609 172.119,169.399 171.996 C 170.415 171.837,170.759 171.893,170.577 172.188 C 170.435 172.417,170.206 172.539,170.067 172.460 C 169.928 172.380,169.481 172.460,169.074 172.638 C 168.605 172.843,169.659 172.922,171.944 172.853 C 173.931 172.793,175.556 172.841,175.556 172.960 C 175.556 173.162,183.056 174.124,185.926 174.290 C 186.639 174.332,187.497 174.478,187.832 174.615 C 188.168 174.752,188.668 174.827,188.943 174.781 C 189.219 174.736,189.694 174.806,190.000 174.937 C 190.306 175.068,192.222 175.515,194.259 175.929 C 196.296 176.343,198.213 176.746,198.519 176.825 C 198.824 176.904,199.907 177.175,200.926 177.428 C 201.944 177.680,203.215 178.105,203.749 178.373 C 204.284 178.640,204.825 178.755,204.953 178.627 C 205.081 178.500,205.185 178.601,205.185 178.852 C 205.185 179.150,205.460 179.222,205.972 179.059 C 206.552 178.875,206.683 178.933,206.470 179.278 C 206.259 179.619,206.398 179.690,206.979 179.537 C 207.418 179.423,207.778 179.494,207.778 179.695 C 207.778 179.897,207.985 179.993,208.237 179.909 C 208.490 179.824,208.932 179.990,209.219 180.277 C 209.505 180.564,210.049 180.718,210.426 180.619 C 210.803 180.520,211.019 180.591,210.905 180.775 C 210.790 180.960,210.999 181.136,211.367 181.168 C 212.430 181.257,212.696 181.335,214.155 181.982 C 214.912 182.318,215.706 182.593,215.919 182.593 C 216.132 182.593,216.596 182.735,216.949 182.908 C 217.303 183.082,218.176 183.468,218.889 183.766 C 219.602 184.064,221.183 184.797,222.402 185.394 C 223.622 185.990,224.847 186.427,225.125 186.363 C 225.403 186.299,225.521 186.423,225.388 186.638 C 225.241 186.875,225.372 186.942,225.722 186.808 C 226.038 186.687,226.296 186.772,226.296 186.997 C 226.296 187.223,226.621 187.407,227.019 187.407 C 227.416 187.407,227.874 187.633,228.037 187.909 C 228.363 188.460,230.000 189.421,230.000 189.061 C 230.000 188.937,230.263 189.099,230.585 189.421 C 230.907 189.743,231.324 189.912,231.511 189.796 C 231.699 189.681,231.852 189.750,231.852 189.951 C 231.852 190.152,232.519 190.611,233.333 190.970 C 234.148 191.330,234.815 191.768,234.815 191.945 C 234.815 192.122,234.961 192.175,235.140 192.065 C 235.320 191.954,235.903 192.300,236.437 192.834 C 236.971 193.368,237.407 193.667,237.407 193.498 C 237.407 193.330,237.652 193.515,237.951 193.911 C 238.250 194.306,238.500 194.513,238.507 194.370 C 238.513 194.226,238.960 194.518,239.499 195.018 C 240.038 195.517,240.686 195.926,240.940 195.926 C 241.194 195.926,241.507 196.200,241.636 196.534 C 241.764 196.869,241.972 197.040,242.098 196.914 C 242.224 196.788,243.118 197.348,244.085 198.158 C 245.052 198.967,245.987 199.636,246.163 199.644 C 246.338 199.651,246.944 200.326,247.508 201.142 C 248.073 201.958,248.710 202.518,248.924 202.386 C 249.138 202.254,250.211 203.121,251.309 204.313 C 252.407 205.506,253.687 206.883,254.153 207.373 C 254.619 207.864,254.750 208.137,254.444 207.981 C 254.139 207.824,254.327 208.090,254.862 208.570 C 255.397 209.051,255.933 209.736,256.054 210.093 C 256.174 210.449,256.487 210.748,256.748 210.757 C 257.246 210.775,260.741 215.842,260.741 216.548 C 260.741 216.773,261.001 217.058,261.320 217.180 C 261.638 217.302,261.813 217.540,261.709 217.709 C 261.605 217.878,261.851 218.300,262.257 218.648 C 262.663 218.995,262.894 219.441,262.772 219.639 C 262.649 219.838,262.725 220.000,262.941 220.000 C 263.157 220.000,263.314 220.125,263.289 220.278 C 263.185 220.938,263.380 221.392,264.097 222.162 C 264.517 222.613,264.918 223.269,264.988 223.620 C 265.057 223.972,265.538 225.100,266.057 226.128 C 266.575 227.155,267.100 228.565,267.222 229.259 C 267.345 229.954,267.707 231.075,268.028 231.751 C 268.349 232.427,268.611 233.396,268.611 233.904 C 268.611 234.413,268.750 234.914,268.919 235.019 C 269.088 235.123,269.133 235.454,269.018 235.753 C 268.904 236.052,268.952 236.296,269.127 236.296 C 269.302 236.296,269.460 236.755,269.480 237.315 C 269.558 239.569,270.118 243.674,270.330 243.543 C 270.454 243.466,270.556 245.955,270.556 249.073 C 270.556 252.192,270.431 254.666,270.278 254.572 C 270.125 254.478,270.000 255.036,269.999 255.811 C 269.999 256.587,269.753 258.619,269.453 260.327 C 269.152 262.035,268.995 263.576,269.105 263.753 C 269.214 263.930,269.126 264.074,268.911 264.074 C 268.695 264.074,268.519 264.437,268.519 264.881 C 268.519 265.582,268.190 266.849,267.480 268.889 C 267.373 269.194,267.251 269.569,267.208 269.722 C 267.165 269.875,267.096 270.042,267.055 270.093 C 267.014 270.144,266.926 270.469,266.859 270.815 C 266.792 271.162,266.305 272.390,265.776 273.545 C 265.247 274.700,264.815 275.857,264.815 276.116 C 264.815 276.375,264.548 276.690,264.221 276.815 C 263.894 276.941,263.717 277.278,263.827 277.565 C 263.937 277.852,263.771 278.185,263.457 278.306 C 263.126 278.433,262.978 278.765,263.105 279.096 C 263.226 279.411,263.172 279.574,262.985 279.458 C 262.662 279.259,262.199 280.175,262.260 280.893 C 262.276 281.078,262.020 281.380,261.692 281.564 C 261.364 281.747,261.193 282.055,261.312 282.248 C 261.431 282.440,261.269 282.697,260.952 282.819 C 260.634 282.941,260.461 283.180,260.565 283.349 C 260.670 283.519,260.488 283.808,260.160 283.992 C 259.832 284.176,259.597 284.450,259.639 284.601 C 259.754 285.021,256.640 289.190,256.038 289.421 C 255.747 289.533,255.601 289.774,255.714 289.957 C 255.827 290.140,255.499 290.565,254.985 290.902 C 254.471 291.238,254.143 291.663,254.255 291.845 C 254.368 292.028,254.239 292.312,253.969 292.477 C 253.699 292.643,252.988 293.444,252.389 294.259 C 251.790 295.074,251.050 295.889,250.743 296.070 C 250.436 296.250,248.765 297.834,247.030 299.588 C 243.192 303.468,241.437 305.029,241.048 304.910 C 240.887 304.860,240.483 305.234,240.152 305.740 C 239.820 306.246,239.389 306.562,239.194 306.441 C 238.999 306.320,238.757 306.537,238.656 306.922 C 238.555 307.307,238.172 307.782,237.803 307.978 C 235.006 309.463,234.074 310.063,234.074 310.378 C 234.074 310.577,233.842 310.741,233.558 310.741 C 233.274 310.741,232.942 311.001,232.820 311.320 C 232.698 311.638,232.430 311.795,232.225 311.668 C 232.020 311.541,231.852 311.624,231.852 311.852 C 231.852 312.080,231.706 312.176,231.528 312.066 C 231.350 311.956,230.767 312.271,230.232 312.767 C 229.697 313.263,229.254 313.551,229.247 313.408 C 229.241 313.265,229.032 313.416,228.783 313.742 C 228.534 314.069,227.957 314.455,227.501 314.600 C 227.044 314.745,226.460 315.061,226.203 315.302 C 225.945 315.543,224.736 316.241,223.515 316.852 C 222.295 317.463,221.194 318.102,221.070 318.272 C 220.945 318.443,220.738 318.572,220.611 318.560 C 220.111 318.514,219.099 319.050,218.441 319.707 C 218.061 320.087,217.590 320.298,217.394 320.177 C 217.198 320.056,217.037 320.143,217.037 320.370 C 217.037 320.598,216.870 320.681,216.667 320.556 C 216.463 320.430,216.296 320.513,216.296 320.741 C 216.296 320.968,216.130 321.052,215.926 320.926 C 215.722 320.800,215.556 320.870,215.556 321.082 C 215.556 321.294,215.097 321.575,214.537 321.707 C 213.977 321.838,212.769 322.329,211.852 322.796 C 209.970 323.755,205.429 325.556,204.890 325.556 C 204.695 325.556,204.329 325.804,204.077 326.107 C 203.826 326.410,203.491 326.579,203.334 326.482 C 202.915 326.223,200.741 327.048,200.741 327.465 C 200.741 327.661,200.589 327.728,200.403 327.613 C 200.217 327.498,198.835 327.896,197.332 328.498 C 195.828 329.100,193.522 329.839,192.206 330.140 C 190.891 330.441,187.898 331.133,185.556 331.678 C 179.086 333.184,178.532 333.286,172.500 334.105 C 170.514 334.374,168.889 334.699,168.889 334.828 C 168.889 334.956,167.948 334.983,166.799 334.888 C 165.632 334.791,164.799 334.859,164.912 335.042 C 165.028 335.228,163.262 335.316,160.836 335.245 C 158.425 335.174,156.217 335.282,155.778 335.494 C 155.350 335.700,154.271 335.970,153.379 336.094 C 152.487 336.218,151.409 336.565,150.982 336.864 C 150.555 337.163,149.947 337.407,149.630 337.407 C 148.679 337.407,145.755 340.786,144.820 342.963 C 143.288 346.535,143.405 353.993,145.035 356.561 C 145.321 357.012,145.556 357.619,145.556 357.910 C 145.556 358.201,145.807 358.536,146.115 358.654 C 146.422 358.772,146.630 359.014,146.578 359.193 C 146.422 359.719,149.321 362.362,150.926 363.156 C 151.741 363.559,152.712 364.188,153.085 364.553 C 153.521 364.981,154.031 365.131,154.520 364.976 C 155.074 364.800,155.200 364.861,154.988 365.204 C 154.779 365.543,154.914 365.616,155.480 365.468 C 155.909 365.356,156.319 365.439,156.390 365.653 C 156.462 365.867,157.540 366.055,158.787 366.072 C 160.033 366.089,160.859 366.223,160.621 366.370 C 160.383 366.517,160.971 366.591,161.926 366.535 C 162.881 366.479,163.573 366.579,163.462 366.758 C 163.349 366.941,164.608 367.005,166.327 366.905 C 168.085 366.802,169.176 366.860,168.883 367.040 C 168.595 367.219,172.426 367.358,177.715 367.362 C 184.113 367.367,186.981 367.247,186.818 366.982 C 186.655 366.718,187.459 366.678,189.354 366.855 C 191.244 367.032,192.211 366.985,192.383 366.706 C 192.522 366.481,192.886 366.296,193.192 366.296 C 193.497 366.296,193.644 366.463,193.519 366.667 C 193.393 366.870,193.466 367.037,193.682 367.037 C 193.898 367.037,194.074 366.893,194.074 366.717 C 194.074 366.540,194.817 366.452,195.726 366.520 C 196.635 366.588,197.463 366.506,197.567 366.337 C 197.672 366.168,198.637 366.091,199.712 366.166 C 201.083 366.261,201.501 366.193,201.111 365.938 C 200.710 365.675,200.916 365.621,201.852 365.742 C 203.545 365.963,206.667 365.556,206.667 365.116 C 206.667 364.926,206.500 364.874,206.296 365.000 C 206.093 365.126,205.926 365.035,205.926 364.797 C 205.926 364.527,206.169 364.469,206.574 364.642 C 208.154 365.318,209.475 365.335,208.925 364.673 C 208.453 364.104,208.495 364.084,209.413 364.433 C 210.690 364.918,211.592 364.924,211.296 364.444 C 211.162 364.228,211.547 364.074,212.222 364.074 C 212.857 364.074,213.302 363.949,213.209 363.796 C 213.117 363.644,213.896 363.486,214.940 363.446 C 215.984 363.407,216.897 363.197,216.969 362.981 C 217.041 362.765,217.243 362.676,217.417 362.783 C 217.869 363.063,220.761 362.554,220.560 362.229 C 220.468 362.081,220.785 362.034,221.264 362.125 C 221.743 362.217,222.244 362.117,222.376 361.903 C 222.508 361.689,222.844 361.601,223.123 361.708 C 223.401 361.815,223.734 361.732,223.863 361.523 C 223.992 361.314,224.316 361.227,224.583 361.330 C 225.202 361.567,230.430 360.132,230.734 359.641 C 230.859 359.439,231.333 359.344,231.787 359.432 C 232.302 359.531,232.522 359.444,232.371 359.200 C 232.215 358.947,232.407 358.898,232.917 359.059 C 233.373 359.204,233.704 359.148,233.704 358.925 C 233.704 358.714,233.954 358.638,234.259 358.755 C 234.565 358.872,234.815 358.789,234.815 358.570 C 234.815 358.351,235.065 358.267,235.370 358.385 C 235.676 358.502,235.926 358.419,235.926 358.199 C 235.926 357.980,236.176 357.897,236.481 358.014 C 236.787 358.131,237.037 358.033,237.037 357.796 C 237.037 357.558,237.181 357.453,237.357 357.561 C 237.533 357.670,238.336 357.441,239.141 357.052 C 239.947 356.663,241.051 356.232,241.596 356.096 C 242.142 355.959,242.513 355.726,242.422 355.579 C 242.331 355.432,242.624 355.340,243.073 355.376 C 243.522 355.411,244.264 355.197,244.722 354.900 C 245.181 354.602,245.556 354.495,245.556 354.661 C 245.556 354.827,245.756 354.763,246.000 354.519 C 246.244 354.274,246.754 354.074,247.133 354.074 C 247.512 354.074,247.720 353.909,247.595 353.708 C 247.465 353.498,247.614 353.436,247.944 353.562 C 248.261 353.684,248.519 353.589,248.519 353.351 C 248.519 353.114,248.673 353.015,248.861 353.131 C 249.298 353.401,251.111 352.588,251.111 352.123 C 251.111 351.930,251.361 351.869,251.667 351.986 C 252.424 352.276,253.386 351.866,253.085 351.380 C 252.932 351.132,253.071 351.073,253.458 351.222 C 253.797 351.352,254.074 351.287,254.074 351.078 C 254.074 350.868,254.241 350.800,254.444 350.926 C 254.648 351.052,254.815 350.968,254.815 350.741 C 254.815 350.513,254.981 350.430,255.185 350.556 C 255.389 350.681,255.556 350.580,255.556 350.331 C 255.556 350.081,255.659 349.980,255.785 350.106 C 255.911 350.232,256.256 350.093,256.551 349.798 C 256.847 349.502,257.536 349.151,258.081 349.018 C 258.627 348.884,259.157 348.667,259.259 348.536 C 259.492 348.236,262.681 346.387,263.056 346.335 C 263.208 346.314,263.510 346.296,263.726 346.296 C 263.941 346.296,264.016 346.132,263.892 345.930 C 263.764 345.724,263.904 345.656,264.212 345.774 C 264.539 345.899,264.929 345.664,265.185 345.185 C 265.441 344.707,265.831 344.471,266.159 344.597 C 266.510 344.731,266.610 344.653,266.440 344.377 C 266.266 344.095,266.375 344.025,266.760 344.173 C 267.104 344.305,267.434 344.168,267.559 343.842 C 267.677 343.536,267.923 343.379,268.107 343.493 C 268.291 343.607,268.524 343.492,268.625 343.239 C 268.726 342.985,269.613 342.361,270.597 341.852 C 271.582 341.343,272.806 340.551,273.319 340.093 C 273.832 339.634,274.555 339.259,274.925 339.259 C 275.296 339.259,275.507 339.110,275.394 338.928 C 275.209 338.628,275.965 338.138,276.532 338.189 C 276.657 338.200,277.041 337.781,277.384 337.257 C 277.826 336.584,278.124 336.421,278.403 336.700 C 278.682 336.979,279.035 336.761,279.609 335.954 C 280.056 335.328,280.722 334.815,281.089 334.815 C 281.457 334.815,282.279 334.205,282.916 333.459 C 283.553 332.713,284.074 332.232,284.074 332.389 C 284.074 332.546,284.420 332.281,284.843 331.800 C 285.266 331.319,285.507 331.132,285.379 331.385 C 285.223 331.692,285.345 331.767,285.750 331.612 C 286.082 331.485,286.509 330.970,286.700 330.467 C 286.936 329.847,287.235 329.626,287.632 329.779 C 288.020 329.927,288.282 329.753,288.411 329.261 C 288.518 328.853,288.815 328.519,289.073 328.519 C 289.330 328.519,290.157 327.767,290.910 326.848 C 291.663 325.928,292.425 325.266,292.602 325.376 C 292.780 325.486,293.476 324.955,294.148 324.196 C 296.139 321.947,300.476 317.918,303.059 315.917 C 303.621 315.482,303.991 314.980,303.881 314.801 C 303.620 314.380,305.024 312.757,306.667 311.581 C 307.380 311.070,307.648 310.760,307.262 310.890 C 306.661 311.095,306.630 311.046,307.044 310.547 C 307.309 310.228,307.758 310.055,308.042 310.164 C 308.325 310.273,308.464 310.212,308.351 310.028 C 308.237 309.844,308.604 309.334,309.165 308.894 C 309.726 308.453,309.960 308.209,309.684 308.351 C 309.331 308.533,309.365 308.331,309.799 307.669 C 310.138 307.152,310.665 306.633,310.972 306.515 C 311.278 306.398,311.436 306.152,311.323 305.970 C 311.210 305.787,311.754 304.983,312.531 304.182 C 313.308 303.381,314.055 302.436,314.191 302.080 C 314.328 301.725,314.605 301.537,314.808 301.662 C 315.015 301.790,315.087 301.655,314.971 301.354 C 314.856 301.054,315.101 300.582,315.528 300.283 C 315.948 299.989,316.204 299.661,316.098 299.555 C 315.991 299.448,316.387 298.844,316.977 298.212 C 317.568 297.580,317.996 297.008,317.929 296.942 C 317.862 296.875,318.384 296.172,319.089 295.380 C 320.208 294.122,320.405 293.719,320.362 292.768 C 320.357 292.661,320.798 292.161,321.342 291.657 C 321.885 291.153,322.181 290.735,321.999 290.729 C 321.816 290.722,321.969 290.488,322.339 290.207 C 322.710 289.927,323.003 289.557,322.992 289.386 C 322.946 288.670,323.412 287.783,323.730 287.979 C 324.031 288.165,324.246 287.385,324.118 286.574 C 324.094 286.421,324.251 286.296,324.466 286.296 C 324.682 286.296,324.756 286.130,324.630 285.926 C 324.504 285.722,324.573 285.556,324.783 285.556 C 325.124 285.556,326.331 283.639,326.299 283.150 C 326.292 283.044,326.698 282.146,327.201 281.154 C 327.703 280.161,328.011 279.246,327.885 279.119 C 327.758 278.993,327.926 278.889,328.259 278.889 C 328.981 278.889,329.771 277.566,329.404 276.972 C 329.254 276.730,329.309 276.654,329.534 276.792 C 329.974 277.065,330.483 276.038,330.165 275.522 C 330.050 275.337,330.119 275.185,330.318 275.185 C 330.843 275.185,331.982 271.991,331.649 271.453 C 331.455 271.139,331.520 271.091,331.858 271.300 C 332.214 271.520,332.283 271.434,332.112 270.987 C 331.981 270.647,332.054 270.370,332.273 270.370 C 332.493 270.370,332.573 270.112,332.451 269.796 C 332.308 269.423,332.380 269.313,332.655 269.483 C 332.944 269.662,333.013 269.490,332.871 268.947 C 332.756 268.508,332.808 268.148,332.986 268.148 C 333.164 268.148,333.214 267.898,333.097 267.593 C 332.980 267.287,333.028 267.037,333.203 267.037 C 333.695 267.037,334.543 264.865,334.299 264.230 C 334.160 263.866,334.234 263.759,334.507 263.928 C 334.796 264.106,334.865 263.934,334.723 263.391 C 334.608 262.952,334.683 262.593,334.889 262.593 C 335.096 262.593,335.169 262.343,335.051 262.037 C 334.934 261.731,334.999 261.481,335.197 261.481 C 335.394 261.481,335.556 261.138,335.556 260.719 C 335.556 260.299,335.722 260.059,335.926 260.185 C 336.451 260.510,336.386 259.874,335.833 259.279 C 335.454 258.870,335.495 258.824,336.060 259.024 C 336.646 259.231,336.714 259.129,336.516 258.338 C 336.370 257.757,336.439 257.407,336.699 257.407 C 336.929 257.407,337.020 257.157,336.903 256.852 C 336.786 256.546,336.863 256.296,337.074 256.296 C 337.289 256.296,337.354 255.971,337.222 255.556 C 337.078 255.102,337.156 254.815,337.423 254.815 C 337.706 254.815,337.774 254.480,337.618 253.858 C 337.445 253.170,337.501 252.977,337.817 253.172 C 338.134 253.368,338.188 253.170,338.010 252.463 C 337.858 251.856,337.916 251.481,338.163 251.481 C 338.383 251.481,338.455 251.308,338.323 251.095 C 338.192 250.882,338.285 250.466,338.531 250.170 C 338.777 249.874,338.999 248.715,339.026 247.594 C 339.052 246.474,339.218 245.557,339.393 245.556 C 339.569 245.556,339.600 244.956,339.462 244.223 C 339.309 243.410,339.350 242.975,339.565 243.108 C 339.775 243.238,339.845 242.786,339.737 241.989 C 339.602 240.983,339.672 240.723,340.020 240.938 C 340.373 241.157,340.434 240.860,340.277 239.686 C 340.154 238.769,340.220 238.148,340.441 238.148 C 340.656 238.148,340.758 237.383,340.684 236.331 C 340.613 235.332,340.701 234.604,340.878 234.714 C 341.055 234.824,341.133 233.725,341.051 232.272 C 340.969 230.819,341.032 229.630,341.192 229.630 C 341.351 229.630,341.481 226.286,341.481 222.200 C 341.481 217.993,341.340 214.859,341.154 214.973 C 340.970 215.087,340.911 214.124,341.020 212.773 C 341.138 211.304,341.070 210.370,340.846 210.370 C 340.628 210.370,340.553 209.599,340.662 208.464 C 340.801 207.025,340.735 206.627,340.394 206.837 C 340.050 207.050,340.006 206.697,340.207 205.357 C 340.359 204.342,340.330 203.685,340.139 203.803 C 339.956 203.916,339.793 202.990,339.776 201.746 C 339.757 200.381,339.574 199.426,339.315 199.339 C 339.078 199.261,338.976 199.048,339.088 198.867 C 339.338 198.462,338.241 192.522,337.864 192.240 C 337.715 192.128,337.551 191.370,337.500 190.556 C 337.450 189.741,337.251 189.022,337.058 188.958 C 336.866 188.894,336.800 188.602,336.912 188.309 C 337.024 188.017,336.947 187.778,336.741 187.778 C 336.535 187.778,336.453 187.442,336.561 187.032 C 336.718 186.429,336.623 186.332,336.063 186.530 C 335.496 186.731,335.454 186.685,335.833 186.277 C 336.475 185.586,336.413 185.061,335.722 185.327 C 335.388 185.454,335.243 185.391,335.376 185.177 C 335.659 184.719,334.088 179.630,333.664 179.630 C 333.495 179.630,333.463 179.352,333.593 179.013 C 333.737 178.638,333.681 178.489,333.448 178.633 C 333.217 178.776,333.108 178.499,333.170 177.929 C 333.228 177.400,333.054 176.907,332.771 176.798 C 332.495 176.692,332.355 176.381,332.461 176.106 C 332.566 175.831,332.283 175.107,331.832 174.497 C 331.382 173.888,330.973 173.001,330.924 172.528 C 330.875 172.054,330.814 171.465,330.788 171.218 C 330.762 170.971,330.390 170.443,329.961 170.043 C 329.532 169.643,329.291 169.137,329.427 168.917 C 329.562 168.698,329.495 168.519,329.278 168.519 C 329.061 168.519,328.616 167.852,328.290 167.037 C 327.964 166.222,327.521 165.556,327.305 165.556 C 327.090 165.556,327.010 165.459,327.127 165.342 C 327.400 165.069,326.055 162.011,325.246 161.066 C 324.907 160.670,324.671 160.268,324.722 160.173 C 324.773 160.078,324.475 159.661,324.061 159.246 C 323.646 158.831,323.406 158.330,323.528 158.132 C 323.651 157.934,323.501 157.677,323.195 157.559 C 322.869 157.434,322.732 157.104,322.864 156.760 C 323.013 156.373,322.942 156.265,322.656 156.443 C 322.261 156.686,322.049 156.231,322.188 155.435 C 322.217 155.268,322.095 155.220,321.917 155.330 C 321.739 155.440,321.362 155.078,321.080 154.524 C 320.338 153.069,318.085 149.602,317.222 148.588 C 316.815 148.110,316.481 147.559,316.481 147.364 C 316.481 147.169,316.231 146.856,315.926 146.667 C 315.620 146.478,315.362 146.192,315.352 146.032 C 315.343 145.872,314.644 145.001,313.799 144.097 C 312.955 143.193,312.343 142.326,312.440 142.169 C 312.537 142.013,312.194 141.608,311.678 141.270 C 311.163 140.932,310.741 140.449,310.741 140.196 C 310.741 139.944,310.199 139.288,309.537 138.740 C 308.875 138.191,308.333 137.616,308.333 137.461 C 308.333 137.306,307.040 135.954,305.460 134.457 C 303.879 132.960,302.673 131.648,302.780 131.541 C 303.051 131.270,301.069 129.259,300.530 129.259 C 300.287 129.259,299.048 128.093,297.778 126.667 C 296.507 125.241,295.288 124.074,295.068 124.074 C 294.683 124.074,293.357 122.909,291.064 120.556 C 290.469 119.944,289.834 119.444,289.654 119.444 C 289.474 119.444,288.968 118.989,288.531 118.433 C 288.093 117.877,287.619 117.460,287.477 117.507 C 287.143 117.618,282.963 114.358,282.963 113.986 C 282.963 113.831,282.731 113.704,282.447 113.704 C 282.163 113.704,281.831 113.443,281.709 113.125 C 281.587 112.806,281.318 112.650,281.111 112.778 C 280.905 112.905,280.636 112.750,280.514 112.433 C 280.392 112.116,280.154 111.942,279.984 112.047 C 279.814 112.152,279.540 112.006,279.375 111.723 C 279.209 111.440,278.074 110.651,276.852 109.971 C 275.630 109.291,274.574 108.602,274.506 108.441 C 274.438 108.280,274.147 108.148,273.858 108.148 C 273.569 108.148,273.333 107.981,273.333 107.778 C 273.333 107.574,273.143 107.407,272.911 107.407 C 272.679 107.407,272.250 107.116,271.958 106.759 C 271.610 106.335,271.510 106.303,271.667 106.667 C 271.799 106.972,271.644 106.899,271.324 106.503 C 271.003 106.108,270.741 105.900,270.741 106.040 C 270.741 106.181,270.401 105.957,269.986 105.542 C 269.572 105.127,269.070 104.888,268.873 105.010 C 268.675 105.132,268.414 104.973,268.292 104.655 C 268.170 104.338,267.940 104.159,267.781 104.257 C 267.622 104.356,267.285 104.188,267.034 103.885 C 266.782 103.581,266.346 103.333,266.066 103.333 C 265.785 103.333,265.556 103.167,265.556 102.963 C 265.556 102.759,265.431 102.623,265.278 102.660 C 264.895 102.754,261.411 101.035,260.789 100.446 C 260.077 99.770,255.589 97.568,254.282 97.251 C 253.683 97.106,252.728 96.657,252.160 96.252 C 251.591 95.847,250.821 95.457,250.448 95.385 C 249.725 95.246,246.749 93.978,245.145 93.126 C 244.613 92.843,244.071 92.719,243.941 92.849 C 243.810 92.980,243.704 92.864,243.704 92.593 C 243.704 92.321,243.601 92.202,243.474 92.328 C 243.348 92.454,242.994 92.306,242.686 91.998 C 242.378 91.691,241.898 91.527,241.619 91.634 C 241.340 91.741,241.111 91.687,241.111 91.515 C 241.111 91.078,236.796 89.506,236.351 89.781 C 236.152 89.904,235.933 89.870,235.865 89.705 C 235.749 89.425,231.552 87.897,230.101 87.607 C 228.129 87.213,223.550 85.892,223.193 85.615 C 222.480 85.061,219.227 84.405,218.438 84.655 C 217.970 84.804,217.773 84.751,217.918 84.517 C 218.201 84.059,215.405 83.524,214.771 83.916 C 214.493 84.088,214.428 84.031,214.594 83.761 C 214.742 83.522,214.645 83.330,214.374 83.326 C 214.107 83.322,212.556 83.073,210.926 82.773 C 203.121 81.337,198.783 80.702,190.926 79.845 C 186.241 79.334,181.574 78.882,180.556 78.841 C 179.537 78.799,178.496 78.606,178.242 78.412 C 177.988 78.218,176.208 78.128,174.286 78.213 C 172.364 78.297,170.873 78.233,170.973 78.072 C 171.073 77.910,168.812 77.778,165.948 77.778 L 160.741 77.778 160.741 58.791 C 160.741 41.079,160.694 39.676,160.039 37.885 C 159.202 35.596,157.925 33.704,157.215 33.704 C 156.934 33.704,156.570 33.472,156.407 33.189 C 155.590 31.769,149.032 29.924,148.140 30.863 M147.118 67.500 C 147.255 94.429,145.048 91.565,165.926 91.905 C 196.164 92.398,223.025 97.457,241.197 106.082 C 242.270 106.591,245.065 107.859,247.407 108.900 C 256.545 112.959,271.962 122.302,278.519 127.753 C 279.231 128.346,281.349 130.092,283.225 131.633 C 295.594 141.796,307.045 155.618,314.583 169.485 C 330.144 198.113,332.396 231.286,320.942 263.148 C 317.248 273.424,307.794 290.527,302.116 297.206 C 301.258 298.216,299.767 300.025,298.803 301.227 C 294.672 306.376,284.418 316.334,279.444 320.027 C 278.019 321.086,276.318 322.418,275.666 322.986 C 271.831 326.330,255.641 335.865,248.519 338.975 C 237.580 343.750,226.665 347.461,218.333 349.235 C 216.296 349.669,212.630 350.512,210.185 351.107 C 201.088 353.324,188.607 354.326,174.630 353.961 C 160.661 353.596,157.276 352.948,156.826 350.551 C 156.441 348.498,156.862 348.290,161.942 348.030 C 206.864 345.725,252.114 321.860,271.825 290.079 C 292.530 256.696,285.352 215.039,254.630 190.279 C 252.593 188.637,250.758 187.093,250.552 186.846 C 249.167 185.187,236.934 177.655,230.341 174.403 C 209.128 163.938,189.719 159.480,163.275 158.997 C 145.318 158.669,146.829 156.185,147.175 185.463 C 147.315 197.329,147.319 207.037,147.183 207.037 C 146.876 207.037,142.921 203.518,136.127 197.200 C 133.267 194.539,127.009 188.814,122.222 184.476 C 117.435 180.137,112.005 175.202,110.154 173.507 C 108.304 171.813,106.221 169.965,105.525 169.401 C 104.829 168.837,103.086 167.282,101.652 165.947 C 100.217 164.611,96.801 161.497,94.059 159.027 C 91.317 156.557,86.142 151.890,82.559 148.657 C 78.976 145.423,73.226 140.279,69.782 137.226 C 66.337 134.172,62.465 130.676,61.177 129.456 L 58.836 127.239 61.002 125.193 C 65.018 121.402,68.734 117.986,73.908 113.333 C 76.739 110.787,80.143 107.696,81.472 106.464 C 82.801 105.232,85.386 102.899,87.215 101.279 C 91.311 97.652,112.053 78.682,116.120 74.843 C 118.947 72.175,123.403 68.131,127.037 64.938 C 127.954 64.133,129.303 62.901,130.036 62.200 C 130.770 61.499,133.920 58.593,137.038 55.741 C 140.155 52.889,143.556 49.767,144.594 48.804 C 145.632 47.841,146.601 47.049,146.747 47.045 C 146.893 47.041,147.060 56.245,147.118 67.500 " stroke="none" fill="#040404" fill-rule="evenodd"></path><path id="path4" d="M262.778 117.306 C 262.981 117.500,263.815 118.034,264.630 118.491 C 265.444 118.949,265.778 119.046,265.370 118.707 C 264.543 118.020,262.197 116.751,262.778 117.306 M232.222 174.985 C 232.222 175.087,232.889 175.510,233.704 175.926 C 234.519 176.342,235.185 176.598,235.185 176.497 C 235.185 176.395,234.519 175.971,233.704 175.556 C 232.889 175.140,232.222 174.883,232.222 174.985 M258.519 193.449 C 258.519 193.513,259.060 194.055,259.722 194.653 L 260.926 195.741 259.838 194.537 C 258.824 193.415,258.519 193.163,258.519 193.449 M163.056 353.218 C 163.412 353.311,163.995 353.311,164.352 353.218 C 164.708 353.125,164.417 353.049,163.704 353.049 C 162.991 353.049,162.699 353.125,163.056 353.218 M194.907 353.218 C 195.264 353.311,195.847 353.311,196.204 353.218 C 196.560 353.125,196.269 353.049,195.556 353.049 C 194.843 353.049,194.551 353.125,194.907 353.218 M167.135 353.599 C 167.698 353.684,168.531 353.682,168.987 353.594 C 169.442 353.506,168.981 353.436,167.963 353.439 C 166.944 353.442,166.572 353.514,167.135 353.599 M189.727 353.599 C 190.290 353.684,191.124 353.682,191.579 353.594 C 192.035 353.506,191.574 353.436,190.556 353.439 C 189.537 353.442,189.164 353.514,189.727 353.599 M175.833 353.979 C 177.310 354.049,179.727 354.049,181.204 353.979 C 182.681 353.908,181.472 353.851,178.519 353.851 C 175.565 353.851,174.356 353.908,175.833 353.979 " stroke="none" fill="#814f20" fill-rule="evenodd"></path><path id="path5" d="M317.804 176.852 C 317.804 177.056,318.042 177.639,318.333 178.148 C 318.624 178.657,318.863 178.907,318.863 178.704 C 318.863 178.500,318.624 177.917,318.333 177.407 C 318.042 176.898,317.804 176.648,317.804 176.852 M327.864 218.519 C 327.864 219.231,327.940 219.523,328.033 219.167 C 328.126 218.810,328.126 218.227,328.033 217.870 C 327.940 217.514,327.864 217.806,327.864 218.519 M327.864 226.296 C 327.864 227.009,327.940 227.301,328.033 226.944 C 328.126 226.588,328.126 226.005,328.033 225.648 C 327.940 225.292,327.864 225.583,327.864 226.296 M280.952 269.841 C 280.816 270.384,280.776 270.900,280.863 270.987 C 280.951 271.074,281.134 270.702,281.270 270.159 C 281.406 269.616,281.446 269.100,281.359 269.013 C 281.271 268.926,281.089 269.298,280.952 269.841 M273.519 287.407 C 273.203 288.019,273.027 288.519,273.129 288.519 C 273.231 288.519,273.573 288.019,273.889 287.407 C 274.205 286.796,274.380 286.296,274.278 286.296 C 274.176 286.296,273.835 286.796,273.519 287.407 M295.906 303.981 L 294.630 305.370 296.019 304.094 C 297.311 302.906,297.578 302.593,297.295 302.593 C 297.233 302.593,296.608 303.218,295.906 303.981 M260.358 305.093 L 258.333 307.222 260.463 305.198 C 262.441 303.317,262.762 302.963,262.487 302.963 C 262.429 302.963,261.471 303.921,260.358 305.093 M254.990 310.463 L 252.407 313.148 255.093 310.565 C 257.587 308.167,257.947 307.778,257.675 307.778 C 257.619 307.778,256.411 308.986,254.990 310.463 M290.358 309.907 L 288.333 312.037 290.463 310.013 C 292.441 308.132,292.762 307.778,292.487 307.778 C 292.429 307.778,291.471 308.736,290.358 309.907 M259.537 332.804 C 258.152 333.556,258.237 333.868,259.630 333.148 C 260.241 332.832,260.741 332.495,260.741 332.398 C 260.741 332.160,260.701 332.173,259.537 332.804 M170.282 353.595 C 170.743 353.684,171.409 353.681,171.764 353.588 C 172.118 353.495,171.741 353.423,170.926 353.427 C 170.111 353.431,169.821 353.507,170.282 353.595 M186.019 353.599 C 186.579 353.683,187.495 353.683,188.056 353.599 C 188.616 353.514,188.157 353.444,187.037 353.444 C 185.917 353.444,185.458 353.514,186.019 353.599 " stroke="none" fill="#a28610" fill-rule="evenodd"></path><path id="path6" d="M145.528 48.056 L 144.630 49.074 145.648 48.176 L 146.667 47.278 146.693 67.065 C 146.708 78.740,146.863 87.156,147.071 87.593 C 147.377 88.238,147.398 88.214,147.235 87.407 C 147.132 86.898,147.045 77.606,147.042 66.759 C 147.039 55.912,146.899 47.037,146.731 47.037 C 146.563 47.037,146.021 47.495,145.528 48.056 M139.616 53.363 L 136.481 56.355 139.722 53.469 C 142.710 50.809,143.153 50.370,142.856 50.370 C 142.798 50.370,141.339 51.717,139.616 53.363 M131.852 60.449 C 130.324 61.899,129.574 62.737,130.185 62.312 C 131.259 61.566,135.149 57.760,134.801 57.795 C 134.707 57.805,133.380 58.999,131.852 60.449 M127.199 64.907 L 126.111 66.111 127.315 65.023 C 128.437 64.009,128.689 63.704,128.403 63.704 C 128.339 63.704,127.797 64.245,127.199 64.907 M124.074 67.593 C 123.174 68.509,122.522 69.259,122.624 69.259 C 122.725 69.259,123.545 68.509,124.444 67.593 C 125.344 66.676,125.997 65.926,125.895 65.926 C 125.793 65.926,124.974 66.676,124.074 67.593 M117.326 73.796 C 114.793 76.264,114.695 76.393,116.817 74.469 C 120.821 70.838,120.921 70.741,120.684 70.741 C 120.562 70.741,119.051 72.116,117.326 73.796 M108.333 82.092 L 103.889 86.382 108.426 82.223 C 112.418 78.565,113.244 77.740,112.870 77.790 C 112.819 77.797,110.778 79.733,108.333 82.092 M99.259 90.422 L 95.000 94.526 99.175 90.732 C 102.930 87.321,103.984 86.275,103.633 86.307 C 103.570 86.313,101.602 88.164,99.259 90.422 M147.857 89.232 C 148.149 89.726,148.792 90.372,149.286 90.666 L 150.185 91.202 149.363 90.508 C 148.911 90.127,148.267 89.481,147.933 89.074 C 147.354 88.368,147.351 88.375,147.857 89.232 M172.862 92.119 C 173.520 92.201,174.686 92.202,175.455 92.122 C 176.223 92.042,175.685 91.975,174.259 91.973 C 172.833 91.972,172.205 92.037,172.862 92.119 M94.027 95.060 C 93.747 95.399,90.644 98.239,87.130 101.371 C 83.616 104.503,80.741 107.176,80.741 107.312 C 80.741 107.447,81.366 106.967,82.130 106.244 C 82.894 105.522,85.769 102.926,88.519 100.476 C 93.395 96.132,95.133 94.444,94.732 94.444 C 94.624 94.444,94.306 94.722,94.027 95.060 M75.926 111.529 L 72.778 114.523 75.839 111.847 C 78.575 109.455,79.537 108.501,79.189 108.527 C 79.126 108.532,77.657 109.883,75.926 111.529 M69.095 117.599 C 68.088 118.502,67.348 119.324,67.451 119.426 C 67.553 119.529,68.454 118.783,69.453 117.769 C 71.694 115.494,71.531 115.417,69.095 117.599 M65.536 121.019 L 64.259 122.407 65.648 121.131 C 66.941 119.943,67.207 119.630,66.925 119.630 C 66.863 119.630,66.238 120.255,65.536 121.019 M60.809 125.301 L 58.866 127.268 61.192 129.468 C 63.241 131.404,70.993 138.387,74.907 141.821 C 75.671 142.491,76.296 142.963,76.296 142.869 C 76.296 142.775,72.445 139.239,67.738 135.012 L 59.180 127.326 61.151 125.330 C 62.236 124.232,63.040 123.333,62.938 123.333 C 62.836 123.333,61.878 124.219,60.809 125.301 M77.037 143.433 C 77.037 143.532,78.653 145.091,80.628 146.899 C 82.603 148.706,84.106 149.998,83.968 149.768 C 83.647 149.235,77.037 143.193,77.037 143.433 M85.143 150.842 C 85.785 151.657,91.481 156.808,91.481 156.573 C 91.481 156.478,89.940 155.003,88.056 153.294 C 86.171 151.586,84.861 150.482,85.143 150.842 M93.333 158.290 C 94.449 159.548,99.259 163.856,99.259 163.597 C 99.259 163.496,97.718 162.026,95.833 160.330 C 93.949 158.634,92.824 157.716,93.333 158.290 M150.138 159.229 C 149.298 159.611,148.477 160.139,148.313 160.403 C 148.150 160.666,148.672 160.475,149.471 159.978 C 150.891 159.096,151.160 159.069,160.556 158.874 L 170.185 158.674 160.926 158.604 C 152.574 158.542,151.517 158.603,150.138 159.229 M171.759 159.157 C 172.421 159.239,173.505 159.239,174.167 159.157 C 174.829 159.075,174.287 159.007,172.963 159.007 C 171.639 159.007,171.097 159.075,171.759 159.157 M176.759 159.525 C 177.319 159.609,178.236 159.609,178.796 159.525 C 179.356 159.440,178.898 159.370,177.778 159.370 C 176.657 159.370,176.199 159.440,176.759 159.525 M181.023 159.892 C 181.484 159.980,182.150 159.977,182.504 159.884 C 182.858 159.791,182.481 159.719,181.667 159.723 C 180.852 159.727,180.562 159.803,181.023 159.892 M183.986 160.262 C 184.447 160.351,185.113 160.347,185.467 160.254 C 185.821 160.162,185.444 160.089,184.630 160.093 C 183.815 160.098,183.525 160.173,183.986 160.262 M147.396 161.872 C 147.172 162.291,147.044 162.798,147.111 163.000 C 147.178 163.201,147.424 162.858,147.658 162.238 C 148.145 160.949,147.999 160.746,147.396 161.872 M146.829 173.889 C 146.830 179.593,146.881 181.874,146.944 178.959 C 147.006 176.044,147.006 171.377,146.943 168.589 C 146.881 165.800,146.829 168.185,146.829 173.889 M101.667 165.887 C 102.879 167.217,106.296 170.176,106.296 169.895 C 106.296 169.799,105.005 168.584,103.426 167.194 C 101.847 165.804,101.056 165.216,101.667 165.887 M109.815 173.161 C 112.465 175.725,114.309 177.330,113.728 176.566 C 113.454 176.205,112.045 174.889,110.596 173.640 C 108.678 171.986,108.466 171.856,109.815 173.161 M115.926 178.605 C 115.926 178.695,117.384 180.081,119.167 181.686 C 120.949 183.290,122.074 184.215,121.667 183.741 C 120.788 182.720,115.926 178.370,115.926 178.605 M123.704 185.650 C 123.704 185.744,125.245 187.220,127.130 188.928 C 129.014 190.636,130.324 191.740,130.042 191.381 C 129.400 190.565,123.704 185.414,123.704 185.650 M147.037 198.927 L 147.037 206.743 144.382 204.390 C 142.921 203.096,139.213 199.732,136.141 196.914 C 133.069 194.096,132.222 193.402,134.259 195.372 C 138.620 199.589,146.577 206.798,147.066 206.975 C 147.268 207.048,147.407 203.822,147.407 199.105 C 147.407 194.708,147.324 191.111,147.222 191.111 C 147.120 191.111,147.037 194.628,147.037 198.927 " stroke="none" fill="#370a5d" fill-rule="evenodd"></path><path id="path7" d="M253.704 112.018 C 253.704 112.120,254.204 112.462,254.815 112.778 C 255.426 113.094,255.926 113.269,255.926 113.167 C 255.926 113.065,255.426 112.723,254.815 112.407 C 254.204 112.091,253.704 111.916,253.704 112.018 M303.889 132.963 C 304.685 133.778,305.419 134.444,305.521 134.444 C 305.623 134.444,305.055 133.778,304.259 132.963 C 303.464 132.148,302.729 131.481,302.627 131.481 C 302.526 131.481,303.093 132.148,303.889 132.963 M285.556 133.889 C 286.247 134.602,286.895 135.185,286.997 135.185 C 287.099 135.185,286.617 134.602,285.926 133.889 C 285.235 133.176,284.586 132.593,284.484 132.593 C 284.382 132.593,284.865 133.176,285.556 133.889 M293.889 141.852 C 294.685 142.667,295.419 143.333,295.521 143.333 C 295.623 143.333,295.055 142.667,294.259 141.852 C 293.464 141.037,292.729 140.370,292.627 140.370 C 292.526 140.370,293.093 141.037,293.889 141.852 M315.741 172.222 C 316.057 172.833,316.399 173.333,316.501 173.333 C 316.602 173.333,316.427 172.833,316.111 172.222 C 315.795 171.611,315.453 171.111,315.351 171.111 C 315.249 171.111,315.425 171.611,315.741 172.222 M168.889 172.237 C 168.460 172.525,168.563 172.583,169.338 172.492 C 169.890 172.427,170.460 172.256,170.603 172.113 C 171.008 171.708,169.514 171.816,168.889 172.237 M226.327 172.364 C 226.704 172.709,231.111 174.806,231.111 174.640 C 231.111 174.433,226.832 172.222,226.430 172.222 C 226.289 172.222,226.242 172.286,226.327 172.364 M331.296 173.704 C 331.612 174.315,331.954 174.815,332.056 174.815 C 332.158 174.815,331.983 174.315,331.667 173.704 C 331.351 173.093,331.009 172.593,330.907 172.593 C 330.805 172.593,330.980 173.093,331.296 173.704 M249.074 202.458 C 249.278 202.637,250.027 203.282,250.739 203.892 L 252.034 205.000 251.110 203.947 C 250.601 203.369,249.852 202.723,249.444 202.513 C 249.037 202.303,248.870 202.278,249.074 202.458 M283.842 249.074 C 283.843 251.315,283.904 252.184,283.978 251.005 C 284.052 249.826,284.051 247.993,283.976 246.931 C 283.902 245.869,283.841 246.833,283.842 249.074 M276.667 280.741 C 276.251 281.556,275.994 282.222,276.096 282.222 C 276.198 282.222,276.621 281.556,277.037 280.741 C 277.453 279.926,277.709 279.259,277.608 279.259 C 277.506 279.259,277.082 279.926,276.667 280.741 M314.815 301.111 C 314.380 301.722,314.107 302.222,314.209 302.222 C 314.311 302.222,314.750 301.722,315.185 301.111 C 315.620 300.500,315.893 300.000,315.791 300.000 C 315.689 300.000,315.250 300.500,314.815 301.111 M295.723 304.537 L 294.259 306.111 295.833 304.647 C 296.699 303.842,297.407 303.133,297.407 303.073 C 297.407 302.793,297.085 303.073,295.723 304.537 M260.350 304.722 L 259.074 306.111 260.463 304.835 C 261.756 303.647,262.022 303.333,261.739 303.333 C 261.677 303.333,261.052 303.958,260.350 304.722 M312.014 304.693 C 311.443 305.441,311.166 305.936,311.397 305.793 C 311.871 305.500,313.475 303.333,313.217 303.333 C 313.126 303.333,312.584 303.945,312.014 304.693 M307.778 310.034 C 307.065 310.652,306.817 310.997,307.226 310.799 C 307.902 310.472,309.582 308.875,309.224 308.899 C 309.142 308.904,308.491 309.415,307.778 310.034 M253.875 311.204 L 252.037 313.148 253.981 311.310 C 255.051 310.299,255.926 309.424,255.926 309.366 C 255.926 309.089,255.583 309.397,253.875 311.204 M289.980 310.648 L 288.704 312.037 290.093 310.761 C 291.385 309.573,291.652 309.259,291.369 309.259 C 291.307 309.259,290.682 309.884,289.980 310.648 M291.453 326.165 L 290.556 327.144 291.574 326.492 C 292.134 326.134,292.593 325.693,292.593 325.513 C 292.593 325.009,292.424 325.106,291.453 326.165 M156.990 348.796 C 156.544 349.364,156.552 349.390,157.051 349.001 C 157.365 348.757,158.698 348.498,160.014 348.424 L 162.407 348.291 159.953 348.220 C 157.998 348.163,157.395 348.280,156.990 348.796 M185.648 353.959 C 186.005 354.052,186.588 354.052,186.944 353.959 C 187.301 353.866,187.009 353.790,186.296 353.790 C 185.583 353.790,185.292 353.866,185.648 353.959 M186.814 366.975 C 186.994 367.267,189.259 367.114,189.259 366.810 C 189.259 366.731,188.666 366.667,187.941 366.667 C 187.216 366.667,186.709 366.806,186.814 366.975 " stroke="none" fill="#462a0f" fill-rule="evenodd"></path><path id="path8" d="M260.741 195.671 C 260.741 195.735,261.282 196.277,261.944 196.875 L 263.148 197.963 262.060 196.759 C 261.046 195.637,260.741 195.385,260.741 195.671 " stroke="none" fill="#57480e" fill-rule="evenodd"></path></g></svg>