<svg width="400" height="400" version="1.1" viewBox="0 0 400 400" xmlns="http://www.w3.org/2000/svg">
<g fill-rule="evenodd">
<path d="m123 52c-42 6.5-69 43-62 84 6.6 38 45 64 83 57 51-9 76-67 48-110-14-22-44-35-70-31m20 12c37 6.4 58 46 44 81-0.78 1.9-1.5 3.8-1.5 4.1-0.062 0.3-0.2 0.64-0.32 0.74-0.11 0.1-0.76 1.1-1.4 2.2-17 27-49 37-77 24-37-17-46-67-17-95 14-14 34-20 53-17m186 31c-0.42 0.39-1.9 2.3-3.4 4.2-1.4 1.9-4.6 6-7.1 9.2-5.2 6.7-4.9 5.9-2.9 7 6.2 3.5 21 14 28 21 3.1 2.7 3.3 2.9 3.8 2.2 0.28-0.38 1.6-2.1 3-3.8 14-18 14-17-10-34-7.9-5.8-10-6.9-12-5.6m-40 53c-2.6 3.3-6.9 9-12 16-1.4 1.9-5.1 6.6-8.1 10s-6.6 8.6-8 10c-1.4 1.8-3.4 4.5-4.5 5.9-1.1 1.5-4.9 6.5-8.4 11-3.5 4.7-7.1 9.4-7.9 11-0.85 1.1-2.8 3.7-4.3 5.7-3.6 4.7-17 22-22 29-2.2 2.9-4.9 6.4-6 7.8s-3.4 4.4-5.1 6.5c-3.3 4.2-3.8 5.2-3.8 7.2 0 2.3 0.93 2.5 7.2 2.1 9.9-0.7 11 0.46 12 12 0.54 6.5-0.14 5.9 8.1 6.5 4.2 0.3 6.8 0.61 8 0.92l1.2 0.3 5.7-7.8c3.1-4.3 6.2-8.5 6.9-9.3 0.66-0.85 5-6.7 9.7-13 4.7-6.3 11-15 15-20 3.6-4.8 8.8-12 11-15 2.7-3.7 5.8-7.8 6.9-9.3 2.2-2.9 20-26 24-32 1.6-2.1 4.4-5.9 6.3-8.5 2.8-3.8 3.3-4.6 2.9-5-0.28-0.26-2.5-2.3-5-4.5-2.4-2.2-4.9-4.4-5.4-4.9-5-4.6-14-11-21-15l-1.1-0.55-2.6 3.4m33 24c-0.13 0.2-0.045 0.37 0.18 0.37 0.48 0-0.76 1.8-1.2 1.8-0.18 6e-3 -0.12-0.24 0.14-0.54 0.37-0.44 0.37-0.56 0-0.56-0.34 0-0.36-0.13-0.049-0.5 0.23-0.27 0.3-0.61 0.17-0.74s0.044-0.24 0.4-0.24c0.35 0 0.54 0.17 0.41 0.37m-217 33c0 0.056-0.83 3.2-1.8 6.9-1 3.8-1.8 6.9-1.7 6.9 0.26 0.26 19 4.7 19 4.5 0-0.067 0.66-3.4 1.5-7.3s1.4-7.2 1.4-7.3c-0.25-0.25-18-3.9-18-3.7m183 4.3c-0.55 0.19-0.82-0.19-0.51-0.7 0.2-0.32 0.35-0.3 0.58 0.068 0.18 0.3 0.16 0.56-0.07 0.63m-191 23c-0.92 4.3-6.2 25-7.1 28-0.58 1.8-2.2 7.4-3.7 12-1.5 5-3.4 11-4.3 14-4 13-7.7 29-7.7 34 0 9.4 6.4 16 15 15 11-1.5 15-9.8 19-41 0.32-2.3 0.81-5.7 1.1-7.6 0.29-1.8 0.88-5.6 1.3-8.3s1.1-6.8 1.5-9.1c2.4-13 5.7-34 5.4-34-0.2-0.13-1-0.35-1.9-0.48s-5.2-1.1-9.6-2.3c-4.4-1.1-8.2-2-8.4-2-0.17 0-0.49 0.79-0.7 1.8m160 24c0.03 0.92-0.11 1.3-0.53 1.2-0.31-0.013-0.74 0.02-0.94 0.073-0.84 0.22-1.2-0.033-1.2-0.73 0.031-0.41 0.29-0.74 0.57-0.74 0.31 0 0.43 0.22 0.3 0.56-0.12 0.3-0.052 0.56 0.14 0.56 0.48 0 0.45-0.61-0.055-1.6-0.35-0.65-0.32-0.74 0.17-0.55 0.32 0.12 0.69 0.054 0.82-0.15 0.37-0.6 0.65-0.067 0.7 1.3m1.2-0.53c-0.11 0.41-0.048 0.74 0.13 0.74 0.18 0 0.22 0.26 0.1 0.58-0.36 0.94-0.99-0.028-0.72-1.1 0.13-0.52 0.34-0.95 0.46-0.95 0.12 0 0.14 0.33 0.028 0.74m-9 8.3c0.11 0.3 0.056 0.64-0.13 0.75s-0.24 0.46-0.13 0.76c0.15 0.39 0.037 0.48-0.4 0.32-0.48-0.18-0.51-0.35-0.17-0.75 0.5-0.6 0.21-1.1-0.42-0.68-0.23 0.14-0.33 0.64-0.22 1.1 0.16 0.63-9e-3 0.93-0.71 1.2-0.56 0.26-0.92 0.28-0.92 0.056 0-0.2 0.27-0.36 0.6-0.36 0.4 0 0.52-0.2 0.36-0.61-0.14-0.37 0.083-0.95 0.58-1.5 0.95-1 1.3-1.1 1.6-0.32m-7.7 9.8c0.36-0.3 0.53-0.31 0.53-0.035 0 1-1.5 1.3-2.4 0.42-0.67-0.7-0.69-0.79-0.13-0.6 0.43 0.15 0.75 8e-3 0.92-0.41 0.22-0.54 0.28-0.51 0.38 0.21 0.1 0.69 0.22 0.77 0.65 0.42m-1.1 1.7c0.32 0.32 0.46 0.68 0.33 0.81-0.13 0.13-0.61-0.13-1.1-0.57-0.49-0.49-0.62-0.81-0.33-0.81 0.26 0 0.74 0.26 1.1 0.57m0.27 1.6c0.11 0.18-0.13 0.42-0.53 0.52-0.48 0.12-0.74 9e-3 -0.74-0.33 0-0.57 0.95-0.72 1.3-0.19m-39 4c0.36 0.093 0.94 0.093 1.3 0 0.36-0.093 0.064-0.17-0.65-0.17-0.71 0-1 0.076-0.65 0.17m32 2.3c0.31 0.49 0.33 0.74 0.062 0.74-0.55 0-1.5-0.97-1.2-1.3 0.38-0.38 0.65-0.26 1.1 0.51m-1.6 1.6c-0.11 0.29-0.44 0.44-0.73 0.33-0.63-0.24-0.33-0.86 0.41-0.86 0.3 0 0.44 0.22 0.32 0.53m-19 12c-1.3 1.5-14 13-15 14-1 0.85-2 1.6-2.1 1.8-0.1 0.13-0.88 0.6-1.7 1l-1.6 0.81 1.5 1.9c0.8 1.1 1.5 2 1.5 2.2 4e-3 0.66 1.1 6e-3 7.7-4.6 3.8-2.7 8.5-5.9 10-7.2 7.5-5.2 12-8.2 11-8.5-0.15-0.16 0.027-0.19 0.38-0.059 0.36 0.13 0.65 0.06 0.65-0.15 0-0.25-1.3-0.34-3.7-0.27-2 0.064-3.6-8e-3 -3.5-0.16 0.15-0.24-1-0.43-2.4-0.38-0.26 9e-3 -0.46-0.1-0.46-0.25 0-0.77-2.2-1.3-2.8-0.65m-12 1.6c0 0.41 0.16 0.99 0.36 1.3 0.3 0.46 0.36 0.43 0.36-0.18 0-0.41-0.16-0.99-0.36-1.3-0.3-0.46-0.36-0.43-0.36 0.18" fill="#eb760c"/>
<path d="m125 75c-43 6.8-57 64-20 88 35 24 82-6.7 75-49-4.3-26-28-43-54-39m15 1.1c-0.11 0.28-0.037 0.67 0.16 0.86 0.87 0.87-0.072 1.6-1.1 0.84-0.52-0.41-1.2-0.74-1.5-0.74-0.29 0-0.43-0.16-0.31-0.35s0.5-0.28 0.86-0.18 0.14-0.071-0.48-0.37l-1.1-0.54 1.8-0.016c1.4-0.013 1.8 0.1 1.6 0.49m-4.8 1.2c-0.084 0.084-0.56 0.22-1.1 0.29-1 0.15-0.91 0.74 0.13 0.82 0.93 0.069 1.4 0.68 1.2 1.4-0.45 1.2-3.3 0.57-3.2-0.67 0.11-1.4 0.65-1.9 2-2 0.63-0.018 1.1 0.036 1 0.12m14 1.2c-0.14 0.86 0.14 1.2 0.97 1.2 0.6 0 0.93 0.21 0.93 0.58 0 0.44 0.32 0.56 1.3 0.47 0.7-0.061 1.4 0.01 1.5 0.16 0.15 0.15-0.062 0.27-0.46 0.27-0.45 0-0.88 0.39-1.1 1-0.36 0.91-0.41 0.93-0.44 0.21-0.022-0.45-0.36-0.91-0.75-1-0.39-0.12-0.8-0.48-0.92-0.79-0.12-0.31-0.38-0.46-0.59-0.33s-0.37 0.054-0.37-0.16c0-0.22-0.18-0.39-0.4-0.39-0.22 0-0.31 0.36-0.19 0.83 0.11 0.46 0.1 0.61-0.02 0.33-0.19-0.43-0.28-0.43-0.59 0-0.26 0.36-0.28 0.3-0.093-0.24 0.15-0.41 0.35-1.1 0.45-1.6 0.16-0.74 0.9-1.3 0.79-0.56m-28 1.6c0 1.3-0.46 2.1-0.78 1.3-0.24-0.62-0.28-0.63-0.31-0.066-0.014 0.36-0.19 0.65-0.38 0.65-0.2 0-0.25-0.28-0.12-0.62 0.16-0.41 0.095-0.53-0.2-0.35-0.24 0.15-0.43 0.51-0.43 0.8 0 0.33-0.37 0.53-0.97 0.53-0.87 0-0.94-0.1-0.72-1 0.35-1.4 0.75-1.7 2.2-1.7 0.82 0.023 1.2-0.11 1.1-0.35-0.14-0.23-0.065-0.28 0.19-0.13 0.24 0.14 0.43 0.57 0.43 0.95m25 0.99c-0.33 0.33-0.99-0.23-0.99-0.84 0-0.48 0.082-0.48 0.6 0.04 0.33 0.33 0.51 0.69 0.4 0.8m7.2 1.8c0 0.57-0.78 0.96-1.9 0.96-0.71 0-0.71-0.037 0.12-0.73 1-0.86 1.8-0.96 1.8-0.24m-47 1.3c-1 0.84-0.27 2.1 1 1.7 0.96-0.34 0.55-0.021-1.2 0.93-1.2 0.67-1.3 0.69-0.66 0.11 0.87-0.75 0.78-1.3-0.16-0.9-0.38 0.15-0.51 0.047-0.39-0.3 0.1-0.29 0.035-0.92-0.15-1.4-0.28-0.76-0.25-0.82 0.21-0.44 0.44 0.36 0.62 0.3 0.97-0.36 0.3-0.57 0.55-0.69 0.83-0.41s0.14 0.6-0.48 1.1m48 0.97c-0.42 0.3-0.53 0.64-0.32 0.98 0.26 0.44 0.22 0.44-0.29 0.031-0.64-0.52 0.23-2 0.94-1.6 0.16 0.089 0.015 0.37-0.33 0.63m7.8 3.9c0.29 0 0.52 0.25 0.52 0.56 0 0.3 0.19 0.56 0.42 0.56 0.28 0 0.35 0.51 0.22 1.5-0.11 0.84-0.044 1.5 0.16 1.5 0.2 0 0.25-0.17 0.13-0.37s-0.15-0.37-0.052-0.37 0.48-0.11 0.86-0.25c0.64-0.24 0.64-0.2-0.027 0.56-0.98 1.1-3 0.47-2.2-0.73 0.16-0.27 0.1-0.33-0.16-0.17-0.78 0.48-2.3-1.6-1.8-2.4 0.24-0.39 0.67-0.63 0.94-0.52 0.27 0.1 0.73 0.19 1 0.19m5.3 4.6c0 0.29-0.2 0.65-0.43 0.8-0.29 0.18-0.36 0.068-0.21-0.32 0.12-0.33 0.028-0.67-0.22-0.77s-0.15-0.19 0.21-0.21c0.36-0.017 0.65 0.21 0.65 0.5m1.4 1.8c0.62-0.21 1 0.63 0.54 1.1-0.29 0.29-0.41 0.29-0.41 0.011 0-0.22-0.33-0.49-0.74-0.6-0.41-0.11-0.74-0.5-0.73-0.88 0.011-0.61 0.059-0.62 0.46-0.094 0.25 0.32 0.64 0.52 0.88 0.44m-78 2.3c-0.42 0.51-0.36 0.55 0.48 0.34 1.4-0.35 1.9 0.8 1.1 2.3-0.73 1.2-2.6 1.7-2.6 0.7 0-0.3 0.16-0.55 0.36-0.55s0.25-0.28 0.12-0.63c-0.15-0.39-0.3-0.46-0.39-0.18-0.081 0.24-0.31 0.44-0.51 0.44s0.012-0.67 0.47-1.5 0.99-1.5 1.2-1.5 0.13 0.26-0.13 0.58m81 3.6c1-0.11 2 1.1 1.1 1.4-0.26 0.088-0.27 0.35-0.02 0.82 0.24 0.46 0.24 0.76-3e-3 0.92-0.2 0.13-0.37 0.077-0.37-0.11s-0.38-0.75-0.83-1.3c-1.8-2-2.4-2.7-1.6-2.2 0.38 0.3 1.2 0.49 1.7 0.43m-86 8.7c-0.5 0.95-0.52 0.96-0.72 0.2-0.14-0.52-0.063-0.72 0.22-0.58 0.24 0.12 0.095-0.056-0.31-0.38-0.61-0.49-0.65-0.66-0.22-0.92 0.96-0.59 1.6 0.52 1 1.7m-1.7 1.3c-0.77 0.75-0.75 0.76-0.53-0.7 0.17-1.1 0.23-1.2 0.67-0.56 0.4 0.55 0.38 0.76-0.14 1.3m0.68 1.4c0 0.15-0.21 0.57-0.48 0.93-0.42 0.58-0.6-0.38-0.3-1.6 0.059-0.22 0.77 0.35 0.77 0.62m92 1.2c0.11 0.48 0.27 1.7 0.35 2.7 0.14 1.8 0.13 1.8-0.38-0.56-0.29-1.3-0.53-2.6-0.55-2.9-0.033-0.76 0.34-0.28 0.58 0.75m-93 4.7c-4e-3 0.74-0.096 0.88-0.34 0.5-0.18-0.29-0.24-0.75-0.14-1 0.3-0.78 0.48-0.58 0.48 0.52" fill="#26b3d0"/>
<path d="m126 36c-0.61 0.18-2.6 0.42-4.4 0.55-1.8 0.13-3.2 0.35-3.2 0.5 0 0.14-0.62 0.2-1.4 0.13-1.1-0.11-1.3-0.048-0.83 0.29 0.44 0.34 0.3 0.38-0.67 0.22-0.86-0.15-1.1-0.086-0.96 0.21 0.18 0.29-0.028 0.35-0.67 0.19-0.51-0.13-1-0.12-1.2 0.017s-1.1 0.3-2.2 0.36c-1.1 0.063-2 0.32-2.2 0.58s-0.3 0.34-0.3 0.2c-3e-3 -0.14-0.67-0.026-1.5 0.26-0.82 0.29-1.5 0.46-1.5 0.38s-0.44 0.08-0.97 0.36c-0.53 0.28-1.2 0.42-1.5 0.31-0.28-0.11-0.51-0.016-0.51 0.2 0 0.22-0.28 0.29-0.62 0.16-0.41-0.16-0.53-0.094-0.35 0.19 0.17 0.28 0.066 0.35-0.31 0.21-0.32-0.12-0.58-0.027-0.58 0.21s-0.17 0.33-0.37 0.2-0.37-0.041-0.37 0.19c0 0.25-0.3 0.32-0.74 0.18-0.44-0.14-0.74-0.067-0.74 0.18 0 0.23-0.15 0.32-0.34 0.21-0.19-0.12-0.6 0.053-0.93 0.38s-0.59 0.46-0.59 0.32-0.29-0.021-0.65 0.28c-0.74 0.63-3.1 1.6-3.5 1.5-0.15-0.049-0.28 0.11-0.28 0.34 0 0.24-0.1 0.33-0.22 0.21-0.12-0.12-0.56 0.09-0.98 0.48-0.41 0.38-1.2 0.8-1.8 0.93-0.57 0.12-1.2 0.45-1.4 0.72-0.23 0.27-0.83 0.6-1.3 0.73-0.51 0.13-0.84 0.38-0.73 0.55 0.26 0.42-0.86 0.84-1.4 0.53-0.24-0.15-0.28-0.067-0.11 0.21 0.18 0.29-3e-3 0.53-0.5 0.66-0.43 0.11-0.78 0.36-0.78 0.55s-0.13 0.27-0.3 0.17c-0.16-0.1-1.1 0.47-2.1 1.3-1 0.8-2 1.5-2.3 1.5-0.23 3e-3 -0.69 0.42-1 0.93-0.33 0.51-0.74 0.88-0.9 0.83-0.17-0.049-1.4 0.99-2.8 2.3s-2.7 2.4-2.9 2.3-0.29 0.05-0.17 0.24c0.11 0.19-0.04 0.54-0.34 0.8-0.3 0.25-0.55 0.33-0.55 0.17s-0.33 0.014-0.74 0.38c-0.41 0.37-0.74 0.83-0.74 1 0 0.36-1.7 2.2-4.8 5.4-0.92 0.92-1.3 1.5-0.93 1.2 0.41-0.26 0.16 0.051-0.54 0.68-0.7 0.63-1.1 1.2-0.92 1.2 0.21 4e-3 0.2 0.12-0.023 0.28-0.44 0.31-1.7 2.2-1.7 2.5 0.011 0.11-0.2 0.44-0.46 0.73-1.1 1.2-1.4 1.7-1.2 1.7 0.12 0 0 0.23-0.26 0.52-0.26 0.28-0.6 0.44-0.75 0.35s-0.18 0.091-0.054 0.41c0.13 0.34-0.025 0.66-0.37 0.8-0.32 0.12-0.51 0.36-0.41 0.52 0.1 0.16-0.078 0.39-0.4 0.51-0.32 0.12-0.47 0.39-0.35 0.59s0.044 0.37-0.18 0.37c-0.23 0-0.31 0.17-0.18 0.37 0.13 0.2 0.053 0.37-0.16 0.37s-0.37 0.12-0.35 0.28c0.11 0.71-0.075 1.2-0.38 1-0.18-0.11-0.43 0.053-0.55 0.37-0.14 0.36-0.068 0.48 0.18 0.32 0.29-0.18 0.28-0.026-6e-3 0.52-0.22 0.42-0.58 0.87-0.78 1s-0.28 0.39-0.16 0.58c0.12 0.19 0.027 0.34-0.2 0.34s-0.31 0.17-0.18 0.37c0.13 0.2 0.042 0.37-0.19 0.37-0.23 0-0.32 0.15-0.21 0.33 0.11 0.18-0.29 0.89-0.9 1.6-0.61 0.69-1 1.5-0.93 1.7s-0.01 0.46-0.23 0.46-0.3 0.26-0.18 0.58c0.14 0.38 0.072 0.48-0.21 0.31-0.28-0.18-0.35-0.063-0.2 0.33 0.12 0.32 0.055 0.65-0.16 0.72s-0.41 0.58-0.44 1.1c-0.032 0.55-0.19 1-0.36 1-0.16 0-0.19 0.18-0.056 0.39 0.13 0.22-0.019 0.68-0.34 1-0.32 0.35-0.66 1.1-0.75 1.6-0.092 0.5-0.19 0.91-0.22 0.91s-0.1 0.33-0.16 0.74c-0.054 0.41-0.45 1.9-0.89 3.2-0.43 1.4-0.89 3.3-1 4.3-0.13 0.96-0.45 2.9-0.71 4.2s-0.33 2.5-0.15 2.5c0.48 0 0.4 1-0.088 1.2-0.23 0.076-0.45 0.88-0.49 1.8-0.043 0.91-0.2 1.9-0.34 2.2-0.29 0.64-0.095 11 0.24 13 0.11 0.71 0.39 2.6 0.61 4.3 0.55 4 0.67 4.6 1.7 8.9 1.3 5.5 2.9 11 3.2 10 0.17-0.1 0.21 0.052 0.099 0.34-0.11 0.29 0.029 0.76 0.31 1 0.28 0.28 0.44 0.72 0.36 0.97-0.084 0.25 0.038 0.46 0.27 0.46 0.23 0 0.32 0.17 0.19 0.37-0.12 0.2-0.063 0.37 0.14 0.37 0.3 0 0.83 1 0.97 1.9 0.09 0.56 3 6.2 3.3 6.4 0.25 0.18 0.25 0.28 8e-3 0.28-0.2 6e-3 -0.13 0.16 0.16 0.35 0.29 0.18 0.57 0.61 0.62 0.94 0.12 0.85 1.2 2.4 1.7 2.4 0.21 0 0.28 0.17 0.15 0.37s0.015 0.47 0.32 0.58 0.65 0.61 0.77 1.1c0.12 0.49 0.38 0.9 0.57 0.9s0.62 0.58 0.96 1.3c0.34 0.71 0.73 1.2 0.88 1.1 0.15-0.09 0.55 0.48 0.89 1.3s0.96 1.5 1.4 1.6c0.4 0.11 0.73 0.38 0.73 0.62 0 0.24-0.2 0.31-0.46 0.16-0.26-0.15-0.15 0.087 0.24 0.52 0.38 0.44 0.84 0.71 1 0.6s0.44 0.097 0.58 0.46c0.14 0.36 1.7 2.1 3.4 3.8 1.7 1.7 3.1 3.3 3.1 3.4s0.083 0.32 0.3 0.32 0.92 0.5 1.6 1.1 1.4 1.1 1.6 1.1 0.62 0.34 0.92 0.74c0.29 0.41 0.75 0.74 1 0.74 0.26 0 0.43 0.19 0.38 0.41-0.051 0.23 0.24 0.47 0.64 0.54 0.4 0.067 0.96 0.42 1.2 0.79s0.65 0.63 0.84 0.58c0.19-0.051 0.34 0.084 0.34 0.3s0.14 0.3 0.32 0.19 0.78 0.22 1.3 0.73c0.55 0.51 1.2 0.97 1.4 1 0.24 0.045 0.6 0.3 0.81 0.56 0.21 0.26 0.75 0.51 1.2 0.54 0.46 0.034 0.83 0.2 0.83 0.38 0 0.17 0.17 0.21 0.37 0.085s0.37-0.043 0.37 0.18 0.14 0.33 0.3 0.23c0.17-0.1 0.53 0.12 0.8 0.5 0.28 0.39 0.74 0.59 1.1 0.47 0.34-0.13 0.46-0.059 0.32 0.18-0.13 0.22 0.26 0.6 0.88 0.85 0.88 0.36 1.1 0.62 0.88 1.2-0.13 0.41-0.3 1.3-0.37 1.9-0.075 0.63-0.48 2.5-0.9 4.1-0.42 1.6-0.84 3.4-0.95 3.9-0.94 4.5-2.7 11-2.9 10-0.17-0.16-0.19 0.083-0.051 0.54 0.16 0.54 0.1 0.83-0.18 0.83-0.28 0-0.35 0.33-0.2 0.96 0.17 0.69 0.12 0.88-0.2 0.68-0.31-0.19-0.38-0.036-0.23 0.52 0.11 0.44 0.076 0.8-0.085 0.8-0.16 0-0.42 0.79-0.58 1.8-0.34 2.1-0.2 1.5-1.6 6.9-0.64 2.4-1.2 4.9-1.4 5.4-0.42 2.1-2.1 7.6-2.4 8-0.2 0.25-0.25 0.62-0.12 0.83 0.13 0.21 0.045 0.39-0.19 0.39-0.24 0-0.34 0.24-0.23 0.53 0.11 0.29 0.057 0.58-0.12 0.65-0.25 0.091-1.4 3.9-2 6.8-0.047 0.22-0.17 0.64-0.28 0.95-0.4 1.1-1.7 6.1-1.8 6.8-0.014 0.15-0.28 0.98-0.6 1.9-0.65 1.8-0.66 1.8-1 3.7-0.16 0.76-0.46 1.4-0.68 1.4s-0.28 0.11-0.15 0.24 0.06 0.46-0.16 0.74c-0.22 0.27-0.31 0.75-0.19 1.1 0.15 0.38 0.075 0.49-0.21 0.31-0.29-0.18-0.35-0.061-0.19 0.35 0.13 0.34 0.092 0.62-0.085 0.62-0.33 0-1.4 3.6-1.2 4.2 0.048 0.17-0.11 0.55-0.35 0.84s-0.33 0.63-0.2 0.76c0.13 0.13 0.049 0.46-0.18 0.73-0.23 0.27-0.29 0.5-0.14 0.5 0.15 0 0.12 0.21-0.077 0.46-0.2 0.26-0.57 1.5-0.83 2.7-0.26 1.2-0.95 3.9-1.5 5.9s-1.1 4.1-1.2 4.6c-0.092 0.5-0.2 1-0.24 1.1s-0.052 0.31-0.027 0.46c0.024 0.15-0.14 0.28-0.37 0.28-0.23 0-0.33 0.33-0.22 0.74 0.11 0.41 0.062 0.74-0.099 0.74-0.26 0-1.6 4.9-2 7.5-0.098 0.58-0.34 1.6-0.54 2.2-0.2 0.65-0.46 1.9-0.58 2.8s-0.36 2.3-0.54 3.1c-0.81 3.5-0.45 11 0.72 15 0.62 2.1 1.5 4.2 1.9 4.2 0.17 0 0.29 0.12 0.27 0.28-0.12 0.74 0.081 1.2 0.41 1 0.21-0.13 0.27 0.014 0.15 0.33-0.12 0.32 0.11 0.75 0.56 1 0.42 0.26 0.77 0.65 0.77 0.86 2e-3 0.46 4.4 5.6 4.8 5.6 0.15 0 0.57 0.29 0.93 0.65 0.36 0.36 0.8 0.56 0.99 0.44 0.19-0.12 0.34-0.032 0.34 0.19 0 0.33 3.3 2.1 4.6 2.5 6.7 1.9 14 2 18 0.22 0.51-0.2 1.1-0.39 1.2-0.41 0.73-0.1 2.8-1.1 3-1.5 0.14-0.23 0.41-0.32 0.6-0.2 0.19 0.12 0.45-0.056 0.58-0.39 0.13-0.33 0.46-0.51 0.74-0.41 0.28 0.11 0.51 0.034 0.51-0.16 0-0.2 0.17-0.36 0.38-0.36 0.21 0 2-1.6 4-3.6 2-2 3.4-3.5 3-3.3-0.33 0.16-0.29 0.06 0.092-0.25 0.36-0.29 0.65-0.71 0.65-0.92s0.14-0.45 0.31-0.51c0.27-0.1 2.8-5 2.8-5.5 0.13-1.1 1.5-5.2 1.8-5.2 0.17 0 0.2-0.36 0.058-0.79-0.15-0.48-0.11-0.7 0.11-0.56 0.4 0.25 0.97-2.6 0.63-3.1-0.12-0.19-0.053-0.35 0.14-0.35 0.32 0 0.81-1.9 1-3.9 0.039-0.41 0.18-1 0.32-1.3 0.14-0.33 0.22-0.74 0.17-0.93-0.044-0.18 0.027-0.75 0.16-1.3 0.13-0.51 0.31-1.7 0.4-2.6 0.092-0.92 0.26-2.2 0.37-2.8s0.28-1.7 0.37-2.4c1.2-9.1 2.8-19 3.2-20 0.21-0.43 0.28-1.1 0.14-1.6-0.16-0.5-0.089-0.78 0.19-0.78 0.28 0 0.35-0.33 0.2-0.96-0.17-0.69-0.12-0.88 0.2-0.68 0.33 0.2 0.38-0.082 0.22-1.1-0.14-0.84-0.071-1.4 0.17-1.4 0.22 0 0.31-0.41 0.21-0.93-0.097-0.51-0.023-0.93 0.16-0.93 0.19 0 0.26-0.49 0.17-1.1-0.095-0.6-0.061-1.1 0.075-1.2 0.14-0.062 0.53-2 0.88-4.4 1.5-10 2.6-17 3.8-23 0.32-1.6 0.59-3.3 0.6-3.6 7e-3 -0.36 0.19-0.65 0.4-0.65 0.22 0 0.31-0.41 0.21-0.93-0.098-0.51-0.056-0.93 0.092-0.93 0.22 0 1.5-5.9 2.1-9.6 0.32-2 0.41-2.5 0.78-3.9 0.21-0.81 0.46-2.1 0.56-2.8 0.2-1.5 1.1-6 1.9-9.8 0.32-1.4 0.52-2.9 0.46-3.3-0.11-0.65 0.15-0.71 3.4-0.75 5.2-0.062 8-0.34 11-1.2 1.7-0.41 3.9-0.86 4.7-1s1.6-0.4 1.6-0.58 0.25-0.23 0.56-0.11c0.3 0.12 0.56 0.044 0.56-0.16 0-0.21 0.36-0.28 0.8-0.17 0.58 0.15 0.72 0.082 0.51-0.26-0.21-0.34-0.082-0.4 0.5-0.22 0.46 0.14 0.79 0.089 0.79-0.13 0-0.21 0.25-0.29 0.56-0.17 0.3 0.12 0.56 0.049 0.56-0.15 0-0.2 1-0.73 2.3-1.2 1.3-0.45 2.8-1 3.3-1.3 0.53-0.28 1.1-0.41 1.2-0.28 0.13 0.13 0.24 0.033 0.24-0.22 0-0.25 0.17-0.35 0.37-0.22 0.2 0.13 0.37 0.08 0.37-0.1 0-0.18 0.21-0.33 0.46-0.33 1.1-1e-3 7-3.1 6.7-3.5-0.19-0.3-0.08-0.37 0.34-0.21 0.4 0.15 0.62 0.048 0.62-0.3 0-0.3 0.42-0.64 0.93-0.77s0.93-0.4 0.93-0.6c0-0.2 0.25-0.27 0.56-0.16 0.31 0.12 0.56 0.052 0.56-0.14 0-0.2 0.26-0.36 0.57-0.36s0.66-0.25 0.78-0.55c0.12-0.3 0.36-0.46 0.54-0.35 0.18 0.11 0.33 0.028 0.33-0.19 0-0.22 0.18-0.39 0.4-0.39s0.91-0.51 1.5-1.1c0.62-0.62 1.2-1 1.3-0.94 0.32 0.32 1.6-0.54 1.4-0.92-0.12-0.19 0.041-0.35 0.36-0.35s0.78-0.33 1-0.74c0.26-0.41 0.63-0.74 0.84-0.74s0.78-0.49 1.3-1.1 1-1 1.2-0.9 0.3-0.084 0.3-0.41 0.17-0.5 0.37-0.37c0.2 0.13 0.37 0.074 0.37-0.11 0-0.19 0.67-0.79 1.5-1.3s1.4-1.1 1.3-1.3c-0.11-0.18 0.49-0.87 1.3-1.5s2-1.9 2.6-2.6c0.57-0.79 1.2-1.4 1.3-1.4 0.17 0.021 0.36-0.26 0.43-0.63s0.56-1 1.1-1.5c0.52-0.46 0.81-0.83 0.65-0.83-0.16 0 0.059-0.31 0.5-0.69 0.44-0.38 0.8-0.87 0.8-1.1s0.22-0.53 0.48-0.7c0.69-0.43 2.1-2.6 1.9-2.8-0.11-0.11 0.15-0.4 0.58-0.62 0.43-0.23 0.7-0.56 0.59-0.73s0.066-0.41 0.38-0.53c0.32-0.12 0.48-0.37 0.37-0.56s0.053-0.43 0.37-0.56c0.32-0.12 0.47-0.39 0.35-0.59-0.13-0.2-0.067-0.37 0.13-0.37s0.56-0.58 0.79-1.3 0.61-1.3 0.83-1.3 0.3-0.1 0.18-0.22c-0.12-0.12 0.44-1.4 1.2-2.9 0.8-1.5 1.5-3 1.5-3.3s0.26-0.82 0.58-1.1c0.32-0.32 0.48-0.58 0.34-0.58s0.033-0.27 0.36-0.6 0.52-0.83 0.41-1.1-0.015-0.51 0.2-0.51 0.31-0.24 0.2-0.53c-0.11-0.29 0.02-0.71 0.29-0.94 0.42-0.35 1-2.3 1.1-3.5 0.011-0.2 0.11-0.45 0.22-0.56 0.16-0.15 1.1-2.8 1.3-3.7 0.022-0.1 0.34-1.5 0.7-3.1 0.36-1.6 0.54-3.1 0.39-3.3-0.18-0.29-0.1-0.33 0.22-0.13 0.38 0.24 0.44-0.032 0.28-1.2-0.11-0.85-0.077-1.5 0.081-1.4 0.38 0.23 0.87-4.8 0.57-5.7-0.16-0.52-0.063-0.74 0.35-0.74 0.71 0 0.78-6 0.096-8.1-0.31-0.91-0.3-1.3 0.035-1.6 0.54-0.54 0.6-4.6 0.074-4.9-0.2-0.13-0.37-1-0.37-2-6e-3 -2.7-0.41-4.7-0.81-4.1-0.21 0.31-0.26-0.12-0.11-1.2 0.18-1.3 0.13-1.5-0.19-1.1-0.33 0.44-0.38 0.26-0.23-0.83 0.11-0.82 0.038-1.4-0.18-1.4-0.23 0-0.28-0.45-0.12-1.2 0.19-0.88 0.14-1.1-0.21-0.87-0.36 0.22-0.41 6e-3 -0.23-0.9 0.17-0.84 0.11-1.1-0.18-0.93-0.26 0.16-0.32 0.096-0.15-0.18 0.15-0.24 0.098-0.66-0.12-0.92-0.22-0.26-0.32-0.84-0.24-1.3 0.085-0.44-0.02-0.81-0.23-0.81s-0.3-0.23-0.19-0.52c0.11-0.29 0.095-0.62-0.033-0.75-0.13-0.13-0.26-0.45-0.3-0.71-0.22-1.5-1.8-5.7-2.1-5.5-0.2 0.12-0.24-0.12-0.1-0.55 0.16-0.5 1e-3 -0.99-0.47-1.4-0.39-0.37-0.84-1.1-0.99-1.6-0.54-1.7-3.9-8.5-4.3-8.5-0.18 0-0.24-0.25-0.12-0.56 0.14-0.36-0.01-0.56-0.42-0.56-0.42 0-0.56-0.19-0.41-0.58 0.13-0.34-0.13-0.91-0.64-1.4-0.92-0.87-2.7-3.5-3.6-5.2-0.3-0.59-0.92-1.3-1.4-1.6-0.46-0.3-0.74-0.69-0.64-0.87 0.11-0.18-0.47-0.78-1.3-1.3s-1.5-1.2-1.5-1.5c-0.016-0.54-6.4-7.1-6.9-7.1-0.18 0-0.89-0.62-1.6-1.4s-1.1-1.1-0.99-0.83c0.13 0.3-0.17 0.11-0.68-0.44-0.5-0.55-1-0.91-1.1-0.8-0.11 0.11-0.38-0.16-0.61-0.58-0.23-0.42-0.64-0.77-0.91-0.77-0.27 0-0.7-0.25-0.96-0.55-0.25-0.3-0.59-0.47-0.75-0.37s-0.38-0.07-0.5-0.37c-0.12-0.3-0.47-0.55-0.78-0.55-0.31 0-0.57-0.18-0.57-0.39s-0.15-0.3-0.34-0.18-0.45-0.13-0.58-0.54c-0.13-0.41-0.38-0.67-0.54-0.56s-0.4-0.058-0.52-0.36c-0.12-0.31-0.46-0.45-0.78-0.33-0.37 0.14-0.57 6e-3 -0.57-0.38 0-0.33-0.12-0.58-0.28-0.55s-0.4 3e-3 -0.56-0.047c-0.15-0.049-0.42-0.11-0.58-0.14-0.17-0.026-0.6-0.34-0.96-0.7s-0.8-0.56-0.99-0.44-0.34 0.034-0.34-0.18-0.3-0.39-0.67-0.39-1-0.29-1.4-0.65c-0.72-0.64-1.4-0.91-2.3-0.94-0.25-8e-3 -0.46-0.13-0.46-0.26 0-0.3-1.9-1.3-2.3-1.2-0.15 0.036-0.28-0.096-0.28-0.29 0-0.2-0.25-0.26-0.55-0.15-0.31 0.12-0.65-0.036-0.77-0.35-0.22-0.57-1.3-0.97-3.3-1.2-0.6-0.078-1.4-0.42-1.8-0.75s-0.68-0.48-0.68-0.32c0 0.16-0.23 0.096-0.51-0.14s-1.1-0.45-1.9-0.48-1.4-0.18-1.5-0.34c-0.1-0.16-0.43-0.2-0.73-0.084-0.3 0.11-0.54 6e-3 -0.54-0.24 0-0.25-0.25-0.35-0.56-0.24-0.83 0.32-2.8-0.16-2.5-0.61 0.16-0.25-0.17-0.3-0.93-0.15-0.74 0.15-1.2 0.085-1.2-0.17 0-0.26-0.42-0.32-1.1-0.18-0.69 0.14-1.1 0.069-1.1-0.18 0-0.26-0.49-0.32-1.4-0.16-1 0.18-1.3 0.14-0.83-0.16 0.43-0.31 0.27-0.38-0.74-0.33-0.71 0.037-1.6-0.06-2-0.22-0.37-0.16-1.4-0.2-2.3-0.097-1.1 0.13-1.8 0.026-2.1-0.32-0.49-0.59-12-0.68-14-0.11m17 17c46 6.8 73 54 56 97-15 37-56 55-95 40-12-4.7-24-14-32-25-25-35-13-86 26-105 10-5.2 15-6.6 28-8.1 2.4-0.28 13 0.18 17 0.73m-20 12c-18 3.2-31 12-41 26-22 33-5 80 34 90 46 12 86-31 71-77-8.4-26-38-43-64-38m17 10c35 6.1 52 46 32 76-23 34-76 25-87-15-8.8-34 21-67 55-61m188 6.4c-1e-3 0.14-0.73 0.27-1.6 0.3-2.6 0.093-4.4 1.3-7.5 5.2-0.64 0.79-1.6 2-2.1 2.6-0.53 0.64-0.97 1.3-0.97 1.5s-0.34 0.53-0.76 0.79-0.66 0.63-0.53 0.83c0.12 0.2 0.065 0.36-0.13 0.36-0.4 0-3.4 3.9-3.4 4.4 0 0.19-0.25 0.44-0.56 0.56-0.31 0.12-0.56 0.39-0.56 0.61 0 0.42-0.4 0.97-1.8 2.5-1.5 1.7-4.6 5.7-4.3 5.7 0.26 0-1.8 2.5-4 5-0.74 0.8-1.3 1.7-1.3 1.9 0 0.26-0.3 0.77-0.67 1.1-0.85 0.85-4.6 5.7-4.4 5.7 0.081 0-0.48 0.69-1.3 1.5-0.77 0.85-1.6 2-1.9 2.5-0.27 0.51-1 1.5-1.7 2.2s-1.2 1.4-1.1 1.6c0.041 0.16-0.51 0.92-1.2 1.7s-1.3 1.5-1.3 1.6-0.62 0.87-1.4 1.7-1.3 1.6-1.2 1.8c0.1 0.16 7e-3 0.3-0.21 0.3-0.22 0-0.39 0.2-0.39 0.44 0 0.24-0.67 1.2-1.5 2.2-0.82 0.97-1.5 1.9-1.5 2.2s-0.15 0.33-0.33 0.22c-0.18-0.11-0.54 0.045-0.79 0.35-0.25 0.3-0.35 0.55-0.23 0.55 0.13 0-0.1 0.33-0.51 0.74-0.41 0.41-0.74 0.97-0.74 1.3 0 0.28-0.25 0.61-0.56 0.73-0.31 0.12-0.56 0.36-0.56 0.55 0 0.18-0.58 0.97-1.3 1.8s-1.3 1.5-1.3 1.7c0 0.14-0.58 0.88-1.3 1.7-0.7 0.77-1.2 1.5-1.1 1.7s-0.044 0.36-0.3 0.46c-0.26 0.1-0.97 0.9-1.6 1.8s-1.5 2-1.9 2.5c-0.46 0.5-0.83 1.1-0.83 1.4 0 0.25-0.42 0.74-0.94 1.1s-0.86 0.74-0.76 0.9c0.097 0.16-0.15 0.52-0.54 0.81-0.4 0.29-0.72 0.72-0.72 0.95s-0.25 0.53-0.56 0.65c-0.3 0.12-0.56 0.45-0.56 0.74s-0.25 0.62-0.56 0.74c-0.31 0.12-0.52 0.34-0.47 0.5 0.13 0.44-2.5 3.9-3.4 4.5-0.43 0.26-0.69 0.62-0.58 0.79 0.11 0.18-0.054 0.42-0.36 0.53-0.31 0.12-0.72 0.59-0.92 1.1-0.51 1.2-1.1 2-2.5 3.6-0.66 0.74-1.4 1.8-1.7 2.3-0.26 0.53-0.62 0.97-0.8 0.98-0.18 0.014-0.6 0.5-0.93 1.1s-0.76 1.2-0.98 1.4c-0.93 0.9-3.2 3.9-2.9 3.9 0.16 0-0.078 0.26-0.53 0.58-0.45 0.32-0.82 0.81-0.82 1.1 0 0.29-0.34 0.7-0.75 0.92s-0.65 0.56-0.53 0.75c0.12 0.19 0.067 0.35-0.12 0.35-0.39 0-3.4 3.8-4.1 5.3-0.29 0.56-1.1 1.6-1.9 2.4-0.77 0.76-1.3 1.5-1.2 1.7 0.092 0.15-0.17 0.45-0.58 0.67-0.41 0.22-0.75 0.63-0.75 0.9 0 0.28-0.25 0.6-0.56 0.72-0.31 0.12-0.56 0.43-0.56 0.69s-0.92 1.6-2 2.9c-1.1 1.3-2.6 3.3-3.4 4.4-0.77 1.1-1.6 2.2-1.8 2.5-0.21 0.25-0.59 0.7-0.84 1-0.26 0.3-0.46 0.71-0.46 0.9 0 0.19-0.25 0.44-0.56 0.56-0.3 0.12-0.56 0.38-0.56 0.57 0 0.2-0.57 0.99-1.3 1.8-0.7 0.76-1.2 1.5-1.1 1.7 0.095 0.15-0.17 0.46-0.58 0.68s-0.75 0.61-0.75 0.86c0 0.25-0.35 0.67-0.78 0.94s-0.68 0.58-0.56 0.7c0.12 0.12-0.12 0.45-0.53 0.74-0.41 0.29-0.67 0.64-0.57 0.8 0.094 0.15-0.47 0.97-1.2 1.8s-1.4 1.6-1.3 1.6-0.56 0.69-1.3 1.5c-0.78 0.85-1.4 1.6-1.3 1.7 0.17 0.17-3.2 4.5-5.1 6.5-0.57 0.61-1 1.3-1 1.6s-0.13 0.54-0.28 0.61c-0.43 0.19-5.3 6.6-5.2 6.8 0.058 0.1-0.27 0.45-0.73 0.77-0.46 0.32-0.83 0.72-0.83 0.89 0 0.17-0.5 0.85-1.1 1.5s-1.1 1.4-1.1 1.7-0.24 0.57-0.54 0.68c-0.3 0.11-0.88 0.88-1.3 1.7-0.42 0.82-1.1 1.7-1.5 1.9s-0.66 0.55-0.54 0.74c0.11 0.18-0.13 0.51-0.54 0.74s-0.75 0.63-0.75 0.9c0 0.28-0.26 0.6-0.58 0.72-0.32 0.12-0.48 0.39-0.35 0.6 0.13 0.21-0.029 0.48-0.35 0.6-0.32 0.12-0.58 0.38-0.58 0.58 0 0.2-0.56 1.1-1.3 1.9s-1.4 1.9-1.5 2.4c-0.14 0.46-0.41 0.74-0.6 0.63-0.19-0.12-0.23 0.075-0.095 0.43 0.15 0.39 0.096 0.54-0.14 0.4-0.22-0.14-0.64 0.72-1 2.1-0.35 1.3-0.87 3.1-1.2 4.2-0.29 1-0.85 3.2-1.2 4.8-0.39 1.6-1.2 4.5-1.7 6.5s-1.1 3.9-1.2 4.4c-0.11 0.5-0.36 1.1-0.57 1.4s-0.27 0.63-0.14 0.84c0.13 0.21 0.045 0.39-0.19 0.39-0.24 0-0.34 0.24-0.23 0.53 0.11 0.29 0.042 0.58-0.16 0.65-0.2 0.066-0.41 0.72-0.48 1.4-0.066 0.73-0.21 1.5-0.32 1.7-0.3 0.52-1.3 4.3-1.6 5.7-0.12 0.71-0.45 2.1-0.73 3.1-0.29 1-1 3.9-1.7 6.3-0.64 2.4-1.3 4.7-1.4 5-0.12 0.31-0.19 0.76-0.15 1s-0.12 0.46-0.36 0.46c-0.24 0-0.35 0.31-0.24 0.72 0.1 0.4 0.024 0.78-0.18 0.85-0.2 0.067-0.41 0.62-0.46 1.2-0.047 0.6-0.26 1.4-0.47 1.8-0.21 0.41-0.84 2.8-1.4 5.4-0.56 2.5-1.3 5.6-1.7 6.8-0.38 1.2-0.76 2.5-0.84 3-0.51 2.8-1.5 6.5-1.8 6.5-0.16 0-0.3 0.58-0.3 1.3s0.17 1.3 0.37 1.3 0.37 0.42 0.37 0.93 0.3 1.2 0.68 1.6 0.79 0.97 0.93 1.3c0.14 0.36 0.58 0.74 0.99 0.85s0.74 0.34 0.74 0.51c0 2 7.1 2 10-0.017 1-0.62 2-1.1 2.2-1.1s0.36-0.17 0.36-0.37c0-0.2 0.25-0.37 0.56-0.37 0.31 0 0.89-0.33 1.3-0.74 0.41-0.41 0.74-0.62 0.74-0.47 0 0.15 0.49-0.27 1.1-0.92 0.6-0.66 1.3-1.2 1.7-1.2s0.58-0.17 0.58-0.37c0-0.2 0.24-0.37 0.53-0.37s0.75-0.21 1-0.46c0.27-0.25 0.96-0.71 1.5-1 0.58-0.3 1.5-1 2.1-1.6 0.64-0.66 1.2-0.96 1.5-0.79 0.29 0.18 0.36 0.13 0.2-0.13-0.14-0.22 0.11-0.6 0.54-0.84 0.64-0.34 0.75-0.33 0.54 0.074-0.14 0.28 0.17 0 0.69-0.61s0.95-0.97 0.95-0.8 0.82-0.29 1.8-1c1-0.73 2-1.3 2.2-1.3 0.23 0 0.41-0.17 0.41-0.37 0-0.2 0.23-0.37 0.52-0.37 0.28 0 0.62-0.27 0.75-0.61 0.13-0.33 0.34-0.5 0.47-0.38s0.47-0.056 0.76-0.41c0.29-0.35 0.4-0.41 0.26-0.12-0.18 0.34-0.12 0.43 0.16 0.26 0.24-0.14 0.43-0.5 0.43-0.79 0-0.72 2.8-2.5 3.4-2.2 0.29 0.18 0.35 0.12 0.18-0.15-0.24-0.38 0.21-0.59 0.98-0.47 0.15 0.024 0.28-0.082 0.28-0.24s0.48-0.49 1.1-0.75c0.59-0.26 1.5-0.87 2-1.3 0.52-0.48 1-0.79 1.1-0.7 0.098 0.098 0.37-0.18 0.61-0.62 0.24-0.45 0.65-0.72 0.94-0.6 0.28 0.11 0.63 0.012 0.77-0.21 0.16-0.27 0.083-0.31-0.23-0.11-0.32 0.2-0.4 0.16-0.21-0.14 0.15-0.24 0.47-0.39 0.7-0.34s0.48-0.066 0.54-0.27c0.06-0.2 0.68-0.66 1.4-1 0.7-0.36 1.3-0.83 1.3-1s0.17-0.28 0.37-0.15 0.47-0.029 0.59-0.35c0.12-0.32 0.37-0.48 0.56-0.37 0.18 0.11 0.43-0.035 0.54-0.33 0.11-0.3 0.71-0.64 1.3-0.76 0.7-0.14 1.2-0.51 1.3-0.98 0.11-0.42 0.38-0.69 0.61-0.61 0.23 0.08 0.64-0.2 0.9-0.63 0.34-0.54 0.43-0.58 0.29-0.13-0.32 1 0.13 0.75 0.55-0.36 0.31-0.81 0.45-0.9 0.73-0.46 0.3 0.47 0.34 0.46 0.35-0.031 3e-3 -0.32 0.59-0.78 1.3-1 0.71-0.26 1.3-0.62 1.3-0.82 0-0.19 0.25-0.35 0.56-0.35 0.31 0 0.56-0.17 0.56-0.37s0.24-0.37 0.54-0.37c0.3 0 0.72-0.33 0.94-0.74 0.22-0.41 0.72-0.74 1.1-0.74 0.39 0 0.97-0.37 1.3-0.82s0.58-0.67 0.58-0.48 0.26 0.015 0.58-0.38c0.32-0.4 0.47-0.47 0.32-0.16-0.14 0.31 0.76-0.47 2-1.7s2.3-2.4 2.3-2.5c0-0.13 0.42-0.62 0.93-1.1 0.51-0.47 0.93-0.94 0.93-1 0-0.1 0.58-0.82 1.3-1.6 0.7-0.77 1.2-1.5 1.2-1.6-0.035-0.12 0.47-0.8 1.1-1.5 0.66-0.71 1.2-1.5 1.2-1.7 0-0.24 0.25-0.53 0.56-0.65 0.3-0.12 0.56-0.47 0.56-0.78 0-0.31 0.17-0.57 0.37-0.57 0.2 0 0.37-0.19 0.37-0.41 0-0.23 0.66-1.1 1.5-1.9s1.4-1.6 1.3-1.8c-0.11-0.17 0.15-0.49 0.56-0.71s0.75-0.63 0.75-0.9c0-0.28 0.25-0.6 0.56-0.72 0.3-0.12 0.56-0.47 0.56-0.79 0-0.5 1-1.8 3-3.9 0.32-0.33 0.5-0.83 0.42-1.1-0.091-0.27 8e-3 -0.38 0.22-0.25 0.31 0.19 4.1-4.7 4.9-6.3 0.1-0.21 0.68-0.93 1.3-1.6 0.61-0.68 1.1-1.3 1.1-1.5 8e-3 -0.13 0.55-0.8 1.2-1.5 0.65-0.68 1.2-1.5 1.2-1.7s0.34-0.68 0.75-0.9c0.41-0.22 0.66-0.54 0.56-0.72-0.11-0.17 0.047-0.4 0.34-0.52s0.81-0.73 1.1-1.4c0.33-0.65 1.2-1.7 1.9-2.4s1.3-1.5 1.3-1.8 0.25-0.6 0.56-0.72c0.3-0.12 0.56-0.45 0.56-0.74s0.27-0.63 0.61-0.76c0.34-0.13 0.51-0.34 0.38-0.46-0.26-0.26 1.3-2.3 3.9-5.2 0.98-1.1 1.7-2.1 1.6-2.3-0.1-0.17-0.063-0.36 0.093-0.43 0.47-0.21 2.7-3.2 2.7-3.6 0-0.22 0.33-0.58 0.74-0.79 0.41-0.22 0.74-0.57 0.74-0.79 0-0.22 0.38-0.71 0.83-1.1 0.76-0.65 0.77-0.69 0.092-0.5-0.54 0.15-0.48 0.059 0.18-0.34 0.51-0.3 0.93-0.69 0.94-0.86 4e-3 -0.17 0.46-0.79 1-1.4 0.56-0.59 1-1.2 1-1.4s0.5-0.84 1.1-1.5 1.1-1.4 1.1-1.6c0-0.23 0.46-0.9 1-1.5 0.56-0.59 1-1.2 1-1.3s0.54-0.75 1.2-1.4c0.64-0.68 1.5-2 2-2.9 0.45-0.88 1.2-2 1.7-2.4 0.48-0.45 0.88-1 0.88-1.3s0.49-0.82 1.1-1.2c0.67-0.48 1-0.99 0.89-1.3-0.12-0.33 0.011-0.54 0.34-0.54 0.3 0 0.75-0.48 1-1.1 0.24-0.59 0.85-1.5 1.3-1.9s0.9-0.99 0.9-1.2c0-0.19 0.44-0.8 0.97-1.4s0.98-1.2 0.98-1.4c1e-3 -0.18 0.32-0.54 0.7-0.81 0.38-0.27 0.61-0.64 0.5-0.82-0.11-0.18 0.14-0.51 0.56-0.73 0.42-0.22 0.68-0.53 0.59-0.69-0.096-0.15 0.23-0.59 0.73-0.96 0.5-0.37 0.9-0.89 0.9-1.1s0.26-0.56 0.58-0.69c0.32-0.12 0.49-0.37 0.37-0.56-0.11-0.18 0.043-0.43 0.35-0.55 0.3-0.12 0.55-0.43 0.55-0.7 0-0.27 0.54-1.1 1.2-1.8 0.66-0.71 1.2-1.4 1.1-1.6s0.25-0.44 0.66-0.66c0.41-0.22 0.74-0.62 0.74-0.9 0-0.28 0.25-0.6 0.56-0.72 0.3-0.12 0.56-0.47 0.56-0.78s0.17-0.57 0.37-0.57c0.2 0 0.37-0.22 0.37-0.5 0-0.49 0.42-1 2.7-3.6 0.65-0.71 1.1-1.4 1.1-1.6-0.05-0.15 0.052-0.28 0.23-0.28s0.76-0.67 1.3-1.5c0.54-0.81 0.86-1.5 0.71-1.5s0.1-0.26 0.56-0.58c0.46-0.32 0.75-0.71 0.65-0.87-0.098-0.16 0.38-0.89 1.1-1.6s1.2-1.4 1.1-1.5 0.2-0.36 0.64-0.6c0.44-0.24 0.71-0.52 0.6-0.64s0.2-0.52 0.7-0.92c0.5-0.39 0.87-0.83 0.83-0.97s0.45-0.83 1.1-1.5c0.65-0.7 1.1-1.4 1-1.6-0.098-0.16 0.16-0.47 0.57-0.69 0.41-0.22 0.75-0.58 0.75-0.8s0.37-0.92 0.83-1.6c0.46-0.64 0.84-1.3 0.85-1.5 9e-3 -0.2 0.2-0.33 0.43-0.29 0.22 0.044 0.61-0.16 0.86-0.46 0.25-0.3 0.31-0.54 0.14-0.54s0.057-0.26 0.51-0.58 0.82-0.82 0.82-1.1 0.18-0.54 0.41-0.54c0.23 0 0.31-0.25 0.2-0.56-0.12-0.32-7e-3 -0.56 0.27-0.56 0.27 0 0.68-0.38 0.91-0.83 0.88-1.7 1.9-3 3.6-4.7 0.61-0.61 0.97-1.1 0.81-1.1-0.16 0-0.074-0.24 0.2-0.54 1.1-1.3 1.4-1.7 1.2-1.7-0.16 0 0.088-0.26 0.54-0.58 0.45-0.32 0.82-0.8 0.82-1.1s0.27-0.6 0.61-0.73c0.33-0.13 0.5-0.34 0.37-0.47-0.13-0.13 0.097-0.47 0.5-0.75 0.41-0.28 0.74-0.72 0.74-0.96s0.35-0.66 0.78-0.93 0.7-0.56 0.61-0.66c-0.093-0.093 0.38-0.77 1.1-1.5s1.2-1.5 1.1-1.6c-0.098-0.16 0.2-0.55 0.65-0.87 0.46-0.32 0.67-0.59 0.47-0.59s-0.027-0.31 0.38-0.67c0.77-0.68 1.4-1.5 2.1-2.9 0.23-0.44 0.73-0.89 1.1-0.99 0.39-0.1 0.66-0.35 0.6-0.56s0.23-0.65 0.64-0.98c0.41-0.34 0.49-0.5 0.18-0.37-0.31 0.13-0.14-0.13 0.37-0.58 0.51-0.45 0.88-0.96 0.83-1.1s0.069-0.32 0.27-0.32c0.2 0 0.64-0.53 0.97-1.2s0.8-1.4 1-1.7c1.1-1.2 1.3-1.6 1.3-1.9 0-0.2 0.29-0.42 0.65-0.48 0.36-0.069 0.65-0.46 0.65-0.86 1e-3 -0.4 0.21-0.69 0.46-0.64 0.26 0.051 0.46-0.18 0.46-0.51s0.42-1 0.94-1.5 0.84-0.88 0.7-0.88 0.15-0.35 0.63-0.77 0.62-0.66 0.32-0.53c-0.31 0.13-0.098-0.18 0.46-0.69 0.56-0.52 1-1.1 1-1.3s0.26-0.45 0.58-0.57c0.32-0.12 0.49-0.37 0.37-0.56-0.11-0.18 0.053-0.43 0.37-0.56 0.32-0.12 0.47-0.39 0.35-0.59s-0.044-0.37 0.18-0.37 0.32-0.15 0.21-0.33c-0.11-0.18 0.052-0.43 0.37-0.55s0.54-0.43 0.51-0.69c-0.13-1 0.044-1.8 0.36-1.6 0.19 0.12 0.29-0.084 0.23-0.44-0.058-0.36 0.043-0.84 0.22-1.1 0.2-0.25 0.18-0.81-0.038-1.4-0.33-0.87-0.25-1.1 0.37-1 0.11 9e-3 0.2-1 0.19-2.3-4e-3 -1.4-0.14-2.2-0.32-1.9-0.18 0.26-0.25-0.058-0.16-0.78 0.082-0.67 0.01-1.3-0.16-1.4-0.17-0.11-0.2-0.62-0.07-1.2 0.16-0.62 0.1-0.88-0.14-0.72-0.35 0.22-1-1.4-0.9-2.1 0.033-0.15-0.11-0.28-0.31-0.28-0.2 0-0.34-0.12-0.3-0.28 0.091-0.37-3.5-4-3.8-3.9-0.15 0.049-0.45-0.24-0.66-0.63-0.23-0.42-0.61-0.64-0.94-0.51-0.34 0.13-0.55-8e-3 -0.55-0.37 0-0.37-0.21-0.5-0.56-0.37-0.35 0.14-0.56-6e-3 -0.56-0.38 0-0.33-0.17-0.62-0.37-0.64-0.2-0.025-0.5-0.068-0.65-0.095-0.15-0.026-0.94-0.67-1.7-1.4-0.81-0.76-1.6-1.4-1.8-1.4-0.17 0-0.74-0.5-1.3-1.1s-1.2-1.1-1.6-1.1-0.94-0.42-1.3-0.94c-0.34-0.52-0.78-0.84-0.97-0.72s-0.46-0.04-0.58-0.36c-0.12-0.32-0.45-0.58-0.74-0.58-0.28 0-0.52-0.17-0.52-0.38s-0.42-0.54-0.93-0.73c-0.51-0.19-0.93-0.52-0.93-0.73s-0.18-0.38-0.41-0.38-0.74-0.42-1.1-0.93c-0.4-0.51-0.87-0.93-1-0.93s-0.86-0.49-1.5-1.1c-0.66-0.6-1.3-1-1.5-0.92s-0.47-0.16-0.7-0.58-0.57-0.66-0.76-0.54c-0.2 0.12-0.45-0.041-0.58-0.36-0.12-0.32-0.45-0.58-0.74-0.58-0.47 0-1.6-0.83-3-2.2-0.32-0.3-0.72-0.56-0.89-0.56-0.18 0-0.44-0.2-0.59-0.44-1-1.6-11-4.1-11-2.8m7.5 15c3.9 2.6 11 8 14 10 1 0.85 3 2.3 4.3 3.3 4.7 3.3 7.1 6.6 7.1 10 0.036 2.2-0.054 2.3-5.1 8.8-1.7 2.2-4.3 5.5-5.6 7.3-2.8 3.7-3 3.8-4.5 1.9-2.5-3.2-21-17-28-21-1.1-0.65-2.4-1.5-2.9-1.9l-0.89-0.69 3.1-4.1c1.7-2.2 4.7-6.1 6.6-8.7 6.5-8.5 6.6-8.6 12-5m-23 32c8.4 5 17 12 23 18 4.5 4.4 4.3 3.5 1.4 7.5-1.3 1.8-2.9 4.1-3.6 5.1-1.3 2.1-1.4 2.1-2.5 0.79-0.49-0.53-2.2-2-3.9-3.2-1.6-1.2-3.7-2.9-4.6-3.8-0.92-0.84-3.9-3.2-6.7-5.2-4.6-3.4-7.4-5.3-15-10l-2.8-1.8 3.4-4.5c4-5.4 4.8-6.2 5.3-6 0.21 0.083 2.8 1.6 5.7 3.4m-19 17c1.9 0.96 3.7 2.1 11 6.6 3.6 2.4 7.8 5.8 14 12 2 1.8 4.2 3.8 4.9 4.4 1.5 1.2 1.5 0.98-1.6 5.3-1 1.4-3.7 4.9-5.8 7.9s-5.1 6.9-6.6 8.8c-2.8 3.6-4.5 5.9-14 18-3.4 4.6-7.3 9.8-8.6 11-2.8 3.7-15 20-18 24-1 1.4-2.9 4-4.3 5.7-2.6 3.6-13 18-15 20-2.9 3.8-6.8 9.1-9.6 13-1.7 2.4-3.7 5.1-4.5 6.2l-1.5 1.9-1.7-0.31c-1.3-0.24-13-1.4-15-1.4-0.65-5e-3 -1-1.7-1.4-6.2-0.86-11-1.8-12-11-12-12 0.51-12 0.067 3.9-20 2.9-3.7 6.2-7.9 7.2-9.3 1-1.4 2.8-3.8 4-5.2 1.2-1.5 3.9-5.1 6.1-7.9 10-13 12-15 14-18 1.3-1.7 3.3-4.4 4.4-5.9 1.1-1.6 3.8-5.2 6-8 2.2-2.9 5.9-7.7 8.2-11 2.3-3.1 5.9-7.7 7.9-10 5.5-7.2 8.9-11 13-17 2-2.6 4.4-5.8 5.4-6.9s2.5-3.2 3.5-4.5c2-2.8 2.1-2.8 4.8-1.5m-184 60c2.4 0.59 6.4 1.4 8.8 1.9 5.4 1 5.1 0.76 4.3 4.1-0.39 1.5-1.1 4.9-1.6 7.5s-1 4.7-1.2 4.7c-0.74 0.018-19-4.6-19-4.9-0.49-0.44 3.1-14 3.7-14 0.27 0 2.5 0.48 4.9 1.1m-4.7 27c4 1 8.4 2.1 9.8 2.4 1.4 0.31 2.7 0.67 2.9 0.81 0.15 0.14-0.38 3.8-1.2 8-0.8 4.3-2.6 15-4.1 24s-3.1 19-3.7 23-1.4 9-1.9 12c-2.2 16-3.7 21-7.8 27-4.7 7-15 8.2-21 2.5-5.3-4.8-5.2-14 0.24-33 0.95-3.3 2.5-8.8 3.6-12s2.5-8.5 3.3-11c2.4-7.4 8.4-29 11-38 1.6-6.9 1.5-6.7 2.1-6.7 0.26 3e-3 3.7 0.85 7.7 1.9m91 48c2.2 1 6.5 1.3 9.5 0.65 0.97-0.21 1-0.15 1 1.2 0.096 11 5.4 17 15 17l4 0.23-5.3 3.7c-2.9 2-5.9 4.1-6.6 4.7s-2.6 1.9-4.3 3c-1.6 1.1-5.5 3.8-8.6 6-6.5 4.6-6 4.5-7.3 2.4-1.8-2.8-4.8-5.2-7.6-6-1.8-0.51-2-0.69-1.8-1.4 0.32-1.4 5.8-21 7.3-26 0.79-2.6 1.6-5.3 1.7-5.8 0.29-1.2-4e-3 -1.2 2.6-0.025" fill="#0a0b09"/>
<path d="m302 130c-2 2.7-3.8 5-3.9 5.3-0.19 0.31 0.65 1 2.6 2.2 8.7 5.4 17 11 22 16 2.5 2.2 2.6 2.2 3.3 0.87 0.29-0.56 1.9-2.9 3.6-5.3 2.3-3.2 2.9-4.4 2.7-4.8-1.3-2-15-12-22-16l-4.5-2.6-3.7 4.8m6.5 5.3c0.25 0.3 0.62 0.45 0.82 0.32 0.22-0.14 0.17-0.35-0.13-0.55-0.35-0.22-0.19-0.32 0.53-0.32 0.58-3e-3 1.1 0.24 1.2 0.55 0.12 0.31 0.44 0.56 0.73 0.56 0.28 0 0.52 0.15 0.52 0.34s0.1 0.6 0.22 0.93c0.13 0.33 0.035 0.58-0.21 0.58-0.24 0-0.33-0.17-0.2-0.37 0.13-0.2 0.053-0.37-0.16-0.37s-0.39 0.17-0.39 0.37-0.33 0.37-0.74 0.37c-0.41 0-0.76 0.17-0.79 0.37-0.025 0.2-0.067 0.52-0.093 0.71-0.096 0.71-0.61 0.86-1.2 0.36-0.49-0.4-0.66-0.41-0.78-0.05-0.24 0.73-0.83 0.14-0.83-0.83 0-0.48-0.21-0.96-0.46-1.1-0.27-0.11-0.18-0.2 0.21-0.22 0.37-0.016 0.57-0.2 0.44-0.4-0.13-0.2 0.042-0.37 0.38-0.37 0.55 0 0.55-0.053 0.021-0.58-0.72-0.72-0.73-0.9-0.071-0.9 0.28 0 0.72 0.25 0.97 0.55m9.7 4.9c-0.93 0.38-0.44 0.84 0.51 0.48 0.65-0.25 1.1-0.24 1.4 6e-3 0.25 0.21 0.57 0.26 0.72 0.11 0.36-0.36-0.18 1.1-0.62 1.7-0.25 0.33-0.18 0.46 0.23 0.46 0.37 0 0.51 0.2 0.38 0.55-0.12 0.3-0.36 0.46-0.54 0.35-0.29-0.18-0.48 0.3-0.39 1 0.044 0.33-2.2-0.51-2.8-1-0.24-0.23-0.36-0.51-0.25-0.62 0.11-0.11-0.14-0.38-0.56-0.6-0.49-0.26-0.68-0.62-0.52-1 0.2-0.51 0.28-0.48 0.54 0.22 0.38 1 0.96 0.74 0.86-0.41-0.068-0.84 0.4-1.4 1.1-1.4 0.2 0.013 0.16 0.11-0.093 0.21m3.7 2.6c-0.35 0.6-0.39 0.56-0.33-0.33 0.042-0.59 0.21-0.88 0.4-0.68s0.16 0.62-0.071 1" fill="#5aa50b"/>
<path d="m131 52c0.56 0.085 1.4 0.083 1.9-5e-3 0.46-0.088-5e-3 -0.16-1-0.16-1 3e-3 -1.4 0.075-0.83 0.16m7.4 0.36c0.36 0.093 0.94 0.093 1.3 0 0.36-0.093 0.065-0.17-0.65-0.17s-1 0.076-0.65 0.17m13 2.3c0.41 0.18 0.99 0.32 1.3 0.32 0.35 0 0.28-0.12-0.18-0.32-0.41-0.18-0.99-0.32-1.3-0.32-0.35 0-0.28 0.12 0.19 0.32m-23 9.5c0.46 0.088 1.1 0.085 1.5-8e-3s-0.023-0.16-0.84-0.16c-0.81 4e-3 -1.1 0.08-0.64 0.17m5.2 0c0.46 0.088 1.1 0.085 1.5-8e-3s-0.023-0.16-0.84-0.16c-0.82 4e-3 -1.1 0.08-0.64 0.17m-50 5.8-1.1 1.2 1.2-1.1c1.1-1 1.4-1.3 1.1-1.3-0.064 0-0.61 0.54-1.2 1.2m100 3.2c1.6 1.6 3 3 3.1 3s-1.1-1.3-2.8-3-3-3-3.1-3c-0.1 0 1.1 1.3 2.8 3m-103 0.093-1.1 1.2 1.2-1.1c1.1-1 1.4-1.3 1.1-1.3-0.064 0-0.6 0.54-1.2 1.2m-3.3 3.7-1.1 1.2 1.2-1.1c1.1-1 1.4-1.3 1.1-1.3-0.064 0-0.61 0.54-1.2 1.2m12 4.9c-0.9 0.92-1.6 1.7-1.5 1.7 0.1 0 0.92-0.75 1.8-1.7 0.9-0.92 1.6-1.7 1.5-1.7s-0.92 0.75-1.8 1.7m86 0.3c0 0.063 0.54 0.6 1.2 1.2l1.2 1.1-1.1-1.2c-1-1.1-1.3-1.4-1.3-1.1m159 14c0 0.087 0.59 0.51 1.3 0.94s1.2 0.61 1.1 0.4c-0.25-0.4-2.4-1.6-2.4-1.3m-8 2.7c-0.57 0.75-0.85 1.2-0.62 1.1 0.48-0.29 2.1-2.5 1.8-2.5-0.092 0-0.63 0.61-1.2 1.4m-251 6.6c-0.14 0.54-0.18 1.1-0.089 1.1 0.087 0.088 0.27-0.28 0.41-0.83 0.14-0.54 0.18-1.1 0.089-1.1-0.088-0.088-0.27 0.28-0.41 0.83m-14 8.1c4e-3 0.81 0.08 1.1 0.17 0.64 0.089-0.46 0.086-1.1-7e-3 -1.5s-0.16 0.023-0.16 0.84m130 1.3c0 0.71 0.076 1 0.17 0.65 0.093-0.36 0.093-0.94 0-1.3-0.093-0.36-0.17-0.065-0.17 0.65m-130 1.9c0 0.92 0.072 1.3 0.16 0.83 0.089-0.46 0.089-1.2 0-1.7-0.088-0.46-0.16-0.083-0.16 0.83m144 1.1c0 1.1 0.069 1.6 0.15 1s0.085-1.5 0-2-0.15-0.1-0.15 1m-14 0.56c3e-3 1 0.075 1.4 0.16 0.83s0.083-1.4-5e-3 -1.9c-0.088-0.46-0.16 5e-3 -0.16 1m-131 5.4c0 2.5 0.06 3.6 0.13 2.3 0.072-1.3 0.072-3.4 0-4.6s-0.13-0.23-0.13 2.3m144 4.8c0 1.1 0.069 1.6 0.15 1s0.085-1.5 0-2-0.15-0.1-0.15 1m-14-0.37c0 0.71 0.077 1 0.17 0.65 0.093-0.36 0.093-0.94 0-1.3s-0.17-0.065-0.17 0.65m-130 2.8c5e-3 0.82 0.08 1.1 0.17 0.64 0.089-0.46 0.085-1.1-8e-3 -1.5-0.092-0.35-0.16 0.023-0.16 0.84m130 0.18c0 0.71 0.076 1 0.17 0.65 0.093-0.36 0.093-0.94 0-1.3-0.093-0.36-0.17-0.065-0.17 0.65m14 1.5c0 0.71 0.076 1 0.17 0.65 0.093-0.36 0.093-0.94 0-1.3-0.093-0.36-0.17-0.064-0.17 0.65m-143 1.5c0 0.71 0.077 1 0.17 0.65 0.093-0.36 0.093-0.94 0-1.3-0.093-0.36-0.17-0.065-0.17 0.65m284 3.9c0.96 1 1.8 1.7 1.9 1.6s-0.72-0.91-1.7-1.8l-1.9-1.6 1.7 1.8m-270 1.7c0 0.3 0.14 0.89 0.32 1.3 0.2 0.47 0.32 0.54 0.32 0.18 0-0.3-0.14-0.89-0.32-1.3-0.2-0.47-0.32-0.54-0.32-0.18m219 6.5c0 0.1 0.5 0.44 1.1 0.76 0.61 0.32 1.1 0.49 1.1 0.39s-0.5-0.44-1.1-0.76c-0.61-0.32-1.1-0.49-1.1-0.39m-226 11c0.32 0.61 0.66 1.1 0.76 1.1 0.1 0-0.073-0.5-0.39-1.1s-0.66-1.1-0.76-1.1 0.074 0.5 0.39 1.1m128 1.1c-0.32 0.61-0.49 1.1-0.39 1.1s0.44-0.5 0.76-1.1 0.49-1.1 0.39-1.1-0.44 0.5-0.76 1.1m121 5.4c1.1 1.1 2.1 2 2.2 2 0.1 0-0.72-0.92-1.8-2-1.1-1.1-2.1-2-2.2-2s0.72 0.92 1.8 2m-228 1.7c1.6 1.6 3 3 3.1 3s-1.1-1.3-2.8-3c-1.6-1.6-3-3-3.1-3s1.1 1.3 2.8 3m231 1.6c0 0.064 0.54 0.61 1.2 1.2l1.2 1.1-1.1-1.2c-1-1.1-1.3-1.4-1.3-1.1m3.3 2.9c0.4 0.54 0.4 0.76 0 1.3-0.46 0.62-0.46 0.62 0.22 0 0.7-0.64 0.7-0.66 0-1.3-0.67-0.62-0.68-0.62-0.22 0m-3.6 2.7c0.13 0.13 0.058 0.47-0.17 0.74-0.31 0.37-0.3 0.5 0.049 0.5 0.37 0 0.37 0.11 0 0.56-0.25 0.3-0.32 0.55-0.14 0.54 0.49-0.018 1.7-1.8 1.2-1.8-0.23 0-0.31-0.17-0.18-0.37 0.13-0.2-0.059-0.37-0.41-0.37-0.35 0-0.53 0.11-0.4 0.24m-239 2.5c1.3 1.3 2.5 2.4 2.6 2.4s-0.89-1.1-2.2-2.4c-1.3-1.3-2.5-2.4-2.6-2.4s0.89 1.1 2.2 2.4m101 0.28-2.6 2.7 2.7-2.6c2.5-2.4 2.9-2.8 2.6-2.8-0.057 0-1.3 1.2-2.7 2.7m-23 0.49c-1.4 0.75-1.3 1.1 0.092 0.34 0.61-0.32 1.1-0.65 1.1-0.75 0-0.24-0.039-0.22-1.2 0.41m159 3.1c-0.44 0.61-0.71 1.1-0.61 1.1s0.54-0.5 0.98-1.1c0.44-0.61 0.71-1.1 0.61-1.1s-0.54 0.5-0.98 1.1m-193 3.6c0.46 0.088 1.1 0.085 1.5-8e-3 0.35-0.092-0.023-0.16-0.84-0.16s-1.1 0.08-0.64 0.17m13-1e-3c0.46 0.089 1.2 0.089 1.7 0 0.46-0.088 0.083-0.16-0.83-0.16-0.92 0-1.3 0.072-0.83 0.16m-7.2 0.38c1.2 0.073 3.1 0.073 4.3 0 1.2-0.074 0.21-0.13-2.1-0.13-2.3 0-3.3 0.06-2.1 0.13m131 1.2c-0.65 0.82-1.1 1.5-0.99 1.5 0.1 0 0.71-0.67 1.4-1.5s1.1-1.5 0.99-1.5-0.71 0.67-1.4 1.5m-159 5.4c0.51 0.29 1.1 0.53 1.3 0.53 0.2 0-0.047-0.24-0.56-0.53s-1.1-0.53-1.3-0.53c-0.2 0 0.046 0.24 0.56 0.53m25 6c0.46 0.088 1.1 0.085 1.5-8e-3 0.35-0.092-0.023-0.16-0.84-0.16-0.82 4e-3 -1.1 0.08-0.64 0.17m9.8 4e-3c0.56 0.085 1.4 0.082 1.9-5e-3 0.46-0.088-5e-3 -0.16-1-0.16-1 3e-3 -1.4 0.074-0.83 0.16m161 11c-1.1 1.3-1.5 1.9-1.3 1.9 0.1 0 0.63-0.58 1.2-1.3 1-1.3 1.1-1.8 0.16-0.65m-10 3.4c-0.31 0.51-0.036 0.89 0.51 0.7 0.22-0.077 0.25-0.34 0.07-0.63-0.23-0.37-0.38-0.39-0.58-0.068m-48 3.3c-0.64 0.81-1.1 1.5-0.99 1.5s0.71-0.67 1.4-1.5c0.65-0.82 1.1-1.5 0.99-1.5-0.1 0-0.71 0.67-1.4 1.5m-122 24c0.27 0.11 0.38 0.64 0.28 1.4l-0.17 1.2 0.36-1.1c0.38-1.2 0.23-1.7-0.47-1.7-0.33 0.022-0.33 0.074 8e-3 0.21m101 4.6c-0.64 0.82-1.1 1.5-0.99 1.5s0.71-0.67 1.4-1.5c0.64-0.82 1.1-1.5 0.99-1.5s-0.71 0.67-1.4 1.5m50 4.7c-0.57 0.75-0.85 1.2-0.62 1.1 0.47-0.29 2.1-2.5 1.8-2.5-0.092 0-0.63 0.61-1.2 1.4m-12 10c-0.13 0.21-0.5 0.28-0.82 0.15-0.49-0.19-0.52-0.1-0.17 0.55 0.51 0.95 0.53 1.6 0.055 1.6-0.2 0-0.26-0.25-0.14-0.56 0.13-0.33 3e-3 -0.56-0.3-0.56-0.28 0-0.54 0.33-0.57 0.74-0.053 0.7 0.36 0.95 1.2 0.73 0.2-0.053 0.63-0.086 0.94-0.073 0.41 0.017 0.56-0.32 0.53-1.2-0.046-1.4-0.33-1.9-0.7-1.3m1.4 0.99c-0.27 1.1 0.36 2.1 0.72 1.1 0.12-0.32 0.077-0.58-0.1-0.58-0.18 0-0.24-0.33-0.13-0.74 0.11-0.41 0.094-0.74-0.028-0.74-0.12 0-0.33 0.43-0.46 0.95m-53 2c-0.64 0.82-1.1 1.5-0.99 1.5s0.71-0.67 1.4-1.5c0.64-0.82 1.1-1.5 0.99-1.5s-0.71 0.67-1.4 1.5m43 6.4c-0.5 0.53-0.72 1.1-0.58 1.5 0.16 0.41 0.042 0.61-0.36 0.61-0.33 0-0.6 0.16-0.6 0.36 0 0.22 0.36 0.2 0.92-0.056 0.7-0.32 0.87-0.62 0.71-1.2-0.12-0.46-0.017-0.95 0.22-1.1 0.63-0.39 0.92 0.084 0.42 0.68-0.34 0.41-0.3 0.57 0.17 0.75 0.43 0.17 0.55 0.075 0.4-0.32-0.12-0.3-0.058-0.64 0.13-0.76 0.37-0.23 0.085-1.3-0.34-1.3-0.15 0-0.63 0.39-1.1 0.87m-49 3.2c0 0.71 0.077 1 0.17 0.65 0.093-0.36 0.093-0.94 0-1.3-0.093-0.36-0.17-0.064-0.17 0.65m49 5.1c-1.1 1.3-1.5 1.9-1.3 1.9 0.1 0 0.63-0.58 1.2-1.3 1-1.3 1.1-1.8 0.16-0.65m-136 0.83c0 0.71 0.077 1 0.17 0.65 0.093-0.36 0.093-0.94 0-1.3-0.093-0.36-0.17-0.065-0.17 0.65m129-0.28c-0.17 0.42-0.49 0.56-0.92 0.41-0.56-0.2-0.54-0.1 0.13 0.6 0.81 0.85 2.4 0.58 2.4-0.42 0-0.27-0.17-0.26-0.53 0.035-0.43 0.36-0.55 0.28-0.65-0.42-0.11-0.72-0.16-0.76-0.38-0.21m-0.75 2.6c0.45 0.45 0.92 0.7 1.1 0.57 0.31-0.31-0.76-1.4-1.4-1.4-0.29 0-0.16 0.32 0.33 0.81m-0.28 1.6c0 0.34 0.26 0.45 0.74 0.33 0.4-0.11 0.64-0.34 0.53-0.52-0.32-0.52-1.3-0.38-1.3 0.19m-22 3.6c0 1.3 0.067 1.9 0.15 1.2 0.082-0.66 0.082-1.7 0-2.4-0.083-0.66-0.15-0.12-0.15 1.2m-135 0.95c-0.14 0.54-0.18 1.1-0.088 1.1 0.087 0.087 0.27-0.29 0.41-0.83 0.14-0.54 0.18-1.1 0.089-1.1s-0.27 0.28-0.41 0.83m149 1.1c-0.28 0.28 0.64 1.3 1.2 1.3 0.27 0 0.24-0.25-0.062-0.74-0.48-0.78-0.75-0.89-1.1-0.51m-14 2c0 0.71 0.076 1 0.17 0.65 0.094-0.36 0.094-0.94 0-1.3-0.093-0.36-0.17-0.065-0.17 0.65m13-0.039c-0.11 0.18 0.03 0.42 0.32 0.53 0.29 0.11 0.61-0.039 0.73-0.33 0.22-0.58-0.7-0.76-1-0.2m-12 1.8c-0.02 0.74 1 1.3 2.1 1.1 1-0.15 1-0.16-0.14-0.21-0.69-0.032-1.3-0.32-1.6-0.7-0.21-0.36-0.38-0.46-0.39-0.23m4.9 1.5c0.56 0.085 1.5 0.085 2 0s0.1-0.15-1-0.15c-1.1 0-1.6 0.069-1 0.15m4 0.11c0.31 0.2 1 0.36 1.6 0.36 1.4 7e-3 1.1-0.21-0.71-0.49-1-0.16-1.3-0.11-0.93 0.13m4.5 0.62c0.36 0.093 0.94 0.093 1.3 0 0.36-0.093 0.064-0.17-0.65-0.17-0.71 0-1 0.076-0.65 0.17m-12 14-1.1 0.95 1.2-0.8c0.66-0.44 1.2-0.87 1.2-0.96 0-0.28-0.16-0.18-1.3 0.8m-27 12c0.8 0.81 1.5 1.5 1.6 1.5s-0.47-0.67-1.3-1.5c-0.8-0.82-1.5-1.5-1.6-1.5s0.47 0.67 1.3 1.5m-117 11c2e-3 0.42 1.4 2.7 1.6 2.7 0.098 0-0.18-0.62-0.62-1.4-0.98-1.7-1-1.8-1-1.4" fill="#673d09"/>
<path d="m194 280c-0.094 0.27-1.1 3.9-2.3 8.1-1.1 4.2-2.6 9.3-3.2 11-1.8 5.8-3.6 12-3.6 13 0 0.15 0.84 0.49 1.9 0.76 1 0.26 2.6 1 3.4 1.7 1.7 1.3 2.8 2 2.4 1.5-0.15-0.16 0.35-0.63 1.1-1 0.76-0.4 1.5-0.84 1.6-0.98s0.68-0.62 1.3-1.1c1.3-1 4.6-4.1 11-11l5.1-5-1.4-1.2c-2.6-2.3-4.4-6.8-4.8-12l-0.23-2.8-1.7 0.18c-4.3 0.46-7.2 0.17-9-0.9-1.3-0.78-1.8-0.91-1.9-0.53m7.2 20c0 0.61-0.061 0.64-0.36 0.18-0.2-0.3-0.36-0.89-0.36-1.3 0-0.61 0.062-0.64 0.36-0.18 0.2 0.3 0.36 0.89 0.36 1.3" fill="#fadf6c"/>
<path d="m307 135c0 0.087 0.26 0.42 0.58 0.74 0.53 0.53 0.53 0.58-0.021 0.58-0.33 0-0.5 0.17-0.38 0.37 0.12 0.2-0.073 0.38-0.44 0.4-0.39 0.017-0.48 0.11-0.21 0.22 0.26 0.1 0.46 0.58 0.46 1.1 0 0.97 0.59 1.6 0.83 0.83 0.12-0.36 0.29-0.35 0.78 0.05 0.6 0.5 1.1 0.34 1.2-0.36 0.026-0.19 0.068-0.51 0.093-0.71 0.026-0.2 0.38-0.37 0.79-0.37 0.41 0 0.74-0.17 0.74-0.37s0.18-0.37 0.39-0.37 0.29 0.17 0.16 0.37c-0.12 0.2-0.034 0.37 0.2 0.37 0.24 0 0.33-0.26 0.21-0.58-0.12-0.32-0.22-0.74-0.22-0.93s-0.23-0.34-0.52-0.34c-0.28 0-0.61-0.25-0.73-0.56-0.12-0.31-0.67-0.55-1.2-0.55-0.72 4e-3 -0.88 0.1-0.53 0.32 0.3 0.19 0.36 0.41 0.13 0.55-0.2 0.12-0.57-0.021-0.82-0.32-0.41-0.5-1.5-0.78-1.5-0.39m11 5.3c-0.22 0.15-0.38 0.65-0.34 1.1 0.093 1.2-0.49 1.4-0.86 0.41-0.26-0.69-0.34-0.73-0.54-0.22-0.15 0.4 0.031 0.75 0.52 1 0.42 0.22 0.67 0.5 0.56 0.6-0.11 0.11 1e-3 0.39 0.25 0.62 0.55 0.52 2.8 1.4 2.8 1-0.092-0.7 0.096-1.2 0.39-1 0.18 0.11 0.43-0.045 0.54-0.35 0.13-0.35-6e-3 -0.55-0.38-0.55-0.42 0-0.48-0.14-0.23-0.46 0.44-0.57 0.98-2 0.62-1.7-0.14 0.14-0.47 0.095-0.72-0.11-0.3-0.25-0.77-0.25-1.4-6e-3 -0.94 0.36-1.4-0.1-0.51-0.48 0.26-0.1 0.3-0.2 0.093-0.21-0.2-0.013-0.55 0.098-0.78 0.25m4 2.2c-0.062 0.89-0.022 0.93 0.33 0.33 0.23-0.4 0.26-0.82 0.071-1s-0.36 0.095-0.4 0.68m11 1.4c0.4 0.66 0.11 1.2-2.6 5-1.7 2.3-3.3 4.7-3.6 5.3-0.59 1.1-0.89 1.2-1.6 0.57-0.24-0.24-0.44-0.34-0.44-0.22s1.1 1.1 2.5 2.1c1.4 1 3 2.4 3.6 3 1.4 1.5 1.4 1.5 2.7-0.62 0.63-0.97 2.2-3.3 3.6-5.1 3-4.1 3.1-3.4-1.2-7.4-1.9-1.8-3.3-3-3.1-2.6m-11 8.1c0 0.064 0.54 0.61 1.2 1.2l1.2 1.1-1.1-1.2c-1-1.1-1.3-1.4-1.3-1.1" fill="#246e14"/>
<path d="m154 38c1.3 0.43 1.9 0.43 1.7 0-0.13-0.2-0.76-0.35-1.4-0.33-1.1 0.035-1.1 0.05-0.26 0.33m-70 11-0.88 0.76 1.1-0.65c1.5-0.86 1.5-0.87 1-0.87-0.22 0-0.78 0.34-1.3 0.76m44 2.5c0.36 0.093 0.94 0.093 1.3 0 0.36-0.093 0.065-0.17-0.65-0.17s-1 0.077-0.65 0.17m3.2 12c0.46 0.088 1.1 0.085 1.5-8e-3s-0.023-0.16-0.84-0.16-1.1 0.08-0.64 0.17m-49 6.9-1.1 1.2 1.2-1.1c1.1-1 1.4-1.3 1.1-1.3-0.064 0-0.6 0.54-1.2 1.2m90 9.3c0.91 0.97 1.7 1.8 1.8 1.8 0.28 0-0.016-0.33-1.7-1.9l-1.8-1.7 1.7 1.8m-84 2.6-2.6 2.7 2.7-2.6c2.5-2.4 2.9-2.8 2.6-2.8-0.057 0-1.3 1.2-2.7 2.7m131 24c4e-3 0.74 0.096 0.88 0.34 0.5 0.18-0.29 0.24-0.74 0.14-1-0.3-0.78-0.48-0.58-0.48 0.52m136 6c1 1 1.9 1.9 2 1.9s-0.64-0.83-1.6-1.9c-1-1-1.9-1.9-2-1.9s0.64 0.83 1.6 1.9m18 3.2c5e-3 0.74 0.096 0.88 0.34 0.5 0.18-0.29 0.24-0.74 0.14-1-0.3-0.78-0.48-0.58-0.48 0.52m-301 3.6c3e-3 1 0.075 1.4 0.16 0.83s0.083-1.4-5e-3 -1.9c-0.088-0.46-0.16 5e-3 -0.16 1m118 3.7c1e-3 2 0.063 2.8 0.14 1.7 0.075-1.1 0.074-2.7-2e-3 -3.7-0.076-0.96-0.14-0.081-0.14 2m31-2.9c-0.33 0.34-0.31 1.5 0.031 1.7 0.15 0.094 0.3-0.31 0.32-0.9 0.043-1.2 0.025-1.2-0.35-0.83m152 0.4c-0.09 0.16-0.046 0.61 0.098 1 0.25 0.69 0.27 0.68 0.47-0.092 0.21-0.78-0.24-1.5-0.57-0.91m-169 2.9c2e-3 1.4 0.069 2 0.15 1.2 0.08-0.77 0.079-1.9-3e-3 -2.6-0.082-0.66-0.15-0.029-0.15 1.4m-132 2.2c4e-3 0.82 0.08 1.1 0.17 0.64 0.089-0.46 0.085-1.1-7e-3 -1.5-0.093-0.35-0.16 0.023-0.16 0.84m0.36 3.5c0 0.71 0.076 1 0.17 0.65 0.093-0.36 0.093-0.94 0-1.3-0.093-0.36-0.17-0.064-0.17 0.65m4.5 41c0.8 0.82 1.5 1.5 1.6 1.5s-0.47-0.67-1.3-1.5c-0.8-0.82-1.5-1.5-1.6-1.5s0.47 0.67 1.3 1.5m109 0.092-1.5 1.6 1.6-1.5c1.5-1.4 1.7-1.7 1.5-1.7-0.06 0-0.77 0.71-1.6 1.6m-3.7 4.1-1.1 1.2 1.2-1.1c0.66-0.6 1.2-1.1 1.2-1.2 0-0.29-0.31-0.035-1.3 1.1m-115 11c1.2 1.3 2.3 2.5 2.6 2.6s-0.66-0.99-2-2.4c-3.1-3.2-3.4-3.3-0.58-0.17m258 3.4c-0.57 0.75-0.85 1.2-0.62 1.1 0.47-0.29 2.1-2.5 1.8-2.5-0.091 0-0.63 0.61-1.2 1.4m-205 5.6c0.36 0.093 0.94 0.093 1.3 0s0.065-0.17-0.65-0.17-1 0.077-0.65 0.17m3.2 0.38c0.46 0.088 1.1 0.085 1.5-8e-3 0.35-0.092-0.023-0.16-0.84-0.16s-1.1 0.08-0.64 0.17m8 0.38c0.76 0.08 2 0.08 2.8 0 0.76-0.08 0.14-0.14-1.4-0.14-1.5 0-2.2 0.065-1.4 0.14m2.7 16c-0.1 0.17 0.3 0.31 0.9 0.31s1.1-0.14 1.1-0.31-0.41-0.31-0.9-0.31-0.99 0.14-1.1 0.31m63 54c-0.34 0.52-0.55 1-0.46 1.1s0.43-0.34 0.77-0.94c0.76-1.3 0.54-1.4-0.31-0.15m2.5 16c0.36 0.093 0.94 0.093 1.3 0 0.36-0.093 0.064-0.17-0.65-0.17-0.71 0-1 0.077-0.65 0.17m5 46c-0.96 0.61-1.7 1.3-1.7 1.5s0.38 0.039 0.83-0.39c0.46-0.43 1.3-1 1.9-1.3 0.56-0.29 1-0.61 1-0.71 0-0.29-0.16-0.22-2 0.93m-13 9.1-1.1 0.95 1.2-0.8c0.66-0.44 1.2-0.87 1.2-0.96 0-0.28-0.16-0.18-1.3 0.8" fill="#381e08"/>
<path d="m127 75c-5 0.79-6 0.96-5.8 1.1 0.081 0.082 1.8-0.1 3.8-0.4 5-0.76 10-0.7 15 0.17 4.1 0.74 5.9 0.78 2.3 0.041-5.2-1.1-12-1.5-15-0.89m-8.3 1.6c-0.94 0.41 0.03 0.41 1.3 0 0.74-0.24 0.78-0.3 0.19-0.31-0.41-6e-3 -1.1 0.13-1.5 0.31m19 0.21c0.61 0.3 0.82 0.47 0.48 0.37s-0.74-0.016-0.86 0.18 0.018 0.35 0.31 0.35c0.29 0 0.95 0.33 1.5 0.74 0.98 0.77 1.9 0.023 1.1-0.84-0.2-0.19-0.27-0.58-0.16-0.86 0.15-0.39-0.22-0.51-1.6-0.49l-1.8 0.016 1.1 0.54m8 0.35c1.7 0.65 2.4 0.64 0.93-0.014-0.61-0.28-1.4-0.5-1.7-0.5-0.31 6e-3 0.027 0.24 0.74 0.51m-13 1.1c-1.1 1.3-0.61 2.5 1 2.6 1.2 0.11 1.6-2e-3 1.8-0.47 0.28-0.72-0.23-1.3-1.2-1.4-1-0.076-1.1-0.67-0.13-0.82 1.3-0.2 1.4-0.45 0.059-0.41-0.63 0.017-1.3 0.24-1.5 0.49m16 1.4c-0.1 0.46-0.3 1.2-0.45 1.6-0.19 0.53-0.17 0.6 0.093 0.24 0.3-0.43 0.4-0.43 0.59 0 0.12 0.28 0.13 0.13 0.02-0.33-0.12-0.47-0.036-0.83 0.19-0.83 0.22 0 0.4 0.18 0.4 0.39 0 0.22 0.17 0.29 0.37 0.16s0.47 0.024 0.59 0.33c0.12 0.31 0.53 0.67 0.92 0.79 0.39 0.12 0.72 0.59 0.75 1 0.035 0.72 0.083 0.7 0.44-0.21 0.25-0.63 0.68-1 1.1-1 0.4 0 0.61-0.12 0.46-0.27-0.15-0.15-0.84-0.22-1.5-0.16-0.96 0.083-1.3-0.034-1.3-0.47 0-0.38-0.33-0.58-0.93-0.58-0.83 0-1.1-0.35-0.97-1.2 0.11-0.7-0.63-0.18-0.79 0.56m-28 0.18c0.15 0.25-0.23 0.38-1.1 0.35-1.5-0.042-1.9 0.26-2.2 1.7-0.23 0.92-0.15 1 0.72 1 0.59 0 0.97-0.21 0.97-0.53 0-0.29 0.2-0.65 0.43-0.8 0.29-0.18 0.36-0.065 0.2 0.35-0.13 0.34-0.075 0.62 0.12 0.62 0.2 0 0.37-0.29 0.38-0.65 0.023-0.57 0.061-0.56 0.31 0.066 0.26 0.66 0.3 0.67 0.53 0.062 0.38-0.99 0.3-2-0.18-2.3-0.25-0.16-0.33-0.1-0.19 0.13m32-0.11c0 0.1 0.67 0.53 1.5 0.94 0.82 0.42 1.5 0.67 1.5 0.57s-0.67-0.52-1.5-0.94-1.5-0.67-1.5-0.57m-45 1.5c-1.2 0.73-2.4 1.5-2.6 1.7-0.2 0.23 0.13 0.1 0.74-0.28 0.61-0.38 1.8-1.1 2.7-1.6 1.4-0.76 1.9-1.2 1.5-1.2-0.063 0-1.1 0.59-2.3 1.3m39-0.44c0 0.61 0.66 1.2 0.99 0.84 0.11-0.11-0.065-0.47-0.4-0.8-0.52-0.52-0.6-0.52-0.6-0.04m10 0.72c0.11 0.13 1.3 0.91 2.6 1.7 1.3 0.82 1.9 1.1 1.3 0.61-1-0.84-4.4-2.9-3.9-2.3m-3.7 2.1c-0.83 0.69-0.84 0.73-0.12 0.73 1.1 0 1.9-0.39 1.9-0.96 0-0.72-0.77-0.62-1.8 0.24m-50 0.76-1.3 1.1 1.4-1c1.2-0.88 1.6-1.3 1.3-1.3-0.058 0-0.68 0.51-1.4 1.1m4.5-0.41c-0.35 0.65-0.53 0.72-0.97 0.36-0.46-0.38-0.49-0.32-0.21 0.44 0.18 0.49 0.25 1.1 0.15 1.4-0.12 0.35 5e-3 0.45 0.39 0.3 0.94-0.36 1 0.14 0.16 0.9-0.67 0.58-0.55 0.56 0.66-0.11 1.7-0.95 2.1-1.3 1.2-0.93-1.3 0.46-2-0.83-1-1.7 0.62-0.5 0.76-0.82 0.48-1.1s-0.52-0.16-0.83 0.41m48 1.5c-0.58 0.61-0.58 0.7-0.022 1.1 0.5 0.41 0.55 0.4 0.29-0.031-0.2-0.34-0.093-0.68 0.32-0.98 0.35-0.26 0.5-0.54 0.33-0.63s-0.58 0.13-0.92 0.5m-57 3.6-3.5 3.6 3.6-3.5c2-1.9 3.6-3.6 3.6-3.6 0-0.27-0.45 0.16-3.7 3.5m69 0.28c3.3 3.6 3.7 3.9 2.3 2.2-0.63-0.82-1.9-2.2-2.9-3.1-1.4-1.3-1.2-1.1 0.59 0.93m-4.7 0.52c-0.52 0.83 1 2.9 1.8 2.4 0.26-0.16 0.32-0.1 0.16 0.17-0.74 1.2 1.2 1.9 2.2 0.73 0.67-0.76 0.67-0.79 0.027-0.56-0.37 0.14-0.76 0.25-0.86 0.25s-0.074 0.17 0.052 0.37 0.069 0.37-0.13 0.37c-0.2 0-0.27-0.64-0.16-1.5 0.13-0.97 0.055-1.5-0.22-1.5-0.23 0-0.42-0.25-0.42-0.56 0-0.31-0.24-0.56-0.52-0.56s-0.75-0.085-1-0.19c-0.27-0.1-0.69 0.13-0.94 0.52m6.4 4c0.24 0.099 0.34 0.45 0.22 0.77-0.15 0.39-0.082 0.5 0.21 0.32 0.67-0.41 0.51-1.3-0.22-1.3-0.36 0.016-0.45 0.11-0.21 0.21m0.87 1.7c-6e-3 0.38 0.32 0.77 0.73 0.88 0.41 0.11 0.74 0.37 0.74 0.6 0 0.28 0.12 0.28 0.41-0.011 0.49-0.49 0.081-1.3-0.54-1.1-0.24 0.08-0.63-0.12-0.88-0.44-0.4-0.53-0.45-0.52-0.46 0.094m-78 3.6c-0.46 0.82-0.67 1.5-0.47 1.5s0.43-0.2 0.51-0.44c0.093-0.28 0.24-0.21 0.39 0.18 0.13 0.35 0.08 0.63-0.12 0.63s-0.36 0.25-0.36 0.55c0 1 1.9 0.5 2.6-0.7 0.89-1.5 0.35-2.6-1.1-2.3-0.84 0.21-0.9 0.17-0.48-0.34 0.26-0.32 0.32-0.58 0.13-0.58s-0.72 0.67-1.2 1.5m-1.3 0.46c-1.3 2.3-2.6 4.8-2.4 4.9 0.065 0.063 0.91-1.4 1.9-3.2 1.8-3.4 2.2-4.5 0.55-1.7m85 0.65c1.2 2.3 1.7 2.9 1 1.2-0.4-1.1-1.8-3.4-2-3.4-0.069 0 0.37 1 0.98 2.2m-2.5 1.5c0.41 0.49 1.1 1.3 1.6 1.8s0.83 1.1 0.83 1.3 0.17 0.24 0.37 0.11c0.25-0.15 0.25-0.46 3e-3 -0.92-0.25-0.47-0.24-0.73 0.02-0.82 0.86-0.29-0.12-1.5-1.1-1.4-0.56 0.059-1.3-0.14-1.7-0.43-0.61-0.48-0.61-0.44 0.046 0.35m-85 7.1c-0.43 0.26-0.39 0.43 0.22 0.92 0.41 0.33 0.55 0.5 0.31 0.38-0.28-0.14-0.36 0.053-0.22 0.58 0.2 0.76 0.23 0.75 0.72-0.2 0.61-1.2-0.073-2.3-1-1.7m-1.2 2.3c-0.22 1.5-0.24 1.4 0.53 0.7 0.52-0.5 0.54-0.71 0.14-1.3-0.44-0.6-0.5-0.54-0.67 0.56m0.44 1.5c-0.31 1.2-0.13 2.1 0.3 1.6 0.26-0.36 0.48-0.78 0.48-0.93 0-0.27-0.71-0.85-0.77-0.62m92 1.1c0.013 0.29 0.26 1.6 0.55 2.9 0.5 2.3 0.52 2.3 0.38 0.56-0.16-2-0.45-3.5-0.75-3.8-0.11-0.11-0.19 0.04-0.17 0.33m-94 5.3c4e-3 0.82 0.08 1.1 0.17 0.64 0.088-0.46 0.085-1.1-8e-3 -1.5s-0.16 0.023-0.16 0.84m1.3-0.43c-0.1 0.27-0.042 0.73 0.14 1 0.24 0.38 0.33 0.24 0.34-0.5 6e-3 -1.1-0.18-1.3-0.48-0.52m95 4.3c0 2.1 0.061 3 0.14 1.9s0.075-2.8 0-3.9c-0.075-1.1-0.14-0.19-0.14 1.9m-97 1.5c0 1.9 0.062 2.7 0.14 1.8 0.076-0.97 0.076-2.6 0-3.5-0.077-0.97-0.14-0.18-0.14 1.8m96 4.8c0 0.71 0.076 1 0.17 0.65 0.093-0.36 0.093-0.94 0-1.3-0.093-0.36-0.17-0.065-0.17 0.65m-96 0.37c0 0.71 0.076 1 0.17 0.65 0.093-0.36 0.093-0.94 0-1.3-0.093-0.36-0.17-0.065-0.17 0.65m4.4 15c-0.014 0.5 2.1 4.4 3 5.4l0.77 0.93-0.68-1.1c-0.37-0.61-1.2-2.1-1.9-3.3-0.66-1.2-1.2-2.1-1.2-1.9m86 2.1c-0.32 0.61-0.49 1.1-0.39 1.1 0.1 0 0.44-0.5 0.76-1.1s0.49-1.1 0.39-1.1-0.44 0.5-0.76 1.1m-8.3 11-3.1 3.2 3.2-3.1c3-2.9 3.4-3.3 3.1-3.3-0.055 0-1.5 1.5-3.2 3.2m-67 1.3c0 0.064 0.54 0.6 1.2 1.2l1.2 1.1-1.1-1.2c-1-1.1-1.3-1.4-1.3-1.1m62 2.9c-1.3 1.1-1.3 1.1-0.1 0.34 0.66-0.44 1.3-0.95 1.4-1.1 0.36-0.58 0.061-0.4-1.3 0.8m-53 3.8c0 0.25 3 1.7 3.2 1.6 0.078-0.078-0.6-0.5-1.5-0.95-0.91-0.44-1.7-0.73-1.7-0.63m43 1.9c-0.51 0.29-0.76 0.53-0.56 0.53s0.79-0.24 1.3-0.53c0.51-0.29 0.76-0.53 0.56-0.53s-0.79 0.24-1.3 0.53m-22 4.2c0.46 0.089 1.1 0.086 1.5-7e-3s-0.023-0.16-0.84-0.16c-0.81 4e-3 -1.1 0.08-0.64 0.17m3.3 7e-3c0.67 0.082 1.7 0.081 2.2-4e-3 0.56-0.084 0.012-0.15-1.2-0.15s-1.7 0.071-1 0.15" fill="#0f5065"/>
</g>
</svg>
