<svg id="svg" version="1.1" xmlns="http://www.w3.org/2000/svg" xmlns:xlink="http://www.w3.org/1999/xlink" width="400" height="400" viewBox="0, 0, 400,400"><g id="svgg"><path id="path0" d="M122.664 52.417 C 80.824 58.953,54.020 95.648,61.123 136.667 C 67.704 174.676,105.882 200.970,144.540 194.117 C 195.497 185.084,220.658 127.482,192.768 83.704 C 178.852 61.861,148.610 48.364,122.664 52.417 M142.593 64.659 C 179.313 71.013,200.555 110.345,186.283 145.556 C 185.498 147.491,184.805 149.324,184.743 149.630 C 184.681 149.935,184.538 150.269,184.426 150.370 C 184.314 150.472,183.670 151.472,182.994 152.593 C 166.480 179.987,134.464 190.016,106.088 176.683 C 69.157 159.331,60.571 109.759,89.550 81.200 C 103.382 67.568,123.373 61.334,142.593 64.659 M328.618 95.172 C 328.198 95.563,326.682 97.435,325.249 99.331 C 323.817 101.227,320.637 105.361,318.183 108.519 C 312.993 115.199,313.301 114.452,315.278 115.562 C 321.490 119.047,336.227 129.962,343.452 136.428 C 346.511 139.166,346.750 139.307,347.219 138.657 C 347.495 138.275,348.831 136.546,350.188 134.815 C 363.941 117.260,364.251 118.304,340.119 100.804 C 332.178 95.046,329.933 93.947,328.618 95.172 M288.253 148.271 C 285.675 151.586,281.334 157.236,276.111 164.072 C 274.685 165.939,271.055 170.661,268.043 174.566 C 265.031 178.471,261.448 183.144,260.080 184.951 C 258.712 186.757,256.666 189.423,255.533 190.876 C 254.401 192.330,250.600 197.352,247.088 202.037 C 243.575 206.722,240.004 211.472,239.152 212.593 C 238.300 213.713,236.348 216.296,234.813 218.333 C 231.248 223.065,217.925 240.471,212.700 247.222 C 210.493 250.074,207.786 253.574,206.685 255.000 C 205.584 256.426,203.304 259.353,201.618 261.504 C 198.336 265.693,197.778 266.741,197.778 268.719 C 197.778 270.990,198.707 271.261,204.976 270.817 C 214.902 270.114,216.096 271.274,217.048 282.551 C 217.593 289.007,216.908 288.459,225.185 289.063 C 229.357 289.368,231.998 289.671,233.194 289.983 L 234.351 290.285 240.046 282.513 C 243.178 278.238,246.282 274.049,246.945 273.204 C 247.607 272.358,251.987 266.500,256.679 260.185 C 261.372 253.870,268.161 244.787,271.767 240.000 C 275.374 235.213,280.548 228.296,283.265 224.630 C 285.983 220.963,289.101 216.796,290.195 215.370 C 292.393 212.506,309.958 189.099,314.515 182.963 C 316.104 180.824,318.929 177.021,320.793 174.512 C 323.640 170.680,324.100 169.874,323.665 169.478 C 323.381 169.219,321.148 167.190,318.704 164.969 C 316.259 162.748,313.843 160.544,313.333 160.070 C 308.342 155.431,299.217 149.179,291.960 145.426 L 290.893 144.874 288.253 148.271 M320.926 172.222 C 320.800 172.426,320.881 172.593,321.107 172.593 C 321.582 172.593,320.349 174.415,319.862 174.433 C 319.684 174.439,319.746 174.194,320.000 173.889 C 320.368 173.446,320.368 173.333,320.000 173.333 C 319.656 173.333,319.644 173.207,319.951 172.836 C 320.178 172.563,320.254 172.230,320.120 172.096 C 319.986 171.962,320.164 171.852,320.516 171.852 C 320.867 171.852,321.052 172.019,320.926 172.222 M104.074 205.656 C 104.074 205.712,103.246 208.829,102.235 212.583 C 101.223 216.337,100.441 219.454,100.497 219.509 C 100.760 219.772,119.629 224.212,119.630 224.011 C 119.630 223.944,120.291 220.647,121.098 216.684 C 121.905 212.721,122.524 209.437,122.473 209.386 C 122.221 209.135,104.074 205.456,104.074 205.656 M287.372 209.946 C 286.825 210.134,286.547 209.753,286.861 209.244 C 287.060 208.922,287.210 208.940,287.442 209.312 C 287.625 209.607,287.597 209.869,287.372 209.946 M96.014 233.241 C 95.089 237.527,89.838 257.908,88.882 260.925 C 88.301 262.759,86.636 268.343,85.182 273.333 C 83.728 278.324,81.804 284.741,80.907 287.593 C 76.941 300.206,73.199 316.475,73.200 321.111 C 73.200 330.552,79.599 336.795,88.123 335.669 C 99.119 334.217,103.046 325.890,107.228 295.158 C 107.545 292.830,108.040 289.426,108.328 287.593 C 108.616 285.759,109.205 282.009,109.637 279.259 C 110.069 276.509,110.763 272.426,111.179 270.185 C 113.605 257.130,116.882 236.455,116.559 236.243 C 116.358 236.112,115.509 235.897,114.671 235.766 C 113.833 235.635,109.521 234.618,105.087 233.505 C 100.654 232.392,96.884 231.481,96.710 231.481 C 96.537 231.481,96.223 232.273,96.014 233.241 M256.094 257.194 C 256.124 258.112,255.980 258.454,255.568 258.437 C 255.256 258.424,254.833 258.457,254.630 258.510 C 253.792 258.728,253.382 258.477,253.435 257.778 C 253.466 257.370,253.723 257.037,254.007 257.037 C 254.314 257.037,254.437 257.262,254.311 257.593 C 254.193 257.898,254.259 258.148,254.456 258.148 C 254.931 258.148,254.910 257.537,254.401 256.586 C 254.054 255.938,254.082 255.850,254.575 256.039 C 254.897 256.163,255.267 256.093,255.396 255.885 C 255.765 255.287,256.048 255.818,256.094 257.194 M257.300 256.667 C 257.194 257.074,257.252 257.407,257.430 257.407 C 257.609 257.407,257.654 257.669,257.532 257.988 C 257.170 258.930,256.541 257.960,256.812 256.879 C 256.944 256.355,257.151 255.926,257.272 255.926 C 257.394 255.926,257.407 256.259,257.300 256.667 M248.278 264.988 C 248.392 265.287,248.334 265.626,248.148 265.741 C 247.962 265.856,247.905 266.196,248.020 266.498 C 248.170 266.888,248.057 266.979,247.624 266.813 C 247.149 266.630,247.112 266.467,247.451 266.059 C 247.950 265.458,247.661 264.985,247.032 265.374 C 246.798 265.518,246.700 266.010,246.815 266.466 C 246.974 267.099,246.806 267.394,246.104 267.714 C 245.543 267.969,245.185 267.991,245.185 267.770 C 245.185 267.571,245.453 267.407,245.780 267.407 C 246.182 267.407,246.299 267.208,246.140 266.794 C 245.997 266.420,246.223 265.843,246.721 265.313 C 247.668 264.304,247.989 264.237,248.278 264.988 M240.584 274.791 C 240.942 274.494,241.111 274.483,241.111 274.756 C 241.111 275.752,239.562 276.024,238.751 275.171 C 238.084 274.469,238.065 274.377,238.625 274.572 C 239.058 274.723,239.377 274.580,239.548 274.160 C 239.768 273.618,239.827 273.651,239.933 274.373 C 240.034 275.066,240.157 275.146,240.584 274.791 M239.515 276.499 C 239.830 276.814,239.980 277.180,239.849 277.312 C 239.717 277.444,239.243 277.186,238.796 276.739 C 238.303 276.246,238.172 275.926,238.463 275.926 C 238.726 275.926,239.200 276.184,239.515 276.499 M239.789 278.106 C 239.900 278.287,239.660 278.521,239.255 278.627 C 238.778 278.752,238.519 278.636,238.519 278.299 C 238.519 277.726,239.465 277.583,239.789 278.106 M200.833 282.107 C 201.190 282.200,201.773 282.200,202.130 282.107 C 202.486 282.014,202.194 281.938,201.481 281.938 C 200.769 281.938,200.477 282.014,200.833 282.107 M232.507 284.444 C 232.814 284.936,232.835 285.185,232.569 285.185 C 232.019 285.185,231.094 284.215,231.376 283.933 C 231.759 283.550,232.023 283.669,232.507 284.444 M230.884 286.088 C 230.771 286.380,230.444 286.530,230.157 286.419 C 229.531 286.179,229.827 285.556,230.566 285.556 C 230.867 285.556,231.002 285.780,230.884 286.088 M212.005 298.255 C 210.682 299.732,198.442 311.437,196.880 312.718 C 195.846 313.566,194.917 314.366,194.815 314.497 C 194.713 314.627,193.932 315.096,193.080 315.540 L 191.530 316.346 192.986 318.265 C 193.786 319.321,194.442 320.310,194.443 320.463 C 194.447 321.128,195.544 320.469,202.115 315.854 C 205.943 313.166,210.574 309.937,212.407 308.679 C 219.941 303.509,224.032 300.450,223.783 300.174 C 223.637 300.014,223.810 299.987,224.167 300.115 C 224.523 300.242,224.815 300.175,224.815 299.964 C 224.815 299.717,223.503 299.622,221.145 299.698 C 219.127 299.762,217.554 299.690,217.649 299.537 C 217.801 299.293,216.645 299.109,215.278 299.160 C 215.023 299.169,214.815 299.056,214.815 298.907 C 214.815 298.138,212.576 297.618,212.005 298.255 M200.011 299.815 C 200.011 300.222,200.173 300.806,200.370 301.111 C 200.668 301.571,200.729 301.539,200.729 300.926 C 200.729 300.519,200.568 299.935,200.370 299.630 C 200.073 299.170,200.011 299.201,200.011 299.815 " stroke="none" fill="#eb760c" fill-rule="evenodd"></path><path id="path1" d="M125.137 75.385 C 81.733 82.148,68.522 138.968,104.681 163.368 C 139.713 187.007,186.457 156.647,179.460 114.798 C 175.112 88.798,151.058 71.346,125.137 75.385 M140.624 76.436 C 140.516 76.717,140.587 77.106,140.782 77.300 C 141.649 78.168,140.710 78.919,139.727 78.145 C 139.211 77.739,138.552 77.407,138.262 77.407 C 137.971 77.407,137.833 77.248,137.953 77.053 C 138.073 76.858,138.458 76.778,138.808 76.874 C 139.158 76.970,138.944 76.803,138.333 76.504 L 137.222 75.959 139.021 75.943 C 140.402 75.930,140.774 76.045,140.624 76.436 M135.849 77.608 C 135.765 77.692,135.289 77.823,134.792 77.899 C 133.791 78.052,133.883 78.642,134.921 78.718 C 135.853 78.787,136.362 79.399,136.085 80.119 C 135.636 81.289,132.759 80.689,132.857 79.446 C 132.967 78.055,133.506 77.526,134.851 77.488 C 135.484 77.470,135.933 77.524,135.849 77.608 M149.956 78.796 C 149.821 79.654,150.100 80.000,150.926 80.000 C 151.522 80.000,151.852 80.208,151.852 80.584 C 151.852 81.024,152.167 81.141,153.128 81.058 C 153.830 80.997,154.525 81.068,154.671 81.215 C 154.818 81.361,154.609 81.481,154.207 81.481 C 153.754 81.481,153.323 81.869,153.074 82.500 C 152.715 83.409,152.667 83.432,152.632 82.710 C 152.610 82.264,152.276 81.801,151.886 81.678 C 151.497 81.554,151.082 81.199,150.963 80.888 C 150.844 80.578,150.578 80.427,150.373 80.554 C 150.168 80.681,150.000 80.608,150.000 80.392 C 150.000 80.177,149.822 80.000,149.605 80.000 C 149.380 80.000,149.299 80.361,149.416 80.833 C 149.530 81.292,149.521 81.439,149.396 81.162 C 149.205 80.736,149.113 80.736,148.809 81.162 C 148.550 81.524,148.524 81.458,148.716 80.926 C 148.864 80.519,149.065 79.810,149.165 79.352 C 149.325 78.615,150.067 78.094,149.956 78.796 M122.222 80.362 C 122.222 81.711,121.765 82.461,121.443 81.640 C 121.198 81.015,121.160 81.007,121.137 81.574 C 121.123 81.931,120.950 82.222,120.752 82.222 C 120.555 82.222,120.500 81.945,120.630 81.606 C 120.789 81.192,120.725 81.077,120.433 81.257 C 120.195 81.405,120.000 81.765,120.000 82.059 C 120.000 82.387,119.628 82.593,119.034 82.593 C 118.166 82.593,118.093 82.489,118.319 81.574 C 118.672 80.147,119.069 79.848,120.554 79.890 C 121.377 79.913,121.762 79.784,121.609 79.536 C 121.467 79.307,121.544 79.254,121.795 79.409 C 122.030 79.554,122.222 79.983,122.222 80.362 M147.661 81.351 C 147.332 81.681,146.667 81.117,146.667 80.507 C 146.667 80.024,146.749 80.029,147.266 80.547 C 147.596 80.877,147.774 81.238,147.661 81.351 M154.815 83.109 C 154.815 83.682,154.034 84.074,152.892 84.074 C 152.178 84.074,152.184 84.037,153.015 83.346 C 154.045 82.487,154.815 82.386,154.815 83.109 M108.133 84.382 C 107.092 85.225,107.866 86.509,109.139 86.051 C 110.094 85.708,109.685 86.030,107.963 86.979 C 106.746 87.649,106.628 87.669,107.299 87.092 C 108.171 86.341,108.078 85.834,107.135 86.196 C 106.753 86.342,106.626 86.243,106.748 85.892 C 106.849 85.605,106.783 84.971,106.602 84.482 C 106.322 83.726,106.354 83.661,106.814 84.043 C 107.254 84.408,107.436 84.341,107.786 83.688 C 108.091 83.118,108.332 82.999,108.612 83.279 C 108.892 83.559,108.753 83.880,108.133 84.382 M156.077 85.350 C 155.662 85.653,155.551 85.993,155.755 86.333 C 156.018 86.768,155.971 86.773,155.466 86.364 C 154.826 85.845,155.695 84.337,156.411 84.724 C 156.576 84.813,156.426 85.095,156.077 85.350 M163.919 89.259 C 164.208 89.259,164.444 89.509,164.444 89.815 C 164.444 90.120,164.633 90.370,164.864 90.370 C 165.139 90.370,165.214 90.879,165.084 91.852 C 164.971 92.693,165.040 93.333,165.242 93.333 C 165.439 93.333,165.496 93.167,165.370 92.963 C 165.244 92.759,165.221 92.593,165.318 92.593 C 165.415 92.593,165.800 92.481,166.173 92.345 C 166.814 92.110,166.813 92.141,166.146 92.900 C 165.162 94.021,163.180 93.369,163.923 92.168 C 164.088 91.901,164.027 91.837,163.763 92.001 C 162.985 92.481,161.444 90.420,161.962 89.591 C 162.206 89.200,162.628 88.965,162.900 89.070 C 163.172 89.174,163.630 89.259,163.919 89.259 M169.259 93.867 C 169.259 94.161,169.064 94.521,168.826 94.669 C 168.538 94.846,168.469 94.737,168.620 94.344 C 168.745 94.018,168.648 93.671,168.405 93.572 C 168.162 93.473,168.255 93.379,168.611 93.363 C 168.968 93.346,169.259 93.573,169.259 93.867 M170.614 95.661 C 171.234 95.452,171.639 96.287,171.153 96.773 C 170.864 97.062,170.741 97.065,170.741 96.784 C 170.741 96.563,170.407 96.296,170.000 96.189 C 169.590 96.082,169.265 95.690,169.271 95.312 C 169.282 94.701,169.330 94.691,169.734 95.218 C 169.982 95.541,170.378 95.741,170.614 95.661 M92.203 97.986 C 91.783 98.492,91.843 98.535,92.683 98.324 C 94.092 97.970,94.631 99.127,93.740 100.592 C 93.010 101.792,91.111 102.298,91.111 101.292 C 91.111 100.989,91.273 100.741,91.470 100.741 C 91.667 100.741,91.720 100.458,91.587 100.111 C 91.436 99.718,91.290 99.648,91.197 99.926 C 91.116 100.170,90.886 100.370,90.686 100.370 C 90.486 100.370,90.698 99.704,91.156 98.889 C 91.614 98.074,92.145 97.407,92.336 97.407 C 92.527 97.407,92.467 97.668,92.203 97.986 M173.702 101.542 C 174.716 101.436,175.701 102.606,174.839 102.893 C 174.576 102.981,174.569 103.245,174.819 103.711 C 175.064 104.169,175.063 104.476,174.816 104.629 C 174.612 104.755,174.444 104.706,174.444 104.520 C 174.444 104.334,174.069 103.768,173.611 103.262 C 171.762 101.222,171.235 100.521,171.991 101.109 C 172.373 101.406,173.143 101.601,173.702 101.542 M88.036 110.225 C 87.539 111.174,87.512 111.181,87.313 110.420 C 87.176 109.895,87.250 109.700,87.535 109.842 C 87.770 109.959,87.630 109.786,87.224 109.457 C 86.616 108.966,86.578 108.802,87.006 108.538 C 87.963 107.946,88.645 109.063,88.036 110.225 M86.358 111.525 C 85.592 112.272,85.605 112.290,85.828 110.822 C 85.996 109.722,86.059 109.670,86.494 110.265 C 86.897 110.816,86.875 111.020,86.358 111.525 M87.037 112.914 C 87.037 113.067,86.823 113.485,86.561 113.843 C 86.140 114.419,85.958 113.464,86.266 112.293 C 86.325 112.068,87.037 112.642,87.037 112.914 M178.746 114.117 C 178.858 114.602,179.016 115.833,179.096 116.852 C 179.237 118.631,179.222 118.609,178.718 116.296 C 178.430 114.972,178.184 113.653,178.171 113.364 C 178.138 112.602,178.508 113.086,178.746 114.117 M85.550 118.796 C 85.546 119.538,85.454 119.673,85.214 119.293 C 85.032 119.006,84.969 118.547,85.074 118.274 C 85.374 117.491,85.556 117.690,85.550 118.796 " stroke="none" fill="#26b3d0" fill-rule="evenodd"></path><path id="path2" d="M126.111 35.580 C 125.500 35.755,123.542 36.003,121.759 36.131 C 119.977 36.258,118.519 36.481,118.519 36.626 C 118.519 36.770,117.894 36.828,117.130 36.754 C 116.025 36.646,115.854 36.706,116.296 37.044 C 116.737 37.382,116.599 37.426,115.630 37.259 C 114.773 37.111,114.485 37.173,114.666 37.467 C 114.845 37.756,114.638 37.814,113.999 37.653 C 113.490 37.526,112.961 37.533,112.824 37.670 C 112.687 37.807,111.714 37.971,110.661 38.033 C 109.609 38.096,108.616 38.356,108.454 38.611 C 108.292 38.866,108.157 38.956,108.154 38.813 C 108.151 38.669,107.481 38.787,106.667 39.074 C 105.852 39.362,105.185 39.531,105.185 39.450 C 105.185 39.369,104.748 39.530,104.213 39.807 C 103.679 40.085,103.012 40.224,102.732 40.116 C 102.451 40.009,102.222 40.100,102.222 40.319 C 102.222 40.539,101.945 40.611,101.606 40.481 C 101.194 40.323,101.078 40.387,101.255 40.674 C 101.428 40.954,101.321 41.026,100.945 40.882 C 100.628 40.760,100.370 40.855,100.370 41.093 C 100.370 41.331,100.204 41.422,100.000 41.296 C 99.796 41.170,99.630 41.255,99.630 41.485 C 99.630 41.733,99.330 41.807,98.889 41.667 C 98.447 41.527,98.148 41.600,98.148 41.849 C 98.148 42.078,97.995 42.171,97.808 42.055 C 97.620 41.940,97.204 42.108,96.882 42.430 C 96.560 42.752,96.296 42.895,96.296 42.747 C 96.296 42.599,96.005 42.726,95.648 43.030 C 94.912 43.656,92.549 44.666,92.130 44.533 C 91.977 44.484,91.852 44.639,91.852 44.877 C 91.852 45.114,91.751 45.208,91.627 45.084 C 91.504 44.960,91.065 45.174,90.651 45.559 C 90.238 45.944,89.434 46.362,88.864 46.487 C 88.295 46.612,87.644 46.937,87.418 47.210 C 87.192 47.482,86.590 47.810,86.081 47.937 C 85.572 48.065,85.244 48.314,85.353 48.491 C 85.610 48.907,84.497 49.335,83.983 49.018 C 83.743 48.870,83.699 48.951,83.869 49.227 C 84.047 49.515,83.866 49.753,83.371 49.883 C 82.943 49.995,82.593 50.243,82.593 50.435 C 82.593 50.627,82.460 50.702,82.297 50.602 C 82.134 50.501,81.176 51.073,80.167 51.872 C 79.159 52.672,78.144 53.327,77.913 53.329 C 77.682 53.332,77.220 53.749,76.887 54.257 C 76.555 54.765,76.147 55.140,75.982 55.090 C 75.816 55.041,74.563 56.083,73.196 57.407 C 71.829 58.731,70.539 59.769,70.328 59.713 C 70.117 59.657,70.039 59.763,70.154 59.949 C 70.268 60.135,70.114 60.492,69.811 60.744 C 69.507 60.996,69.259 61.072,69.259 60.914 C 69.259 60.756,68.926 60.928,68.519 61.296 C 68.111 61.665,67.778 62.129,67.778 62.328 C 67.778 62.688,66.108 64.552,62.963 67.701 C 62.046 68.619,61.630 69.160,62.037 68.904 C 62.444 68.647,62.201 68.955,61.495 69.589 C 60.790 70.222,60.374 70.743,60.570 70.746 C 60.778 70.750,60.769 70.865,60.547 71.024 C 60.112 71.336,58.867 73.225,58.896 73.528 C 58.907 73.639,58.701 73.968,58.439 74.260 C 57.359 75.460,57.019 75.926,57.222 75.926 C 57.340 75.926,57.222 76.158,56.959 76.443 C 56.696 76.727,56.358 76.885,56.208 76.794 C 56.058 76.703,56.033 76.885,56.154 77.200 C 56.283 77.536,56.129 77.865,55.781 77.999 C 55.456 78.124,55.271 78.358,55.370 78.519 C 55.470 78.680,55.292 78.911,54.974 79.033 C 54.657 79.154,54.501 79.422,54.628 79.627 C 54.755 79.832,54.672 80.000,54.444 80.000 C 54.217 80.000,54.133 80.167,54.259 80.370 C 54.385 80.574,54.312 80.741,54.096 80.741 C 53.880 80.741,53.723 80.866,53.748 81.019 C 53.860 81.728,53.673 82.247,53.372 82.061 C 53.190 81.948,52.942 82.114,52.821 82.429 C 52.684 82.785,52.753 82.907,53.004 82.752 C 53.290 82.576,53.288 82.726,52.998 83.268 C 52.773 83.689,52.420 84.137,52.214 84.264 C 52.008 84.391,51.936 84.651,52.053 84.840 C 52.170 85.030,52.080 85.185,51.852 85.185 C 51.624 85.185,51.541 85.352,51.667 85.556 C 51.793 85.759,51.709 85.926,51.481 85.926 C 51.254 85.926,51.158 86.073,51.269 86.252 C 51.380 86.432,50.975 87.140,50.369 87.826 C 49.763 88.513,49.344 89.282,49.437 89.537 C 49.530 89.792,49.427 90.000,49.208 90.000 C 48.989 90.000,48.909 90.259,49.030 90.575 C 49.174 90.950,49.102 91.058,48.822 90.884 C 48.539 90.709,48.470 90.821,48.620 91.212 C 48.745 91.537,48.675 91.862,48.464 91.932 C 48.253 92.002,48.054 92.513,48.021 93.067 C 47.989 93.620,47.828 94.074,47.663 94.074 C 47.499 94.074,47.473 94.251,47.607 94.468 C 47.741 94.684,47.588 95.151,47.267 95.506 C 46.947 95.860,46.609 96.558,46.518 97.056 C 46.426 97.555,46.325 97.963,46.293 97.963 C 46.261 97.963,46.191 98.296,46.137 98.704 C 46.083 99.111,45.684 100.574,45.251 101.954 C 44.817 103.334,44.357 105.251,44.229 106.213 C 44.100 107.176,43.782 109.088,43.522 110.463 C 43.262 111.838,43.196 112.963,43.376 112.963 C 43.854 112.963,43.778 113.988,43.288 114.151 C 43.060 114.227,42.838 115.032,42.795 115.941 C 42.752 116.849,42.597 117.860,42.451 118.186 C 42.165 118.823,42.356 129.332,42.692 131.481 C 42.803 132.194,43.079 134.111,43.305 135.741 C 43.859 139.733,43.976 140.347,44.991 144.630 C 46.294 150.119,47.868 155.173,48.209 154.962 C 48.375 154.860,48.419 155.014,48.308 155.303 C 48.197 155.593,48.337 156.062,48.620 156.344 C 48.902 156.627,49.065 157.065,48.980 157.318 C 48.896 157.571,49.018 157.778,49.250 157.778 C 49.483 157.778,49.570 157.944,49.444 158.148 C 49.319 158.352,49.381 158.519,49.583 158.519 C 49.883 158.519,50.414 159.536,50.549 160.370 C 50.639 160.925,53.562 166.524,53.881 166.754 C 54.127 166.930,54.129 167.030,53.889 167.037 C 53.685 167.043,53.757 167.199,54.048 167.383 C 54.339 167.568,54.617 167.991,54.666 168.323 C 54.791 169.173,55.868 170.741,56.327 170.741 C 56.538 170.741,56.607 170.909,56.480 171.114 C 56.353 171.319,56.495 171.581,56.795 171.696 C 57.095 171.811,57.442 172.310,57.566 172.805 C 57.690 173.299,57.948 173.704,58.138 173.704 C 58.328 173.704,58.760 174.286,59.097 174.997 C 59.435 175.708,59.831 176.216,59.977 176.125 C 60.123 176.035,60.526 176.601,60.871 177.384 C 61.216 178.167,61.828 178.893,62.231 178.998 C 62.634 179.104,62.963 179.382,62.963 179.617 C 62.963 179.856,62.759 179.925,62.500 179.773 C 62.245 179.624,62.351 179.860,62.735 180.298 C 63.118 180.736,63.578 181.004,63.756 180.894 C 63.934 180.784,64.194 180.991,64.333 181.355 C 64.473 181.719,66.013 183.421,67.756 185.137 C 69.500 186.853,70.884 188.399,70.833 188.573 C 70.782 188.747,70.916 188.889,71.131 188.889 C 71.346 188.889,72.054 189.388,72.705 189.998 C 73.356 190.608,74.060 191.108,74.270 191.109 C 74.480 191.110,74.892 191.444,75.185 191.852 C 75.479 192.259,75.932 192.593,76.193 192.593 C 76.453 192.593,76.625 192.779,76.574 193.006 C 76.523 193.234,76.810 193.475,77.212 193.541 C 77.614 193.608,78.167 193.963,78.442 194.331 C 78.717 194.699,79.096 194.958,79.285 194.907 C 79.475 194.856,79.630 194.991,79.630 195.207 C 79.630 195.423,79.775 195.509,79.953 195.399 C 80.131 195.289,80.728 195.617,81.280 196.128 C 81.831 196.639,82.476 197.094,82.714 197.140 C 82.951 197.185,83.316 197.438,83.524 197.702 C 83.733 197.966,84.275 198.209,84.729 198.244 C 85.184 198.278,85.556 198.447,85.556 198.619 C 85.556 198.792,85.722 198.830,85.926 198.704 C 86.130 198.578,86.296 198.661,86.296 198.889 C 86.296 199.117,86.433 199.219,86.599 199.116 C 86.766 199.013,87.125 199.238,87.397 199.616 C 87.677 200.004,88.136 200.210,88.452 200.089 C 88.787 199.960,88.914 200.030,88.769 200.264 C 88.636 200.481,89.026 200.861,89.644 201.117 C 90.520 201.480,90.709 201.739,90.523 202.324 C 90.393 202.734,90.225 203.587,90.149 204.220 C 90.074 204.853,89.671 206.704,89.254 208.333 C 88.838 209.963,88.410 211.713,88.304 212.222 C 87.368 216.724,85.647 222.933,85.400 222.699 C 85.231 222.539,85.208 222.782,85.349 223.241 C 85.514 223.778,85.451 224.074,85.170 224.074 C 84.887 224.074,84.818 224.408,84.975 225.031 C 85.148 225.723,85.092 225.912,84.771 225.714 C 84.460 225.521,84.390 225.678,84.537 226.238 C 84.651 226.678,84.613 227.037,84.452 227.037 C 84.290 227.037,84.029 227.829,83.870 228.796 C 83.527 230.898,83.671 230.284,82.240 235.741 C 81.599 238.185,80.990 240.602,80.886 241.111 C 80.462 243.186,78.775 248.734,78.442 249.150 C 78.245 249.396,78.192 249.771,78.323 249.984 C 78.455 250.196,78.368 250.370,78.130 250.370 C 77.893 250.370,77.790 250.610,77.903 250.902 C 78.015 251.194,77.960 251.486,77.781 251.550 C 77.527 251.641,76.374 255.486,75.753 258.312 C 75.706 258.527,75.579 258.954,75.470 259.259 C 75.072 260.380,73.757 265.396,73.700 266.013 C 73.686 266.163,73.417 266.997,73.102 267.865 C 72.452 269.654,72.445 269.680,72.055 271.574 C 71.898 272.338,71.594 272.963,71.379 272.963 C 71.164 272.963,71.097 273.073,71.231 273.207 C 71.365 273.341,71.291 273.672,71.066 273.943 C 70.842 274.213,70.758 274.696,70.880 275.015 C 71.026 275.394,70.955 275.503,70.674 275.329 C 70.387 275.152,70.323 275.268,70.481 275.680 C 70.611 276.019,70.573 276.296,70.396 276.296 C 70.069 276.296,69.035 279.922,69.197 280.502 C 69.245 280.676,69.089 281.055,68.849 281.344 C 68.609 281.633,68.519 281.975,68.648 282.105 C 68.777 282.234,68.697 282.563,68.470 282.836 C 68.243 283.110,68.182 283.333,68.333 283.333 C 68.485 283.333,68.450 283.542,68.256 283.796 C 68.061 284.051,67.690 285.259,67.430 286.481 C 67.170 287.704,66.480 290.376,65.896 292.420 C 65.312 294.464,64.759 296.547,64.667 297.050 C 64.575 297.552,64.467 298.046,64.428 298.148 C 64.389 298.250,64.376 298.458,64.401 298.611 C 64.425 298.764,64.258 298.889,64.031 298.889 C 63.800 298.889,63.703 299.215,63.811 299.630 C 63.918 300.037,63.873 300.370,63.712 300.370 C 63.450 300.370,62.151 305.226,61.698 307.899 C 61.600 308.474,61.355 309.474,61.154 310.121 C 60.952 310.767,60.690 312.046,60.571 312.963 C 60.452 313.880,60.210 315.253,60.032 316.014 C 59.220 319.498,59.582 326.995,60.757 331.027 C 61.381 333.172,62.297 335.185,62.649 335.185 C 62.822 335.185,62.943 335.310,62.919 335.463 C 62.803 336.198,63.000 336.688,63.329 336.484 C 63.536 336.356,63.603 336.498,63.483 336.810 C 63.359 337.135,63.589 337.561,64.043 337.844 C 64.468 338.109,64.815 338.495,64.816 338.700 C 64.818 339.159,69.195 344.259,69.587 344.259 C 69.741 344.259,70.161 344.552,70.519 344.911 C 70.878 345.269,71.324 345.468,71.511 345.352 C 71.699 345.236,71.852 345.320,71.852 345.539 C 71.852 345.868,75.183 347.655,76.481 348.023 C 83.165 349.915,90.437 350.000,94.815 348.239 C 95.324 348.034,95.867 347.848,96.020 347.826 C 96.751 347.721,98.827 346.696,99.054 346.328 C 99.195 346.100,99.467 346.010,99.658 346.129 C 99.849 346.247,100.109 346.073,100.236 345.743 C 100.362 345.413,100.694 345.230,100.974 345.337 C 101.253 345.445,101.481 345.371,101.481 345.174 C 101.481 344.976,101.651 344.815,101.858 344.815 C 102.066 344.815,103.857 343.201,105.840 341.229 C 107.822 339.256,109.194 337.769,108.889 337.923 C 108.563 338.087,108.602 337.983,108.981 337.672 C 109.338 337.380,109.630 336.964,109.630 336.749 C 109.630 336.534,109.771 336.302,109.944 336.235 C 110.211 336.130,112.707 331.284,112.774 330.741 C 112.906 329.676,114.323 325.556,114.557 325.556 C 114.726 325.556,114.752 325.201,114.615 324.768 C 114.463 324.290,114.508 324.069,114.729 324.206 C 115.133 324.456,115.699 321.643,115.356 321.089 C 115.238 320.897,115.303 320.741,115.501 320.741 C 115.823 320.741,116.309 318.851,116.500 316.852 C 116.539 316.444,116.684 315.844,116.823 315.518 C 116.961 315.192,117.038 314.775,116.995 314.592 C 116.951 314.409,117.022 313.843,117.152 313.333 C 117.282 312.824,117.463 311.657,117.555 310.741 C 117.647 309.824,117.814 308.574,117.927 307.963 C 118.040 307.352,118.207 306.269,118.298 305.556 C 119.463 296.424,121.054 286.679,121.541 285.692 C 121.755 285.258,121.818 284.550,121.681 284.118 C 121.523 283.622,121.592 283.333,121.867 283.333 C 122.150 283.333,122.219 282.999,122.062 282.376 C 121.889 281.685,121.945 281.495,122.265 281.693 C 122.592 281.895,122.650 281.611,122.488 280.613 C 122.352 279.772,122.417 279.259,122.659 279.259 C 122.876 279.259,122.971 278.847,122.872 278.333 C 122.775 277.824,122.849 277.407,123.037 277.407 C 123.224 277.407,123.300 276.916,123.206 276.315 C 123.111 275.715,123.145 275.173,123.281 275.112 C 123.418 275.050,123.814 273.083,124.161 270.741 C 125.667 260.593,126.802 253.773,127.953 247.963 C 128.275 246.333,128.545 244.708,128.552 244.352 C 128.559 243.995,128.740 243.704,128.955 243.704 C 129.172 243.704,129.267 243.292,129.169 242.778 C 129.071 242.269,129.113 241.852,129.261 241.852 C 129.482 241.852,130.781 235.927,131.372 232.222 C 131.694 230.208,131.784 229.761,132.154 228.333 C 132.365 227.519,132.619 226.269,132.718 225.556 C 132.923 224.078,133.814 219.575,134.666 215.706 C 134.984 214.261,135.189 212.761,135.122 212.373 C 135.009 211.721,135.273 211.663,138.519 211.625 C 143.732 211.563,146.495 211.281,150.000 210.452 C 151.731 210.042,153.856 209.592,154.722 209.451 C 155.588 209.310,156.296 209.047,156.296 208.868 C 156.296 208.689,156.546 208.638,156.852 208.755 C 157.157 208.872,157.407 208.799,157.407 208.593 C 157.407 208.386,157.767 208.311,158.206 208.426 C 158.788 208.578,158.926 208.508,158.715 208.167 C 158.502 207.822,158.633 207.764,159.213 207.948 C 159.670 208.093,160.000 208.037,160.000 207.814 C 160.000 207.603,160.250 207.527,160.556 207.644 C 160.861 207.761,161.111 207.693,161.111 207.492 C 161.111 207.292,162.153 206.759,163.426 206.310 C 164.699 205.860,166.176 205.261,166.707 204.978 C 167.239 204.695,167.781 204.571,167.911 204.701 C 168.041 204.832,168.148 204.734,168.148 204.484 C 168.148 204.235,168.315 204.133,168.519 204.259 C 168.722 204.385,168.889 204.339,168.889 204.158 C 168.889 203.976,169.097 203.827,169.352 203.827 C 170.444 203.826,176.345 200.749,176.079 200.318 C 175.891 200.015,175.999 199.949,176.421 200.111 C 176.821 200.264,177.037 200.159,177.037 199.810 C 177.037 199.515,177.454 199.169,177.963 199.041 C 178.472 198.913,178.889 198.642,178.889 198.439 C 178.889 198.235,179.139 198.165,179.444 198.282 C 179.750 198.399,180.000 198.334,180.000 198.137 C 180.000 197.939,180.255 197.778,180.567 197.778 C 180.879 197.778,181.230 197.529,181.347 197.224 C 181.464 196.920,181.708 196.763,181.891 196.876 C 182.073 196.989,182.222 196.904,182.222 196.689 C 182.222 196.473,182.402 196.296,182.621 196.296 C 182.840 196.296,183.527 195.789,184.148 195.169 C 184.768 194.548,185.360 194.126,185.464 194.230 C 185.782 194.548,187.072 193.690,186.840 193.315 C 186.721 193.121,186.881 192.963,187.197 192.963 C 187.513 192.963,187.980 192.630,188.234 192.222 C 188.489 191.815,188.867 191.481,189.075 191.481 C 189.283 191.481,189.857 190.991,190.352 190.392 C 190.847 189.793,191.387 189.386,191.552 189.488 C 191.717 189.590,191.852 189.404,191.852 189.074 C 191.852 188.744,192.019 188.578,192.222 188.704 C 192.426 188.830,192.593 188.778,192.593 188.590 C 192.593 188.401,193.265 187.801,194.087 187.257 C 194.909 186.713,195.492 186.123,195.382 185.944 C 195.272 185.766,195.870 185.075,196.712 184.408 C 197.554 183.741,198.710 182.552,199.280 181.764 C 199.851 180.976,200.454 180.350,200.622 180.371 C 200.789 180.392,200.984 180.109,201.054 179.742 C 201.124 179.375,201.609 178.699,202.130 178.241 C 202.652 177.782,202.943 177.407,202.779 177.407 C 202.614 177.407,202.838 177.096,203.277 176.716 C 203.715 176.335,204.074 175.844,204.074 175.623 C 204.074 175.402,204.291 175.089,204.556 174.926 C 205.249 174.500,206.683 172.362,206.439 172.118 C 206.326 172.005,206.585 171.723,207.016 171.493 C 207.446 171.262,207.711 170.933,207.605 170.761 C 207.499 170.589,207.671 170.348,207.989 170.227 C 208.306 170.105,208.473 169.855,208.359 169.671 C 208.245 169.487,208.412 169.237,208.729 169.115 C 209.047 168.994,209.202 168.726,209.076 168.521 C 208.949 168.316,209.009 168.148,209.209 168.148 C 209.409 168.148,209.765 167.565,210.000 166.852 C 210.235 166.139,210.609 165.556,210.831 165.556 C 211.053 165.556,211.136 165.456,211.014 165.335 C 210.893 165.214,211.449 163.894,212.249 162.402 C 213.049 160.909,213.704 159.437,213.704 159.130 C 213.704 158.823,213.966 158.310,214.286 157.989 C 214.606 157.669,214.761 157.407,214.630 157.407 C 214.499 157.407,214.663 157.136,214.995 156.804 C 215.327 156.472,215.510 155.972,215.403 155.693 C 215.296 155.414,215.388 155.185,215.607 155.185 C 215.826 155.185,215.914 154.947,215.802 154.657 C 215.691 154.366,215.822 153.943,216.094 153.718 C 216.518 153.366,217.141 151.383,217.203 150.185 C 217.214 149.981,217.314 149.731,217.425 149.630 C 217.586 149.484,218.498 146.825,218.697 145.926 C 218.719 145.824,219.033 144.451,219.393 142.874 C 219.754 141.298,219.929 139.814,219.782 139.576 C 219.605 139.290,219.678 139.245,219.999 139.444 C 220.379 139.679,220.439 139.412,220.277 138.205 C 220.163 137.359,220.200 136.747,220.358 136.844 C 220.734 137.076,221.228 132.062,220.924 131.105 C 220.759 130.584,220.861 130.370,221.276 130.370 C 221.987 130.370,222.059 124.332,221.372 122.315 C 221.063 121.407,221.072 121.002,221.407 120.667 C 221.943 120.131,222.005 116.064,221.481 115.741 C 221.278 115.615,221.109 114.730,221.107 113.774 C 221.101 111.115,220.701 109.106,220.295 109.694 C 220.081 110.004,220.040 109.572,220.185 108.519 C 220.363 107.226,220.319 106.977,219.991 107.407 C 219.659 107.844,219.609 107.667,219.761 106.574 C 219.875 105.754,219.799 105.185,219.577 105.185 C 219.348 105.185,219.300 104.732,219.455 104.028 C 219.648 103.145,219.598 102.939,219.241 103.159 C 218.885 103.379,218.830 103.165,219.011 102.261 C 219.179 101.420,219.125 101.150,218.826 101.335 C 218.561 101.499,218.506 101.431,218.678 101.152 C 218.829 100.908,218.776 100.495,218.559 100.234 C 218.343 99.973,218.235 99.397,218.321 98.954 C 218.406 98.511,218.301 98.148,218.087 98.148 C 217.873 98.148,217.788 97.914,217.898 97.629 C 218.007 97.343,217.993 97.005,217.865 96.877 C 217.737 96.750,217.601 96.429,217.562 96.165 C 217.339 94.641,215.738 90.443,215.449 90.621 C 215.254 90.742,215.210 90.506,215.346 90.075 C 215.506 89.573,215.347 89.089,214.876 88.640 C 214.486 88.268,214.039 87.552,213.884 87.050 C 213.347 85.305,209.954 78.519,209.619 78.519 C 209.434 78.519,209.378 78.269,209.496 77.963 C 209.634 77.602,209.486 77.407,209.074 77.407 C 208.652 77.407,208.513 77.214,208.661 76.831 C 208.791 76.490,208.532 75.922,208.026 75.442 C 207.109 74.571,205.318 71.970,204.436 70.228 C 204.139 69.640,203.520 68.914,203.062 68.613 C 202.604 68.313,202.318 67.922,202.427 67.746 C 202.537 67.569,201.958 66.962,201.142 66.397 C 200.326 65.832,199.651 65.160,199.644 64.903 C 199.628 64.366,193.244 57.778,192.740 57.778 C 192.557 57.778,191.854 57.153,191.177 56.389 C 190.500 55.625,190.055 55.250,190.188 55.556 C 190.321 55.861,190.017 55.663,189.512 55.116 C 189.008 54.569,188.508 54.208,188.401 54.315 C 188.295 54.421,188.022 54.160,187.795 53.735 C 187.567 53.311,187.158 52.963,186.884 52.963 C 186.611 52.963,186.181 52.715,185.929 52.411 C 185.678 52.108,185.341 51.941,185.182 52.039 C 185.023 52.137,184.797 51.969,184.680 51.665 C 184.563 51.360,184.212 51.111,183.901 51.111 C 183.589 51.111,183.333 50.935,183.333 50.719 C 183.333 50.503,183.179 50.422,182.990 50.539 C 182.801 50.656,182.539 50.413,182.407 50.000 C 182.276 49.587,182.032 49.333,181.864 49.437 C 181.696 49.541,181.465 49.379,181.349 49.078 C 181.230 48.767,180.893 48.625,180.570 48.750 C 180.203 48.890,180.000 48.756,180.000 48.373 C 180.000 48.046,179.875 47.798,179.722 47.822 C 179.569 47.846,179.319 47.825,179.167 47.775 C 179.014 47.726,178.752 47.664,178.585 47.639 C 178.417 47.613,177.987 47.299,177.629 46.941 C 177.271 46.583,176.824 46.384,176.637 46.500 C 176.450 46.616,176.296 46.534,176.296 46.318 C 176.296 46.102,175.994 45.926,175.625 45.926 C 175.256 45.926,174.625 45.634,174.222 45.278 C 173.497 44.636,172.839 44.364,171.944 44.336 C 171.690 44.328,171.481 44.209,171.481 44.072 C 171.481 43.776,169.567 42.805,169.167 42.898 C 169.014 42.934,168.889 42.802,168.889 42.604 C 168.889 42.407,168.640 42.341,168.336 42.457 C 168.028 42.576,167.689 42.421,167.569 42.109 C 167.352 41.543,166.269 41.137,164.288 40.881 C 163.693 40.803,162.901 40.465,162.529 40.128 C 162.157 39.791,161.852 39.644,161.852 39.803 C 161.852 39.961,161.621 39.899,161.339 39.665 C 161.057 39.431,160.217 39.217,159.472 39.189 C 158.727 39.161,158.035 39.006,157.936 38.844 C 157.836 38.683,157.509 38.645,157.210 38.760 C 156.911 38.874,156.667 38.766,156.667 38.519 C 156.667 38.270,156.417 38.165,156.107 38.284 C 155.281 38.601,153.304 38.124,153.582 37.675 C 153.737 37.425,153.413 37.373,152.650 37.526 C 151.905 37.674,151.481 37.611,151.481 37.352 C 151.481 37.097,151.066 37.027,150.370 37.167 C 149.681 37.304,149.259 37.236,149.259 36.987 C 149.259 36.726,148.770 36.669,147.870 36.824 C 146.826 37.005,146.619 36.965,147.037 36.665 C 147.471 36.353,147.310 36.280,146.296 36.332 C 145.583 36.369,144.701 36.272,144.335 36.116 C 143.969 35.961,142.930 35.917,142.027 36.019 C 140.896 36.146,140.253 36.045,139.962 35.694 C 139.475 35.108,128.082 35.014,126.111 35.580 M143.519 52.427 C 189.570 59.215,216.702 106.490,199.427 149.842 C 184.543 187.193,142.985 204.946,104.881 190.230 C 92.614 185.493,80.977 176.341,72.854 165.041 C 47.485 129.750,59.822 79.528,98.704 59.816 C 108.912 54.640,113.913 53.189,126.667 51.699 C 129.089 51.416,139.799 51.878,143.519 52.427 M123.148 64.614 C 105.528 67.833,91.689 76.583,82.417 90.370 C 59.977 123.739,77.436 170.042,116.296 180.218 C 162.268 192.257,202.182 148.789,187.187 103.015 C 178.756 77.278,149.586 59.786,123.148 64.614 M139.859 75.017 C 175.155 81.165,191.834 120.653,171.750 150.521 C 148.641 184.891,95.482 175.831,85.017 135.741 C 76.248 102.147,106.065 69.132,139.859 75.017 M327.406 81.420 C 327.405 81.556,326.677 81.693,325.788 81.724 C 323.194 81.817,321.371 83.072,318.281 86.894 C 317.641 87.686,316.683 88.857,316.151 89.498 C 315.620 90.138,315.185 90.807,315.185 90.983 C 315.185 91.159,314.845 91.516,314.430 91.775 C 314.015 92.034,313.775 92.408,313.896 92.605 C 314.018 92.802,313.961 92.963,313.770 92.963 C 313.368 92.963,310.370 96.833,310.370 97.352 C 310.370 97.543,310.120 97.794,309.815 97.912 C 309.509 98.029,309.259 98.304,309.259 98.523 C 309.259 98.945,308.863 99.496,307.467 101.011 C 305.937 102.672,302.887 106.667,303.149 106.667 C 303.414 106.667,301.399 109.155,299.117 111.646 C 298.380 112.450,297.778 113.319,297.778 113.576 C 297.778 113.834,297.478 114.343,297.111 114.708 C 296.258 115.554,292.531 120.370,292.729 120.370 C 292.810 120.370,292.244 121.063,291.470 121.910 C 290.696 122.756,289.842 123.863,289.571 124.369 C 289.300 124.876,288.543 125.874,287.890 126.587 C 287.237 127.300,286.736 128.015,286.777 128.175 C 286.818 128.336,286.269 129.091,285.556 129.855 C 284.843 130.619,284.255 131.339,284.250 131.455 C 284.245 131.571,283.630 132.324,282.884 133.128 C 282.138 133.932,281.611 134.724,281.712 134.888 C 281.813 135.051,281.719 135.185,281.503 135.185 C 281.288 135.185,281.111 135.383,281.111 135.624 C 281.111 135.866,280.444 136.854,279.630 137.820 C 278.815 138.787,278.148 139.766,278.148 139.996 C 278.148 140.226,278.000 140.323,277.820 140.211 C 277.639 140.099,277.285 140.256,277.034 140.560 C 276.782 140.863,276.680 141.111,276.807 141.111 C 276.933 141.111,276.704 141.444,276.296 141.852 C 275.889 142.259,275.556 142.825,275.556 143.109 C 275.556 143.392,275.306 143.720,275.000 143.838 C 274.694 143.955,274.444 144.202,274.444 144.386 C 274.444 144.571,273.861 145.359,273.148 146.137 C 272.435 146.915,271.852 147.665,271.852 147.804 C 271.852 147.942,271.275 148.685,270.569 149.455 C 269.864 150.226,269.363 150.979,269.456 151.130 C 269.549 151.281,269.412 151.486,269.152 151.586 C 268.891 151.686,268.184 152.486,267.580 153.364 C 266.976 154.242,266.106 155.368,265.648 155.867 C 265.190 156.367,264.815 156.981,264.815 157.234 C 264.815 157.486,264.393 157.969,263.877 158.307 C 263.361 158.645,263.019 159.050,263.117 159.208 C 263.214 159.366,262.969 159.729,262.573 160.014 C 262.176 160.300,261.852 160.729,261.852 160.968 C 261.852 161.207,261.602 161.498,261.296 161.615 C 260.991 161.733,260.741 162.066,260.741 162.356 C 260.741 162.646,260.489 162.980,260.182 163.098 C 259.874 163.216,259.661 163.442,259.708 163.601 C 259.838 164.045,257.182 167.533,256.306 168.068 C 255.877 168.329,255.616 168.686,255.724 168.862 C 255.833 169.038,255.670 169.278,255.363 169.396 C 255.055 169.514,254.640 169.990,254.440 170.453 C 253.932 171.630,253.338 172.483,251.947 174.032 C 251.287 174.768,250.537 175.802,250.281 176.329 C 250.024 176.857,249.664 177.299,249.479 177.312 C 249.294 177.326,248.878 177.809,248.553 178.386 C 248.228 178.963,247.788 179.604,247.574 179.810 C 246.643 180.707,244.421 183.704,244.687 183.704 C 244.848 183.704,244.609 183.963,244.156 184.280 C 243.704 184.597,243.333 185.092,243.333 185.378 C 243.333 185.665,242.995 186.081,242.582 186.302 C 242.169 186.523,241.929 186.862,242.049 187.056 C 242.168 187.249,242.116 187.407,241.933 187.407 C 241.543 187.407,238.568 191.211,237.811 192.679 C 237.524 193.236,236.662 194.315,235.896 195.076 C 235.129 195.838,234.577 196.582,234.669 196.730 C 234.761 196.879,234.498 197.181,234.084 197.402 C 233.671 197.623,233.333 198.030,233.333 198.307 C 233.333 198.583,233.083 198.906,232.778 199.023 C 232.472 199.140,232.219 199.450,232.215 199.711 C 232.211 199.972,231.300 201.269,230.191 202.593 C 229.081 203.917,227.547 205.917,226.780 207.037 C 226.014 208.157,225.216 209.277,225.008 209.524 C 224.800 209.772,224.421 210.223,224.167 210.527 C 223.912 210.831,223.704 211.236,223.704 211.426 C 223.704 211.617,223.454 211.869,223.148 211.986 C 222.843 212.103,222.593 212.362,222.593 212.560 C 222.593 212.759,222.020 213.547,221.319 214.311 C 220.619 215.076,220.124 215.827,220.219 215.980 C 220.314 216.134,220.053 216.440,219.640 216.661 C 219.227 216.882,218.889 217.267,218.889 217.517 C 218.889 217.766,218.539 218.188,218.112 218.455 C 217.685 218.722,217.434 219.039,217.554 219.159 C 217.675 219.280,217.438 219.613,217.028 219.900 C 216.619 220.186,216.361 220.545,216.454 220.697 C 216.548 220.848,215.987 221.670,215.207 222.523 C 214.427 223.376,213.828 224.074,213.875 224.074 C 213.922 224.074,213.319 224.768,212.536 225.617 C 211.752 226.466,211.186 227.235,211.277 227.327 C 211.447 227.497,208.095 231.778,206.222 233.784 C 205.652 234.394,205.185 235.112,205.185 235.379 C 205.185 235.646,205.058 235.920,204.904 235.988 C 204.475 236.176,199.590 242.546,199.710 242.761 C 199.768 242.864,199.440 243.211,198.981 243.532 C 198.523 243.853,198.148 244.256,198.148 244.426 C 198.148 244.597,197.648 245.272,197.037 245.926 C 196.426 246.580,195.926 247.330,195.926 247.592 C 195.926 247.854,195.683 248.162,195.387 248.276 C 195.091 248.389,194.507 249.152,194.090 249.970 C 193.672 250.787,192.993 251.637,192.581 251.858 C 192.169 252.079,191.924 252.409,192.037 252.593 C 192.150 252.776,191.905 253.107,191.492 253.328 C 191.079 253.549,190.741 253.956,190.741 254.233 C 190.741 254.509,190.480 254.836,190.162 254.958 C 189.843 255.080,189.687 255.349,189.815 255.556 C 189.942 255.762,189.786 256.031,189.468 256.153 C 189.149 256.276,188.889 256.538,188.889 256.737 C 188.889 256.935,188.326 257.792,187.638 258.641 C 186.950 259.490,186.271 260.563,186.130 261.024 C 185.988 261.485,185.720 261.768,185.533 261.653 C 185.346 261.537,185.303 261.728,185.438 262.079 C 185.587 262.467,185.534 262.623,185.303 262.480 C 185.081 262.343,184.664 263.197,184.293 264.549 C 183.945 265.816,183.422 267.685,183.131 268.704 C 182.839 269.722,182.279 271.889,181.886 273.519 C 181.492 275.148,180.734 278.065,180.201 280.000 C 179.668 281.935,179.145 283.930,179.039 284.433 C 178.932 284.936,178.674 285.554,178.465 285.806 C 178.256 286.058,178.192 286.438,178.323 286.650 C 178.455 286.863,178.368 287.037,178.130 287.037 C 177.893 287.037,177.790 287.276,177.903 287.569 C 178.015 287.861,177.945 288.154,177.747 288.220 C 177.550 288.286,177.334 288.938,177.269 289.670 C 177.203 290.402,177.061 291.150,176.953 291.333 C 176.650 291.849,175.618 295.591,175.381 297.037 C 175.264 297.750,174.933 299.167,174.647 300.185 C 174.360 301.204,173.605 304.037,172.970 306.481 C 172.334 308.926,171.713 311.176,171.589 311.481 C 171.466 311.787,171.398 312.245,171.439 312.500 C 171.480 312.755,171.321 312.963,171.084 312.963 C 170.840 312.963,170.736 313.276,170.843 313.686 C 170.947 314.084,170.867 314.464,170.665 314.532 C 170.462 314.599,170.258 315.149,170.210 315.754 C 170.163 316.359,169.951 317.187,169.741 317.594 C 169.530 318.001,168.899 320.414,168.340 322.956 C 167.780 325.498,167.006 328.567,166.620 329.774 C 166.235 330.982,165.855 332.319,165.776 332.744 C 165.262 335.538,164.246 339.259,163.999 339.259 C 163.836 339.259,163.704 339.843,163.704 340.556 C 163.704 341.269,163.870 341.852,164.074 341.852 C 164.278 341.852,164.444 342.269,164.444 342.778 C 164.444 343.287,164.749 344.008,165.121 344.380 C 165.493 344.752,165.910 345.351,166.049 345.712 C 166.187 346.072,166.633 346.454,167.039 346.560 C 167.445 346.666,167.778 346.896,167.778 347.071 C 167.778 349.100,174.871 349.089,178.179 347.054 C 179.186 346.433,180.175 345.926,180.376 345.926 C 180.577 345.926,180.741 345.759,180.741 345.556 C 180.741 345.352,180.991 345.185,181.296 345.185 C 181.602 345.185,182.185 344.852,182.593 344.444 C 183.000 344.037,183.333 343.824,183.333 343.971 C 183.333 344.119,183.824 343.702,184.424 343.046 C 185.023 342.389,185.773 341.852,186.090 341.852 C 186.407 341.852,186.667 341.685,186.667 341.481 C 186.667 341.278,186.905 341.111,187.196 341.111 C 187.487 341.111,187.945 340.903,188.214 340.648 C 188.483 340.394,189.178 339.940,189.758 339.640 C 190.338 339.341,191.284 338.614,191.858 338.026 C 192.499 337.371,193.081 337.066,193.361 337.239 C 193.647 337.416,193.724 337.369,193.565 337.113 C 193.426 336.888,193.671 336.512,194.108 336.278 C 194.752 335.934,194.855 335.948,194.648 336.352 C 194.506 336.627,194.819 336.352,195.342 335.741 C 195.865 335.130,196.293 334.769,196.294 334.939 C 196.295 335.109,197.110 334.651,198.105 333.920 C 199.100 333.190,200.100 332.593,200.327 332.593 C 200.555 332.593,200.741 332.426,200.741 332.222 C 200.741 332.019,200.973 331.852,201.257 331.852 C 201.540 331.852,201.878 331.578,202.006 331.243 C 202.135 330.909,202.344 330.739,202.472 330.867 C 202.600 330.995,202.942 330.811,203.232 330.457 C 203.521 330.104,203.637 330.049,203.489 330.335 C 203.311 330.677,203.365 330.765,203.646 330.591 C 203.882 330.446,204.074 330.089,204.074 329.798 C 204.074 329.081,206.877 327.265,207.443 327.615 C 207.729 327.791,207.796 327.737,207.628 327.465 C 207.392 327.083,207.835 326.871,208.611 326.993 C 208.764 327.017,208.889 326.911,208.889 326.757 C 208.889 326.603,209.371 326.264,209.961 326.003 C 210.550 325.742,211.456 325.135,211.975 324.655 C 212.493 324.174,212.997 323.862,213.095 323.959 C 213.193 324.057,213.466 323.777,213.702 323.336 C 213.945 322.883,214.355 322.621,214.646 322.733 C 214.930 322.842,215.276 322.745,215.416 322.519 C 215.580 322.253,215.499 322.213,215.185 322.407 C 214.860 322.608,214.790 322.563,214.971 322.270 C 215.119 322.029,215.437 321.877,215.676 321.932 C 215.915 321.987,216.160 321.866,216.219 321.664 C 216.279 321.462,216.904 321.001,217.608 320.639 C 218.313 320.278,218.889 319.810,218.889 319.599 C 218.889 319.388,219.057 319.319,219.262 319.446 C 219.467 319.573,219.734 319.417,219.856 319.100 C 219.978 318.782,220.228 318.616,220.412 318.729 C 220.596 318.843,220.839 318.694,220.952 318.398 C 221.066 318.103,221.663 317.760,222.280 317.637 C 222.984 317.496,223.475 317.130,223.600 316.654 C 223.709 316.237,223.985 315.961,224.214 316.042 C 224.443 316.122,224.849 315.837,225.118 315.409 C 225.456 314.870,225.545 314.830,225.408 315.278 C 225.088 316.316,225.536 316.024,225.956 314.920 C 226.263 314.112,226.407 314.021,226.682 314.457 C 226.979 314.927,227.026 314.922,227.031 314.426 C 227.034 314.109,227.618 313.643,228.333 313.384 C 229.046 313.126,229.630 312.759,229.630 312.569 C 229.630 312.378,229.880 312.222,230.185 312.222 C 230.491 312.222,230.741 312.056,230.741 311.852 C 230.741 311.648,230.985 311.481,231.283 311.481 C 231.582 311.481,232.004 311.148,232.222 310.741 C 232.440 310.333,232.937 310.000,233.325 310.000 C 233.714 310.000,234.292 309.630,234.609 309.177 C 234.926 308.724,235.185 308.506,235.185 308.692 C 235.185 308.878,235.448 308.707,235.768 308.312 C 236.089 307.916,236.234 307.843,236.090 308.148 C 235.947 308.454,236.851 307.676,238.100 306.421 C 239.349 305.166,240.370 304.033,240.370 303.903 C 240.370 303.774,240.787 303.282,241.296 302.810 C 241.806 302.338,242.222 301.867,242.222 301.763 C 242.222 301.660,242.798 300.946,243.501 300.179 C 244.204 299.411,244.751 298.682,244.715 298.558 C 244.680 298.434,245.188 297.755,245.844 297.047 C 246.500 296.340,247.037 295.566,247.037 295.327 C 247.037 295.089,247.287 294.798,247.593 294.681 C 247.898 294.564,248.148 294.212,248.148 293.901 C 248.148 293.589,248.315 293.333,248.519 293.333 C 248.722 293.333,248.889 293.147,248.889 292.919 C 248.889 292.692,249.554 291.840,250.367 291.027 C 251.180 290.214,251.759 289.409,251.653 289.237 C 251.547 289.066,251.799 288.745,252.212 288.524 C 252.625 288.303,252.963 287.896,252.963 287.619 C 252.963 287.343,253.213 287.020,253.519 286.903 C 253.824 286.786,254.074 286.430,254.074 286.113 C 254.074 285.609,255.087 284.290,257.060 282.226 C 257.378 281.893,257.565 281.399,257.475 281.129 C 257.384 280.856,257.483 280.744,257.698 280.876 C 258.007 281.067,261.832 276.178,262.593 274.621 C 262.694 274.412,263.278 273.688,263.889 273.011 C 264.500 272.335,265.007 271.672,265.015 271.539 C 265.023 271.405,265.565 270.737,266.219 270.053 C 266.872 269.370,267.407 268.584,267.407 268.307 C 267.407 268.030,267.745 267.623,268.159 267.402 C 268.572 267.181,268.823 266.859,268.716 266.687 C 268.610 266.515,268.763 266.282,269.057 266.169 C 269.351 266.056,269.864 265.435,270.199 264.789 C 270.533 264.142,271.375 263.045,272.070 262.350 C 272.765 261.655,273.333 260.860,273.333 260.583 C 273.333 260.306,273.583 259.983,273.889 259.866 C 274.194 259.749,274.444 259.415,274.444 259.125 C 274.444 258.835,274.718 258.493,275.053 258.364 C 275.388 258.236,275.559 258.028,275.433 257.902 C 275.175 257.644,276.718 255.569,279.339 252.653 C 280.316 251.566,281.030 250.539,280.926 250.370 C 280.821 250.201,280.863 250.007,281.019 249.939 C 281.491 249.732,283.704 246.773,283.704 246.349 C 283.704 246.130,284.037 245.774,284.444 245.556 C 284.852 245.338,285.185 244.983,285.185 244.769 C 285.185 244.554,285.560 244.059,286.019 243.670 C 286.782 243.021,286.789 242.979,286.111 243.173 C 285.575 243.326,285.627 243.232,286.296 242.833 C 286.806 242.530,287.226 242.144,287.231 241.974 C 287.235 241.805,287.694 241.184,288.249 240.594 C 288.805 240.004,289.259 239.389,289.259 239.228 C 289.259 239.067,289.759 238.387,290.370 237.718 C 290.981 237.049,291.481 236.313,291.481 236.083 C 291.481 235.852,291.936 235.181,292.491 234.591 C 293.047 234.001,293.510 233.435,293.520 233.333 C 293.530 233.231,294.060 232.587,294.696 231.901 C 295.333 231.216,296.225 229.933,296.679 229.050 C 297.133 228.168,297.899 227.075,298.382 226.621 C 298.864 226.168,299.259 225.587,299.259 225.331 C 299.259 225.075,299.752 224.515,300.354 224.086 C 301.023 223.609,301.367 223.096,301.240 222.764 C 301.115 222.438,301.251 222.222,301.582 222.222 C 301.885 222.222,302.333 221.739,302.577 221.148 C 302.822 220.557,303.426 219.694,303.919 219.231 C 304.412 218.768,304.815 218.237,304.815 218.050 C 304.815 217.864,305.253 217.247,305.789 216.679 C 306.325 216.111,306.764 215.501,306.765 215.323 C 306.766 215.146,307.080 214.780,307.463 214.512 C 307.847 214.243,308.070 213.876,307.959 213.697 C 307.848 213.517,308.100 213.187,308.519 212.963 C 308.937 212.739,309.202 212.429,309.107 212.275 C 309.011 212.121,309.340 211.689,309.837 211.316 C 310.334 210.942,310.741 210.428,310.741 210.173 C 310.741 209.918,311.001 209.609,311.320 209.487 C 311.638 209.364,311.806 209.114,311.692 208.930 C 311.579 208.747,311.735 208.501,312.039 208.384 C 312.344 208.267,312.593 207.953,312.593 207.687 C 312.593 207.420,313.129 206.623,313.785 205.916 C 314.441 205.208,314.943 204.510,314.900 204.363 C 314.857 204.216,315.154 203.919,315.559 203.702 C 315.965 203.485,316.296 203.081,316.296 202.804 C 316.296 202.528,316.546 202.206,316.852 202.088 C 317.157 201.971,317.407 201.620,317.407 201.308 C 317.407 200.996,317.574 200.741,317.778 200.741 C 317.981 200.741,318.148 200.516,318.148 200.242 C 318.148 199.749,318.571 199.192,320.861 196.667 C 321.508 195.955,321.995 195.246,321.944 195.093 C 321.894 194.940,321.996 194.815,322.173 194.815 C 322.350 194.815,322.935 194.148,323.475 193.333 C 324.014 192.519,324.332 191.852,324.182 191.852 C 324.032 191.852,324.282 191.590,324.739 191.271 C 325.195 190.951,325.488 190.561,325.390 190.402 C 325.292 190.244,325.766 189.510,326.443 188.771 C 327.120 188.032,327.600 187.353,327.509 187.262 C 327.418 187.171,327.706 186.903,328.148 186.667 C 328.590 186.430,328.860 186.144,328.748 186.032 C 328.636 185.920,328.951 185.507,329.450 185.115 C 329.948 184.723,330.323 184.286,330.282 184.145 C 330.241 184.004,330.736 183.319,331.382 182.622 C 332.029 181.925,332.478 181.225,332.380 181.066 C 332.282 180.908,332.539 180.597,332.953 180.376 C 333.366 180.155,333.704 179.797,333.704 179.581 C 333.704 179.365,334.078 178.663,334.536 178.020 C 334.994 177.378,335.377 176.685,335.387 176.481 C 335.396 176.278,335.589 176.147,335.815 176.192 C 336.040 176.236,336.428 176.028,336.676 175.729 C 336.925 175.430,336.987 175.185,336.815 175.185 C 336.643 175.185,336.872 174.926,337.325 174.609 C 337.778 174.292,338.148 173.792,338.148 173.498 C 338.148 173.204,338.333 172.963,338.558 172.963 C 338.784 172.963,338.872 172.713,338.755 172.407 C 338.632 172.088,338.748 171.852,339.026 171.852 C 339.293 171.852,339.703 171.477,339.938 171.019 C 340.823 169.292,341.812 167.981,343.508 166.286 C 344.114 165.680,344.477 165.185,344.315 165.185 C 344.154 165.185,344.241 164.941,344.511 164.642 C 345.654 163.375,345.939 162.963,345.673 162.963 C 345.518 162.963,345.761 162.704,346.214 162.386 C 346.667 162.069,347.037 161.587,347.037 161.315 C 347.037 161.043,347.311 160.715,347.646 160.586 C 347.980 160.458,348.148 160.247,348.018 160.117 C 347.889 159.987,348.115 159.649,348.521 159.364 C 348.927 159.080,349.259 158.646,349.259 158.401 C 349.259 158.156,349.609 157.738,350.036 157.471 C 350.463 157.204,350.737 156.909,350.643 156.816 C 350.550 156.723,351.028 156.042,351.705 155.303 C 352.382 154.564,352.856 153.830,352.758 153.672 C 352.660 153.513,352.953 153.123,353.410 152.803 C 353.866 152.484,354.077 152.217,353.879 152.210 C 353.681 152.203,353.852 151.903,354.259 151.544 C 355.027 150.866,355.635 150.019,356.344 148.643 C 356.571 148.201,357.075 147.757,357.463 147.656 C 357.852 147.554,358.123 147.302,358.066 147.095 C 358.009 146.888,358.296 146.445,358.704 146.110 C 359.111 145.775,359.194 145.609,358.889 145.741 C 358.583 145.874,358.750 145.614,359.259 145.164 C 359.769 144.715,360.144 144.202,360.093 144.025 C 360.042 143.848,360.162 143.704,360.361 143.704 C 360.559 143.704,360.998 143.170,361.335 142.518 C 361.672 141.866,362.135 141.122,362.363 140.864 C 363.427 139.664,363.704 139.265,363.704 138.932 C 363.704 138.734,363.995 138.517,364.351 138.448 C 364.708 138.379,364.999 137.993,364.999 137.588 C 365.000 137.183,365.208 136.894,365.463 136.944 C 365.718 136.995,365.926 136.764,365.926 136.431 C 365.926 136.098,366.351 135.432,366.871 134.950 C 367.391 134.468,367.706 134.074,367.571 134.074 C 367.436 134.074,367.719 133.728,368.200 133.305 C 368.681 132.882,368.824 132.646,368.519 132.779 C 368.213 132.913,368.421 132.601,368.981 132.085 C 369.542 131.569,370.000 130.990,370.000 130.798 C 370.000 130.606,370.261 130.350,370.579 130.227 C 370.897 130.105,371.065 129.855,370.952 129.671 C 370.838 129.487,371.005 129.237,371.322 129.115 C 371.639 128.994,371.795 128.726,371.668 128.521 C 371.541 128.316,371.624 128.148,371.852 128.148 C 372.080 128.148,372.174 127.999,372.061 127.817 C 371.948 127.634,372.113 127.386,372.427 127.266 C 372.741 127.146,372.970 126.836,372.936 126.579 C 372.803 125.560,372.980 124.782,373.301 124.980 C 373.487 125.095,373.591 124.896,373.534 124.539 C 373.476 124.181,373.577 123.701,373.759 123.471 C 373.955 123.224,373.939 122.657,373.721 122.082 C 373.389 121.209,373.467 120.986,374.087 121.041 C 374.196 121.050,374.283 119.997,374.280 118.701 C 374.276 117.325,374.144 116.527,373.962 116.783 C 373.778 117.043,373.712 116.725,373.801 116.002 C 373.883 115.331,373.811 114.696,373.641 114.591 C 373.470 114.485,373.439 113.968,373.571 113.441 C 373.727 112.819,373.676 112.566,373.427 112.720 C 373.079 112.935,372.384 111.326,372.532 110.648 C 372.565 110.495,372.426 110.370,372.222 110.370 C 372.019 110.370,371.882 110.245,371.920 110.093 C 372.011 109.719,368.424 106.087,368.075 106.200 C 367.924 106.249,367.626 105.963,367.413 105.566 C 367.186 105.141,366.799 104.930,366.476 105.053 C 366.133 105.185,365.926 105.045,365.926 104.681 C 365.926 104.314,365.719 104.177,365.370 104.311 C 365.019 104.446,364.815 104.305,364.815 103.929 C 364.815 103.601,364.648 103.313,364.444 103.287 C 364.241 103.262,363.949 103.219,363.796 103.192 C 363.644 103.166,362.859 102.520,362.052 101.757 C 361.246 100.994,360.444 100.370,360.269 100.370 C 360.095 100.370,359.531 99.870,359.017 99.259 C 358.503 98.648,357.783 98.148,357.417 98.148 C 357.051 98.148,356.475 97.726,356.137 97.210 C 355.800 96.695,355.362 96.372,355.166 96.493 C 354.970 96.614,354.710 96.453,354.587 96.135 C 354.465 95.816,354.133 95.556,353.849 95.556 C 353.566 95.556,353.333 95.385,353.333 95.176 C 353.333 94.967,352.917 94.638,352.407 94.444 C 351.898 94.251,351.481 93.922,351.481 93.713 C 351.481 93.504,351.297 93.333,351.072 93.333 C 350.847 93.333,350.334 92.917,349.934 92.407 C 349.533 91.898,349.061 91.481,348.885 91.481 C 348.709 91.481,348.025 90.989,347.367 90.388 C 346.708 89.786,346.040 89.374,345.881 89.472 C 345.722 89.570,345.409 89.308,345.185 88.889 C 344.961 88.470,344.618 88.226,344.423 88.346 C 344.228 88.467,343.969 88.305,343.847 87.986 C 343.724 87.668,343.394 87.407,343.111 87.407 C 342.640 87.407,341.506 86.579,340.070 85.185 C 339.755 84.880,339.354 84.630,339.180 84.630 C 339.005 84.630,338.738 84.430,338.588 84.186 C 337.583 82.561,327.415 80.046,327.406 81.420 M334.884 96.778 C 338.799 99.371,346.295 104.827,348.704 106.836 C 349.722 107.686,351.659 109.155,353.007 110.101 C 357.755 113.431,360.070 116.724,360.128 120.231 C 360.164 122.386,360.074 122.542,355.018 129.074 C 353.284 131.315,350.751 134.606,349.390 136.389 C 346.598 140.044,346.363 140.145,344.923 138.316 C 342.424 135.141,323.938 121.082,317.037 117.108 C 315.917 116.462,314.601 115.622,314.113 115.240 L 313.226 114.546 316.335 110.465 C 318.045 108.220,321.004 104.322,322.911 101.803 C 329.380 93.254,329.493 93.206,334.884 96.778 M312.207 128.311 C 320.572 133.338,329.451 140.094,335.463 146.003 C 339.957 150.421,339.783 149.458,336.819 153.519 C 335.481 155.352,333.875 157.644,333.249 158.611 C 331.923 160.662,331.890 160.672,330.713 159.401 C 330.219 158.868,328.481 157.422,326.852 156.189 C 325.222 154.956,323.139 153.258,322.222 152.416 C 321.306 151.575,318.306 149.224,315.556 147.192 C 310.928 143.772,308.147 141.912,300.673 137.238 L 297.828 135.458 301.191 130.970 C 305.230 125.579,305.957 124.747,306.464 124.942 C 306.677 125.025,309.262 126.540,312.207 128.311 M293.438 145.785 C 295.341 146.740,297.125 147.854,304.074 152.431 C 307.650 154.785,311.856 158.257,318.404 164.259 C 320.404 166.093,322.614 168.068,323.316 168.649 C 324.786 169.866,324.861 169.624,321.667 173.903 C 320.648 175.267,318.016 178.822,315.817 181.803 C 313.618 184.784,310.668 188.722,309.260 190.556 C 306.463 194.200,304.791 196.425,295.480 208.889 C 292.057 213.472,288.181 218.639,286.867 220.370 C 284.046 224.090,271.731 240.499,269.074 244.078 C 268.056 245.451,266.139 248.035,264.815 249.821 C 262.169 253.389,251.566 267.568,250.002 269.630 C 247.145 273.395,243.173 278.764,240.429 282.568 C 238.729 284.924,236.684 287.705,235.885 288.747 L 234.430 290.642 232.747 290.328 C 231.443 290.084,219.358 288.901,218.069 288.891 C 217.416 288.886,217.027 287.146,216.690 282.724 C 215.833 271.455,214.933 270.514,205.410 270.923 C 193.583 271.431,193.669 270.990,209.281 251.173 C 212.223 247.439,215.463 243.245,216.481 241.854 C 217.500 240.462,219.289 238.101,220.457 236.606 C 221.625 235.112,224.375 231.535,226.568 228.658 C 236.771 215.275,238.255 213.322,240.443 210.412 C 241.727 208.703,243.705 206.036,244.837 204.486 C 245.970 202.935,248.686 199.333,250.872 196.481 C 253.058 193.630,256.749 188.796,259.074 185.741 C 261.399 182.685,264.933 178.068,266.928 175.481 C 272.463 168.304,275.783 163.982,279.816 158.704 C 281.839 156.056,284.250 152.939,285.173 151.778 C 286.096 150.617,287.662 148.575,288.652 147.241 C 290.694 144.490,290.796 144.458,293.438 145.785 M109.144 206.251 C 111.550 206.837,115.519 207.696,117.963 208.161 C 123.406 209.197,123.110 208.916,122.257 212.242 C 121.867 213.759,121.167 217.125,120.700 219.722 C 120.233 222.319,119.676 224.449,119.462 224.453 C 118.725 224.471,100.925 219.890,100.598 219.599 C 100.105 219.160,103.676 205.185,104.281 205.185 C 104.550 205.185,106.738 205.665,109.144 206.251 M104.444 233.002 C 108.417 234.035,112.833 235.132,114.259 235.439 C 115.685 235.747,116.974 236.112,117.123 236.251 C 117.271 236.390,116.743 240.004,115.948 244.282 C 115.152 248.559,113.319 259.304,111.873 268.159 C 110.427 277.014,108.756 287.176,108.159 290.741 C 107.562 294.306,106.720 299.722,106.287 302.778 C 104.047 318.592,102.576 323.671,98.448 329.845 C 93.780 336.828,83.316 338.036,76.992 332.322 C 71.700 327.542,71.769 318.255,77.234 299.441 C 78.181 296.184,79.778 290.602,80.784 287.037 C 81.790 283.472,83.267 278.556,84.066 276.111 C 86.492 268.685,92.481 246.928,94.619 237.778 C 96.230 230.882,96.157 231.110,96.748 231.117 C 97.009 231.120,100.472 231.968,104.444 233.002 M195.785 280.623 C 197.976 281.626,202.265 281.919,205.278 281.271 C 206.248 281.063,206.297 281.119,206.309 282.471 C 206.405 293.023,211.756 299.014,221.595 299.583 L 225.597 299.815 220.299 303.481 C 217.384 305.497,214.417 307.592,213.704 308.137 C 212.991 308.682,211.074 310.021,209.444 311.113 C 207.815 312.205,203.958 314.901,200.874 317.105 C 194.386 321.740,194.916 321.564,193.620 319.511 C 191.838 316.690,188.811 314.287,186.017 313.475 C 184.263 312.965,184.026 312.786,184.186 312.093 C 184.503 310.724,189.973 291.536,191.487 286.481 C 192.281 283.833,193.039 281.208,193.172 280.648 C 193.463 279.422,193.168 279.425,195.785 280.623 " stroke="none" fill="#0a0b09" fill-rule="evenodd"></path><path id="path3" d="M302.366 129.739 C 300.352 132.390,298.580 134.766,298.428 135.020 C 298.242 135.332,299.082 136.053,301.021 137.246 C 309.739 142.611,318.240 148.637,323.144 152.927 C 325.650 155.120,325.736 155.143,326.439 153.796 C 326.731 153.236,328.336 150.865,330.004 148.527 C 332.305 145.303,332.952 144.140,332.683 143.712 C 331.421 141.706,317.507 131.533,310.514 127.504 L 306.028 124.919 302.366 129.739 M308.886 134.996 C 309.137 135.299,309.509 135.445,309.711 135.320 C 309.935 135.182,309.882 134.968,309.577 134.774 C 309.226 134.552,309.385 134.454,310.104 134.450 C 310.682 134.447,311.228 134.688,311.348 135.000 C 311.465 135.306,311.793 135.556,312.077 135.556 C 312.360 135.556,312.593 135.709,312.593 135.896 C 312.593 136.083,312.694 136.499,312.817 136.822 C 312.943 137.149,312.852 137.407,312.610 137.407 C 312.373 137.407,312.282 137.241,312.407 137.037 C 312.533 136.833,312.460 136.667,312.244 136.667 C 312.028 136.667,311.852 136.833,311.852 137.037 C 311.852 137.241,311.519 137.407,311.111 137.407 C 310.704 137.407,310.350 137.574,310.324 137.778 C 310.299 137.981,310.257 138.301,310.231 138.488 C 310.135 139.194,309.625 139.347,309.023 138.849 C 308.535 138.447,308.364 138.436,308.241 138.799 C 307.997 139.526,307.407 138.942,307.407 137.972 C 307.407 137.492,307.199 137.015,306.944 136.912 C 306.676 136.804,306.763 136.713,307.151 136.696 C 307.520 136.680,307.718 136.500,307.593 136.296 C 307.467 136.093,307.635 135.926,307.968 135.926 C 308.517 135.926,308.519 135.873,307.989 135.344 C 307.274 134.629,307.260 134.444,307.918 134.444 C 308.198 134.444,308.634 134.693,308.886 134.996 M318.611 139.875 C 317.682 140.250,318.174 140.713,319.119 140.353 C 319.769 140.106,320.240 140.108,320.542 140.359 C 320.791 140.566,321.113 140.616,321.257 140.471 C 321.622 140.107,321.079 141.559,320.638 142.130 C 320.385 142.456,320.453 142.593,320.869 142.593 C 321.240 142.593,321.379 142.798,321.246 143.146 C 321.129 143.450,320.884 143.607,320.702 143.495 C 320.410 143.314,320.222 143.799,320.314 144.500 C 320.358 144.831,318.068 143.988,317.518 143.470 C 317.273 143.240,317.162 142.961,317.272 142.852 C 317.381 142.742,317.129 142.470,316.712 142.247 C 316.218 141.982,316.035 141.628,316.187 141.231 C 316.384 140.718,316.469 140.752,316.726 141.446 C 317.102 142.464,317.681 142.187,317.588 141.034 C 317.520 140.194,317.988 139.619,318.704 139.665 C 318.907 139.678,318.866 139.772,318.611 139.875 M322.270 142.464 C 321.919 143.064,321.879 143.024,321.941 142.136 C 321.983 141.547,322.150 141.261,322.341 141.452 C 322.532 141.643,322.502 142.067,322.270 142.464 " stroke="none" fill="#5aa50b" fill-rule="evenodd"></path><path id="path4" d="M130.838 51.747 C 131.401 51.832,132.235 51.830,132.690 51.742 C 133.146 51.654,132.685 51.585,131.667 51.587 C 130.648 51.590,130.275 51.662,130.838 51.747 M138.241 52.107 C 138.597 52.200,139.181 52.200,139.537 52.107 C 139.894 52.014,139.602 51.938,138.889 51.938 C 138.176 51.938,137.884 52.014,138.241 52.107 M151.667 54.444 C 152.074 54.620,152.657 54.763,152.963 54.763 C 153.313 54.763,153.245 54.645,152.778 54.444 C 152.370 54.269,151.787 54.126,151.481 54.126 C 151.131 54.126,151.200 54.244,151.667 54.444 M128.801 63.966 C 129.261 64.054,129.928 64.051,130.282 63.958 C 130.636 63.865,130.259 63.793,129.444 63.797 C 128.630 63.801,128.340 63.877,128.801 63.966 M133.986 63.966 C 134.447 64.054,135.113 64.051,135.467 63.958 C 135.821 63.865,135.444 63.793,134.630 63.797 C 133.815 63.801,133.525 63.877,133.986 63.966 M84.236 69.722 L 83.148 70.926 84.352 69.838 C 85.474 68.824,85.726 68.519,85.440 68.519 C 85.376 68.519,84.834 69.060,84.236 69.722 M183.889 72.963 C 185.509 74.593,186.918 75.926,187.020 75.926 C 187.122 75.926,185.879 74.593,184.259 72.963 C 182.639 71.333,181.230 70.000,181.128 70.000 C 181.027 70.000,182.269 71.333,183.889 72.963 M80.532 73.056 L 79.444 74.259 80.648 73.171 C 81.770 72.157,82.022 71.852,81.736 71.852 C 81.672 71.852,81.131 72.394,80.532 73.056 M77.199 76.759 L 76.111 77.963 77.315 76.875 C 78.437 75.861,78.689 75.556,78.403 75.556 C 78.339 75.556,77.797 76.097,77.199 76.759 M88.889 81.667 C 87.989 82.583,87.337 83.333,87.438 83.333 C 87.540 83.333,88.360 82.583,89.259 81.667 C 90.159 80.750,90.812 80.000,90.710 80.000 C 90.608 80.000,89.789 80.750,88.889 81.667 M174.444 81.968 C 174.444 82.031,174.986 82.573,175.648 83.171 L 176.852 84.259 175.764 83.056 C 174.750 81.934,174.444 81.682,174.444 81.968 M333.333 96.065 C 333.333 96.152,333.927 96.573,334.652 97.001 C 335.377 97.429,335.867 97.611,335.740 97.405 C 335.491 97.004,333.333 95.802,333.333 96.065 M325.347 98.767 C 324.777 99.515,324.499 100.010,324.730 99.867 C 325.205 99.574,326.808 97.407,326.551 97.407 C 326.459 97.407,325.918 98.019,325.347 98.767 M74.656 105.397 C 74.520 105.940,74.480 106.455,74.567 106.542 C 74.654 106.630,74.837 106.257,74.974 105.714 C 75.110 105.172,75.150 104.656,75.063 104.569 C 74.975 104.481,74.792 104.854,74.656 105.397 M60.464 113.519 C 60.468 114.333,60.544 114.623,60.632 114.162 C 60.721 113.702,60.718 113.035,60.625 112.681 C 60.532 112.327,60.460 112.704,60.464 113.519 M190.086 114.815 C 190.086 115.528,190.162 115.819,190.255 115.463 C 190.348 115.106,190.348 114.523,190.255 114.167 C 190.162 113.810,190.086 114.102,190.086 114.815 M60.101 116.667 C 60.101 117.583,60.173 117.958,60.261 117.500 C 60.350 117.042,60.350 116.292,60.261 115.833 C 60.173 115.375,60.101 115.750,60.101 116.667 M204.185 117.778 C 204.185 118.898,204.254 119.356,204.339 118.796 C 204.424 118.236,204.424 117.319,204.339 116.759 C 204.254 116.199,204.185 116.657,204.185 117.778 M190.476 118.333 C 190.479 119.352,190.551 119.725,190.636 119.162 C 190.721 118.599,190.719 117.765,190.631 117.310 C 190.543 116.854,190.474 117.315,190.476 118.333 M59.772 123.704 C 59.772 126.250,59.832 127.292,59.904 126.019 C 59.976 124.745,59.976 122.662,59.904 121.389 C 59.832 120.116,59.772 121.157,59.772 123.704 M204.185 128.519 C 204.185 129.639,204.254 130.097,204.339 129.537 C 204.424 128.977,204.424 128.060,204.339 127.500 C 204.254 126.940,204.185 127.398,204.185 128.519 M190.456 128.148 C 190.456 128.861,190.533 129.153,190.626 128.796 C 190.719 128.440,190.719 127.856,190.626 127.500 C 190.533 127.144,190.456 127.435,190.456 128.148 M60.093 130.926 C 60.098 131.741,60.173 132.030,60.262 131.570 C 60.351 131.109,60.347 130.442,60.254 130.088 C 60.162 129.734,60.089 130.111,60.093 130.926 M190.086 131.111 C 190.086 131.824,190.162 132.116,190.255 131.759 C 190.348 131.403,190.348 130.819,190.255 130.463 C 190.162 130.106,190.086 130.398,190.086 131.111 M203.790 132.593 C 203.790 133.306,203.866 133.597,203.959 133.241 C 204.052 132.884,204.052 132.301,203.959 131.944 C 203.866 131.588,203.790 131.880,203.790 132.593 M60.456 134.074 C 60.456 134.787,60.533 135.079,60.626 134.722 C 60.719 134.366,60.719 133.782,60.626 133.426 C 60.533 133.069,60.456 133.361,60.456 134.074 M344.894 137.964 C 345.855 138.962,346.697 139.704,346.766 139.612 C 346.835 139.520,346.049 138.703,345.020 137.796 L 343.148 136.148 344.894 137.964 M74.497 139.630 C 74.497 139.935,74.640 140.519,74.815 140.926 C 75.015 141.393,75.133 141.461,75.133 141.111 C 75.133 140.806,74.990 140.222,74.815 139.815 C 74.614 139.348,74.497 139.279,74.497 139.630 M293.333 146.092 C 293.333 146.194,293.833 146.536,294.444 146.852 C 295.056 147.168,295.556 147.343,295.556 147.241 C 295.556 147.139,295.056 146.797,294.444 146.481 C 293.833 146.165,293.333 145.990,293.333 146.092 M67.593 156.667 C 67.909 157.278,68.251 157.778,68.352 157.778 C 68.454 157.778,68.279 157.278,67.963 156.667 C 67.647 156.056,67.305 155.556,67.203 155.556 C 67.101 155.556,67.277 156.056,67.593 156.667 M195.370 157.778 C 195.054 158.389,194.879 158.889,194.981 158.889 C 195.083 158.889,195.425 158.389,195.741 157.778 C 196.057 157.167,196.232 156.667,196.130 156.667 C 196.028 156.667,195.686 157.167,195.370 157.778 M316.667 163.148 C 317.773 164.269,318.762 165.185,318.864 165.185 C 318.965 165.185,318.143 164.269,317.037 163.148 C 315.931 162.028,314.942 161.111,314.840 161.111 C 314.738 161.111,315.560 162.028,316.667 163.148 M89.074 164.815 C 90.694 166.444,92.103 167.778,92.205 167.778 C 92.307 167.778,91.065 166.444,89.444 164.815 C 87.824 163.185,86.416 161.852,86.314 161.852 C 86.212 161.852,87.454 163.185,89.074 164.815 M320.370 166.412 C 320.370 166.476,320.912 167.018,321.574 167.616 L 322.778 168.704 321.690 167.500 C 320.676 166.378,320.370 166.126,320.370 166.412 M323.677 169.352 C 324.081 169.888,324.081 170.112,323.677 170.648 C 323.212 171.265,323.222 171.265,323.896 170.648 C 324.592 170.010,324.592 169.990,323.896 169.352 C 323.222 168.735,323.212 168.735,323.677 169.352 M320.120 172.096 C 320.254 172.230,320.178 172.563,319.951 172.836 C 319.644 173.207,319.656 173.333,320.000 173.333 C 320.368 173.333,320.368 173.446,320.000 173.889 C 319.746 174.194,319.684 174.439,319.862 174.433 C 320.349 174.415,321.582 172.593,321.107 172.593 C 320.881 172.593,320.800 172.426,320.926 172.222 C 321.052 172.019,320.867 171.852,320.516 171.852 C 320.164 171.852,319.986 171.962,320.120 172.096 M81.111 174.630 C 82.423 175.954,83.580 177.037,83.682 177.037 C 83.784 177.037,82.794 175.954,81.481 174.630 C 80.169 173.306,79.012 172.222,78.910 172.222 C 78.808 172.222,79.799 173.306,81.111 174.630 M182.397 174.907 L 179.815 177.593 182.500 175.010 C 184.994 172.611,185.354 172.222,185.083 172.222 C 185.026 172.222,183.818 173.431,182.397 174.907 M159.167 175.397 C 157.782 176.148,157.866 176.461,159.259 175.741 C 159.870 175.425,160.370 175.087,160.370 174.990 C 160.370 174.752,160.331 174.766,159.167 175.397 M317.778 178.519 C 317.343 179.130,317.070 179.630,317.172 179.630 C 317.274 179.630,317.713 179.130,318.148 178.519 C 318.583 177.907,318.856 177.407,318.754 177.407 C 318.652 177.407,318.213 177.907,317.778 178.519 M124.356 182.114 C 124.817 182.202,125.484 182.199,125.838 182.106 C 126.192 182.014,125.815 181.941,125.000 181.945 C 124.185 181.949,123.895 182.025,124.356 182.114 M136.944 182.113 C 137.403 182.202,138.153 182.202,138.611 182.113 C 139.069 182.025,138.694 181.953,137.778 181.953 C 136.861 181.953,136.486 182.025,136.944 182.113 M129.722 182.496 C 130.894 182.569,132.810 182.569,133.981 182.496 C 135.153 182.422,134.194 182.362,131.852 182.362 C 129.509 182.362,128.551 182.422,129.722 182.496 M260.741 183.704 C 260.095 184.519,259.651 185.185,259.753 185.185 C 259.854 185.185,260.466 184.519,261.111 183.704 C 261.756 182.889,262.201 182.222,262.099 182.222 C 261.997 182.222,261.386 182.889,260.741 183.704 M102.222 189.074 C 102.731 189.365,103.315 189.603,103.519 189.603 C 103.722 189.603,103.472 189.365,102.963 189.074 C 102.454 188.783,101.870 188.545,101.667 188.545 C 101.463 188.545,101.713 188.783,102.222 189.074 M126.949 195.077 C 127.409 195.165,128.076 195.162,128.430 195.069 C 128.784 194.977,128.407 194.904,127.593 194.908 C 126.778 194.912,126.488 194.988,126.949 195.077 M136.764 195.081 C 137.327 195.166,138.161 195.163,138.616 195.076 C 139.072 194.988,138.611 194.918,137.593 194.921 C 136.574 194.924,136.201 194.995,136.764 195.081 M297.356 205.833 C 296.290 207.120,295.839 207.778,296.022 207.778 C 296.124 207.778,296.653 207.194,297.197 206.481 C 298.206 205.158,298.328 204.659,297.356 205.833 M286.861 209.244 C 286.547 209.753,286.825 210.134,287.372 209.946 C 287.597 209.869,287.625 209.607,287.442 209.312 C 287.210 208.940,287.060 208.922,286.861 209.244 M238.889 212.593 C 238.244 213.407,237.799 214.074,237.901 214.074 C 238.003 214.074,238.614 213.407,239.259 212.593 C 239.905 211.778,240.349 211.111,240.247 211.111 C 240.146 211.111,239.534 211.778,238.889 212.593 M116.560 236.166 C 116.833 236.278,116.941 236.807,116.837 237.526 L 116.666 238.704 117.021 237.624 C 117.404 236.458,117.250 235.909,116.552 235.955 C 116.219 235.977,116.221 236.029,116.560 236.166 M217.407 240.741 C 216.762 241.556,216.317 242.222,216.419 242.222 C 216.521 242.222,217.132 241.556,217.778 240.741 C 218.423 239.926,218.868 239.259,218.766 239.259 C 218.664 239.259,218.053 239.926,217.407 240.741 M267.569 245.434 C 266.999 246.182,266.721 246.677,266.953 246.534 C 267.427 246.241,269.030 244.074,268.773 244.074 C 268.681 244.074,268.140 244.686,267.569 245.434 M255.396 255.885 C 255.267 256.093,254.897 256.163,254.575 256.039 C 254.082 255.850,254.054 255.938,254.401 256.586 C 254.910 257.537,254.931 258.148,254.456 258.148 C 254.259 258.148,254.193 257.898,254.311 257.593 C 254.437 257.262,254.314 257.037,254.007 257.037 C 253.723 257.037,253.466 257.370,253.435 257.778 C 253.382 258.477,253.792 258.728,254.630 258.510 C 254.833 258.457,255.256 258.424,255.568 258.437 C 255.980 258.454,256.124 258.112,256.094 257.194 C 256.048 255.818,255.765 255.287,255.396 255.885 M256.812 256.879 C 256.541 257.960,257.170 258.930,257.532 257.988 C 257.654 257.669,257.609 257.407,257.430 257.407 C 257.252 257.407,257.194 257.074,257.300 256.667 C 257.407 256.259,257.394 255.926,257.272 255.926 C 257.151 255.926,256.944 256.355,256.812 256.879 M203.333 258.889 C 202.688 259.704,202.243 260.370,202.345 260.370 C 202.447 260.370,203.058 259.704,203.704 258.889 C 204.349 258.074,204.794 257.407,204.692 257.407 C 204.590 257.407,203.979 258.074,203.333 258.889 M246.721 265.313 C 246.223 265.843,245.997 266.420,246.140 266.794 C 246.299 267.208,246.182 267.407,245.780 267.407 C 245.453 267.407,245.185 267.571,245.185 267.770 C 245.185 267.991,245.543 267.969,246.104 267.714 C 246.806 267.394,246.974 267.099,246.815 266.466 C 246.700 266.010,246.798 265.518,247.032 265.374 C 247.661 264.985,247.950 265.458,247.451 266.059 C 247.112 266.467,247.149 266.630,247.624 266.813 C 248.057 266.979,248.170 266.888,248.020 266.498 C 247.905 266.196,247.962 265.856,248.148 265.741 C 248.517 265.513,248.233 264.444,247.803 264.444 C 247.656 264.444,247.169 264.835,246.721 265.313 M197.493 268.519 C 197.493 269.231,197.570 269.523,197.663 269.167 C 197.756 268.810,197.756 268.227,197.663 267.870 C 197.570 267.514,197.493 267.806,197.493 268.519 M246.615 273.611 C 245.549 274.897,245.098 275.556,245.281 275.556 C 245.384 275.556,245.913 274.972,246.456 274.259 C 247.466 272.936,247.588 272.437,246.615 273.611 M110.456 274.444 C 110.456 275.157,110.533 275.449,110.626 275.093 C 110.719 274.736,110.719 274.153,110.626 273.796 C 110.533 273.440,110.456 273.731,110.456 274.444 M239.548 274.160 C 239.377 274.580,239.058 274.723,238.625 274.572 C 238.065 274.377,238.084 274.469,238.751 275.171 C 239.562 276.024,241.111 275.752,241.111 274.756 C 241.111 274.483,240.942 274.494,240.584 274.791 C 240.157 275.146,240.034 275.066,239.933 274.373 C 239.827 273.651,239.768 273.618,239.548 274.160 M238.796 276.739 C 239.243 277.186,239.717 277.444,239.849 277.312 C 240.160 277.001,239.085 275.926,238.463 275.926 C 238.172 275.926,238.303 276.246,238.796 276.739 M238.519 278.299 C 238.519 278.636,238.778 278.752,239.255 278.627 C 239.660 278.521,239.900 278.287,239.789 278.106 C 239.465 277.583,238.519 277.726,238.519 278.299 M216.785 281.852 C 216.785 283.176,216.852 283.718,216.935 283.056 C 217.017 282.394,217.017 281.310,216.935 280.648 C 216.852 279.986,216.785 280.528,216.785 281.852 M82.063 282.804 C 81.927 283.347,81.887 283.863,81.975 283.950 C 82.062 284.037,82.245 283.664,82.381 283.122 C 82.517 282.579,82.557 282.063,82.470 281.976 C 82.383 281.889,82.200 282.261,82.063 282.804 M231.376 283.933 C 231.094 284.215,232.019 285.185,232.569 285.185 C 232.835 285.185,232.814 284.936,232.507 284.444 C 232.023 283.669,231.759 283.550,231.376 283.933 M217.123 285.926 C 217.123 286.639,217.199 286.931,217.292 286.574 C 217.386 286.218,217.386 285.634,217.292 285.278 C 217.199 284.921,217.123 285.213,217.123 285.926 M229.839 285.887 C 229.726 286.069,229.869 286.309,230.157 286.419 C 230.444 286.530,230.771 286.380,230.884 286.088 C 231.105 285.510,230.182 285.332,229.839 285.887 M217.419 287.640 C 217.399 288.376,218.443 288.947,219.515 288.786 C 220.526 288.634,220.522 288.628,219.370 288.574 C 218.677 288.542,218.028 288.249,217.807 287.870 C 217.600 287.514,217.425 287.410,217.419 287.640 M222.315 289.154 C 222.875 289.239,223.792 289.239,224.352 289.154 C 224.912 289.069,224.454 289.000,223.333 289.000 C 222.213 289.000,221.755 289.069,222.315 289.154 M226.296 289.264 C 226.602 289.459,227.338 289.621,227.932 289.624 C 229.365 289.631,229.053 289.418,227.222 289.137 C 226.213 288.982,225.918 289.023,226.296 289.264 M230.833 289.885 C 231.190 289.978,231.773 289.978,232.130 289.885 C 232.486 289.792,232.194 289.716,231.481 289.716 C 230.769 289.716,230.477 289.792,230.833 289.885 M218.704 304.292 L 217.593 305.246 218.796 304.450 C 219.458 304.012,220.000 303.581,220.000 303.493 C 220.000 303.216,219.843 303.313,218.704 304.292 M191.296 316.667 C 192.092 317.481,192.826 318.148,192.928 318.148 C 193.030 318.148,192.462 317.481,191.667 316.667 C 190.871 315.852,190.137 315.185,190.035 315.185 C 189.933 315.185,190.501 315.852,191.296 316.667 M74.075 327.994 C 74.077 328.410,75.475 330.741,75.723 330.741 C 75.821 330.741,75.543 330.116,75.106 329.352 C 74.126 327.641,74.074 327.572,74.075 327.994 " stroke="none" fill="#673d09" fill-rule="evenodd"></path><path id="path5" d="M193.538 280.429 C 193.444 280.702,192.432 284.343,191.287 288.519 C 190.143 292.694,188.705 297.778,188.091 299.815 C 186.336 305.640,184.444 312.246,184.444 312.548 C 184.444 312.699,185.289 313.039,186.321 313.304 C 187.353 313.568,188.895 314.316,189.747 314.964 C 191.405 316.227,192.578 316.974,192.139 316.489 C 191.992 316.326,192.492 315.862,193.251 315.457 C 194.009 315.053,194.713 314.612,194.815 314.478 C 194.917 314.344,195.500 313.855,196.111 313.392 C 197.460 312.370,200.757 309.259,207.467 302.678 L 212.526 297.716 211.148 296.470 C 208.553 294.126,206.761 289.652,206.338 284.458 L 206.111 281.679 204.444 281.858 C 200.165 282.317,197.287 282.029,195.462 280.960 C 194.138 280.184,193.665 280.054,193.538 280.429 M200.729 300.926 C 200.729 301.539,200.668 301.571,200.370 301.111 C 200.173 300.806,200.011 300.222,200.011 299.815 C 200.011 299.201,200.073 299.170,200.370 299.630 C 200.568 299.935,200.729 300.519,200.729 300.926 " stroke="none" fill="#fadf6c" fill-rule="evenodd"></path><path id="path6" d="M307.407 134.603 C 307.407 134.690,307.669 135.024,307.989 135.344 C 308.519 135.873,308.517 135.926,307.968 135.926 C 307.635 135.926,307.467 136.093,307.593 136.296 C 307.718 136.500,307.520 136.680,307.151 136.696 C 306.763 136.713,306.676 136.804,306.944 136.912 C 307.199 137.015,307.407 137.492,307.407 137.972 C 307.407 138.942,307.997 139.526,308.241 138.799 C 308.364 138.436,308.535 138.447,309.023 138.849 C 309.625 139.347,310.135 139.194,310.231 138.488 C 310.257 138.301,310.299 137.981,310.324 137.778 C 310.350 137.574,310.704 137.407,311.111 137.407 C 311.519 137.407,311.852 137.241,311.852 137.037 C 311.852 136.833,312.028 136.667,312.244 136.667 C 312.460 136.667,312.533 136.833,312.407 137.037 C 312.282 137.241,312.373 137.407,312.610 137.407 C 312.852 137.407,312.943 137.149,312.817 136.822 C 312.694 136.499,312.593 136.083,312.593 135.896 C 312.593 135.709,312.360 135.556,312.077 135.556 C 311.793 135.556,311.465 135.306,311.348 135.000 C 311.228 134.688,310.682 134.447,310.104 134.450 C 309.385 134.454,309.226 134.552,309.577 134.774 C 309.882 134.968,309.935 135.182,309.711 135.320 C 309.509 135.445,309.137 135.299,308.886 134.996 C 308.472 134.497,307.407 134.214,307.407 134.603 M317.926 139.913 C 317.703 140.063,317.550 140.567,317.588 141.034 C 317.681 142.187,317.102 142.464,316.726 141.446 C 316.469 140.752,316.384 140.718,316.187 141.231 C 316.035 141.628,316.218 141.982,316.712 142.247 C 317.129 142.470,317.381 142.742,317.272 142.852 C 317.162 142.961,317.273 143.240,317.518 143.470 C 318.068 143.988,320.358 144.831,320.314 144.500 C 320.222 143.799,320.410 143.314,320.702 143.495 C 320.884 143.607,321.129 143.450,321.246 143.146 C 321.379 142.798,321.240 142.593,320.869 142.593 C 320.453 142.593,320.385 142.456,320.638 142.130 C 321.079 141.559,321.622 140.107,321.257 140.471 C 321.113 140.616,320.791 140.566,320.542 140.359 C 320.240 140.108,319.769 140.106,319.119 140.353 C 318.174 140.713,317.682 140.250,318.611 139.875 C 318.866 139.772,318.907 139.678,318.704 139.665 C 318.500 139.652,318.150 139.763,317.926 139.913 M321.941 142.136 C 321.879 143.024,321.919 143.064,322.270 142.464 C 322.502 142.067,322.532 141.643,322.341 141.452 C 322.150 141.261,321.983 141.547,321.941 142.136 M332.584 143.528 C 332.986 144.193,332.695 144.756,330.004 148.528 C 328.335 150.865,326.731 153.236,326.439 153.796 C 325.851 154.921,325.551 155.033,324.889 154.370 C 324.644 154.126,324.444 154.027,324.444 154.150 C 324.444 154.273,325.569 155.210,326.944 156.232 C 328.319 157.253,329.934 158.602,330.532 159.230 C 331.923 160.688,331.903 160.693,333.249 158.611 C 333.875 157.644,335.481 155.352,336.819 153.519 C 339.777 149.466,339.882 150.129,335.646 146.111 C 333.713 144.278,332.336 143.115,332.584 143.528 M321.481 151.597 C 321.481 151.661,322.023 152.203,322.685 152.801 L 323.889 153.889 322.801 152.685 C 321.787 151.563,321.481 151.311,321.481 151.597 " stroke="none" fill="#246e14" fill-rule="evenodd"></path><path id="path7" d="M154.074 38.148 C 155.404 38.574,156.004 38.574,155.741 38.148 C 155.615 37.944,154.980 37.794,154.330 37.815 C 153.201 37.850,153.190 37.865,154.074 38.148 M84.023 49.281 L 83.148 50.044 84.259 49.393 C 85.722 48.537,85.743 48.519,85.288 48.519 C 85.073 48.519,84.503 48.862,84.023 49.281 M128.241 51.737 C 128.597 51.830,129.181 51.830,129.537 51.737 C 129.894 51.644,129.602 51.567,128.889 51.567 C 128.176 51.567,127.884 51.644,128.241 51.737 M131.393 63.966 C 131.854 64.054,132.521 64.051,132.875 63.958 C 133.229 63.865,132.852 63.793,132.037 63.797 C 131.222 63.801,130.932 63.877,131.393 63.966 M82.754 70.833 L 81.667 72.037 82.870 70.949 C 83.992 69.935,84.244 69.630,83.958 69.630 C 83.894 69.630,83.353 70.171,82.754 70.833 M172.577 80.093 C 173.485 81.060,174.277 81.852,174.336 81.852 C 174.614 81.852,174.320 81.519,172.685 79.985 L 170.926 78.333 172.577 80.093 M88.323 82.685 L 85.741 85.370 88.426 82.788 C 90.920 80.389,91.280 80.000,91.009 80.000 C 90.952 80.000,89.744 81.208,88.323 82.685 M219.635 106.944 C 219.639 107.686,219.731 107.821,219.971 107.441 C 220.153 107.154,220.216 106.696,220.111 106.422 C 219.811 105.639,219.629 105.838,219.635 106.944 M356.111 112.963 C 357.114 113.981,358.018 114.815,358.120 114.815 C 358.222 114.815,357.485 113.981,356.481 112.963 C 355.478 111.944,354.574 111.111,354.472 111.111 C 354.370 111.111,355.108 111.944,356.111 112.963 M373.709 116.204 C 373.714 116.945,373.805 117.080,374.045 116.700 C 374.227 116.413,374.290 115.955,374.185 115.682 C 373.885 114.899,373.703 115.098,373.709 116.204 M72.328 119.815 C 72.331 120.833,72.403 121.206,72.488 120.643 C 72.573 120.080,72.571 119.247,72.483 118.791 C 72.395 118.336,72.325 118.796,72.328 119.815 M190.506 123.519 C 190.507 125.556,190.569 126.342,190.644 125.265 C 190.719 124.189,190.718 122.522,190.642 121.562 C 190.566 120.601,190.505 121.481,190.506 123.519 M221.358 120.617 C 221.024 120.952,221.045 122.138,221.389 122.349 C 221.542 122.443,221.684 122.036,221.706 121.445 C 221.749 120.286,221.731 120.244,221.358 120.617 M373.590 121.012 C 373.500 121.169,373.544 121.621,373.688 122.017 C 373.937 122.703,373.960 122.698,374.162 121.925 C 374.368 121.140,373.925 120.434,373.590 121.012 M204.566 123.889 C 204.568 125.315,204.635 125.853,204.715 125.084 C 204.795 124.316,204.794 123.149,204.712 122.492 C 204.630 121.834,204.564 122.463,204.566 123.889 M72.316 126.111 C 72.320 126.926,72.396 127.216,72.484 126.755 C 72.573 126.294,72.569 125.628,72.477 125.273 C 72.384 124.919,72.312 125.296,72.316 126.111 M72.679 129.630 C 72.679 130.343,72.755 130.634,72.848 130.278 C 72.941 129.921,72.941 129.338,72.848 128.981 C 72.755 128.625,72.679 128.917,72.679 129.630 M77.222 170.741 C 78.018 171.556,78.752 172.222,78.854 172.222 C 78.956 172.222,78.388 171.556,77.593 170.741 C 76.797 169.926,76.063 169.259,75.961 169.259 C 75.859 169.259,76.427 169.926,77.222 170.741 M186.464 170.833 L 185.000 172.407 186.574 170.943 C 188.038 169.582,188.318 169.259,188.038 169.259 C 187.978 169.259,187.269 169.968,186.464 170.833 M182.754 174.907 L 181.667 176.111 182.870 175.023 C 183.532 174.425,184.074 173.883,184.074 173.820 C 184.074 173.533,183.768 173.785,182.754 174.907 M68.028 185.735 C 69.209 187.056,70.371 188.211,70.610 188.303 C 70.849 188.395,69.946 187.314,68.603 185.901 C 65.528 182.666,65.198 182.571,68.028 185.735 M326.088 189.137 C 325.517 189.885,325.240 190.380,325.471 190.237 C 325.945 189.944,327.549 187.778,327.291 187.778 C 327.200 187.778,326.658 188.390,326.088 189.137 M121.204 194.700 C 121.560 194.793,122.144 194.793,122.500 194.700 C 122.856 194.607,122.565 194.530,121.852 194.530 C 121.139 194.530,120.847 194.607,121.204 194.700 M124.356 195.077 C 124.817 195.165,125.484 195.162,125.838 195.069 C 126.192 194.977,125.815 194.904,125.000 194.908 C 124.185 194.912,123.895 194.988,124.356 195.077 M132.315 195.455 C 133.079 195.535,134.329 195.535,135.093 195.455 C 135.856 195.375,135.231 195.310,133.704 195.310 C 132.176 195.310,131.551 195.375,132.315 195.455 M135.038 211.790 C 134.933 211.960,135.340 212.099,135.942 212.099 C 136.544 212.099,137.037 211.960,137.037 211.790 C 137.037 211.620,136.630 211.481,136.133 211.481 C 135.636 211.481,135.143 211.620,135.038 211.790 M198.292 265.382 C 197.954 265.898,197.745 266.387,197.827 266.469 C 197.909 266.551,198.258 266.130,198.601 265.532 C 199.365 264.200,199.138 264.090,198.292 265.382 M200.833 281.737 C 201.190 281.830,201.773 281.830,202.130 281.737 C 202.486 281.644,202.194 281.567,201.481 281.567 C 200.769 281.567,200.477 281.644,200.833 281.737 M205.813 328.140 C 204.857 328.747,204.074 329.420,204.074 329.636 C 204.074 329.852,204.449 329.675,204.907 329.242 C 205.366 328.810,206.199 328.216,206.759 327.922 C 207.319 327.629,207.778 327.309,207.778 327.213 C 207.778 326.920,207.619 326.995,205.813 328.140 M192.778 337.255 L 191.667 338.209 192.870 337.413 C 193.532 336.975,194.074 336.544,194.074 336.456 C 194.074 336.179,193.917 336.276,192.778 337.255 " stroke="none" fill="#381e08" fill-rule="evenodd"></path><path id="path8" d="M127.407 74.690 C 122.379 75.477,121.453 75.650,121.581 75.778 C 121.662 75.860,123.381 75.677,125.401 75.373 C 130.439 74.613,135.751 74.672,140.569 75.541 C 144.696 76.285,146.447 76.316,142.900 75.582 C 137.735 74.514,131.010 74.126,127.407 74.690 M119.074 76.296 C 118.130 76.702,119.104 76.702,120.370 76.296 C 121.115 76.058,121.151 75.998,120.556 75.989 C 120.148 75.983,119.481 76.121,119.074 76.296 M138.333 76.504 C 138.944 76.803,139.158 76.970,138.808 76.874 C 138.458 76.778,138.073 76.858,137.953 77.053 C 137.833 77.248,137.971 77.407,138.262 77.407 C 138.552 77.407,139.211 77.739,139.727 78.145 C 140.710 78.919,141.649 78.168,140.782 77.300 C 140.587 77.106,140.516 76.717,140.624 76.436 C 140.774 76.045,140.402 75.930,139.021 75.943 L 137.222 75.959 138.333 76.504 M146.296 76.852 C 147.987 77.503,148.653 77.493,147.222 76.838 C 146.611 76.559,145.861 76.335,145.556 76.341 C 145.250 76.347,145.583 76.577,146.296 76.852 M133.319 77.981 C 132.260 79.257,132.712 80.444,134.314 80.591 C 135.489 80.699,135.905 80.589,136.085 80.119 C 136.362 79.399,135.853 78.787,134.921 78.718 C 133.883 78.642,133.791 78.052,134.792 77.899 C 136.133 77.694,136.168 77.450,134.851 77.488 C 134.219 77.505,133.529 77.727,133.319 77.981 M149.165 79.352 C 149.065 79.810,148.864 80.519,148.716 80.926 C 148.524 81.458,148.550 81.524,148.809 81.162 C 149.113 80.736,149.205 80.736,149.396 81.162 C 149.521 81.439,149.530 81.292,149.416 80.833 C 149.299 80.361,149.380 80.000,149.605 80.000 C 149.822 80.000,150.000 80.177,150.000 80.392 C 150.000 80.608,150.168 80.681,150.373 80.554 C 150.578 80.427,150.844 80.578,150.963 80.888 C 151.082 81.199,151.497 81.554,151.886 81.678 C 152.276 81.801,152.610 82.264,152.632 82.710 C 152.667 83.432,152.715 83.409,153.074 82.500 C 153.323 81.869,153.754 81.481,154.207 81.481 C 154.609 81.481,154.818 81.361,154.671 81.215 C 154.525 81.068,153.830 80.997,153.128 81.058 C 152.167 81.141,151.852 81.024,151.852 80.584 C 151.852 80.208,151.522 80.000,150.926 80.000 C 150.100 80.000,149.821 79.654,149.956 78.796 C 150.067 78.094,149.325 78.615,149.165 79.352 M121.609 79.536 C 121.762 79.784,121.377 79.913,120.554 79.890 C 119.069 79.848,118.672 80.147,118.319 81.574 C 118.093 82.489,118.166 82.593,119.034 82.593 C 119.628 82.593,120.000 82.387,120.000 82.059 C 120.000 81.765,120.195 81.405,120.433 81.257 C 120.725 81.077,120.789 81.192,120.630 81.606 C 120.500 81.945,120.555 82.222,120.752 82.222 C 120.950 82.222,121.123 81.931,121.137 81.574 C 121.160 81.007,121.198 81.015,121.443 81.640 C 121.702 82.302,121.740 82.306,121.972 81.702 C 122.351 80.716,122.272 79.704,121.795 79.409 C 121.544 79.254,121.467 79.307,121.609 79.536 M153.333 79.429 C 153.333 79.531,154.000 79.955,154.815 80.370 C 155.630 80.786,156.296 81.043,156.296 80.941 C 156.296 80.839,155.630 80.416,154.815 80.000 C 154.000 79.584,153.333 79.328,153.333 79.429 M107.941 80.951 C 106.731 81.677,105.574 82.458,105.370 82.685 C 105.167 82.913,105.500 82.785,106.111 82.402 C 106.722 82.018,107.931 81.307,108.796 80.821 C 110.153 80.059,110.679 79.630,110.256 79.630 C 110.193 79.630,109.151 80.224,107.941 80.951 M146.667 80.507 C 146.667 81.117,147.332 81.681,147.661 81.351 C 147.774 81.238,147.596 80.877,147.266 80.547 C 146.749 80.029,146.667 80.024,146.667 80.507 M156.690 81.230 C 156.804 81.360,157.971 82.141,159.282 82.967 C 160.594 83.792,161.188 84.065,160.604 83.573 C 159.608 82.736,156.235 80.717,156.690 81.230 M153.015 83.346 C 152.184 84.037,152.178 84.074,152.892 84.074 C 154.034 84.074,154.815 83.682,154.815 83.109 C 154.815 82.386,154.045 82.487,153.015 83.346 M103.319 84.101 L 102.037 85.239 103.426 84.242 C 104.653 83.361,105.053 82.963,104.708 82.963 C 104.650 82.963,104.025 83.475,103.319 84.101 M107.786 83.688 C 107.436 84.341,107.254 84.408,106.814 84.043 C 106.354 83.661,106.322 83.726,106.602 84.482 C 106.783 84.971,106.849 85.605,106.748 85.892 C 106.626 86.243,106.753 86.342,107.135 86.196 C 108.078 85.834,108.171 86.341,107.299 87.092 C 106.628 87.669,106.746 87.649,107.963 86.979 C 109.685 86.030,110.094 85.708,109.139 86.051 C 107.866 86.509,107.092 85.225,108.133 84.382 C 108.753 83.880,108.892 83.559,108.612 83.279 C 108.332 82.999,108.091 83.118,107.786 83.688 M155.488 85.219 C 154.913 85.825,154.912 85.915,155.466 86.364 C 155.971 86.773,156.018 86.768,155.755 86.333 C 155.551 85.993,155.662 85.653,156.077 85.350 C 156.426 85.095,156.576 84.813,156.411 84.724 C 156.246 84.635,155.831 84.858,155.488 85.219 M98.141 88.796 L 94.630 92.407 98.241 88.896 C 100.227 86.965,101.852 85.340,101.852 85.285 C 101.852 85.017,101.402 85.442,98.141 88.796 M166.651 89.074 C 169.908 92.632,170.312 93.017,168.983 91.296 C 168.354 90.481,167.037 89.065,166.058 88.148 C 164.693 86.871,164.832 87.087,166.651 89.074 M161.962 89.591 C 161.444 90.420,162.985 92.481,163.763 92.001 C 164.027 91.837,164.088 91.901,163.923 92.168 C 163.180 93.369,165.162 94.021,166.146 92.900 C 166.813 92.141,166.814 92.110,166.173 92.345 C 165.800 92.481,165.415 92.593,165.318 92.593 C 165.221 92.593,165.244 92.759,165.370 92.963 C 165.496 93.167,165.439 93.333,165.242 93.333 C 165.040 93.333,164.971 92.693,165.084 91.852 C 165.214 90.879,165.139 90.370,164.864 90.370 C 164.633 90.370,164.444 90.120,164.444 89.815 C 164.444 89.509,164.208 89.259,163.919 89.259 C 163.630 89.259,163.172 89.174,162.900 89.070 C 162.628 88.965,162.206 89.200,161.962 89.591 M168.405 93.572 C 168.648 93.671,168.745 94.018,168.620 94.344 C 168.469 94.737,168.538 94.846,168.826 94.669 C 169.492 94.257,169.340 93.330,168.611 93.363 C 168.255 93.379,168.162 93.473,168.405 93.572 M169.271 95.312 C 169.265 95.690,169.590 96.082,170.000 96.189 C 170.407 96.296,170.741 96.563,170.741 96.784 C 170.741 97.065,170.864 97.062,171.153 96.773 C 171.639 96.287,171.234 95.452,170.614 95.661 C 170.378 95.741,169.982 95.541,169.734 95.218 C 169.330 94.691,169.282 94.701,169.271 95.312 M91.156 98.889 C 90.698 99.704,90.486 100.370,90.686 100.370 C 90.886 100.370,91.116 100.170,91.197 99.926 C 91.290 99.648,91.436 99.718,91.587 100.111 C 91.720 100.458,91.667 100.741,91.470 100.741 C 91.273 100.741,91.111 100.989,91.111 101.292 C 91.111 102.298,93.010 101.792,93.740 100.592 C 94.631 99.127,94.092 97.970,92.683 98.324 C 91.843 98.535,91.783 98.492,92.203 97.986 C 92.467 97.668,92.527 97.407,92.336 97.407 C 92.145 97.407,91.614 98.074,91.156 98.889 M89.897 99.352 C 88.558 101.658,87.338 104.129,87.474 104.261 C 87.539 104.324,88.381 102.892,89.345 101.077 C 91.158 97.663,91.502 96.587,89.897 99.352 M174.503 100.000 C 175.666 102.328,176.179 102.936,175.522 101.208 C 175.119 100.147,173.734 97.778,173.518 97.778 C 173.449 97.778,173.892 98.778,174.503 100.000 M172.037 101.455 C 172.444 101.943,173.153 102.756,173.611 103.262 C 174.069 103.768,174.444 104.334,174.444 104.520 C 174.444 104.706,174.612 104.755,174.816 104.629 C 175.063 104.476,175.064 104.169,174.819 103.711 C 174.569 103.245,174.576 102.981,174.839 102.893 C 175.701 102.606,174.716 101.436,173.702 101.542 C 173.143 101.601,172.373 101.406,171.991 101.109 C 171.377 100.631,171.383 100.672,172.037 101.455 M87.006 108.538 C 86.578 108.802,86.616 108.966,87.224 109.457 C 87.630 109.786,87.770 109.959,87.535 109.842 C 87.250 109.700,87.176 109.895,87.313 110.420 C 87.512 111.181,87.539 111.174,88.036 110.225 C 88.645 109.063,87.963 107.946,87.006 108.538 M85.828 110.822 C 85.605 112.290,85.592 112.272,86.358 111.525 C 86.875 111.020,86.897 110.816,86.494 110.265 C 86.059 109.670,85.996 109.722,85.828 110.822 M86.266 112.293 C 85.958 113.464,86.140 114.419,86.561 113.843 C 86.823 113.485,87.037 113.067,87.037 112.914 C 87.037 112.642,86.325 112.068,86.266 112.293 M178.171 113.364 C 178.184 113.653,178.430 114.972,178.718 116.296 C 179.222 118.609,179.237 118.631,179.096 116.852 C 178.934 114.802,178.645 113.337,178.345 113.036 C 178.237 112.928,178.158 113.076,178.171 113.364 M83.797 118.704 C 83.801 119.519,83.877 119.808,83.966 119.348 C 84.054 118.887,84.051 118.220,83.958 117.866 C 83.865 117.512,83.793 117.889,83.797 118.704 M85.074 118.274 C 84.969 118.547,85.032 119.006,85.214 119.293 C 85.454 119.673,85.546 119.538,85.550 118.796 C 85.556 117.690,85.374 117.491,85.074 118.274 M180.137 122.593 C 180.137 124.731,180.198 125.606,180.273 124.537 C 180.348 123.468,180.348 121.718,180.273 120.648 C 180.198 119.579,180.137 120.454,180.137 122.593 M83.467 124.074 C 83.467 126.009,83.529 126.801,83.606 125.833 C 83.682 124.866,83.682 123.282,83.606 122.315 C 83.529 121.347,83.467 122.139,83.467 124.074 M179.716 128.889 C 179.716 129.602,179.792 129.894,179.885 129.537 C 179.978 129.181,179.978 128.597,179.885 128.241 C 179.792 127.884,179.716 128.176,179.716 128.889 M83.790 129.259 C 83.790 129.972,83.866 130.264,83.959 129.907 C 84.052 129.551,84.052 128.968,83.959 128.611 C 83.866 128.255,83.790 128.546,83.790 129.259 M88.157 144.578 C 88.143 145.075,90.305 148.970,91.166 150.000 L 91.940 150.926 91.260 149.815 C 90.886 149.204,90.037 147.704,89.373 146.481 C 88.709 145.259,88.161 144.403,88.157 144.578 M173.889 146.667 C 173.573 147.278,173.398 147.778,173.499 147.778 C 173.601 147.778,173.943 147.278,174.259 146.667 C 174.575 146.056,174.751 145.556,174.649 145.556 C 174.547 145.556,174.205 146.056,173.889 146.667 M165.547 157.685 L 162.407 160.926 165.648 157.786 C 168.658 154.870,169.058 154.444,168.788 154.444 C 168.733 154.444,167.274 155.903,165.547 157.685 M98.889 159.005 C 98.889 159.069,99.431 159.610,100.093 160.208 L 101.296 161.296 100.208 160.093 C 99.194 158.971,98.889 158.719,98.889 159.005 M160.741 161.897 C 159.450 163.029,159.450 163.030,160.637 162.240 C 161.293 161.804,161.928 161.288,162.048 161.094 C 162.405 160.516,162.109 160.698,160.741 161.897 M108.148 165.738 C 108.148 165.989,111.157 167.485,111.324 167.318 C 111.402 167.240,110.719 166.814,109.807 166.371 C 108.894 165.928,108.148 165.643,108.148 165.738 M150.741 167.593 C 150.231 167.884,149.981 168.122,150.185 168.122 C 150.389 168.122,150.972 167.884,151.481 167.593 C 151.991 167.301,152.241 167.063,152.037 167.063 C 151.833 167.063,151.250 167.301,150.741 167.593 M128.801 171.743 C 129.261 171.832,129.928 171.829,130.282 171.736 C 130.636 171.643,130.259 171.571,129.444 171.575 C 128.630 171.579,128.340 171.655,128.801 171.743 M132.136 171.750 C 132.802 171.832,133.802 171.831,134.358 171.746 C 134.915 171.662,134.370 171.594,133.148 171.596 C 131.926 171.598,131.471 171.667,132.136 171.750 " stroke="none" fill="#0f5065" fill-rule="evenodd"></path></g></svg>