<svg width="400" height="400" version="1.1" viewBox="0 0 400 400" xmlns="http://www.w3.org/2000/svg">
<g fill-rule="evenodd">
<path d="m154 51c-32 2.5-60 19-78 45-20 29-21 64-4.6 97 15 31 54 53 89 50 18-1.2 30-4.6 45-13 64-36 69-126 8-166-16-11-40-16-60-15m21 14c34 5.5 62 34 67 69 6.3 46-26 88-73 94-58 8.1-107-45-91-100 12-43 54-70 97-63" fill="#04a6d9"/>
<path d="m154 77c-47 5.4-78 56-61 100 3 7.6 12 21 16 24 0.26 0.2 1.7 1.4 3.2 2.8 11 9.3 34 19 40 16 0.63-0.32 1.1-0.4 1.1-0.19 0 0.21 0.54 0.4 1.2 0.42l1.2 0.044-1.1 0.28c-0.88 0.22-0.62 0.29 1.2 0.33 1.6 0.029 2.5-0.13 2.9-0.48 0.3-0.3 0.87-0.43 1.3-0.31 0.78 0.2 0.78 0.23 0.099 0.5-0.52 0.2-0.32 0.29 0.76 0.3 0.96 0.013 1.3-0.091 0.98-0.3-0.29-0.18 0.64-0.24 2.2-0.14 2.5 0.16 2.7 0.14 2-0.4-0.68-0.53-0.62-0.54 0.82-0.18 0.86 0.22 1.9 0.26 2.2 0.11 0.36-0.16 1.1-0.25 1.6-0.21 0.68 0.053 0.79-0.02 0.41-0.28-0.38-0.26-0.22-0.41 0.68-0.61 0.65-0.14 1.3-0.16 1.4-0.041 0.12 0.12-0.085 0.22-0.46 0.22-0.37 0-0.59 0.092-0.47 0.2 0.34 0.34 5.1-1.1 4.8-1.4-0.13-0.22 0.2-0.25 0.86-0.083 0.59 0.15 0.96 0.15 0.81 0.01-0.58-0.58 0.77-1.3 1.6-0.89 0.47 0.25 0.7 0.27 0.56 0.044-0.32-0.51 1-0.91 2.1-0.62 0.68 0.19 0.73 0.16 0.28-0.19-0.46-0.35-0.41-0.4 0.28-0.24 0.46 0.1 0.75 0.045 0.64-0.12-0.26-0.42 2.3-1.2 2.8-0.89 0.26 0.16 0.34 0.11 0.19-0.13-0.3-0.48 1.1-0.98 1.7-0.61 0.29 0.18 0.33 0.1 0.13-0.22-0.22-0.36-0.13-0.42 0.33-0.25 0.35 0.13 0.54 0.097 0.43-0.083s0.055-0.43 0.37-0.55c0.33-0.13 0.48-0.063 0.35 0.15-0.4 0.65 0.14 0.39 0.97-0.47 0.44-0.46 0.68-0.61 0.53-0.34-0.17 0.3 0.3 0.2 1.2-0.28 1.6-0.8 2.2-1.5 0.69-0.75-0.82 0.4-0.82 0.39-0.092-0.2 1.3-1.1 4.3-2.4 4.7-2.2 0.24 0.15 0.31 0.089 0.17-0.13-0.25-0.4 0.65-0.96 1.6-1 0.31-0.012 0.56-0.27 0.56-0.58 0-0.31 0.25-0.56 0.56-0.57 0.78-0.02 2.6-1.3 2.4-1.7-0.24-0.4 1.9-1.9 2.4-1.7 0.18 0.11 0.56-0.086 0.84-0.44 0.46-0.58 0.44-0.6-0.14-0.14-1.4 1.1-0.52 0.1 1.1-1.2 0.97-0.8 1.5-1.1 1.2-0.7-0.31 0.41 0.11 0.022 0.93-0.86s1.7-1.6 1.9-1.6c0.54 4e-3 1.8-1.4 1.9-2.1 0.048-0.33 0.29-0.72 0.53-0.87s0.34-0.44 0.21-0.65c-0.14-0.22 0.044-0.3 0.44-0.2 0.38 0.099 0.9-0.12 1.2-0.5 0.49-0.63 0.48-0.64-0.18-0.12-0.39 0.3-0.14-0.23 0.56-1.2s1.5-1.7 1.7-1.8c0.24-0.013 0.99-0.72 1.7-1.6s1-1.4 0.77-1.3c-0.69 0.43-0.56-0.33 0.16-0.92 0.54-0.44 0.59-0.43 0.35 0.047-0.15 0.31 0.023 0.15 0.39-0.34 0.36-0.49 0.66-1.2 0.66-1.5 3e-3 -0.32 0.21-0.54 0.47-0.49s0.44-0.032 0.42-0.18c-0.12-0.74 0.081-1.2 0.41-1 0.22 0.13 0.27-0.032 0.12-0.41-0.16-0.43-0.1-0.55 0.19-0.37 0.28 0.17 0.35 0.068 0.21-0.3-0.13-0.34 0.21-0.96 0.84-1.6 0.58-0.55 0.84-0.88 0.59-0.73-0.67 0.39-0.56-0.17 0.28-1.4 0.79-1.2 0.99-1 0.35 0.3-0.38 0.78-0.37 0.78 0.19 0.09 0.32-0.4 0.6-0.98 0.62-1.3 0.024-0.32 0.082-0.74 0.13-0.95s0.11-0.59 0.14-0.86c0.031-0.27 0.19-0.4 0.36-0.3 0.17 0.1 0.29-0.18 0.28-0.63-0.016-0.49 0.17-0.77 0.46-0.71 0.34 0.072 0.42-0.14 0.24-0.69-0.19-0.59-0.13-0.72 0.21-0.51 0.3 0.19 0.38 0.14 0.2-0.14-0.33-0.54 0.096-2 0.51-1.7 0.17 0.11 0.22-0.17 0.1-0.61-0.13-0.51-0.068-0.71 0.18-0.56 0.25 0.16 0.32-0.044 0.18-0.56s-0.067-0.71 0.18-0.56c0.25 0.16 0.32-0.044 0.18-0.56s-0.067-0.71 0.18-0.56c0.25 0.16 0.32-0.044 0.19-0.56s-0.068-0.71 0.18-0.56c0.25 0.15 0.32-0.03 0.2-0.5-0.11-0.41-0.031-0.74 0.17-0.74 0.2 0 0.29-0.46 0.2-1-0.11-0.7-0.056-0.87 0.18-0.53 0.44 0.63 0.83-1.1 0.6-2.7-0.14-0.95-0.1-1 0.22-0.37 0.3 0.58 0.34 0.42 0.18-0.74-0.16-1.1-0.11-1.4 0.2-0.93 0.32 0.43 0.38 0.25 0.27-0.83-0.074-0.76-1e-3 -1.4 0.16-1.5s0.46-1.8 0.66-3.8c0.45-4.7 0.46-13 1e-3 -12-0.21 0.47-0.24-0.061-0.1-1.4 0.14-1.3 0.088-2.1-0.13-2-0.2 0.13-0.29-0.31-0.2-1 0.092-0.79-0.059-1.5-0.4-1.8-0.64-0.64-1.1-3.5-0.8-4.5 0.17-0.52 0.14-0.58-0.12-0.21-0.47 0.65-0.96-1.2-0.62-2.2 0.18-0.55 0.11-0.68-0.23-0.47-0.29 0.18-0.38 0.14-0.22-0.11 0.14-0.22 0.045-1.2-0.2-2.1-0.25-0.93-0.56-1.5-0.71-1.3-0.14 0.23-0.37-0.093-0.51-0.74-0.14-0.63-0.13-1.3 0.017-1.6 0.18-0.29 0.11-0.34-0.22-0.13-0.36 0.22-0.42 0.13-0.23-0.36 0.2-0.53 0.15-0.58-0.24-0.25-0.4 0.34-0.49 0.17-0.46-0.87 0.024-0.71-0.098-1.3-0.27-1.3s-0.21-0.17-0.084-0.37c0.13-0.2 0.043-0.37-0.18-0.37s-0.31-0.17-0.18-0.37c0.32-0.52-2-4.8-2.9-5.2-0.41-0.22-0.62-0.61-0.5-0.92 0.14-0.35 0.056-0.45-0.22-0.28-0.28 0.18-0.35 0.062-0.2-0.34 0.13-0.33 0.047-0.72-0.18-0.86-0.25-0.15-0.31-0.086-0.15 0.17 0.14 0.24 0.18 0.43 0.07 0.43-0.11 0-0.38-0.35-0.61-0.79-0.32-0.6-0.32-0.72 0.025-0.51 0.25 0.15 0.16-0.16-0.19-0.7-0.35-0.53-0.78-0.97-0.96-0.97-0.18 0-0.29-0.14-0.24-0.31s-0.45-0.77-1.1-1.3c-1.2-0.97-1.7-2-0.75-1.5 0.25 0.16-0.18-0.5-0.97-1.5-0.78-0.96-1.5-1.7-1.6-1.7s0.1 0.34 0.48 0.74c0.37 0.41 0.58 0.83 0.48 0.94-0.22 0.21-1.4-1.5-1.5-2.2-0.11-0.73-0.64-1.4-0.97-1.2-0.18 0.11-0.43 0.025-0.56-0.18-0.13-0.21-0.39-0.29-0.58-0.17-0.19 0.12-0.25-0.027-0.14-0.32s-0.068-0.63-0.4-0.76c-0.33-0.13-0.51-0.37-0.41-0.54 0.28-0.46-3.3-3.9-4.2-4-0.76-0.12-1.8-0.94-1.8-1.4 0-0.13 0.19-0.12 0.43 0.031 0.26 0.16 0.33 0.1 0.17-0.15-0.14-0.23-0.5-0.32-0.79-0.21-0.33 0.12-0.69-0.13-0.94-0.66-0.5-1.1-4.3-3.8-5.2-3.7-0.36 0.028-0.76-0.13-0.9-0.35-0.16-0.26-0.075-0.3 0.24-0.1 0.31 0.19 0.4 0.16 0.23-0.11-0.14-0.23-0.49-0.32-0.78-0.21-0.29 0.11-0.96-0.23-1.5-0.76-1-1-3.4-2.4-3-1.7 0.15 0.24 0.024 0.31-0.33 0.18-0.32-0.12-0.48-0.37-0.37-0.55 0.11-0.18-0.028-0.24-0.31-0.13-0.62 0.24-2.7-0.5-2.3-0.84 0.7-0.7-9.6-4.1-17-5.5-3.6-0.72-17-1.1-21-0.55m-3.7 8.3c-0.085 0.086-0.65 0.26-1.3 0.39l-1.1 0.23 1.1-0.52c0.99-0.46 1.7-0.52 1.3-0.099m-14 7.2c-5e-3 0.5-0.076 0.54-0.32 0.15-0.26-0.41-0.5-0.39-1.4 0.14l-1.1 0.64 0.93-0.78c1.1-0.95 1.9-1 1.8-0.14m43 12c0.18 0.81 0.15 0.96-0.13 0.56-0.21-0.3-0.38-0.88-0.38-1.3-7e-3 -0.95 0.2-0.65 0.51 0.71m47 10c0.3 0.58 0.22 0.55-0.38-0.13-0.42-0.48-0.76-1.1-0.76-1.3 6e-3 -0.44 0.5 0.17 1.1 1.4m-127 32c-0.088 0.46-0.16 0.17-0.17-0.64-4e-3 -0.81 0.068-1.2 0.16-0.84s0.096 1 7e-3 1.5m121 42c-0.75 1.1-1.1 1.2-0.44 0.074 0.25-0.46 0.42-0.97 0.37-1.1-0.049-0.17 0.081-0.2 0.29-0.073 0.24 0.15 0.16 0.56-0.22 1.1" fill="#f9247d"/>
<path d="m161 40c0.46 0.089 1.1 0.085 1.5-7e-3 0.35-0.093-0.023-0.16-0.84-0.16s-1.1 0.08-0.64 0.17m3.3 0c0.46 0.089 1.1 0.085 1.5-7e-3 0.35-0.093-0.023-0.16-0.84-0.16-0.82 4e-3 -1.1 0.08-0.64 0.17m69 184c-1.1 1-3.7 3.2-5.8 4.9-3.8 3-3.8 3-3.1 3.8 0.9 1 15 18 18 21 1.1 1.4 3.3 4 4.8 5.8 1.5 1.8 6.3 7.6 11 13 4.3 5.2 9 11 10 12 1.4 1.6 5.3 6.2 8.6 10 15 18 33 39 35 41 7.3 6.6 18 3 18-6.1 0-3.5-0.75-4.9-5.2-10-0.72-0.83-1.8-2.1-2.4-2.8-1.4-1.6-5.9-6.6-12-13-7.7-8.4-18-20-22-24-4.4-4.9-9.5-11-16-17-2.8-3-7.2-7.8-9.8-11-2.6-3-6-6.6-7.4-8.1-1.4-1.5-3.4-3.6-4.3-4.7-1.4-1.6-10-11-14-15l-1.3-1.4-2 1.9" fill="#f47307"/>
<path d="m158 40c-2.8 0.13-6.2 0.32-7.6 0.42-3.5 0.24-11 1.4-11 1.8 0 0.14-0.42 0.18-0.93 0.088-0.51-0.098-0.93-7e-3 -0.93 0.2 0 0.21-0.33 0.29-0.74 0.19-0.41-0.11-0.74-0.036-0.74 0.16 0 0.19-0.21 0.37-0.46 0.39-0.25 0.022-0.71 0.11-1 0.19-0.31 0.081-1.1 0.28-1.7 0.43-2.7 0.68-8.6 2.5-9.7 3-0.64 0.29-1.4 0.53-1.7 0.53s-0.65 0.12-0.8 0.27c-0.15 0.15-0.47 0.28-0.71 0.28-0.89 0.02-3.2 1-3.2 1.3 0 0.2-0.17 0.26-0.37 0.14-0.2-0.13-0.37-0.042-0.37 0.18 0 0.23-0.17 0.31-0.37 0.18-0.2-0.13-0.81 0.11-1.3 0.53s-1.2 0.76-1.4 0.76-1.8 0.67-3.4 1.5-3.1 1.5-3.4 1.5-0.47 0.18-0.47 0.39-0.15 0.3-0.34 0.18c-0.19-0.12-0.57 0.019-0.85 0.3-0.28 0.28-0.86 0.62-1.3 0.76-0.43 0.14-1.2 0.65-1.7 1.1-0.53 0.49-1.6 1.2-2.3 1.5-0.71 0.34-1.3 0.76-1.3 0.94 0 0.18-0.2 0.33-0.44 0.33-0.58 0-4.4 2.6-4.4 3 0 0.17-0.23 0.31-0.52 0.31-0.48 0-2.2 1.3-4.2 3.2-0.48 0.46-1.8 1.5-2.9 2.3-1.1 0.81-2.3 1.8-2.6 2.3s-0.58 0.75-0.58 0.65c0-0.44-7.4 7.1-9.4 9.6-1.2 1.5-2.6 3.1-3.1 3.6-0.46 0.46-0.83 1.1-0.83 1.4s-0.14 0.57-0.32 0.57c-0.39 0-3.4 4.2-3.4 4.8 0 0.22-0.17 0.4-0.37 0.4s-0.37 0.24-0.37 0.54c0 0.3-0.22 0.67-0.49 0.83-0.58 0.35-3.2 4.7-3.2 5.3 0 0.23-0.17 0.42-0.37 0.42-0.2 0-0.33 0.12-0.28 0.28 0.11 0.32-3.1 6.9-3.5 7.1-0.48 0.34-2.1 4.3-1.9 4.6 0.12 0.12 0.03 0.22-0.21 0.22-0.24 0-0.43 0.32-0.43 0.72 0 0.4-0.18 0.83-0.4 0.96-0.22 0.13-0.31 0.48-0.2 0.76s0.037 0.52-0.16 0.52-0.36 0.33-0.36 0.73-0.35 1.6-0.77 2.7c-0.42 1.1-0.74 2-0.71 2.1 0.15 0.23-1.7 7.3-1.9 7.5-0.15 0.11-0.32 0.78-0.38 1.5-0.057 0.7-0.21 1.4-0.33 1.5-0.39 0.32-1.4 8.3-1.9 15-0.59 8.2 0.49 26 1.6 26 0.14 0 0.18 0.38 0.09 0.85-0.09 0.47 0.17 1.8 0.57 3.1 0.67 2 1.5 5 1.7 5.9 0.11 0.59 2.1 7 2.4 7.8 0.17 0.41 0.84 2.1 1.5 3.8 0.65 1.7 1.3 3.1 1.5 3.1s0.25 0.17 0.12 0.37c-0.13 0.2-0.09 0.37 0.081 0.37 0.34 0 2.6 4.8 2.4 5.3-0.048 0.15 0.06 0.28 0.24 0.28s0.42 0.34 0.53 0.76c0.34 1.3 3.3 6.3 3.6 6.1 0.17-0.11 0.31 0.026 0.32 0.29 1e-3 0.27 0.83 1.7 1.9 3.2 1 1.5 1.8 2.9 1.8 3 0 0.18 0.33 0.55 0.74 0.84 0.41 0.28 0.63 0.62 0.5 0.75-0.13 0.13 0.038 0.34 0.37 0.47 0.34 0.13 0.61 0.39 0.61 0.59s0.88 1.3 1.9 2.4c1.1 1.1 1.9 2.2 1.9 2.4 0 0.38 9.9 10 10 10 0.32 0.011 1.8 1.2 4.3 3.6 1.1 1.1 2.3 1.9 2.5 1.9s0.54 0.25 0.66 0.56c0.12 0.3 0.4 0.56 0.62 0.56s1.4 0.67 2.6 1.5 2.3 1.5 2.4 1.5c0.1 0 0.59 0.38 1.1 0.83 0.5 0.46 1.9 1.3 3.1 1.9 1.2 0.61 2.3 1.3 2.6 1.5s1.6 0.87 3 1.5c1.4 0.59 3 1.3 3.5 1.7 0.51 0.34 1.2 0.54 1.4 0.44 0.28-0.099 0.42-0.02 0.29 0.18s0.98 0.81 2.4 1.4c1.5 0.56 3 1.2 3.4 1.4 0.42 0.2 1 0.41 1.3 0.46 0.3 0.051 2 0.56 3.7 1.1 1.7 0.57 3.4 1.1 3.8 1.2 1.5 0.34 2.4 0.53 3.5 0.74 0.66 0.13 1.3 0.37 1.4 0.54 0.11 0.17 0.46 0.21 0.8 0.08 0.44-0.17 0.52-0.095 0.3 0.26-0.23 0.37-0.064 0.44 0.68 0.3 0.54-0.1 0.98-0.066 0.98 0.083 0 0.82 17 2.6 25 2.6 7.6 8e-3 23-1.7 23-2.6 0.061-0.17 0.44-0.23 0.83-0.13 0.4 0.1 0.72 0.031 0.72-0.16 0-0.19 0.21-0.36 0.46-0.38 0.61-0.031 12-3.3 13-3.8 1.1-0.49 4.7-1.8 5.6-2.1 0.46-0.13 0.83-0.4 0.83-0.61s0.17-0.26 0.37-0.14c0.2 0.12 0.37 0.042 0.37-0.19 0-0.23 0.17-0.31 0.37-0.18 0.2 0.13 0.37 0.059 0.37-0.15s0.66-0.56 1.5-0.77c0.8-0.22 1.7-0.65 2-0.97 0.31-0.32 0.57-0.49 0.57-0.39 0 0.1 1.5-0.63 3.2-1.6l3.2-1.8 2.1 2.2c1.2 1.2 2.1 2.3 2.1 2.4 0.02 0.083 0.33 0.46 0.68 0.83 0.36 0.37 1.2 1.4 1.9 2.3 0.71 0.9 1.9 2.3 2.6 3s1.3 1.4 1.2 1.4c-0.18 0 6.2 7.5 9.1 11 1 1.1 2.4 2.7 3 3.6 0.64 0.86 1.3 1.6 1.5 1.6s0.34 0.18 0.34 0.39c0 0.22 1.1 1.5 2.4 2.8 1.3 1.3 2.4 2.6 2.4 2.9s0.51 0.91 1.1 1.4c0.63 0.53 1 0.96 0.86 0.96s0.78 1.1 2.1 2.3 2.3 2.5 2.3 2.7c2e-3 0.39 3.6 4.7 5.4 6.3 0.64 0.62 1.2 1.3 1.2 1.5s0.38 0.7 0.83 1.1c0.46 0.42 1.3 1.4 1.9 2.2s1.9 2.3 2.8 3.3c2.8 3.1 3.1 3.6 7.4 8.6 2.3 2.6 5 5.8 6.1 7 1.1 1.2 2.6 2.9 3.2 3.8 0.68 0.89 1.7 2.1 2.3 2.8 0.61 0.64 1.1 1.2 1.1 1.4 9e-3 0.1 0.89 1.1 2 2.2 1.1 1.1 1.9 2.2 1.9 2.4 0 0.24 1.4 1.9 3.1 3.7 4.4 4.6 5 5.3 5 5.7 0 0.16 1.1 1.4 2.4 2.8 1.3 1.3 2.3 2.5 2.1 2.5-0.67 0 4.2 4.5 5.6 5.1 0.82 0.39 1.9 1.1 2.5 1.6 0.98 0.91 4.1 2.3 6.1 2.6 0.53 0.096 1.5 0.35 2.2 0.57 1.5 0.51 3.9 0.63 5.1 0.26 0.72-0.23 0.8-0.2 0.37 0.11-0.55 0.41-9e-3 0.37 3.5-0.23 2.4-0.41 5.3-1.4 5.2-1.7-0.11-0.18 0.14-0.32 0.55-0.32 0.41 0 1.1-0.38 1.6-0.83 0.44-0.46 0.69-0.58 0.54-0.28-0.15 0.31 0.093 0.098 0.53-0.46 0.44-0.56 0.98-1 1.2-1 0.59 0 2.5-1.9 2.5-2.5 0-0.27 0.23-0.59 0.52-0.7 0.55-0.21 3.2-5.3 3.2-6.2 0-0.27 0.26-0.87 0.59-1.3 0.32-0.46 0.5-1.1 0.38-1.4-0.11-0.3-0.026-0.54 0.19-0.54 0.26 0 0.32-0.6 0.16-1.8-0.17-1.3-0.13-1.6 0.14-1.2 0.28 0.41 0.38-0.054 0.38-1.7 4e-3 -1.3-0.14-2.4-0.32-2.5-0.18-0.11-0.24-0.62-0.14-1.1 0.11-0.57 0.01-0.94-0.26-0.94-0.27 0-0.35-0.28-0.2-0.74 0.14-0.42 0.067-0.74-0.16-0.74-0.22 0-0.4-0.27-0.4-0.6 0-1.9-3.7-8.5-5.9-10-0.53-0.48-0.71-0.75-0.41-0.59 0.31 0.15-0.13-0.45-0.96-1.3-2.7-2.9-3.2-3.4-4.6-5.3-0.77-1-1.9-2.3-2.4-2.8-0.56-0.51-2.3-2.5-3.8-4.4-1.5-1.9-2.8-3.4-3-3.3s-0.81-0.59-1.6-1.5-1.9-2.3-2.6-3c-0.64-0.68-1.2-1.3-1.2-1.5s-1-1.3-2.3-2.5c-2.9-2.9-4-4.2-4-4.5 0-0.17-0.88-1.1-1.9-2.2-2.4-2.2-5.1-5.3-5.1-5.6 1e-3 -0.14-0.82-1.1-1.8-2.1-3.1-3.1-4.9-5.1-4.9-5.3 0-0.12-0.83-1.1-1.8-2.1-3-3-4.8-5.1-4.8-5.4 0-0.15-0.68-0.88-1.5-1.6-0.83-0.75-1.4-1.4-1.3-1.4 0.27 0-5.5-6.4-7.7-8.6-0.77-0.76-1.4-1.5-1.4-1.6 0-0.24-2.1-2.6-3.6-4.1-0.46-0.45-0.83-0.92-0.83-1.1 0-0.14-0.99-1.3-2.2-2.6s-2.8-3.1-3.6-4.1c-0.75-0.97-1.5-1.8-1.7-1.8-0.18 0-0.32-0.19-0.32-0.42s-0.71-1.1-1.6-1.9c-2-2-4-4.2-4-4.6 0-0.16-1.2-1.5-2.7-2.9-2.9-2.8-4.7-4.9-4.7-5.4 0-0.37-3.3-3.3-3.8-3.3-0.18 0-0.32-0.18-0.32-0.39 0-0.22 0.18-0.28 0.4-0.15 0.22 0.13 0.48-0.094 0.59-0.51s0.44-0.85 0.74-0.96c0.3-0.11 0.45-0.36 0.34-0.54-0.11-0.18 0.043-0.43 0.35-0.55s0.55-0.47 0.55-0.78 0.17-0.57 0.37-0.57 0.37-0.25 0.37-0.56c0-0.31 0.17-0.56 0.37-0.56 0.2 0 0.37-0.25 0.37-0.56 0-0.31 0.17-0.56 0.37-0.56 0.2 0 0.37-0.25 0.37-0.56 0-0.31 0.19-0.56 0.43-0.56 0.24 0 0.33-0.099 0.21-0.22-0.12-0.12 0.66-1.5 1.7-3.1 2-3 5.2-8.9 4.8-8.9-0.12 0 0.04-0.26 0.36-0.58s0.58-0.83 0.58-1.1c0-0.3 0.61-1.8 1.4-3.4s1.3-3.1 1.3-3.3 0.088-0.46 0.28-0.46 0.55-0.62 0.79-1.4 0.66-1.9 0.95-2.5c0.28-0.64 0.58-1.5 0.65-1.9 0.074-0.38 0.22-0.94 0.33-1.2 1.4-4 3.3-13 2.7-13-0.22-3e-3 -0.18-0.14 0.091-0.32 0.32-0.2 0.52-1.2 0.56-2.8 0.044-1.8 0.18-2.4 0.52-2.3 0.56 0.22 0.65-1.9 0.092-2.2-0.2-0.12-0.37-0.58-0.37-1 0-0.77 0.011-0.78 0.54-0.071 0.5 0.66 0.54 0.57 0.56-1.2 7e-3 -1.1-0.15-2-0.36-2.2-0.55-0.34-0.45-2.3 0.12-2.5 0.38-0.15 0.48-1.3 0.42-5.1-0.082-5.8-0.06-5.6-0.6-5.3-0.31 0.19-0.35-0.23-0.16-1.6 0.73-4.9 0.72-4.8 0.073-4.3-0.51 0.43-0.6 0.41-0.6-0.079 0-0.32 0.17-0.68 0.37-0.81 0.2-0.13 0.37-0.64 0.37-1.1 0-0.5-0.17-0.9-0.37-0.9-0.2 0-0.37-0.68-0.37-1.5s-0.13-1.4-0.29-1.3c-0.16 0.099-0.22-0.41-0.14-1.1 0.11-0.92 0.026-1.2-0.26-1.1-0.23 0.14-0.42 0.095-0.42-0.1s0.14-0.42 0.31-0.48c0.31-0.12-0.63-4.8-1-5.1-0.11-0.1-0.23-0.52-0.25-0.93-0.024-0.41-0.14-1.2-0.26-1.7-0.12-0.51-0.3-1.3-0.41-1.8-0.25-1.2-1.4-4.6-1.6-5-0.12-0.2-0.23-0.54-0.24-0.74-0.07-1.3-0.67-2.8-1-2.5-0.26 0.16-0.32 0.026-0.17-0.37 0.13-0.34 0.08-0.62-0.11-0.62s-0.26-0.23-0.15-0.51-0.074-0.78-0.4-1.1c-0.33-0.33-0.66-0.95-0.75-1.4-0.084-0.43-0.49-1.4-0.91-2.1-0.42-0.7-0.76-1.5-0.76-1.8 0-0.3-0.25-0.64-0.55-0.76-0.3-0.12-0.47-0.35-0.37-0.51 0.1-0.17-0.024-0.52-0.28-0.8-0.26-0.27-0.52-0.82-0.6-1.2-0.19-1.1-1.2-2.9-1.8-3.3-0.28-0.16-0.42-0.46-0.3-0.65 0.12-0.19 0.029-0.35-0.2-0.35s-0.31-0.17-0.18-0.37 0.052-0.37-0.16-0.37c-0.22 0-0.35-0.12-0.31-0.28 0.12-0.4-1.3-2.7-1.7-2.7-0.17 0-0.22-0.14-0.12-0.32 0.11-0.17-0.092-0.64-0.44-1-0.76-0.87-1.3-1.7-2.3-3.6-0.41-0.76-0.92-1.4-1.1-1.4-0.21 0-0.29-0.15-0.18-0.33 0.11-0.18-0.046-0.43-0.35-0.54-0.31-0.12-0.51-0.35-0.46-0.51s-0.61-1-1.5-1.9c-0.86-0.9-1.7-1.9-1.8-2.3-0.12-0.37-0.37-0.67-0.56-0.67s-0.3-0.15-0.25-0.33c0.12-0.42-3e-3 -0.54-6.4-7-3.2-3.2-5.4-5.2-5.7-5-0.24 0.14-0.34 0.14-0.21-3e-3 0.27-0.3-2.5-3.4-3-3.4-0.2 0-0.62-0.38-0.95-0.83s-0.74-0.83-0.94-0.83c-0.2 0-1.4-0.75-2.6-1.7s-2.5-1.7-2.8-1.7-0.44-0.21-0.39-0.46c0.052-0.26-0.19-0.41-0.56-0.35-0.36 0.06-0.61-0.078-0.56-0.31 0.054-0.23-0.98-0.98-2.3-1.7-1.3-0.68-2.6-1.4-2.9-1.7-0.26-0.23-0.47-0.28-0.47-0.12s-0.13 0.1-0.28-0.13c-0.3-0.46-5.3-2.9-5.7-2.8-0.15 0.031-0.28-0.1-0.28-0.3 0-0.2-0.28-0.25-0.62-0.12-0.45 0.17-0.53 0.1-0.31-0.26 0.23-0.36 0.14-0.43-0.33-0.25-0.35 0.13-0.55 0.1-0.44-0.075 0.15-0.25-4.8-2.4-5.7-2.4-0.1-9e-3 -0.37-0.14-0.6-0.28-0.23-0.15-1.1-0.37-1.8-0.49-0.78-0.12-2.3-0.52-3.3-0.88-1-0.36-2.9-0.87-4.1-1.1-1.2-0.26-2.4-0.6-2.5-0.76-0.18-0.16-0.58-0.18-0.89-0.062-0.35 0.13-0.48 0.065-0.33-0.18 0.93-1.5-21-3.5-32-3m14 12c53 5.7 89 50 84 104-4.8 52-52 92-104 89-74-3.9-116-84-78-146 17-27 44-44 76-47 3.2-0.37 17-0.18 22 0.3m-17 13c-33 3.5-61 24-74 56-21 52 19 109 76 109 12 0 21-1.7 32-6.2 59-24 71-102 22-141-15-12-38-19-56-17m16 12c58 7.1 84 74 45 118-26 29-68 35-98 13-37-26-40-79-6.5-110 12-11 24-17 40-20 4.7-0.94 14-1.2 20-0.54m73 154c4.6 5.1 8.5 9.3 8.6 9.4 0.13 0.1 2.6 2.9 5.6 6.1 2.9 3.3 8.2 9 12 13 6.6 7.2 13 14 19 21 2.1 2.3 5.1 5.7 6.7 7.4 1.6 1.8 3.6 3.9 4.4 4.9 0.79 0.91 3.3 3.7 5.6 6.1 2.3 2.4 4.8 5.2 5.6 6.1 0.82 0.91 2.5 2.7 3.7 4.1 3.8 4.2 10 11 11 13 6.2 7.8 1.2 18-8.3 17-4.6-0.52-7.5-3-17-15-4.8-5.8-7.1-8.5-8.3-9.8-0.75-0.82-2.6-3-4.1-4.8-1.5-1.9-5-6-7.8-9.3s-6.2-7.4-7.8-9.3-4.7-5.6-7.1-8.3c-2.4-2.7-5.3-6.3-6.6-7.9-1.3-1.6-3.2-3.9-4.3-5.2-1.1-1.2-2.7-3.2-3.6-4.3s-4.5-5.5-8-9.6c-10-12-17-21-19-22-0.73-0.87-1.3-1.6-1.2-1.7 1.9-1.3 6.4-4.8 8.7-6.9 1.6-1.4 3.2-2.6 3.4-2.5 0.24 0.047 4.2 4.3 8.8 9.3m100 100c-0.3 0.3-0.41 0.26-0.41-0.16 0-0.31 0.12-0.69 0.27-0.84s0.33-0.078 0.41 0.16-0.043 0.61-0.27 0.84" fill="#040404"/>
<path d="m154 77c-1.1 0.13 1.5 0.17 5.9 0.094 4.4-0.074 8.1-0.19 8.3-0.26 0.65-0.22-12-0.072-14 0.17m15 0.28c0.46 0.088 1.2 0.088 1.7 0s0.083-0.16-0.83-0.16c-0.92 0-1.3 0.072-0.83 0.16m-33 4c-0.93 0.45-0.96 0.5-0.18 0.31 1-0.26 2.2-0.86 1.7-0.85-0.2 3e-3 -0.87 0.25-1.5 0.54m51 0.32c0.32 0.31 4.9 2.1 5 1.9 0.076-0.076-0.95-0.58-2.3-1.1-2.3-0.92-3.1-1.2-2.8-0.82m-57 1.9c-4.3 2.1-3.9 2.2 0.62 0.044 1.9-0.91 3.3-1.7 3.1-1.7-0.22-0.01-1.9 0.72-3.7 1.6m-11 5.8c-1.5 1-3 2.1-3.3 2.5-0.5 0.51 5.2-3.3 6.1-4 0.95-0.83-0.32-0.12-2.8 1.6m82-0.28c0 0.08 0.96 0.84 2.1 1.7 2 1.5 2.1 1.5 0.65 0.21-1.4-1.3-2.8-2.2-2.8-1.9m4.8 3.6c0.31 0.31 2.4 2.3 4.6 4.4 3.3 3.1 3.5 3.3 1.3 0.96-1.5-1.6-3.6-3.6-4.6-4.4-1-0.84-1.6-1.3-1.3-0.96m-98 6.5c-2.8 2.8-5.6 5.8-6.3 6.8-1 1.4-0.93 1.3 0.54-0.37 0.97-1.1 3.9-4.2 6.5-6.8 2.6-2.6 4.7-4.7 4.6-4.7-0.13 0-2.5 2.3-5.3 5.1m108 3.7c0.89 1.1 1.7 1.9 1.8 1.9 0.25 0-2-2.8-2.8-3.4-0.36-0.28 0.078 0.36 0.97 1.4m5.8 8.1c1.7 2.8 2.1 3.1 0.75 0.64-0.58-1.1-1.3-2.1-1.5-2.4-0.27-0.23 0.084 0.55 0.79 1.7m-125 2.1c-1.3 2.1-3.9 7.1-3.9 7.6 5e-3 0.16 0.9-1.4 2-3.5 1.1-2.1 2.3-4.3 2.8-4.9 0.45-0.63 0.72-1.1 0.6-1.1-0.12 0-0.77 0.88-1.5 1.9m132 12c-0.019 0.24 0.15 0.91 0.37 1.5 0.22 0.57 0.81 2.5 1.3 4.4 0.5 1.8 0.81 2.6 0.7 1.8-0.21-1.6-2.3-8.4-2.4-7.6m-140 5.4c-1.1 3.6-2.2 8.9-2.4 12-0.081 1.2-0.076 1.8 0.01 1.3 1.1-6.6 1.7-9.6 2.5-12 0.52-1.7 0.87-3.2 0.79-3.3s-0.51 1.1-0.97 2.6m181 9.6c-0.37 1.3-0.33 3 0.071 2.8 0.19-0.12 0.42 0 0.53 0.26 0.28 0.7 0.24-0.82-0.069-2.5-0.25-1.3-0.3-1.4-0.53-0.56m-184 6.3c0 0.92 0.072 1.3 0.16 0.83s0.088-1.2 0-1.7c-0.088-0.46-0.16-0.083-0.16 0.83m146 6.5c4e-3 0.82 0.08 1.1 0.17 0.64 0.088-0.46 0.085-1.1-8e-3 -1.5s-0.16 0.023-0.16 0.84m38 0.45c-0.53 0.19-0.63 2.2-0.13 2.5 0.18 0.11 0.44-0.4 0.58-1.1 0.28-1.5 0.23-1.6-0.45-1.4m-184 3.3c2e-3 1.4 0.069 2 0.15 1.2 0.08-0.77 0.079-1.9-3e-3 -2.6-0.082-0.66-0.15-0.029-0.15 1.4m145 2.4c0 0.71 0.076 1 0.17 0.65 0.093-0.36 0.093-0.94 0-1.3s-0.17-0.065-0.17 0.65m38 0.26c-3e-3 0.45 0.16 0.92 0.36 1 0.47 0.29 0.47-0.57 0-1.3-0.29-0.45-0.36-0.4-0.36 0.26m-183 2.4c0.23 2.9 2 11 2.9 13 0.33 0.71 0.51 0.96 0.38 0.56-1-3.3-2.5-9.5-2.9-12-0.5-3-0.53-3.1-0.35-0.83m143 4.9c-0.64 2.3-1.3 4.5-1.4 4.9-0.12 0.41 0.036 0.18 0.35-0.49 0.75-1.6 2.5-7.7 2.3-8.2-0.069-0.19-0.65 1.5-1.3 3.8m-6.6 16c-0.57 1.1-1.4 2.4-1.8 3.1-0.46 0.68-0.51 0.9-0.15 0.56 0.68-0.65 3.3-5.2 3.1-5.4-0.074-0.074-0.6 0.74-1.2 1.8m-128 3.2c0.85 1.6 1.8 3.1 2.1 3.4 0.3 0.31-0.32-0.99-1.4-2.9s-2-3.4-2.1-3.4 0.52 1.3 1.4 2.9m120 8.3c-1.6 1.9-2.1 2.6-1.1 1.5 1.8-1.9 4.3-5 4.1-5-0.075 0-1.4 1.5-3 3.4m-113 1.6c0.93 1.2 2.2 2.7 2.9 3.3 0.67 0.61 0.16-0.14-1.1-1.7-3.1-3.7-3.9-4.4-1.8-1.7m107 5.3c-1 0.96-2.7 2.5-3.7 3.4-1.8 1.5-1.8 1.6-0.19 0.37 1.7-1.3 6.3-5.5 5.9-5.5-0.1-3e-3 -1 0.78-2 1.7m-100 2c0.62 0.78 4.1 3.7 4.1 3.5 0-0.1-1-1.1-2.3-2.2s-2.1-1.7-1.8-1.3m93 3.8-1.1 0.96 1.2-0.8c0.66-0.44 1.2-0.87 1.2-0.96 0-0.28-0.16-0.18-1.3 0.8m-86 1.8c0 0.26 4.1 3 5.6 3.7 1.4 0.67 1.2 0.52-2.8-2.1-1.5-0.96-2.7-1.7-2.7-1.6m80 2c-1.3 0.77-2.5 1.5-2.6 1.7-0.41 0.46 4.1-2.1 4.7-2.7 0.79-0.75 0.46-0.61-2.1 0.96m-64 6.5c1.2 0.65 9.4 3.2 10 3.1 0.34-0.01-1.3-0.58-3.7-1.3-2.4-0.69-4.9-1.5-5.7-1.8-1.7-0.71-2.2-0.72-0.88-0.022m47 0.94c-1.1 0.38-2.9 0.94-3.9 1.3-1.2 0.38-1.4 0.5-0.56 0.35 1.6-0.26 7.8-2.3 7-2.3-0.31-3e-3 -1.5 0.3-2.6 0.68m51 7.1c-3.6 3.1-4.8 4.4-2.2 2.3 2.5-2 5.6-4.9 5.4-4.9-0.1-1e-3 -1.5 1.2-3.1 2.6m7 1.4c1 1 1.9 1.9 2 1.9 0.1 0-0.64-0.83-1.6-1.9-1-1-1.9-1.9-2-1.9-0.1 0 0.64 0.83 1.6 1.9m3.5 3.8c0.91 0.97 1.7 1.8 1.8 1.8 0.28 0-0.016-0.33-1.7-1.9l-1.8-1.7 1.7 1.8m-17 0.3c-0.49 0.41-1.2 0.89-1.5 1.1-0.62 0.34 0.24 1.6 3.6 5.2 0.86 0.92 0.39 0.25-1-1.5l-2.6-3.1 1.4-1.2c1.5-1.3 1.6-1.7 0.11-0.45m21 3.8c0.91 0.97 1.7 1.8 1.8 1.8 0.28 0-0.016-0.33-1.7-1.9l-1.8-1.7 1.7 1.8m4.5 4.9c0.69 0.71 1.3 1.3 1.4 1.3 0.1 0-0.38-0.58-1.1-1.3s-1.3-1.3-1.4-1.3 0.38 0.58 1.1 1.3m-19 3.3c0.82 1 2.1 2.5 2.8 3.3 1.3 1.4 1.3 1.4-0.12-0.37-0.82-1-2.1-2.5-2.8-3.3-1.3-1.4-1.3-1.4 0.12 0.37m22 0.72c1.3 1.3 2.5 2.4 2.6 2.4 0.31 0-3.8-4.4-4.4-4.6-0.31-0.14 0.52 0.84 1.8 2.2m5.5 6.1c1.4 1.6 2.9 3.1 3.3 3.4 0.36 0.28-0.74-1-2.5-2.9-1.7-1.9-3.2-3.4-3.3-3.4s1 1.3 2.5 2.9m-20 3c1.1 1.2 2 2.2 2.1 2.2s-0.68-1-1.7-2.2c-1.1-1.2-2-2.2-2.1-2.2s0.68 1 1.7 2.2m27 5.1c2 2.2 4.1 4.3 4.6 4.7 0.48 0.41-1.1-1.4-3.5-4-2.4-2.6-4.5-4.7-4.6-4.7s1.5 1.8 3.5 4m-20 3.5c0.99 1.2 1.9 2.1 2 2.1 0.25 0-2.8-3.6-3.4-4-0.24-0.14 0.38 0.69 1.4 1.9m27 4.5c1.3 1.3 2.5 2.4 2.6 2.4s-0.89-1.1-2.2-2.4c-1.3-1.3-2.5-2.4-2.6-2.4s0.89 1.1 2.2 2.4m-20 3.9c1.1 1.2 2 2.2 2.1 2.2s-0.68-1-1.7-2.2c-1.1-1.2-2-2.2-2.1-2.2s0.68 1 1.7 2.2m25 0.74c1 1 1.9 1.9 2 1.9 0.1 0-0.64-0.83-1.6-1.9-1-1-1.9-1.9-2-1.9-0.1 0 0.64 0.83 1.6 1.9m3.9 4.3c1.1 1.1 2.1 2 2.2 2s-0.72-0.92-1.8-2c-1.1-1.1-2.1-2-2.2-2s0.72 0.92 1.8 2m-21 3.5c0.85 1 1.7 2 2 2.1 0.24 0.15-0.38-0.69-1.4-1.8s-1.9-2.1-2-2.1 0.52 0.83 1.4 1.9m29 4.7c1.5 1.7 2.8 3.1 2.9 3.1 0.27 0-2.8-3.5-4.2-4.8-0.77-0.71-0.17 0.079 1.3 1.8m-23 2.7c1.3 1.4 2.5 2.7 2.7 2.9 0.23 0.14-0.72-1-2.1-2.6-1.4-1.6-2.6-2.9-2.7-2.9-0.097 0 0.86 1.2 2.1 2.6m29 4.4c1 1 1.9 1.9 2 1.9s-0.64-0.83-1.6-1.9c-1-1-1.9-1.9-2-1.9s0.64 0.83 1.6 1.9m-21 4.8c0.85 1 1.7 2 2 2.1s-0.38-0.69-1.4-1.9-1.9-2.1-2-2.1 0.52 0.83 1.4 1.9m28 3c0.8 0.81 1.5 1.5 1.6 1.5s-0.47-0.67-1.3-1.5c-0.8-0.82-1.5-1.5-1.6-1.5s0.47 0.67 1.3 1.5m3.9 4.3c1.1 1.1 2.1 2 2.2 2s-0.72-0.92-1.8-2c-1.1-1.1-2.1-2-2.2-2-0.1 0 0.72 0.92 1.8 2m-24 2.1c0.99 1.2 1.9 2.1 2 2.1 0.25 0-2.8-3.6-3.4-4-0.24-0.14 0.38 0.69 1.4 1.9m28 1.9c0.9 0.92 1.7 1.7 1.8 1.7 0.31 0-2.7-3.3-3.1-3.3-0.2-0.019 0.38 0.72 1.3 1.6m-23 4.1c1.3 1.7 2.9 3.5 2.9 3.3-7e-3 -0.16-0.8-1.1-1.8-2.2s-1.5-1.5-1.2-1.1m28 1.8c1.4 1.6 2.6 2.9 2.7 2.9 0.24 0-4.3-5.1-4.8-5.4-0.23-0.14 0.72 1 2.1 2.6m-20 7.8c1.2 1.5 2.6 3 3.1 3.4 0.44 0.38-0.5-0.84-2.1-2.7s-3-3.4-3.1-3.4c-0.089 0 0.85 1.2 2.1 2.7m27 0.42c0.69 0.71 1.3 1.3 1.4 1.3s-0.38-0.58-1.1-1.3-1.3-1.3-1.4-1.3 0.38 0.58 1.1 1.3m-22 5.6c0.82 0.97 2.3 2.7 3.4 3.8 1.1 1.1 0.46 0.33-1.3-1.8-1.8-2.1-3.3-3.8-3.4-3.8-0.088 0 0.51 0.79 1.3 1.8m42 4.8c-0.15 0.15-0.27 0.53-0.27 0.84 0 0.42 0.11 0.46 0.41 0.16 0.23-0.23 0.35-0.6 0.27-0.84s-0.26-0.3-0.41-0.16m-35 3.4c1.1 1.3 2.1 2.3 2.1 2.3 0.25 0-2.1-2.8-3.1-3.7-0.57-0.51-0.13 0.12 0.97 1.4m17 3.8c-2.3 1.9-7.7 2.3-11 0.69-0.78-0.4-1.4-0.64-1.4-0.54 0 0.51 3.1 1.7 5.1 1.9 2.7 0.3 5.9-0.49 7.4-1.9 1.2-1.1 1-1.2-0.22-0.18" fill="#5f181b"/>
<path d="m75 150c0 1.5 0.066 2.2 0.15 1.4 0.08-0.76 0.08-2 0-2.8s-0.15-0.14-0.15 1.4m22 54c0.69 0.71 1.3 1.3 1.4 1.3 0.1 0-0.38-0.58-1.1-1.3s-1.3-1.3-1.4-1.3 0.38 0.58 1.1 1.3m121-0.093-1.1 1.2 1.2-1.1c1.1-1 1.4-1.3 1.1-1.3-0.063 0-0.6 0.54-1.2 1.2m8.9 12-1.5 1.6 1.6-1.5c1.5-1.4 1.7-1.7 1.5-1.7-0.06 0-0.77 0.71-1.6 1.6" fill="#054960"/>
<path d="m192 83c0.32 0.32 3.6 1.6 3.6 1.4 0-0.23-2.9-1.6-3.4-1.6-0.25 0-0.33 0.12-0.18 0.26m-43 2.2-1.1 0.52 1.1-0.23c1.1-0.24 1.5-0.44 1.3-0.67-0.085-0.073-0.65 0.1-1.3 0.39m49 0.25c0 0.26 4.5 3.2 4.7 3.1 0.073-0.072-0.74-0.72-1.8-1.4-2.3-1.6-2.9-1.9-2.9-1.6m8.1 5.2c0 0.38 2.4 2.7 3.1 2.9 0.98 0.37 0.81 0.15-1.2-1.5-1-0.86-1.9-1.5-1.9-1.4m-72 1.7-0.93 0.78 1.1-0.64c0.88-0.53 1.1-0.55 1.4-0.14 0.25 0.39 0.32 0.36 0.32-0.15 7e-3 -0.86-0.71-0.81-1.8 0.14m80 5.7c0.4 0.3 0.57 0.71 0.41 0.97-0.16 0.26-0.12 0.36 0.092 0.22 0.4-0.25 1.8 1.2 2.9 2.8 0.36 0.57 0.74 0.95 0.84 0.84 0.28-0.28-4-5.4-4.5-5.4-0.25 6e-3 -0.14 0.24 0.24 0.53m-35 5.6c3e-3 0.39 0.18 0.96 0.38 1.3 0.27 0.41 0.31 0.26 0.13-0.56-0.3-1.4-0.52-1.7-0.51-0.71m41 0.74c0.44 0.63 1.1 1.4 1.5 1.7 0.49 0.39 0.45 0.24-0.15-0.62-0.44-0.63-1.1-1.4-1.5-1.7-0.49-0.39-0.45-0.23 0.15 0.62m4.2 5.9c0.46 0.81 0.99 1.6 1.2 1.9 0.56 0.58-0.71-1.8-1.4-2.6-0.34-0.41-0.24-0.074 0.22 0.74m1.5 2.6c-3e-3 0.23 0.34 0.82 0.76 1.3 0.6 0.69 0.68 0.72 0.38 0.13-0.64-1.3-1.1-1.9-1.1-1.4m3.5 7c0.034 0.64 0.18 1.1 0.32 1 0.14-0.086 0.51 0.64 0.83 1.6 0.35 1.1 0.51 1.3 0.42 0.66-0.26-1.9-1.6-4.8-1.6-3.3m2.8 8.2c0 0.22 0.24 1.4 0.52 2.6 0.29 1.2 0.63 2.6 0.76 3.2 0.13 0.58 0.3 1 0.38 0.91 0.18-0.18-1.2-6.6-1.5-6.9-0.1-0.1-0.19-7e-3 -0.19 0.21m-132 18c4e-3 0.82 0.08 1.1 0.17 0.64 0.089-0.46 0.086-1.1-7e-3 -1.5s-0.16 0.023-0.16 0.84m131 23c-1.6 4.7-1.6 4.7-1.1 4 0.49-0.69 2.8-7.4 2.6-7.6-0.078-0.077-0.72 1.5-1.4 3.6m-2.4 6c-0.8 1.9-0.69 2.1 0.21 0.42 0.41-0.78 0.66-1.5 0.56-1.6-0.1-0.1-0.45 0.43-0.77 1.2m-1.8 3.6c-0.36 0.62-0.58 1.2-0.47 1.3 0.11 0.11 0.47-0.34 0.8-0.99 0.79-1.5 0.53-1.8-0.33-0.33m-1.9 3.6c-0.51 1-1.1 1.9-1.3 2.1-0.21 0.13-0.37 0.43-0.36 0.68 6e-3 0.24 0.27 0.11 0.58-0.3 0.73-0.94 2.4-4.3 2.2-4.3-0.1 0-0.6 0.82-1.1 1.8m-3.3 4.8c-0.28 0.41-0.64 0.61-0.79 0.46-0.15-0.15-0.23-0.11-0.17 0.095s-0.11 0.79-0.37 1.3c-0.55 1.1 1.1-0.7 1.8-1.9 0.52-0.89 0.14-0.82-0.49 0.09m-3.9 5.1c-0.67 0.92-1.1 1.6-0.86 1.5 0.6-0.37 2.7-3.2 2.4-3.2-0.17 0.012-0.86 0.78-1.5 1.7m-2 2.2c0.11 0.3 0.039 0.54-0.16 0.54-0.2 0-0.48 0.29-0.62 0.64-0.18 0.46 0.013 0.4 0.7-0.25 1.1-1 1.1-0.99 0.41-1.3-0.36-0.14-0.47-0.028-0.33 0.33m-5.8 5.9c-0.27 0.32-1.5 1.3-2.8 2.3-1.3 0.92-2.3 1.8-2.2 1.9 0.19 0.19 5.2-3.7 5.6-4.3 0.36-0.59-0.04-0.44-0.58 0.22m-8.5 6.5c-0.51 0.42-2 1.3-3.3 2-1.3 0.67-2.7 1.5-3.1 1.8-1 0.84 5.7-2.8 7.1-3.8 0.6-0.45 0.92-0.82 0.71-0.82-0.2 1e-3 -0.79 0.35-1.3 0.77m-11 6.3c-2.7 1.2-8.6 3.2-8.9 3-0.18-0.11-0.58 0.065-0.9 0.38-0.84 0.84-0.33 0.74 4.5-0.92 4.2-1.4 7.2-2.8 7.2-3.1 0-0.22 0.15-0.27-1.9 0.65m-18 5.5-0.74 0.32h0.74c0.41 0 1.1-0.14 1.5-0.32l0.74-0.32h-0.74c-0.41 0-1.1 0.14-1.5 0.32m-19 0.94c-0.86 0.48-0.78 0.51 1.3 0.47 1.2-0.024 1.7-0.12 1.1-0.21-0.61-0.089-1.2-0.3-1.3-0.47-0.1-0.17-0.6-0.076-1.1 0.2m6.6 0.19c-0.81 0.5-0.084 0.82 1 0.45 0.95-0.32 0.97-0.36 0.25-0.55-0.43-0.11-1-0.067-1.3 0.1" fill="#f93ca4"/>
<path d="m153 51c0.46 0.088 1.1 0.085 1.5-8e-3 0.35-0.092-0.023-0.16-0.84-0.16-0.82 4e-3 -1.1 0.08-0.64 0.17m65 37c0 0.063 0.54 0.6 1.2 1.2l1.2 1.1-1.1-1.2c-1-1.1-1.3-1.4-1.3-1.1m-122 6.6-1.1 1.2 1.2-1.1c1.1-1 1.4-1.3 1.1-1.3-0.064 0-0.61 0.54-1.2 1.2m160 44c0 0.71 0.076 1 0.17 0.65 0.093-0.36 0.093-0.94 0-1.3-0.093-0.36-0.17-0.064-0.17 0.65m-181 2.2c0 0.71 0.076 1 0.17 0.65 0.094-0.36 0.094-0.94 0-1.3-0.093-0.36-0.17-0.065-0.17 0.65m-15 7.4c0 3.8 0.055 5.3 0.12 3.4 0.067-1.9 0.067-5 0-6.9-0.068-1.9-0.12-0.34-0.12 3.4m15-3.7c0 0.71 0.076 1 0.17 0.65 0.093-0.36 0.093-0.94 0-1.3-0.093-0.36-0.17-0.065-0.17 0.65m0.029 9.8c2e-3 1.2 0.071 1.7 0.15 1 0.083-0.67 0.081-1.7-4e-3 -2.2-0.084-0.56-0.15-0.012-0.15 1.2m81 75c0.36 0.093 0.94 0.093 1.3 0 0.36-0.094 0.065-0.17-0.65-0.17s-1 0.076-0.65 0.17m3 0.01c0.56 0.084 1.5 0.084 2 0 0.56-0.085 0.1-0.16-1-0.16-1.1 0-1.6 0.07-1 0.16m-5.7 15c0.66 0.082 1.7 0.082 2.4 0s0.12-0.15-1.2-0.15-1.9 0.067-1.2 0.15" fill="#046c78"/>
<path d="m227 76c1.1 1.1 2.1 2 2.2 2 0.1 0-0.72-0.92-1.8-2s-2.1-2-2.2-2 0.72 0.92 1.8 2m-133-0.46-1.1 1.2 1.2-1.1c1.1-1 1.4-1.3 1.1-1.3-0.064 0-0.6 0.54-1.2 1.2m-3.3 3-1.1 1.2 1.2-1.1c1.1-1 1.4-1.3 1.1-1.3-0.064 0-0.61 0.54-1.2 1.2m141 1.8c1 1 1.9 1.9 2 1.9s-0.64-0.83-1.6-1.9c-1-1-1.9-1.9-2-1.9s0.64 0.83 1.6 1.9m-148 6-1.1 1.2 1.2-1.1c1.1-1 1.4-1.3 1.1-1.3-0.064 0-0.6 0.54-1.2 1.2m132-1.1c0 0.056 1.3 1.3 2.9 2.9l2.9 2.8-2.8-2.9c-2.6-2.7-3-3-3-2.8m-114 3.7-1.1 1.2 1.2-1.1c1.1-1 1.4-1.3 1.1-1.3-0.064 0-0.6 0.54-1.2 1.2m140 52c2e-3 1.4 0.069 2 0.15 1.2 0.08-0.77 0.079-1.9-3e-3 -2.6-0.082-0.66-0.15-0.029-0.15 1.4m-0.028 5.2c4e-3 0.82 0.08 1.1 0.17 0.64 0.089-0.46 0.086-1.1-7e-3 -1.5-0.093-0.35-0.16 0.023-0.16 0.84m0.017 3.9c0 1.1 0.07 1.6 0.16 1 0.085-0.56 0.085-1.5 0-2-0.085-0.56-0.16-0.1-0.16 1m-0.4 4.4c0 0.71 0.076 1 0.17 0.65 0.094-0.36 0.094-0.94 0-1.3-0.093-0.36-0.17-0.065-0.17 0.65m-147 46c0.69 0.71 1.3 1.3 1.4 1.3s-0.38-0.58-1.1-1.3-1.3-1.3-1.4-1.3 0.38 0.58 1.1 1.3m136 11c-0.9 0.92-1.6 1.7-1.5 1.7 0.1 0 0.92-0.75 1.8-1.7 0.9-0.92 1.6-1.7 1.5-1.7s-0.92 0.75-1.8 1.7m-141 5c1.2 1.2 2.3 2.2 2.4 2.2s-0.8-1-2-2.2c-1.2-1.2-2.3-2.2-2.4-2.2s0.8 1 2 2.2m136 0.83-1.1 1.2 1.2-1.1c0.66-0.6 1.2-1.1 1.2-1.2 0-0.29-0.31-0.034-1.3 1.1m-76 26c0.56 0.085 1.5 0.085 2 0 0.56-0.085 0.1-0.15-1-0.15s-1.6 0.069-1 0.15m15 1e-3c0.56 0.085 1.4 0.083 1.9-5e-3 0.46-0.088-5e-3 -0.16-1-0.16-1 3e-3 -1.4 0.075-0.83 0.16m-6.5 0.37c0.66 0.082 1.7 0.081 2.2-4e-3 0.56-0.084 0.012-0.15-1.2-0.15-1.2 2e-3 -1.7 0.071-1 0.15" fill="#08343c"/>
</g>
</svg>
