<svg width="400" height="400" version="1.1" viewBox="0 0 400 400" xmlns="http://www.w3.org/2000/svg">
<g fill-rule="evenodd">
<path d="m140 53c-3.3 3-9.5 8.6-14 13-4.2 3.9-10 9.2-13 12-9.1 8.4-23 21-28 26-2.7 2.4-6.1 5.4-7.4 6.7-1.3 1.2-4.9 4.5-8 7.2-8.3 7.5-11 10-11 10 0.12 0.18 5.6 5.1 12 11 6.6 5.9 15 14 19 17 10 9.5 16 15 20 18 11 10 19 18 26 23 3.3 3 7.1 6.5 8.5 7.8l2.5 2.2-0.13-22-0.13-22 0.89-1.4c1.5-2.4 2.7-2.7 12-3 8.8-0.26 12-0.58 10-0.93-1.4-0.22-2-1.1-0.82-1.1 1 0 1.1-0.13 1.3-3.3 0.17-2 0.1-2.8-0.24-3-0.36-0.23-0.36-0.3 0.041-0.3 0.43-5e-3 0.43-0.1 0-0.63-0.39-0.48-0.39-0.56-0.025-0.34 0.39 0.23 0.47-0.53 0.42-3.9-0.045-2.8 0.072-4.2 0.36-4.4 0.27-0.17 0.37-0.93 0.26-2.1-0.12-1.3 1e-3 -2.1 0.4-2.7 0.47-0.73 0.48-0.93 0.072-1.2-0.4-0.24-0.4-0.4-0.039-0.77 0.25-0.25 0.46-0.77 0.46-1.1s0.34-1.3 0.75-2.1c0.44-0.86 0.66-1.8 0.54-2.3-0.12-0.46 0.046-1.3 0.36-1.9 0.32-0.6 0.58-1.3 0.58-1.6s0.35-0.98 0.77-1.6l0.77-1.1h-0.84c-0.67 0-0.75-0.093-0.38-0.46 0.26-0.26 0.66-0.46 0.9-0.46s0.54-0.58 0.65-1.3 0.66-2 1.2-2.9c0.55-0.86 1-2.1 1-2.7 0-0.84 0.2-1.2 0.74-1.3 0.8-0.21 0.96-0.67 0.37-1-0.63-0.39-0.41-0.91 0.65-1.6 1.1-0.67 1.2-1 1.3-2.8 0.016-0.59 0.24-1 0.52-1 0.59 0 1.3-1.2 1.3-2.2 0-0.41 0.33-0.93 0.74-1.1s0.72-0.52 0.7-0.66c-0.17-1.1 0.13-2.3 0.56-2.3 0.43 0 1.5-2.3 1.8-4 0.057-0.27 0.26-0.6 0.46-0.74 0.72-0.5 0.3-1.3-0.89-1.7-0.67-0.23-1.1-0.49-1-0.59s-0.73-0.12-1.8-0.049c-1.2 0.074-2.2-0.052-2.5-0.3-0.28-0.23-1.2-0.41-2.1-0.39-0.88 0.018-7.5-0.08-15-0.22-19-0.37-17 2.3-18-25l-0.19-20-6 5.5" fill="#7f12ef"/>
<path d="m256 114c-0.13 0.21-0.13 0.54-4e-3 0.75 0.13 0.21-0.19 0.37-0.74 0.37-0.53 0-0.88 0.15-0.76 0.34s-0.033 0.58-0.33 0.88c-0.3 0.3-0.44 0.64-0.31 0.77 0.22 0.22-0.42 0.36-1.2 0.27-0.38-0.044-1.6 2.6-1.8 3.9-0.044 0.3-0.53 1-1.1 1.6s-1 1.3-1 1.6c0 1-1.1 3.3-1.6 3.2-0.28-0.055-0.51 0.42-0.58 1.2-0.066 0.7-0.36 1.5-0.64 1.7-0.29 0.22-0.82 1.3-1.2 2.3s-1.2 2.5-1.8 3.2c-0.63 0.69-1.3 1.7-1.4 2.3-0.22 0.86-1.3 2.6-3.1 4.8-1.1 1.4-1.9 2.8-1.9 3.2 0 0.78-1.5 5.6-1.9 6-0.18 0.19-0.32 0.63-0.32 0.97 0 0.61-1.2 3.6-2.6 6.5-0.4 0.82-0.73 1.7-0.73 1.9 1e-3 0.25-0.23 0.46-0.52 0.46-0.33 0-0.62 0.59-0.78 1.6-0.28 1.7-1 3.4-1.9 4.4-0.36 0.41-0.41 0.65-0.14 0.65 0.24 0 0.43 0.17 0.43 0.37 0 0.2-0.26 0.37-0.58 0.37-0.4 0-0.51 0.22-0.36 0.71 0.15 0.48 0.031 0.75-0.37 0.83-0.33 0.068 0.69 0.78 2.3 1.6 36 18 55 45 55 76 0 38-28 71-76 90-13 4.9-37 9.8-48 9.8-3.2 0-3.6 0.18-3.6 1.7 0 2.1 1.9 2.6 13 3.2 52 2.9 105-20 133-58 35-48 33-106-6.1-149-8.5-9.6-25-23-34-28-1.4-0.74-3.6-1.9-4.8-2.6-1.4-0.76-2.4-1.1-2.5-0.88m-16 25c-0.12 0.31-0.13 0.66-0.013 0.78 0.32 0.32 1-0.23 1-0.82 0-0.71-0.71-0.68-0.98 0.038" fill="#f78427"/>
<path d="m183 93c3.8 0.46 5.3 1.3 3.9 2.3-0.19 0.14-0.39 0.47-0.45 0.74-0.37 1.7-1.4 4-1.8 4-0.43 0-0.72 1.2-0.56 2.3 0.022 0.15-0.29 0.44-0.7 0.66s-0.74 0.73-0.74 1.1c0 1-0.66 2.2-1.3 2.2-0.28 0-0.5 0.44-0.52 1-0.049 1.7-0.22 2.1-1.3 2.8-1.1 0.67-1.3 1.2-0.65 1.6 0.59 0.37 0.43 0.82-0.37 1-0.54 0.14-0.74 0.5-0.74 1.3 0 0.63-0.45 1.9-1 2.7-0.55 0.86-1.1 2.2-1.2 2.9-0.13 0.71-0.41 1.3-0.64 1.2-0.22-0.044-0.61 0.16-0.86 0.46-0.37 0.45-0.31 0.54 0.36 0.54h0.81l-0.77 1.1c-0.42 0.59-0.77 1.3-0.77 1.6s-0.26 0.99-0.58 1.6c-0.32 0.6-0.48 1.5-0.36 1.9 0.12 0.5-0.095 1.4-0.54 2.3-0.41 0.81-0.75 1.8-0.75 2.1s-0.21 0.89-0.46 1.1c-0.37 0.37-0.36 0.52 0.039 0.77 0.41 0.26 0.4 0.46-0.072 1.2-0.4 0.61-0.52 1.4-0.4 2.7 0.11 1.2 0.018 1.9-0.26 2.1-0.29 0.18-0.41 1.6-0.36 4.4 0.053 3.3-0.03 4.1-0.42 3.9-0.37-0.22-0.36-0.14 0.025 0.34 0.43 0.53 0.43 0.63 0 0.63-0.4 5e-3 -0.41 0.071-0.041 0.3 0.34 0.22 0.41 1 0.24 3-0.26 3.2-0.31 3.3-1.3 3.3-1.2 0-0.57 0.9 0.82 1.2 1.8 0.32 1.3 0.39-5 0.68l-5.6 0.26 4.6 0.071c21 0.32 41 4.4 59 12 5.1 2.1 6.4 2.6 4.3 1.4-0.76-0.42-0.85-0.56-0.35-0.57 0.5-0.011 0.61-0.2 0.44-0.76-0.17-0.53-0.066-0.74 0.35-0.74 0.32 0 0.58-0.17 0.58-0.37 0-0.2-0.19-0.37-0.43-0.37-0.27 0-0.22-0.24 0.14-0.65 0.91-1 1.7-2.8 1.9-4.4 0.16-0.99 0.46-1.6 0.78-1.6 0.29 0 0.52-0.21 0.52-0.46 0-0.26 0.33-1.1 0.73-1.9 1.4-2.9 2.6-5.8 2.6-6.5 0-0.34 0.15-0.78 0.32-0.97 0.38-0.41 1.9-5.2 1.9-6 0-0.45 0.83-1.8 1.9-3.2 1.8-2.2 2.9-4 3.1-4.8 0.14-0.58 0.78-1.6 1.4-2.3 0.63-0.69 1.4-2.1 1.8-3.2s0.89-2.1 1.2-2.3c0.29-0.21 0.58-0.96 0.64-1.7 0.074-0.77 0.3-1.2 0.58-1.2 0.47 0.094 1.6-2.1 1.6-3.2 0-0.32 0.45-1.1 1-1.6s1-1.3 1.1-1.6c0.19-1.3 1.4-3.9 1.8-3.9 0.82 0.096 1.5-0.044 1.2-0.27-0.13-0.13 0.015-0.47 0.31-0.77 0.3-0.3 0.45-0.7 0.33-0.88s0.23-0.34 0.76-0.34c0.55 0 0.87-0.16 0.74-0.37-0.88-1.4 3.2-0.02 5.7 2 0.26 0.21 0.55 0.3 0.64 0.21 0.25-0.25-6.3-3.9-12-6.9-19-9.4-46-17-65-18-3-0.15-3.2-0.12-1.3 0.11m57 47c0 0.59-0.67 1.1-1 0.82-0.3-0.3 0.17-1.4 0.62-1.4 0.21 0 0.38 0.24 0.38 0.53m-75 33c0.56 0.085 1.4 0.083 1.9-5e-3 0.46-0.088-5e-3 -0.16-1-0.15-1 2e-3 -1.4 0.074-0.83 0.16m85 32c1 1 1.9 1.9 2 1.9 0.1 0-0.64-0.83-1.6-1.9-1-1-1.9-1.9-2-1.9-0.1 0 0.64 0.83 1.6 1.9m54 108-1.1 1.2 1.2-1.1c0.66-0.6 1.2-1.1 1.2-1.2 0-0.29-0.31-0.034-1.3 1.1" fill="#c72ba5"/>
<path d="m148 31c-0.11 0.11-0.61 0.28-1.1 0.38-2.3 0.44-8.4 4.3-6.8 4.3 0.16 0-0.36 0.48-1.2 1.1-0.79 0.59-2.3 1.9-3.4 3-1.1 1-2 1.9-2.2 1.9s-1.2 0.96-2.3 2.1c-2.5 2.4-5.2 4.9-5.2 4.6 0-0.1-1.2 1.1-2.7 2.7-1.5 1.6-2.9 2.8-3.1 2.8s-1.5 1.1-2.8 2.5c-3.6 3.7-5.5 5.5-5.8 5.4-0.17-0.044-1.1 0.83-2.1 1.9-0.97 1.1-2 2-2.2 2s-1.5 1.1-2.8 2.5c-1.3 1.4-2.5 2.5-2.7 2.5-0.15 2e-3 -0.3 0.17-0.33 0.38-0.027 0.2-0.59 0.74-1.2 1.2-0.66 0.45-1.3 1.1-1.4 1.4-0.12 0.32-0.44 0.57-0.7 0.57s-1.2 0.75-2 1.7c-0.86 0.92-1.6 1.6-1.6 1.4 0-0.22-2.2 1.8-8.1 7.6-1.3 1.3-2.5 2.3-2.7 2.3s-0.87 0.67-1.6 1.5c-0.74 0.81-1.5 1.5-1.7 1.5s-1.1 0.83-2 1.9c-0.93 1-1.8 1.9-2 1.9s-1.4 1.2-2.8 2.6-2.5 2.5-2.6 2.4c-0.086-0.086-0.66 0.38-1.3 1s-2.2 2.1-3.6 3.2c-1.3 1.1-2.4 2.3-2.5 2.5-0.012 0.26-0.23 0.43-0.48 0.37-0.26-0.058-1.4 0.81-2.5 1.9-1.1 1.1-3.7 3.5-5.7 5.4-9.4 8.6-11 11-11 14 0 1.9 0.74 4.7 1.3 5.2 0.28 0.22 0.43 0.48 0.33 0.58-0.092 0.092 0.99 1.3 2.4 2.7s2.6 2.4 2.6 2.3c0-0.14 0.69 0.49 1.5 1.4 0.84 0.91 1.7 1.7 1.9 1.7 0.19 0 1.2 0.88 2.2 1.9 1 1.1 1.8 1.8 1.8 1.6 2e-3 -0.17 0.78 0.53 1.7 1.6 0.96 1 1.9 1.9 2.2 1.9s1 0.75 1.8 1.7 1.5 1.6 1.7 1.5 1.1 0.83 2.2 2c1.1 1.2 2.2 2.2 2.4 2.2s1.3 0.92 2.2 2c0.96 1.1 1.8 2 1.9 1.9 0.15-0.15 3.2 2.6 6 5.4 0.87 0.88 1.7 1.6 1.9 1.6 0.31 0.014 2.4 1.9 5.5 5 1.1 1.1 2.2 2 2.4 2 0.35 0 1 0.64 5.2 4.8 1.3 1.3 2.6 2.4 2.7 2.4 0.31 0 3.2 2.6 6.3 5.8 1.2 1.2 2.8 2.7 3.5 3.2s2.6 2.2 4.2 3.8 3 2.8 3.2 2.8 1.2 0.91 2.2 2c1.1 1.1 2.2 2.1 2.6 2.2 0.38 0.12 0.68 0.45 0.68 0.73s0.19 0.63 0.43 0.77c0.29 0.18 0.33 0.095 0.12-0.26-0.17-0.29 0.67 0.52 1.9 1.8s2.3 2.3 2.4 2.3 1.2 0.96 2.5 2.1c4.7 4.5 5.9 5.6 6.3 5.6 0.23 0 1 0.74 1.8 1.7 0.75 0.91 1.5 1.6 1.6 1.6 0.15-0.044 1.2 0.88 2.2 2 1.1 1.2 2.2 2.1 2.5 2.1s0.68 0.34 0.9 0.75 0.56 0.65 0.75 0.53c0.19-0.12 0.35-0.033 0.35 0.19 0 0.82 3.1 1.8 5.6 1.8 2.5 8e-3 4.8-0.54 4.8-1.2 0-0.2 0.15-0.26 0.33-0.15 0.18 0.11 0.44-0.068 0.56-0.4 0.13-0.33 0.32-0.52 0.42-0.42 0.23 0.24 3.9-3.3 3.9-3.8 0-0.19-0.014-0.46-0.032-0.59-0.017-0.13 0.18-0.37 0.45-0.53 0.38-0.24 0.46-4.7 0.37-22l-0.1-22 3.6-0.093c2-0.051 4.3-0.2 5.1-0.32 1-0.16 1.4-0.1 1.2 0.19-0.14 0.23-0.37 0.35-0.51 0.27-0.14-0.08-0.59 0-0.99 0.18-0.47 0.2 0.58 0.28 2.9 0.22 2-0.06 3.6-0.012 3.6 0.11 0 0.2 7.5 1.2 10 1.3 0.71 0.042 1.6 0.19 1.9 0.32 0.34 0.14 0.84 0.21 1.1 0.17 0.28-0.045 0.75 0.025 1.1 0.16s2.2 0.58 4.3 0.99 4 0.82 4.3 0.9c0.3 0.079 1.4 0.35 2.4 0.6 1 0.25 2.3 0.68 2.8 0.94 0.54 0.27 1.1 0.38 1.2 0.25 0.13-0.13 0.23-0.026 0.23 0.22 0 0.3 0.28 0.37 0.79 0.21 0.58-0.18 0.71-0.13 0.5 0.22-0.21 0.34-0.072 0.41 0.51 0.26 0.44-0.11 0.8-0.043 0.8 0.16 0 0.2 0.21 0.3 0.46 0.21 0.25-0.085 0.7 0.081 0.98 0.37 0.29 0.29 0.83 0.44 1.2 0.34s0.59-0.028 0.48 0.16c-0.12 0.18 0.094 0.36 0.46 0.39 1.1 0.089 1.3 0.17 2.8 0.81 0.76 0.34 1.6 0.61 1.8 0.61s0.68 0.14 1 0.32c0.35 0.17 1.2 0.56 1.9 0.86s2.3 1 3.5 1.6c1.2 0.6 2.4 1 2.7 0.97s0.4 0.06 0.26 0.28c-0.15 0.24-0.016 0.3 0.33 0.17 0.32-0.12 0.57-0.036 0.57 0.19 0 0.23 0.32 0.41 0.72 0.41 0.4 0 0.86 0.23 1 0.5 0.33 0.55 2 1.5 2 1.2 0-0.12 0.26 0.038 0.58 0.36s0.74 0.49 0.93 0.38c0.19-0.12 0.34-0.046 0.34 0.16s0.67 0.66 1.5 1c0.82 0.36 1.5 0.8 1.5 0.98s0.15 0.23 0.32 0.12c0.18-0.11 0.76 0.24 1.3 0.77s0.97 0.83 0.97 0.66c0-0.17 0.24 0.017 0.54 0.41 0.3 0.4 0.55 0.6 0.56 0.46 6e-3 -0.14 0.45 0.15 0.99 0.65 0.54 0.5 1.2 0.91 1.4 0.91s0.57 0.27 0.7 0.61c0.13 0.34 0.34 0.51 0.46 0.38s1 0.43 2 1.2c0.97 0.81 1.9 1.5 2.1 1.5 0.18 7e-3 0.78 0.68 1.3 1.5 0.56 0.82 1.2 1.4 1.4 1.2s1.3 0.74 2.4 1.9c1.1 1.2 2.4 2.6 2.8 3.1 0.47 0.49 0.6 0.76 0.29 0.61-0.3-0.16-0.12 0.11 0.42 0.59 0.54 0.48 1.1 1.2 1.2 1.5 0.12 0.36 0.43 0.66 0.69 0.66 0.5 0.018 4 5.1 4 5.8 0 0.22 0.26 0.51 0.58 0.63 0.32 0.12 0.49 0.36 0.39 0.53s0.14 0.59 0.55 0.94c0.41 0.35 0.64 0.79 0.52 0.99-0.12 0.2-0.047 0.36 0.17 0.36s0.37 0.12 0.35 0.28c-0.1 0.66 0.091 1.1 0.81 1.9 0.42 0.45 0.82 1.1 0.89 1.5 0.069 0.35 0.55 1.5 1.1 2.5 0.52 1 1 2.4 1.2 3.1 0.12 0.7 0.48 1.8 0.81 2.5s0.58 1.6 0.58 2.2c0 0.51 0.14 1 0.31 1.1 0.17 0.1 0.21 0.44 0.099 0.73-0.11 0.3-0.066 0.54 0.11 0.54s0.33 0.46 0.35 1c0.078 2.3 0.64 6.4 0.85 6.2 0.12-0.077 0.23 2.4 0.23 5.5 0 3.1-0.12 5.6-0.28 5.5s-0.28 0.46-0.28 1.2c0 0.78-0.25 2.8-0.55 4.5-0.3 1.7-0.46 3.2-0.35 3.4 0.11 0.18 0.021 0.32-0.19 0.32-0.22 0-0.39 0.36-0.39 0.81 0 0.7-0.33 2-1 4-0.11 0.3-0.23 0.68-0.27 0.83s-0.11 0.32-0.15 0.37-0.13 0.38-0.2 0.72c-0.067 0.35-0.55 1.6-1.1 2.7s-0.96 2.3-0.96 2.6-0.27 0.57-0.59 0.7c-0.33 0.13-0.5 0.46-0.39 0.75s-0.056 0.62-0.37 0.74c-0.33 0.13-0.48 0.46-0.35 0.79 0.12 0.32 0.067 0.48-0.12 0.36-0.32-0.2-0.79 0.72-0.72 1.4 0.016 0.18-0.24 0.49-0.57 0.67-0.33 0.18-0.5 0.49-0.38 0.68 0.12 0.19-0.043 0.45-0.36 0.57-0.32 0.12-0.49 0.36-0.39 0.53 0.1 0.17-0.077 0.46-0.4 0.64s-0.56 0.46-0.52 0.61c0.12 0.42-3 4.6-3.6 4.8-0.29 0.11-0.44 0.35-0.32 0.54s-0.22 0.61-0.73 0.94c-0.51 0.34-0.84 0.76-0.73 0.94 0.11 0.18-0.016 0.47-0.29 0.63-0.27 0.17-0.98 0.97-1.6 1.8s-1.3 1.6-1.6 1.8c-0.31 0.18-2 1.8-3.7 3.5-3.8 3.9-5.6 5.4-6 5.3-0.16-0.05-0.56 0.32-0.9 0.83-0.33 0.51-0.76 0.82-0.96 0.7s-0.44 0.096-0.54 0.48-0.48 0.86-0.85 1.1c-2.8 1.5-3.7 2.1-3.7 2.4 0 0.2-0.23 0.36-0.52 0.36s-0.62 0.26-0.74 0.58c-0.12 0.32-0.39 0.48-0.6 0.35s-0.37-0.044-0.37 0.18-0.15 0.32-0.32 0.21-0.76 0.2-1.3 0.7-0.98 0.78-0.98 0.64c-6e-3 -0.14-0.22 8e-3 -0.46 0.33-0.25 0.33-0.83 0.71-1.3 0.86-0.46 0.14-1 0.46-1.3 0.7-0.26 0.24-1.5 0.94-2.7 1.6-1.2 0.61-2.3 1.2-2.4 1.4-0.12 0.17-0.33 0.3-0.46 0.29-0.5-0.046-1.5 0.49-2.2 1.1-0.38 0.38-0.85 0.59-1 0.47s-0.36-0.034-0.36 0.19c0 0.23-0.17 0.31-0.37 0.19-0.2-0.13-0.37-0.043-0.37 0.18 0 0.23-0.17 0.31-0.37 0.18s-0.37-0.056-0.37 0.16-0.46 0.49-1 0.62c-0.56 0.13-1.8 0.62-2.7 1.1-1.9 0.96-6.4 2.8-7 2.8-0.2 0-0.56 0.25-0.81 0.55-0.25 0.3-0.59 0.47-0.74 0.38-0.42-0.26-2.6 0.57-2.6 0.98 0 0.2-0.15 0.26-0.34 0.15s-1.6 0.28-3.1 0.88c-1.5 0.6-3.8 1.3-5.1 1.6-1.3 0.3-4.3 0.99-6.6 1.5-6.5 1.5-7 1.6-13 2.4-2 0.27-3.6 0.59-3.6 0.72 0 0.13-0.94 0.16-2.1 0.06-1.2-0.097-2-0.029-1.9 0.15 0.12 0.19-1.6 0.27-4.1 0.2-2.4-0.071-4.6 0.037-5.1 0.25-0.43 0.21-1.5 0.48-2.4 0.6s-2 0.47-2.4 0.77-1 0.54-1.4 0.54c-0.95 0-3.9 3.4-4.8 5.6-1.5 3.6-1.4 11 0.22 14 0.29 0.45 0.52 1.1 0.52 1.3s0.25 0.63 0.56 0.74c0.31 0.12 0.52 0.36 0.46 0.54-0.16 0.53 2.7 3.2 4.3 4 0.82 0.4 1.8 1 2.2 1.4 0.44 0.43 0.95 0.58 1.4 0.42 0.55-0.18 0.68-0.12 0.47 0.23-0.21 0.34-0.074 0.41 0.49 0.26 0.43-0.11 0.84-0.029 0.91 0.18 0.072 0.21 1.2 0.4 2.4 0.42 1.2 0.017 2.1 0.15 1.8 0.3s0.35 0.22 1.3 0.16 1.6 0.044 1.5 0.22c-0.11 0.18 1.1 0.25 2.9 0.15 1.8-0.1 2.8-0.045 2.6 0.14-0.29 0.18 3.5 0.32 8.8 0.32 6.4 5e-3 9.3-0.12 9.1-0.38-0.16-0.26 0.64-0.3 2.5-0.13 1.9 0.18 2.9 0.13 3-0.15 0.14-0.22 0.5-0.41 0.81-0.41 0.3 0 0.45 0.17 0.33 0.37-0.13 0.2-0.053 0.37 0.16 0.37s0.39-0.14 0.39-0.32c0-0.18 0.74-0.26 1.7-0.2s1.7-0.014 1.8-0.18c0.1-0.17 1.1-0.25 2.1-0.17 1.4 0.095 1.8 0.027 1.4-0.23-0.4-0.26-0.2-0.32 0.74-0.2 1.7 0.22 4.8-0.19 4.8-0.63 0-0.19-0.17-0.24-0.37-0.12-0.2 0.13-0.37 0.035-0.37-0.2 0-0.27 0.24-0.33 0.65-0.16 1.6 0.68 2.9 0.69 2.4 0.031-0.47-0.57-0.43-0.59 0.49-0.24 1.3 0.48 2.2 0.49 1.9 0.011-0.13-0.22 0.25-0.37 0.93-0.37 0.64 0 1.1-0.12 0.99-0.28-0.092-0.15 0.69-0.31 1.7-0.35 1-0.039 2-0.25 2-0.46s0.27-0.3 0.45-0.2c0.45 0.28 3.3-0.23 3.1-0.55-0.092-0.15 0.22-0.2 0.7-0.1 0.48 0.092 0.98-8e-3 1.1-0.22s0.47-0.3 0.75-0.2c0.28 0.11 0.61 0.024 0.74-0.18s0.45-0.3 0.72-0.19c0.62 0.24 5.8-1.2 6.2-1.7 0.12-0.2 0.6-0.3 1.1-0.21 0.52 0.099 0.74 0.012 0.58-0.23-0.16-0.25 0.036-0.3 0.55-0.14 0.46 0.14 0.79 0.089 0.79-0.13 0-0.21 0.25-0.29 0.56-0.17 0.31 0.12 0.56 0.034 0.56-0.18s0.25-0.3 0.56-0.18c0.31 0.12 0.56 0.034 0.56-0.19 0-0.22 0.25-0.3 0.56-0.18 0.31 0.12 0.56 0.019 0.56-0.22 0-0.24 0.14-0.34 0.32-0.24 0.18 0.11 0.98-0.12 1.8-0.51 0.81-0.39 1.9-0.82 2.5-0.96 0.55-0.14 0.92-0.37 0.83-0.52s0.2-0.24 0.65-0.2c0.45 0.035 1.2-0.18 1.6-0.48 0.46-0.3 0.83-0.4 0.83-0.24s0.2 0.1 0.44-0.14c0.24-0.24 0.75-0.44 1.1-0.44s0.59-0.16 0.46-0.37c-0.13-0.21 0.019-0.27 0.35-0.15 0.32 0.12 0.58 0.027 0.58-0.21 0-0.24 0.15-0.34 0.34-0.22 0.44 0.27 2.2-0.54 2.2-1 0-0.19 0.25-0.25 0.56-0.14 0.76 0.29 1.7-0.12 1.4-0.61-0.15-0.25-0.014-0.31 0.37-0.16 0.34 0.13 0.62 0.065 0.62-0.14 0-0.21 0.17-0.28 0.37-0.15 0.2 0.13 0.37 0.042 0.37-0.18 0-0.23 0.17-0.31 0.37-0.18 0.2 0.12 0.37 0.024 0.37-0.22 0-0.25 0.1-0.35 0.23-0.22s0.47-0.013 0.77-0.31c0.3-0.3 0.98-0.65 1.5-0.78 0.55-0.13 1.1-0.35 1.2-0.48 0.23-0.3 3.4-2.1 3.8-2.2 0.15-0.021 0.45-0.039 0.67-0.039 0.22 0 0.29-0.16 0.17-0.37-0.13-0.21 0.012-0.27 0.32-0.16 0.33 0.12 0.72-0.11 0.97-0.59 0.26-0.48 0.65-0.71 0.97-0.59 0.35 0.13 0.45 0.056 0.28-0.22-0.17-0.28-0.065-0.35 0.32-0.2 0.34 0.13 0.67-5e-3 0.8-0.33 0.12-0.31 0.36-0.46 0.55-0.35s0.42-1e-3 0.52-0.25c0.1-0.25 0.99-0.88 2-1.4 0.98-0.51 2.2-1.3 2.7-1.8 0.51-0.46 1.2-0.83 1.6-0.83 0.37 0 0.58-0.15 0.47-0.33-0.18-0.3 0.57-0.79 1.1-0.74 0.12 0.011 0.51-0.41 0.85-0.93 0.44-0.67 0.74-0.84 1-0.56s0.63 0.061 1.2-0.75c0.45-0.63 1.1-1.1 1.5-1.1 0.37 0 1.2-0.61 1.8-1.4s1.2-1.2 1.2-1.1 0.35-0.11 0.77-0.59 0.66-0.67 0.54-0.42c-0.16 0.31-0.034 0.38 0.37 0.23 0.33-0.13 0.76-0.64 0.95-1.1 0.24-0.62 0.54-0.84 0.93-0.69 0.39 0.15 0.65-0.026 0.78-0.52 0.11-0.41 0.4-0.74 0.66-0.74 0.26 0 1.1-0.75 1.8-1.7 0.75-0.92 1.5-1.6 1.7-1.5 0.18 0.11 0.87-0.42 1.5-1.2 2-2.2 6.3-6.3 8.9-8.3 0.56-0.44 0.93-0.94 0.82-1.1-0.26-0.42 1.1-2 2.8-3.2 0.71-0.51 0.98-0.82 0.6-0.69-0.6 0.2-0.63 0.16-0.22-0.34 0.26-0.32 0.71-0.49 1-0.38 0.28 0.11 0.42 0.048 0.31-0.14-0.11-0.18 0.25-0.69 0.81-1.1 0.56-0.44 0.8-0.68 0.52-0.54-0.35 0.18-0.32-0.02 0.12-0.68 0.34-0.52 0.87-1 1.2-1.2 0.31-0.12 0.46-0.36 0.35-0.54-0.11-0.18 0.43-0.99 1.2-1.8s1.5-1.7 1.7-2.1c0.14-0.36 0.41-0.54 0.62-0.42 0.21 0.13 0.28-7e-3 0.16-0.31-0.12-0.3 0.13-0.77 0.56-1.1 0.42-0.29 0.68-0.62 0.57-0.73-0.11-0.11 0.29-0.71 0.88-1.3 0.59-0.63 1-1.2 0.95-1.3-0.067-0.067 0.46-0.77 1.2-1.6 1.1-1.3 1.3-1.7 1.3-2.6-5e-3 -0.11 0.44-0.61 0.98-1.1 0.54-0.5 0.84-0.92 0.66-0.93-0.18-7e-3 -0.03-0.24 0.34-0.52 0.37-0.28 0.66-0.65 0.65-0.82-0.046-0.72 0.42-1.6 0.74-1.4 0.3 0.19 0.52-0.59 0.39-1.4-0.024-0.15 0.13-0.28 0.35-0.28 0.22 0 0.29-0.17 0.16-0.37s-0.057-0.37 0.15-0.37c0.34 0 1.5-1.9 1.5-2.4-7e-3 -0.11 0.4-1 0.9-2 0.5-0.99 0.81-1.9 0.68-2-0.13-0.13 0.041-0.23 0.37-0.23 0.72 0 1.5-1.3 1.1-1.9-0.15-0.24-0.095-0.32 0.13-0.18 0.44 0.27 0.95-0.75 0.63-1.3-0.12-0.18-0.046-0.34 0.15-0.34 0.52 0 1.7-3.2 1.3-3.7-0.19-0.31-0.13-0.36 0.21-0.15 0.36 0.22 0.42 0.13 0.25-0.31-0.13-0.34-0.058-0.62 0.16-0.62 0.22 0 0.3-0.26 0.18-0.57-0.14-0.37-0.071-0.48 0.2-0.31 0.29 0.18 0.36 7e-3 0.22-0.54-0.12-0.44-0.063-0.8 0.12-0.8s0.23-0.25 0.11-0.56c-0.12-0.31-0.069-0.56 0.11-0.56 0.49 0 1.3-2.2 1.1-2.8-0.14-0.36-0.065-0.47 0.21-0.3 0.29 0.18 0.36 6e-3 0.22-0.54-0.12-0.44-0.04-0.8 0.17-0.8 0.21 0 0.28-0.25 0.16-0.56-0.12-0.31-0.052-0.56 0.15-0.56 0.2 0 0.36-0.34 0.36-0.76 0-0.42 0.17-0.66 0.37-0.53 0.52 0.32 0.46-0.31-0.093-0.91-0.38-0.41-0.34-0.46 0.23-0.26 0.59 0.21 0.65 0.1 0.46-0.69-0.15-0.58-0.077-0.93 0.18-0.93 0.23 0 0.32-0.25 0.2-0.56-0.12-0.31-0.04-0.56 0.17-0.56 0.22 0 0.28-0.32 0.15-0.74-0.14-0.45-0.066-0.74 0.2-0.74 0.28 0 0.35-0.34 0.2-0.96-0.17-0.69-0.12-0.88 0.2-0.69 0.32 0.2 0.37-2e-3 0.19-0.71-0.15-0.61-0.094-0.98 0.15-0.98 0.22 0 0.29-0.17 0.16-0.39-0.13-0.21-0.038-0.63 0.21-0.92s0.47-1.5 0.5-2.6c0.026-1.1 0.19-2 0.37-2 0.18 0 0.21-0.6 0.069-1.3-0.15-0.81-0.11-1.2 0.1-1.1 0.21 0.13 0.28-0.32 0.17-1.1-0.14-1-0.065-1.3 0.28-1.1 0.35 0.22 0.41-0.078 0.26-1.3-0.12-0.92-0.057-1.5 0.16-1.5 0.22 0 0.32-0.76 0.24-1.8-0.071-1 0.017-1.7 0.19-1.6s0.26-0.99 0.17-2.4-0.019-2.6 0.14-2.6c0.16 0 0.29-3.3 0.29-7.4 0-4.2-0.14-7.3-0.33-7.2-0.18 0.11-0.24-0.85-0.13-2.2 0.12-1.5 0.05-2.4-0.17-2.4-0.22 0-0.29-0.77-0.18-1.9 0.14-1.4 0.073-1.8-0.27-1.6-0.34 0.21-0.39-0.14-0.19-1.5 0.15-1 0.12-1.7-0.068-1.6-0.18 0.11-0.35-0.81-0.36-2.1-0.019-1.4-0.2-2.3-0.46-2.4-0.24-0.078-0.34-0.29-0.23-0.47 0.25-0.4-0.85-6.3-1.2-6.6-0.15-0.11-0.31-0.87-0.36-1.7-0.05-0.82-0.25-1.5-0.44-1.6-0.19-0.064-0.26-0.36-0.15-0.65 0.11-0.29 0.035-0.53-0.17-0.53s-0.29-0.34-0.18-0.75c0.16-0.6 0.062-0.7-0.5-0.5-0.57 0.2-0.61 0.16-0.23-0.25 0.64-0.69 0.58-1.2-0.11-0.95-0.33 0.13-0.48 0.064-0.35-0.15 0.28-0.46-1.3-5.5-1.7-5.5-0.17 0-0.2-0.28-0.071-0.62 0.14-0.38 0.088-0.52-0.14-0.38-0.23 0.14-0.34-0.13-0.28-0.7 0.058-0.53-0.12-1-0.4-1.1-0.28-0.11-0.42-0.42-0.31-0.69 0.1-0.28-0.18-1-0.63-1.6-0.45-0.61-0.86-1.5-0.91-2-0.049-0.47-0.11-1.1-0.14-1.3s-0.4-0.78-0.83-1.2-0.67-0.91-0.53-1.1c0.14-0.22 0.068-0.4-0.15-0.4s-0.66-0.67-0.99-1.5-0.77-1.5-0.98-1.5c-0.22 0-0.3-0.097-0.18-0.21 0.27-0.27-1.1-3.3-1.9-4.3-0.34-0.4-0.58-0.8-0.52-0.89s-0.25-0.51-0.66-0.93c-0.42-0.42-0.66-0.92-0.53-1.1 0.12-0.2-0.027-0.46-0.33-0.57-0.33-0.12-0.46-0.46-0.33-0.8 0.15-0.39 0.078-0.5-0.21-0.32-0.4 0.24-0.61-0.21-0.47-1 0.029-0.17-0.093-0.22-0.27-0.1s-0.56-0.25-0.84-0.81c-0.74-1.5-3-4.9-3.9-5.9-0.41-0.48-0.74-1-0.74-1.2s-0.25-0.51-0.56-0.7c-0.31-0.19-0.56-0.48-0.57-0.64-9e-3 -0.16-0.71-1-1.6-1.9-0.84-0.9-1.5-1.8-1.4-1.9 0.097-0.16-0.25-0.56-0.76-0.9-0.52-0.34-0.94-0.82-0.94-1.1 0-0.25-0.54-0.91-1.2-1.5-0.66-0.55-1.2-1.1-1.2-1.3s-1.3-1.5-2.9-3c-1.6-1.5-2.8-2.8-2.7-2.9 0.27-0.27-1.7-2.3-2.2-2.3-0.24 0-1.5-1.2-2.8-2.6-1.3-1.4-2.5-2.6-2.7-2.6-0.38 0-1.7-1.2-4-3.5-0.6-0.61-1.2-1.1-1.4-1.1s-0.69-0.46-1.1-1c-0.44-0.56-0.91-0.97-1.1-0.93-0.33 0.11-4.5-3.1-4.5-3.5 0-0.16-0.23-0.28-0.52-0.28s-0.62-0.26-0.74-0.58c-0.12-0.32-0.39-0.48-0.6-0.35-0.21 0.13-0.48-0.028-0.6-0.34s-0.36-0.49-0.53-0.39-0.44-0.041-0.61-0.32c-0.17-0.28-1.3-1.1-2.5-1.8s-2.3-1.4-2.3-1.5-0.36-0.29-0.65-0.29-0.52-0.17-0.52-0.37c0-0.2-0.19-0.37-0.42-0.37s-0.66-0.29-0.95-0.65c-0.35-0.42-0.45-0.46-0.29-0.092 0.13 0.3-0.023 0.23-0.34-0.16-0.32-0.4-0.58-0.6-0.58-0.46 0 0.14-0.34-0.083-0.76-0.5-0.41-0.42-0.92-0.65-1.1-0.53-0.2 0.12-0.46-0.037-0.58-0.36-0.12-0.32-0.35-0.5-0.51-0.4-0.16 0.099-0.5-0.069-0.75-0.37-0.25-0.3-0.69-0.55-0.97-0.55-0.28 0-0.51-0.17-0.51-0.37s-0.12-0.34-0.28-0.3c-0.38 0.094-3.9-1.6-4.5-2.2-0.71-0.68-5.2-2.9-6.5-3.2-0.6-0.14-1.6-0.59-2.1-1-0.57-0.4-1.3-0.8-1.7-0.87-0.72-0.14-3.7-1.4-5.3-2.3-0.53-0.28-1.1-0.41-1.2-0.28-0.13 0.13-0.24 0.015-0.24-0.26 0-0.27-0.1-0.39-0.23-0.26-0.13 0.13-0.48-0.022-0.79-0.33-0.31-0.31-0.79-0.47-1.1-0.36s-0.51 0.053-0.51-0.12c0-0.44-4.3-2-4.8-1.7-0.2 0.12-0.42 0.089-0.49-0.076-0.12-0.28-4.3-1.8-5.8-2.1-2-0.39-6.6-1.7-6.9-2-0.71-0.55-4-1.2-4.8-0.96-0.47 0.15-0.66 0.096-0.52-0.14 0.28-0.46-2.5-0.99-3.1-0.6-0.28 0.17-0.34 0.12-0.18-0.16 0.15-0.24 0.051-0.43-0.22-0.44-0.27-4e-3 -1.8-0.25-3.4-0.55-7.8-1.4-12-2.1-20-2.9-4.7-0.51-9.4-0.96-10-1-1-0.042-2.1-0.24-2.3-0.43s-2-0.28-4-0.2c-1.9 0.084-3.4 0.02-3.3-0.14 0.1-0.16-2.2-0.29-5-0.29h-5.2v-19c0-18-0.047-19-0.7-21-0.84-2.3-2.1-4.2-2.8-4.2-0.28 0-0.64-0.23-0.81-0.52-0.82-1.4-7.4-3.3-8.3-2.3m-1 37c0.14 27-2.1 24 19 24 30 0.49 57 5.6 75 14 1.1 0.51 3.9 1.8 6.2 2.8 9.1 4.1 25 13 31 19 0.71 0.59 2.8 2.3 4.7 3.9 12 10 24 24 31 38 16 29 18 62 6.4 94-3.7 10-13 27-19 34-0.86 1-2.3 2.8-3.3 4-4.1 5.1-14 15-19 19-1.4 1.1-3.1 2.4-3.8 3-3.8 3.3-20 13-27 16-11 4.8-22 8.5-30 10-2 0.43-5.7 1.3-8.1 1.9-9.1 2.2-22 3.2-36 2.9-14-0.36-17-1-18-3.4-0.38-2.1 0.036-2.3 5.1-2.5 45-2.3 90-26 110-58 21-33 14-75-17-100-2-1.6-3.9-3.2-4.1-3.4-1.4-1.7-14-9.2-20-12-21-10-41-15-67-15-18-0.33-16-2.8-16 26 0.14 12 0.14 22 8e-3 22-0.31 0-4.3-3.5-11-9.8-2.9-2.7-9.1-8.4-14-13-4.8-4.3-10-9.3-12-11-1.8-1.7-3.9-3.5-4.6-4.1s-2.4-2.1-3.9-3.5c-1.4-1.3-4.9-4.4-7.6-6.9s-7.9-7.1-12-10c-3.6-3.2-9.3-8.4-13-11-3.4-3.1-7.3-6.6-8.6-7.8l-2.3-2.2 2.2-2c4-3.8 7.7-7.2 13-12 2.8-2.5 6.2-5.6 7.6-6.9s3.9-3.6 5.7-5.2c4.1-3.6 25-23 29-26 2.8-2.7 7.3-6.7 11-9.9 0.92-0.8 2.3-2 3-2.7 0.73-0.7 3.9-3.6 7-6.5 3.1-2.9 6.5-6 7.6-6.9s2-1.8 2.2-1.8 0.31 9.2 0.37 20" fill="#040404"/>
<path d="m263 117c0.2 0.19 1 0.73 1.9 1.2 0.81 0.46 1.1 0.56 0.74 0.22-0.83-0.69-3.2-2-2.6-1.4m-31 58c0 0.1 0.67 0.52 1.5 0.94s1.5 0.67 1.5 0.57c0-0.1-0.67-0.53-1.5-0.94-0.82-0.42-1.5-0.67-1.5-0.57m26 18c0 0.064 0.54 0.61 1.2 1.2l1.2 1.1-1.1-1.2c-1-1.1-1.3-1.4-1.3-1.1m-95 160c0.36 0.093 0.94 0.093 1.3 0 0.36-0.093 0.065-0.17-0.65-0.17s-1 0.076-0.65 0.17m32 0c0.36 0.093 0.94 0.093 1.3 0 0.36-0.093 0.065-0.17-0.65-0.17s-1 0.076-0.65 0.17m-28 0.38c0.56 0.085 1.4 0.083 1.9-5e-3 0.46-0.088-6e-3 -0.16-1-0.16-1 3e-3 -1.4 0.075-0.83 0.16m23 0c0.56 0.085 1.4 0.083 1.9-5e-3 0.46-0.088-5e-3 -0.16-1-0.16-1 3e-3 -1.4 0.075-0.83 0.16m-14 0.38c1.5 0.07 3.9 0.07 5.4 0 1.5-0.071 0.27-0.13-2.7-0.13-3 0-4.2 0.057-2.7 0.13" fill="#814f20"/>
<path d="m318 177c0 0.2 0.24 0.79 0.53 1.3s0.53 0.76 0.53 0.56c0-0.2-0.24-0.79-0.53-1.3-0.29-0.51-0.53-0.76-0.53-0.56m10 42c0 0.71 0.076 1 0.17 0.65 0.093-0.36 0.093-0.94 0-1.3-0.093-0.36-0.17-0.064-0.17 0.65m0 7.8c0 0.71 0.076 1 0.17 0.65 0.093-0.36 0.093-0.94 0-1.3-0.093-0.36-0.17-0.065-0.17 0.65m-47 44c-0.14 0.54-0.18 1.1-0.089 1.1 0.088 0.087 0.27-0.28 0.41-0.83s0.18-1.1 0.089-1.1c-0.088-0.087-0.27 0.28-0.41 0.83m-7.4 18c-0.32 0.61-0.49 1.1-0.39 1.1s0.44-0.5 0.76-1.1c0.32-0.61 0.49-1.1 0.39-1.1s-0.44 0.5-0.76 1.1m22 17-1.3 1.4 1.4-1.3c1.3-1.2 1.6-1.5 1.3-1.5-0.062 0-0.69 0.62-1.4 1.4m-36 1.1-2 2.1 2.1-2c2-1.9 2.3-2.2 2-2.2-0.058 0-1 0.96-2.1 2.1m-5.4 5.4-2.6 2.7 2.7-2.6c2.5-2.4 2.9-2.8 2.6-2.8-0.056 0-1.3 1.2-2.7 2.7m35-0.56-2 2.1 2.1-2c2-1.9 2.3-2.2 2-2.2-0.058 0-1 0.96-2.1 2.1m-31 23c-1.4 0.75-1.3 1.1 0.093 0.34 0.61-0.32 1.1-0.65 1.1-0.75 0-0.24-0.04-0.22-1.2 0.41m-89 21c0.46 0.089 1.1 0.086 1.5-7e-3 0.35-0.093-0.023-0.16-0.84-0.16s-1.1 0.08-0.64 0.17m16 4e-3c0.56 0.084 1.5 0.084 2 0 0.56-0.085 0.1-0.16-1-0.16s-1.6 0.07-1 0.16" fill="#a28610"/>
<path d="m146 48-0.9 1 2-1.8 0.026 20c0.015 12 0.17 20 0.38 21 0.31 0.64 0.33 0.62 0.16-0.19-0.1-0.51-0.19-9.8-0.19-21s-0.14-20-0.31-20-0.71 0.46-1.2 1m-5.9 5.3-3.1 3 3.2-2.9c3-2.7 3.4-3.1 3.1-3.1-0.058 0-1.5 1.3-3.2 3m-7.8 7.1c-1.5 1.4-2.3 2.3-1.7 1.9 1.1-0.75 5-4.6 4.6-4.5-0.094 0.01-1.4 1.2-2.9 2.7m-4.7 4.5-1.1 1.2 1.2-1.1c1.1-1 1.4-1.3 1.1-1.3-0.064 0-0.61 0.54-1.2 1.2m-3.1 2.7c-0.9 0.92-1.6 1.7-1.4 1.7 0.1 0 0.92-0.75 1.8-1.7 0.9-0.92 1.6-1.7 1.5-1.7s-0.92 0.75-1.8 1.7m-6.7 6.2c-2.5 2.5-2.6 2.6-0.51 0.67 4-3.6 4.1-3.7 3.9-3.7-0.12 0-1.6 1.4-3.4 3.1m-9 8.3-4.4 4.3 4.5-4.2c4-3.7 4.8-4.5 4.4-4.4-0.051 7e-3 -2.1 1.9-4.5 4.3m-9.1 8.3-4.3 4.1 4.2-3.8c3.8-3.4 4.8-4.5 4.5-4.4-0.063 6e-3 -2 1.9-4.4 4.1m49-1.2c0.29 0.49 0.94 1.1 1.4 1.4l0.9 0.54-0.82-0.69c-0.45-0.38-1.1-1-1.4-1.4-0.58-0.71-0.58-0.7-0.076 0.16m25 2.9c0.66 0.082 1.8 0.083 2.6 3e-3 0.77-0.08 0.23-0.15-1.2-0.15-1.4-1e-3 -2.1 0.064-1.4 0.15m-79 2.9c-0.28 0.34-3.4 3.2-6.9 6.3s-6.4 5.8-6.4 5.9c0 0.14 0.62-0.34 1.4-1.1 0.76-0.72 3.6-3.3 6.4-5.8 4.9-4.3 6.6-6 6.2-6-0.11 0-0.43 0.28-0.7 0.62m-18 16-3.1 3 3.1-2.7c2.7-2.4 3.7-3.3 3.4-3.3-0.063 5e-3 -1.5 1.4-3.3 3m-6.8 6.1c-1 0.9-1.7 1.7-1.6 1.8 0.1 0.1 1-0.64 2-1.7 2.2-2.3 2.1-2.4-0.36-0.17m-3.6 3.4-1.3 1.4 1.4-1.3c1.3-1.2 1.6-1.5 1.3-1.5-0.062 0-0.69 0.62-1.4 1.4m-4.7 4.3-1.9 2 2.3 2.2c2 1.9 9.8 8.9 14 12 0.76 0.67 1.4 1.1 1.4 1s-3.9-3.6-8.6-7.9l-8.6-7.7 2-2c1.1-1.1 1.9-2 1.8-2s-1.1 0.89-2.1 2m16 18c0 0.099 1.6 1.7 3.6 3.5 2 1.8 3.5 3.1 3.3 2.9-0.32-0.53-6.9-6.6-6.9-6.3m8.1 7.4c0.64 0.82 6.3 6 6.3 5.7 0-0.095-1.5-1.6-3.4-3.3-1.9-1.7-3.2-2.8-2.9-2.5m8.2 7.4c1.1 1.3 5.9 5.6 5.9 5.3 0-0.1-1.5-1.6-3.4-3.3-1.9-1.7-3-2.6-2.5-2m57 0.94c-0.84 0.38-1.7 0.91-1.8 1.2-0.16 0.26 0.36 0.072 1.2-0.42 1.4-0.88 1.7-0.91 11-1.1l9.6-0.2-9.3-0.07c-8.4-0.062-9.4-1e-3 -11 0.62m22-0.072c0.66 0.082 1.7 0.082 2.4 0s0.12-0.15-1.2-0.15-1.9 0.068-1.2 0.15m5 0.37c0.56 0.084 1.5 0.084 2 0 0.56-0.085 0.1-0.16-1-0.16-1.1 0-1.6 0.07-1 0.16m4.3 0.37c0.46 0.088 1.1 0.085 1.5-8e-3s-0.023-0.16-0.84-0.16c-0.82 4e-3 -1.1 0.08-0.64 0.17m3 0.37c0.46 0.089 1.1 0.085 1.5-8e-3 0.35-0.092-0.023-0.16-0.84-0.16-0.82 5e-3 -1.1 0.08-0.64 0.17m-37 1.6c-0.22 0.42-0.35 0.93-0.28 1.1 0.067 0.2 0.31-0.14 0.55-0.76 0.49-1.3 0.34-1.5-0.26-0.37m-0.57 12c1e-3 5.7 0.052 8 0.12 5.1 0.062-2.9 0.062-7.6-1e-3 -10-0.062-2.8-0.11-0.4-0.11 5.3m-45-8c1.2 1.3 4.6 4.3 4.6 4 0-0.096-1.3-1.3-2.9-2.7s-2.4-2-1.8-1.3m8.1 7.3c2.6 2.6 4.5 4.2 3.9 3.4-0.27-0.36-1.7-1.7-3.1-2.9-1.9-1.7-2.1-1.8-0.78-0.48m6.1 5.4c0 0.09 1.5 1.5 3.2 3.1 1.8 1.6 2.9 2.5 2.5 2.1-0.88-1-5.7-5.4-5.7-5.1m7.8 7c0 0.094 1.5 1.6 3.4 3.3 1.9 1.7 3.2 2.8 2.9 2.5-0.64-0.82-6.3-6-6.3-5.7m23 13v7.8l-2.7-2.4c-1.5-1.3-5.2-4.7-8.2-7.5s-3.9-3.5-1.9-1.5c4.4 4.2 12 11 13 12 0.2 0.073 0.34-3.2 0.34-7.9 0-4.4-0.083-8-0.18-8s-0.18 3.5-0.18 7.8" fill="#370a5d"/>
<path d="m254 112c0 0.1 0.5 0.44 1.1 0.76s1.1 0.49 1.1 0.39-0.5-0.44-1.1-0.76-1.1-0.49-1.1-0.39m50 21c0.8 0.82 1.5 1.5 1.6 1.5s-0.47-0.67-1.3-1.5c-0.8-0.82-1.5-1.5-1.6-1.5-0.1 0 0.47 0.67 1.3 1.5m-18 0.93c0.69 0.71 1.3 1.3 1.4 1.3s-0.38-0.58-1.1-1.3-1.3-1.3-1.4-1.3 0.38 0.58 1.1 1.3m8.3 8c0.8 0.82 1.5 1.5 1.6 1.5s-0.47-0.67-1.3-1.5c-0.8-0.82-1.5-1.5-1.6-1.5-0.1 0 0.47 0.67 1.3 1.5m22 30c0.32 0.61 0.66 1.1 0.76 1.1 0.1 0-0.074-0.5-0.39-1.1s-0.66-1.1-0.76-1.1 0.074 0.5 0.39 1.1m-147 0.015c-0.43 0.29-0.33 0.35 0.45 0.26 0.55-0.065 1.1-0.24 1.3-0.38 0.4-0.4-1.1-0.3-1.7 0.12m57 0.13c0.38 0.34 4.8 2.4 4.8 2.3 0-0.21-4.3-2.4-4.7-2.4-0.14 0-0.19 0.064-0.1 0.14m105 1.3c0.32 0.61 0.66 1.1 0.76 1.1s-0.073-0.5-0.39-1.1-0.66-1.1-0.76-1.1 0.073 0.5 0.39 1.1m-82 29c0.2 0.18 0.95 0.82 1.7 1.4l1.3 1.1-0.92-1.1c-0.51-0.58-1.3-1.2-1.7-1.4-0.41-0.21-0.57-0.24-0.37-0.055m35 47c1e-3 2.2 0.062 3.1 0.14 1.9s0.073-3-2e-3 -4.1c-0.074-1.1-0.14-0.098-0.13 2.1m-7.2 32c-0.42 0.82-0.67 1.5-0.57 1.5s0.52-0.67 0.94-1.5 0.67-1.5 0.57-1.5c-0.1 0-0.53 0.67-0.94 1.5m38 20c-0.44 0.61-0.71 1.1-0.61 1.1s0.54-0.5 0.98-1.1 0.71-1.1 0.61-1.1-0.54 0.5-0.98 1.1m-19 3.4-1.5 1.6 1.6-1.5c0.87-0.8 1.6-1.5 1.6-1.6 0-0.28-0.32 0-1.7 1.5m-35 0.18-1.3 1.4 1.4-1.3c1.3-1.2 1.6-1.5 1.3-1.5-0.062 0-0.69 0.62-1.4 1.4m52-0.029c-0.57 0.75-0.85 1.2-0.62 1.1 0.47-0.29 2.1-2.5 1.8-2.5-0.091 0-0.63 0.61-1.2 1.4m-4.2 5.3c-0.71 0.62-0.96 0.96-0.55 0.76 0.68-0.33 2.4-1.9 2-1.9-0.082 5e-3 -0.73 0.52-1.4 1.1m-54 1.2-1.8 1.9 1.9-1.8c1.1-1 1.9-1.9 1.9-1.9 0-0.28-0.34 0.031-2.1 1.8m36-0.56-1.3 1.4 1.4-1.3c1.3-1.2 1.6-1.5 1.3-1.5-0.062 0-0.69 0.62-1.4 1.4m1.5 16-0.9 0.98 1-0.65c0.56-0.36 1-0.8 1-0.98 0-0.5-0.17-0.41-1.1 0.65m-134 23c-0.45 0.57-0.44 0.59 0.061 0.2 0.31-0.24 1.6-0.5 3-0.58l2.4-0.13-2.5-0.071c-2-0.057-2.6 0.06-3 0.58m29 5.2c0.36 0.093 0.94 0.093 1.3 0 0.36-0.093 0.065-0.17-0.65-0.17s-1 0.076-0.65 0.17m1.2 13c0.18 0.29 2.4 0.14 2.4-0.16 0-0.079-0.59-0.14-1.3-0.14s-1.2 0.14-1.1 0.31" fill="#462a0f"/>
<path d="m261 196c0 0.064 0.54 0.61 1.2 1.2l1.2 1.1-1.1-1.2c-1-1.1-1.3-1.4-1.3-1.1" fill="#57480e"/>
</g>
</svg>
