<svg width="400" height="431" version="1.1" viewBox="0 0 400 431" xmlns="http://www.w3.org/2000/svg">
<g fill-rule="evenodd">
<path d="m234 213c-1.2 2.4-4.4 6.4-4.8 5.8-0.22-0.36-0.59 0.076-1.2 1.4l-0.86 1.9 0.86 1.2c0.77 1 0.81 1.3 0.39 2.6-0.51 1.6-0.6 5.9-0.43 20 0.062 5 0.1 9.4 0.084 9.6-0.016 0.25-0.98 1.5-2.2 2.7l-2.1 2.2-5.2 0.81c-2.9 0.45-5.7 0.99-6.3 1.2l-1 0.4 1.3 1.1c0.72 0.63 1.6 1.2 1.9 1.4 0.44 0.17 0.45 0.24 0.062 0.26-0.3 0.017-1 0.37-1.6 0.78-0.99 0.7-1.8 0.75-12 0.66-6.4-0.052-15 0.14-19 0.46-5.6 0.38-8.5 0.43-9.6 0.16-4-1.1-5.7 0.77-6.7 7.6-0.73 4.8-1.4 7.8-2.4 10-0.6 1.6-0.67 4.2-0.65 25 0.011 13-0.16 29-0.38 36-0.48 15-0.51 15 2.7 16 1.3 0.43 3 1.1 3.9 1.4 2 0.78 22 0.49 24-0.34 0.82-0.42 1.1-0.39 2 0.15 0.78 0.51 1.8 0.63 4.8 0.56 2.1-0.051 4.7-0.11 5.8-0.12 1.1-0.017 20 0.09 42 0.24 48 0.32 66-0.1 69-1.6 1.8-0.99 3.1-3.3 3.9-7 0.93-4.5 0.67-87-0.28-89-0.42-0.88-1.2-2.8-1.8-4.4-1-2.8-1.2-2.9-4-4.1-1.5-0.65-2.1-0.66-3.2-0.08-1.4 0.77-2.9 0.63-6.6-0.62-3.1-1-3.4-1.1-5.6-0.55-1.3 0.3-3.6 0.57-5.1 0.61s-4.4 0.21-6.4 0.37c-2.1 0.18-5.1 0.12-7.3-0.12-3.8-0.43-4-0.53-6.4-3-0.42-0.42-1.6-0.81-2.9-0.94-1.2-0.13-2.9-0.66-3.8-1.2-0.92-0.52-2.1-0.95-2.5-0.95-1.6 0-4.1-0.92-5.7-2.1-0.87-0.62-1.9-1.1-2.2-1.1-1.8 0-2.4-1.1-2.4-4.2 0-2.5-0.17-3.3-1.2-5.2l-1.2-2.2-0.031-9.6c-0.021-6.8-0.18-10-0.56-11-0.44-1.3-0.54-1.4-0.59-0.6-0.058 0.88-0.16 0.8-0.92-0.71-1-2-2.1-2.4-4.5-1.7-3.5 1.1-4.4 1-7.2-0.53-3.1-1.7-2.7-1.7-3.5-0.14m-55 50c0 0.22 1.1 0.4 2.6 0.4 1.6 0 2.5-0.15 2.4-0.4-0.14-0.22-1.3-0.4-2.6-0.4-1.3 0-2.4 0.18-2.4 0.4m51 77c-0.079 0.24-0.31 0.43-0.52 0.43-0.21 0-0.44-0.19-0.52-0.43-0.078-0.24 0.16-0.43 0.52-0.43 0.36 0 0.6 0.19 0.52 0.43m-2.3 4c0.33 0.61 0.32 0.97-0.035 1.4-1.1 1.3-2.2 0.3-1.5-1.3 0.5-1.1 0.92-1.1 1.5-0.075m44-0.089c2.6 2.9-0.3 6.2-3 3.4-2-2.1-2-2.7-0.081-3.4 2-0.81 2.2-0.8 3 0.073m-80 12c-0.21 1.1-2.9 1.5-3.9 0.62l-0.84-0.76 0.82-0.67c1.1-0.87 4.1-0.24 3.9 0.8" fill="#eb4e13"/>
<path d="m60 46c-1.2 0.53-2.8 0.97-3.6 0.98-1 0.014-1.7 0.36-2.7 1.5-0.72 0.79-1 1.3-0.69 1.2 0.34-0.13 0.7-0.24 0.8-0.24 0.098 0 0.35-0.45 0.56-1 0.32-0.83 0.64-1 1.9-1 0.85 0 2.5-0.19 3.7-0.43 2.4-0.49 20-0.52 38-0.066 6.8 0.16 20 0.2 29 0.086 16-0.2 16-0.21-8.2-0.28-20-0.063-25-0.18-27-0.69-2-0.4-5.2-0.6-9.2-0.58-9.6 0.048-13 0.012-16-0.19-3.2-0.17-3.9-0.079-5.8 0.77m123 0.89c1.3 0.08 3.3 0.08 4.6 0 1.3-0.079 0.23-0.14-2.3-0.14s-3.6 0.065-2.3 0.14m40 0.092-32 0.23 40 0.069c22 0.038 40 0.011 40-0.058-0.4-0.35-18-0.44-47-0.24m-71 0.31c3.7 0.066 9.8 0.066 14 0 3.8-0.065 0.8-0.12-6.7-0.12s-11 0.053-6.9 0.12m127-0.014c6.5 0.13 7.1 0.25 7.3 1.4 0.091 0.64 0.44 0.93 1.2 1l1.1 0.13-2.9-2.8-12 0.17 5.4 0.11m-210 1.7c-0.99 0.18-3.2 0.33-4.9 0.35-3 0.029-4.7 0.73-4.7 2 0 0.2-0.38 0.49-0.84 0.64s-1.1 0.92-1.4 1.7c-0.33 0.8-0.95 1.8-1.4 2.3-1.8 2-2.7 19-1.5 30 0.26 2.5 0.35 6.7 0.22 9.8-0.25 5.6-0.76 54-0.67 63 0.18 20-0.021 46-0.37 48-0.25 1.3-0.27 3-0.05 4.6 0.23 1.7 0.21 3.1-0.078 4-0.38 1.3-0.44 7.2-0.18 18 0.039 1.6 0.029 4.9-0.021 7.2-0.051 2.3 0.097 4.8 0.33 5.6 0.23 0.77 0.51 5.3 0.63 10 0.12 4.7 0.42 9.5 0.67 11 0.35 1.6 0.34 4.3-0.034 11-0.48 8.9-0.48 9.1 0.39 12 0.98 3.3 1 5.8 0.12 9.3-0.33 1.3-0.64 3.3-0.68 4.5-0.06 1.5-0.33 2.4-0.88 3-1.3 1.5-0.7 34 0.81 42 0.27 1.4 0.18 1.6-1 2.6l-1.3 1.1 0.67 1.7c0.37 0.92 0.67 2.3 0.67 3.1 0 0.78 0.19 1.8 0.41 2.2 0.33 0.62 0.28 0.77-0.24 0.77-0.36 0-0.75-0.37-0.86-0.82-0.13-0.5-0.66-0.91-1.4-1-0.81-0.16-1.2-0.48-1.2-1.1-0.04-0.74-0.071-0.75-0.24-0.11-0.3 1.2 2.4 3.7 4.3 4 0.82 0.13 1.9 0.58 2.5 0.99 0.78 0.61 2 0.81 6.5 1 3 0.16 6.1 0.45 6.8 0.65 3.3 0.95 6.2-3.8 4.7-7.8-0.49-1.3 0.82-2.7 1.9-2 0.65 0.42 0.82 6.1 0.24 8.2-0.34 1.2 1.7 1.4 9 0.85 8.5-0.64 8.1-0.64 13-0.092 2.1 0.25 5.9 0.35 8.4 0.22s7.3-0.22 11-0.21c4.6 9e-3 6.4-0.14 7.9-0.68 1.7-0.61 2.1-0.63 3.6-0.12 4.1 1.4 7.3 0.14 8.9-3.4 0.42-0.9 0.98-89 0.58-90-0.19-0.83-0.47-1-1.7-1-1.4-0.041-1.4-0.038-0.13 0.12l1.3 0.16 0.045 31c0.058 40-0.25 56-1 52-0.3-1.5-0.45-3.2-0.35-3.8 0.11-0.55-0.048-2-0.34-3.2-1.4-5.8-1.4-6.1-0.99-6.6 1-1.2 1.2-17 0.21-21-0.48-1.9-0.52-2.9-0.2-4.9 0.22-1.4 0.38-3.9 0.36-5.5-0.025-1.7 0.091-6.9 0.26-12 0.45-13 0.4-20-0.14-21-0.45-0.8-0.79-0.82-19-0.93-15-0.093-18-0.23-20-0.7-0.95-0.32-2.8-0.55-4.1-0.5-2.6 0.093-3.4-0.3-3.8-1.9-0.14-0.56-0.61-1.4-1-1.9-0.94-1-1.1-4.3-0.24-5 0.44-0.36 0.59-0.18 0.78 0.96 0.36 2.2 2.8 4.5 5.1 4.8 1.4 0.18 1.9 0.43 1.9 0.9 0.011 0.53 0.12 0.51 0.62-0.15 0.58-0.77 1-0.8 12-0.74 6.4 0.032 13 0.065 15 0.073s5.1-0.14 7-0.33c2.9-0.3 2.5-0.33-3.4-0.28-3.7 0.036-13 0.022-21-0.03l-14-0.095-3.9-3.7v-5.8-5.8l2.7-2.2-1.1-0.93c-1.5-1.3-1.4-1.7 0.87-3.9 4.3-4.1 6-4.8 8-3.1 1.1 0.91 1.2 0.92 8.6 0.75 4.1-0.095 8.9-0.14 11-0.097l3.1 0.076-1-1c-2.1-2.1 0.93-4.2 4.5-3 0.89 0.29 2.3 0.36 3.8 0.18 1.3-0.16 4.1-0.27 6-0.25 2 0.019 7.2 0.026 12 0.016 8.1-0.019 8.1-0.019 9.3 0.99l1.2 1 1.6-0.83c3.1-1.6 12-2.1 23-1.2 3.1 0.26 5.1 0.26 6-0.015 0.76-0.22 2.7-0.58 4.3-0.79 1.6-0.21 3.1-0.54 3.4-0.73 2.2-1.7 4.6-1.2 4.6 0.98 0 2.1 0.6 3 2.2 3 2.5 0 2.4 0.43 2.5-19 0.11-26 0.074-26 3.9-30 0.67-0.71 1.5-1.6 1.8-1.9 0.33-0.34 1.6-1.3 2.8-2.1l2.2-1.5 14-0.03 2.2-2.2 29-0.48 1.1 1.2c0.72 0.76 1.7 1.3 2.8 1.5 1.7 0.29 4.9 2.7 4.9 3.8 0 0.27 0.58 1 1.3 1.7l1.3 1.2 0.29 10c0.21 7.3 0.5 11 1.1 14 0.43 2.3 1 6.1 1.3 8.3 0.46 3.7 0.59 4.2 1.4 4.5 2 0.76 6.9 0.16 6.9-0.85 0-0.15 1.1 0.078 2.4 0.51 5.4 1.7 6.1 0.75 5.9-8.9l-0.13-6.2-0.088 6.5-0.089 6.5-1.3-0.28c-1.6-0.35-1.4-0.05-1.7-2.7-0.18-1.6-0.078-2.9 0.34-4.2 0.46-1.5 0.61-4.3 0.66-12 0.032-5.6 0.14-11 0.25-13 0.24-3.5 0.8-60 0.7-71-0.04-4.6-0.091-11-0.11-14-0.022-3.1 0.17-6.4 0.42-7.4 1.5-5.7 1.8-18 0.58-21-0.34-0.81-0.39-1.6-0.15-2.4 0.48-1.7 0.44-3.5-0.12-5.6-0.43-1.6-0.39-1.9 0.6-3.6 0.59-1 1.1-2.3 1.1-2.8 0-1.8-0.49-3.5-0.99-3.5-1.3 0-1.9-1.5-2-4.9-0.063-2.2-0.33-3.8-0.76-4.6-0.37-0.7-0.66-1.5-0.66-1.8 0-2.7-3-3.1-22-3.3-5.9-0.058-18-0.22-27-0.35s-18-0.21-20-0.16c-3.7 0.083-6.4 0.086-28 0.034-5.9-0.015-12-0.21-13-0.43-1.5-0.29-2.7-0.27-4 0.052-1.3 0.32-11 0.5-31 0.6-16 0.076-29 0.15-29 0.17-3.2 0.19-38-0.56-39-0.85-2.4-0.43-3.4-0.42-6 0.038m108 1.8c-0.36 0.43-0.59 0.45-1 0.088-0.67-0.56 0.043-1.2 0.94-0.86 0.42 0.16 0.44 0.34 0.083 0.77m113-0.13c0.17 0.48 0.7 1.1 1.2 1.3 0.94 0.43 1.1 1.2 0.88 5.7-0.094 2.4 0.53 5.3 1.1 5.3 2 0 2.5 57 0.47 62l-0.89 2.4-0.063 41c-0.034 23 0.038 35 0.16 27s0.47-18 0.77-23c0.44-7.7 0.46-12 0.085-21-0.46-11-0.34-14 0.78-19 0.37-1.6 0.5-11 0.52-36l0.026-34-1.1-1.8c-0.84-1.4-1.1-2.5-1.3-5.3-0.18-2.8-0.4-3.7-1.1-4.7-1.2-1.5-2-1.9-1.6-0.69m-239 1.3-1.2 1 1.3-0.64c0.71-0.35 1.3-0.82 1.3-1 0-0.52-0.022-0.51-1.4 0.66m106 2.3c1.2 2.5-0.17 5.3-2.5 4.9-2-0.37-2.4-1.1-1.4-2.3 0.44-0.56 0.8-1.2 0.8-1.4 0-2 2.3-2.8 3.1-1.1m21 0.32c1.3 1.2 1.2 3.2-0.14 4.3-2.2 1.7-3.7-1.5-1.9-4.2 0.75-1.2 0.91-1.2 2.1-0.067m61 1.9c1.2 1.2 1.1 1.9-0.31 2.4-1.1 0.43-2.2-0.52-2-1.7 0.5-2.3 0.7-2.4 2.3-0.71m15 6.2c0.25 0.66-0.34 1.2-0.92 0.82-0.42-0.26-0.11-1.4 0.38-1.4 0.17 0 0.42 0.26 0.54 0.59m31 3c0.67 1.3 0.63 3.2-0.094 4.2-0.9 1.2-2.2-0.48-2.2-2.8 0-2.6 1.3-3.4 2.3-1.4m-149 8.6c0.57 1.4 0.57 1.5-0.062 2-0.76 0.56-1.8 0.013-1.6-0.81 0.078-0.26 0.25-0.96 0.38-1.6 0.32-1.4 0.49-1.4 1.2 0.39m10 5.3c7 0.18 20 0.31 30 0.27 25-0.086 26-0.064 27 0.64 0.96 0.52 1 0.62 0.32 0.66-2.5 0.15-14 0.79-15 0.8-0.33 8e-3 -1.7-0.19-3.1-0.43-1.6-0.28-2.9-0.31-3.6-0.095-0.62 0.2-3.2 0.21-6.1 0.018-2.7-0.19-16-0.3-29-0.24-29 0.11-39-0.03-36-0.48 1.3-0.17 4.2-0.32 6.4-0.34 4.2-0.034 10-0.61 13-1.2 0.77-0.2 1.8-0.26 2.2-0.13 0.44 0.12 6.5 0.37 14 0.55m66 1.2c0 0.24-1.5 0.38-3.9 0.34-3.1-0.047-3.5-0.12-2.1-0.34 2.8-0.44 6-0.44 6 0m22 0.032c0.33 0.062-2.3 0.22-5.8 0.35-6.6 0.24-8.6 0.14-7.8-0.39 0.44-0.27 12-0.23 14 0.046m-132 2.2 1.6 0.94 10-0.26c5.6-0.14 12-0.27 14-0.29 2-0.023 3.8-0.25 4.3-0.56 1.2-0.7 40-0.88 41-0.19 2.8 1 8.4 1.4 9.7 0.67 1.2-0.69 1.3-0.68 3.2 0.011 1.6 0.57 2.6 0.67 4.9 0.46 1.6-0.15 4-0.25 5.4-0.22 1.7 0.03 3.3-0.23 4.7-0.77 2.8-1 3.8-1 5.1 0.023 1.5 1.2 5.6 0.95 7.4-0.39 1.4-1 3.6-0.68 4.3 0.63 0.48 0.86 5.4 1.1 9 0.53 3.3-0.56 3.1-0.57 5.7 0.025 1.6 0.35 2.5 0.36 3.5 0.042 1.8-0.54 2.5-0.28 2.8 1.1 0.14 0.58 0.58 1.7 0.99 2.5 0.62 1.2 0.68 1.8 0.34 3.5-0.22 1.1-0.4 3.3-0.4 4.7-4e-3 4.4-1.9 8-4.3 8-0.38 1e-3 -1.2 0.26-1.8 0.58-0.9 0.47-2 0.51-6.3 0.23-3.1-0.21-6.3-0.2-7.9 0.032-1.5 0.21-12 0.37-23 0.36-11-6e-3 -25 0.1-32 0.24-9.3 0.2-13 0.13-15-0.3-2.4-0.39-6.1-0.51-13-0.42-11 0.17-14 0.15-27-0.23-7.2-0.2-11-0.17-11 0.092-1.6 1.5-1.8 1.5-2.8 0.6-0.53-0.5-1.4-1.1-1.9-1.4s-1.1-0.85-1.3-1.3c-0.24-0.48-0.91-1.3-1.5-1.8-2-1.8-1.9-5.8 0.055-7.5 0.74-0.66 1.2-1.6 1.4-2.6 0.2-1.2 0.62-1.9 1.8-2.8 1.3-1 1.5-1.4 1.4-2.4-0.47-3.2 2.6-4.1 6.5-1.8m-7.8 0.85c3e-3 0.38 0.11 1.1 0.25 1.6 0.19 0.72 0.076 0.9-0.58 0.9-1.4 0-2.1 1.1-2.1 3.2 0 1.7-0.11 2-0.78 2-1.7 0-3.2-5.7-1.7-6.3 0.38-0.14 1.2-0.67 1.8-1.2 1.4-1.1 3.1-1.3 3.1-0.23m149 9.6c7e-3 1.5-0.58 2-1.1 1.1-0.47-0.84 0.3-3.6 0.78-2.9 0.18 0.28 0.32 1.1 0.33 1.8m-2.1 5c1 1 0.33 4.7-0.89 4.7-0.8 0-0.99-0.84-0.6-2.8 0.19-0.97 0.35-1.9 0.36-2.1 0.026-0.45 0.6-0.36 1.1 0.18m-152 1.1c0 0.66-0.084 1.2-0.19 1.2-0.38 0-1-1.6-0.81-2 0.48-0.78 0.99-0.36 0.99 0.81m189 3.8c0.74 0.52 0.86 0.85 0.62 1.7-0.16 0.58-0.26 1.9-0.21 3 0.084 1.9 0.049 1.9-1.4 2.5-0.84 0.34-1.9 0.97-2.3 1.4-0.82 0.76-0.84 0.75-2.2-1.1-1.4-2-1.1-2.9 0.83-2.9 1.4 0 2.5-1.3 2-2.6-0.77-2 0.92-3.3 2.7-2m-40 2.1c-0.44 0.87-1.2 1.8-1.6 2-0.79 0.42-20 0.63-48 0.5-6.4-0.031-28-0.06-48-0.066-35-0.01-39-0.14-39-1.2 0-0.83 6.7-0.93 68-1l64-0.07 1.4-0.85c0.77-0.46 1.8-0.86 2.3-0.87l0.91-0.029-0.81 1.6m-137 1.2c-0.14 0.22-0.67 0.4-1.2 0.4s-1.1-0.18-1.2-0.4c-0.15-0.24 0.34-0.4 1.2-0.4s1.3 0.16 1.2 0.4m137 6.2c0 0.77-0.18 1.4-0.4 1.4s-0.4-0.63-0.4-1.4c0-0.77 0.18-1.4 0.4-1.4s0.4 0.63 0.4 1.4m33 1.4c0.3 0.48-0.11 0.71-1.6 0.89-0.88 0.1-1.2-0.04-1.3-0.56-0.15-0.77 2.4-1.1 2.9-0.33m-74 1.7c0.62 0.62 0.62 3.6 0 4.2-0.68 0.68-3.3 0.6-3.9-0.12-1.1-1.3 2.7-5.3 3.9-4.1m-15 5.7c1.2 0.91 0.94 7.6-0.4 9l-0.95 0.95-1.1-2.1c-0.96-1.9-1-2.3-0.63-3.8 0.24-0.95 0.43-2.1 0.43-2.7 0-1.7 1.2-2.4 2.6-1.3m-133 8.6c0 3.2 0.062 4.5 0.14 2.9 0.076-1.6 0.076-4.2 0-5.8-0.075-1.6-0.14-0.29-0.14 2.9m156-3.6c0.19 0.19-0.032 0.95-0.48 1.7s-0.82 1.8-0.82 2.3c0.011 2.3-0.61 2.2 17 2.3 18 0.12 18 0.14 20 2.7 0.44 0.86 1.3 2 1.9 2.6 1.1 0.96 1.2 1.2 1.2 4.4 0.051 3.8-0.2 4.1-3.4 4.6-1.2 0.19-1.5 0.42-1.7 1.4-0.47 2.1-1.9 3.1-5.7 3.8-6.1 1.1-25 1.5-28 0.65-0.94-0.27-1.9-0.15-3.8 0.49l-2.6 0.85-3.4-0.76c-3.8-0.82-9.7-0.88-17-0.17-5.1 0.5-22 0.49-30-0.01-3.5-0.21-7.4-0.24-8.6-0.067-1.2 0.18-11 0.16-21-0.031s-21-0.34-23-0.32c-4.7 0.041-5.2-0.13-6.9-2.7-1.8-2.7-2.2-10-0.56-12 0.52-0.41 1.2-1.2 1.4-1.8s0.8-1.1 1.2-1.3c0.39-0.12 0.82-0.56 0.95-0.97 0.59-1.9-1.1-1.8 45-1.9 24-0.026 44-0.086 44-0.13 0.33-0.047 2.7 0.044 5.3 0.2 4.2 0.26 4.9 0.2 7.2-0.56 1.4-0.47 3.5-1 4.7-1.3 3.8-0.71 4.4-1.1 3.9-2.5-0.62-2.1 2.5-3.6 4.2-1.9m28 0.46c0.34 0.54-1.4 0.86-3.1 0.57-1.8-0.3-1.6-0.85 0.26-1.1 1.4-0.16 2.5 0.038 2.8 0.5m-68 3.1c-0.5 0.6-1.5 0.64-2.9 0.093-1.3-0.49-0.82-1.3 1.2-2.2 1.4-0.58 2.7 0.94 1.7 2.1m-66-0.86c6.3 0.21 6.2 0.2 4.8 1.1-0.89 0.58-1.3 0.62-2.8 0.25-2-0.49-3.8-0.037-3.8 0.95 0 0.84-3.7 0.86-4.4 0.013-0.58-0.7-2 0.36-3 2.3-0.33 0.6-0.87 1.1-1.2 1.1s-0.87 0.63-1.2 1.4c-0.45 1.1-0.82 1.4-1.6 1.4-0.91 0-0.99 0.15-0.99 1.8 0 0.99-0.18 1.8-0.4 1.8-2 0 0.58-6.6 2.9-7.4 1.1-0.37 1.3-0.67 1.5-2.1 0.12-0.91 0.31-1.7 0.42-1.8 0.54-0.54 3-1.4 3.5-1.2 0.33 0.12 3.1 0.3 6.2 0.4m119 0.46c0.6 0.16 2.9 0.3 5.1 0.3 2.7 3e-3 4.8 0.24 6.4 0.72 1.3 0.39 4.1 0.82 6.3 0.96 6.7 0.42 4.3 0.92-4.4 0.92-9.8 0-13-0.28-13-1.1 0-0.79-4.7-0.74-5.6 0.056-2 1.8-7.6 1.2-7.6-0.8v-1.4l1.9 0.028c1 0.016 2.3 0.17 2.7 0.35s0.98 0.18 1.2-2e-3c0.83-0.66 5-0.7 7.3-0.081m-82 0.054c0.51 0.19 3.2 0.47 5.9 0.63 2.7 0.15 5.7 0.44 6.6 0.64 2.2 0.5 5.7 0.47 6.6-0.046 0.6-0.32 1.4-0.26 3 0.27 3.3 1 2 1.3-6.5 1.3-16 0.062-28-0.44-27-1.1 2.1-1.5 9.3-2.5 12-1.7m41 1c0 0.77-0.18 1.4-0.4 1.4-0.44 0-0.55-2.1-0.13-2.5 0.46-0.46 0.53-0.3 0.53 1.1m12-0.5c1.6 1.8 1.6 1.9-1.6 1.9-3.3 0-3.5-0.24-2-1.8 1.3-1.3 2.6-1.3 3.6-0.12m7.8-0.62c-0.49 0.095-1.3 0.095-1.8 0s-0.089-0.17 0.9-0.17 1.4 0.078 0.9 0.17m-25 1.4c1.1 1.1-1.9 1.9-4.8 1.3l-1.4-0.26 0.87-0.97c1-1.1 4.2-1.2 5.4-0.068m-50 0.24c0.78 0.86-0.71 1.4-3 1-0.55-0.082-1.7-0.16-2.5-0.18-1.3-0.028-1.5-0.12-1.1-0.61 1-1.2 5.6-1.4 6.6-0.25m121 3.9c-0.73 0.88-1.1 0.62-1.1-0.72 0-1.2 0.017-1.2 0.8-0.54 0.61 0.55 0.69 0.85 0.35 1.3m36 4.3c0.38 0.46 0.32 0.66-0.31 0.99-0.99 0.53-1.9-0.34-1.2-1.1 0.61-0.61 0.91-0.59 1.5 0.1m-2.6 4.7c1.1 1.6-1.3 2.8-2.6 1.3-0.46-0.55-0.4-0.75 0.39-1.4 1.2-0.96 1.5-0.95 2.2 0.12m47 2.1c0 0.76 0.14 1.5 0.31 1.6s0.24-0.51 0.16-1.4c-0.18-1.9-0.46-2-0.46-0.19m-237 2.3c0 1.4-0.15 2-0.49 1.9-0.68-0.23-1.1-2.8-0.63-3.4 0.79-0.95 1.1-0.5 1.1 1.5m158-0.22c-0.82 0.56-1.5 1.2-1.5 1.4 0 1.1-4.2 4.7-5.9 4.9-0.93 0.15-2.2 0.59-2.9 0.99-1.1 0.66-2.2 0.72-13 0.64-6.4-0.047-13 0.03-14 0.17-1.4 0.14-3.4 0.13-4.4-0.018s-2.6-0.4-3.7-0.55c-1.1-0.17-2.4-0.092-3.2 0.19-1.2 0.41-23 1-33 0.96-1.5-0.013-8.4-3e-3 -15 0.023-14 0.054-28-0.083-40-0.39-4.5-0.12-9.9-0.24-12-0.28-3.4-0.068-5.4-0.58-4.7-1.2 0.5-0.48 22-0.71 61-0.64 23 0.049 44 0.086 47 0.083 2.2-4e-3 5.9 0.013 8.2 0.037 22 0.23 28-0.087 28-1.5 0-0.37 0.82-0.63 2.6-0.81 2.7-0.29 2.6-0.24 3.2-2.7 0.13-0.6 0.49-1.1 0.79-1.1 0.3 0 0.77-0.27 1-0.6 0.31-0.37 1.2-0.6 2.3-0.6h1.8l-1.5 1m78 0.58c-0.11 0.44-0.046 0.9 0.15 1s0.36-0.24 0.36-0.8c0-1.2-0.23-1.3-0.52-0.22m-36 11-0.37 1.6-0.041-2c-0.027-1.3 0.091-1.8 0.37-1.6 0.27 0.27 0.28 0.95 0.04 2m-45 4.3c0.53 0.49 1.4 1.2 2 1.6 2.2 1.5 1.4 5.2-0.87 4.5-0.78-0.25-2.3-3-3-5.3-0.15-0.51-0.66-1.1-1.1-1.3-0.73-0.29-0.63-0.35 0.62-0.37 1-0.018 1.8 0.26 2.4 0.87m-13 0.8c1.2 1.7-1.2 2.7-3 1.2-0.22-0.19 1.6-2.1 2-2.1 0.17 0 0.59 0.4 0.94 0.9m-13 4.2c-0.52 1.5-1.3 1.6-1.8 0.37-0.36-0.79-0.36-1.3 0.016-2.1l0.48-1.1 0.86 0.86c0.7 0.7 0.79 1.1 0.48 1.9m-88-0.98c0.68 0.68 0.6 2.9-0.13 3.5-1.1 0.94-3.2-0.021-3.1-1.4 0.14-1.9 2.2-3.2 3.2-2.1m74 5.4c0.16 1.1-0.72 1.5-2.2 0.97-1.5-0.49-1.4-1.4 0.086-1.7 1.6-0.35 2-0.23 2.1 0.78m83 2.1c0.72 1.1-0.82 2.6-1.8 1.7-0.86-0.77-0.93-1.4-0.24-2.1 0.63-0.63 1.5-0.45 2 0.41m-21 7.3c0.34 0.89 0.32 0.97-0.36 0.97-0.33 0-0.6-0.36-0.6-0.8 0-0.95 0.61-1.1 0.96-0.17m-12 0.22c1.1 0.32 1.9 0.33 2.7 0.032 0.94-0.33 1.2-0.3 1.4 0.12 0.17 0.44-1 0.56-6.5 0.67-8.6 0.16-15-0.15-13-0.62 0.88-0.18 1.8-0.38 2-0.46 1-0.35 12-0.15 13 0.25m-21 0.23c0.9 0.24 0.83 0.31-0.8 0.74-0.99 0.26-2.1 0.6-2.4 0.75-0.81 0.34-1.4-0.96-0.66-1.4 0.62-0.4 2.5-0.42 3.9-0.059m-97 2.2c1 0.85-2.3 1.5-4.6 0.84l-0.92-0.25 0.84-0.9c0.9-0.95 3.4-0.79 4.7 0.3m4.7-0.27c0.42 1.7 6.1 2.4 11 1.4 0.85-0.2 2.2-0.2 3.1 2e-3 0.86 0.19 9.9 0.42 20 0.52 23 0.22 24 0.26 23 2.9-0.26 1.4 0.16 9 0.49 8.7 0.1-0.1 0.17-1.6 0.14-3.2-0.049-3.3 0.23-5 0.82-5 0.58 0 1.5 2.6 1.5 4.2 0 1.5 0.5 2.7 1.5 3.7 0.64 0.64 0.73 4.7 0.12 5.1-0.23 0.14-0.82 1.1-1.3 2.1-1.1 2.3-2.1 3-2.9 1.9-0.45-0.61-0.47-0.84-0.08-1.1 0.32-0.2 0.52-1.5 0.58-3.6 0.084-3.4-0.042-3.5-0.47-0.2-0.18 1.4-0.59 2.3-1.4 3.1-0.64 0.66-1.2 1.4-1.2 1.5 0 0.76-1.7 1-8 1.2l-6.6 0.22 7.2 0.081c8.2 0.092 8 0.017 6.6 2.1-1.1 1.7-2.1 2-4.8 1.2-0.98-0.28-1.7-0.21-3 0.27-3.7 1.4-51 0.95-57-0.56-1.3-0.34-3.8-0.58-5.8-0.55-18 0.27-34-0.78-31-2 2-0.77 41-0.39 43 0.42 4.8 1.5 38 1.5 38-0.014 0-0.17 0.3-0.36 0.68-0.44s-4.4-0.13-11-0.13c-27-0.01-71-0.73-72-1.2-1.6-0.78-1.9-2.9-1.9-12 0.018-8.6 0.14-9.2 2.1-9.8 0.7-0.24 1.6-0.7 1.9-1 1.1-1 3.4-0.9 4.6 0.2l1 0.98h18c19 0 19-0.047 20-1.6 0.59-1.3 1.2-1.3 1.5 0.019m7.5 0.23 1.6 0.49-2.3 0.37c-3.1 0.5-5.1 0.11-5.1-0.99 0-0.94 2.5-0.88 5.8 0.13m41-0.027c1.2 0.44 1.3 0.54 0.6 0.81-1.6 0.61-32 0.26-32-0.36 1.3-1.3 28-1.6 31-0.45m-68 0.11c3.5 0.034 6.6 0.2 6.8 0.36 0.16 0.16-5 0.3-11 0.3-6.4 0-12-0.12-11-0.27 0.46-0.46 3.5-0.73 6.6-0.59 1.6 0.075 5.9 0.16 9.4 0.2m150 0.22c0.9 0.57-0.2 0.94-2 0.64-0.87-0.15-1.6-0.43-1.6-0.63 0-0.46 2.8-0.47 3.5-9e-3m3.4 5.3 1.3 0.12 0.22 2.8c0.12 1.5 0.44 3.2 0.72 3.7 0.36 0.66 0.38 1.3 0.091 2.4-0.22 0.8-0.31 2.2-0.2 3.1 0.21 1.7-0.26 2.9-0.99 2.5-0.3-0.18-0.44-2.4-0.42-6.8 0.024-7.2-0.014-7.4-1.4-7.4-0.87 0-0.97-0.16-0.91-1.5 0.061-1.4 0.07-1.4 0.22-0.22 0.14 1.1 0.33 1.3 1.4 1.4m14 4.4c-0.071 0.74-0.31 1.3-0.53 1.3-0.54-0.11-0.72-1.2-0.41-2.4 0.37-1.5 1.1-0.57 0.94 1.1m-82 23c9e-3 23 0.068 22-1.6 22-1.5 0-1.8-0.51-0.86-1.3 0.66-0.6 0.87-14 0.47-30-0.014-0.55 0.06-2.3 0.16-4 0.1-1.6 0.19-4.3 0.19-5.9 1e-3 -3.1 0.63-4.7 1.3-3.5 0.19 0.34 0.35 10 0.35 22m31-13c-0.64 0.35-1.6 1.2-2.2 1.8-0.55 0.65-1.8 1.5-2.7 1.9-2.3 0.98-2.8 4.6-1.4 9.8 0.3 1.1 3-1.9 4.7-5.2 0.34-0.67 0.66-1.3 0.72-1.3 0.056-0.065 1.3 0.54 2.8 1.3 2.8 1.6 3.7 1.6 7.2 0.55 2.4-0.72 3.4-0.3 4.5 1.7l0.86 1.7 0.025-4.1c0.03-4.9-0.51-6.2-2.9-6.9-0.87-0.26-2-0.76-2.6-1.1-1.4-0.93-7.5-1.1-9-0.21m-61 4c0.6 0.092 1.6 0.092 2.2 0 0.6-0.091 0.11-0.17-1.1-0.17-1.2 0-1.7 0.075-1.1 0.17m102 4.8c-0.3 2.3-0.72 2.9-1.1 1.7-0.36-1.3-0.42-4.5-0.098-5.4 0.48-1.2 1.4 1.8 1.2 3.7m15-1.1c0 0.77 0.082 1.1 0.18 0.7 0.1-0.38 0.1-1 0-1.4-0.1-0.38-0.18-0.07-0.18 0.7m-179 5.5c0 2.6-1.5 3.9-2.4 2.1-0.54-1-0.26-3.7 0.48-4.6 0.74-0.89 1.9 0.67 1.9 2.5m29-0.35c1.4 2 1.2 2.6-0.72 3.3-2.1 0.69-3.2-0.31-2.8-2.6 0.5-3.1 1.7-3.4 3.5-0.71m-45-1c0.76 0.95 0.79 3 0.066 3.4-0.92 0.58-1.8-0.17-2.1-1.8-0.33-1.8 1-2.9 2-1.7m180 6.8c0.022 0.82-0.14 1.5-0.36 1.5-0.23 0-0.38-1.1-0.36-2.5 0.043-2.7 0.64-1.9 0.72 1m10 3.9c0 1.2-0.43 2-1 1.7-0.68-0.26-0.75-1.8-0.1-2.4 0.59-0.59 1.1-0.26 1.1 0.69m-199 0.055c0 0.19-0.54 0.35-1.2 0.35-1.1 0-1.5-0.36-0.99-0.87 0.32-0.32 2.2 0.12 2.2 0.52m8.1 0.054c0.83 0.63 1.3 2.5 0.73 2.9-0.6 0.37-2-0.13-2-0.72 0-0.27-0.37-0.8-0.82-1.2-1.4-1.2 0.56-2.2 2.1-0.98m25 0.95c2.1 1.5 0.051 6.6-2.1 5.2-1.8-1.1-1.8-4.8-0.12-5.5 1.2-0.47 1.2-0.47 2.2 0.26m40 0.14c1 1 1 1.8-0.089 2.6-1.6 1.1-4.7 0.4-4.7-1.1 0-1.8 3.4-2.9 4.8-1.5m23 3.3c0.46 0.34 0.74 1.1 0.78 2.1l0.052 1.6-1.7 0.12c-1.9 0.14-2.9-0.38-2.6-1.4 0.56-2.8 0.58-2.9 1.7-2.9 0.61 0 1.4 0.24 1.8 0.53m-30 1.9c0 1.5-0.12 1.8-0.8 1.8-0.98 0-1.4-2.9-0.53-3.4 0.94-0.6 1.3-0.11 1.3 1.7m43 1.2c0 0.22-0.73 0.4-1.6 0.4-0.98 0-1.5-0.16-1.4-0.4 0.14-0.22 0.86-0.4 1.6-0.4 0.76 0 1.4 0.18 1.4 0.4m-35 1.2c4 1.3 4 1.4-0.04 1.6-2.1 0.11-4.8 0.091-6-0.041-1.7-0.19-1.9-0.26-0.8-0.33 1.1-0.069 5.2-1.3 5.4-1.6 0.022-0.028 0.65 0.14 1.4 0.38m-13 1.2c0.16 0.25-0.62 0.38-2.1 0.35-2.1-0.046-2.2-0.086-0.92-0.35 2.1-0.44 2.7-0.44 3 0m-54 5.1c0 0.17-0.94 0.5-2.1 0.73-1.2 0.23-2.4 0.49-2.7 0.58-0.37 0.11-0.64-0.16-0.73-0.73-0.13-0.86-0.016-0.9 2.7-0.9 1.6 0 2.8 0.14 2.8 0.31m40 0.12c-0.12 0.2 0.24 0.36 0.8 0.36 1.2 0 1.3-0.23 0.22-0.52-0.44-0.12-0.9-0.046-1 0.15m4.6-0.038c-0.45 0.29-0.25 0.39 0.8 0.39 1 0 1.2-0.096 0.8-0.39-0.33-0.21-0.69-0.39-0.8-0.39-0.11 0-0.47 0.18-0.8 0.39m-50 5.4c7e-3 1.4 0.62 2.2 1.8 2.2 0.56 0.02 0.37 0.19-0.58 0.53-1.2 0.43-1.4 0.73-1.6 2.1-0.22 1.4-0.25 1.4-0.3-0.71-0.031-1.2-0.23-2.7-0.45-3.3-0.27-0.7-0.25-1.3 0.069-2 0.56-1.2 1.1-0.62 1.1 1.2m199 7.2c-9.4 0.082-15 0.27-15 0.52 0 0.22 0.16 0.39 0.34 0.39 0.19 0 0.8 0.46 1.4 1 1.3 1.3 6.7 2 12 1.6 2-0.16 4.8-0.33 6.4-0.37s3.8-0.31 5.1-0.61c2.2-0.51 2.5-0.48 5.6 0.5 6.2 2 7.7 1.5 4.6-1.4-2.1-1.9-0.27-1.8-21-1.6m-202 2.8c-0.092 0.61-0.17 0.2-0.17-0.89s0.072-1.6 0.17-1.1c0.095 0.49 0.098 1.4 6e-3 2m87 6.5c-0.44 0.17-2.3 0.33-4.1 0.35l-3.3 0.028-0.62 1.5c-0.34 0.82-0.8 1.6-1 1.7-1 0.65-1.5 11-0.76 16l0.31 1.8 0.68-1.5c0.38-0.85 0.85-2.9 1-4.6 1.2-10 2.7-12 7.4-11 0.92 0.26 4.1 0.2 9.5-0.17 4.4-0.3 13-0.52 19-0.48 10 0.062 11 8e-3 12-0.67 0.58-0.4 1.3-0.74 1.6-0.76 0.3-0.014 0.18-0.17-0.26-0.34-1.8-0.7-11-0.97-26-0.72-3.3 0.055-8.9-0.22-14-0.67-0.77-0.069-1.8 0.018-2.2 0.19m-58 29c0.5 0.47 0.44 0.7-0.5 1.7-0.59 0.62-1.1 1.3-1.1 1.5s-0.34 0.73-0.76 1.1c-1.4 1.2-2.8-0.39-2.8-3.2 0-1.9 3.5-2.7 5.2-1.1m-10 18c0.53 0.35 0.53 0.44 0 0.79-1.1 0.74-2.4 0.18-1.8-0.79 0.31-0.5 1-0.5 1.8 6e-3m-15 9.4c0.71 0.86 1.2 3.8 0.75 4.7-1.5 2.8-3.9 1.1-3.9-2.7 0-2.2 2-3.4 3.2-2m23 2.3c1 1.7 1 1.7-0.23 2.5-1.7 1.1-2.9-0.33-2-2.4 0.75-1.8 1.2-1.8 2.2-0.16m-64 13c5e-3 0.88 0.087 1.2 0.18 0.69 0.096-0.5 0.092-1.2-8e-3 -1.6-0.1-0.38-0.18 0.025-0.17 0.9m84 2.1c0.75 1.9 0.43 2.5-1.9 3.8l-1.8 1-0.56-0.86c-1.5-2.2-1.1-3.2 1.6-4.2 0.71-0.28 1.3-0.67 1.3-0.86 0-0.88 0.77-0.21 1.3 1.1m-51 1.8c0 0.61-1.3 0.84-1.6 0.29-0.61-0.98 0.4-2.3 1.1-1.4 0.3 0.41 0.55 0.9 0.55 1.1m35-0.11c0 1-2.1 2-2.9 1.4-1.7-1.5-0.27-3.3 1.7-2.3 0.61 0.32 1.1 0.74 1.1 0.93m7.2 0.019c-1.4 0.46-2 0.46-2 0 0-0.22 0.67-0.38 1.5-0.36 1.3 0.036 1.4 0.075 0.5 0.36m-74 6.8c0 2.7 0.063 3.9 0.14 2.5s0.078-3.6 0-5-0.14-0.25-0.14 2.5m86 7.6c0 1.2-0.14 1.5-0.55 1.4-0.44-0.17-0.47-0.49-0.13-1.6 0.54-1.8 0.69-1.7 0.69 0.21m-2.4 3.4c0 0.33-0.18 0.6-0.4 0.6-0.22 0-0.4-0.27-0.4-0.6 0-0.33 0.18-0.6 0.4-0.6 0.22 0 0.4 0.27 0.4 0.6" fill="#f6e4a6"/>
<path d="m62 20c-1.2 2.6-3 3-3 0.76 0-0.9-0.64-1.3-1-0.72-0.18 0.29-0.12 0.36 0.17 0.18 0.27-0.17 0.46-0.032 0.46 0.34 0 0.71-0.62 0.83-1 0.2-0.14-0.23-0.54-0.32-0.87-0.2-0.42 0.16-0.53 0.048-0.37-0.37 0.19-0.5-0.19-0.6-2.2-0.6-2.2 0-2.4 0.069-2.2 0.76 0.13 0.42 0.053 0.88-0.18 1-0.23 0.14-0.32 0.43-0.19 0.63 0.23 0.37-0.26 0.46-3.2 0.57-1.2 0.044-1.6 0.21-1.5 0.73 0.031 0.37-0.11 0.67-0.32 0.67-0.21 0-0.27 0.18-0.13 0.4 0.14 0.22 0.1 0.41-0.076 0.42-0.18 9e-3 -1.1 0.16-2 0.34-1 0.2-1.7 0.18-1.7-0.044 0-0.55-2.1-0.2-2.3 0.38-0.09 0.27 0.042 0.5 0.29 0.5 0.25 0 0.33-0.21 0.17-0.46-0.18-0.29-0.11-0.35 0.2-0.16 0.36 0.22 0.37 0.43 0.028 0.84-0.25 0.3-0.32 0.76-0.16 1 0.19 0.3 0.13 0.37-0.16 0.19-0.25-0.16-0.46-0.079-0.46 0.17 0 0.25-0.22 0.38-0.5 0.29-0.27-0.093-1.2 0.28-2.1 0.82-1.3 0.81-1.5 0.85-0.9 0.21 0.94-1.1 0.88-1.3-0.31-1.3-0.8 0-1.1 0.25-1.2 1.2-0.18 0.9-0.48 1.2-1.3 1.3-0.82 0.095-1.1 0.37-1.2 1.3-0.098 0.86 1e-3 1.1 0.4 0.83 0.29-0.17 0.39-0.15 0.22 0.036s-0.55 0.38-0.85 0.42c-1.3 0.2-2.2 0.66-2.2 1.2 0 0.3-0.11 0.82-0.24 1.2-0.19 0.49-0.029 0.6 0.7 0.49 0.52-0.079 0.95-0.3 0.95-0.5 0.016-0.57 0.96-2 0.98-1.5 7e-3 0.26-0.17 0.59-0.39 0.73-0.22 0.14-0.33 0.38-0.24 0.53 0.094 0.15-0.083 0.62-0.39 1-0.41 0.56-0.57 0.61-0.59 0.2-0.014-0.32-0.22-0.13-0.46 0.42s-0.4 1.1-0.36 1.3c0.039 0.18-0.1 0.22-0.32 0.088-1.5-0.93-3.2 1.2-1.9 2.5 0.29 0.29 0.31 0.48 0.066 0.48-0.23 0-0.41 0.26-0.41 0.58s0.17 0.54 0.38 0.5c0.21-0.043 0.45 0.11 0.54 0.34 0.087 0.23-0.5 0.46-1.3 0.52-2.4 0.16-2.5 0.24-2.3 7.2 0.067 3.4 0.029 6.9-0.084 7.6-0.3 1.9-1.2 1.6-1.4-0.4-0.084-0.93-0.16 66-0.18 150-0.013 83 0.058 151 0.16 151 0.26-0.99 1.2-0.87 1.5 0.19 0.13 0.49 0.14 3 0.02 5.7s-0.066 4.6 0.11 4.4c1.2-1.5 2.5-0.5 2.5 1.8 0 1.9 0.16 2.4 0.8 2.9 0.44 0.31 0.67 0.68 0.51 0.84-0.16 0.16 0.024 0.17 0.4 0.021 0.78-0.3 0.8-0.22 0.85 3.2l0.037 2.4 1.2-0.054c1-0.044 1.2 0.073 1.1 0.7-0.11 0.41-2e-3 0.75 0.24 0.75 0.24 0 0.32 0.3 0.18 0.67-0.19 0.51-0.094 0.61 0.41 0.41 0.37-0.14 0.67-0.065 0.67 0.18 0 0.24 0.31 0.35 0.7 0.25 0.55-0.14 0.7 0.072 0.7 1.1 0 1 0.17 1.3 1.1 1.4 0.83 0.095 1.1 0.4 1.3 1.3 0.24 1.1 0.4 1.2 1.4 1 1-0.15 1.2-0.06 1.2 0.97 0 1.5 1.6 2.4 2.9 1.6 1.2-0.77 2.8 0.39 2.5 1.8-0.22 0.89-0.14 1 0.69 0.94 3.3-0.28 4.3-0.023 4.4 1.1 0.18 1.6 2.1 1.8 13 1.5 5.2-0.14 9.7-0.25 10-0.24s0.7-0.16 0.7-0.38 0.18-0.29 0.4-0.15c0.22 0.14 0.42 0.056 0.45-0.18 0.027-0.23 0.072-0.65 0.1-0.92 0.037-0.38 2-0.52 8-0.61 6.7-0.092 7.9-0.023 7.7 0.46-0.84 2.2-9.3 2 121 2 116 0 110 0.1 110-1.8 0-0.62 0.39-0.75 2.5-0.85 2.4-0.12 2.5-0.14 2.7-1.4 0.16-0.97 0.37-1.2 1-1.1 1.8 0.3 3.5-0.33 3.9-1.5 0.32-0.84 0.73-1.2 1.6-1.2 0.99-0.096 1.2-0.32 1.3-1.2 0.095-0.83 0.37-1.1 1.2-1.2 1-0.12 1.1-0.26 1.1-2.1 0.063-3.1 0.089-3.2 1.4-3.7 0.66-0.25 1.1-0.29 0.97-0.088s-0.036 0.37 0.2 0.37 0.42-0.43 0.42-0.95c0-0.73 0.27-1 1.2-1.2 1-0.2 1.2-0.42 1.2-1.4 0-0.92 0.18-1.2 0.75-1.2 1.6 0 3-7.5 1.6-8.4-0.47-0.3-0.46-0.36 0.041-0.37 0.46-0.014 0.42-0.16-0.18-0.6-0.43-0.32-0.57-0.59-0.31-0.59 0.26 0 0.36-0.27 0.23-0.6-0.13-0.33-0.031-0.6 0.21-0.6 0.24 0 0.44 0.18 0.44 0.4s0.27 0.4 0.6 0.4c0.33 0 0.6-0.34 0.6-0.75 0-0.46-0.26-0.73-0.66-0.7-0.36 0.03-0.73-0.21-0.83-0.54-0.14-0.49-0.1-0.5 0.21-0.048 1.2 1.7 1.3-0.24 1.3-49 0-33-0.14-49-0.4-49-0.22 0.14-0.61 0.11-0.87-0.047-0.32-0.2-0.23-0.39 0.3-0.6 0.7-0.27 0.7-0.3 0.056-0.33-0.66-0.026-0.7-0.36-0.49-3.9 0.37-6.2-0.13-9.4-1.5-9.6-0.96-0.11-1.1-0.3-1.1-1.5 0-1.8-0.6-3.3-1.5-3.6-0.41-0.13-0.91-0.82-1.1-1.5-0.3-1-0.63-1.3-1.5-1.4-0.92-0.1-1.1-0.32-1.1-1.3v-1.2h-2.6c-2.3 0-2.6-0.087-2.6-0.8-0.028-0.44-0.075-1-0.1-1.3-0.038-0.34-0.86-0.5-2.6-0.5-2.6 0-4.5-1.8-2.5-2.3 0.36-0.096-0.6-0.2-2.1-0.22l-2.8-0.046-0.015-33c-0.012-24-0.16-34-0.53-38-0.74-6.9-0.77-9.6-0.14-12 0.57-2.1 0.94-9.4 0.47-9.4-0.14 0-0.28-0.54-0.3-1.2-0.019-0.66 0.16-1.2 0.39-1.2 0.27 0 0.26-0.2-0.046-0.56-0.33-0.4-0.34-0.64-0.033-0.83 0.24-0.15 0.35-0.57 0.24-0.93-0.11-0.37 0.063-1.2 0.38-1.9 0.36-0.74 0.49-0.86 0.35-0.31-0.12 0.49-0.028 1.2 0.21 1.6 0.34 0.56 0.41 0.33 0.32-1.1-0.07-1.2-0.27-1.8-0.62-1.7-0.39 0.08-0.42-0.083-0.1-0.67 0.23-0.43 0.31-1.1 0.17-1.4-0.14-0.36-0.032-0.63 0.25-0.63 0.31 0 0.42 0.37 0.3 1-0.23 1.2 6e-3 1.3 0.41 0.22 0.16-0.43 0.31 1.5 0.34 4.3 0.033 3-0.073 4.7-0.26 4.1-0.31-0.99-0.32-0.99-0.36-0.073-0.022 0.51 0.14 1.3 0.36 1.7 0.25 0.48 0.28 1.3 0.056 2.3-0.22 0.99-0.17 2.6 0.13 4.5 0.39 2.4 0.48-4 0.46-35-0.017-32-0.1-38-0.57-37-0.3 0.3-0.71 0.45-0.91 0.33-0.2-0.12-0.25 0.059-0.12 0.4 0.19 0.49 0.37 0.53 0.79 0.17 0.69-0.57 0.73 0.088 0.053 0.81-0.4 0.42-0.4 0.57 0 0.71 0.27 0.1 0.5 0.56 0.5 1 0 1.1-0.54 0.57-1.6-1.5-0.71-1.4-0.75-2.2-0.55-12 0.23-11 0.025-15-0.88-15-0.44-0.17-0.48-8e-3 -0.18 0.79 0.49 1.3 0.48 1.8-0.04 1.8-0.23 0-0.31-0.18-0.18-0.4 0.21-0.34-0.22-0.54-1-0.48-0.27 0.024-0.34-0.86-0.41-5.2-0.057-3.6-0.9-5-2.4-4-0.25 0.15-0.29-0.31-0.11-1.3 0.2-1.1 0.15-1.4-0.18-1.2-0.25 0.16-0.35 0.47-0.21 0.7 0.16 0.25-0.076 0.24-0.59-0.042-0.47-0.25-0.85-0.32-0.85-0.16 0 0.8-0.78-0.64-0.99-1.8-0.13-0.75-0.35-1.5-0.48-1.8-0.14-0.23-0.039-0.27 0.25-0.091 0.36 0.22 0.46-0.014 0.36-0.84-0.1-0.9-0.36-1.2-1.2-1.3-0.82-0.095-1.1-0.37-1.2-1.2-0.095-0.8-0.42-1.1-1.4-1.4-0.99-0.25-1.3-0.57-1.4-1.4-0.098-0.86-0.36-1.1-1.2-1.2-0.78-0.089-1.2-0.41-1.3-1.1-0.24-0.97-1.7-1.7-2.5-1.2-1.1 0.68-2.7-0.23-2.7-1.5 0.031-1.2-0.066-1.3-1.3-1.3-1.1 3e-3 -1.3-0.15-1.3-0.88 0-1.1-1.2-1.8-3.1-1.7-3.8 0.19-4.4 0.037-4.6-1.1-0.2-1.8-4.7-2.1-15-1.1-2.8 0.27-4.8-0.23-4.8-1.2 0-0.54-11-0.61-104-0.6l-104 4e-3 -0.77 1.6m235 3.8c0.57 0.68 0.59 0.83 0.11 0.83-0.32 0-0.5-0.14-0.4-0.3 0.1-0.17 6e-3 -0.42-0.22-0.56s-0.41-0.45-0.41-0.69c0-0.24 0.047-0.37 0.1-0.28 0.058 0.091 0.42 0.54 0.8 1m-205 20c2.4 0.12 6.7 0.28 9.6 0.35 2.9 0.075 5.7 0.34 6.3 0.58 1.6 0.62 4.1 0.56 5.4-0.13 1.2-0.6 29-0.21 30 0.42 0.71 0.44 38 0.17 40-0.29 1.2-0.31 2.9-0.26 6.6 0.22 7 0.9 61 0.88 66-0.027 2.3-0.43 3.7-0.48 5.4-0.19 1.3 0.21 7.5 0.51 14 0.66l12 0.27 1.2 1.2c0.65 0.65 1.9 1.5 2.8 1.8 2 0.8 2.6 2.2 3 6.5 0.18 2.3 0.46 3.4 1 4 0.41 0.48 0.88 1.3 1 1.9 0.72 2.6 0.047 118-0.71 121-0.47 2.1-0.68 7.1-1.5 37-0.35 13-0.4 13-3.4 14-2.6 0.74-14 0.57-15-0.24l-1.2-0.63 0.067-3.5c0.04-2.1-0.2-4.6-0.59-6.3-0.49-2.1-0.72-5.9-0.93-15-0.17-7.7-0.44-13-0.71-13-0.24-0.39-0.79-1.3-1.2-2-1.7-2.8-3.5-4.3-5.5-4.6-1.4-0.21-2.1-0.56-2.7-1.4l-0.8-1.1-7.9 0.22c-4.3 0.12-8.4 0.34-9.1 0.5-0.66 0.16-3.1 0.15-5.3-0.027-4.1-0.31-4.2-0.3-6 0.77-1.8 1-2.1 1.1-9.2 1.3-6.6 0.18-7.4 0.28-7.7 0.94-0.23 0.4-1.1 1-1.9 1.4-3.2 1.5-5.6 5-5.6 8.4 0 1.3-0.39 3.6-0.86 5.1-0.81 2.6-0.83 3-0.35 6.4 0.31 2.3 0.46 6.7 0.39 12-0.065 4.3 0.022 9.5 0.19 11 0.68 7.8-4.9 14-7.7 8.2-1.2-2.4-2.3-2.8-6-2.4-3.6 0.4-3.8 0.54-2.1 1.8 3.2 2.5 0.37 4-5 2.7-2.3-0.57-3-0.6-5.7-0.17-4.7 0.77-6.9 0.045-7.3-2.4-0.2-1.5-2.6-2-4.4-0.9-0.94 0.57-2.3 0.85-4.9 1-2.7 0.16-4.7 0.58-7.7 1.6-3.5 1.2-4.3 1.3-5.3 0.98-0.79-0.28-2.4-0.32-4.5-0.12-1.8 0.17-14 0.36-27 0.42-13 0.062-24 0.13-24 0.15-1.4 0.13-3.3 3.3-2.7 4.5 0.7 1.4 0.23 2.9-1 3.3-1 0.32-1.3 1.7-1.3 6.7v4l3.6 3.6 22-0.077c26-0.093 25-0.34 24 5.8-0.32 1.4-0.48 15-0.54 45l-0.085 43-4.2 4.2-26 0.079c-26 0.079-32 0.34-34 1.5-1.7 0.87-4 0.8-5-0.16-0.71-0.66-1.7-0.82-6.6-1-3.6-0.17-6.2-0.48-7-0.84-3.4-1.6-6-3.2-6.7-4.2-0.73-1-0.75-5.1-0.71-154l0.033-153 1.3-1.3c0.71-0.71 1.6-1.6 2-2s0.88-0.92 1.1-1.2c0.25-0.25 0.8-0.84 1.2-1.3 0.48-0.54 1.2-0.84 2.1-0.84 0.78 0 1.8-0.37 2.5-0.88 1.7-1.4 16-1.7 33-0.9m227 0.57c0.6 0.9 0.59 0.92-0.22 0.49-0.46-0.25-0.95-0.74-1.1-1.1-0.36-0.94 0.56-0.51 1.3 0.61m5.6 38c-0.01 0.64-0.075 0.6-0.33-0.2-0.44-1.4-0.44-2.4 0-1.4 0.19 0.44 0.34 1.2 0.33 1.6m-226 1.1c-0.017 0.055-0.24 0.85-0.5 1.8-0.34 1.2-0.94 2-2.3 3-1.3 1-1.9 1.8-2.4 3.2-0.33 1-0.9 2.2-1.3 2.6-1.4 1.6-1.6 2.3-0.94 3.7 1.8 3.8 4.4 5.8 6.5 5 0.51-0.19 13-0.26 28-0.16 24 0.17 85 0.21 102 0.069l7.1-0.056 3.4-3.4 0.13-5.5c0.2-8.7 0.84-8.4-18-8.5-11-0.036-14-0.15-15-0.64-1.1-0.5-1.4-0.51-2.2-0.067-1.5 0.85-28 0.94-31 0.11-1.6-0.36-3.3-0.5-4-0.34-0.68 0.16-8.1 0.33-16 0.39-8.3 0.059-23 0.26-32 0.46-17 0.36-18 0.28-20-1.1-0.92-0.72-1.4-0.96-1.5-0.69m226 42c-0.082 1-0.15 0.19-0.15-1.9s0.068-2.9 0.15-1.9 0.082 2.7 0 3.8m-3.1 2.1c1.4 0.72 0.62 4.8-0.86 4.8-0.67 0-0.76-0.31-0.76-2.6 0-2.7 0.2-2.9 1.6-2.2m-123 6.5c-1.5 0.21-25 0.44-53 0.53l-51 0.15-1.7 1.8c-0.96 1-1.7 2.1-1.7 2.4 0 0.3-0.35 0.77-0.77 1-0.63 0.4-0.69 0.63-0.32 1.3 0.24 0.45 0.48 2.4 0.52 4.4 0.074 3.7 0.56 5.7 1.5 6 0.28 0.1 24 0.26 54 0.34 29 0.085 54 0.16 54 0.17 0.33 9e-3 8.5-0.11 18-0.25 19-0.29 19-0.23 20-2.7 1.5-2.3 2.5-3 3.8-3 2 0 2.3-0.66 2-3.8-0.23-2.3-0.41-2.7-1.2-3.1-0.51-0.23-1-0.74-1.2-1.1-0.12-0.39-0.94-1.3-1.8-2.1l-1.6-1.4-15-0.014c-12-0.011-16-0.15-18-0.58-2.9-0.63-2.7-0.63-6.4-0.1m123 1.3c0.21-0.13 0.27-0.4 0.15-0.6-0.13-0.2-0.04-0.37 0.19-0.37s0.35 0.4 0.27 0.9 0.055 1.2 0.3 1.5c0.36 0.46 0.33 0.5-0.15 0.22-0.53-0.31-0.53-0.27-0.015 0.37 0.52 0.64 0.5 0.78-0.12 1.2-0.51 0.37-0.56 0.56-0.2 0.68 0.3 0.1 0.19 0.26-0.29 0.38-0.74 0.2-0.81 7e-3 -0.86-2.6-0.03-1.6 0.035-2.5 0.14-2.1 0.11 0.39 0.37 0.6 0.57 0.47m2.5 8.6c0 0.77 0.082 1.1 0.18 0.7s0.1-1 0-1.4-0.18-0.07-0.18 0.7m-230 44c-2 0.4-2 0.52-2 9v8l2.6 2.6 38 0.25c46 0.3 60 0.042 61-1.1 0.24-0.42 0.98-1.4 1.6-2.2 1.3-1.5 1.6-5 0.6-6.9-0.26-0.48-0.68-2.2-0.94-3.7l-0.47-2.9-5.2-2.6-6.6 0.017c-3.6 0.01-7.4 0.18-8.4 0.37-1.1 0.21-3 0.2-4.8-0.015-1.6-0.2-9-0.45-16-0.54-7.4-0.097-14-0.21-14-0.24-0.22-0.036-1.9 0.14-3.8 0.39-1.9 0.25-3.6 0.44-3.8 0.41-0.22-0.026-7.3-0.2-16-0.39-8.5-0.19-17-0.43-18-0.53-1.4-0.1-3-0.099-3.6 0.013m155 16c5.3 2.8 4.8 0.74 4.7 19l-0.12 15 1.2 2.3c1 2 1.2 2.7 1.2 5.3 0 3.1 0.64 4.2 2.4 4.2 0.35 0 1.3 0.52 2.2 1.2 1 0.76 2.5 1.3 4.2 1.6 1.4 0.26 3.1 0.76 3.8 1.1 1.1 0.57 3.5 0.63 21 0.55 22-0.11 21-0.23 25 3.1 2.2 2.1 2.8 2.4 4 2.4 1.8 0 2.3 0.56 2.7 3.3 0.2 1.2 0.63 2.7 0.96 3.3 1.4 2.8 1.5 6.1 1.3 48-0.2 42-0.22 43-2 46-2.1 4.4-7.8 4.8-72 4.3-22-0.15-41-0.26-42-0.24-1.1 0.018-3.7 0.074-5.8 0.12-3 0.071-4-0.052-4.8-0.56-0.83-0.55-1.2-0.57-2-0.15-1.6 0.83-22 1.1-24 0.34-0.88-0.34-2.6-0.97-3.9-1.4-3.5-1.2-3.2 2.9-3.4-48-0.15-48-0.13-48 1.5-48 0.23 0 0.42-0.26 0.42-0.57 0-1.8 2-3.1 4.9-3.1 8.3-0.071 17-0.059 20 0.026 1.6 0.053 6.2-0.023 10-0.17 4.9-0.18 8-0.11 9.9 0.22 2 0.36 3.3 0.37 5.2 0.035 1.4-0.24 4.4-0.71 6.7-1 3.8-0.54 4.3-0.71 5-1.7 0.44-0.6 1.4-1.7 2.2-2.4l1.4-1.3-0.02-9.3c-0.015-7.1-0.16-9.7-0.58-11-0.31-0.75-0.5-2-0.43-2.8 0.12-1.2-0.69-13-1.3-20-0.26-2.7 0.7-4.5 2.9-5.6 1-0.48 1.9-1.2 2.1-1.9 1.1-2.5 2.5-3 9.4-3.1 4.2-0.035 5 0.07 6.4 0.8m-159 120c4e-3 0.98 0.099 1.2 0.39 0.7 0.51-0.78 0.51-2 0-2-0.22 0-0.4 0.58-0.39 1.3m141 17c0.079 0.24 0.31 0.43 0.52 0.43 0.21 0 0.44-0.19 0.52-0.43 0.078-0.24-0.16-0.43-0.52-0.43-0.37 0-0.6 0.19-0.52 0.43m-2.7 4.1c-0.73 1.6 0.37 2.6 1.5 1.3 0.35-0.42 0.36-0.78 0.035-1.4-0.57-1.1-0.99-1-1.5 0.075m42-0.24c-1.9 0.79-1.9 1.4 0.081 3.4 2 2.2 3.9 1.6 3.7-1.1-0.17-2.7-1.3-3.4-3.8-2.3m-81 11-0.82 0.67 0.84 0.76c1 0.91 3.7 0.48 3.9-0.62 0.2-1-2.9-1.7-3.9-0.8m-149 30c0.4 0.44 0.52 0.8 0.28 0.8-0.24 0-0.64-0.36-0.87-0.8s-0.36-0.8-0.28-0.8c0.083 0 0.48 0.36 0.87 0.8m281 7.2c-0.36 0.4-0.82 0.62-1 0.5-0.5-0.31 0.3-1.2 1.1-1.2 0.53 0 0.52 0.096-0.047 0.72" fill="#060505"/>
<path d="m61 19c0 0.4-0.43 0.61-1.3 0.64-2.8 0.083-3.2 0.18-3.4 0.66-0.1 0.31 0.06 0.41 0.42 0.27 0.33-0.12 0.71-0.035 0.86 0.2 0.4 0.64 0.93 0.51 1.1-0.27 0.15-0.58 0.19-0.55 0.23 0.12 0.047 0.83 0.75 1.8 1.3 1.8 0.38 0 2.3-3 2.3-3.6 0-0.22-0.36-0.41-0.8-0.41-0.44 0-0.8 0.27-0.8 0.6m210 0.01c0 0.84 1.7 1.4 4.1 1.4 3.4-0.046 4.1-0.71 0.77-0.74-2.3-0.023-2.9-0.15-2.9-0.63 0-0.37-0.38-0.6-1-0.6-0.63 0-1 0.23-1 0.61m-220 1.4c-1 0.41-1.2 2-0.28 2 0.34 0 0.53-0.15 0.41-0.34-0.12-0.19 0.15-0.72 0.59-1.2 0.86-0.92 0.7-1-0.73-0.45m-5.8 2.2c-0.15 0.15-0.27 0.69-0.27 1.2 0 0.8-0.2 0.93-1.4 0.93-0.77 0-1.4 0.16-1.4 0.35 0 0.19 0.76 0.2 1.7 0.017 0.93-0.18 1.8-0.34 2-0.34 0.18-0.01 0.21-0.2 0.076-0.42-0.14-0.22-0.095-0.4 0.09-0.4 0.19 0 0.34-0.36 0.34-0.8 0-0.78-0.63-1.1-1.2-0.53m250 0.44c0 0.24 0.18 0.56 0.41 0.69s0.32 0.39 0.22 0.56c-0.1 0.17 0.074 0.3 0.4 0.3 0.47 0 0.45-0.15-0.11-0.83-0.38-0.46-0.74-0.91-0.8-1-0.057-0.092-0.1 0.032-0.1 0.28m-255 2.4c0.16 0.25 0.094 0.46-0.14 0.46-0.57 0-0.54 1.1 0.038 1.4 0.29 0.18 0.35 0.11 0.16-0.19-0.16-0.26-0.092-0.72 0.16-1 0.34-0.41 0.33-0.62-0.028-0.84-0.3-0.19-0.38-0.13-0.2 0.16m-3.9 3.1-0.68 0.91 1.4-0.83c1.6-0.96 1.6-0.98 0.68-0.98-0.4 0-1 0.41-1.4 0.91m-4.9 5.2c-0.17 0.39-0.33 0.9-0.35 1.1-0.019 0.22-0.26 0.42-0.53 0.45-0.27 0.027-0.64 0.072-0.81 0.1-0.17 0.027-0.34 0.41-0.38 0.86s0.11 0.7 0.31 0.58c0.21-0.13 0.38-0.54 0.38-0.91 5e-3 -0.52 0.083-0.55 0.34-0.14 0.31 0.48 0.8-0.069 1-1.1 0.022-0.11 0.19-0.44 0.37-0.72s0.25-0.61 0.14-0.72c-0.1-0.1-0.33 0.13-0.5 0.53m283 6.9c0.14 0.23 0.36 0.33 0.48 0.21 0.12-0.12 0.52-0.049 0.89 0.15 0.5 0.26 0.68 0.21 0.68-0.21 0-0.37-0.41-0.58-1.2-0.58-0.72 0-1.1 0.16-0.89 0.43m-287 1.1c-0.03 0.39 0.2 0.71 0.52 0.71 0.71 0 0.73-0.43 0.054-1-0.39-0.32-0.53-0.25-0.57 0.28m34 2c-0.9 0.13-2.1 0.64-2.7 1.1-0.65 0.51-1.7 0.88-2.5 0.88-0.86 0-1.6 0.3-2.1 0.84-0.42 0.46-0.96 1-1.2 1.3-0.25 0.25-0.76 0.78-1.1 1.2s-1.3 1.3-2 2l-1.3 1.3-0.033 153c-0.032 149-0.013 153 0.71 154 0.67 0.92 3.3 2.6 6.7 4.2 0.75 0.35 3.4 0.67 7 0.84 4.9 0.23 5.9 0.39 6.6 1 1 0.95 3.3 1 5 0.16 2.2-1.2 8.2-1.4 34-1.5l26-0.079 4.2-4.2 0.085-43c0.06-30 0.22-44 0.54-45 1.4-6.2 2.4-5.9-24-5.8l-22 0.077-3.6-3.6v-4c0-5 0.27-6.4 1.3-6.7 1.3-0.4 1.7-1.9 1-3.3-0.58-1.2 1.4-4.4 2.7-4.5 0.19-0.019 11-0.085 24-0.15 13-0.063 25-0.25 27-0.42 2.1-0.2 3.7-0.15 4.5 0.12 1 0.37 1.8 0.22 5.3-0.98 3-1 5-1.5 7.7-1.6 2.6-0.15 4-0.44 4.9-1 1.8-1.1 4.2-0.58 4.4 0.9 0.33 2.4 2.6 3.1 7.3 2.4 2.6-0.43 3.4-0.41 5.7 0.17 5.3 1.3 8.2-0.18 5-2.7-1.6-1.3-1.5-1.4 2.1-1.8 3.8-0.42 4.9 2e-3 6 2.4 2.8 5.6 8.3-0.38 7.7-8.2-0.17-2-0.26-7.1-0.19-11 0.074-4.9-0.074-9.3-0.39-12-0.48-3.5-0.45-3.9 0.35-6.4 0.47-1.5 0.86-3.8 0.86-5.1 0-3.3 2.4-6.9 5.6-8.4 0.8-0.36 1.6-0.99 1.9-1.4 0.37-0.66 1.2-0.76 7.7-0.94 7.1-0.19 7.4-0.24 9.2-1.3 1.8-1.1 1.9-1.1 6-0.77 2.3 0.17 4.7 0.19 5.3 0.027 0.66-0.16 4.7-0.39 9.1-0.5l7.9-0.22 0.8 1.1c0.61 0.85 1.3 1.2 2.7 1.4 2 0.3 3.9 1.9 5.5 4.6 0.44 0.73 0.99 1.6 1.2 2 0.27 0.44 0.54 5.3 0.71 13 0.21 9.2 0.44 13 0.93 15 0.39 1.7 0.63 4.2 0.59 6.3l-0.067 3.5 1.2 0.63c1.6 0.8 13 0.98 15 0.24 3-0.85 3-1.1 3.4-14 0.82-30 1-35 1.5-37 0.75-3.3 1.4-119 0.71-121-0.16-0.56-0.63-1.4-1-1.9-0.54-0.62-0.82-1.8-1-4-0.33-4.3-0.98-5.7-3-6.5-0.87-0.35-2.1-1.2-2.8-1.8l-1.2-1.2-12-0.27c-6.4-0.15-13-0.45-14-0.66-1.7-0.29-3.1-0.24-5.4 0.19-4.8 0.9-59 0.93-66 0.027-3.7-0.48-5.4-0.54-6.6-0.22-1.8 0.46-39 0.73-40 0.29-1-0.62-29-1-30-0.42-1.3 0.69-3.9 0.75-5.4 0.13-0.62-0.24-3.5-0.51-6.3-0.58-2.9-0.076-7.2-0.24-9.6-0.35-6.7-0.33-28-0.49-30-0.22m256 0.18c0.14 0.35 0.63 0.85 1.1 1.1 0.81 0.43 0.82 0.42 0.22-0.49-0.74-1.1-1.7-1.5-1.3-0.61m-244 1.5c1.9 9e-3 6.1 2e-3 9.4-0.014 4-0.02 7.1 0.18 9.2 0.59 2.9 0.57 89 1 182 0.98l12-6e-3 1 1.2c0.57 0.64 1.5 1.4 2.1 1.6 2.1 0.92 2.9 2.4 3.1 6.3 0.18 2.8 0.44 3.9 1.3 5.3l1.1 1.8-0.026 34c-0.019 25-0.15 34-0.52 36-1.1 5-1.2 7.8-0.78 19 0.34 8.6 0.34 13-0.012 20-0.26 4.5-0.65 19-0.87 32s-0.49 24-0.6 25c-0.31 2-2.5 2.5-5.7 1.5-1.3-0.44-2.4-0.67-2.4-0.51 0 1-4.9 1.6-6.9 0.85-0.85-0.32-0.98-0.74-1.4-4.5-0.28-2.3-0.86-6-1.3-8.3-0.58-3-0.87-6.9-1.1-14l-0.29-10-1.3-1.2c-0.71-0.65-1.3-1.4-1.3-1.7 0-1-3.1-3.5-4.9-3.8-1.1-0.19-2.1-0.69-2.8-1.5l-1.1-1.2-29 0.48-2.2 2.2-14 0.03-2.2 1.5c-1.2 0.8-2.5 1.7-2.8 2.1-6 6.2-5.6 4.3-5.7 32-0.08 19-0.023 19-2.5 19-1.6 0-2.2-0.83-2.2-3 0-2.2-2.4-2.7-4.6-0.98-0.24 0.19-1.8 0.52-3.4 0.73-1.6 0.21-3.6 0.57-4.3 0.79-0.92 0.27-2.9 0.28-6 0.015-11-0.89-20-0.43-23 1.2l-1.6 0.83-1.2-1c-1.2-1-1.2-1-9.3-0.99-4.5 0.01-9.7 3e-3 -12-0.016-2-0.02-4.7 0.093-6 0.25-1.5 0.18-3 0.12-3.8-0.18-3.6-1.2-6.6 0.87-4.5 3l1 1-3.1-0.076c-1.7-0.042-6.5 2e-3 -11 0.097-7.4 0.17-7.6 0.16-8.6-0.75-2-1.7-3.8-0.99-8 3.1-2.2 2.2-2.3 2.6-0.87 3.9l1.1 0.93-2.7 2.2v5.8 5.8l3.9 3.7 14 0.08c7.6 0.043 18 0.088 22 0.099l8.6 0.021 0.23 1c0.4 1.7-0.16 90-0.58 90-1.6 3.5-4.8 4.7-8.9 3.4-1.5-0.51-1.9-0.5-3.6 0.12-1.5 0.54-3.2 0.68-7.9 0.68-3.3-6e-3 -8 0.09-11 0.21s-6.3 0.022-8.4-0.22c-4.6-0.55-4.2-0.55-13 0.092-7.4 0.55-9.4 0.36-9-0.85 0.58-2.1 0.42-7.8-0.24-8.2-1.1-0.68-2.4 0.7-1.9 2 1.5 4-1.4 8.7-4.7 7.8-0.67-0.19-3.7-0.48-6.8-0.65-4.5-0.24-5.7-0.43-6.5-1-0.53-0.41-1.6-0.86-2.5-0.99-1-0.16-2-0.73-3-1.7l-1.5-1.5 0.092-305 2.9-3c2.5-2.5 3.2-3 4.3-3 0.73-0.01 2.3-0.45 3.5-0.98 1.9-0.84 2.6-0.94 5.8-0.77 2 0.1 5.1 0.2 7 0.21m-49 5.7c4e-3 0.88 0.086 1.2 0.18 0.69 0.095-0.5 0.091-1.2-8e-3 -1.6-0.1-0.38-0.18 0.025-0.17 0.9m151-1c-0.37 0.23-0.35 0.41 0.083 0.77 0.44 0.36 0.67 0.34 1-0.088 0.55-0.66-0.3-1.2-1.1-0.68m144 1.2c0 0.42 0.097 0.76 0.21 0.75 0.79-0.069 1.2 0.14 1 0.48-0.14 0.22-0.056 0.4 0.18 0.4 0.67 0 0.49-1-0.31-1.7-0.94-0.85-1.1-0.83-1.1 0.11m-165 2.7c-0.46 0.59-0.84 1.2-0.84 1.5 0 0.21-0.36 0.84-0.8 1.4-0.98 1.2-0.54 2 1.4 2.3 1.7 0.32 2.4-0.24 2.8-2.2 0.5-2.9-1.1-4.8-2.6-3m-130 0.56c0 0.77 0.082 1.1 0.18 0.7 0.1-0.38 0.1-1 0-1.4-0.1-0.38-0.18-0.07-0.18 0.7m151 0.14c-1.8 2.7-0.27 6 1.9 4.2 1.4-1.1 1.4-3.1 0.14-4.3-1.2-1.1-1.3-1.1-2.1 0.067m61 1.2c-0.72 2.4-0.019 3.7 1.6 3.1 1.4-0.54 1.5-1.2 0.31-2.4-1.2-1.3-1.7-1.4-1.9-0.67m-213 1.5c0 0.76 0.2 1.2 0.55 1.2 0.31 0 0.63-0.53 0.73-1.2 0.14-0.96 0.03-1.2-0.55-1.2-0.54 0-0.73 0.3-0.73 1.2m229 5.4c-0.25 0.66 0.34 1.2 0.92 0.82 0.42-0.26 0.11-1.4-0.38-1.4-0.17 0-0.42 0.26-0.54 0.59m31 2.3c-0.78 0.78-0.59 3.7 0.31 4.8 0.78 0.92 0.81 0.93 1.4 0.17 1.5-1.9-0.14-6.5-1.7-4.9m39 8.3c9e-3 2 0.24 3.4 0.74 4.4 1 2 1.5 2.4 1.5 1.4 0-0.48-0.19-0.88-0.43-0.88-0.25 0-0.32-0.34-0.16-0.85 0.17-0.53 0.12-0.75-0.13-0.6-0.22 0.14-0.5-0.019-0.63-0.34-0.13-0.34-0.022-0.55 0.26-0.5 0.64 0.12 0.39-1.4-0.31-1.9-0.3-0.23-0.62-1.1-0.72-2-0.097-0.87-0.17-0.25-0.16 1.4m-188 0.75c-0.13 0.6-0.3 1.3-0.38 1.6-0.25 0.83 0.79 1.4 1.6 0.81 0.63-0.46 0.64-0.62 0.062-2-0.74-1.8-0.92-1.8-1.2-0.39m189 6.5c0.02 1 0.65 2.7 0.66 1.8 6e-3 -0.44-0.14-1.2-0.33-1.6-0.21-0.49-0.34-0.57-0.33-0.2m-226 1.5c-1.5 0.18-2.3 1.3-2 3 0.14 0.98-0.08 1.4-1.4 2.4-1.2 0.93-1.6 1.6-1.8 2.8-0.17 1-0.65 2-1.4 2.6-2 1.8-2 5.7-0.055 7.5 0.57 0.53 1.2 1.4 1.5 1.8 0.24 0.49 0.85 1.1 1.3 1.3s1.3 0.86 1.9 1.4c1 0.95 1.2 0.91 2.8-0.6 0.28-0.26 4.2-0.29 11-0.092 14 0.38 16 0.4 27 0.23 6.5-0.097 10 0.024 13 0.42 2.7 0.43 6.1 0.5 15 0.3 6.6-0.14 21-0.25 32-0.24 11 7e-3 21-0.16 23-0.36 1.6-0.23 4.7-0.24 7.9-0.032 4.3 0.28 5.4 0.24 6.3-0.23 0.61-0.32 1.4-0.58 1.8-0.58 2.4-9e-3 4.3-3.6 4.3-8 1e-3 -1.5 0.18-3.6 0.4-4.7 0.33-1.8 0.28-2.3-0.34-3.5-0.4-0.81-0.85-1.9-0.99-2.5-0.32-1.3-1-1.6-2.8-1.1-1 0.32-2 0.3-3.5-0.042-2.7-0.59-2.4-0.59-5.7-0.025-3.6 0.62-8.6 0.33-9-0.53-0.73-1.3-3-1.6-4.3-0.63-1.8 1.3-5.9 1.6-7.4 0.39-1.3-1.1-2.4-1.1-5.1-0.023-1.4 0.54-3 0.8-4.7 0.77-1.4-0.025-3.8 0.075-5.4 0.22-2.3 0.21-3.3 0.12-4.9-0.46-1.9-0.7-2.1-0.7-3.2-0.011-1.3 0.77-7 0.38-9.7-0.67-1.8-0.69-40-0.51-41 0.19-0.54 0.31-2.3 0.54-4.3 0.56-1.9 0.02-8 0.15-14 0.29l-10 0.26-1.6-0.94c-2-1.1-2.8-1.4-4.5-1.1m2.6 2.1c1.8 1.4 3.2 1.5 20 1.1 9-0.19 23-0.4 32-0.46 8.3-0.058 16-0.23 16-0.39 0.73-0.17 2.4-0.027 4 0.34 3.7 0.83 30 0.74 31-0.11 0.78-0.45 1.1-0.44 2.2 0.067 1 0.49 3.7 0.6 15 0.64 19 0.062 19-0.23 18 8.5l-0.13 5.5-3.4 3.4-7.1 0.056c-18 0.14-78 0.098-102-0.069-15-0.1-27-0.03-28 0.16-2.1 0.78-4.8-1.3-6.5-5-0.65-1.4-0.47-2.1 0.94-3.7 0.37-0.43 0.94-1.6 1.3-2.6 0.45-1.4 1.1-2.2 2.4-3.2 1.3-0.99 1.9-1.8 2.3-3 0.26-0.91 0.48-1.7 0.5-1.8 0.085-0.26 0.59-0.03 1.5 0.69m225 16c0 3.4 0.062 4.8 0.14 3.1 0.075-1.7 0.075-4.5 0-6.2-0.074-1.7-0.14-0.31-0.14 3.1m-49 3.1c-0.55 0.61-0.59 0.95-0.24 1.9 0.48 1.3-0.53 2.6-2 2.6-2 0-2.2 0.98-0.83 2.9 1.3 1.8 1.3 1.9 2.2 1.1 0.46-0.42 1.5-1 2.3-1.4 1.5-0.61 1.5-0.67 1.4-2.5-0.047-1 0.048-2.4 0.21-3 0.51-1.8-1.8-3-3.1-1.6m49 9.6c0 2.1 0.067 2.9 0.15 1.9s0.082-2.7 0-3.8-0.15-0.19-0.15 1.9m-87-0.2c0 0.77 0.18 1.4 0.4 1.4s0.4-0.63 0.4-1.4c0-0.77-0.18-1.4-0.4-1.4s-0.4 0.63-0.4 1.4m31 1.7c0.1 0.52 0.44 0.66 1.3 0.56 2.3-0.27 2.3-1.3-0.06-1.3-1.1 0-1.4 0.14-1.3 0.7m-72 1.3c-2.9 1.7-3.1 4.8-0.4 4.8 1.9 0 2.4-0.58 2.4-2.6 0-2.2-0.72-3-2-2.2m128 7.2c0 2.1 0.068 2.9 0.15 1.9s0.082-2.7 0-3.8-0.15-0.19-0.15 1.9m-144-1.5c-0.26 0.26-0.48 0.9-0.48 1.4 0 0.52-0.2 1.7-0.43 2.7-0.39 1.6-0.33 1.9 0.63 3.8l1.1 2.1 0.95-0.95c1.3-1.3 1.6-8.1 0.4-9-0.95-0.7-1.5-0.72-2.1-0.09m22 5c-0.76 0.62-0.84 0.92-0.52 2 0.43 1.5-0.11 1.8-3.9 2.5-1.2 0.22-3.3 0.79-4.7 1.3-2.3 0.76-3 0.82-7.2 0.56-2.6-0.16-4.9-0.25-5.3-0.2-0.33 0.047-20 0.11-44 0.13-46 0.051-44-0.019-45 1.9-0.13 0.41-0.56 0.84-0.95 0.97-0.4 0.12-0.93 0.7-1.2 1.3s-0.91 1.4-1.4 1.8c-1.6 1.3-1.3 9 0.56 12 1.7 2.6 2.2 2.7 6.9 2.7 2.3-0.019 13 0.12 23 0.32s20 0.21 21 0.031c1.2-0.18 5.1-0.15 8.6 0.067 8.2 0.5 25 0.51 30 0.01 7.3-0.72 13-0.66 17 0.17l3.4 0.76 2.6-0.85c2-0.64 2.9-0.76 3.8-0.49 3.1 0.88 22 0.44 28-0.65 3.8-0.68 5.2-1.6 5.7-3.8 0.21-0.96 0.5-1.2 1.7-1.4 3.2-0.5 3.5-0.84 3.4-4.6-0.043-3.2-0.11-3.4-1.2-4.4-0.63-0.56-1.5-1.7-1.9-2.6-1.3-2.6-1.4-2.6-20-2.7-18-0.12-17-0.034-17-2.3-3e-3 -0.55 0.37-1.6 0.82-2.3 0.91-1.5 0.72-1.9-1.1-2.3-0.84-0.17-1.5-0.024-2.1 0.49m28 0.057c-1.9 0.22-2 0.77-0.26 1.1 1.7 0.29 3.4-0.027 3.1-0.57-0.28-0.46-1.4-0.66-2.8-0.5m88 2.7c0 2.3 0.091 2.6 0.76 2.6 1.5 0 2.2-4.1 0.86-4.8-1.4-0.76-1.6-0.49-1.6 2.2m-155-1.2c-2 0.84-2.5 1.7-1.2 2.2 2.4 0.9 3.7 0.16 2.9-1.6-0.44-0.98-0.53-1-1.7-0.53m158 2c0.13 0.34 0.055 0.98-0.17 1.4-0.31 0.59-0.29 0.75 0.1 0.67 0.35-0.072 0.55 0.47 0.62 1.7 0.082 1.4 0.014 1.6-0.32 1.1-0.24-0.39-0.33-1.1-0.21-1.6 0.14-0.55 3e-3 -0.44-0.35 0.31-0.32 0.66-0.49 1.5-0.38 1.9 0.11 0.36-2e-3 0.78-0.24 0.93-0.31 0.19-0.3 0.43 0.033 0.83 0.3 0.37 0.32 0.56 0.046 0.56-0.23 0-0.41 0.54-0.39 1.2 0.018 0.66 0.15 1.2 0.3 1.2 0.47 0 0.1 7.3-0.47 9.4-0.62 2.3-0.61 4.2 0.051 12 0.26 2.9 0.51 6.6 0.57 8.1 0.058 1.5 0.15-2.3 0.21-8.6 0.058-6.3 0.26-12 0.45-12 0.32-0.74 0.35-0.72 0.43 0.2 0.047 0.55 0.24-0.71 0.43-2.8 0.19-2.1 0.26-4.8 0.16-6-0.12-1.5-0.076-1.9 0.16-1.2 0.21 0.63 0.32-0.86 0.28-4.1-0.032-2.8-0.19-4.7-0.34-4.3-0.4 1.1-0.64 0.96-0.41-0.22 0.12-0.62 8e-3 -1-0.3-1-0.28 0-0.39 0.27-0.25 0.63m-119 3.6c2 0.44 6.2 0.57 18 0.58l15 0.014 1.6 1.4c0.87 0.79 1.7 1.7 1.8 2.1 0.12 0.39 0.64 0.9 1.2 1.1 0.79 0.36 0.97 0.82 1.2 3.1 0.32 3.1-0.029 3.8-2 3.8-1.4 0-2.3 0.7-3.8 3-1.7 2.5-1.2 2.4-20 2.7-9.7 0.15-18 0.26-18 0.25-0.33-8e-3 -25-0.085-54-0.17-29-0.084-54-0.24-54-0.34-0.9-0.34-1.4-2.3-1.5-6-0.04-2-0.27-4-0.52-4.4-0.37-0.67-0.31-0.9 0.32-1.3 0.42-0.26 0.77-0.73 0.77-1 0-0.3 0.78-1.4 1.7-2.4l1.7-1.8 51-0.15c29-0.086 52-0.32 53-0.53 3.6-0.53 3.5-0.53 6.4 0.1m115 2.8c0.05 2.6 0.11 2.8 0.86 2.6 0.48-0.12 0.6-0.28 0.29-0.38-0.37-0.12-0.31-0.31 0.2-0.68 0.62-0.46 0.64-0.6 0.12-1.2-0.52-0.63-0.51-0.68 0.015-0.37 0.48 0.28 0.51 0.24 0.15-0.22-0.25-0.32-0.38-0.98-0.3-1.5s-0.042-0.9-0.27-0.9-0.32 0.17-0.19 0.37c0.13 0.2 0.061 0.48-0.15 0.6-0.21 0.13-0.46-0.085-0.57-0.47-0.11-0.39-0.18 0.57-0.14 2.1m-42 3c-0.75 0.75 0.18 1.6 1.2 1.1 0.62-0.33 0.69-0.53 0.31-0.99-0.58-0.69-0.87-0.71-1.5-0.1m45 4.6c-0.1 0.38-0.18 0.07-0.18-0.7 0-0.77 0.082-1.1 0.18-0.7s0.1 1 0 1.4m-48 0.054c-0.8 0.64-0.85 0.84-0.39 1.4 1.3 1.5 3.7 0.31 2.6-1.3-0.74-1.1-1-1.1-2.2-0.12m-37 19c0.48 0.19 0.99 0.76 1.1 1.3 0.7 2.4 2.2 5.1 3 5.3 2.3 0.73 3-3 0.87-4.5-0.56-0.38-1.4-1.1-2-1.6-0.66-0.61-1.4-0.89-2.4-0.87-1.2 0.021-1.3 0.08-0.62 0.37m-12 1.4c-0.52 0.55-0.86 1.1-0.77 1.1 1.7 1.5 4.2 0.46 3-1.2-0.8-1.1-1-1.1-2.2 0.098m-12 2.3c-0.56 1.2 0.086 3.2 0.95 3 1.1-0.36 1.3-2.3 0.4-3.2l-0.86-0.86-0.48 1.1m-88 0.96c-1.4 1.2-1.3 3 0.26 3.4 1.6 0.49 2.5-0.16 2.5-1.9 0-2.1-1.2-2.8-2.8-1.5m74 4.4c-1.5 0.32-1.6 1.3-0.086 1.7 1.5 0.5 2.4 0.11 2.2-0.97-0.15-1-0.48-1.1-2.1-0.78m122 1.4c5e-3 0.88 0.086 1.2 0.18 0.69 0.095-0.5 0.092-1.2-8e-3 -1.6-0.1-0.38-0.18 0.025-0.17 0.9m-39 1.1c-0.68 0.68-0.61 1.3 0.24 2.1 0.69 0.62 0.78 0.61 1.5-0.16 1.2-1.3-0.47-3.2-1.7-1.9m-146 10c-0.7 1.5-1.3 1.6-20 1.6h-18l-1-0.98c-1.2-1.1-3.5-1.2-4.6-0.2-0.35 0.32-1.2 0.78-1.9 1-1.9 0.68-2.1 1.3-2.1 9.8-0.018 8.6 0.34 11 1.9 12 1.6 0.78 69 1.4 90 0.8 9.8-0.27 12-0.55 12-1.9 0.13-0.42 0.58-0.94 1-1.2 1.4-0.74 1.7-3.2 1.2-8.9-0.26-2.8-0.36-5.8-0.22-6.6 0.48-2.9 0.37-2.9-23-3.1-10-0.093-19-0.33-20-0.52-0.88-0.2-2.2-0.2-3.1-2e-3 -4.5 1-10 0.29-11-1.4-0.33-1.3-0.93-1.3-1.5-0.019m-23 3c8.5 0.19 16 0.36 16 0.39 0.22 0.027 1.9-0.16 3.8-0.41 1.9-0.25 3.6-0.43 3.8-0.39 0.22 0.036 6.4 0.14 14 0.24 7.4 0.096 15 0.34 16 0.54 1.8 0.22 3.7 0.22 4.8 0.015 0.99-0.19 4.8-0.36 8.4-0.37l6.6-0.017 5.2 2.6 0.47 2.9c0.26 1.6 0.68 3.2 0.94 3.7 1 1.9 0.71 5.3-0.6 6.9-0.66 0.77-1.4 1.7-1.6 2.2-0.66 1.1-15 1.4-61 1.1l-38-0.25-2.6-2.6v-8c0-9.6-0.11-9.4 5.6-9 1.4 0.1 9.5 0.34 18 0.53m172 6.1c-0.31 1.2-0.13 2.3 0.41 2.4s0.76-2.5 0.25-3c-0.28-0.28-0.49-0.076-0.66 0.62m-51 8.7c-1.6 0.37-2.6 1.3-3.2 2.7-0.27 0.64-1.1 1.4-2.1 1.9-2.2 1.1-3.2 2.9-2.9 5.6 0.67 7.1 1.4 19 1.3 20-0.086 0.8-0.03 1.7 0.12 1.9 0.15 0.25 0.4-1.5 0.55-3.9 0.15-2.4 0.46-4.9 0.69-5.6 0.36-1 0.29-1.4-0.46-2.4l-0.89-1.2 0.98-2c0.91-1.8 0.95-2.2 0.6-4.9-0.57-4.5-0.2-5.8 1.9-6.7 0.93-0.4 2.2-1.3 2.7-1.9 2.1-2.5 8.4-3.4 11-1.6 0.53 0.35 1.7 0.84 2.5 1.1 2.2 0.66 2.9 2.1 3 5.7 3e-3 1.7 0.31 3.8 0.78 5.3l0.78 2.4-0.086-6.4c-0.092-6.9-0.19-7.2-2.2-8.3-4.4-2.4-4-2.2-9-2.2-2.6 0.023-5.4 0.18-6.1 0.35m-123 13c-1.3 1.5-0.86 5.4 0.55 5.4 1.4 0 1.9-3.7 0.68-5.2-0.64-0.79-0.77-0.82-1.2-0.26m28 0.76c-1.9 2.3-0.48 5.5 2.1 4.7 1.9-0.64 2.1-1.2 0.72-3.3-1.2-1.8-2.1-2.3-2.8-1.4m-44 0.35c-0.58 0.58-0.2 2.8 0.59 3.4 0.98 0.79 2-0.12 1.8-1.6-0.28-2-1.3-2.8-2.4-1.8m156 6.1c4e-3 0.88 0.086 1.2 0.18 0.69 0.096-0.5 0.092-1.2-8e-3 -1.6s-0.18 0.025-0.17 0.9m34 3.9c-0.64 0.64-0.58 2.2 0.1 2.4 0.6 0.23 1-0.5 1-1.7 0-0.95-0.54-1.3-1.1-0.69m-200 0.23c-0.52 0.52-0.11 0.87 0.99 0.87 0.66 0 1.2-0.16 1.2-0.35 0-0.4-1.9-0.84-2.2-0.52m7.6 0.46c-0.13 0.21 0.13 0.7 0.58 1.1 0.45 0.38 0.82 0.92 0.82 1.2 0 0.59 1.4 1.1 2 0.72 0.58-0.36 0.1-2.2-0.73-2.9-0.78-0.59-2.4-0.66-2.7-0.11m25 0.8c-1.1 0.45-1.4 1.3-1.1 3.3 0.59 3.7 3.6 3.2 4-0.56 0.27-2.4-0.96-3.5-2.9-2.7m38 0.53c-1.1 1.1-1.1 1.6-0.14 2.4 1.4 1.2 4.9 0.41 4.9-1.2 0-2-3.2-2.8-4.7-1.2m24 3.8c-0.13 0.6-0.29 1.4-0.37 1.8-0.21 1.1 0.75 1.6 2.6 1.4l1.7-0.12-0.052-1.6c-0.087-2.6-3.5-3.9-4-1.5m-28-0.35c-0.89 0.56-0.45 3.4 0.53 3.4 0.68 0 0.8-0.27 0.8-1.8 0-1.8-0.38-2.3-1.3-1.7m174 1.9c0.22 0.84 0.55 1.1 1.4 1.1 1 0.047 1 0.044 0.062-0.13-0.56-0.096-0.99-0.39-0.96-0.65 0.11-0.91-0.039-1.5-0.4-1.5-0.2 0-0.24 0.49-0.073 1.1m-190 8.7c0 0.084-0.46 0.15-1 0.15s-0.92-0.16-0.8-0.36c0.2-0.33 1.8-0.15 1.8 0.21m4.4-0.25c0.45 0.29 0.25 0.39-0.8 0.39-1 0-1.2-0.096-0.8-0.39 0.33-0.21 0.69-0.39 0.8-0.39 0.11 0 0.47 0.18 0.8 0.39m130 12-2.4 0.23 2.2 0.38c1.2 0.21 10 0.4 20 0.44l17 0.066 1.6 1.5c0.88 0.81 1.5 1.7 1.5 2.1-0.1 0.51 0.015 0.52 0.8 0.093 0.51-0.28 1.3-0.45 1.7-0.39 1.2 0.18-3.3-4-4.8-4.4-1.3-0.38-34-0.36-38 0.019m-44 3.8c-0.28 0.33-0.32 0.6-0.097 0.6 0.22 0 0.62-0.27 0.9-0.6 0.28-0.33 0.32-0.6 0.097-0.6-0.22 0-0.62 0.27-0.9 0.6m119 2.1c-0.054 1.4 0.069 1.7 0.63 1.7 0.6 0.024 0.58 0.073-0.091 0.34-0.78 0.31-0.78 0.31 0.015 0.74 0.7 0.37 0.82 0.3 0.88-0.54 0.05-0.61-0.13-0.97-0.49-0.97-0.36 0-0.63-0.54-0.73-1.5l-0.16-1.5-0.067 1.7m-28 0c0.46 0.38 1.1 1.4 1.4 2.3l0.61 1.6-0.17-1.7c-0.2-2-0.8-2.9-1.9-2.9-0.78 0-0.77 0.016 0.045 0.7m-145 2.3c-0.18 0.18-1.6 0.27-3.2 0.21-3-0.11-5 1.1-5 3 0 0.31-0.19 0.57-0.42 0.57-1.6 0-1.6 1.1-1.5 45 0.039 23 0.2 42 0.36 42 0.42 0 0.79-22 0.79-45-2e-3 -11 0.14-21 0.33-22s0.2-2 0.031-3c-0.76-4.6-0.25-15 0.78-16 0.21-0.13 0.66-0.9 0.99-1.7l0.61-1.5 3.9-0.23c6.2-0.36 6.5-0.36 11-0.011 2.5 0.18 6.3 0.3 8.4 0.27 9.8-0.16 16-0.13 20 0.099l4.6 0.25-1.1-0.99c-0.59-0.54-1-1.1-0.91-1.2 0.61-0.61-7.5-1.2-14-0.94-9 0.32-9.6 0.32-19 0.012-4.2-0.14-7.7-0.12-7.9 0.061m13 0.95c0.16 0.25-0.73 0.4-2.4 0.4-1.5 0-2.6-0.17-2.6-0.4 0-0.22 1.1-0.4 2.4-0.4 1.3 0 2.5 0.18 2.6 0.4m-74 30c-0.88 0.88-0.95 1.2-0.56 3.2 0.43 2.1 3.3 2.4 3.3 0.3 0-0.23 0.48-0.92 1.1-1.5 1.8-1.9-2-3.8-3.9-1.9m-7.4 18c-0.6 0.97 0.67 1.5 1.8 0.79 0.53-0.35 0.53-0.44 0-0.79-0.77-0.51-1.5-0.51-1.8-6e-3m-16 9.4c-1.1 1.1-0.52 5.4 0.83 5.9 1.6 0.63 3-1.3 2.6-3.7-0.5-2.7-1.9-3.7-3.4-2.3m1.8 1.7c-4e-3 0.38-0.18 0.97-0.39 1.3-0.29 0.46-0.39 0.29-0.39-0.7-4e-3 -0.71 0.17-1.3 0.39-1.3 0.22 0 0.4 0.32 0.39 0.7m22 0.76c-0.86 2.1 0.35 3.5 2 2.4 1.2-0.81 1.2-0.9 0.23-2.5-1-1.7-1.5-1.6-2.2 0.16m21 14c0 0.19-0.58 0.58-1.3 0.86-2.7 1.1-3.1 2-1.6 4.2l0.56 0.86 1.8-1c2.3-1.3 2.6-1.9 1.9-3.8-0.54-1.4-1.3-2-1.3-1.1m-51 1.9c-0.52 0.98 7e-3 2 0.88 1.6 0.78-0.3 0.8-0.69 0.093-1.7-0.53-0.73-0.56-0.72-0.97 0.045m33-0.19c-0.9 0.5-0.87 1.6 0.051 2.5 0.75 0.68 2.9-0.32 2.9-1.4 0-0.69-2.2-1.5-2.9-1.1m8.1 1.1c0 0.46 0.57 0.46 2 0 0.89-0.28 0.84-0.32-0.5-0.36-0.82-0.022-1.5 0.14-1.5 0.36m12 14c-0.34 1.1-0.31 1.4 0.13 1.6 0.42 0.16 0.55-0.18 0.55-1.4 0-1.9-0.14-2-0.69-0.21m-111 2.6c0 0.44 0.27 0.8 0.6 0.8 0.42 0 0.62 0.46 0.65 1.5 0.037 1 0.11 1.2 0.23 0.55 0.28-1.5-0.25-3.6-0.91-3.6-0.32 0-0.58 0.36-0.58 0.8m109 1c0 0.33 0.18 0.6 0.4 0.6 0.22 0 0.4-0.27 0.4-0.6 0-0.33-0.18-0.6-0.4-0.6-0.22 0-0.4 0.27-0.4 0.6m213 4.8c0.12 0.32 0.015 0.64-0.24 0.72-0.26 0.087-0.17 0.26 0.22 0.41 0.52 0.2 0.68 0.039 0.68-0.72 0-0.54-0.2-0.98-0.44-0.98-0.24 0-0.34 0.26-0.22 0.57m-319 4.7c0.21 0.4 0.48 0.73 0.6 0.73s0.082-0.22-0.073-0.5c-0.22-0.4-0.17-0.4 0.26 0 0.76 0.7 1.2 0.62 1.2-0.23 0-0.54-0.31-0.73-1.2-0.73-1 0-1.1 0.1-0.78 0.73m2.3 4.4c0.42 0.51 0.42 0.66 0 0.83-0.28 0.11 0.068 0.33 0.78 0.49 0.71 0.16 1.3 0.47 1.3 0.7s0.094 0.32 0.21 0.21c0.42-0.42-0.33-1.6-0.88-1.3-0.31 0.12-0.48 0.077-0.37-0.097 0.11-0.17-0.2-0.56-0.68-0.86-0.78-0.48-0.82-0.48-0.36 0.081m311 6.1-1.2 0.55 1.2 0.018c0.84 0.012 1.2-0.17 1.2-0.58 0-0.33-0.014-0.58-0.033-0.57-0.018 0.018-0.57 0.28-1.2 0.58m-300 7c0.24 0.44 0.63 0.8 0.87 0.8 0.25 0 0.12-0.36-0.28-0.8s-0.79-0.8-0.87-0.8c-0.084 0 0.04 0.36 0.28 0.8m4.3 3.3c0.3 0.38 1 0.69 1.6 0.69 0.93-0.011 0.97-0.059 0.32-0.44-0.4-0.23-0.83-0.32-0.96-0.19s-0.52 0.01-0.87-0.26c-0.56-0.44-0.57-0.42-0.088 0.2m34 3.3c-0.027 0.11-0.094 0.38-0.15 0.6s-0.12 0.59-0.15 0.82c-0.027 0.23-0.23 0.31-0.45 0.18-0.22-0.14-0.4-0.079-0.4 0.12s-1.6 0.4-3.5 0.44c-1.9 0.038-3.6 0.15-3.7 0.25s8.1 0.18 18 0.18 18-0.077 18-0.17-2.7-0.21-5.8-0.25c-5.8-0.083-7.2-0.48-6.7-1.8 0.18-0.47-1.1-0.56-7.6-0.56-4.3 0-7.8 0.089-7.9 0.2m243 0.43c-0.67 0.81 0.25 1 0.97 0.23 0.57-0.63 0.57-0.72 0.047-0.72-0.33 0-0.79 0.22-1 0.5m-255 2c0.38 0.1 1 0.1 1.4 0s0.07-0.18-0.7-0.18c-0.77 0-1.1 0.083-0.7 0.18m45 0.014c0.71 0.088 1.9 0.088 2.6 0 0.71-0.089 0.13-0.16-1.3-0.16-1.4 0-2 0.072-1.3 0.16" fill="#958d73"/>
<path d="m58 19c0 0.37 0.38 0.6 1 0.6s1-0.23 1-0.6c0-0.37-0.38-0.6-1-0.6s-1 0.23-1 0.6m215 0c0 0.47 0.53 0.6 2.4 0.6s2.4-0.13 2.4-0.6-0.53-0.6-2.4-0.6-2.4 0.13-2.4 0.6m-224 2c-0.89 0.89-0.78 1.4 0.32 1.4 0.7 0 1-0.27 1.1-1 0.22-1.2-0.5-1.3-1.5-0.37m-4.4 1.6c-0.8 0.19-1.8 1.2-1.8 1.8 0 1.1 2.3 0.25 2.5-0.87 0.097-0.66 0.16-1.2 0.14-1.2-0.017 0.026-0.39 0.13-0.83 0.23m270 16c0 1.1 0.13 1.2 1.2 1.2 1.4 0 1.6-0.87 0.31-1.8-1.3-0.88-1.5-0.78-1.5 0.58m-250 7.6c-8.5 0.73-9 0.83-9.4 1.8-0.19 0.51-0.81 1-1.4 1.2-0.63 0.16-1.1 0.63-1.3 1.2-0.13 0.53-0.75 1.2-1.4 1.6l-1.1 0.59-0.013 152c-0.014 162-0.094 154 1.6 154 0.66 0.13 1.2 0.55 1.3 1 0.12 0.45 0.51 0.82 0.86 0.82 0.52 0 0.57-0.16 0.24-0.77-0.23-0.42-0.41-1.4-0.41-2.2 0-0.78-0.3-2.2-0.67-3.1l-0.67-1.7 1.3-1.1c1.2-1 1.3-1.2 1-2.6-1.5-7.9-2.1-40-0.81-42 0.55-0.61 0.82-1.5 0.88-3 0.047-1.2 0.36-3.2 0.68-4.5 0.9-3.5 0.87-6-0.12-9.3-0.87-2.9-0.87-3.1-0.39-12 0.37-6.9 0.38-9.6 0.034-11-0.25-1.2-0.55-6-0.67-11-0.12-4.7-0.4-9.2-0.63-10-0.23-0.77-0.38-3.3-0.33-5.6 0.05-2.3 0.06-5.5 0.021-7.2-0.26-11-0.21-17 0.18-18 0.28-0.93 0.31-2.3 0.078-4-0.22-1.6-0.2-3.3 0.05-4.6 0.34-1.7 0.55-28 0.37-48-0.089-9.6 0.42-58 0.67-63 0.14-3.1 0.048-7.2-0.22-9.8-1.2-11-0.31-28 1.5-30 0.43-0.47 1.1-1.5 1.4-2.3 0.33-0.8 0.98-1.6 1.4-1.7s0.84-0.43 0.84-0.64c0-1.2 1.6-2 4.4-2 1.6 0 4.1-0.2 5.6-0.43 2-0.31 3.6-0.31 5.5-8e-3 2 0.32 36 1.1 40 0.88 0.33-0.02 14-0.098 29-0.17 20-0.095 29-0.28 31-0.6 1.3-0.33 2.5-0.34 4-0.052 1.2 0.22 7 0.42 13 0.43 22 0.052 24 0.049 28-0.034 2.1-0.046 11 0.026 20 0.16s21 0.3 27 0.35c19 0.19 22 0.64 22 3.3 0 0.31 0.3 1.1 0.66 1.8 0.43 0.83 0.7 2.4 0.76 4.6 0.099 3.3 0.72 4.9 2 4.9 0.5 0 0.99 1.7 0.99 3.5 0 0.54-0.48 1.8-1.1 2.8-0.99 1.7-1 2-0.6 3.6 0.56 2.1 0.6 3.9 0.12 5.6-0.24 0.83-0.19 1.6 0.15 2.4 1.2 3 0.9 16-0.58 21-0.26 1-0.45 4.3-0.42 7.4 0.023 3.1 0.074 9.4 0.11 14 0.1 12-0.46 68-0.72 72-0.12 2-0.28 8-0.35 13-0.08 6.3-0.3 10-0.62 11-0.87 2.9-0.25 5.9 1.3 6.3 0.68 0.14 1.3 0.2 1.3 0.14 0.3-0.34 0.69-32 0.79-64l0.11-37 0.89-2.4c2-5.4 1.6-62-0.46-62-0.59 0-1.2-3-1.1-5.3 0.18-4.5 0.054-5.4-0.81-5.6-0.44-0.11-0.97-0.66-1.2-1.2-0.29-0.75-0.72-1-1.7-1.1-1-0.097-1.3-0.34-1.4-1-0.19-1.3 4.1-1.3-96-1.5-52-0.1-97-0.3-100-0.44-6.7-0.35-23-0.44-26-0.16m255 3.3c0 0.28 0.36 0.73 0.8 1 0.9 0.56 0.99 0.39 0.38-0.73-0.47-0.87-1.2-1-1.2-0.27m-296 3.9c0 1.5 0.15 2 0.6 2 0.45 0 0.6-0.49 0.6-2s-0.15-2-0.6-2c-0.45 0-0.6 0.49-0.6 2m299 19c0 0.66 0.26 1.3 0.6 1.4 0.33 0.13 0.6 0.55 0.6 0.94 6e-3 0.61 0.064 0.62 0.39 0.11 0.61-0.94 0.47-2.2-0.33-2.9-1-0.93-1.3-0.83-1.3 0.49m-192 6.8c-2.4 0.62-8.3 1.2-13 1.2-2.2 0.017-5.1 0.17-6.4 0.34-3.5 0.45 7.2 0.59 36 0.48 13-0.052 26 0.058 29 0.24 2.9 0.19 5.4 0.19 6.1-0.018 0.67-0.22 2-0.18 3.6 0.095 1.4 0.25 2.8 0.44 3.1 0.43 0.5-0.012 12-0.65 15-0.8 0.68-0.042 0.63-0.14-0.32-0.66-1.3-0.7-2.2-0.73-27-0.64-17 0.059-42-0.41-44-0.83-0.44-0.12-1.4-0.063-2.2 0.13m76 1.6c-1.4 0.22-0.98 0.29 2.1 0.34 2.4 0.036 3.9-0.096 3.9-0.34 0-0.44-3.2-0.44-6 0m14-0.014c-0.87 0.54 1.1 0.64 7.8 0.39 3.5-0.13 6.1-0.28 5.8-0.35-1.5-0.28-13-0.32-14-0.046m-129 3.3c-0.62 0.51-1.4 1-1.8 1.2-1.5 0.55 0.064 6.3 1.7 6.3 0.67 0 0.78-0.28 0.78-2 0-2.1 0.69-3.2 2.1-3.2 0.65 0 0.77-0.18 0.58-0.9-0.13-0.49-0.24-1.2-0.25-1.6-8e-3 -1-1.7-0.89-3.1 0.23m151 8.4c-0.43 1.4-8e-3 2.9 0.7 2.4 0.46-0.28 0.48-2.6 0.04-3.3-0.22-0.35-0.46-0.081-0.74 0.84m-2.1 5.8c-0.01 0.16-0.17 1.1-0.36 2.1-0.38 2-0.2 2.8 0.6 2.8 1.2 0 1.9-3.7 0.89-4.7-0.54-0.54-1.1-0.63-1.1-0.18m-152 0.49c-0.23 0.38 0.42 2 0.81 2 0.1 0 0.19-0.54 0.19-1.2 0-1.2-0.51-1.6-0.99-0.81m148 6.1-1.4 0.85-64 0.07c-61 0.066-68 0.16-68 1 0 1.1 4.3 1.2 39 1.2 20 6e-3 41 0.035 48 0.066 27 0.13 47-0.073 48-0.5 0.44-0.24 1.2-1.1 1.6-2l0.81-1.6-0.91 0.029c-0.5 0.015-1.5 0.41-2.3 0.87m-137 1.9c0.14 0.22 0.68 0.4 1.2 0.4s1.1-0.18 1.2-0.4c0.15-0.24-0.34-0.4-1.2-0.4s-1.3 0.16-1.2 0.4m-6.2 23c-1.8 0.77-1.7 0.7-2 2.6-0.19 1.4-0.41 1.7-1.5 2.1-2.3 0.8-4.9 7.4-2.9 7.4 0.22 0 0.4-0.81 0.4-1.8 0-1.6 0.082-1.8 0.99-1.8 0.76 0 1.1-0.33 1.6-1.4 0.32-0.77 0.86-1.4 1.2-1.4s0.88-0.49 1.2-1.1c1-1.9 2.4-3 3-2.3 0.7 0.84 4.4 0.83 4.4-0.013 0-0.99 1.8-1.4 3.8-0.95 1.5 0.37 1.9 0.33 2.8-0.25 1.4-0.94 1.5-0.93-4.8-1.1-3.1-0.1-5.8-0.28-6.2-0.4-0.33-0.12-1.2 0.059-2 0.39m122 0.079c-1.1 0.078-2.2 0.29-2.4 0.47-0.22 0.18-0.77 0.18-1.2 2e-3s-1.7-0.33-2.7-0.35l-1.9-0.028v1.4c0 2 5.6 2.6 7.6 0.8 0.88-0.8 5.6-0.85 5.6-0.056 0 0.78 3.4 1.1 13 1.1 8.7 0 11-0.5 4.4-0.92-2.1-0.14-5-0.57-6.3-0.96-1.6-0.47-3.7-0.71-6.4-0.72-2.2-2e-3 -4.5-0.14-5.1-0.3-1.7-0.46-2.7-0.54-4.9-0.39m-85 0.85c-6.9 1.8-0.41 2.5 24 2.4 8.4-0.032 9.7-0.3 6.5-1.3-1.7-0.53-2.4-0.6-3-0.27-0.97 0.52-4.5 0.54-6.6 0.046-0.88-0.2-3.8-0.49-6.6-0.64-2.7-0.15-5.4-0.44-5.9-0.63-1.4-0.52-5.6-0.32-8.3 0.41m48-0.49c-0.42 0.42-0.31 2.5 0.13 2.5 0.22 0 0.4-0.63 0.4-1.4 0-1.4-0.073-1.6-0.53-1.1m8.7 0.75c-1.5 1.5-1.3 1.8 2 1.8 3.2 0 3.3-0.075 1.6-1.9-1.1-1.2-2.4-1.1-3.6 0.12m9.7-0.73c0.49 0.095 1.3 0.095 1.8 0s0.09-0.17-0.9-0.17-1.4 0.078-0.9 0.17m-29 1.5-0.87 0.97 1.4 0.26c2.9 0.55 5.9-0.24 4.8-1.3-1.1-1.1-4.3-1.1-5.4 0.068m-50-0.32c-1.8 0.35-2 1.3-0.28 1.4 0.85 0.018 2 0.1 2.5 0.18 2.3 0.34 3.7-0.18 3-1-0.69-0.76-2.8-0.96-5.2-0.5m125 3.7c0 1.3 0.42 1.6 1.1 0.72 0.34-0.41 0.26-0.71-0.35-1.3-0.78-0.71-0.8-0.7-0.8 0.54m-157 13c-0.52 0.62-0.047 3.2 0.63 3.4 0.34 0.11 0.49-0.44 0.49-1.9 0-2-0.33-2.5-1.1-1.5m156 0.89c-0.27 0.33-0.74 0.6-1 0.6-0.3 0-0.65 0.49-0.79 1.1-0.55 2.5-0.49 2.4-3.2 2.7-1.8 0.19-2.6 0.45-2.6 0.81 0 1.4-6 1.7-28 1.5-2.3-0.024-6-0.041-8.2-0.037-2.2 3e-3 -23-0.034-47-0.083-38-0.079-60 0.15-61 0.64-0.68 0.65 1.3 1.2 4.7 1.2 2.1 0.042 7.6 0.17 12 0.28 12 0.31 26 0.44 40 0.39 6.8-0.026 14-0.036 15-0.023 10 0.085 32-0.55 33-0.96 0.8-0.28 2.1-0.36 3.2-0.19 1 0.15 2.7 0.4 3.7 0.55s3 0.16 4.4 0.018c1.4-0.14 7.9-0.22 14-0.17 11 0.078 12 0.023 13-0.64 0.66-0.4 2-0.84 2.9-0.99 1.6-0.26 5.9-3.8 5.9-4.9 0-0.21 0.67-0.84 1.5-1.4l1.5-1h-1.8c-1.1 0-2 0.22-2.3 0.6m82 0.89c-0.072 0.62-0.34 1.1-0.63 1-0.39-0.078-0.5 2.3-0.5 11 0 9.5 0.078 11 0.57 11 1.1-0.88 1.4-4.4 1.4-14 0-8.1-0.44-12-0.87-8.7m-37 10 0.041 2 0.37-1.6c0.24-1 0.23-1.7-0.04-2-0.28-0.28-0.4 0.22-0.37 1.6m-23 24c0 0.44 0.27 0.8 0.6 0.8 0.67 0 0.7-0.073 0.36-0.97-0.34-0.89-0.96-0.78-0.96 0.17m-24-0.2c-0.22 0.074-1.1 0.28-2 0.46-2.3 0.47 4.1 0.78 13 0.62 5.4-0.1 6.6-0.23 6.5-0.67-0.16-0.42-0.47-0.45-1.4-0.12-0.86 0.3-1.6 0.29-2.7-0.032-1.3-0.4-12-0.6-13-0.25m-12 0.54c-0.75 0.47-0.15 1.8 0.66 1.4 0.36-0.15 1.5-0.48 2.4-0.75 1.6-0.43 1.7-0.5 0.8-0.74-1.4-0.36-3.3-0.34-3.9 0.059m-98 1.9-0.84 0.9 0.92 0.25c2.3 0.62 5.7 9e-3 4.6-0.84-1.3-1.1-3.8-1.3-4.7-0.3m11 0.13c0 1.1 2 1.5 5.1 0.99l2.3-0.37-1.6-0.49c-3.3-1-5.8-1.1-5.8-0.13m18-0.15c-1 0.28-2 0.59-2.1 0.7-0.62 0.62 30 0.97 32 0.36 3.2-1.2-25-2.3-29-1.1m-53 0.25c-4.1 0.55-1.4 0.77 9.5 0.77 6.4 0 12-0.14 11-0.3-0.16-0.16-3.2-0.33-6.8-0.36-3.6-0.035-7.8-0.12-9.4-0.2-1.6-0.075-3.8-0.036-4.7 0.088m161 0.34c0 0.47 3 0.99 3.6 0.62 0.72-0.45-0.41-0.97-2.1-0.97-0.82-4e-3 -1.5 0.16-1.5 0.36m5.3 4.1c-0.058 1.3 0.039 1.5 0.91 1.5 1.4 0 1.5 0.2 1.4 7.4-0.015 4.4 0.12 6.7 0.42 6.8 0.73 0.45 1.2-0.72 0.99-2.5-0.11-0.9-0.021-2.3 0.2-3.1 0.29-1.1 0.27-1.7-0.091-2.4-0.27-0.5-0.59-2.2-0.72-3.7l-0.22-2.8-1.3-0.12c-1.1-0.11-1.3-0.3-1.4-1.4-0.15-1.2-0.16-1.2-0.22 0.22m-75 2c-0.13 0.71-0.18 4.2-0.12 7.8 0.083 4.9-0.014 6.6-0.39 6.8-0.39 0.24-0.38 0.48 0.077 1.1 0.79 1.1 1.8 0.42 2.9-1.9 0.48-1 1.1-1.9 1.3-2.1 0.62-0.38 0.52-4.4-0.12-5.1-0.96-0.96-1.5-2.2-1.5-3.7 0-3.1-1.7-5.4-2.2-2.9m7.4 4c-0.28 0.34-0.48 1.8-0.49 3.5 0 1.6-0.086 4.3-0.19 5.9-0.1 1.6-0.18 3.4-0.16 4 0.4 16 0.19 29-0.47 30-0.92 0.84-0.6 1.3 0.86 1.3 1.7 0 1.6 0.81 1.6-22-9e-3 -21-0.14-23-1.2-22m-112 13c-3.2 1.2 13 2.3 31 2 1.9-0.029 4.5 0.21 5.8 0.55 5.9 1.5 53 2 57 0.56 1.3-0.48 2-0.56 3-0.27 2.7 0.77 3.7 0.51 4.8-1.2 0.79-1.2 0.92-1.7 0.53-1.8-1.1-0.42-20 0.029-20 0.48-0.82 1.3-2 1.3-19 1.1-15-0.19-17-0.28-19-0.99-2.5-0.81-41-1.2-43-0.42m184 0.63c-0.58 1.5 0.025 7 0.66 5.9 0.64-1 0.73-4 0.17-5.3-0.45-1.1-0.63-1.2-0.83-0.67m0.18 12c-0.023 1.4 0.13 2.5 0.36 2.5 0.46 0 0.46-2.5 0-4-0.24-0.74-0.33-0.36-0.36 1.5m51 11c0.13 0.35 0.24 0.8 0.24 1s0.45 0.37 1 0.37c1.1 0 1.3-0.72 0.52-1.5-0.73-0.73-2.1-0.62-1.8 0.15m-134 1.4c-0.15 0.24 0.4 0.4 1.4 0.4 0.89 0 1.6-0.18 1.6-0.4 0-0.22-0.62-0.4-1.4-0.4-0.76 0-1.5 0.18-1.6 0.4m-35 1.6c-1.1 0.39-2.6 0.76-3.4 0.81-1.1 0.07-0.9 0.15 0.8 0.33 3.7 0.41 10-0.052 8.6-0.62-1.4-0.55-3.9-1.4-4-1.3-0.022 0.027-0.94 0.37-2 0.77m174 0.55c0 0.35 0.28 0.63 0.63 0.63 0.7 0 0.58-0.86-0.16-1.1-0.26-0.087-0.47 0.13-0.47 0.47m-187 0.23c-1.2 0.26-1.1 0.3 0.92 0.35 1.5 0.033 2.2-0.096 2.1-0.35-0.27-0.44-0.9-0.44-3 0m-57 5.7c0.087 0.57 0.35 0.84 0.73 0.73 0.32-0.092 1.5-0.36 2.7-0.58 2.9-0.58 2.6-1-0.73-1-2.7 0-2.8 0.039-2.7 0.9m-0.4 3.7c-0.32 0.69-0.34 1.3-0.069 2 0.21 0.56 0.42 2 0.45 3.3 0.052 2.1 0.078 2.1 0.3 0.71 0.21-1.3 0.44-1.6 1.6-2.1 0.95-0.34 1.1-0.51 0.58-0.53-1.2-0.044-1.8-0.8-1.8-2.2-9e-3 -1.8-0.56-2.5-1.1-1.2m-2 10c3e-3 1.1 0.08 1.5 0.17 0.89s0.089-1.5-6e-3 -2c-0.094-0.49-0.17 5e-3 -0.17 1.1m259 3.4c0 0.44 0.27 0.8 0.6 0.8 0.33 0 0.6-0.36 0.6-0.8 0-0.44-0.27-0.8-0.6-0.8-0.33 0-0.6 0.36-0.6 0.8m-257 2.1c-0.81 0.81-0.62 4 0.28 5 0.43 0.46 0.9 1.3 1 1.9 0.4 1.6 1.2 2 3.8 1.9 1.3-0.047 3.1 0.18 4.1 0.5 1.4 0.47 5.2 0.61 20 0.7 18 0.11 18 0.13 19 0.93 0.54 0.96 0.59 8.4 0.14 21-0.17 4.7-0.28 9.9-0.26 12 0.026 1.7-0.14 4.1-0.36 5.5-0.32 2-0.28 3 0.2 4.9 0.96 3.8 0.8 19-0.21 21-0.45 0.55-0.41 0.86 0.99 6.6 0.29 1.2 0.45 2.6 0.34 3.2-0.1 0.55 0.051 2.3 0.35 3.8 0.77 4 1.1-12 1-52l-0.045-31-1.5-0.15c-0.85-0.081-3.1-0.018-5 0.14-1.9 0.16-5.1 0.28-7.1 0.27-29-0.15-27-0.2-28 0.66-0.5 0.66-0.6 0.68-0.62 0.15-9e-3 -0.47-0.54-0.72-1.9-0.9-2.3-0.31-4.7-2.5-5.2-4.8-0.24-1.2-0.4-1.4-0.8-0.96m-65 96c0.13 0.48 0.24 1.1 0.24 1.4 3e-3 0.27 0.28 0.5 0.6 0.5 0.99 0 0.78-2.3-0.24-2.5-0.7-0.18-0.8-0.081-0.6 0.65m1.9 9.7c-0.013 1.3 0.84 2.5 1.8 2.5 0.37 0 0.57-0.43 0.57-1.2 0-0.92-0.18-1.2-0.78-1.2-0.43 0-0.96-0.31-1.2-0.7-0.34-0.58-0.41-0.48-0.42 0.57m2.6 5.9c0.25 0.84 1.2 1.8 1.8 1.8 1.1 0 0.25-2.3-0.88-2.5-1.1-0.16-1.2-0.081-0.96 0.65m310 5.8c0 1.4 0.48 1.5 1.6 0.4 1.1-1.1 1-1.6-0.4-1.6-1.1 0-1.2 0.13-1.2 1.2m-263 15c0 0.51 0.95 0.6 6.2 0.6s6.2-0.093 6.2-0.6c0-0.51-0.95-0.6-6.2-0.6s-6.2 0.092-6.2 0.6" fill="#f6f4de"/>
</g>
</svg>
