<svg width="48" height="48" version="1.1" viewBox="0 0 48 48" xmlns="http://www.w3.org/2000/svg">
<path d="m28 3.3c-0.25-0.25-0.46-0.49-0.92-0.86-0.46-0.37-1.4-1.1-2.9-1.1-1.5 0-2.4 0.69-2.9 1.1-0.46 0.37-0.67 0.61-0.92 0.86l-16 16c-0.99 0.99-1.7 2.8-1.4 4.4 0.17 0.79 0.52 1.5 1.1 2.1 0.58 0.62 1.4 1.3 3.1 1.3h8v14s-0.055 1.1 0.55 2.3c0.6 1.2 2.6 2.7 4.5 2.7h8.1c1.8 0 3.9-1.5 4.5-2.7 0.6-1.2 0.55-2.3 0.55-2.3v-14h7.9c2.2 0 4-1.9 4.3-3.7 0.28-1.8-0.55-3.3-1.4-4.2z" fill="#fff"/>
<path d="m41 23c0.3 0 0.53-0.47 0-1l-16-16c-1-1-1-1-2 0l-16 16c-0.52 0.52-0.2 1 0 1h12v19s0 1 1 1h8c1 0 1-1 1-1v-19z" fill="#323232"/>
</svg>
