<svg viewBox="0 0 16 16" xmlns="http://www.w3.org/2000/svg">
<defs>
<style type="text/css">.ColorScheme-Text {
        color:#000;
      }</style>
</defs>
<path class="ColorScheme-Text" d="m8 2a6 6 0 0 0-6 6 6 6 0 0 0 6 6 6 6 0 0 0 6-6 6 6 0 0 0-6-6zm-6 1v2l2-2h-2zm6 0a5 5 0 0 1 2.4 0.61l-1.5 1.5a3 3 0 0 0-0.87-0.13 3 3 0 0 0-0.87 0.13l-1.5-1.5a5 5 0 0 1 2.4-0.61zm4 0 2 2v-2h-2zm-8.4 2.6 1.5 1.5a3 3 0 0 0-0.13 0.87 3 3 0 0 0 0.13 0.87l-1.5 1.5a5 5 0 0 1-0.61-2.4 5 5 0 0 1 0.61-2.4zm8.8 0.0039a5 5 0 0 1 0.61 2.4 5 5 0 0 1-0.61 2.4l-1.5-1.5a3 3 0 0 0 0.13-0.87 3 3 0 0 0-0.13-0.87l1.5-1.5zm-4.4 0.39a2 2 0 0 1 2 2 2 2 0 0 1-2 2 2 2 0 0 1-2-2 2 2 0 0 1 2-2zm-0.87 4.9a3 3 0 0 0 0.87 0.13 3 3 0 0 0 0.87-0.13l1.5 1.5a5 5 0 0 1-2.4 0.61 5 5 0 0 1-2.4-0.61l1.5-1.5zm-5.1 0.13v2h2l-2-2zm12 0-2 2h2v-2z" fill="currentColor"/>
</svg>
