<svg width="16" height="16" version="1.1" xmlns="http://www.w3.org/2000/svg">
<defs>
<style type="text/css">.ColorScheme-Text {
color:#000;
}</style>
</defs>
<path class="ColorScheme-Text" d="m13 1-1.4 1.3c-0.4 0.37-0.47 1-0.24 1.5l-5.2 5.2c-0.0086-8.4e-5 -0.017-8.4e-5 -0.025 0-0.62-0.28-1.1-0.14-1.5 0.26l-3.5 3.5c-1.3 1.2 0.64 3.1 1.9 1.8l3.5-3.5c0.41-0.4 0.52-1 0.26-1.5l5.2-5.2c0.49 0.22 1.1 0.13 1.5-0.26l1.2-1.4-1.8-1.7zm-9.1 0.078c-0.35 0-0.69 0.081-1 0.19l1.7 1.6c0.34 0.34 0.34 0.87 0 1.2l-0.63 0.62c-0.34 0.34-0.88 0.34-1.2 0l-1.7-1.6c-0.11 0.31-0.19 0.65-0.19 1 0 1.7 1.4 3 3 3 0.35 0 0.69-0.079 1-0.19l1 1 1.9-1.8-1.1-1.1c0.11-0.31 0.19-0.65 0.19-1 0-1.7-1.4-3-3-3zm5.8 6.9-1.8 1.9 1 1c-0.11 0.31-0.19 0.65-0.19 1 0 1.7 1.4 3 3.1 3 0.38 0 0.75-0.088 1.1-0.21l-1.8-1.8c-0.34-0.34-0.34-0.9 0-1.2l0.6-0.59c0.52-0.42 0.9-0.35 1.3 0l1.7 1.7c0.092-0.29 0.16-0.6 0.16-0.92 0-1.7-1.4-3-3-3-0.35 0-0.69 0.081-1 0.19l-1.1-1.1z" fill="currentColor"/>
</svg>
