<svg width="16" height="16" version="1.1" xmlns="http://www.w3.org/2000/svg">
<defs>
<style type="text/css">.ColorScheme-Text {
color:#000;
}</style>
</defs>
<path class="ColorScheme-Text" d="m10 0.0059c-0.14 0.49-0.23 1.1-0.38 1.6-0.43 0.016-0.86 0.24-1.2 0.38-0.39-0.31-0.83-0.74-1.2-1-0.26 0.17-0.5 0.35-0.72 0.56 0.21 0.45 0.52 0.99 0.73 1.5-0.28 0.32-0.5 0.67-0.66 1.1-0.51 0.016-1.1-0.026-1.6-0.0098-0.087 0.29-0.15 0.58-0.18 0.89 0.45 0.22 1 0.42 1.5 0.63-0.047 0.48 0.11 0.85 0.2 1.3-0.37 0.35-0.88 0.7-1.3 1 0.11 0.26 0.26 0.52 0.41 0.75 0.48-0.12 1.1-0.35 1.6-0.46 0.28 0.34 0.59 0.65 0.96 0.88-0.062 0.5-0.21 1.1-0.28 1.6 0.25 0.12 0.52 0.22 0.79 0.3 0.29-0.4 0.59-0.94 0.89-1.3 0.41 0.083 0.84 0.08 1.3 0.027 0.27 0.43 0.55 1 0.83 1.4 0.3-0.071 0.58-0.15 0.85-0.26-0.034-0.51-0.15-1.1-0.19-1.6 0.38-0.21 0.74-0.45 1-0.76 0.48 0.16 1 0.41 1.5 0.56 0.18-0.24 0.34-0.5 0.48-0.76-0.34-0.35-0.81-0.74-1.2-1.1 0.15-0.39 0.21-0.83 0.23-1.3 0.48-0.19 1.1-0.37 1.6-0.56-0.019-0.3-0.073-0.58-0.14-0.88-0.51-0.053-1.1-0.049-1.7-0.1-0.15-0.41-0.33-0.8-0.59-1.1 0.23-0.45 0.58-0.96 0.82-1.4-0.2-0.2-0.4-0.4-0.62-0.57-0.42 0.28-0.89 0.68-1.3 0.96-0.37-0.22-0.79-0.37-1.2-0.46-0.12-0.49-0.17-1.1-0.28-1.6-0.28-0.03-0.57-0.042-0.86-0.029zm0.21 3.5c0.95-0.026 1.8 0.61 2 1.6 0.26 1.1-0.43 2.2-1.5 2.4-1.1 0.25-2.2-0.42-2.4-1.5-0.26-1.1 0.43-2.2 1.5-2.4 0.14-0.032 0.27-0.049 0.41-0.053zm-7.3 4.7c-0.88 0.28-0.94 0.37-0.68 1.4-0.29 0.2-0.5 0.5-0.71 0.73-0.98-0.34-1.2-0.25-1.4 0.64-0.26 0.89-0.1 0.98 0.92 1.3 0.014 0.26 0.075 0.51 0.19 0.78-0.87 0.61-0.99 0.83-0.4 1.5s0.76 0.56 1.6-0.088c0.36 0.23 0.79 0.37 1.2 0.43 0.18 1.1 0.36 1.2 1.3 0.91 0.9-0.28 0.94-0.38 0.68-1.4 0.29-0.2 0.5-0.5 0.71-0.73 0.94 0.33 1.2 0.29 1.4-0.64 0.21-0.94 0.1-0.98-0.92-1.3-0.014-0.26-0.077-0.51-0.19-0.77 0.87-0.61 0.99-0.83 0.4-1.5-0.59-0.68-0.76-0.56-1.6 0.09-0.36-0.23-0.8-0.37-1.2-0.43-0.2-1.1-0.38-1.2-1.3-0.91zm0.76 2.6c0.37-0.036 0.76 0.1 1 0.41 0.4 0.49 0.33 1.2-0.15 1.7-0.49 0.4-1.2 0.33-1.6-0.15-0.42-0.49-0.33-1.2 0.15-1.7 0.18-0.15 0.4-0.23 0.63-0.26z" fill="currentColor"/>
</svg>
