<svg width="400" height="400" version="1.1" viewBox="0 0 400 400" xmlns="http://www.w3.org/2000/svg">
<g fill-rule="evenodd">
<path d="m96 170c-0.22 0.82-0.31 1.8-0.19 2.2 0.13 0.42 2e-3 0.76-0.34 0.89-0.3 0.12-0.82 1.1-1.2 2.3-0.37 1.3-0.75 2-1 1.8-0.24-0.15-0.29-0.074-0.14 0.18 0.29 0.46-0.54 4.5-0.92 4.5-0.13 0-0.16 0.42-0.058 0.93 0.1 0.53 4e-3 0.93-0.22 0.93-0.22 0-0.31 0.25-0.19 0.56 0.12 0.3 0.088 0.85-0.064 1.2-0.15 0.36-0.24 1.1-0.2 1.7 0.045 0.56-0.11 1-0.34 1-0.26 0-0.33 0.3-0.18 0.76 0.13 0.42 0.07 0.96-0.14 1.2-0.21 0.25-0.38 1-0.38 1.7-2e-3 0.71-0.17 2.6-0.36 4.2-2.1 17 2.1 39 10 56 22 43 64 67 113 62 5.6-0.58 18-3.5 20-4.7 0.2-0.13 0.7-0.28 1.1-0.34 0.4-0.062 0.84-0.3 0.98-0.52s0.42-0.3 0.63-0.17c0.21 0.13 0.44 0.073 0.5-0.13 0.068-0.2 0.54-0.44 1-0.53s0.93-0.19 0.93-0.22 0.27-0.11 0.6-0.17c1.3-0.26 2.2-0.64 2.2-0.96 0-0.19 0.43-0.35 0.95-0.35 0.53 0 0.85-0.16 0.72-0.37-0.13-0.2 9e-3 -0.28 0.3-0.16 0.29 0.11 0.76-0.016 1-0.28s0.76-0.54 1.1-0.61c0.3-0.068 0.63-0.25 0.73-0.41 0.37-0.57 1.9-1.2 2.3-0.91 0.28 0.17 0.32 0.092 0.12-0.23-0.22-0.36-0.13-0.43 0.33-0.25 0.35 0.13 0.54 0.096 0.43-0.084-0.26-0.42 0.85-0.85 1.4-0.53 0.23 0.14 0.29 0.068 0.13-0.18-0.16-0.25 0.12-0.6 0.68-0.85 0.52-0.24 1-0.75 1.2-1.1 0.15-0.47 0.46-0.66 0.91-0.54 0.45 0.12 0.62 0.015 0.49-0.31-0.19-0.49-1-0.36-1.9 0.29-0.33 0.25-0.4 0.12-0.29-0.49 0.12-0.64 0.06-0.74-0.27-0.4-0.62 0.62-1.1 0.54-0.89-0.13 0.14-0.37 0.034-0.53-0.3-0.46-0.63 0.13-3.6-3-3.3-3.5 0.12-0.19-0.012-0.3-0.29-0.24-0.28 0.058-0.95-0.2-1.5-0.56-0.55-0.37-1.7-0.76-2.6-0.87-0.87-0.11-1.8-0.44-2-0.75-1.7-2.2-2.8-3.1-3.4-2.9-0.66 0.21-1.4-0.39-1.5-1.1-3e-3 -0.2-0.68-0.53-1.5-0.72s-1.5-0.48-1.5-0.65c0-0.16-0.46-0.3-1-0.31-0.56-7e-3 -1.4-0.25-1.9-0.54l-0.93-0.53 1.2-0.013c0.67-8e-3 1.1-0.16 1-0.33-0.11-0.18-0.63-0.24-1.1-0.14-0.68 0.13-0.92 0.034-0.84-0.33 0.077-0.36-0.23-0.48-1.1-0.42-0.65 0.05-1.3-0.075-1.4-0.28-0.12-0.2 0.06-0.37 0.41-0.37 0.35 0 0.55-0.092 0.44-0.2-0.11-0.11-0.65-0.091-1.2 0.045s-0.9 0.34-0.79 0.44c0.24 0.24-0.93 1.2-1.5 1.2-0.2 0-0.037-0.26 0.37-0.58 0.7-0.55 0.67-0.56-0.56-0.28-0.71 0.17-1.8 0.31-2.5 0.31-0.64 6e-3 -1.1 0.14-1 0.29 0.094 0.15 0.055 0.28-0.087 0.28s-2.3 0.34-4.7 0.77-4.9 0.69-5.3 0.61c-0.46-0.088-0.83-0.01-0.83 0.17 0 0.18-1 0.34-2.3 0.36-9.2 0.11-10 0.076-16-0.59-31-3.6-59-26-68-55-4-12-5.5-28-3.7-38 0.7-3.7 1.1-6.8 0.84-7.4-0.28-0.74-1.3-0.75-1.3-0.02 0 0.31-0.17 0.56-0.37 0.56-0.2 0-0.37-0.25-0.37-0.56s-0.17-0.56-0.39-0.56-0.74-0.33-1.2-0.74c-0.44-0.41-1.1-0.74-1.6-0.74-1 0-2.4-1-2.4-1.7 0-0.31-0.21-0.5-0.46-0.41-0.25 0.086-0.63-0.053-0.83-0.31-0.2-0.26-1.1-0.71-2-1-1.1-0.37-1.9-0.9-2.2-1.6-0.37-0.67-1-1.1-1.8-1.3-1.4-0.28-2.3-0.95-2.3-1.7 0-0.28-0.46-0.62-1-0.76-1.3-0.32-2.7-1.3-2.7-1.9-7e-3 -0.28-0.52-0.46-1.3-0.46-0.79 0-1.3-0.18-1.3-0.46-4e-3 -0.31-0.13-0.28-0.37 0.092-0.26 0.39-0.32-0.022-0.23-1.4 0.16-2.3 0.029-2.4-0.51-0.44" fill="#7834d7"/>
<path d="m256 95c-4.1 12-4.8 12-17 7.5-24-9.6-57-9.7-79-0.34-13 5.5-18 8.7-15 9.9 0.31 0.14-0.15 0.19-1 0.097l-1.6-0.16 0.76 1.5c0.42 0.8 0.66 1.6 0.53 1.8-0.37 0.6 0.21 3 0.73 3 0.26 0 0.57 0.39 0.69 0.88 0.12 0.48 1.1 1.8 2.1 2.8 1.3 1.4 1.8 2.2 1.7 2.6-0.14 0.45 0.092 0.86 0.73 1.3 0.52 0.34 0.94 0.85 0.94 1.1 0 0.6 1.2 2.6 1.6 2.7 0.15 0.03 0.59 0.054 0.98 0.054 0.51 0 0.86 0.5 1.3 1.9 0.53 1.6 1.7 3.3 2.3 3.3h0.58c0.22 0 0.29 0.17 0.16 0.37-0.13 0.2 0.031 0.37 0.35 0.37 0.32 0 0.58-0.18 0.58-0.39 0-0.22 0.15-0.3 0.34-0.18 0.19 0.12 0.4 0.073 0.46-0.094 0.19-0.46 8.4-4 12-5.2 19-6.3 45-5.4 59 2.1 6.2 3.3 6.2 6.1-0.095 20-2.1 4.6-2.2 4.2 0.96 3.5 1.4-0.3 6.6-1.2 11-2 15-2.5 22-3.7 26-4.6 2-0.49 5-1.1 6.7-1.3 4.6-0.64 11-1.9 12-2.2 0.39-0.24-1.4-4.1-8-17-12-24-20-40-20-40-0.076-0.076-1.3 3.2-2.7 7.3m-101 40c0 0.3 1.1 1.3 1.1 1.1 0.016-0.075 0.079-0.4 0.14-0.71 0.068-0.34-0.17-0.59-0.58-0.62-0.38-0.029-0.7 0.083-0.7 0.25m150 50c-1.3 0.17-3.1 0.56-4.1 0.87-2.3 0.76-13 3.4-16 3.9l-2.4 0.41 0.12 9.9c0.2 16-1.6 26-7 38-1.5 3.2-7.6 14-9 15l-0.77 0.92 0.87-0.73c0.78-0.66 0.91-0.67 1.3-0.15 0.24 0.32 0.86 0.69 1.4 0.82 0.53 0.13 1.6 0.72 2.3 1.3 0.74 0.58 2.4 1.5 3.7 1.9 1.4 0.53 2.1 0.93 1.7 1-0.83 0.18-0.15 1.2 0.81 1.2 0.33 4e-3 1 0.33 1.5 0.73 0.51 0.4 1.1 0.73 1.3 0.73s0.86 0.42 1.4 0.93c0.59 0.51 1.3 0.93 1.6 0.93 0.27 0 0.5 0.17 0.5 0.37s0.33 0.37 0.74 0.37c0.46 0 1.1 0.56 1.7 1.5 0.51 0.82 1 1.5 1.1 1.5 0.11 0 0.095-0.17-0.036-0.39-0.3-0.49 0.53-1.5 0.99-1.2 0.19 0.12 0.24 0.57 0.11 1-0.74 2.5 5.9-7.5 9.5-14 9.4-18 14-44 10-64-0.19-1.2-0.35-2.2-0.35-2.4-2e-3 -0.15-0.13-0.26-0.28-0.23-0.15 0.025-1.3 0.18-2.6 0.35" fill="#f16947"/>
<path d="m257 71c0.17 0.27 0.055 0.34-0.32 0.2-0.33-0.13-0.58-0.023-0.58 0.25 0 0.26-0.1 0.37-0.22 0.25-0.3-0.3-3.5 3.1-3.3 3.4 0.1 0.16-0.024 0.38-0.28 0.47-0.25 0.098-0.8 1.3-1.2 2.6s-0.88 2.5-1 2.5c-0.17 0-0.19 0.36-0.052 0.79 0.18 0.55 0.12 0.71-0.18 0.52-0.26-0.16-0.39-0.069-0.33 0.23 0.057 0.28-0.11 0.88-0.36 1.3-0.25 0.46-0.5 1.3-0.54 1.9-0.043 0.61-0.22 1.1-0.4 1.1-0.18 0-0.23 0.24-0.11 0.53 0.11 0.29 0.027 0.59-0.19 0.66-0.22 0.072-0.44 0.61-0.51 1.2-0.064 0.58-0.3 1.2-0.52 1.3-0.36 0.22-0.57 0.82-0.91 2.6-0.14 0.76-1.5 0.9-2.2 0.22-0.31-0.31-0.66-0.45-0.79-0.33s-0.23 0.04-0.23-0.19c0-0.24-0.26-0.32-0.62-0.18-0.39 0.15-0.52 0.089-0.37-0.16 0.27-0.44-0.75-0.96-1.3-0.64-0.18 0.11-0.34 0.054-0.34-0.13 0-0.56-6.3-2.5-11-3.3-0.51-0.091-3-0.58-5.5-1.1-2.5-0.5-4.9-0.91-5.3-0.91s-0.68-0.19-0.68-0.42c0-0.29-0.54-0.35-1.7-0.19-1.2 0.16-1.6 0.11-1.4-0.18 0.18-0.29-0.4-0.37-2-0.25-1.3 0.095-2.2 0.022-2-0.18 0.12-0.2-1.6-0.29-4.3-0.21-2.5 0.073-4.5 8e-3 -4.5-0.14s-2.3-0.28-5.2-0.28-5.2 0.14-5.2 0.31-1.3 0.23-3 0.14c-2-0.12-3-0.042-3 0.24 0 0.28-0.57 0.33-1.7 0.18-1.4-0.19-1.7-0.14-1.4 0.24 0.23 0.37 7e-3 0.43-1 0.23-0.72-0.14-1.4-0.094-1.4 0.093s-0.79 0.43-1.6 0.53c-1.7 0.22-7.4 1.5-9.6 2.2-0.82 0.24-1.6 0.46-1.9 0.48-1.3 0.14-6.1 1.4-6.1 1.6 0 0.13-0.45 0.27-1 0.3-0.55 0.032-1.1 0.23-1.1 0.44-0.071 0.21-0.4 0.28-0.72 0.16-0.37-0.14-0.5-0.078-0.35 0.17 0.16 0.26-0.035 0.32-0.55 0.19-0.54-0.14-0.72-0.073-0.54 0.22 0.16 0.27 0.067 0.35-0.26 0.22-0.29-0.11-0.79 0.058-1.1 0.38s-0.74 0.58-0.95 0.58c-0.21 0-1.8 0.65-3.5 1.4s-3.7 1.7-4.5 2-1.4 0.76-1.4 0.99-0.17 0.31-0.37 0.18c-0.2-0.13-0.37-0.043-0.37 0.18s-0.17 0.31-0.37 0.18c-0.2-0.13-0.37-0.058-0.37 0.15 0 0.21-0.28 0.27-0.62 0.14-0.45-0.17-0.53-0.1-0.31 0.25 0.2 0.32 0.16 0.4-0.11 0.23-0.41-0.25-2.1 0.6-2.8 1.4-0.51 0.58-5.5 3.3-5.8 3.2-0.15-0.046-0.28 0.094-0.28 0.31 0 0.22-0.16 0.29-0.35 0.17-0.19-0.12-0.53 0.12-0.75 0.53s-0.54 0.71-0.71 0.66c-0.17-0.049-0.68 0.33-1.1 0.84s-0.71 0.68-0.58 0.37c0.13-0.3-0.12-0.097-0.56 0.46-0.44 0.56-1 1-1.2 1-0.24 0-0.65 0.34-0.91 0.76s-0.6 0.67-0.76 0.58-0.52 0.14-0.81 0.54c-0.29 0.4-0.72 0.72-0.97 0.72s-0.79 0.44-1.2 0.98c-0.42 0.54-0.77 0.83-0.78 0.65-7e-3 -0.18-0.44 0.17-0.97 0.78-0.52 0.61-0.83 0.88-0.67 0.59 0.19-0.34 0.14-0.43-0.14-0.26-0.24 0.14-0.43 0.51-0.43 0.81s-0.29 0.65-0.65 0.78c-0.36 0.13-1.6 1.3-2.8 2.6-1.2 1.3-2.4 2.3-2.7 2.3s-0.88 0.52-1.4 1.2c-0.47 0.64-1.6 2-2.6 2.9-0.95 0.97-1.9 2.1-2.1 2.5-0.22 0.42-0.64 0.76-0.93 0.76s-0.64 0.19-0.78 0.43c-0.17 0.28-0.086 0.34 0.26 0.16 0.29-0.15 0.2-7e-3 -0.2 0.31-0.4 0.32-0.56 0.59-0.37 0.6s-0.019 0.32-0.47 0.7c-0.45 0.38-0.74 0.76-0.65 0.85 0.093 0.093-0.29 0.6-0.85 1.1-1.3 1.2-1.9 2-2 2.4-0.07 0.52-2.3 3.6-3.1 4.3-0.43 0.37-0.53 0.57-0.22 0.43 0.3-0.14 0.19 0.08-0.26 0.48-0.45 0.4-0.71 0.83-0.59 0.95 0.13 0.13 0.027 0.23-0.22 0.23-0.25 0-0.35 0.17-0.22 0.37s-0.015 0.47-0.32 0.58-0.65 0.63-0.78 1.1c-0.13 0.51-0.56 1.3-0.96 1.7-0.4 0.43-0.73 1-0.73 1.3s-0.34 0.82-0.75 1.2c-0.42 0.42-0.66 0.92-0.53 1.1s0.08 0.36-0.092 0.36c-0.52 0-1.6 2.2-1.4 2.6 0.18 0.28 0.099 0.33-0.23 0.12-0.36-0.22-0.42-0.13-0.25 0.33 0.14 0.35 0.096 0.54-0.086 0.43-0.18-0.11-0.5 0.3-0.72 0.91s-0.3 1.1-0.2 1.1-0.082 0.28-0.42 0.61-0.53 0.92-0.43 1.3c0.099 0.38 1e-3 0.69-0.22 0.69-0.22 0-0.29 0.1-0.17 0.23s-0.013 0.47-0.31 0.77c-0.3 0.3-0.54 0.88-0.54 1.3 0 0.42-0.32 1.3-0.71 1.9-0.39 0.64-0.72 1.3-0.72 1.4-0.029 0.85-1.3 4.3-1.6 4.3-0.19 0-0.25 0.24-0.14 0.53 0.11 0.29 0.019 0.59-0.21 0.67-0.23 0.076-0.41 0.67-0.41 1.3 0 0.65-0.16 1.2-0.35 1.2-0.19 0-0.25 0.26-0.13 0.57 0.12 0.32 0.076 0.49-0.1 0.38-0.37-0.23-0.88 1.9-0.57 2.4 0.11 0.18 9e-3 0.33-0.23 0.33-0.25 0-0.35 0.31-0.24 0.74 0.11 0.41 0.053 0.83-0.12 0.93-0.17 0.11-0.25 0.53-0.17 0.94 0.079 0.41-0.015 0.64-0.21 0.53-0.19-0.12-0.38 0.33-0.41 1-0.096 1.9-0.15 2.3-0.42 3.1-1.1 3.3-2.2 15-2.3 23-0.026 8 0.067 9.5 1.1 18 0.83 6.7 1 7.8 1.3 8.1 0.15 0.2 0.21 0.74 0.14 1.2-0.074 0.45 0.023 0.91 0.22 1 0.19 0.12 0.26 0.46 0.14 0.76-0.12 0.3-0.04 0.54 0.17 0.54 0.21 0 0.28 0.36 0.17 0.8-0.16 0.6-0.085 0.72 0.28 0.5 0.36-0.22 0.43-0.098 0.28 0.5-0.12 0.44-0.067 0.8 0.11 0.8s0.25 0.33 0.17 0.74c-0.079 0.41 0.025 0.74 0.23 0.74 0.21 0 0.27 0.34 0.12 0.79-0.16 0.49-0.11 0.7 0.13 0.56 0.23-0.14 0.3 0.063 0.18 0.51-0.11 0.41-0.013 0.74 0.21 0.74 0.22 0 0.3 0.28 0.16 0.62-0.16 0.42-0.096 0.53 0.21 0.34 0.33-0.2 0.38-0.017 0.21 0.68-0.15 0.58-0.086 0.96 0.16 0.96 0.22 0 0.29 0.28 0.16 0.62-0.15 0.39-0.091 0.53 0.17 0.37 0.25-0.15 0.5 0.22 0.64 0.96 0.13 0.66 0.38 1.5 0.56 1.9 0.7 1.6 1.7 4.5 1.6 4.7-0.042 0.13 0.17 0.45 0.47 0.69s0.54 0.86 0.54 1.4c0 0.5 0.16 0.8 0.37 0.68 0.21-0.13 0.27 0.019 0.15 0.35-0.12 0.32-0.036 0.58 0.19 0.58 0.23 0 0.38 0.12 0.34 0.28-0.17 0.63 0.52 1.9 0.9 1.7 0.23-0.14 0.3-0.076 0.16 0.15-0.34 0.56 0.13 1.6 0.6 1.3 0.22-0.13 0.28-0.064 0.14 0.15-0.3 0.49 0.1 1.6 0.49 1.4 0.16-0.097 0.64 0.61 1.1 1.6 0.81 1.8 1.5 3.1 2 3.4 0.14 0.1 0.36 0.64 0.5 1.2 0.14 0.56 0.38 1 0.54 1s0.57 0.44 0.92 0.97c0.35 0.53 0.44 0.85 0.19 0.7-0.34-0.21-0.35-0.094-0.025 0.51 0.23 0.43 0.59 0.78 0.8 0.78 0.21 0 0.28 0.16 0.16 0.35-0.12 0.19 0.12 0.54 0.54 0.76 0.42 0.22 0.68 0.55 0.57 0.72-0.11 0.17 0.066 0.41 0.38 0.53 0.32 0.12 0.47 0.39 0.35 0.6-0.13 0.2-0.05 0.37 0.17 0.37s0.6 0.46 0.85 1c0.48 1.1 0.82 1.6 1.8 2.7 0.36 0.39 0.65 0.84 0.65 1 0 0.16 0.35 0.5 0.78 0.77s0.68 0.58 0.57 0.69c-0.35 0.35 0.5 1.6 1.1 1.6 0.3 0 0.54 0.18 0.54 0.41s0.42 0.74 0.93 1.1c0.51 0.4 0.85 0.86 0.74 1-0.1 0.16 0.69 1.1 1.8 2.1 2.3 2.2 3.4 3.4 2.5 2.9-0.64-0.33 1.2 1.4 3.8 3.5 0.98 0.8 1.7 1.5 1.5 1.5s0.11 0.42 0.59 0.93c0.48 0.51 1.2 0.93 1.5 0.93s0.68 0.26 0.68 0.58c0 0.32 0.16 0.48 0.35 0.36 0.19-0.12 0.53 0.12 0.75 0.53s0.58 0.75 0.81 0.75c0.22 0 0.7 0.34 1.1 0.76s0.8 0.79 0.97 0.81c0.34 0.052 0.88 0.46 2.1 1.6 0.44 0.41 0.92 0.74 1.1 0.74s0.53 0.33 0.86 0.74c0.33 0.41 0.49 0.49 0.35 0.18-0.14-0.31 0.12-0.14 0.56 0.37s0.69 0.68 0.56 0.37c-0.14-0.31 0.094-0.14 0.52 0.37 0.42 0.51 0.77 0.76 0.78 0.56 0.011-0.2 0.19-0.079 0.4 0.28 0.21 0.36 0.62 0.65 0.92 0.65 0.3 0 0.54 0.17 0.54 0.37s0.25 0.37 0.56 0.37c0.31 0 0.56 0.17 0.56 0.37 0 0.2 0.12 0.34 0.28 0.31 0.56-0.12 2.3 0.81 2.5 1.3 0.11 0.3 0.45 0.44 0.75 0.33 0.33-0.13 0.5-0.012 0.43 0.3-0.059 0.28 0.1 0.47 0.36 0.42 0.25-0.051 0.46 0.084 0.46 0.3 0 0.22 0.14 0.31 0.3 0.2 0.17-0.1 0.58 0.13 0.92 0.53 0.34 0.4 0.86 0.62 1.2 0.5 0.31-0.12 0.57-0.022 0.57 0.22 0 0.24 0.15 0.34 0.33 0.23 0.18-0.11 0.43 0.044 0.54 0.35 0.12 0.3 0.55 0.55 0.96 0.55s0.75 0.17 0.75 0.39 1.1 0.89 2.5 1.5c1.4 0.62 2.6 1.3 2.7 1.5 0.13 0.22 0.46 0.26 0.71 0.11 0.3-0.19 0.38-0.14 0.2 0.14-0.25 0.4-0.11 0.49 0.98 0.58 0.25 0.021 0.68 0.25 0.96 0.5 0.27 0.26 0.65 0.37 0.83 0.26 0.19-0.12 0.34-0.034 0.34 0.18 0 0.22 0.32 0.39 0.72 0.39 0.4 0 0.83 0.18 0.97 0.4 0.14 0.22 0.53 0.33 0.87 0.24 0.34-0.089 0.84 0.074 1.1 0.36 0.27 0.29 0.75 0.42 1.1 0.3 0.32-0.12 0.69-0.039 0.83 0.18 0.14 0.22 0.57 0.47 0.96 0.54s0.7 0.17 0.7 0.21 0.42 0.1 0.93 0.13c0.51 0.031 1.1 0.16 1.3 0.28 0.2 0.12 1.8 0.6 3.5 1.1 1.7 0.46 3.4 0.99 3.6 1.2 0.25 0.19 0.62 0.24 0.83 0.11 0.21-0.13 0.39-0.049 0.39 0.18 0 0.28 0.39 0.34 1.2 0.17 0.83-0.18 1.1-0.13 0.9 0.17-0.19 0.3 0.033 0.35 0.75 0.17 0.78-0.2 0.94-0.14 0.71 0.23-0.23 0.38 1e-3 0.43 1.1 0.26 0.85-0.14 1.4-0.073 1.4 0.18 0 0.25 0.54 0.31 1.5 0.15 1.1-0.18 1.4-0.12 1.2 0.18-0.19 0.3 0.13 0.38 1.1 0.27 0.74-0.086 1.3-7e-3 1.3 0.18s0.84 0.26 1.9 0.17c1-0.09 2-0.026 2.1 0.14 0.1 0.17 1 0.21 2 0.099 1-0.11 1.8-0.06 1.8 0.12 0 0.39 13 0.32 14-0.072 0.36-0.16 2.4-0.2 4.5-0.11s3.9 0.039 3.9-0.13c0-0.17 1-0.22 2.2-0.13 1.3 0.1 2.2 0.028 2.2-0.17 0-0.19 0.5-0.27 1.1-0.17s1.1 9e-3 1.1-0.19c0-0.22 0.55-0.28 1.4-0.15 1 0.17 1.3 0.11 1.1-0.25-0.22-0.36-8e-3 -0.41 0.91-0.2 0.86 0.19 1.1 0.14 0.94-0.16-0.19-0.3 0.033-0.35 0.75-0.17 0.57 0.14 0.92 0.11 0.81-0.078-0.11-0.18 0.4-0.35 1.1-0.36 0.73-0.017 1.4-0.22 1.5-0.46 0.079-0.24 0.47-0.43 0.87-0.43s2.1-0.43 3.7-0.96c1.6-0.53 3.2-1 3.4-1s0.8-0.27 1.2-0.52 1.2-0.44 1.8-0.44c0.55 0 0.87-0.16 0.75-0.37-0.13-0.21 0.019-0.27 0.35-0.15 0.32 0.12 0.58 0.042 0.58-0.18s0.25-0.3 0.56-0.19c0.3 0.12 0.56 0.034 0.56-0.18s0.25-0.3 0.56-0.18c0.3 0.12 0.56 0.019 0.56-0.22 0-0.24 0.17-0.33 0.37-0.2 0.2 0.13 0.37 0.043 0.37-0.18 0-0.23 0.18-0.3 0.39-0.17 0.49 0.3 2.6-0.55 2.4-0.94-0.23-0.37 0.88-0.81 1.3-0.53 0.18 0.12 0.34 0.054 0.34-0.13 0-0.42 3.7-2.1 4.4-2 0.29 0.047 0.39-0.097 0.24-0.34-0.15-0.24-0.046-0.39 0.24-0.35 0.97 0.13 1.5-0.023 1.2-0.38-0.13-0.22 0.032-0.27 0.41-0.12 0.43 0.16 0.55 0.1 0.37-0.18s-0.058-0.35 0.37-0.18c0.43 0.16 0.55 0.1 0.37-0.18-0.17-0.27-0.073-0.36 0.26-0.23 0.29 0.11 0.63-0.068 0.76-0.4s0.4-0.5 0.6-0.37 0.37 0.036 0.37-0.2c0-0.24 0.26-0.33 0.58-0.21 0.38 0.14 0.48 0.071 0.31-0.21-0.18-0.28-0.065-0.35 0.32-0.2 0.34 0.13 0.67-5e-3 0.8-0.33 0.12-0.31 0.38-0.45 0.59-0.32s0.37 0.057 0.37-0.15c0-0.21 0.67-0.72 1.5-1.1 0.81-0.42 1.5-0.92 1.5-1.1 0-0.2 0.12-0.34 0.28-0.32 0.77 0.12 1.6-0.079 1.4-0.35-0.1-0.17 0.3-0.59 0.9-0.95 0.6-0.35 1.1-0.52 1.1-0.37 0 0.15 0.24-0.047 0.54-0.44 0.3-0.4 0.55-0.56 0.56-0.36 7e-3 0.2 0.27-0.013 0.59-0.47 0.32-0.46 0.72-0.74 0.89-0.64 0.17 0.1 0.41-0.071 0.53-0.39 0.12-0.32 0.39-0.47 0.59-0.35 0.2 0.13 0.37 0.044 0.37-0.18s0.17-0.31 0.38-0.18c0.21 0.13 0.33 0.021 0.28-0.24-0.056-0.26 0.065-0.48 0.27-0.5 0.2-0.012 0.83-0.49 1.4-1.1s1.2-0.94 1.4-0.82c0.19 0.12 0.7-0.29 1.1-0.91 0.44-0.61 0.94-1.1 1.1-1.1s0.77-0.41 1.3-0.92c0.54-0.5 1.1-0.84 1.3-0.73 0.36 0.22 0.88-0.54 0.9-1.3 5e-3 -0.3 0.21-0.56 0.45-0.56 0.24-1e-3 0.66-0.23 0.93-0.52 0.4-0.43 0.39-0.46-0.039-0.22-0.35 0.2-0.43 0.16-0.25-0.14 0.15-0.24 0.4-0.35 0.57-0.25 0.17 0.1 0.51-0.061 0.76-0.36 0.25-0.3 0.32-0.55 0.16-0.55s0.17-0.49 0.75-1.1 1.2-1 1.3-0.93c0.34 0.21 1.2-0.74 0.88-1-0.11-0.11 0.76-1.2 1.9-2.4s1.7-1.8 1.2-1.4c-0.52 0.41-0.31 0.11 0.46-0.66 0.78-0.77 1.4-1.5 1.4-1.6s0.62-0.8 1.4-1.5c0.76-0.71 1.1-1.1 0.82-0.97-0.32 0.18-0.26 0.028 0.13-0.33 0.39-0.36 0.56-0.65 0.39-0.66s0.098-0.36 0.61-0.78c0.51-0.42 0.93-0.91 0.93-1.1 0-0.17 0.33-0.58 0.74-0.91 0.41-0.33 0.49-0.49 0.18-0.36-0.31 0.13-0.11-0.17 0.44-0.68 0.55-0.5 0.92-0.99 0.82-1.1s0.083-0.38 0.39-0.64c0.31-0.26 0.56-0.68 0.56-0.94 0-0.26 0.34-0.56 0.75-0.66 0.41-0.11 0.71-0.34 0.66-0.51-0.051-0.17 0.43-0.87 1.1-1.6 0.64-0.69 1.1-1.5 0.98-1.7-0.098-0.26 0.12-0.69 0.49-0.97s0.73-0.84 0.79-1.2 0.32-0.91 0.56-1.1c0.24-0.2 0.49-0.62 0.56-0.93 0.067-0.3 0.28-0.61 0.46-0.68 0.19-0.068 0.34-0.34 0.34-0.61 0-0.27 0.4-0.87 0.89-1.3 0.49-0.48 0.79-1.1 0.68-1.4-0.14-0.35-0.055-0.45 0.22-0.28 0.39 0.24 0.6-0.2 0.48-0.98-0.024-0.15 0.15-0.28 0.39-0.28 0.24 0 0.33-0.1 0.2-0.23s6e-3 -0.46 0.29-0.75c0.29-0.29 0.42-0.8 0.29-1.1-0.16-0.4-0.089-0.52 0.2-0.34 0.24 0.15 0.45 0.13 0.48-0.032s0.099-0.78 0.17-1.4c0.068-0.59 0.3-1.2 0.51-1.5 0.21-0.21 0.39-0.69 0.39-1.1s0.18-0.67 0.39-0.67c0.22 0 0.29-0.17 0.16-0.37s-0.025-0.37 0.22-0.37c0.25 0 0.34-0.11 0.21-0.24s-0.058-0.47 0.17-0.74c0.23-0.27 0.28-0.5 0.11-0.5s-0.047-0.21 0.26-0.46c0.31-0.25 0.78-1.2 1-2.1 0.26-0.92 0.66-1.8 0.89-1.9 0.3-0.2 0.26-0.38-0.13-0.64-0.47-0.31-0.45-0.37 0.13-0.37 0.46-4e-3 0.62-0.19 0.47-0.56-0.12-0.31-0.032-0.56 0.19-0.56s0.32-0.33 0.21-0.74c-0.12-0.46-0.047-0.65 0.2-0.5 0.25 0.15 0.32-0.11 0.2-0.73-0.12-0.6-0.043-0.88 0.19-0.74 0.23 0.14 0.29-0.078 0.17-0.57-0.13-0.48-0.062-0.71 0.16-0.57 0.22 0.14 0.33-0.2 0.26-0.83-0.057-0.58 0.1-1.4 0.36-1.9 0.26-0.47 0.42-1.1 0.37-1.5-0.052-0.35 0.12-1.3 0.38-2 0.26-0.76 0.37-1.5 0.25-1.7-0.12-0.19-0.031-0.47 0.2-0.61 0.24-0.15 0.32-0.71 0.2-1.3-0.12-0.59-0.076-1.1 0.092-1.1s0.24-0.68 0.15-1.5c-0.099-0.99-0.017-1.4 0.23-1.3 0.25 0.16 0.31-0.27 0.18-1.3-0.15-1-0.074-1.5 0.24-1.5 0.31 0 0.39-0.45 0.25-1.5-0.13-0.99-0.068-1.4 0.19-1.2 0.26 0.16 0.32-0.52 0.16-2.1-0.16-1.7-0.12-2.2 0.14-1.6 0.26 0.52 0.31-0.09 0.18-2.1-0.11-1.7-0.036-2.9 0.18-3.1 0.22-0.14 0.35-2.8 0.34-6.6-0.016-3.9-0.15-6.1-0.34-5.6-0.3 0.71-0.32 0.7-0.34-0.092-0.014-0.46 0.099-0.83 0.25-0.83s0.22-0.92 0.15-2c-0.081-1.3-0.27-2-0.51-1.8-0.26 0.16-0.3-0.32-0.13-1.5 0.14-0.94 0.14-1.9-6e-3 -2.1-0.15-0.24-0.32-1-0.4-1.8-0.18-1.9-0.4-3.5-0.48-3.7-0.15-0.37-0.4-2.1-0.41-2.7-6e-3 -0.39-0.2-1.1-0.44-1.5-0.24-0.43-0.39-0.91-0.34-1.1 0.049-0.17-0.049-0.22-0.22-0.12-0.17 0.1-0.52-0.15-0.78-0.57-0.39-0.62-0.38-0.7 0.019-0.46 0.36 0.22 0.35 0.12-0.041-0.36-1.4-1.7-10-3.2-10-1.8-1e-3 0.15-0.74 0.32-1.6 0.37-0.91 0.052-2.1 0.26-2.6 0.46-0.53 0.2-1.4 0.37-1.9 0.37s-0.9 0.14-0.9 0.31c0 0.17-0.52 0.23-1.2 0.14-0.71-0.1-1.1-0.029-0.94 0.2 0.14 0.22-0.14 0.3-0.69 0.19-0.5-0.096-0.92-0.03-0.92 0.15-1e-3 0.18-0.7 0.35-1.6 0.38-0.86 0.033-1.6 0.22-1.7 0.42-0.066 0.2-0.45 0.28-0.84 0.17-0.43-0.11-0.72-3e-3 -0.72 0.26 0 0.25-0.24 0.36-0.54 0.24s-0.63-0.073-0.73 0.093c-0.1 0.16-1.2 0.51-2.5 0.76-1.3 0.25-2.7 0.59-3.3 0.76-1.2 0.4-5.7 1.4-7.7 1.7-3.8 0.58-5.7 4.5-4.5 9.2 1 4.1 0.74 23-0.35 25-0.19 0.35-0.24 0.92-0.11 1.3 0.18 0.46 0.11 0.55-0.25 0.33-0.38-0.24-0.44-0.047-0.25 0.88 0.13 0.65 0.1 1.1-0.056 1-0.35-0.21-1.2 3.8-0.96 4.3 0.11 0.18 3e-3 0.32-0.23 0.32-0.24 0-0.34 0.25-0.22 0.56s0.034 0.56-0.18 0.56-0.3 0.25-0.18 0.56c0.12 0.31 0.032 0.56-0.19 0.56-0.23 0-0.33 0.4-0.22 0.93 0.098 0.51 0.054 0.93-0.096 0.93s-0.27 0.44-0.27 0.97c0 0.53-0.23 1.1-0.51 1.3-0.28 0.18-0.36 0.32-0.17 0.33 0.18 4e-3 0.082 0.3-0.23 0.65-0.31 0.36-0.68 1.1-0.83 1.8-0.15 0.61-0.38 1.2-0.51 1.3-0.14 0.1-0.62 0.98-1.1 1.9-0.46 0.97-0.99 1.8-1.2 1.8s-0.26 0.28-0.13 0.62c0.16 0.41 0.094 0.53-0.19 0.35-0.28-0.17-0.35-0.066-0.21 0.31 0.14 0.38 9e-3 0.57-0.4 0.57-0.34 0-0.52 0.16-0.4 0.35s-0.08 0.52-0.44 0.73-0.5 0.39-0.32 0.39c0.18 6e-3 0.034 0.34-0.34 0.75-0.37 0.41-0.56 0.74-0.43 0.74 0.13 0-0.05 0.32-0.41 0.72-1.2 1.4-1.5 1.8-1.3 2 0.11 0.11-0.15 0.42-0.58 0.68-0.43 0.27-0.78 0.7-0.78 0.95 0 0.26-0.23 0.47-0.51 0.47s-0.8 0.44-1.2 0.97c-0.43 0.66-0.48 0.88-0.14 0.7 0.5-0.27-0.71 0.91-5.1 5-1.3 1.2-2.3 2.3-2.3 2.5 0 0.21-0.24 0.38-0.54 0.38s-0.72 0.33-0.94 0.74c-0.22 0.41-0.63 0.74-0.91 0.74s-0.57 0.13-0.64 0.29c-0.068 0.16-0.75 0.68-1.5 1.1-0.76 0.47-1.4 1-1.4 1.2s-0.29 0.31-0.65 0.25c-0.39-0.066-0.6 0.093-0.54 0.4 0.069 0.32-0.1 0.43-0.46 0.29-0.36-0.14-0.57-9e-3 -0.57 0.36 0 0.37-0.21 0.5-0.56 0.37-0.31-0.12-0.56-0.061-0.56 0.12 0 0.45-7.8 4.7-8.4 4.5-0.25-0.056-0.46 0.082-0.46 0.31s-0.15 0.31-0.34 0.2-0.56 0.013-0.84 0.29-0.7 0.43-0.96 0.34c-0.25-0.085-0.46 0.022-0.46 0.24s-0.28 0.28-0.62 0.15c-0.39-0.15-0.52-0.089-0.37 0.16 0.31 0.5-0.67 0.89-1.5 0.58-0.44-0.17-0.53-0.1-0.32 0.24 0.22 0.35 0.088 0.41-0.5 0.22-0.51-0.16-0.79-0.091-0.79 0.21 0 0.25-0.11 0.35-0.24 0.21s-0.43-0.087-0.66 0.1c-0.23 0.19-1.1 0.51-1.9 0.71-0.81 0.2-2.5 0.62-3.7 0.93-6.7 1.7-19 2.1-27 0.94-2.1-0.3-6.7-1.3-11-2.4-0.39-0.098-0.82-0.34-0.94-0.55s-0.64-0.42-1.1-0.47c-0.5-0.056-1.1-0.32-1.4-0.58s-0.78-0.39-1.1-0.28c-0.35 0.11-0.95-0.1-1.4-0.47-0.65-0.6-1.9-1.2-8.1-3.9-0.98-0.43-2.2-1.2-2.7-1.7s-0.91-0.75-0.91-0.57c-6e-3 0.18-0.18 0.033-0.39-0.33-0.21-0.36-0.53-0.56-0.71-0.45s-0.51-0.14-0.74-0.56c-0.22-0.42-0.56-0.67-0.75-0.55-0.36 0.22-0.5 0.12-3.8-2.9-1.2-1.1-2.3-2-2.5-2-0.71-0.17-5.5-5.1-5.7-5.9-0.14-0.45-0.75-1.2-1.4-1.6-0.6-0.43-1-0.93-0.88-1.1 0.12-0.19-0.048-0.34-0.37-0.34-0.53 0-0.75-0.44-0.61-1.2 0.029-0.17-0.085-0.22-0.26-0.12-0.35 0.22-2.8-3.4-2.8-4.1 0-0.27-0.14-0.48-0.31-0.48-0.17 0-0.31-0.24-0.31-0.54 0-0.3-0.38-0.9-0.83-1.4-0.46-0.45-0.62-0.69-0.37-0.55 0.72 0.41 0.54-0.044-0.37-0.93-0.46-0.44-0.58-0.69-0.28-0.54 0.35 0.17 0.32 0.07-0.087-0.26-0.35-0.29-0.53-0.64-0.4-0.77 0.13-0.13 0.052-0.24-0.18-0.24-0.23 0-0.33-0.23-0.23-0.51 0.11-0.28-0.036-0.74-0.32-1-0.28-0.28-0.44-0.74-0.34-1 0.098-0.29 3e-3 -0.41-0.22-0.27-0.22 0.13-0.5-0.14-0.63-0.6-0.49-1.7-1.5-4-1.7-4-0.15 0-0.17-0.25-0.053-0.56 0.12-0.3 0.034-0.56-0.18-0.56s-0.3-0.25-0.18-0.56c0.12-0.3 0.019-0.56-0.22-0.56-0.24 0-0.33-0.17-0.2-0.37 0.13-0.2 0.097-0.58-0.065-0.83s-0.32-0.59-0.35-0.74c-0.028-0.15-0.082-0.32-0.12-0.37-0.038-0.051-0.14-0.76-0.22-1.6s-0.32-1.5-0.53-1.6c-0.21-0.071-0.28-0.54-0.14-1.1 0.18-0.71 0.12-0.88-0.22-0.66-0.35 0.22-0.4 0-0.2-0.92 0.2-0.92 0.16-1.1-0.2-0.92-0.34 0.21-0.41 0.072-0.26-0.51 0.12-0.44 0.046-0.9-0.15-1-0.21-0.13-0.26-0.84-0.12-1.7 0.14-0.81 0.094-1.4-0.097-1.4-0.19 0-0.26-0.94-0.17-2.1 0.12-1.4 0.046-2-0.22-1.8-0.27 0.16-0.37-0.99-0.33-3.6 0.035-2.1 0.2-3.7 0.36-3.4s0.24-0.6 0.16-1.9c-0.077-1.3-0.013-2.2 0.14-2.1 0.16 0.095 0.2-0.51 0.097-1.4-0.14-1.1-0.068-1.5 0.26-1.2 0.33 0.2 0.39-0.075 0.23-1.1-0.12-0.76-0.066-1.4 0.13-1.4 0.19 0 0.35-0.46 0.34-1-0.017-1.6 0.1-2.3 0.39-2.3 0.15 0 0.27-0.38 0.26-0.83-6e-3 -0.94 0.21-1.8 0.8-3.4 0.22-0.58 0.31-1.2 0.2-1.4s-0.023-0.34 0.2-0.34c0.23 0 0.32-0.16 0.2-0.35-0.12-0.19 0.12-0.94 0.53-1.7 0.41-0.73 0.67-1.3 0.58-1.3s0.099-0.75 0.41-1.7c0.31-0.92 0.72-1.6 0.9-1.5 0.18 0.11 0.22-0.081 0.087-0.43-0.18-0.46-0.11-0.55 0.25-0.33 0.31 0.19 0.4 0.16 0.25-0.091-0.32-0.52 0.11-1.6 0.54-1.4 0.18 0.11 0.35-0.013 0.37-0.28 0.024-0.27 0.082-0.65 0.13-0.86s0.11-0.59 0.14-0.86c0.031-0.27 0.25-0.37 0.48-0.22 0.26 0.16 0.33 0.1 0.18-0.14-0.31-0.5 0.5-2.4 0.91-2.1 0.16 0.1 0.48-0.5 0.71-1.3 0.22-0.83 0.65-1.6 0.94-1.7s0.54-0.44 0.54-0.72 0.17-0.52 0.37-0.52 0.37-0.21 0.37-0.47c0-0.26 0.35-0.68 0.78-0.95s0.68-0.58 0.56-0.7c-0.12-0.12 0.074-0.45 0.43-0.74 0.43-0.35 0.46-0.44 0.087-0.28-0.3 0.13 0.028-0.26 0.74-0.87s1.3-1.3 1.3-1.5c0.026-0.22 0.068-0.54 0.093-0.71s0.44-0.49 0.93-0.71 1.4-1.1 1.9-1.9c0.58-0.83 1.3-1.5 1.5-1.5 0.23-5e-3 0.65-0.29 0.93-0.64 0.44-0.54 0.43-0.58-0.048-0.31-0.3 0.17-0.15-0.13 0.34-0.67 1-1.1 1.5-1.3 0.73-0.34-0.41 0.53-0.35 0.52 0.32-0.057 0.46-0.39 0.84-0.89 0.85-1.1s0.55-0.82 1.2-1.3c0.65-0.51 1-0.67 0.81-0.36-0.2 0.31 0.046 0.096 0.56-0.47 0.51-0.57 1.1-1 1.4-1 0.23 2e-3 0.52-0.26 0.64-0.58 0.12-0.32 0.38-0.48 0.58-0.36 0.2 0.12 0.52-0.096 0.73-0.48 0.38-0.71 2-1.9 2.8-2.1 1.2-0.21 2.1-0.68 1.9-0.98-0.12-0.19 0.032-0.25 0.33-0.13 0.3 0.11 0.87-0.16 1.3-0.6 0.41-0.44 0.93-0.69 1.1-0.56 0.22 0.14 0.4 0.06 0.4-0.17 0-0.23 0.17-0.31 0.37-0.18 0.2 0.12 0.37 0.024 0.37-0.23 0-0.25 0.11-0.34 0.25-0.21s0.51 0.017 0.83-0.26 2.2-1.1 4.1-1.7c1.9-0.67 3.7-1.4 3.9-1.5 0.22-0.17 0.5-0.21 0.62-0.095 0.33 0.33 4.3-0.66 4.1-1-0.1-0.17 0.34-0.2 1-0.071 0.92 0.18 1.1 0.13 0.89-0.24-0.23-0.38 4e-3 -0.42 1.1-0.22 0.99 0.19 1.3 0.14 1.1-0.16-0.18-0.3 0.19-0.35 1.3-0.18 0.88 0.13 1.5 0.088 1.4-0.099-0.11-0.18 0.7-0.26 1.9-0.16 1.5 0.12 2 0.053 1.8-0.25-0.19-0.31 1.3-0.42 5.5-0.42 4 0 5.8 0.13 5.8 0.41 0 0.28 0.78 0.36 2.4 0.26 1.3-0.083 2.3-0.015 2.2 0.15s0.58 0.23 1.5 0.14 1.7-0.03 1.7 0.13 0.67 0.21 1.5 0.11c0.88-0.1 1.5-0.017 1.5 0.21 0 0.21 0.34 0.32 0.75 0.24 0.47-0.091 0.66 5e-3 0.5 0.26-0.17 0.27 0.078 0.34 0.73 0.22 0.54-0.1 0.98-0.026 0.98 0.17s0.23 0.27 0.52 0.16c0.28-0.11 0.62-0.095 0.75 0.033 0.13 0.13 0.47 0.27 0.76 0.31 0.95 0.14 3.3 0.98 3.8 1.3 0.5 0.4 2e-3 2.1-1.5 5-0.48 0.96-0.8 2-0.7 2.3 0.11 0.34 0.013 0.42-0.31 0.22-0.35-0.22-0.42-0.084-0.27 0.5 0.14 0.52 0.068 0.71-0.19 0.55-0.25-0.15-0.31-0.024-0.17 0.35 0.12 0.33 0.051 0.65-0.16 0.72-0.22 0.072-0.44 0.58-0.5 1.1-0.061 0.55-0.38 1.3-0.7 1.6s-0.59 0.88-0.59 1.2-0.1 0.76-0.23 0.89c-1.4 1.4-2.8 9.4-1.8 10 0.28 0.23 0.43 0.55 0.33 0.71-0.097 0.16 0.11 0.51 0.47 0.79 0.56 0.44 0.6 0.43 0.27-0.068-0.2-0.32-0.016-0.17 0.42 0.32 0.56 0.63 1 0.82 1.5 0.65 0.42-0.13 0.86-0.067 1 0.14 0.29 0.47 1.9 0.51 2.2 0.063 0.11-0.18 0.7-0.26 1.3-0.19 0.62 0.073 1.1-0.043 1.1-0.26 0-0.24 0.42-0.3 1.1-0.15 0.75 0.16 1.1 0.1 1.1-0.2 0-0.25 0.26-0.34 0.6-0.21 0.33 0.13 0.83 0.043 1.1-0.19 0.31-0.26 1-0.32 1.8-0.17 0.98 0.18 1.3 0.13 1.1-0.18-0.19-0.32 0.05-0.36 0.89-0.18 0.66 0.14 1.2 0.1 1.2-0.094 0-0.19 0.42-0.27 0.93-0.17 0.51 0.097 0.93 9e-3 0.93-0.2 0-0.22 0.57-0.3 1.3-0.19 0.74 0.099 1.2 0.032 1.1-0.15s0.41-0.26 1.2-0.17c1.2 0.14 1.3 0.078 0.91-0.38-0.38-0.46-0.27-0.52 0.71-0.37 0.8 0.12 1.1 0.04 0.9-0.25-0.33-0.53-0.12-0.53 1.1 0.014 0.75 0.34 1 0.33 1.4-0.054s0.36-0.43-0.01-0.23c-0.26 0.14-0.46 0.073-0.46-0.16 0-0.25 0.3-0.32 0.76-0.18 0.94 0.3 3.8-0.15 3.5-0.56-0.1-0.17 0.52-0.22 1.4-0.12 1.2 0.14 1.5 0.087 1-0.24-0.43-0.33-0.2-0.37 1-0.18 1 0.15 1.6 0.1 1.6-0.15 0-0.22 0.25-0.3 0.56-0.18 0.3 0.12 0.85 0.095 1.2-0.05 0.36-0.14 1.5-0.33 2.5-0.42 1-0.086 1.9-0.31 2-0.49 0.063-0.18 0.51-0.26 1-0.17 0.48 0.088 0.98-9e-3 1.1-0.22 0.13-0.21 0.62-0.28 1.1-0.16 0.47 0.12 0.96 0.058 1.1-0.13 0.12-0.19 0.66-0.3 1.2-0.24 0.54 0.059 1.4-0.069 2-0.29s1.3-0.37 1.8-0.35c0.45 0.025 0.91-0.11 1-0.31 0.12-0.19 0.74-0.25 1.4-0.12 0.82 0.16 1.1 0.11 0.89-0.19s0.072-0.36 0.87-0.2c0.71 0.14 1.1 0.075 1.1-0.18 0-0.26 0.42-0.32 1.1-0.18 0.72 0.14 1.1 0.072 1.1-0.2 0-0.27 0.34-0.34 0.93-0.19 0.56 0.14 0.93 0.075 0.93-0.17 0-0.26 0.44-0.32 1.2-0.16 1.1 0.21 1.2 0.18 0.71-0.36-0.45-0.54-0.38-0.57 0.74-0.25 1.6 0.45 1.5 0.45 1.3-0.16-0.14-0.36 0.016-0.46 0.52-0.33 0.41 0.11 0.71-2e-3 0.71-0.26 0-0.3 0.36-0.36 1.1-0.2 0.69 0.15 1.1 0.095 1.1-0.15 0-0.24 0.44-0.3 1.1-0.17 0.61 0.12 1.1 0.064 1.1-0.13 0-0.19 0.5-0.28 1.1-0.19 0.61 0.09 1.1 0.013 1.1-0.17 0-0.39 0.33-0.44 4.2-0.61 1.8-0.081 3-0.31 3.2-0.59 0.16-0.25 0.43-0.42 0.61-0.38 0.18 0.046 0.51-0.27 0.73-0.71 0.22-0.44 0.54-0.67 0.7-0.51 0.16 0.15 0.22 0.036 0.13-0.26-0.091-0.29 0.15-0.85 0.53-1.2s0.61-0.94 0.5-1.2c-0.11-0.29-0.04-0.53 0.16-0.53s0.36-0.42 0.36-0.93c0-0.51-0.17-0.93-0.38-0.93-0.22 0-0.28-0.39-0.14-0.93 0.14-0.57 0.075-0.93-0.18-0.93-0.23 0-0.41-0.22-0.41-0.48 0-0.26-0.2-0.68-0.44-0.92-0.41-0.41-0.66-1.1-0.75-2.2-0.022-0.26-0.15-0.46-0.29-0.46-0.3 0-1.3-1.9-1.2-2.3 0.036-0.15-0.09-0.28-0.28-0.28-0.35 0-0.97-1.4-0.84-1.9 0.04-0.15-0.1-0.28-0.32-0.28-0.22 0-0.29-0.17-0.16-0.37 0.13-0.2 0.043-0.37-0.18-0.37s-0.31-0.17-0.18-0.37 0.058-0.37-0.15-0.37c-0.21 0-0.27-0.28-0.14-0.62 0.16-0.41 0.095-0.53-0.2-0.35-0.4 0.25-0.48 0.096-0.58-1.2-0.022-0.26-0.29-0.64-0.59-0.83s-0.4-0.35-0.22-0.36 0.018-0.3-0.37-0.65c-0.39-0.36-0.76-0.9-0.83-1.2-0.068-0.3-0.32-0.68-0.56-0.83-0.24-0.15-0.3-0.28-0.13-0.28s-0.37-1.2-1.2-2.7-1.4-2.8-1.3-3 0.037-0.24-0.21-0.24c-0.25 0-0.35-0.17-0.22-0.37s0.043-0.37-0.18-0.37-0.31-0.17-0.18-0.37c0.13-0.2 0.043-0.37-0.18-0.37s-0.32-0.15-0.21-0.34c0.28-0.45-0.16-1.6-0.54-1.3-0.4 0.24-0.8-0.89-0.5-1.4 0.15-0.25 0.064-0.28-0.25-0.091-0.36 0.22-0.43 0.13-0.25-0.33 0.13-0.35 0.11-0.55-0.05-0.45-0.16 0.1-0.76-0.89-1.3-2.2-0.57-1.3-1.2-2.4-1.4-2.4-0.19 0-0.26-0.15-0.15-0.33 0.11-0.18-0.14-0.76-0.56-1.3-0.42-0.53-0.66-1.1-0.53-1.3s0.045-0.37-0.18-0.37-0.32-0.15-0.2-0.34c0.12-0.19-0.033-0.58-0.33-0.88-0.3-0.3-0.44-0.64-0.31-0.77s0.025-0.23-0.22-0.23c-0.25 0-0.35-0.17-0.22-0.37 0.12-0.2 0.057-0.37-0.15-0.37s-0.28-0.25-0.17-0.55c0.12-0.32-0.042-0.65-0.38-0.78-0.32-0.12-0.51-0.36-0.4-0.53s-0.077-0.56-0.4-0.89-0.46-0.58-0.32-0.58 0.027-0.29-0.27-0.65c-0.3-0.36-0.72-1.1-0.95-1.6-0.23-0.51-0.95-2.1-1.6-3.6-0.67-1.5-1.4-2.6-1.6-2.4-0.21 0.13-0.27 0.053-0.13-0.17 0.31-0.51-0.5-2.4-0.93-2.1-0.17 0.11-0.33 0.06-0.35-0.1-0.017-0.16-0.075-0.71-0.13-1.2-0.053-0.5-0.29-0.97-0.53-1-0.24-0.079-0.34-0.3-0.22-0.48 0.12-0.19 0.032-0.34-0.18-0.34-0.22 0-0.35-0.21-0.3-0.46s-0.12-0.42-0.37-0.37c-0.26 0.051-0.43-0.033-0.39-0.19 0.14-0.52-0.49-1.9-0.86-1.9-0.2 0-0.26-0.17-0.14-0.37 0.13-0.2 0.024-0.37-0.22-0.37-0.25 0-0.36-0.095-0.24-0.21s-0.014-0.65-0.29-1.2c-0.28-0.53-0.42-1.1-0.31-1.3 0.1-0.17 0.03-0.3-0.16-0.3s-0.64-0.44-0.99-0.97c-0.35-0.54-0.44-0.85-0.2-0.7 0.26 0.16 0.2-0.2-0.16-0.88-0.33-0.63-0.77-1.2-0.98-1.2-0.21 0-0.28-0.17-0.15-0.37 0.13-0.2 0.043-0.37-0.18-0.37s-0.31-0.17-0.18-0.37c0.13-0.2 0.034-0.37-0.2-0.37-0.24 0-0.33-0.26-0.21-0.58 0.14-0.38 0.071-0.48-0.21-0.31-0.29 0.18-0.35 0.061-0.19-0.35 0.14-0.38 0.062-0.58-0.22-0.52-0.25 0.049-0.41-0.12-0.36-0.37 0.051-0.26-0.074-0.46-0.28-0.46s-0.37-0.25-0.37-0.56-0.18-0.56-0.39-0.56c-0.22 0-0.31-0.13-0.21-0.3 0.46-0.75-3.2-3.5-4.9-3.7-1.2-0.14-1.6-0.07-1.4 0.23m3.5 19c3.5 7.8 4.7 10 5.3 11 1.1 1.6 23 44 22 45-0.28 0.28-4.7 1.1-12 2.3-3.8 0.62-11 1.9-15 2.8-4.5 0.9-13 2.5-20 3.5-6.3 1-12 2-12 2.1-0.93 0.36-0.56-0.84 2.6-8.3 3.7-8.7 3.8-9.2 3-11-3.5-8.4-32-13-53-9.2-19 3.5-38 16-47 31-15 24-18 46-11 70 9.8 30 32 49 66 55 31 6.1 70-14 85-44 6.4-13 7.8-20 8-38l0.083-12 3.1-0.68c1.7-0.37 6.5-1.5 11-2.5 10-2.4 12-2.6 13-1.4 1.7 6.9 1.5 28-0.43 37-5.2 27-21 53-41 67-1.2 0.89-3 2.2-4.1 3-10 7.5-30 16-43 18-59 11-114-26-128-84-9.1-39 5.2-83 35-107 33-27 75-34 114-18 10 4.1 11 4 16-13 1.3-3.9 1.4-3.9 2.9-0.56m-54 235c0.46 0.089 1.1 0.086 1.5-7e-3s-0.023-0.16-0.84-0.16-1.1 0.08-0.64 0.17" fill="#040404"/>
<path d="m142 112c-25 15-40 34-48 64-1.2 4.4-1.1 4.9 0.23 0.85 0.59-1.8 1.3-3.5 1.5-3.7 0.26-0.2 0.49-1.1 0.52-1.9 0.03-0.85 0.22-1.8 0.42-2.2 0.26-0.47 0.32-0.093 0.22 1.4-0.097 1.4-0.03 1.8 0.23 1.4 0.24-0.37 0.37-0.4 0.37-0.092 3e-3 0.28 0.52 0.46 1.3 0.46 0.78 0 1.3 0.18 1.3 0.46 0.015 0.6 1.4 1.6 2.7 1.9 0.56 0.14 1 0.48 1 0.76 0 0.72 0.92 1.4 2.3 1.7 0.76 0.16 1.4 0.61 1.8 1.3 0.39 0.7 1.1 1.2 2.2 1.6 0.92 0.3 1.8 0.76 2 1 0.2 0.26 0.58 0.4 0.83 0.31 0.26-0.086 0.46 0.098 0.46 0.41 0 0.72 1.4 1.7 2.4 1.7 0.43 0 1.1 0.33 1.6 0.74 0.44 0.41 0.97 0.74 1.2 0.74s0.39 0.25 0.39 0.56 0.17 0.56 0.37 0.56c0.2 0 0.37-0.25 0.37-0.56 0-0.73 0.97-0.72 1.3 0.02 0.22 0.57-0.15 3.7-0.87 7.5-0.21 1.1-0.36 2.6-0.32 3.3l0.059 1.3 0.15-1.3c2.6-23 16-44 36-58 1.9-1.4 2.7-2.4 1.9-2.4h-0.56c-0.57 0-1.7-1.7-2.3-3.3-0.56-1.7-1.2-2.2-2.2-1.8-0.27 0.13-1.7-2.2-1.7-2.8 0-0.28-0.42-0.78-0.94-1.1-0.64-0.42-0.88-0.83-0.73-1.3 0.15-0.46-0.36-1.3-1.7-2.6-1-1.1-2-2.4-2.1-2.8-0.12-0.48-0.43-0.88-0.69-0.88-0.52 0-1.1-2.4-0.73-3 0.13-0.21-0.11-1-0.53-1.8l-0.76-1.5 1.6 0.16c0.86 0.09 1.3 0.046 1-0.097-1.3-0.59-0.76-1.8 1.3-3 1.7-1.1 2.3-1.5 1.9-1.5-0.056 0-3 1.7-6.5 3.9m15 24c-0.062 0.32-0.12 0.64-0.14 0.71-0.052 0.26-1.1-0.78-1.1-1.1 0-0.17 0.31-0.28 0.7-0.25 0.42 0.031 0.65 0.28 0.58 0.62m38 1.4c1.1 0.075 2.8 0.075 3.9 0 1.1-0.075 0.19-0.14-1.9-0.14s-3 0.061-1.9 0.14m7.4-0.011c0.46 0.089 1.1 0.085 1.5-7e-3 0.35-0.093-0.023-0.17-0.84-0.16-0.81 5e-3 -1.1 0.08-0.64 0.17m89 19c0.36 0.093 0.94 0.093 1.3 0 0.36-0.093 0.065-0.17-0.65-0.17s-1 0.077-0.65 0.17m-7.3 1.2c-1 0.26-1 0.29-0.18 0.32 0.51 0.021 1.2-0.12 1.5-0.32 0.63-0.41 0.3-0.41-1.3 0m-136 94c0 0.063 0.54 0.6 1.2 1.2l1.2 1.1-1.1-1.2c-1-1.1-1.3-1.4-1.3-1.1m119 3.7c-4 5.1-12 13-19 17-1.6 1.1-3.4 2.3-4 2.7-1.6 1.1-7.7 4.2-11 5.5-1.6 0.65-3.2 1.3-3.6 1.5-2.6 1.1-7.6 2.4-14 3.5-2.8 0.48-4.6 0.89-4.1 0.9 1.1 0.031 8.1-1.2 12-2 3.1-0.72 3.2-0.72 2.3-0.045-0.4 0.3-0.55 0.54-0.35 0.54 0.58 0 1.7-0.95 1.4-1.2-0.13-0.13 0.027-0.24 0.36-0.24 0.33 0 0.7 0.17 0.82 0.37 0.12 0.2 0.76 0.33 1.4 0.28 0.84-0.065 1.2 0.056 1.1 0.42-0.076 0.36 0.17 0.46 0.84 0.33 0.52-0.1 1-0.038 1.1 0.14 0.11 0.18-0.35 0.33-1 0.33l-1.2 0.013 0.93 0.53c0.51 0.29 1.4 0.54 1.9 0.54 0.56 8e-3 1 0.15 1 0.31 0 0.16 0.71 0.46 1.6 0.65s1.6 0.52 1.6 0.72c0.012 0.78 0.64 1.3 1.3 1.1 0.63-0.2 1.7 0.68 3.4 2.9 0.24 0.3 1.2 0.64 2 0.75 0.87 0.11 2 0.5 2.6 0.87 0.55 0.37 1.2 0.62 1.5 0.56 0.28-0.059 0.4 0.049 0.29 0.24-0.3 0.48 2.7 3.6 3.3 3.5 0.33-0.069 0.44 0.097 0.3 0.46-0.26 0.67 0.27 0.75 0.89 0.13 0.33-0.33 0.4-0.24 0.27 0.4-0.12 0.61-0.041 0.75 0.29 0.49 0.85-0.66 1.7-0.79 1.9-0.29 0.13 0.33-0.035 0.43-0.49 0.31-0.44-0.12-0.76 0.07-0.9 0.54-0.13 0.41-1.5 1.4-3.3 2.3-1.7 0.9-3.1 1.7-3 1.8 0.46 0.46 11-5.4 17-9.6 10-6.8 26-23 25-27-0.1-1.5-0.087-1.5-0.74-0.91-0.31 0.26-0.49 0.7-0.38 0.97 0.37 0.96-0.16 0.48-1.1-0.98-0.58-0.92-1.2-1.5-1.7-1.5-0.4 0-0.74-0.17-0.74-0.37s-0.22-0.37-0.5-0.37c-0.27 0-0.98-0.42-1.6-0.93-0.59-0.51-1.2-0.93-1.4-0.93s-0.79-0.34-1.3-0.73c-0.51-0.4-1.2-0.73-1.5-0.73-0.96-0.013-1.6-1-0.81-1.2 0.41-0.088-0.24-0.48-1.7-1-1.3-0.48-2.9-1.3-3.7-1.9-0.74-0.58-1.8-1.2-2.3-1.3-0.53-0.13-1.2-0.5-1.4-0.82-0.38-0.52-0.52-0.51-1.3 0.15l-0.87 0.73 0.78-0.92c0.87-1 1.4-1.8 1.2-1.8-0.083 0-0.96 1-2 2.3m25 10c-0.86 1.1-1.5 2.1-1.4 2.3s0.87-0.83 1.7-2.1c1.9-2.8 1.7-2.9-0.34-0.19m-84 21c0.56 0.085 1.4 0.083 1.9-5e-3 0.46-0.088-6e-3 -0.16-1-0.16-1 3e-3 -1.4 0.075-0.83 0.16m-7.4 0.38c0.97 0.076 2.5 0.075 3.3-2e-3 0.86-0.078 0.063-0.14-1.8-0.14-1.8 2e-3 -2.5 0.065-1.6 0.14m-2.2 39c0.56 0.085 1.4 0.082 1.9-5e-3 0.46-0.088-5e-3 -0.16-1-0.16-1 3e-3 -1.4 0.074-0.83 0.16" fill="#be36b6"/>
<path d="m196 126c1.5 0.07 3.9 0.07 5.4 0s0.27-0.13-2.7-0.13-4.2 0.058-2.7 0.13m-51 20-1.1 1.2 1.2-1.1c0.66-0.6 1.2-1.1 1.2-1.2 0-0.29-0.3-0.035-1.3 1.1m-3.5 3.5-2 2.1 2.1-2c2-1.9 2.3-2.2 2-2.2-0.057 0-1 0.96-2.1 2.1m119 111-1.8 1.9 1.9-1.8c1.8-1.7 2.1-2.1 1.8-2.1-0.058 0-0.93 0.88-1.9 1.9" fill="#7e3d45"/>
<path d="m261 92c0 0.2 0.32 0.95 0.71 1.7 0.39 0.71 0.71 1.1 0.71 0.93 0-0.2-0.32-0.95-0.71-1.7-0.39-0.71-0.71-1.1-0.71-0.93m-68 3.8c0.97 0.076 2.5 0.076 3.3-2e-3 0.86-0.078 0.063-0.14-1.8-0.14s-2.5 0.064-1.6 0.14m9.4 1e-3c1.1 0.075 2.7 0.074 3.7-2e-3 0.96-0.076 0.081-0.14-2-0.14-2 1e-3 -2.8 0.064-1.7 0.14m-14 0.36c0.46 0.088 1.1 0.085 1.5-8e-3s-0.023-0.16-0.84-0.16-1.1 0.08-0.64 0.17m22 0c0.46 0.088 1.1 0.085 1.5-8e-3 0.36-0.093-0.022-0.16-0.84-0.16s-1.1 0.08-0.64 0.17m44 6.3c0 0.22-0.45 0.96-1 1.6-0.83 1-0.85 1.1-0.15 0.5 1-0.86 1.7-2 1.4-2.3-0.12-0.12-0.22-0.034-0.22 0.19m15 4.2c0.32 0.61 0.66 1.1 0.76 1.1s-0.074-0.5-0.39-1.1-0.66-1.1-0.76-1.1c-0.1 0 0.073 0.5 0.39 1.1m-77 20c0.56 0.085 1.4 0.083 1.9-5e-3 0.46-0.088-5e-3 -0.16-1-0.16-1 3e-3 -1.4 0.075-0.83 0.16m14 2e-3c0.66 0.082 1.7 0.082 2.4 0s0.12-0.15-1.2-0.15-1.9 0.068-1.2 0.15m-18 0.36c0.36 0.093 0.94 0.093 1.3 0 0.36-0.094 0.065-0.17-0.65-0.17s-1 0.076-0.65 0.17m23 6e-3c0.46 0.089 1.1 0.085 1.5-7e-3 0.35-0.093-0.023-0.16-0.84-0.16-0.82 4e-3 -1.1 0.08-0.64 0.17m65 21c0.36 0.093 0.94 0.093 1.3 0 0.36-0.093 0.065-0.17-0.65-0.17s-1 0.077-0.65 0.17m-3.6 0.48c-0.99 0.25-1 0.28-0.18 0.28 0.51 0 1.4-0.13 2-0.28 0.99-0.25 1-0.28 0.18-0.28-0.51 0-1.4 0.13-2 0.28m-40 2.8c-0.62 1.4-0.5 1.7 0.17 0.41 0.31-0.58 0.5-1.1 0.42-1.2-0.084-0.085-0.35 0.27-0.58 0.79" fill="#a66930"/>
<path d="m194 137c0.46 0.088 1.2 0.088 1.7 0s0.083-0.16-0.83-0.16c-0.92 0-1.3 0.072-0.83 0.16m3.5 4e-3c0.56 0.086 1.4 0.083 1.9-5e-3 0.46-0.088-5e-3 -0.16-1-0.15-1 2e-3 -1.4 0.074-0.83 0.16m-107 55c0 0.71 0.077 1 0.17 0.65s0.093-0.94 0-1.3c-0.093-0.36-0.17-0.065-0.17 0.65m-0.36 3.7c0 0.92 0.072 1.3 0.16 0.83 0.089-0.46 0.089-1.2 0-1.7-0.088-0.46-0.16-0.083-0.16 0.83m-0.32 9.8c0 3.9 0.055 5.4 0.12 3.4s0.066-5.2-1e-3 -7-0.12-0.24-0.12 3.6m30-1.3c0 1.1 0.07 1.6 0.16 1 0.084-0.56 0.084-1.5 0-2-0.085-0.56-0.16-0.1-0.16 1m-0.025 4.8c0 0.71 0.076 1 0.17 0.65 0.093-0.36 0.093-0.94 0-1.3-0.094-0.36-0.17-0.065-0.17 0.65m-29 5.7c5e-3 0.81 0.08 1.1 0.17 0.64 0.089-0.46 0.085-1.1-8e-3 -1.5-0.092-0.35-0.16 0.023-0.16 0.84m0.36 3.1c0 0.71 0.077 1 0.17 0.65 0.093-0.36 0.093-0.94 0-1.3-0.093-0.36-0.17-0.065-0.17 0.65m33 13c-0.038 0.56 1.1 3.9 1.3 3.8 0.079-0.078-0.18-1-0.57-2.1-0.39-1.1-0.72-1.8-0.74-1.6m-27 12c-0.043 0.44 1.2 3.3 1.3 3.1 0.081-0.081-0.18-0.88-0.58-1.8-0.4-0.9-0.73-1.5-0.75-1.4m40 12c0 0.063 0.54 0.6 1.2 1.2l1.2 1.1-1.1-1.2c-1-1.1-1.3-1.4-1.3-1.1m-32 3.6c0.32 0.61 0.66 1.1 0.76 1.1s-0.073-0.5-0.39-1.1c-0.32-0.61-0.66-1.1-0.76-1.1s0.073 0.5 0.39 1.1m38 2.8c1.7 1.7 3.2 3.1 3.3 3.1 0.1 0-1.2-1.4-2.9-3.1-1.7-1.7-3.2-3.1-3.3-3.1s1.2 1.4 2.9 3.1m4.1 3.6c0 0.063 0.54 0.6 1.2 1.2l1.2 1.1-1.1-1.2c-1-1.1-1.3-1.4-1.3-1.1m-37 2.1c0.44 0.61 0.87 1.1 0.98 1.1s-0.17-0.5-0.61-1.1-0.88-1.1-0.98-1.1c-0.1 0 0.17 0.5 0.61 1.1m5.9 7.9c0 0.063 0.54 0.6 1.2 1.2l1.2 1.1-1.1-1.2c-1-1.1-1.3-1.4-1.3-1.1m45 0.057c0 0.1 0.83 0.61 1.9 1.1 1 0.52 1.9 0.86 1.9 0.75s-0.83-0.61-1.9-1.1c-1-0.52-1.9-0.86-1.9-0.75m-38 7.2c2.6 2.6 4.9 4.8 5 4.8s-2-2.2-4.6-4.8-4.9-4.8-5-4.8c-0.1 0 2 2.2 4.6 4.8m16 13c0.46 0.56 2.7 2 2.7 1.7 0-0.086-0.71-0.62-1.6-1.2-0.87-0.57-1.4-0.8-1.1-0.51m12 6.8c0 0.25 3.7 2.1 3.9 2 0.076-0.076-0.77-0.58-1.9-1.1-1.1-0.55-2-0.92-2-0.82m19 7.7c0.24 0.24 6.1 1.7 6.7 1.7 0.27-0.019-1-0.43-2.8-0.92-3.3-0.88-4.2-1-3.9-0.75m61 0.22c-0.47 0.2-0.54 0.32-0.18 0.32 0.3 0 0.89-0.14 1.3-0.32 0.47-0.2 0.54-0.32 0.18-0.32-0.3 0-0.89 0.14-1.3 0.32m-2.6 0.74c-0.47 0.2-0.54 0.32-0.18 0.32 0.31 0 0.89-0.14 1.3-0.32 0.47-0.2 0.54-0.32 0.18-0.32-0.31 0-0.89 0.14-1.3 0.32m-22 3.2c0.56 0.086 1.4 0.083 1.9-5e-3 0.46-0.087-5e-3 -0.16-1-0.15-1 2e-3 -1.4 0.074-0.83 0.16" fill="#3d235b"/>
<path d="m196 95c0.36 0.093 0.94 0.093 1.3 0 0.36-0.093 0.065-0.17-0.65-0.17s-1 0.076-0.65 0.17m4.8 0.011c0.56 0.085 1.4 0.082 1.9-5e-3 0.46-0.088-5e-3 -0.16-1-0.16-1 3e-3 -1.4 0.074-0.83 0.16m-85 23-1.8 1.9 1.9-1.8c1.1-1 1.9-1.9 1.9-1.9 0-0.28-0.34 0.032-2.1 1.8m-5.7 5.7-1.3 1.4 1.4-1.3c0.76-0.7 1.4-1.3 1.4-1.4 0-0.28-0.31-0.017-1.5 1.3m10 3.9-3 3.1 3.1-3c1.7-1.6 3.1-3 3.1-3.1 0-0.27-0.41 0.12-3.2 3m92 10c0 0.078 0.42 0.22 0.93 0.32 0.51 0.097 0.92 0.033 0.92-0.14 0-0.18-0.42-0.32-0.92-0.32-0.51 0-0.93 0.064-0.93 0.14m-52 8.9c-0.76 0.52-1.4 1-1.4 1.1 0 0.097 0.67-0.26 1.5-0.8 1.3-0.86 1.7-1.3 1.4-1.3-0.054 0-0.72 0.42-1.5 0.94m130 8.3c-0.33 0.21-0.11 0.3 0.65 0.27 0.63-0.022 1.1-0.17 1.1-0.32 1e-3 -0.37-1.2-0.34-1.8 0.046m-62 12c-0.1 0.17 0.3 0.23 0.9 0.14 0.6-0.088 1.1-0.22 1.1-0.3 0-0.28-1.8-0.14-2 0.16m-9.2 1.2c0.16 0.16 0.8 0.15 1.4-0.025 1.1-0.32 1.1-0.32-0.3-0.3-0.77 0.014-1.3 0.16-1.1 0.32m100 23c0 0.52 0.15 0.85 0.34 0.74 0.18-0.11 0.25-0.54 0.14-0.95-0.27-1-0.48-0.93-0.48 0.21m0.64 18c-0.15 0.15-0.26 0.7-0.25 1.2l0.024 0.96 0.36-0.9c0.39-0.96 0.31-1.7-0.13-1.3m-60 51-3 3.1 3.1-3c1.7-1.6 3.1-3 3.1-3.1 0-0.27-0.41 0.12-3.2 3m-22 16c-1.4 0.75-1.3 1.1 0.092 0.34 0.61-0.32 1.1-0.65 1.1-0.75 0-0.24-0.04-0.22-1.2 0.41m40 4.5-1.3 1.4 1.4-1.3c0.76-0.7 1.4-1.3 1.4-1.4 0-0.28-0.31-0.016-1.5 1.3m11 2.8-1.1 1.2 1.2-1.1c0.66-0.6 1.2-1.1 1.2-1.2 0-0.29-0.3-0.034-1.3 1.1m-15 1.1-1.1 1.2 1.2-1.1c0.66-0.6 1.2-1.1 1.2-1.2 0-0.29-0.31-0.035-1.3 1.1m11 4.2c-0.9 0.92-1.6 1.7-1.4 1.7s0.92-0.75 1.8-1.7c0.9-0.92 1.6-1.7 1.4-1.7s-0.92 0.75-1.8 1.7m-80 35c-0.17 0.27 5.1 0.19 5.9-0.087 0.2-0.075-1-0.15-2.7-0.17-1.7-0.016-3.1 0.098-3.2 0.25m-6.3 0.36c0.66 0.082 1.7 0.081 2.2-4e-3 0.56-0.084 0.012-0.15-1.2-0.15-1.2 2e-3 -1.7 0.071-1 0.15" fill="#3f1f25"/>
<path d="m198 95c0.36 0.093 0.94 0.093 1.3 0 0.36-0.093 0.065-0.17-0.65-0.17s-1 0.076-0.65 0.17m111 96c0 0.71 0.076 1 0.17 0.65 0.093-0.36 0.093-0.94 0-1.3-0.094-0.36-0.17-0.065-0.17 0.65m0.39 4.3c2e-3 1 0.074 1.4 0.16 0.83 0.086-0.56 0.083-1.4-5e-3 -1.9-0.088-0.46-0.16 5e-3 -0.15 1m-27 7.8c1e-3 4.5 0.054 6.3 0.12 4s0.065-6 0-8.1c-0.066-2.2-0.12-0.3-0.12 4.2m27-0.56c0 1.9 0.062 2.7 0.14 1.8 0.077-0.97 0.077-2.6 0-3.5-0.076-0.97-0.14-0.18-0.14 1.8m-0.39 8.3c2e-3 1.2 0.072 1.7 0.15 1 0.082-0.66 0.081-1.7-4e-3 -2.2-0.084-0.56-0.15-0.012-0.15 1.2m-0.4 5c0 0.71 0.076 1 0.17 0.65 0.093-0.36 0.093-0.94 0-1.3-0.094-0.36-0.17-0.064-0.17 0.65" fill="#503622"/>
</g>
</svg>
