<svg id="svg" version="1.1" xmlns="http://www.w3.org/2000/svg" xmlns:xlink="http://www.w3.org/1999/xlink" width="400" height="400" viewBox="0, 0, 400,400"><g id="svgg"><path id="path0" d="M97.422 45.089 C 96.142 48.503,93.550 55.463,91.662 60.556 C 89.774 65.648,86.522 74.398,84.435 80.000 C 82.349 85.602,79.098 94.352,77.212 99.444 C 73.115 110.504,69.827 119.316,67.538 125.370 C 66.614 127.815,64.810 132.731,63.528 136.296 C 62.247 139.861,60.581 144.361,59.826 146.296 C 59.071 148.231,57.451 152.648,56.225 156.111 C 54.999 159.574,53.334 164.074,52.525 166.111 C 51.717 168.148,49.998 172.731,48.706 176.296 C 47.414 179.861,45.352 185.361,44.125 188.519 L 41.894 194.259 55.448 194.356 C 62.903 194.410,69.075 194.382,69.163 194.293 C 69.252 194.205,70.569 190.578,72.090 186.233 C 73.612 181.888,75.745 176.000,76.830 173.148 C 77.916 170.296,79.179 166.796,79.638 165.370 C 80.884 161.498,81.704 160.108,83.406 158.982 L 84.945 157.963 115.272 157.862 C 136.818 157.790,146.046 157.881,147.142 158.177 C 150.239 159.010,151.163 160.727,156.799 176.111 C 157.919 179.167,159.910 184.500,161.225 187.963 L 163.615 194.259 177.219 194.356 C 190.086 194.448,190.809 194.418,190.563 193.801 C 189.985 192.353,183.112 173.742,180.338 166.111 C 178.708 161.630,176.859 156.713,176.229 155.185 C 175.599 153.657,173.862 149.074,172.369 145.000 C 169.792 137.969,167.745 132.578,158.165 107.593 C 155.900 101.685,152.726 93.269,151.112 88.889 C 147.099 77.997,139.055 56.915,134.295 44.815 L 132.037 39.074 115.893 38.978 L 99.749 38.881 97.422 45.089 M118.781 71.839 C 120.065 72.621,120.947 74.117,122.441 78.046 C 123.888 81.849,130.374 99.765,134.076 110.185 C 135.886 115.278,138.304 122.028,139.451 125.185 C 141.884 131.887,141.938 133.223,139.856 135.304 C 137.780 137.381,137.475 137.407,115.869 137.407 L 96.083 137.407 94.452 136.574 C 90.205 134.404,90.206 133.024,94.468 120.741 C 99.575 106.025,105.702 88.337,108.003 81.667 C 111.497 71.543,114.222 69.059,118.781 71.839 M138.704 170.188 C 139.569 170.489,141.852 170.568,141.852 170.296 C 141.852 170.133,141.060 170.013,140.093 170.029 C 139.125 170.045,138.500 170.117,138.704 170.188 M275.370 227.248 C 274.759 227.329,272.843 227.578,271.111 227.802 C 257.054 229.616,246.436 237.230,241.531 249.013 C 239.534 253.809,239.543 253.892,242.095 254.342 C 243.285 254.552,247.586 255.347,251.652 256.108 C 256.994 257.108,259.086 257.371,259.191 257.056 C 259.522 256.063,263.131 251.914,265.104 250.259 C 276.430 240.756,298.943 242.588,304.243 253.446 C 306.997 259.088,308.221 272.629,306.239 275.532 C 304.922 277.461,296.248 279.978,280.000 283.146 C 258.646 287.310,251.389 289.803,244.886 295.209 C 237.583 301.282,234.682 308.157,234.660 319.444 C 234.619 340.161,246.105 351.941,267.222 352.840 C 281.049 353.429,291.230 349.422,302.337 339.021 C 307.816 333.891,310.158 334.405,311.857 341.111 C 312.296 342.843,313.153 345.551,313.762 347.130 L 314.869 350.000 326.178 350.000 C 335.080 350.000,337.446 349.901,337.296 349.537 C 331.528 335.520,331.536 335.588,331.427 300.638 C 331.291 257.277,331.013 252.160,328.456 246.019 C 324.622 236.807,314.280 230.170,300.304 227.951 C 296.683 227.376,278.311 226.858,275.370 227.248 M285.838 255.818 C 286.298 255.906,286.965 255.903,287.319 255.810 C 287.673 255.717,287.296 255.645,286.481 255.649 C 285.667 255.653,285.377 255.729,285.838 255.818 M305.245 290.630 C 307.865 293.250,307.738 310.589,305.036 319.074 C 296.708 345.231,257.778 344.229,257.778 317.858 C 257.778 305.760,264.050 299.820,281.481 295.409 C 288.979 293.512,294.449 291.803,298.704 290.027 C 301.326 288.932,303.773 289.157,305.245 290.630 M333.812 361.016 C 335.195 361.087,337.362 361.087,338.627 361.015 C 339.891 360.942,338.759 360.884,336.111 360.885 C 333.463 360.885,332.428 360.944,333.812 361.016 M272.963 364.074 C 272.279 364.516,273.263 364.516,275.000 364.074 L 276.111 363.791 274.815 363.753 C 274.102 363.732,273.269 363.877,272.963 364.074 " stroke="none" fill="#fabf1a" fill-rule="evenodd"></path><path id="path1" d="M105.622 26.944 C 111.057 27.002,120.057 27.002,125.622 26.944 C 131.187 26.887,126.741 26.839,115.741 26.839 C 104.741 26.839,100.187 26.886,105.622 26.944 M94.251 27.393 C 94.462 27.735,94.323 27.789,93.724 27.599 C 93.114 27.405,92.865 27.511,92.727 28.022 C 92.626 28.397,91.986 29.120,91.305 29.630 C 90.623 30.139,90.071 30.639,90.077 30.741 C 90.135 31.731,89.936 32.227,89.571 32.001 C 89.278 31.819,89.208 31.987,89.351 32.535 C 89.466 32.974,89.399 33.333,89.203 33.333 C 89.006 33.333,88.944 33.493,89.064 33.687 C 89.184 33.882,89.001 34.674,88.656 35.447 C 88.312 36.220,88.005 36.935,87.975 37.037 C 87.300 39.325,86.493 41.418,86.327 41.315 C 86.208 41.242,86.087 41.590,86.057 42.089 C 85.983 43.316,85.168 45.218,84.811 44.997 C 84.444 44.771,84.002 45.880,84.280 46.330 C 84.394 46.515,84.300 46.667,84.071 46.667 C 83.831 46.667,83.748 46.963,83.875 47.364 C 84.019 47.816,83.883 48.142,83.488 48.294 C 83.098 48.443,82.948 48.793,83.071 49.264 C 83.177 49.669,83.106 50.000,82.912 50.000 C 82.718 50.000,82.608 50.210,82.667 50.466 C 82.846 51.244,81.368 55.159,80.984 54.922 C 80.787 54.800,80.726 54.861,80.847 55.058 C 81.140 55.532,80.371 58.519,79.955 58.519 C 79.776 58.519,79.657 58.644,79.690 58.796 C 79.835 59.459,79.097 61.352,78.451 61.974 C 77.985 62.421,77.828 62.908,77.987 63.409 C 78.164 63.966,78.102 64.089,77.755 63.875 C 77.418 63.667,77.350 63.760,77.518 64.199 C 77.648 64.538,77.576 64.815,77.356 64.815 C 77.137 64.815,77.057 65.073,77.178 65.390 C 77.322 65.765,77.250 65.872,76.970 65.699 C 76.683 65.522,76.619 65.639,76.777 66.050 C 76.908 66.390,76.835 66.667,76.615 66.667 C 76.396 66.667,76.313 66.917,76.430 67.222 C 76.547 67.528,76.464 67.778,76.245 67.778 C 76.026 67.778,75.946 68.036,76.067 68.353 C 76.205 68.713,76.136 68.834,75.882 68.677 C 75.608 68.507,75.562 68.696,75.741 69.259 C 75.938 69.880,75.886 70.019,75.537 69.803 C 75.196 69.592,75.125 69.731,75.277 70.312 C 75.392 70.752,75.371 71.111,75.230 71.111 C 75.089 71.111,74.953 71.403,74.928 71.759 C 74.879 72.468,72.726 78.752,72.308 79.408 C 72.165 79.632,72.038 79.898,72.025 80.000 C 71.914 80.854,71.363 81.822,71.084 81.650 C 70.895 81.533,70.741 81.614,70.741 81.830 C 70.741 82.046,70.917 82.222,71.133 82.222 C 71.349 82.222,71.421 82.392,71.293 82.599 C 71.165 82.806,70.876 82.862,70.652 82.723 C 70.390 82.561,70.329 82.691,70.481 83.087 C 70.789 83.890,70.403 84.879,69.903 84.570 C 69.655 84.417,69.589 84.620,69.722 85.127 C 69.837 85.567,69.762 85.926,69.555 85.926 C 69.349 85.926,69.279 86.185,69.401 86.501 C 69.545 86.876,69.472 86.984,69.192 86.810 C 68.906 86.633,68.842 86.750,69.000 87.161 C 69.130 87.500,69.067 87.778,68.861 87.778 C 68.655 87.778,68.513 87.986,68.546 88.241 C 68.694 89.375,68.497 90.030,68.085 89.776 C 67.794 89.596,67.729 89.710,67.888 90.124 C 68.018 90.463,67.975 90.741,67.791 90.741 C 67.607 90.741,67.472 91.274,67.491 91.925 C 67.509 92.576,67.330 93.174,67.093 93.253 C 66.856 93.332,66.756 93.549,66.871 93.735 C 66.987 93.922,66.925 94.074,66.735 94.074 C 66.545 94.074,66.389 94.490,66.389 94.999 C 66.389 95.507,66.160 96.200,65.880 96.537 C 65.600 96.875,65.423 97.459,65.486 97.835 C 65.550 98.211,65.407 98.519,65.169 98.519 C 64.931 98.519,64.819 98.735,64.920 99.000 C 65.022 99.265,64.879 99.890,64.603 100.389 C 64.326 100.888,64.092 101.130,64.082 100.926 C 64.058 100.459,63.345 101.535,63.345 102.037 C 63.345 102.241,63.525 102.157,63.744 101.852 C 64.077 101.390,64.107 101.410,63.924 101.975 C 63.803 102.348,63.704 102.733,63.704 102.830 C 63.704 102.927,63.553 102.914,63.369 102.800 C 62.978 102.558,62.135 104.745,62.434 105.228 C 62.545 105.408,62.442 105.556,62.204 105.556 C 61.953 105.556,61.872 105.814,62.010 106.174 C 62.141 106.514,62.048 106.916,61.805 107.066 C 61.413 107.308,61.245 107.938,61.142 109.559 C 61.125 109.826,60.933 109.934,60.716 109.800 C 60.499 109.665,60.363 109.780,60.415 110.055 C 60.571 110.876,59.964 112.985,59.632 112.779 C 59.463 112.675,59.372 112.882,59.429 113.239 C 59.487 113.596,59.369 114.097,59.166 114.352 C 58.964 114.606,58.908 114.815,59.042 114.815 C 59.176 114.815,59.079 115.190,58.827 115.648 C 58.576 116.106,58.316 116.806,58.250 117.203 C 58.184 117.600,57.884 118.196,57.583 118.529 C 57.282 118.862,57.147 119.246,57.283 119.382 C 57.419 119.518,57.327 119.630,57.077 119.630 C 56.827 119.630,56.717 119.782,56.832 119.968 C 56.947 120.155,56.832 120.392,56.576 120.496 C 56.224 120.638,56.246 120.780,56.667 121.077 C 57.152 121.420,57.145 121.471,56.614 121.476 C 55.887 121.483,55.486 122.352,55.815 123.209 C 55.988 123.659,55.918 123.743,55.556 123.519 C 55.193 123.294,55.123 123.378,55.296 123.828 C 55.426 124.168,55.353 124.444,55.134 124.444 C 54.915 124.444,54.835 124.703,54.956 125.019 C 55.094 125.379,55.025 125.500,54.771 125.343 C 54.497 125.174,54.451 125.363,54.630 125.926 C 54.822 126.531,54.771 126.683,54.444 126.481 C 54.122 126.282,54.065 126.425,54.245 126.991 C 54.402 127.488,54.334 127.778,54.059 127.778 C 53.818 127.778,53.723 128.034,53.845 128.353 C 53.972 128.682,53.909 128.831,53.699 128.701 C 53.498 128.577,53.314 128.776,53.291 129.145 C 53.246 129.840,53.137 130.422,52.991 130.741 C 52.944 130.843,52.845 131.256,52.770 131.660 C 52.694 132.064,52.467 132.449,52.263 132.517 C 52.060 132.585,51.981 132.868,52.087 133.145 C 52.194 133.423,51.934 134.433,51.511 135.390 C 51.087 136.348,50.741 137.360,50.741 137.640 C 50.741 137.919,50.407 138.481,50.000 138.889 C 49.593 139.296,49.436 139.630,49.651 139.630 C 49.867 139.630,49.939 139.799,49.811 140.006 C 49.683 140.213,49.405 140.276,49.194 140.145 C 48.948 139.993,48.900 140.191,49.059 140.694 C 49.217 141.192,49.149 141.481,48.874 141.481 C 48.633 141.481,48.538 141.738,48.660 142.056 C 48.804 142.432,48.732 142.539,48.451 142.366 C 48.165 142.189,48.101 142.305,48.259 142.717 C 48.389 143.056,48.316 143.333,48.097 143.333 C 47.878 143.333,47.793 143.579,47.908 143.878 C 48.023 144.178,47.863 144.677,47.553 144.986 C 47.243 145.296,47.094 145.718,47.220 145.923 C 47.347 146.128,47.257 146.296,47.019 146.296 C 46.782 146.296,46.683 146.546,46.801 146.852 C 46.918 147.157,46.852 147.407,46.655 147.407 C 46.458 147.407,46.296 147.880,46.296 148.457 C 46.296 149.034,46.171 149.631,46.019 149.784 C 45.866 149.937,45.734 150.173,45.727 150.309 C 45.675 151.215,45.107 152.593,44.786 152.593 C 44.574 152.593,44.491 152.739,44.602 152.918 C 44.712 153.097,44.521 153.805,44.177 154.492 C 43.833 155.179,43.517 156.179,43.475 156.715 C 43.379 157.930,42.334 160.000,41.817 160.000 C 41.593 160.000,41.536 160.328,41.681 160.787 C 41.861 161.352,41.804 161.496,41.481 161.296 C 41.159 161.097,41.102 161.240,41.282 161.805 C 41.435 162.290,41.371 162.593,41.114 162.593 C 40.885 162.593,40.800 162.759,40.926 162.963 C 41.052 163.167,40.960 163.333,40.723 163.333 C 40.485 163.333,40.387 163.583,40.504 163.889 C 40.622 164.194,40.561 164.444,40.370 164.444 C 40.179 164.444,40.130 164.722,40.260 165.061 C 40.433 165.511,40.363 165.594,40.000 165.370 C 39.637 165.146,39.567 165.230,39.740 165.680 C 39.871 166.019,39.798 166.296,39.578 166.296 C 39.359 166.296,39.274 166.541,39.389 166.841 C 39.504 167.141,39.382 167.603,39.117 167.867 C 38.852 168.132,38.673 168.607,38.720 168.923 C 38.766 169.238,38.548 170.068,38.236 170.767 C 37.924 171.465,37.606 172.362,37.529 172.758 C 37.452 173.155,37.165 173.738,36.891 174.055 C 36.617 174.371,36.463 174.823,36.549 175.059 C 36.635 175.295,36.530 175.596,36.316 175.729 C 36.101 175.861,35.926 176.303,35.926 176.710 C 35.926 177.118,35.777 177.359,35.594 177.246 C 35.412 177.134,35.162 177.304,35.039 177.625 C 34.703 178.501,34.779 178.776,35.185 178.148 C 35.492 177.673,35.545 177.687,35.550 178.241 C 35.553 178.597,35.288 178.889,34.960 178.889 C 34.583 178.889,34.443 179.093,34.578 179.444 C 34.696 179.750,34.612 180.000,34.393 180.000 C 34.174 180.000,34.094 180.259,34.215 180.575 C 34.354 180.935,34.284 181.056,34.030 180.899 C 33.756 180.729,33.710 180.918,33.889 181.481 C 34.081 182.087,34.030 182.239,33.704 182.037 C 33.385 181.840,33.323 181.975,33.490 182.502 C 33.648 183.000,33.530 183.321,33.134 183.473 C 32.723 183.630,32.618 183.942,32.792 184.489 C 32.969 185.048,32.914 185.199,32.602 185.006 C 32.313 184.827,32.197 184.970,32.263 185.422 C 32.390 186.290,31.913 187.793,31.279 188.519 C 31.012 188.824,30.794 189.202,30.795 189.358 C 30.805 190.961,28.933 196.303,28.273 196.556 C 28.003 196.660,27.875 196.895,27.989 197.079 C 28.295 197.574,27.781 198.934,27.381 198.687 C 26.922 198.404,26.946 202.249,27.407 202.963 C 27.605 203.269,27.769 203.362,27.772 203.171 C 27.775 202.981,28.236 203.252,28.796 203.774 C 29.736 204.651,31.281 205.632,31.944 205.774 C 32.097 205.807,32.264 205.856,32.315 205.883 C 32.713 206.097,74.705 206.048,74.572 205.833 C 74.478 205.681,74.645 205.556,74.943 205.556 C 75.624 205.556,78.292 203.300,78.453 202.589 C 78.519 202.298,78.740 201.804,78.944 201.493 C 79.238 201.043,79.267 201.079,79.080 201.667 C 78.933 202.129,78.973 202.268,79.187 202.037 C 79.774 201.401,80.350 199.267,80.107 198.633 C 79.942 198.204,80.012 198.112,80.347 198.319 C 80.702 198.538,80.754 198.402,80.556 197.778 C 80.357 197.153,80.410 197.018,80.764 197.237 C 81.095 197.441,81.170 197.354,81.013 196.946 C 80.689 196.101,81.524 193.555,81.928 194.157 C 82.115 194.436,82.142 194.189,81.994 193.556 C 81.803 192.737,81.856 192.551,82.216 192.774 C 82.532 192.969,82.627 192.895,82.504 192.552 C 82.402 192.269,82.589 191.717,82.919 191.325 C 83.401 190.753,83.410 190.676,82.963 190.933 C 82.480 191.211,82.476 191.169,82.926 190.614 C 83.211 190.263,83.486 189.445,83.537 188.796 C 83.588 188.148,83.804 187.559,84.017 187.488 C 84.229 187.417,84.311 187.120,84.199 186.828 C 84.087 186.536,84.174 186.296,84.393 186.296 C 84.612 186.296,84.696 186.046,84.578 185.741 C 84.461 185.435,84.529 185.185,84.729 185.185 C 84.929 185.185,85.093 184.810,85.094 184.352 C 85.096 183.175,86.213 180.646,86.620 180.897 C 86.987 181.124,87.551 180.020,87.231 179.700 C 87.124 179.593,87.037 179.728,87.037 180.000 C 87.037 180.272,86.950 180.407,86.843 180.300 C 86.528 179.984,87.085 178.875,87.446 179.098 C 87.629 179.211,87.795 179.001,87.817 178.633 C 87.839 178.264,87.894 177.713,87.939 177.407 C 87.984 177.102,88.050 176.550,88.085 176.182 C 88.120 175.813,88.273 175.589,88.426 175.682 C 88.579 175.776,88.722 175.352,88.745 174.739 C 88.768 174.127,88.935 173.518,89.115 173.387 C 89.296 173.256,89.490 172.739,89.546 172.238 C 89.602 171.738,89.769 171.238,89.917 171.127 C 90.064 171.017,90.202 170.718,90.222 170.463 C 90.243 170.208,90.284 169.833,90.315 169.630 C 90.422 168.912,142.098 169.143,142.374 169.862 C 142.501 170.193,142.412 170.697,142.176 170.981 C 141.827 171.402,141.878 171.449,142.448 171.235 C 143.075 171.000,143.093 171.040,142.622 171.618 C 142.217 172.117,142.207 172.238,142.581 172.151 C 143.112 172.026,143.810 173.973,143.446 174.563 C 143.319 174.768,143.407 174.813,143.646 174.665 C 144.019 174.435,144.168 174.856,144.042 175.792 C 144.025 175.922,144.192 176.141,144.414 176.278 C 144.636 176.415,145.023 177.392,145.274 178.449 C 145.525 179.506,145.861 180.370,146.021 180.370 C 146.180 180.370,146.200 180.812,146.064 181.352 C 145.878 182.094,145.933 182.262,146.290 182.041 C 146.603 181.847,146.705 181.921,146.592 182.260 C 146.499 182.541,146.637 182.986,146.899 183.248 C 147.161 183.510,147.282 183.970,147.167 184.270 C 147.052 184.570,147.160 184.815,147.407 184.815 C 147.655 184.815,147.761 185.065,147.644 185.370 C 147.527 185.676,147.576 185.926,147.755 185.926 C 147.933 185.926,147.997 186.301,147.896 186.759 C 147.749 187.429,147.792 187.483,148.110 187.037 C 148.531 186.448,148.713 187.070,148.578 188.633 C 148.546 189.001,148.674 189.207,148.863 189.090 C 149.280 188.832,149.770 190.214,149.446 190.737 C 149.319 190.943,149.475 191.111,149.793 191.111 C 150.111 191.111,150.370 191.288,150.370 191.503 C 150.370 191.719,150.162 191.790,149.907 191.661 C 149.653 191.532,149.701 191.647,150.015 191.917 C 150.589 192.411,151.679 195.346,151.605 196.200 C 151.583 196.452,151.739 196.551,151.952 196.420 C 152.195 196.269,152.263 196.473,152.134 196.966 C 152.017 197.412,152.150 197.934,152.442 198.176 C 152.724 198.411,152.863 198.750,152.752 198.931 C 152.640 199.111,152.729 199.259,152.948 199.259 C 153.173 199.259,153.274 199.667,153.179 200.193 C 153.085 200.706,153.152 201.038,153.327 200.930 C 153.501 200.822,153.837 201.319,154.073 202.034 C 154.309 202.748,154.663 203.333,154.860 203.333 C 155.057 203.333,155.169 203.621,155.109 203.973 C 155.049 204.325,155.167 204.639,155.370 204.671 C 156.275 204.813,157.407 205.295,157.407 205.537 C 157.407 205.896,156.151 205.876,179.444 205.875 C 202.300 205.875,201.293 205.905,202.593 205.176 C 203.102 204.890,203.630 204.650,203.765 204.643 C 204.173 204.621,204.581 204.093,204.715 203.415 C 205.213 200.884,205.383 198.889,205.101 198.889 C 204.920 198.889,204.879 198.715,205.010 198.502 C 205.141 198.290,205.026 197.841,204.754 197.505 C 204.332 196.984,204.341 196.942,204.815 197.215 C 205.145 197.405,205.070 197.183,204.630 196.667 C 204.222 196.189,204.083 195.912,204.321 196.050 C 204.647 196.240,204.652 196.035,204.341 195.211 C 204.114 194.611,203.777 194.214,203.591 194.329 C 203.399 194.448,203.367 194.180,203.519 193.704 C 203.717 193.079,203.664 192.943,203.310 193.163 C 202.974 193.370,202.905 193.277,203.074 192.839 C 203.204 192.500,203.137 192.222,202.926 192.222 C 202.711 192.222,202.646 191.897,202.778 191.480 C 202.936 190.983,202.818 190.662,202.422 190.510 C 202.025 190.358,201.908 190.037,202.066 189.539 C 202.233 189.012,202.171 188.877,201.852 189.074 C 201.532 189.271,201.471 189.135,201.640 188.604 C 201.777 188.171,201.664 187.643,201.372 187.351 C 201.094 187.073,200.935 186.638,201.020 186.386 C 201.104 186.132,200.868 185.923,200.494 185.920 C 199.968 185.916,199.929 185.842,200.321 185.594 C 200.722 185.340,200.735 185.130,200.385 184.581 C 199.984 183.951,199.963 183.949,200.153 184.556 C 200.268 184.923,200.210 185.130,200.024 185.015 C 199.684 184.804,199.058 182.644,199.189 182.130 C 199.228 181.977,199.119 181.852,198.948 181.852 C 198.696 181.852,198.253 180.768,197.585 178.519 C 197.555 178.417,197.329 177.846,197.083 177.251 C 196.838 176.656,196.725 175.939,196.832 175.658 C 196.940 175.377,196.864 175.249,196.662 175.373 C 196.328 175.580,196.153 174.986,196.197 173.796 C 196.206 173.542,196.071 173.333,195.896 173.333 C 195.722 173.333,195.685 173.056,195.815 172.717 C 195.988 172.267,195.918 172.183,195.556 172.407 C 195.193 172.632,195.123 172.548,195.296 172.098 C 195.426 171.759,195.360 171.481,195.149 171.481 C 194.926 171.481,194.870 171.151,195.015 170.694 C 195.171 170.204,195.124 169.994,194.891 170.138 C 194.428 170.424,193.656 168.332,193.946 167.578 C 194.103 167.167,193.982 167.094,193.467 167.287 C 192.837 167.524,192.826 167.486,193.333 166.850 C 193.639 166.467,193.686 166.276,193.437 166.425 C 193.016 166.678,192.022 164.909,191.709 163.346 C 191.646 163.033,191.426 162.361,191.221 161.852 C 190.047 158.947,189.370 156.773,189.461 156.202 C 189.518 155.844,189.426 155.638,189.257 155.742 C 188.834 156.003,188.030 153.454,188.364 152.913 C 188.540 152.628,188.472 152.578,188.166 152.767 C 187.818 152.982,187.766 152.842,187.963 152.222 C 188.142 151.659,188.096 151.470,187.822 151.640 C 187.567 151.797,187.498 151.676,187.636 151.316 C 187.758 150.999,187.678 150.741,187.459 150.741 C 187.240 150.741,187.159 150.484,187.279 150.170 C 187.400 149.856,187.353 149.626,187.175 149.658 C 186.428 149.795,186.149 149.594,186.647 149.279 C 187.089 149.000,187.024 148.808,186.277 148.181 C 185.505 147.535,185.453 147.367,185.926 147.050 C 186.403 146.731,186.389 146.677,185.833 146.672 C 185.271 146.667,184.993 146.032,185.141 145.093 C 185.165 144.940,185.001 144.815,184.775 144.815 C 184.550 144.815,184.461 144.565,184.578 144.259 C 184.696 143.954,184.661 143.704,184.501 143.704 C 184.037 143.704,182.497 138.973,182.801 138.481 C 182.977 138.197,182.921 138.130,182.650 138.298 C 182.253 138.543,182.076 138.030,182.122 136.763 C 182.131 136.511,181.991 136.396,181.810 136.507 C 181.510 136.693,181.446 136.502,181.333 135.093 C 181.313 134.838,181.076 134.397,180.807 134.113 C 180.517 133.808,180.410 133.228,180.544 132.694 C 180.707 132.042,180.646 131.867,180.322 132.067 C 180.011 132.259,179.949 132.149,180.118 131.708 C 180.253 131.357,180.210 131.167,180.021 131.283 C 179.834 131.399,179.576 131.324,179.448 131.117 C 179.320 130.910,179.392 130.741,179.608 130.741 C 179.823 130.741,180.000 130.579,180.000 130.382 C 180.000 130.185,179.708 130.133,179.352 130.266 C 178.784 130.479,178.767 130.431,179.212 129.884 C 179.655 129.340,179.631 129.255,179.027 129.230 C 178.637 129.214,178.536 129.119,178.796 129.014 C 179.359 128.787,179.419 128.111,178.865 128.241 C 178.434 128.342,176.957 124.873,177.238 124.418 C 177.334 124.264,177.249 124.081,177.050 124.013 C 176.851 123.945,176.637 123.556,176.574 123.148 C 176.511 122.741,176.330 122.199,176.171 121.944 C 176.012 121.690,176.017 121.479,176.182 121.476 C 176.347 121.473,176.250 121.324,175.967 121.145 C 175.685 120.965,175.435 120.318,175.412 119.705 C 175.389 119.093,175.245 118.668,175.093 118.762 C 174.845 118.914,174.654 118.054,174.771 117.315 C 174.795 117.162,174.637 117.037,174.419 117.037 C 174.185 117.037,174.126 116.717,174.274 116.250 C 174.455 115.678,174.399 115.540,174.066 115.746 C 173.769 115.929,173.668 115.849,173.778 115.518 C 173.872 115.237,173.727 114.785,173.456 114.514 C 173.185 114.243,172.966 113.825,172.969 113.585 C 172.972 113.329,173.123 113.378,173.333 113.704 C 173.584 114.092,173.694 114.117,173.698 113.785 C 173.701 113.524,173.449 113.212,173.137 113.093 C 172.764 112.950,172.651 112.621,172.806 112.132 C 172.950 111.678,172.898 111.478,172.671 111.618 C 172.199 111.910,171.806 110.922,172.094 110.170 C 172.215 109.856,172.168 109.626,171.990 109.658 C 171.229 109.797,170.967 109.592,171.481 109.259 C 171.852 109.020,171.883 108.898,171.574 108.895 C 171.319 108.891,171.111 108.653,171.111 108.364 C 171.111 108.076,170.986 107.784,170.833 107.716 C 170.449 107.545,169.153 104.067,169.110 103.091 C 169.090 102.652,168.975 102.354,168.854 102.429 C 168.528 102.631,167.772 99.938,168.036 99.511 C 168.161 99.310,168.100 99.245,167.902 99.368 C 167.486 99.625,166.515 97.211,166.830 96.702 C 167.143 96.196,166.646 95.154,166.218 95.419 C 165.985 95.563,165.945 95.338,166.111 94.815 C 166.290 94.251,166.244 94.063,165.970 94.232 C 165.716 94.389,165.646 94.268,165.785 93.908 C 165.933 93.520,165.782 93.324,165.317 93.304 C 164.928 93.288,164.830 93.194,165.093 93.088 C 165.347 92.985,165.556 92.739,165.556 92.540 C 165.556 92.341,165.400 92.274,165.211 92.392 C 165.021 92.509,164.761 92.435,164.633 92.228 C 164.505 92.021,164.577 91.852,164.793 91.852 C 165.418 91.852,165.249 91.200,164.425 90.432 C 164.007 90.042,163.638 89.369,163.605 88.936 C 163.573 88.503,163.428 88.148,163.284 88.148 C 163.029 88.148,162.477 86.180,162.596 85.696 C 162.629 85.562,162.471 85.339,162.244 85.199 C 162.018 85.059,161.795 84.431,161.749 83.804 C 161.704 83.178,161.542 82.742,161.389 82.836 C 161.236 82.930,161.090 82.747,161.065 82.429 C 160.994 81.540,160.935 81.361,160.413 80.418 C 160.132 79.912,160.097 79.646,160.329 79.789 C 160.580 79.945,160.649 79.822,160.512 79.464 C 160.390 79.148,160.124 78.889,159.921 78.889 C 159.717 78.889,159.646 78.639,159.764 78.333 C 159.881 78.028,159.804 77.778,159.593 77.778 C 159.370 77.778,159.314 77.447,159.459 76.991 C 159.616 76.498,159.569 76.290,159.333 76.436 C 159.103 76.578,159.039 76.359,159.167 75.869 C 159.309 75.325,159.240 75.153,158.951 75.332 C 158.676 75.502,158.605 75.392,158.748 75.019 C 158.869 74.703,158.789 74.444,158.570 74.444 C 158.350 74.444,158.278 74.168,158.408 73.828 C 158.581 73.378,158.511 73.294,158.148 73.519 C 157.786 73.743,157.716 73.659,157.888 73.209 C 158.051 72.786,157.925 72.583,157.488 72.563 C 157.102 72.546,157.034 72.461,157.315 72.347 C 157.569 72.245,157.778 71.998,157.778 71.799 C 157.778 71.600,157.619 71.536,157.426 71.655 C 157.009 71.913,156.389 70.861,156.216 69.601 C 156.148 69.108,155.962 68.495,155.802 68.241 C 155.642 67.986,155.631 67.585,155.776 67.350 C 155.940 67.085,155.878 67.023,155.613 67.187 C 155.234 67.421,154.998 66.743,155.141 65.833 C 155.165 65.681,155.045 65.556,154.873 65.556 C 154.455 65.556,153.610 62.674,153.894 62.215 C 154.017 62.015,153.947 61.852,153.737 61.852 C 153.528 61.852,153.463 61.575,153.593 61.236 C 153.752 60.821,153.688 60.707,153.396 60.887 C 152.993 61.136,152.817 60.632,152.863 59.356 C 152.872 59.103,152.703 59.006,152.488 59.139 C 152.244 59.290,152.185 59.149,152.333 58.764 C 152.463 58.425,152.413 58.148,152.222 58.148 C 152.031 58.148,151.971 57.898,152.088 57.593 C 152.206 57.287,152.107 57.037,151.870 57.037 C 151.632 57.037,151.542 56.869,151.669 56.663 C 152.008 56.114,151.508 54.816,150.996 54.915 C 150.739 54.965,150.562 54.575,150.570 53.981 C 150.579 53.389,150.385 52.963,150.107 52.963 C 149.845 52.963,149.630 52.546,149.630 52.037 C 149.630 51.528,149.496 51.111,149.334 51.111 C 149.171 51.111,148.814 50.486,148.541 49.722 C 148.267 48.958,147.955 48.098,147.848 47.810 C 147.713 47.450,147.816 47.371,148.178 47.559 C 148.541 47.748,148.526 47.681,148.131 47.342 C 147.386 46.704,146.530 44.594,146.824 44.119 C 146.950 43.916,146.821 43.614,146.538 43.449 C 145.827 43.034,145.286 41.291,145.979 41.648 C 146.255 41.790,146.187 41.666,145.827 41.371 C 145.407 41.027,145.264 40.597,145.427 40.171 C 145.590 39.746,145.540 39.596,145.287 39.752 C 144.783 40.064,144.395 39.079,144.704 38.273 C 144.877 37.822,144.807 37.739,144.444 37.963 C 144.082 38.187,144.012 38.104,144.185 37.653 C 144.315 37.314,144.265 37.037,144.074 37.037 C 143.883 37.037,143.826 36.780,143.946 36.466 C 144.081 36.114,143.982 35.937,143.688 36.003 C 143.395 36.069,142.812 35.052,142.182 33.373 C 141.616 31.867,140.641 30.106,140.015 29.460 C 139.388 28.813,138.999 28.162,139.149 28.012 C 139.299 27.861,139.108 27.859,138.724 28.006 C 138.260 28.185,138.111 28.138,138.278 27.867 C 138.690 27.200,137.076 26.930,135.424 27.389 C 133.651 27.882,96.853 27.736,95.038 27.229 C 94.218 27.001,94.032 27.039,94.251 27.393 M134.118 43.333 C 135.071 45.880,136.556 49.713,137.419 51.852 C 138.282 53.991,139.950 58.324,141.125 61.481 C 142.301 64.639,143.753 68.389,144.353 69.815 C 144.952 71.241,146.495 75.407,147.782 79.074 C 149.069 82.741,150.258 85.921,150.424 86.140 C 150.590 86.360,152.076 90.277,153.726 94.844 C 155.375 99.411,157.060 103.898,157.469 104.815 C 157.879 105.731,159.684 110.398,161.482 115.185 C 163.279 119.972,165.594 126.056,166.625 128.704 C 169.786 136.818,177.775 158.186,182.550 171.296 C 184.331 176.185,185.968 180.519,186.188 180.926 C 186.737 181.943,191.111 194.234,191.111 194.761 C 191.111 195.400,163.935 195.363,163.427 194.722 C 163.226 194.468,161.872 190.926,160.420 186.852 C 158.967 182.778,157.428 178.611,157.000 177.593 C 156.572 176.574,155.142 172.824,153.822 169.259 C 150.937 161.465,150.115 159.955,148.253 159.030 C 145.998 157.909,86.020 157.951,84.113 159.074 C 81.767 160.456,81.608 160.799,75.721 177.222 C 73.822 182.519,71.564 188.727,70.703 191.019 L 69.137 195.185 55.483 195.185 C 40.554 195.185,40.863 195.234,41.984 193.065 C 42.290 192.473,43.984 188.000,45.748 183.124 C 47.512 178.248,49.201 173.759,49.502 173.148 C 49.802 172.537,50.434 170.954,50.905 169.630 C 55.202 157.555,56.429 154.208,56.673 153.889 C 56.829 153.685,58.329 149.602,60.006 144.815 C 61.684 140.028,63.306 135.620,63.612 135.021 C 63.918 134.421,65.476 130.196,67.076 125.631 C 68.675 121.066,70.250 116.807,70.575 116.166 C 70.900 115.525,72.145 112.250,73.340 108.889 C 74.536 105.528,76.125 101.194,76.871 99.259 C 77.618 97.324,79.683 91.739,81.461 86.848 C 83.239 81.958,84.894 77.580,85.140 77.122 C 85.386 76.663,86.926 72.498,88.562 67.866 C 90.199 63.234,91.843 58.778,92.216 57.963 C 92.590 57.148,94.183 52.898,95.758 48.519 C 97.333 44.139,98.853 40.095,99.137 39.533 L 99.653 38.511 116.019 38.607 L 132.386 38.704 134.118 43.333 M114.622 71.426 C 113.708 71.720,112.629 72.524,111.742 73.570 C 110.767 74.721,107.404 84.086,97.063 114.444 C 95.224 119.843,93.549 124.593,93.342 125.000 C 90.636 130.301,91.037 134.459,94.446 136.461 C 96.294 137.547,135.678 137.662,137.641 136.587 C 139.237 135.714,140.603 133.998,140.880 132.520 C 141.094 131.381,136.832 117.837,135.018 113.889 C 134.737 113.278,133.138 108.778,131.463 103.889 C 129.789 99.000,128.169 94.506,127.863 93.902 C 127.557 93.299,126.088 89.269,124.599 84.947 C 120.308 72.495,118.579 70.152,114.622 71.426 M204.444 73.016 C 204.444 73.208,204.236 73.332,203.981 73.291 C 203.205 73.166,202.088 73.762,201.059 74.849 C 200.521 75.418,199.965 75.768,199.824 75.627 C 199.683 75.486,199.602 75.537,199.643 75.741 C 199.801 76.524,199.614 77.071,199.264 76.854 C 199.054 76.725,198.991 76.873,199.118 77.203 C 199.240 77.521,199.144 77.778,198.904 77.778 C 198.629 77.778,198.561 78.067,198.718 78.565 C 198.887 79.095,198.834 79.269,198.558 79.099 C 198.284 78.929,198.148 79.344,198.148 80.349 C 198.148 81.175,198.326 81.852,198.543 81.852 C 198.768 81.852,198.839 82.166,198.708 82.579 C 198.426 83.468,199.092 84.815,199.815 84.815 C 200.323 84.815,200.998 85.708,201.075 86.481 C 201.095 86.685,201.271 86.852,201.466 86.852 C 201.660 86.852,202.089 87.185,202.419 87.593 C 202.748 88.000,202.910 88.083,202.778 87.778 C 202.624 87.422,202.731 87.458,203.074 87.877 C 203.390 88.263,203.857 88.436,204.212 88.300 C 204.565 88.165,204.815 88.255,204.815 88.519 C 204.815 88.818,205.136 88.889,205.772 88.729 C 206.407 88.570,206.646 88.622,206.484 88.885 C 206.315 89.158,207.079 89.220,208.953 89.086 C 210.815 88.954,211.434 89.003,210.926 89.245 C 210.368 89.511,210.732 89.596,212.407 89.591 C 216.089 89.580,217.182 89.660,217.582 89.971 C 217.791 90.134,218.796 90.389,219.815 90.538 C 220.833 90.686,222.000 90.868,222.407 90.943 C 222.815 91.017,223.898 91.179,224.815 91.302 C 225.731 91.426,226.529 91.659,226.587 91.821 C 226.645 91.982,227.084 92.040,227.562 91.948 C 228.040 91.857,228.544 91.964,228.682 92.187 C 228.820 92.410,229.256 92.593,229.651 92.593 C 230.047 92.593,230.370 92.759,230.370 92.963 C 230.370 93.167,230.547 93.333,230.763 93.333 C 230.978 93.333,231.052 93.167,230.926 92.963 C 230.800 92.759,230.879 92.593,231.101 92.593 C 231.323 92.593,231.601 92.843,231.718 93.148 C 231.835 93.454,232.090 93.704,232.284 93.704 C 232.478 93.704,232.534 93.539,232.410 93.338 C 232.280 93.128,232.428 93.065,232.756 93.191 C 233.071 93.312,233.222 93.584,233.091 93.796 C 232.940 94.041,233.207 94.114,233.823 93.996 C 234.423 93.881,234.704 93.953,234.561 94.186 C 234.418 94.416,234.638 94.480,235.127 94.352 C 235.567 94.237,235.926 94.263,235.926 94.408 C 235.926 94.837,239.639 95.899,240.278 95.654 C 240.687 95.497,240.775 95.572,240.570 95.903 C 240.351 96.257,240.487 96.309,241.111 96.111 C 241.736 95.913,241.871 95.965,241.652 96.320 C 241.440 96.663,241.542 96.723,242.023 96.538 C 242.388 96.398,242.915 96.473,243.195 96.706 C 243.475 96.938,243.704 97.020,243.704 96.889 C 243.704 96.757,244.141 96.936,244.675 97.286 C 245.209 97.636,245.992 97.947,246.415 97.979 C 246.838 98.010,247.249 98.228,247.328 98.464 C 247.406 98.700,247.623 98.799,247.809 98.684 C 247.996 98.569,248.148 98.661,248.148 98.889 C 248.148 99.117,248.315 99.200,248.519 99.074 C 248.722 98.948,249.097 98.977,249.352 99.139 C 249.807 99.428,250.004 99.491,250.741 99.583 C 250.944 99.609,251.111 99.874,251.111 100.174 C 251.111 100.529,251.325 100.635,251.727 100.481 C 252.114 100.333,252.253 100.392,252.100 100.639 C 251.966 100.856,252.114 101.132,252.429 101.253 C 252.805 101.398,252.922 101.316,252.770 101.014 C 252.642 100.762,252.758 100.820,253.028 101.144 C 253.298 101.467,253.727 101.662,253.981 101.576 C 254.236 101.490,254.541 101.673,254.660 101.983 C 254.779 102.292,255.082 102.467,255.333 102.371 C 255.584 102.274,256.248 102.621,256.809 103.141 C 257.370 103.661,257.985 103.990,258.176 103.871 C 258.367 103.753,258.624 103.917,258.746 104.236 C 258.868 104.554,259.289 104.815,259.681 104.815 C 260.073 104.815,260.489 105.064,260.606 105.368 C 260.723 105.673,260.957 105.836,261.127 105.731 C 261.297 105.626,261.608 105.835,261.818 106.196 C 262.028 106.557,262.205 106.708,262.211 106.533 C 262.217 106.358,262.568 106.608,262.991 107.089 C 263.414 107.569,263.650 107.713,263.515 107.407 C 263.380 107.102,263.631 107.269,264.074 107.778 C 264.517 108.287,264.769 108.454,264.634 108.148 C 264.499 107.843,264.756 108.009,265.206 108.519 C 265.656 109.028,266.165 109.404,266.338 109.354 C 266.511 109.305,266.925 109.680,267.258 110.188 C 267.591 110.695,268.052 111.110,268.283 111.108 C 268.515 111.106,269.176 111.648,269.753 112.311 C 270.331 112.975,270.676 113.277,270.520 112.983 C 270.355 112.671,270.729 112.798,271.415 113.286 C 272.062 113.747,272.593 114.301,272.593 114.516 C 272.593 114.732,273.634 115.906,274.907 117.125 C 276.181 118.345,276.889 119.131,276.481 118.872 C 276.074 118.613,276.540 119.114,277.518 119.985 C 278.495 120.857,279.204 121.660,279.094 121.770 C 278.984 121.880,279.229 122.205,279.638 122.492 C 280.048 122.779,280.298 123.151,280.194 123.320 C 280.089 123.488,280.277 123.731,280.611 123.859 C 280.944 123.987,281.111 124.198,280.981 124.327 C 280.852 124.457,281.081 124.798,281.490 125.085 C 281.900 125.372,282.149 125.744,282.045 125.912 C 281.941 126.081,282.116 126.318,282.433 126.440 C 282.750 126.562,282.917 126.812,282.803 126.996 C 282.690 127.179,282.856 127.429,283.174 127.551 C 283.491 127.673,283.658 127.923,283.544 128.107 C 283.431 128.291,283.604 128.543,283.929 128.668 C 284.278 128.802,284.431 129.130,284.302 129.467 C 284.181 129.781,284.230 129.947,284.410 129.836 C 284.590 129.725,284.836 129.892,284.957 130.207 C 285.091 130.556,285.023 130.684,284.783 130.536 C 284.567 130.402,284.602 130.633,284.862 131.048 C 285.121 131.464,285.446 131.734,285.585 131.649 C 286.043 131.366,289.078 137.899,288.923 138.833 C 288.871 139.142,289.013 139.226,289.292 139.054 C 289.582 138.875,289.649 138.929,289.478 139.205 C 289.332 139.442,289.466 139.889,289.775 140.199 C 290.085 140.509,290.245 141.007,290.130 141.307 C 290.015 141.607,290.100 141.852,290.319 141.852 C 290.539 141.852,290.611 142.129,290.481 142.468 C 290.313 142.906,290.381 143.000,290.717 142.792 C 291.072 142.573,291.124 142.709,290.926 143.333 C 290.734 143.939,290.784 144.091,291.111 143.889 C 291.438 143.687,291.488 143.839,291.296 144.444 C 291.104 145.050,291.155 145.202,291.481 145.000 C 291.808 144.798,291.859 144.950,291.667 145.556 C 291.475 146.161,291.525 146.313,291.852 146.111 C 292.179 145.909,292.229 146.061,292.037 146.667 C 291.871 147.190,291.911 147.415,292.144 147.271 C 292.348 147.145,292.614 147.299,292.735 147.614 C 292.861 147.942,292.798 148.090,292.588 147.960 C 292.387 147.836,292.222 147.911,292.222 148.126 C 292.222 148.342,292.369 148.519,292.549 148.519 C 292.728 148.519,293.077 149.310,293.323 150.278 C 293.570 151.245,293.856 152.370,293.959 152.778 C 295.129 157.406,295.219 159.327,294.203 157.962 C 293.900 157.555,293.506 157.261,293.328 157.308 C 293.149 157.355,292.648 156.895,292.214 156.285 C 291.780 155.675,291.284 155.264,291.111 155.370 C 290.939 155.477,290.439 155.060,290.000 154.444 C 289.561 153.829,289.062 153.412,288.890 153.518 C 288.718 153.624,288.131 153.168,287.585 152.504 C 287.038 151.840,286.724 151.546,286.885 151.852 C 287.344 152.718,286.103 151.718,283.796 149.360 C 282.727 148.267,281.852 147.476,281.852 147.602 C 281.852 147.728,281.580 147.559,281.249 147.227 C 280.917 146.896,280.422 146.710,280.149 146.814 C 279.877 146.919,279.555 146.845,279.434 146.650 C 279.131 146.159,274.815 146.194,274.815 146.689 C 274.815 146.904,274.630 146.966,274.403 146.826 C 274.177 146.686,273.849 146.801,273.676 147.082 C 273.502 147.363,273.229 147.597,273.069 147.602 C 272.642 147.616,270.191 150.137,270.288 150.463 C 270.333 150.616,270.186 150.741,269.960 150.741 C 269.735 150.741,269.646 150.991,269.764 151.296 C 269.881 151.602,269.802 151.852,269.589 151.852 C 269.347 151.852,269.296 152.287,269.455 153.009 C 269.631 153.814,269.584 154.090,269.299 153.913 C 269.044 153.756,268.891 153.983,268.895 154.515 C 268.899 155.218,268.969 155.271,269.287 154.815 C 269.575 154.402,269.614 154.568,269.437 155.463 C 269.291 156.206,269.349 156.667,269.589 156.667 C 269.802 156.667,269.881 156.915,269.765 157.219 C 269.642 157.539,269.812 157.871,270.168 158.008 C 270.506 158.137,270.700 158.460,270.599 158.724 C 270.497 158.989,270.696 159.426,271.041 159.695 C 271.614 160.144,271.621 160.123,271.122 159.444 C 270.823 159.037,271.411 159.537,272.429 160.556 C 274.596 162.725,276.018 163.904,276.345 163.804 C 276.473 163.765,276.890 164.099,277.271 164.545 C 277.855 165.231,277.862 165.280,277.315 164.856 C 276.958 164.580,276.667 164.438,276.667 164.540 C 276.667 164.643,277.279 165.194,278.026 165.764 C 278.774 166.334,279.263 166.562,279.112 166.271 C 278.961 165.979,279.360 166.324,279.998 167.037 C 280.636 167.750,281.310 168.293,281.496 168.244 C 281.682 168.194,282.198 168.646,282.643 169.248 C 283.087 169.849,283.580 170.261,283.738 170.164 C 283.896 170.066,284.469 170.567,285.011 171.278 C 285.553 171.988,286.120 172.533,286.272 172.488 C 286.423 172.444,287.006 172.949,287.566 173.611 C 288.126 174.273,288.808 174.815,289.082 174.815 C 289.355 174.815,289.937 175.317,290.373 175.930 C 290.810 176.544,291.290 176.970,291.440 176.877 C 291.590 176.785,292.187 177.116,292.766 177.614 C 293.345 178.111,293.943 178.519,294.095 178.519 C 294.247 178.519,294.721 179.112,295.149 179.836 C 295.577 180.561,296.068 181.067,296.240 180.961 C 296.412 180.854,297.027 181.261,297.605 181.865 C 298.184 182.469,298.821 182.963,299.022 182.963 C 299.222 182.963,299.670 183.220,300.018 183.535 C 301.272 184.670,308.560 185.040,307.876 183.933 C 307.765 183.754,307.895 183.681,308.164 183.771 C 308.433 183.860,309.456 183.047,310.438 181.963 C 311.419 180.879,312.226 180.119,312.231 180.274 C 312.235 180.429,312.514 179.998,312.850 179.316 C 313.186 178.634,313.724 177.984,314.045 177.871 C 315.113 177.495,315.880 176.608,315.651 176.012 C 315.483 175.574,315.587 175.488,316.066 175.672 C 316.464 175.825,316.615 175.772,316.467 175.532 C 316.225 175.140,317.709 173.541,318.587 173.249 C 318.853 173.160,319.072 172.842,319.073 172.541 C 319.075 171.691,322.308 168.102,322.875 168.319 C 323.148 168.424,323.269 168.344,323.144 168.141 C 323.018 167.938,323.176 167.511,323.495 167.193 C 323.813 166.874,324.074 166.729,324.074 166.871 C 324.074 167.012,324.322 166.922,324.626 166.670 C 324.929 166.418,325.083 166.060,324.967 165.873 C 324.709 165.455,329.220 160.302,329.625 160.553 C 329.785 160.652,330.143 160.452,330.421 160.110 C 330.768 159.682,330.781 159.574,330.463 159.766 C 329.403 160.402,330.151 159.287,332.417 156.852 C 333.743 155.426,334.824 154.176,334.818 154.074 C 334.792 153.639,335.537 151.852,335.743 151.852 C 335.868 151.852,335.851 152.044,335.705 152.279 C 335.542 152.544,335.604 152.607,335.869 152.443 C 336.499 152.053,336.420 148.645,335.776 148.398 C 335.489 148.288,335.143 147.687,335.005 147.062 C 334.868 146.437,334.593 145.926,334.393 145.926 C 334.194 145.926,334.120 145.782,334.229 145.605 C 334.338 145.429,334.098 144.986,333.695 144.622 C 333.292 144.257,332.963 144.094,332.963 144.259 C 332.963 144.424,332.622 144.250,332.204 143.873 C 331.787 143.495,331.165 143.145,330.822 143.095 C 330.479 143.044,330.140 142.828,330.068 142.613 C 329.852 141.962,326.310 142.127,326.052 142.799 C 325.930 143.116,325.599 143.287,325.315 143.178 C 325.012 143.062,324.040 143.769,322.956 144.894 C 321.941 145.947,321.111 146.667,321.111 146.495 C 321.111 146.322,320.782 146.480,320.379 146.844 C 319.977 147.208,319.752 147.677,319.881 147.885 C 320.009 148.092,319.946 148.159,319.741 148.032 C 319.297 147.757,317.659 149.388,318.018 149.746 C 318.154 149.882,317.303 150.866,316.128 151.932 C 314.953 152.999,313.847 154.252,313.671 154.716 C 313.494 155.181,313.164 155.518,312.937 155.466 C 312.709 155.413,312.331 155.697,312.095 156.095 C 311.046 157.871,310.673 157.971,310.774 156.447 C 310.923 154.203,310.772 152.530,310.437 152.736 C 310.271 152.839,310.210 152.409,310.302 151.780 C 310.397 151.131,310.321 150.727,310.127 150.847 C 309.933 150.968,309.841 150.470,309.916 149.696 C 310.021 148.610,309.961 148.446,309.622 148.889 C 309.285 149.330,309.240 149.192,309.408 148.222 C 309.555 147.366,309.493 147.078,309.200 147.259 C 308.906 147.440,308.857 147.215,309.035 146.506 C 309.219 145.772,309.168 145.568,308.850 145.765 C 308.533 145.961,308.479 145.763,308.657 145.055 C 308.792 144.516,308.749 144.074,308.560 144.074 C 308.372 144.074,308.305 143.738,308.413 143.328 C 308.569 142.730,308.470 142.626,307.915 142.807 C 307.421 142.968,307.361 142.933,307.707 142.685 C 308.229 142.310,307.934 140.230,307.404 140.558 C 307.242 140.658,306.935 140.240,306.722 139.629 C 306.509 139.018,306.451 138.516,306.593 138.513 C 306.736 138.510,306.648 138.377,306.398 138.219 C 306.149 138.060,305.882 137.605,305.806 137.206 C 305.729 136.808,305.544 136.198,305.393 135.851 C 305.243 135.504,305.243 135.020,305.395 134.775 C 305.569 134.493,305.513 134.427,305.242 134.594 C 304.845 134.840,304.668 134.324,304.715 133.056 C 304.725 132.801,304.596 132.593,304.428 132.593 C 304.053 132.593,303.523 131.107,303.656 130.426 C 303.709 130.151,303.600 130.020,303.412 130.136 C 303.006 130.388,302.123 128.608,302.418 128.131 C 302.627 127.793,301.625 125.556,301.265 125.556 C 301.156 125.556,301.186 125.748,301.332 125.983 C 301.501 126.257,301.433 126.310,301.143 126.131 C 300.894 125.977,300.783 125.609,300.896 125.314 C 301.010 125.017,300.940 124.877,300.741 125.000 C 300.542 125.123,300.002 124.423,299.542 123.445 C 299.081 122.467,298.557 121.560,298.378 121.430 C 298.200 121.300,298.184 120.983,298.343 120.725 C 298.511 120.454,298.483 120.348,298.278 120.475 C 298.082 120.596,297.515 119.918,297.017 118.969 C 296.519 118.020,295.778 116.934,295.370 116.556 C 294.951 116.167,294.871 115.974,295.185 116.110 C 295.491 116.243,295.407 116.077,295.000 115.742 C 294.593 115.407,294.300 114.982,294.349 114.798 C 294.398 114.614,293.856 113.881,293.145 113.170 C 292.434 112.458,291.852 111.780,291.852 111.661 C 291.852 111.543,291.394 111.021,290.833 110.502 C 290.273 109.983,289.815 109.391,289.815 109.186 C 289.815 108.981,289.148 108.223,288.333 107.501 C 287.519 106.779,287.185 106.415,287.593 106.691 C 288.014 106.978,287.865 106.682,287.246 106.004 C 286.100 104.751,285.723 104.508,286.122 105.278 C 286.255 105.532,285.104 104.449,283.565 102.870 C 282.026 101.292,280.605 100.000,280.406 100.000 C 280.207 100.000,279.925 99.808,279.779 99.572 C 279.605 99.291,279.693 99.238,280.035 99.417 C 280.321 99.567,280.085 99.257,279.510 98.728 C 278.935 98.200,278.318 97.858,278.138 97.969 C 277.958 98.081,277.535 97.751,277.198 97.237 C 276.861 96.723,276.449 96.387,276.281 96.491 C 276.114 96.594,275.715 96.306,275.396 95.850 C 275.076 95.394,274.811 95.182,274.807 95.381 C 274.802 95.579,274.454 95.324,274.034 94.815 C 273.613 94.306,273.380 94.139,273.515 94.444 C 273.650 94.750,273.452 94.654,273.076 94.231 C 272.700 93.808,272.200 93.526,271.964 93.605 C 271.729 93.683,271.164 93.244,270.709 92.629 C 270.254 92.014,269.742 91.597,269.571 91.703 C 269.399 91.809,269.259 91.709,269.259 91.481 C 269.259 91.254,269.107 91.162,268.921 91.277 C 268.734 91.392,268.512 91.277,268.427 91.022 C 268.342 90.767,267.953 90.558,267.562 90.557 C 267.169 90.556,266.897 90.337,266.954 90.065 C 267.010 89.795,266.885 89.680,266.676 89.809 C 266.467 89.938,266.296 89.857,266.296 89.630 C 266.296 89.402,266.130 89.319,265.926 89.444 C 265.722 89.570,265.556 89.502,265.556 89.293 C 265.556 89.083,265.329 88.999,265.052 89.105 C 264.775 89.212,264.048 88.878,263.437 88.363 C 262.825 87.849,262.219 87.535,262.088 87.665 C 261.958 87.795,261.852 87.697,261.852 87.447 C 261.852 87.198,261.699 87.088,261.513 87.203 C 261.327 87.318,261.118 87.280,261.050 87.118 C 260.901 86.766,257.590 84.812,257.156 84.820 C 256.989 84.824,257.102 84.988,257.407 85.185 C 257.796 85.436,257.820 85.546,257.488 85.550 C 257.227 85.553,256.918 85.307,256.801 85.002 C 256.685 84.698,256.440 84.541,256.257 84.654 C 256.075 84.766,255.926 84.664,255.926 84.427 C 255.926 84.189,255.668 84.094,255.351 84.215 C 255.035 84.337,254.867 84.289,254.979 84.109 C 255.210 83.734,254.157 83.238,253.712 83.513 C 253.550 83.614,253.211 83.447,252.960 83.144 C 252.708 82.841,252.222 82.593,251.881 82.593 C 251.539 82.593,251.097 82.431,250.899 82.233 C 250.702 82.035,250.173 81.817,249.724 81.749 C 249.275 81.680,248.804 81.520,248.677 81.393 C 248.550 81.266,248.212 81.252,247.927 81.361 C 247.641 81.471,247.407 81.381,247.407 81.162 C 247.407 80.943,247.179 80.852,246.900 80.959 C 246.620 81.066,246.120 80.882,245.788 80.550 C 245.457 80.219,245.185 80.063,245.185 80.204 C 245.185 80.345,244.977 80.309,244.722 80.124 C 244.468 79.939,243.759 79.737,243.148 79.676 C 242.537 79.616,241.879 79.414,241.685 79.227 C 241.492 79.041,241.033 78.889,240.667 78.889 C 240.300 78.889,240.000 78.735,240.000 78.547 C 240.000 78.072,237.500 77.293,236.817 77.555 C 236.461 77.691,236.352 77.617,236.517 77.349 C 236.695 77.062,236.470 76.988,235.807 77.115 C 235.206 77.230,234.925 77.158,235.069 76.925 C 235.211 76.695,234.992 76.631,234.502 76.759 C 234.063 76.874,233.704 76.797,233.704 76.589 C 233.704 76.380,233.370 76.297,232.963 76.404 C 232.556 76.510,232.222 76.428,232.222 76.221 C 232.222 76.002,231.823 75.946,231.265 76.086 C 230.719 76.223,230.398 76.181,230.518 75.987 C 230.771 75.577,227.900 75.066,227.328 75.420 C 227.098 75.562,227.027 75.500,227.165 75.277 C 227.401 74.897,224.115 74.197,223.033 74.398 C 222.765 74.447,221.682 74.317,220.625 74.108 C 219.568 73.899,217.954 73.619,217.037 73.485 C 216.120 73.350,214.954 73.174,214.444 73.093 C 212.275 72.749,204.444 72.688,204.444 73.016 M116.546 95.059 C 116.412 95.193,116.487 95.524,116.711 95.795 C 116.936 96.065,117.025 96.534,116.909 96.835 C 116.794 97.137,116.861 97.484,117.059 97.606 C 117.257 97.729,117.335 97.965,117.232 98.132 C 117.129 98.298,117.283 98.632,117.575 98.874 C 117.866 99.116,118.013 99.551,117.901 99.842 C 117.790 100.133,117.878 100.370,118.097 100.370 C 118.316 100.370,118.399 100.620,118.282 100.926 C 118.165 101.232,118.271 101.481,118.519 101.481 C 118.766 101.481,118.872 101.731,118.755 102.037 C 118.638 102.343,118.721 102.593,118.940 102.593 C 119.159 102.593,119.245 102.837,119.130 103.136 C 119.015 103.435,119.073 103.774,119.259 103.889 C 119.445 104.004,119.493 104.370,119.365 104.702 C 119.201 105.130,119.272 105.221,119.606 105.014 C 119.957 104.798,120.015 104.926,119.830 105.509 C 119.685 105.966,119.741 106.296,119.963 106.296 C 120.174 106.296,120.241 106.574,120.111 106.913 C 119.961 107.302,120.021 107.438,120.273 107.282 C 120.531 107.123,120.598 107.318,120.463 107.835 C 120.329 108.347,120.395 108.547,120.648 108.391 C 120.892 108.240,120.973 108.412,120.860 108.844 C 120.749 109.269,121.006 109.848,121.520 110.326 C 121.983 110.758,122.227 111.111,122.062 111.111 C 121.896 111.111,121.927 111.319,122.129 111.574 C 122.599 112.166,123.442 114.761,123.498 115.791 C 123.522 116.225,123.766 116.851,124.040 117.181 C 124.313 117.510,124.537 118.196,124.537 118.705 C 124.537 119.213,124.678 119.630,124.849 119.630 C 125.021 119.630,125.066 119.880,124.949 120.185 C 124.831 120.491,124.915 120.741,125.134 120.741 C 125.353 120.741,125.445 120.969,125.337 121.249 C 125.230 121.528,125.402 122.015,125.718 122.332 C 126.035 122.649,126.193 123.170,126.070 123.491 C 125.939 123.833,126.041 124.074,126.318 124.074 C 126.578 124.074,126.689 124.175,126.566 124.299 C 126.442 124.422,126.664 124.870,127.059 125.294 C 127.454 125.719,127.772 126.243,127.766 126.459 C 127.760 126.675,127.540 126.570,127.278 126.226 C 126.740 125.518,105.643 125.169,106.080 125.876 C 106.308 126.244,104.490 126.835,104.156 126.502 C 104.046 126.391,104.219 126.008,104.541 125.650 C 104.864 125.293,105.242 124.540,105.383 123.978 C 105.523 123.416,105.779 122.869,105.951 122.762 C 106.123 122.656,106.160 122.297,106.032 121.964 C 105.878 121.563,105.944 121.449,106.229 121.625 C 106.509 121.798,106.582 121.691,106.438 121.316 C 106.316 120.999,106.411 120.741,106.649 120.741 C 106.886 120.741,106.986 120.588,106.871 120.401 C 106.756 120.215,106.839 119.595,107.056 119.025 C 107.356 118.236,107.526 118.111,107.768 118.503 C 107.979 118.844,108.065 118.590,108.025 117.749 C 107.982 116.869,108.113 116.513,108.454 116.583 C 108.791 116.653,108.870 116.450,108.707 115.935 C 108.572 115.512,108.636 115.185,108.852 115.185 C 109.063 115.185,109.140 114.935,109.023 114.630 C 108.906 114.324,108.976 114.074,109.178 114.074 C 109.381 114.074,109.540 113.866,109.530 113.611 C 109.484 112.370,109.662 111.828,110.040 112.062 C 110.319 112.234,110.365 112.049,110.185 111.481 C 109.988 110.861,110.040 110.722,110.388 110.937 C 110.691 111.124,110.763 111.076,110.591 110.798 C 110.279 110.294,111.862 105.148,112.254 105.390 C 112.402 105.482,112.436 105.223,112.330 104.815 C 112.217 104.384,112.318 104.074,112.571 104.074 C 112.811 104.074,112.911 103.919,112.794 103.729 C 112.676 103.540,112.753 103.278,112.963 103.148 C 113.173 103.018,113.258 102.770,113.151 102.597 C 113.044 102.424,113.181 102.057,113.457 101.781 C 113.732 101.506,113.915 100.995,113.864 100.645 C 113.712 99.611,114.528 97.407,115.062 97.407 C 115.334 97.407,115.556 97.241,115.556 97.037 C 115.556 96.833,115.379 96.667,115.163 96.667 C 114.948 96.667,114.876 96.497,115.004 96.290 C 115.132 96.083,115.376 96.000,115.547 96.106 C 115.717 96.211,115.770 95.964,115.663 95.556 C 115.523 95.019,115.651 94.815,116.130 94.815 C 116.493 94.815,116.680 94.924,116.546 95.059 M329.167 142.848 C 328.810 142.941,328.227 142.941,327.870 142.848 C 327.514 142.755,327.806 142.679,328.519 142.679 C 329.231 142.679,329.523 142.755,329.167 142.848 M132.504 169.892 C 132.965 169.980,133.632 169.977,133.986 169.884 C 134.340 169.791,133.963 169.719,133.148 169.723 C 132.333 169.727,132.044 169.803,132.504 169.892 M39.722 206.569 C 40.690 206.645,42.273 206.645,43.241 206.569 C 44.208 206.492,43.417 206.430,41.481 206.430 C 39.546 206.430,38.755 206.492,39.722 206.569 M60.463 206.566 C 61.227 206.646,62.477 206.646,63.241 206.566 C 64.005 206.486,63.380 206.421,61.852 206.421 C 60.324 206.421,59.699 206.486,60.463 206.566 M167.327 206.570 C 168.404 206.645,170.070 206.644,171.031 206.568 C 171.992 206.492,171.111 206.431,169.074 206.432 C 167.037 206.433,166.251 206.495,167.327 206.570 M178.225 206.571 C 179.591 206.642,181.924 206.642,183.410 206.572 C 184.895 206.501,183.778 206.443,180.926 206.442 C 178.074 206.442,176.858 206.500,178.225 206.571 M187.690 206.558 C 188.150 206.647,188.817 206.643,189.171 206.551 C 189.525 206.458,189.148 206.386,188.333 206.390 C 187.519 206.394,187.229 206.470,187.690 206.558 M279.507 215.056 C 279.432 215.124,276.018 215.512,273.704 215.716 C 272.787 215.797,271.620 215.960,271.111 216.078 C 269.965 216.345,268.259 216.668,267.037 216.852 C 265.071 217.147,262.407 217.677,262.407 217.773 C 262.407 217.802,261.845 217.880,261.157 217.947 C 260.470 218.014,259.780 218.275,259.625 218.527 C 259.469 218.778,259.157 218.869,258.930 218.729 C 258.704 218.589,258.519 218.669,258.519 218.907 C 258.519 219.144,258.269 219.243,257.963 219.125 C 257.657 219.008,257.407 219.068,257.407 219.259 C 257.407 219.450,257.130 219.500,256.791 219.370 C 256.401 219.220,256.265 219.280,256.421 219.532 C 256.581 219.790,256.386 219.857,255.869 219.722 C 255.380 219.594,255.159 219.658,255.301 219.887 C 255.545 220.283,253.750 221.281,253.409 220.940 C 253.299 220.830,253.432 220.741,253.704 220.741 C 253.975 220.741,254.110 220.653,254.004 220.547 C 253.707 220.250,252.571 220.777,252.780 221.115 C 253.006 221.481,249.861 223.362,248.900 223.434 C 248.515 223.463,248.281 223.619,248.381 223.781 C 248.542 224.042,248.241 224.136,247.541 224.042 C 247.411 224.025,247.167 224.233,246.999 224.505 C 246.831 224.777,246.540 225.000,246.352 225.000 C 246.163 225.000,245.645 225.417,245.199 225.926 C 244.753 226.435,244.502 226.602,244.642 226.296 C 244.782 225.991,244.467 226.241,243.943 226.852 C 243.419 227.463,242.984 228.088,242.976 228.241 C 242.969 228.394,242.786 228.519,242.571 228.519 C 242.355 228.519,242.300 228.310,242.449 228.056 C 242.598 227.801,242.358 227.910,241.916 228.298 C 241.051 229.056,240.841 229.470,241.539 229.039 C 241.806 228.874,241.866 228.937,241.698 229.208 C 241.551 229.447,241.301 229.562,241.142 229.464 C 240.984 229.366,240.370 229.819,239.779 230.470 C 238.835 231.511,238.817 231.570,239.630 230.954 C 240.139 230.569,239.807 230.988,238.891 231.886 C 237.976 232.784,237.212 233.602,237.193 233.704 C 237.058 234.428,236.534 235.147,236.262 234.979 C 236.082 234.867,236.034 235.035,236.155 235.351 C 236.296 235.718,236.168 235.926,235.802 235.926 C 235.487 235.926,235.127 236.091,235.003 236.292 C 234.868 236.510,235.034 236.559,235.412 236.414 C 235.843 236.249,235.961 236.310,235.780 236.604 C 235.632 236.842,235.282 237.037,235.000 237.037 C 234.718 237.037,234.369 237.229,234.224 237.465 C 234.060 237.730,234.122 237.792,234.387 237.628 C 234.622 237.483,234.815 237.540,234.815 237.756 C 234.815 237.972,234.571 238.148,234.272 238.148 C 233.974 238.148,233.541 238.502,233.309 238.934 C 232.971 239.567,232.986 239.669,233.389 239.462 C 233.664 239.320,233.600 239.442,233.246 239.731 C 232.893 240.021,232.713 240.367,232.845 240.500 C 232.978 240.632,232.882 240.741,232.632 240.741 C 232.383 240.741,232.274 240.896,232.392 241.086 C 232.651 241.506,231.473 244.074,231.021 244.074 C 230.843 244.074,230.800 244.241,230.926 244.444 C 231.052 244.648,230.984 244.815,230.774 244.815 C 230.565 244.815,230.483 245.048,230.592 245.332 C 230.701 245.617,230.555 246.070,230.266 246.340 C 229.978 246.609,229.819 247.127,229.914 247.489 C 230.009 247.852,229.906 248.148,229.684 248.148 C 229.463 248.148,229.378 248.398,229.496 248.704 C 229.613 249.009,229.534 249.259,229.320 249.259 C 229.106 249.259,228.996 249.593,229.074 250.000 C 229.163 250.464,229.017 250.741,228.682 250.741 C 228.389 250.741,228.148 250.917,228.148 251.133 C 228.148 251.349,228.343 251.405,228.581 251.257 C 228.877 251.075,228.936 251.195,228.767 251.636 C 228.630 251.992,228.516 252.394,228.513 252.530 C 228.510 252.666,228.330 252.528,228.113 252.222 C 227.810 251.797,227.772 251.913,227.948 252.716 C 228.097 253.399,228.043 253.683,227.793 253.528 C 227.544 253.374,227.407 254.014,227.407 255.337 C 227.407 257.005,227.510 257.345,227.963 257.171 C 228.269 257.054,228.519 257.142,228.519 257.368 C 228.519 257.593,228.352 257.778,228.148 257.778 C 227.944 257.778,227.778 257.944,227.778 258.148 C 227.778 258.352,228.028 258.519,228.333 258.519 C 228.639 258.519,228.889 258.769,228.889 259.074 C 228.889 259.380,228.900 259.702,228.913 259.791 C 228.972 260.193,232.438 263.520,232.685 263.412 C 232.838 263.345,232.963 263.476,232.963 263.704 C 232.963 263.931,233.111 264.026,233.291 263.915 C 233.472 263.803,233.826 263.960,234.077 264.263 C 234.624 264.922,235.805 264.992,236.010 264.379 C 236.095 264.123,236.354 264.066,236.635 264.240 C 237.026 264.481,237.022 264.597,236.614 264.855 C 236.217 265.107,236.241 265.175,236.728 265.180 C 237.068 265.183,237.411 264.989,237.491 264.748 C 237.581 264.481,237.911 264.416,238.345 264.583 C 238.948 264.814,238.972 264.911,238.508 265.236 C 238.109 265.515,238.337 265.565,239.360 265.423 C 240.304 265.292,240.677 265.358,240.511 265.627 C 240.348 265.891,240.656 265.968,241.420 265.856 C 242.056 265.763,242.633 265.863,242.706 266.080 C 242.795 266.349,243.143 266.333,243.812 266.028 C 244.349 265.784,244.879 265.730,244.989 265.908 C 245.099 266.087,244.980 266.325,244.725 266.438 C 244.469 266.550,244.926 266.552,245.741 266.442 C 246.846 266.292,247.081 266.341,246.667 266.633 C 245.997 267.106,246.401 267.124,248.218 266.702 C 249.233 266.466,249.632 266.509,249.769 266.867 C 249.878 267.149,250.273 267.267,250.718 267.150 C 251.138 267.040,251.481 267.114,251.481 267.313 C 251.481 267.512,251.895 267.596,252.401 267.499 C 252.907 267.403,253.615 267.446,253.975 267.595 C 254.556 267.836,255.683 268.023,257.407 268.165 C 257.713 268.190,258.213 268.301,258.519 268.411 C 259.014 268.590,260.875 268.595,262.685 268.422 C 263.042 268.388,263.333 268.211,263.333 268.029 C 263.333 267.847,263.583 267.794,263.889 267.912 C 264.194 268.029,264.444 267.936,264.444 267.704 C 264.444 267.473,264.538 267.377,264.652 267.491 C 264.766 267.606,265.466 267.144,266.206 266.465 C 266.947 265.787,267.713 265.330,267.908 265.451 C 268.116 265.580,268.139 265.471,267.964 265.186 C 267.777 264.885,267.905 264.527,268.301 264.237 C 268.652 263.981,268.924 263.671,268.906 263.548 C 268.858 263.214,269.989 261.111,270.217 261.111 C 270.325 261.111,270.295 261.304,270.150 261.539 C 269.985 261.806,270.048 261.866,270.319 261.698 C 270.558 261.551,270.656 261.274,270.538 261.083 C 270.297 260.693,271.725 258.519,272.223 258.519 C 272.399 258.519,273.346 258.023,274.327 257.417 C 277.210 255.638,288.519 254.157,288.519 255.559 C 288.519 255.723,288.852 255.769,289.259 255.663 C 289.667 255.556,290.000 255.640,290.000 255.848 C 290.000 256.056,290.359 256.133,290.799 256.018 C 291.342 255.876,291.513 255.945,291.335 256.234 C 291.165 256.509,291.275 256.581,291.647 256.438 C 291.964 256.316,292.222 256.402,292.222 256.627 C 292.222 256.853,292.410 256.995,292.639 256.944 C 292.868 256.894,293.140 257.083,293.242 257.366 C 293.368 257.711,293.273 257.784,292.954 257.587 C 292.640 257.393,292.569 257.440,292.746 257.727 C 292.894 257.965,293.129 258.089,293.270 258.002 C 294.023 257.536,296.235 261.053,295.716 261.891 C 295.604 262.073,295.707 262.222,295.946 262.222 C 296.218 262.222,296.319 262.638,296.217 263.333 C 296.128 263.944,296.192 264.444,296.360 264.444 C 296.529 264.444,296.667 265.262,296.667 266.262 C 296.667 267.940,296.606 268.063,295.868 267.870 C 295.321 267.727,295.153 267.796,295.334 268.090 C 295.593 268.508,294.742 268.691,293.241 268.538 C 292.884 268.502,292.593 268.635,292.593 268.833 C 292.593 269.032,292.075 269.113,291.442 269.013 C 290.653 268.889,290.372 268.962,290.547 269.246 C 290.725 269.533,290.493 269.582,289.791 269.405 C 289.150 269.245,288.863 269.287,289.008 269.522 C 289.148 269.749,288.861 269.821,288.267 269.708 C 287.606 269.581,287.380 269.655,287.556 269.941 C 287.737 270.234,287.449 270.296,286.592 270.148 C 285.610 269.979,285.479 270.023,285.926 270.374 C 286.399 270.746,286.381 270.778,285.804 270.591 C 284.763 270.253,282.050 270.767,282.655 271.188 C 282.985 271.417,282.857 271.448,282.269 271.281 C 281.741 271.131,281.282 271.206,281.121 271.466 C 280.853 271.900,277.543 272.589,275.297 272.679 C 274.646 272.705,274.197 272.862,274.299 273.027 C 274.401 273.193,274.101 273.325,273.631 273.320 C 272.247 273.307,270.233 273.579,269.555 273.869 C 269.208 274.018,268.761 274.039,268.562 273.916 C 268.362 273.792,268.105 273.844,267.990 274.031 C 267.874 274.218,267.160 274.370,266.402 274.370 C 265.645 274.370,264.973 274.524,264.911 274.712 C 264.848 274.900,264.277 274.978,263.642 274.885 C 262.896 274.775,262.572 274.853,262.727 275.103 C 262.866 275.327,262.693 275.446,262.317 275.385 C 261.959 275.328,261.466 275.440,261.220 275.635 C 260.974 275.830,260.611 275.889,260.412 275.767 C 260.214 275.644,259.942 275.720,259.809 275.935 C 259.676 276.150,259.248 276.225,258.858 276.101 C 258.467 275.977,258.148 276.038,258.148 276.237 C 258.148 276.435,257.815 276.510,257.407 276.404 C 256.977 276.291,256.667 276.392,256.667 276.645 C 256.667 276.885,256.508 276.982,256.313 276.862 C 255.773 276.529,254.048 277.066,254.308 277.487 C 254.450 277.716,254.237 277.762,253.750 277.607 C 253.176 277.425,252.963 277.515,252.963 277.938 C 252.963 278.257,252.671 278.516,252.315 278.513 C 251.755 278.508,251.742 278.453,252.222 278.108 C 252.684 277.775,252.664 277.745,252.099 277.928 C 251.726 278.049,251.351 278.148,251.266 278.148 C 251.181 278.148,251.111 278.398,251.111 278.704 C 251.111 279.009,250.986 279.232,250.833 279.199 C 250.681 279.167,250.083 279.334,249.506 279.572 C 248.929 279.811,248.304 279.911,248.117 279.796 C 247.930 279.680,247.778 279.790,247.778 280.040 C 247.778 280.290,247.668 280.384,247.534 280.250 C 247.400 280.116,247.050 280.206,246.756 280.450 C 246.462 280.694,245.959 280.932,245.639 280.979 C 245.318 281.026,244.908 281.329,244.727 281.651 C 244.547 281.974,244.242 282.141,244.051 282.023 C 243.860 281.905,243.704 281.994,243.704 282.222 C 243.704 282.450,243.537 282.533,243.333 282.407 C 243.130 282.282,242.963 282.351,242.963 282.561 C 242.963 282.772,242.445 283.212,241.811 283.540 C 240.957 283.981,240.725 284.008,240.913 283.642 C 241.052 283.370,240.892 283.481,240.557 283.889 C 240.222 284.296,239.793 284.588,239.603 284.537 C 239.414 284.486,239.259 284.691,239.259 284.991 C 239.259 285.292,238.824 285.823,238.293 286.172 C 237.761 286.520,236.695 287.430,235.924 288.194 C 235.152 288.958,234.420 289.482,234.297 289.359 C 234.175 289.236,234.074 289.400,234.074 289.723 C 234.074 290.046,233.491 290.670,232.778 291.111 C 232.065 291.552,231.481 291.992,231.481 292.089 C 231.481 292.186,231.648 292.163,231.852 292.037 C 232.420 291.686,232.292 292.444,231.700 292.935 C 231.413 293.174,230.551 294.353,229.784 295.556 C 229.018 296.759,228.282 297.676,228.150 297.593 C 228.017 297.511,227.920 297.762,227.936 298.151 C 227.951 298.540,227.811 298.850,227.626 298.841 C 226.979 298.806,226.545 300.066,227.087 300.409 C 227.480 300.658,227.443 300.731,226.923 300.735 C 226.554 300.738,226.356 300.907,226.481 301.111 C 226.607 301.315,226.552 301.481,226.359 301.481 C 226.166 301.481,226.016 301.690,226.025 301.944 C 226.072 303.186,225.893 303.727,225.516 303.494 C 225.237 303.321,225.190 303.506,225.370 304.074 C 225.549 304.636,225.503 304.826,225.230 304.658 C 224.957 304.488,224.896 304.758,225.043 305.492 C 225.169 306.122,225.086 306.684,224.846 306.833 C 224.619 306.973,224.528 307.243,224.645 307.433 C 224.763 307.623,224.718 307.778,224.546 307.778 C 224.374 307.778,224.203 308.319,224.167 308.981 C 224.130 309.644,224.000 310.935,223.877 311.852 C 223.608 313.851,223.602 323.210,223.868 325.556 C 223.972 326.472,224.118 327.809,224.192 328.526 C 224.266 329.242,224.534 330.216,224.787 330.690 C 225.041 331.163,225.152 331.933,225.035 332.400 C 224.901 332.933,225.037 333.427,225.400 333.728 C 225.717 333.992,225.898 334.511,225.801 334.882 C 225.704 335.252,225.787 335.556,225.986 335.556 C 226.185 335.556,226.234 335.908,226.096 336.343 C 225.917 336.908,225.973 337.051,226.296 336.852 C 226.623 336.650,226.674 336.802,226.481 337.407 C 226.301 337.975,226.348 338.160,226.627 337.987 C 226.853 337.848,227.062 337.952,227.092 338.219 C 227.122 338.486,227.181 338.954,227.222 339.259 C 227.264 339.565,227.322 340.018,227.353 340.266 C 227.385 340.536,227.668 340.620,228.056 340.475 C 228.623 340.262,228.641 340.309,228.195 340.857 C 227.732 341.426,227.868 341.643,228.614 341.525 C 228.768 341.500,229.388 342.500,229.992 343.747 C 230.596 344.993,231.542 346.606,232.094 347.329 C 232.646 348.053,232.859 348.517,232.567 348.360 C 232.276 348.203,232.704 348.668,233.519 349.394 C 234.333 350.119,235.125 350.719,235.278 350.727 C 235.431 350.734,235.556 350.917,235.556 351.133 C 235.556 351.349,235.347 351.400,235.093 351.247 C 234.767 351.051,234.777 351.151,235.128 351.584 C 235.402 351.922,235.819 352.162,236.054 352.118 C 236.289 352.073,236.436 352.258,236.380 352.528 C 236.324 352.797,236.435 352.921,236.628 352.802 C 236.820 352.683,237.425 353.129,237.971 353.793 C 238.517 354.457,238.851 354.750,238.713 354.444 C 238.575 354.139,238.808 354.282,239.231 354.763 C 239.654 355.244,240.000 355.524,240.000 355.386 C 240.000 355.248,240.484 355.479,241.076 355.901 C 241.667 356.322,242.334 356.667,242.557 356.667 C 242.780 356.667,242.963 356.833,242.963 357.037 C 242.963 357.241,243.213 357.407,243.519 357.407 C 243.824 357.407,244.074 357.667,244.074 357.985 C 244.074 358.302,244.241 358.459,244.444 358.333 C 244.648 358.207,244.815 358.291,244.815 358.519 C 244.815 358.746,244.981 358.830,245.185 358.704 C 245.389 358.578,245.556 358.661,245.556 358.889 C 245.556 359.117,245.684 359.224,245.840 359.127 C 246.284 358.853,248.937 360.197,248.617 360.534 C 248.461 360.698,248.685 360.725,249.114 360.593 C 249.593 360.446,250.064 360.557,250.332 360.879 C 250.583 361.182,251.101 361.318,251.553 361.200 C 251.987 361.086,252.244 361.147,252.127 361.336 C 252.011 361.524,252.437 361.698,253.074 361.724 C 253.711 361.751,254.290 361.944,254.360 362.154 C 254.430 362.364,254.908 362.460,255.421 362.366 C 255.935 362.273,256.273 362.331,256.172 362.494 C 256.071 362.658,256.663 362.727,257.487 362.648 C 258.409 362.561,258.900 362.646,258.761 362.870 C 258.615 363.106,262.010 363.190,268.435 363.110 C 279.512 362.972,280.741 362.908,280.741 362.473 C 280.741 362.306,281.116 362.200,281.574 362.237 C 282.032 362.274,282.532 362.265,282.685 362.217 C 282.838 362.169,283.088 362.094,283.241 362.051 C 283.394 362.008,283.769 361.875,284.074 361.756 C 286.176 360.935,288.570 360.359,288.938 360.586 C 289.211 360.755,289.275 360.695,289.109 360.428 C 288.864 360.031,289.377 359.854,290.644 359.900 C 290.897 359.909,291.015 359.773,290.907 359.599 C 290.799 359.424,291.134 359.175,291.652 359.045 C 292.169 358.915,292.593 358.650,292.593 358.457 C 292.593 358.263,292.759 358.207,292.963 358.333 C 293.167 358.459,293.333 358.417,293.333 358.239 C 293.333 358.061,293.922 357.634,294.642 357.291 C 296.188 356.554,296.430 356.521,296.076 357.094 C 295.907 357.368,295.975 357.421,296.264 357.242 C 296.512 357.089,296.622 356.869,296.507 356.754 C 296.151 356.398,301.102 353.286,301.585 353.563 C 301.834 353.706,301.909 353.681,301.752 353.509 C 301.474 353.203,303.952 350.370,304.497 350.370 C 304.646 350.370,304.768 350.662,304.768 351.019 C 304.764 352.750,305.138 354.614,305.512 354.739 C 305.742 354.815,305.836 355.031,305.721 355.217 C 305.606 355.403,305.813 355.558,306.182 355.561 C 306.750 355.566,306.767 355.622,306.296 355.926 C 305.835 356.224,305.867 356.287,306.481 356.296 C 307.000 356.304,307.081 356.397,306.752 356.606 C 306.409 356.824,306.523 357.033,307.174 357.382 C 307.665 357.644,308.276 358.250,308.531 358.727 C 308.786 359.204,309.096 359.575,309.220 359.551 C 309.467 359.504,311.346 359.947,312.222 360.260 C 313.439 360.694,342.962 360.567,342.963 360.127 C 342.963 359.869,343.285 359.783,343.776 359.912 C 344.553 360.115,344.557 360.137,343.869 360.407 C 343.394 360.593,343.337 360.696,343.704 360.709 C 344.009 360.720,344.509 360.568,344.815 360.370 C 345.120 360.173,345.210 360.009,345.014 360.006 C 344.818 360.003,345.312 359.667,346.111 359.259 C 347.818 358.389,347.910 358.371,347.543 358.981 C 347.354 359.296,347.466 359.282,347.892 358.936 C 348.570 358.386,348.751 357.961,348.148 358.333 C 347.549 358.703,347.724 357.913,348.358 357.387 C 349.600 356.356,350.081 354.773,349.936 352.195 C 349.858 350.816,349.924 349.768,350.082 349.866 C 350.678 350.234,350.338 349.631,349.448 348.741 C 348.845 348.138,348.611 347.598,348.770 347.182 C 348.951 346.712,348.884 346.626,348.519 346.852 C 348.153 347.078,348.086 346.991,348.266 346.523 C 348.400 346.173,348.376 345.970,348.212 346.072 C 348.048 346.173,347.609 345.740,347.237 345.110 C 346.865 344.480,346.752 344.083,346.987 344.228 C 347.308 344.427,347.308 344.260,346.986 343.554 C 346.751 343.038,346.440 342.689,346.296 342.778 C 345.857 343.049,345.147 341.075,345.399 340.281 C 345.566 339.753,345.504 339.618,345.185 339.815 C 344.862 340.014,344.806 339.871,344.985 339.308 C 345.189 338.663,345.114 338.565,344.561 338.761 C 344.011 338.955,343.973 338.907,344.352 338.499 C 344.982 337.820,344.935 337.385,344.259 337.644 C 343.578 337.905,343.514 337.006,344.167 336.348 C 344.538 335.974,344.501 335.931,343.981 336.129 C 343.297 336.390,343.067 335.764,343.704 335.370 C 344.303 335.000,344.141 334.072,343.519 334.311 C 343.167 334.446,342.963 334.305,342.963 333.929 C 342.963 333.601,343.130 333.333,343.333 333.333 C 343.537 333.333,343.692 332.875,343.678 332.315 C 343.655 331.421,343.614 331.387,343.347 332.037 L 343.042 332.778 342.725 332.037 C 342.550 331.630,342.407 315.271,342.407 295.684 C 342.407 276.096,342.268 260.157,342.098 260.262 C 341.927 260.368,341.844 259.268,341.912 257.819 C 341.981 256.369,341.907 255.184,341.748 255.184 C 341.588 255.185,341.474 254.644,341.493 253.981 C 341.512 253.319,341.259 251.528,340.931 250.000 C 340.604 248.472,340.282 246.889,340.217 246.481 C 340.151 246.074,339.980 245.462,339.835 245.122 C 339.691 244.781,339.539 244.281,339.498 244.010 C 339.457 243.740,339.303 243.325,339.155 243.089 C 339.007 242.853,338.986 242.353,339.108 241.978 C 339.292 241.412,339.261 241.390,338.929 241.852 C 338.521 242.420,338.348 241.912,338.431 240.391 C 338.463 239.799,337.139 237.037,336.822 237.037 C 336.713 237.037,336.726 237.204,336.852 237.407 C 336.978 237.611,336.885 237.778,336.645 237.778 C 336.387 237.778,336.292 237.465,336.411 237.008 C 336.558 236.446,336.470 236.293,336.084 236.441 C 335.793 236.552,335.556 236.482,335.556 236.285 C 335.556 235.591,335.438 235.366,334.852 234.938 C 334.527 234.700,334.378 234.387,334.522 234.244 C 334.666 234.100,334.415 233.675,333.966 233.300 C 333.516 232.924,333.279 232.612,333.439 232.605 C 333.599 232.598,333.141 232.076,332.421 231.444 C 331.702 230.813,331.222 230.120,331.355 229.905 C 331.487 229.691,331.426 229.620,331.218 229.749 C 330.812 230.000,329.497 228.774,329.823 228.449 C 329.930 228.341,329.732 228.022,329.382 227.738 C 328.962 227.397,328.841 227.379,329.025 227.685 C 329.178 227.940,329.146 228.148,328.954 228.148 C 328.762 228.148,328.513 227.798,328.401 227.370 C 328.290 226.942,328.035 226.693,327.835 226.816 C 327.635 226.940,327.112 226.582,326.671 226.020 C 326.231 225.459,325.979 225.250,326.112 225.556 C 326.244 225.861,326.016 225.729,325.604 225.262 C 325.192 224.794,324.763 224.419,324.650 224.428 C 323.912 224.487,323.683 224.408,323.841 224.151 C 323.941 223.990,323.674 223.831,323.248 223.799 C 322.823 223.767,322.357 223.552,322.214 223.320 C 322.071 223.089,321.806 222.892,321.625 222.882 C 320.797 222.836,318.209 221.313,318.409 220.989 C 318.532 220.789,318.456 220.736,318.239 220.870 C 317.736 221.181,316.609 220.763,316.859 220.358 C 317.116 219.943,315.669 219.516,315.131 219.848 C 314.863 220.014,314.800 219.953,314.965 219.687 C 315.228 219.260,314.586 219.081,313.219 219.200 C 312.825 219.234,312.651 219.094,312.797 218.858 C 312.945 218.618,312.768 218.492,312.355 218.544 C 311.977 218.591,311.029 218.347,310.251 218.002 C 309.472 217.657,308.521 217.474,308.138 217.596 C 307.748 217.720,306.992 217.523,306.420 217.149 C 305.733 216.700,305.504 216.652,305.720 217.002 C 305.944 217.366,305.906 217.439,305.592 217.245 C 305.345 217.092,304.777 216.910,304.331 216.839 C 303.884 216.769,302.852 216.602,302.037 216.469 C 301.222 216.335,300.222 216.180,299.815 216.123 C 299.407 216.067,299.074 215.978,299.074 215.925 C 299.074 215.873,298.657 215.804,298.148 215.773 C 297.639 215.741,296.988 215.571,296.702 215.393 C 296.332 215.164,296.265 215.205,296.469 215.535 C 296.687 215.887,296.588 215.912,296.063 215.637 C 295.682 215.437,294.454 215.232,293.333 215.182 C 290.991 215.075,279.600 214.972,279.507 215.056 M296.589 227.054 C 310.303 228.531,321.543 234.026,326.479 241.667 C 331.438 249.343,331.505 250.009,331.835 295.000 C 332.092 330.062,332.137 331.814,332.862 335.028 C 333.891 339.594,335.459 344.645,336.473 346.664 C 336.934 347.582,337.428 348.708,337.570 349.167 L 337.828 350.000 326.356 350.000 L 314.885 350.000 313.936 348.381 C 313.098 346.951,312.169 344.197,310.766 338.983 C 310.256 337.087,309.107 335.926,307.741 335.926 C 306.738 335.926,306.012 336.444,300.741 340.923 C 290.441 349.675,282.813 352.881,271.424 353.244 C 252.441 353.849,240.726 346.617,235.791 331.246 C 233.462 323.989,233.281 314.714,235.363 309.259 C 235.636 308.546,236.236 306.963,236.699 305.741 C 239.428 298.523,246.531 292.025,255.117 288.892 C 259.415 287.323,271.287 284.347,279.444 282.793 C 305.885 277.757,307.040 277.188,307.034 269.185 C 307.019 251.293,300.009 244.333,282.593 244.921 C 271.970 245.280,266.272 248.033,260.840 255.430 C 259.455 257.317,258.929 257.777,258.339 257.621 C 257.929 257.512,253.509 256.721,248.519 255.864 C 243.528 255.006,239.380 254.257,239.300 254.200 C 238.343 253.501,244.746 241.660,247.745 238.584 C 257.394 228.687,274.425 224.667,296.589 227.054 M293.681 292.211 C 289.510 293.631,283.957 295.304,281.341 295.930 C 267.022 299.352,261.760 303.051,259.061 311.593 C 252.934 330.984,273.715 345.034,292.394 334.129 C 302.736 328.091,306.449 319.626,306.471 302.037 C 306.483 292.067,306.333 291.370,303.942 290.235 C 302.099 289.361,301.996 289.381,293.681 292.211 M296.891 302.067 C 296.768 302.390,296.650 303.181,296.630 303.827 C 296.594 304.951,296.580 304.961,296.296 304.074 C 296.046 303.292,295.994 303.395,295.963 304.744 C 295.943 305.622,296.072 306.250,296.250 306.140 C 296.585 305.933,296.404 309.016,296.023 310.000 C 295.905 310.306,295.845 310.711,295.889 310.900 C 296.068 311.658,294.737 316.667,294.357 316.667 C 294.134 316.667,294.055 316.771,294.182 316.898 C 294.516 317.232,293.095 319.870,292.447 320.119 C 291.588 320.448,290.904 321.904,291.751 321.599 C 292.533 321.319,292.559 321.289,290.071 323.475 C 288.989 324.425,287.965 325.116,287.795 325.011 C 287.624 324.905,287.391 325.065,287.275 325.366 C 287.145 325.705,286.825 325.821,286.435 325.672 C 285.984 325.498,285.888 325.564,286.097 325.903 C 286.311 326.249,286.189 326.312,285.641 326.138 C 285.199 325.998,284.676 326.118,284.364 326.430 C 284.035 326.758,283.437 326.883,282.788 326.759 C 282.059 326.620,281.821 326.688,282.004 326.983 C 282.192 327.287,281.499 327.406,279.559 327.402 C 277.545 327.398,276.994 327.295,277.407 327.002 C 277.842 326.695,277.741 326.644,276.944 326.771 C 276.384 326.861,275.926 326.809,275.926 326.655 C 275.926 326.373,274.348 325.836,273.333 325.775 C 273.028 325.756,272.817 325.538,272.866 325.291 C 272.914 325.044,272.741 324.923,272.481 325.023 C 272.221 325.123,271.526 324.700,270.935 324.084 C 270.345 323.467,269.988 322.963,270.142 322.963 C 270.297 322.963,270.168 322.707,269.855 322.395 C 268.660 321.199,268.188 317.685,268.886 315.172 C 269.332 313.570,271.316 310.370,271.866 310.370 C 272.086 310.370,272.147 310.563,272.002 310.798 C 271.837 311.065,271.900 311.125,272.171 310.958 C 272.410 310.810,272.523 310.557,272.422 310.394 C 272.221 310.068,272.955 309.379,274.594 308.357 C 275.505 307.789,275.636 307.775,275.447 308.268 C 275.295 308.664,275.387 308.788,275.736 308.654 C 276.019 308.546,276.162 308.230,276.056 307.953 C 275.837 307.382,280.092 305.929,282.328 305.810 C 283.044 305.772,283.572 305.648,283.504 305.535 C 283.329 305.247,287.434 304.417,287.828 304.661 C 288.004 304.769,288.148 304.663,288.148 304.424 C 288.148 304.154,288.561 304.051,289.240 304.150 C 289.901 304.247,290.242 304.166,290.105 303.944 C 289.974 303.732,290.127 303.673,290.471 303.805 C 290.797 303.930,291.122 303.855,291.194 303.639 C 291.266 303.423,292.143 303.211,293.141 303.169 C 294.140 303.127,295.022 302.897,295.102 302.658 C 295.182 302.418,295.483 302.222,295.772 302.222 C 296.060 302.222,296.296 302.056,296.296 301.852 C 296.296 301.648,296.481 301.481,296.706 301.481 C 296.932 301.481,297.015 301.745,296.891 302.067 M343.069 329.444 C 343.072 330.463,343.144 330.836,343.229 330.273 C 343.314 329.710,343.312 328.876,343.224 328.421 C 343.136 327.965,343.066 328.426,343.069 329.444 " stroke="none" fill="#040404" fill-rule="evenodd"></path><path id="path2" d="M107.525 38.796 C 111.969 38.855,119.136 38.855,123.451 38.796 C 127.766 38.737,124.130 38.688,115.370 38.688 C 106.611 38.688,103.081 38.737,107.525 38.796 M323.333 238.333 C 324.024 239.046,324.673 239.630,324.775 239.630 C 324.877 239.630,324.395 239.046,323.704 238.333 C 323.013 237.620,322.364 237.037,322.262 237.037 C 322.160 237.037,322.642 237.620,323.333 238.333 M331.222 260.741 C 331.222 261.861,331.292 262.319,331.376 261.759 C 331.461 261.199,331.461 260.282,331.376 259.722 C 331.292 259.162,331.222 259.620,331.222 260.741 M306.768 298.148 C 306.768 299.065,306.840 299.440,306.928 298.981 C 307.016 298.523,307.016 297.773,306.928 297.315 C 306.840 296.856,306.768 297.231,306.768 298.148 M331.596 323.889 C 331.598 325.111,331.667 325.566,331.750 324.901 C 331.832 324.235,331.831 323.235,331.746 322.679 C 331.662 322.122,331.594 322.667,331.596 323.889 M263.519 332.593 C 264.314 333.407,265.048 334.074,265.150 334.074 C 265.252 334.074,264.685 333.407,263.889 332.593 C 263.093 331.778,262.359 331.111,262.257 331.111 C 262.155 331.111,262.723 331.778,263.519 332.593 " stroke="none" fill="#5b490c" fill-rule="evenodd"></path><path id="path3" d="M101.547 158.055 C 109.221 158.111,121.888 158.111,129.695 158.055 C 137.502 158.000,131.222 157.954,115.741 157.954 C 100.259 157.954,93.872 158.000,101.547 158.055 M41.575 194.444 C 41.657 194.750,42.128 195.031,42.622 195.068 C 43.329 195.122,43.362 195.094,42.778 194.933 C 42.370 194.821,41.899 194.540,41.731 194.309 C 41.529 194.031,41.476 194.077,41.575 194.444 M282.862 244.712 C 283.520 244.794,284.686 244.795,285.455 244.715 C 286.223 244.635,285.685 244.568,284.259 244.566 C 282.833 244.564,282.205 244.630,282.862 244.712 M331.587 266.111 C 331.590 267.130,331.662 267.502,331.747 266.939 C 331.832 266.376,331.830 265.543,331.742 265.088 C 331.654 264.632,331.585 265.093,331.587 266.111 M234.160 315.556 C 234.160 316.269,234.236 316.560,234.329 316.204 C 234.423 315.847,234.423 315.264,234.329 314.907 C 234.236 314.551,234.160 314.843,234.160 315.556 " stroke="none" fill="#2c2207" fill-rule="evenodd"></path><path id="path4" d="M88.560 68.189 C 88.331 68.844,88.210 69.444,88.289 69.523 C 88.368 69.603,88.620 69.132,88.848 68.477 C 89.076 67.823,89.198 67.222,89.119 67.143 C 89.039 67.064,88.788 67.535,88.560 68.189 M131.694 104.074 C 131.830 104.583,132.096 105.250,132.285 105.556 C 132.523 105.942,132.552 105.829,132.380 105.185 C 132.244 104.676,131.978 104.009,131.789 103.704 C 131.551 103.318,131.522 103.431,131.694 104.074 M74.856 178.189 C 74.628 178.844,74.506 179.444,74.585 179.523 C 74.664 179.603,74.916 179.132,75.144 178.477 C 75.372 177.823,75.494 177.222,75.415 177.143 C 75.336 177.064,75.084 177.535,74.856 178.189 M163.576 194.537 C 163.670 194.690,169.811 194.815,177.222 194.815 C 184.633 194.815,190.774 194.690,190.869 194.537 C 190.963 194.384,184.822 194.259,177.222 194.259 C 169.622 194.259,163.481 194.384,163.576 194.537 M48.611 194.722 C 52.431 194.782,58.681 194.782,62.500 194.722 C 66.319 194.662,63.194 194.612,55.556 194.612 C 47.917 194.612,44.792 194.662,48.611 194.722 M283.796 244.329 C 284.153 244.423,284.736 244.423,285.093 244.329 C 285.449 244.236,285.157 244.160,284.444 244.160 C 283.731 244.160,283.440 244.236,283.796 244.329 M300.741 249.005 C 300.741 249.069,301.282 249.610,301.944 250.208 L 303.148 251.296 302.060 250.093 C 301.046 248.971,300.741 248.719,300.741 249.005 M331.250 267.963 C 331.250 270.204,331.311 271.073,331.385 269.894 C 331.459 268.715,331.458 266.882,331.384 265.820 C 331.309 264.758,331.249 265.722,331.250 267.963 M331.205 273.519 C 331.209 274.333,331.284 274.623,331.373 274.162 C 331.462 273.702,331.458 273.035,331.366 272.681 C 331.273 272.327,331.200 272.704,331.205 273.519 M301.019 289.521 C 301.477 289.609,302.227 289.609,302.685 289.521 C 303.144 289.432,302.769 289.360,301.852 289.360 C 300.935 289.360,300.560 289.432,301.019 289.521 M302.573 338.796 L 301.296 340.185 302.685 338.909 C 303.449 338.207,304.074 337.582,304.074 337.520 C 304.074 337.237,303.761 337.504,302.573 338.796 " stroke="none" fill="#7c7414" fill-rule="evenodd"></path><path id="path5" d="M96.852 27.434 C 98.844 27.839,134.432 27.811,135.370 27.405 C 135.799 27.219,127.528 27.094,115.741 27.109 C 104.264 27.123,96.017 27.265,96.852 27.434 M140.000 29.444 C 140.691 30.157,141.340 30.741,141.442 30.741 C 141.543 30.741,141.061 30.157,140.370 29.444 C 139.679 28.731,139.031 28.148,138.929 28.148 C 138.827 28.148,139.309 28.731,140.000 29.444 M147.116 45.684 C 147.345 46.428,147.667 47.037,147.832 47.037 C 147.997 47.037,147.938 46.579,147.699 46.019 C 147.013 44.403,146.661 44.201,147.116 45.684 M81.841 52.613 C 81.617 53.032,81.488 53.539,81.555 53.740 C 81.622 53.941,81.869 53.599,82.103 52.979 C 82.589 51.690,82.444 51.486,81.841 52.613 M284.259 103.704 C 285.055 104.519,285.789 105.185,285.891 105.185 C 285.993 105.185,285.425 104.519,284.630 103.704 C 283.834 102.889,283.100 102.222,282.998 102.222 C 282.896 102.222,283.464 102.889,284.259 103.704 M112.440 104.391 C 112.031 105.053,111.450 106.835,111.758 106.481 C 112.167 106.013,113.000 104.074,112.792 104.074 C 112.706 104.074,112.548 104.217,112.440 104.391 M110.677 109.259 C 110.561 109.769,110.350 110.519,110.209 110.926 C 110.068 111.333,110.224 111.199,110.555 110.627 C 110.886 110.055,111.097 109.305,111.023 108.960 C 110.928 108.513,110.828 108.599,110.677 109.259 M122.267 112.601 C 122.828 114.259,123.144 114.581,122.804 113.148 C 122.659 112.537,122.381 111.874,122.186 111.675 C 121.991 111.476,122.028 111.893,122.267 112.601 M104.500 125.802 C 104.224 126.100,104.102 126.448,104.228 126.574 C 104.538 126.884,105.302 126.083,105.134 125.624 C 105.060 125.423,104.775 125.502,104.500 125.802 M287.593 135.556 C 287.909 136.167,288.251 136.667,288.352 136.667 C 288.454 136.667,288.279 136.167,287.963 135.556 C 287.647 134.944,287.305 134.444,287.203 134.444 C 287.101 134.444,287.277 134.944,287.593 135.556 M182.302 138.276 C 182.530 139.021,182.852 139.630,183.017 139.630 C 183.182 139.630,183.123 139.171,182.885 138.611 C 182.198 136.996,181.847 136.794,182.302 138.276 M332.211 157.130 C 329.563 160.235,328.846 161.213,330.394 159.607 C 331.900 158.047,334.560 154.815,334.340 154.815 C 334.255 154.815,333.297 155.856,332.211 157.130 M321.540 169.259 C 321.088 169.870,320.779 170.370,320.854 170.370 C 320.928 170.370,321.434 169.870,321.979 169.259 C 322.523 168.648,322.832 168.148,322.665 168.148 C 322.498 168.148,321.992 168.648,321.540 169.259 M90.225 169.845 C 89.880 170.744,89.952 170.871,90.533 170.389 C 91.158 169.870,140.352 169.610,141.757 170.118 C 142.426 170.360,142.545 170.306,142.365 169.839 C 142.024 168.949,90.567 168.955,90.225 169.845 M88.598 174.686 C 88.369 175.431,88.330 175.889,88.510 175.705 C 88.872 175.334,89.434 173.333,89.176 173.333 C 89.087 173.333,88.826 173.942,88.598 174.686 M143.535 174.537 C 143.674 174.995,143.939 175.533,144.126 175.732 C 144.312 175.931,144.277 175.556,144.048 174.899 C 143.579 173.554,143.146 173.248,143.535 174.537 M196.138 174.444 C 196.274 174.954,196.540 175.620,196.729 175.926 C 196.968 176.312,196.997 176.199,196.825 175.556 C 196.689 175.046,196.423 174.380,196.234 174.074 C 195.995 173.688,195.966 173.801,196.138 174.444 M144.860 178.157 C 145.420 179.815,145.736 180.137,145.396 178.704 C 145.251 178.093,144.973 177.430,144.779 177.231 C 144.584 177.032,144.620 177.448,144.860 178.157 M198.051 180.004 C 198.371 180.821,198.701 181.422,198.783 181.340 C 198.961 181.162,197.892 178.519,197.641 178.519 C 197.545 178.519,197.730 179.187,198.051 180.004 M310.370 182.037 C 309.471 182.954,308.818 183.704,308.920 183.704 C 309.022 183.704,309.841 182.954,310.741 182.037 C 311.640 181.120,312.293 180.370,312.191 180.370 C 312.089 180.370,311.270 181.120,310.370 182.037 M85.545 182.613 C 85.320 183.032,85.202 183.569,85.281 183.807 C 85.361 184.045,85.613 183.702,85.842 183.046 C 86.312 181.697,86.156 181.470,85.545 182.613 M83.412 188.796 C 83.038 190.044,83.050 190.112,83.535 189.466 C 84.005 188.839,84.295 187.407,83.951 187.407 C 83.883 187.407,83.641 188.032,83.412 188.796 M204.934 202.500 C 204.809 202.856,204.272 203.648,203.742 204.259 L 202.778 205.370 203.948 204.315 C 204.592 203.734,205.201 202.942,205.302 202.555 C 205.533 201.672,205.241 201.628,204.934 202.500 M153.994 202.782 C 154.204 203.192,154.766 203.857,155.243 204.261 C 156.081 204.969,156.079 204.956,155.191 203.886 C 153.716 202.110,153.592 201.995,153.994 202.782 M76.753 204.455 C 76.088 205.060,75.682 205.556,75.851 205.556 C 76.020 205.556,76.637 205.056,77.222 204.444 C 78.583 203.024,78.321 203.030,76.753 204.455 M33.828 206.174 C 34.199 206.545,72.222 206.615,72.222 206.245 C 72.222 206.069,63.528 205.926,52.901 205.926 C 42.275 205.926,33.692 206.037,33.828 206.174 M159.707 206.127 C 159.997 206.417,198.408 206.531,199.125 206.245 C 199.505 206.093,190.753 205.967,179.678 205.965 C 168.603 205.963,159.616 206.036,159.707 206.127 M251.759 221.693 C 250.375 222.444,250.459 222.757,251.852 222.037 C 252.463 221.721,252.963 221.383,252.963 221.287 C 252.963 221.048,252.923 221.062,251.759 221.693 M331.852 230.926 C 332.543 231.639,333.192 232.222,333.293 232.222 C 333.395 232.222,332.913 231.639,332.222 230.926 C 331.531 230.213,330.882 229.630,330.781 229.630 C 330.679 229.630,331.161 230.213,331.852 230.926 M341.117 250.957 C 341.120 251.347,341.292 251.917,341.498 252.222 C 341.773 252.628,341.807 252.478,341.626 251.667 C 341.321 250.305,341.109 250.009,341.117 250.957 M274.890 257.045 C 273.345 257.985,273.357 258.296,274.907 257.483 C 276.505 256.646,276.444 256.691,276.248 256.495 C 276.154 256.401,275.543 256.648,274.890 257.045 M341.881 257.870 C 341.865 258.838,341.985 259.630,342.148 259.630 C 342.311 259.630,342.382 259.005,342.306 258.241 C 342.093 256.091,341.913 255.934,341.881 257.870 M272.667 258.593 C 272.422 258.837,272.222 258.908,272.222 258.751 C 272.222 258.319,271.421 259.255,270.202 261.111 C 269.600 262.028,268.936 263.028,268.727 263.333 C 268.513 263.645,268.709 263.580,269.173 263.183 C 269.628 262.795,270.000 262.284,270.000 262.048 C 270.000 261.811,270.781 260.837,271.735 259.883 C 272.689 258.929,273.389 258.148,273.290 258.148 C 273.192 258.148,272.911 258.348,272.667 258.593 M229.259 260.486 C 229.259 260.550,229.801 261.092,230.463 261.690 L 231.667 262.778 230.579 261.574 C 229.565 260.452,229.259 260.200,229.259 260.486 M295.582 262.500 C 295.683 263.586,296.246 264.191,296.270 263.241 C 296.285 262.681,296.130 262.222,295.926 262.222 C 295.722 262.222,295.567 262.347,295.582 262.500 M237.407 264.736 C 237.407 264.896,237.744 265.053,238.156 265.084 C 238.568 265.115,238.808 264.984,238.690 264.792 C 238.430 264.371,237.407 264.326,237.407 264.736 M296.407 266.296 C 296.407 267.417,296.477 267.875,296.562 267.315 C 296.646 266.755,296.646 265.838,296.562 265.278 C 296.477 264.718,296.407 265.176,296.407 266.296 M255.370 268.148 C 256.390 268.586,256.752 268.586,256.481 268.148 C 256.356 267.944,255.887 267.789,255.441 267.804 C 254.659 267.829,254.656 267.841,255.370 268.148 M342.316 277.222 C 342.320 278.037,342.396 278.327,342.484 277.866 C 342.573 277.405,342.569 276.739,342.477 276.385 C 342.384 276.030,342.312 276.407,342.316 277.222 M342.381 291.296 C 342.381 295.981,342.434 297.847,342.499 295.442 C 342.564 293.037,342.563 289.204,342.499 286.924 C 342.434 284.643,342.381 286.611,342.381 291.296 M229.624 295.278 C 228.975 296.347,228.685 296.972,228.980 296.667 C 229.646 295.976,231.238 293.333,230.988 293.333 C 230.887 293.333,230.273 294.208,229.624 295.278 M342.380 307.963 C 342.380 312.444,342.434 314.227,342.499 311.924 C 342.564 309.621,342.564 305.954,342.498 303.776 C 342.433 301.597,342.380 303.481,342.380 307.963 M296.004 302.051 C 295.611 302.496,295.621 302.593,296.057 302.593 C 296.349 302.593,296.683 302.343,296.801 302.037 C 297.070 301.334,296.629 301.342,296.004 302.051 M292.130 303.218 C 291.773 303.311,291.481 303.552,291.481 303.753 C 291.481 303.954,291.661 304.007,291.881 303.871 C 292.101 303.735,292.726 303.490,293.270 303.325 C 294.348 303.000,293.331 302.904,292.130 303.218 M289.444 303.968 C 288.310 304.241,287.961 304.748,289.051 304.539 C 289.579 304.439,290.102 304.209,290.213 304.030 C 290.323 303.850,290.363 303.723,290.300 303.747 C 290.237 303.770,289.852 303.870,289.444 303.968 M284.346 305.081 C 283.782 305.166,283.403 305.369,283.503 305.531 C 283.728 305.894,285.490 305.590,285.768 305.141 C 285.879 304.962,285.835 304.840,285.670 304.870 C 285.505 304.901,284.909 304.996,284.346 305.081 M272.670 309.757 C 271.621 310.532,269.738 312.593,270.080 312.593 C 270.153 312.593,271.101 311.759,272.186 310.741 C 274.341 308.717,274.490 308.415,272.670 309.757 M295.826 309.113 C 295.677 309.261,295.556 309.638,295.556 309.951 C 295.556 310.368,295.665 310.409,295.968 310.106 C 296.194 309.880,296.316 309.503,296.238 309.269 C 296.160 309.034,295.974 308.964,295.826 309.113 M268.721 319.816 C 268.866 320.426,269.127 321.081,269.301 321.271 C 269.474 321.461,269.458 321.064,269.264 320.388 C 268.813 318.813,268.374 318.351,268.721 319.816 M342.356 322.222 C 342.356 324.157,342.418 324.949,342.494 323.981 C 342.571 323.014,342.571 321.431,342.494 320.463 C 342.418 319.495,342.356 320.287,342.356 322.222 M289.792 323.426 L 288.704 324.630 289.907 323.542 C 290.569 322.944,291.111 322.402,291.111 322.338 C 291.111 322.052,290.806 322.304,289.792 323.426 M342.222 327.553 C 342.222 328.312,342.374 328.839,342.560 328.724 C 342.922 328.500,342.846 326.797,342.457 326.408 C 342.328 326.278,342.222 326.794,342.222 327.553 M345.618 341.871 C 345.834 342.492,346.080 342.932,346.164 342.848 C 346.348 342.665,345.649 340.741,345.399 340.741 C 345.303 340.741,345.401 341.249,345.618 341.871 M230.741 345.786 C 230.741 345.980,231.253 346.716,231.879 347.421 L 233.016 348.704 231.986 347.222 C 231.420 346.407,230.907 345.671,230.848 345.586 C 230.789 345.502,230.741 345.591,230.741 345.786 M303.790 351.111 C 303.533 351.521,303.488 351.852,303.688 351.852 C 303.886 351.852,304.226 351.519,304.444 351.111 C 304.662 350.704,304.708 350.370,304.547 350.370 C 304.385 350.370,304.044 350.704,303.790 351.111 M236.111 352.222 C 236.907 353.037,237.641 353.704,237.743 353.704 C 237.845 353.704,237.277 353.037,236.481 352.222 C 235.686 351.407,234.952 350.741,234.850 350.741 C 234.748 350.741,235.315 351.407,236.111 352.222 M349.943 353.872 C 349.871 354.779,349.954 355.380,350.127 355.207 C 350.597 354.736,350.859 352.222,350.438 352.222 C 350.238 352.222,350.016 352.964,349.943 353.872 M299.360 354.518 C 298.091 355.369,297.125 356.137,297.213 356.225 C 297.348 356.360,300.539 354.234,301.648 353.269 C 302.474 352.551,301.507 353.078,299.360 354.518 M348.583 357.058 C 348.109 357.657,347.875 358.148,348.063 358.148 C 348.408 358.148,349.298 357.237,349.780 356.389 C 350.285 355.502,349.438 355.975,348.583 357.058 M346.302 359.281 C 345.592 359.676,345.282 360.000,345.613 360.000 C 345.944 360.000,346.608 359.672,347.089 359.272 C 348.186 358.357,347.953 358.360,346.302 359.281 M287.222 360.772 C 286.204 361.165,285.821 361.401,286.373 361.296 C 287.671 361.049,289.259 360.443,289.259 360.194 C 289.259 360.087,289.218 360.013,289.167 360.029 C 289.116 360.044,288.241 360.379,287.222 360.772 M324.352 360.647 C 327.662 360.709,333.079 360.709,336.389 360.647 C 339.699 360.586,336.991 360.536,330.370 360.536 C 323.750 360.536,321.042 360.586,324.352 360.647 M278.519 362.963 C 278.519 363.427,278.912 363.427,279.630 362.963 C 280.079 362.673,280.026 362.603,279.352 362.598 C 278.894 362.595,278.519 362.759,278.519 362.963 M260.741 363.294 C 260.741 363.519,261.366 363.725,262.130 363.751 C 267.565 363.938,272.634 363.914,273.889 363.696 C 274.741 363.548,272.512 363.416,268.641 363.386 C 264.940 363.357,261.649 363.232,261.327 363.109 C 261.004 362.985,260.741 363.068,260.741 363.294 " stroke="none" fill="#1c1c1c" fill-rule="evenodd"></path><path id="path6" d="M234.160 319.630 C 234.160 320.343,234.236 320.634,234.329 320.278 C 234.423 319.921,234.423 319.338,234.329 318.981 C 234.236 318.625,234.160 318.917,234.160 319.630 M331.582 327.407 C 331.582 328.324,331.655 328.699,331.743 328.241 C 331.831 327.782,331.831 327.032,331.743 326.574 C 331.655 326.116,331.582 326.491,331.582 327.407 M269.914 353.231 C 270.580 353.314,271.580 353.312,272.136 353.228 C 272.693 353.143,272.148 353.076,270.926 353.078 C 269.704 353.080,269.248 353.149,269.914 353.231 " stroke="none" fill="#845c08" fill-rule="evenodd"></path><path id="path7" d="M281.038 226.943 C 283.137 227.009,286.470 227.009,288.446 226.943 C 290.421 226.876,288.704 226.822,284.630 226.822 C 280.556 226.823,278.939 226.877,281.038 226.943 M279.912 244.706 C 280.372 244.795,281.039 244.792,281.393 244.699 C 281.747 244.606,281.370 244.534,280.556 244.538 C 279.741 244.542,279.451 244.618,279.912 244.706 M287.130 244.700 C 287.486 244.793,288.069 244.793,288.426 244.700 C 288.782 244.607,288.491 244.530,287.778 244.530 C 287.065 244.530,286.773 244.607,287.130 244.700 M331.657 294.815 C 331.657 309.787,331.703 315.912,331.759 308.426 C 331.815 300.940,331.815 288.690,331.759 281.204 C 331.703 273.718,331.657 279.843,331.657 294.815 M306.778 301.481 C 306.778 302.602,306.847 303.060,306.932 302.500 C 307.017 301.940,307.017 301.023,306.932 300.463 C 306.847 299.903,306.778 300.361,306.778 301.481 M306.753 304.815 C 306.753 305.528,306.829 305.819,306.922 305.463 C 307.015 305.106,307.015 304.523,306.922 304.167 C 306.829 303.810,306.753 304.102,306.753 304.815 " stroke="none" fill="#3c3c0c" fill-rule="evenodd"></path><path id="path8" d="M72.804 77.249 C 72.668 77.791,72.628 78.307,72.715 78.394 C 72.803 78.482,72.985 78.109,73.122 77.566 C 73.258 77.023,73.298 76.508,73.211 76.421 C 73.123 76.333,72.940 76.706,72.804 77.249 M109.171 169.892 C 109.632 169.980,110.298 169.977,110.652 169.884 C 111.007 169.791,110.630 169.719,109.815 169.723 C 109.000 169.727,108.710 169.803,109.171 169.892 M114.542 169.895 C 115.105 169.981,115.938 169.978,116.394 169.890 C 116.850 169.802,116.389 169.733,115.370 169.736 C 114.352 169.738,113.979 169.810,114.542 169.895 M121.217 169.904 C 122.396 169.977,124.229 169.977,125.291 169.902 C 126.353 169.828,125.389 169.767,123.148 169.768 C 120.907 169.769,120.038 169.830,121.217 169.904 M48.796 195.092 C 51.903 195.154,56.986 195.154,60.093 195.092 C 63.199 195.030,60.657 194.979,54.444 194.979 C 48.231 194.979,45.690 195.030,48.796 195.092 M168.426 195.090 C 170.106 195.159,172.856 195.159,174.537 195.090 C 176.218 195.022,174.843 194.966,171.481 194.966 C 168.120 194.966,166.745 195.022,168.426 195.090 M183.441 195.090 C 184.825 195.161,186.991 195.161,188.256 195.089 C 189.521 195.017,188.389 194.958,185.741 194.959 C 183.093 194.959,182.058 195.018,183.441 195.090 M205.271 200.741 C 205.271 201.454,205.347 201.745,205.440 201.389 C 205.534 201.032,205.534 200.449,205.440 200.093 C 205.347 199.736,205.271 200.028,205.271 200.741 M173.431 206.562 C 173.994 206.647,174.827 206.645,175.283 206.557 C 175.738 206.469,175.278 206.399,174.259 206.402 C 173.241 206.405,172.868 206.477,173.431 206.562 M283.426 215.085 C 284.190 215.165,285.440 215.165,286.204 215.085 C 286.968 215.005,286.343 214.939,284.815 214.939 C 283.287 214.939,282.662 215.005,283.426 215.085 M247.940 238.241 L 246.852 239.444 248.056 238.357 C 249.178 237.343,249.430 237.037,249.143 237.037 C 249.080 237.037,248.538 237.579,247.940 238.241 M283.426 255.450 C 283.986 255.535,284.903 255.535,285.463 255.450 C 286.023 255.366,285.565 255.296,284.444 255.296 C 283.324 255.296,282.866 255.366,283.426 255.450 M342.341 280.741 C 342.341 282.065,342.408 282.606,342.490 281.944 C 342.572 281.282,342.572 280.199,342.490 279.537 C 342.408 278.875,342.341 279.417,342.341 280.741 M296.382 303.704 C 296.382 304.417,296.458 304.708,296.552 304.352 C 296.645 303.995,296.645 303.412,296.552 303.056 C 296.458 302.699,296.382 302.991,296.382 303.704 M306.382 310.000 C 306.382 310.713,306.458 311.005,306.552 310.648 C 306.645 310.292,306.645 309.708,306.552 309.352 C 306.458 308.995,306.382 309.287,306.382 310.000 M257.907 317.778 C 257.907 319.509,257.971 320.218,258.049 319.352 C 258.127 318.486,258.127 317.069,258.049 316.204 C 257.971 315.338,257.907 316.046,257.907 317.778 M342.323 317.407 C 342.323 318.324,342.395 318.699,342.484 318.241 C 342.572 317.782,342.572 317.032,342.484 316.574 C 342.395 316.116,342.323 316.491,342.323 317.407 M233.797 319.444 C 233.801 320.259,233.877 320.549,233.966 320.088 C 234.054 319.628,234.051 318.961,233.958 318.607 C 233.865 318.253,233.793 318.630,233.797 319.444 M278.611 327.302 C 279.171 327.387,280.088 327.387,280.648 327.302 C 281.208 327.217,280.750 327.148,279.630 327.148 C 278.509 327.148,278.051 327.217,278.611 327.302 M342.476 328.796 C 342.387 328.949,342.449 329.407,342.613 329.815 C 342.873 330.461,342.914 330.426,342.937 329.537 C 342.963 328.532,342.789 328.254,342.476 328.796 M294.074 357.638 L 293.148 358.179 294.074 357.932 C 295.106 357.658,295.384 357.482,295.154 357.253 C 295.069 357.167,294.582 357.341,294.074 357.638 " stroke="none" fill="#1c1c08" fill-rule="evenodd"></path></g></svg>