<svg id="svg" version="1.1" xmlns="http://www.w3.org/2000/svg" xmlns:xlink="http://www.w3.org/1999/xlink" width="400" height="400" viewBox="0, 0, 400,400"><g id="svgg"><path id="path0" d="M211.196 95.483 C 208.259 99.087,204.032 104.127,201.781 106.710 C 197.400 111.736,169.756 144.551,164.346 151.148 C 163.076 152.696,155.870 161.363,148.333 170.407 C 134.653 186.824,132.805 189.056,127.222 195.896 C 125.593 197.892,120.593 203.985,116.111 209.435 C 111.630 214.885,106.713 220.887,105.185 222.774 C 103.657 224.661,100.741 228.253,98.704 230.757 C 96.667 233.260,94.297 236.174,93.439 237.230 L 91.877 239.152 97.327 239.133 C 105.315 239.105,109.744 240.424,114.846 244.347 L 117.285 246.223 118.920 244.325 C 119.820 243.281,121.461 241.256,122.567 239.825 C 123.673 238.393,129.163 231.722,134.768 225.000 C 140.372 218.278,146.384 211.044,148.127 208.925 C 149.870 206.806,152.297 203.889,153.521 202.443 C 154.745 200.998,156.488 198.898,157.396 197.778 C 159.082 195.696,160.236 194.300,173.317 178.519 C 184.167 165.428,185.562 163.756,200.820 145.556 C 208.419 136.491,215.302 128.241,216.114 127.224 C 216.927 126.206,218.593 124.192,219.815 122.748 C 221.037 121.304,223.704 118.057,225.741 115.533 C 227.778 113.009,231.069 108.986,233.054 106.592 L 236.664 102.240 235.462 101.605 C 232.081 99.819,228.576 98.242,223.889 96.397 C 219.588 94.704,213.654 92.533,213.546 92.613 C 213.531 92.624,212.473 93.916,211.196 95.483 M239.616 115.602 C 236.059 119.916,232.145 124.629,230.919 126.075 C 229.694 127.521,227.360 130.347,225.734 132.354 C 221.416 137.687,219.664 139.806,209.630 151.834 C 204.639 157.816,199.333 164.224,197.838 166.074 C 196.344 167.923,194.427 170.208,193.579 171.151 C 192.731 172.094,191.120 173.993,190.000 175.372 C 187.011 179.049,182.883 184.018,171.345 197.830 C 165.668 204.625,160.057 211.352,158.876 212.778 C 157.694 214.204,155.423 216.945,153.827 218.870 C 152.231 220.794,149.676 223.901,148.148 225.774 C 146.620 227.646,141.870 233.387,137.593 238.531 C 133.315 243.674,128.332 249.734,126.519 251.997 C 124.707 254.260,123.111 256.157,122.974 256.213 C 122.836 256.269,122.971 257.120,123.273 258.105 L 123.823 259.895 127.745 260.116 C 140.938 260.858,152.718 270.176,156.173 282.601 L 156.808 284.887 157.471 283.977 C 157.836 283.477,162.492 277.752,167.819 271.256 C 173.146 264.760,179.107 257.457,181.067 255.027 C 183.026 252.598,185.880 249.074,187.407 247.198 C 196.865 235.580,199.485 232.367,205.208 225.370 C 212.841 216.036,219.840 207.417,221.111 205.785 C 222.179 204.414,237.460 185.709,241.118 181.296 C 242.469 179.667,244.512 177.167,245.658 175.741 C 246.804 174.315,250.458 169.793,253.778 165.693 C 268.911 147.003,275.157 139.355,277.143 137.082 L 279.286 134.630 275.291 130.808 C 266.548 122.443,250.009 109.265,246.623 107.966 C 246.254 107.824,244.045 110.231,239.616 115.602 M283.615 145.855 C 282.242 147.625,280.160 150.241,278.989 151.667 C 275.858 155.477,264.443 169.475,260.112 174.815 C 252.613 184.059,251.636 185.266,249.815 187.531 C 248.053 189.722,237.018 203.268,229.831 212.061 C 227.989 214.315,225.648 217.202,224.630 218.476 C 220.599 223.520,217.017 227.947,212.593 233.354 C 202.281 245.955,197.312 252.053,191.481 259.259 C 189.546 261.651,184.296 268.072,179.815 273.529 C 175.333 278.986,170.569 284.799,169.227 286.447 C 167.885 288.096,166.510 289.673,166.171 289.953 C 165.211 290.746,165.352 290.889,168.755 292.576 C 175.118 295.728,179.723 301.843,180.918 308.724 C 181.186 310.267,181.482 311.605,181.576 311.699 C 181.802 311.925,184.612 308.553,194.412 296.296 C 198.891 290.694,205.066 283.028,208.133 279.259 C 211.201 275.491,215.040 270.741,216.665 268.704 C 218.289 266.667,220.163 264.334,220.828 263.520 C 221.493 262.706,224.130 259.456,226.688 256.298 C 235.755 245.105,240.077 239.785,242.037 237.407 C 244.074 234.936,247.746 230.410,249.944 227.661 C 251.338 225.918,252.891 224.017,262.405 212.407 C 272.677 199.874,273.542 198.815,274.871 197.153 C 276.880 194.642,280.594 190.057,283.516 186.481 C 297.063 169.904,300.370 165.775,300.370 165.444 C 300.370 163.524,287.441 142.561,286.296 142.625 C 286.194 142.631,284.988 144.084,283.615 145.855 " stroke="none" fill="#f8c017" fill-rule="evenodd"></path><path id="path1" d="M269.283 25.027 C 267.768 25.303,266.268 25.644,265.950 25.784 C 265.253 26.091,264.896 26.166,263.774 26.240 C 263.304 26.271,263.013 26.447,263.127 26.632 C 263.241 26.817,263.026 26.887,262.648 26.789 C 262.271 26.690,261.728 26.844,261.441 27.131 C 261.154 27.417,260.732 27.590,260.503 27.513 C 260.273 27.437,259.831 27.629,259.519 27.941 C 259.207 28.253,257.518 29.203,255.765 30.052 C 254.012 30.901,252.170 31.973,251.671 32.435 C 251.173 32.898,250.426 33.383,250.012 33.515 C 249.598 33.646,249.259 33.913,249.259 34.108 C 249.259 34.303,248.841 34.622,248.331 34.816 C 247.820 35.010,247.445 35.328,247.497 35.522 C 247.550 35.716,246.593 36.682,245.370 37.669 C 244.148 38.656,242.983 39.836,242.781 40.291 C 242.579 40.746,242.136 41.206,241.796 41.314 C 241.456 41.422,240.955 41.786,240.682 42.122 C 240.346 42.537,240.332 42.646,240.640 42.461 C 240.891 42.311,240.173 43.154,239.045 44.335 C 237.917 45.515,236.784 46.898,236.528 47.407 C 236.272 47.917,235.869 48.293,235.634 48.244 C 235.400 48.196,235.030 48.487,234.813 48.893 C 234.596 49.298,234.529 49.630,234.663 49.630 C 234.798 49.630,234.221 50.258,233.380 51.027 C 232.540 51.795,231.852 52.563,231.852 52.733 C 231.852 52.903,231.435 53.369,230.926 53.770 C 230.417 54.170,230.000 54.728,230.000 55.008 C 230.000 55.288,229.412 55.966,228.694 56.514 C 227.975 57.062,227.472 57.596,227.576 57.699 C 227.680 57.803,227.309 58.279,226.753 58.758 C 226.196 59.236,225.741 59.779,225.741 59.965 C 225.741 60.151,225.282 60.664,224.722 61.104 C 224.162 61.545,223.704 62.075,223.704 62.282 C 223.704 62.713,222.325 64.330,220.216 66.373 C 219.418 67.146,218.907 67.778,219.079 67.778 C 219.252 67.778,218.863 68.251,218.215 68.829 C 217.567 69.408,217.037 70.038,217.037 70.230 C 217.037 70.422,216.164 71.490,215.097 72.604 C 214.030 73.718,213.192 74.739,213.234 74.872 C 213.276 75.006,212.729 75.558,212.018 76.100 C 211.308 76.642,210.817 77.231,210.927 77.409 C 211.037 77.587,210.914 77.867,210.654 78.033 C 210.394 78.198,209.735 78.932,209.190 79.664 C 208.645 80.396,207.312 81.879,206.229 82.959 C 205.146 84.040,204.509 84.782,204.815 84.610 C 205.120 84.437,204.245 85.557,202.870 87.097 C 201.495 88.638,200.370 89.980,200.370 90.078 C 200.370 90.177,199.873 90.825,199.265 91.518 C 196.368 94.818,193.704 98.142,193.704 98.456 C 193.704 98.647,193.273 99.086,192.746 99.431 C 192.219 99.777,191.865 100.136,191.959 100.230 C 192.053 100.324,191.222 101.352,190.112 102.515 C 189.003 103.678,187.853 105.088,187.557 105.648 C 187.260 106.208,186.856 106.667,186.657 106.667 C 186.459 106.667,186.296 106.903,186.296 107.191 C 186.296 107.480,185.622 108.250,184.798 108.902 C 183.974 109.555,183.381 110.171,183.481 110.271 C 183.581 110.371,183.172 110.866,182.572 111.370 C 181.972 111.875,181.481 112.468,181.481 112.687 C 181.481 113.127,181.388 113.238,178.168 116.599 C 176.935 117.886,175.926 119.169,175.926 119.449 C 175.926 119.729,175.631 120.176,175.271 120.442 C 174.911 120.708,174.345 121.343,174.013 121.852 C 173.681 122.361,172.597 123.611,171.603 124.630 C 170.610 125.648,168.887 127.648,167.776 129.074 C 166.664 130.500,163.876 133.857,161.581 136.533 C 159.285 139.209,157.407 141.519,157.407 141.665 C 157.407 141.811,156.989 142.259,156.478 142.662 C 155.967 143.064,155.643 143.546,155.759 143.733 C 155.875 143.921,155.816 144.074,155.627 144.074 C 155.191 144.074,150.741 149.435,150.741 149.960 C 150.741 150.177,150.331 150.622,149.830 150.950 C 148.836 151.602,144.815 156.422,144.815 156.962 C 144.815 157.147,143.773 158.349,142.500 159.634 C 141.227 160.919,140.185 162.069,140.185 162.189 C 140.185 162.309,139.810 162.782,139.352 163.241 C 138.894 163.699,138.519 164.211,138.519 164.378 C 138.519 164.545,137.644 165.629,136.574 166.787 C 135.505 167.946,134.348 169.267,134.003 169.724 C 133.658 170.182,131.950 172.261,130.206 174.346 C 128.463 176.431,127.037 178.206,127.037 178.291 C 127.037 178.375,126.495 179.011,125.833 179.703 C 123.583 182.056,120.558 185.712,121.114 185.407 C 121.418 185.240,121.221 185.497,120.677 185.978 C 119.409 187.097,115.926 191.347,115.926 191.775 C 115.926 191.954,115.134 192.906,114.167 193.891 C 113.199 194.875,112.451 195.824,112.503 195.999 C 112.556 196.174,112.359 196.409,112.066 196.522 C 111.772 196.634,110.416 198.136,109.051 199.858 C 107.686 201.580,106.253 203.158,105.867 203.365 C 105.481 203.572,105.258 203.892,105.372 204.076 C 105.486 204.261,105.157 204.688,104.641 205.026 C 104.126 205.364,103.704 205.859,103.704 206.125 C 103.704 206.589,101.209 209.556,99.259 211.412 C 98.750 211.897,98.333 212.450,98.333 212.642 C 98.333 212.833,98.145 213.109,97.915 213.254 C 97.340 213.618,94.815 216.968,94.815 217.368 C 94.815 217.547,94.391 217.970,93.872 218.310 C 93.354 218.650,92.771 219.346,92.577 219.856 C 92.383 220.367,92.057 220.682,91.853 220.556 C 91.648 220.430,91.461 220.503,91.435 220.719 C 91.410 220.935,91.368 221.275,91.343 221.474 C 91.317 221.674,90.940 222.087,90.504 222.392 C 90.069 222.698,89.101 223.867,88.355 224.992 C 87.608 226.117,86.840 227.037,86.647 227.037 C 86.454 227.037,86.296 227.278,86.296 227.572 C 86.296 227.866,85.964 228.339,85.558 228.623 C 85.152 228.908,84.916 229.237,85.034 229.355 C 85.152 229.473,84.887 229.763,84.444 230.000 C 84.002 230.237,83.720 230.511,83.818 230.608 C 83.916 230.706,83.600 231.214,83.116 231.736 C 82.632 232.258,82.326 232.831,82.436 233.010 C 82.546 233.188,82.460 233.333,82.244 233.333 C 82.028 233.333,81.852 233.485,81.852 233.671 C 81.852 233.857,81.185 235.165,80.370 236.579 C 79.556 237.992,78.889 239.409,78.889 239.728 C 78.889 240.048,78.700 240.372,78.469 240.449 C 78.238 240.525,78.030 241.106,78.006 241.739 C 77.982 242.372,77.812 242.797,77.627 242.683 C 77.442 242.570,77.385 242.836,77.500 243.275 C 77.614 243.715,77.539 244.074,77.333 244.074 C 77.113 244.074,77.057 244.473,77.197 245.031 C 77.340 245.601,77.295 245.900,77.085 245.770 C 76.648 245.500,76.133 248.326,76.508 248.933 C 76.687 249.221,76.623 249.276,76.323 249.091 C 76.015 248.900,75.894 249.033,75.953 249.497 C 76.001 249.875,75.944 250.435,75.827 250.741 C 75.709 251.046,75.486 251.963,75.330 252.778 C 75.174 253.593,74.995 254.509,74.931 254.815 C 74.868 255.120,74.673 256.204,74.498 257.222 C 74.323 258.241,74.081 259.324,73.960 259.630 C 73.839 259.935,73.653 260.769,73.546 261.481 C 73.440 262.194,72.924 264.694,72.400 267.037 C 71.876 269.380,71.427 271.505,71.402 271.759 C 71.378 272.014,71.200 272.222,71.006 272.222 C 70.813 272.222,70.734 272.639,70.831 273.148 C 70.929 273.657,70.845 274.074,70.646 274.074 C 70.447 274.074,70.371 274.407,70.478 274.815 C 70.584 275.222,70.501 275.556,70.294 275.556 C 70.085 275.556,69.989 276.052,70.079 276.667 C 70.169 277.278,70.085 277.778,69.893 277.778 C 69.701 277.778,69.623 278.194,69.720 278.704 C 69.818 279.213,69.743 279.630,69.555 279.630 C 69.367 279.630,69.249 279.921,69.293 280.278 C 69.337 280.634,69.269 281.176,69.142 281.481 C 68.939 281.969,66.190 295.361,65.682 298.333 C 65.578 298.944,65.243 300.444,64.937 301.667 C 64.632 302.889,64.386 304.181,64.390 304.537 C 64.395 304.894,64.223 305.185,64.008 305.185 C 63.791 305.185,63.696 305.597,63.794 306.111 C 63.892 306.620,63.808 307.037,63.609 307.037 C 63.410 307.037,63.334 307.370,63.441 307.778 C 63.547 308.185,63.464 308.519,63.255 308.519 C 63.047 308.519,62.955 308.929,63.051 309.432 C 63.147 309.934,63.112 310.392,62.973 310.450 C 62.835 310.508,62.178 313.306,61.515 316.667 C 60.260 323.024,58.167 333.480,57.957 334.444 C 57.890 334.750,57.718 335.792,57.574 336.759 C 57.430 337.727,57.149 338.519,56.949 338.519 C 56.744 338.519,56.691 338.934,56.827 339.475 C 57.000 340.167,56.944 340.356,56.624 340.159 C 56.299 339.958,56.244 340.201,56.418 341.072 C 56.549 341.725,56.522 342.177,56.359 342.076 C 55.992 341.849,55.051 347.261,55.369 347.775 C 55.495 347.980,55.404 348.148,55.165 348.148 C 54.893 348.148,54.792 348.564,54.894 349.259 C 54.984 349.870,54.942 350.370,54.801 350.370 C 53.957 350.370,52.391 366.937,52.976 369.692 C 53.493 372.127,55.747 374.863,57.310 374.952 C 57.771 374.978,58.148 375.150,58.148 375.334 C 58.148 375.805,65.626 375.300,65.930 374.808 C 66.066 374.588,66.579 374.401,67.070 374.392 C 68.386 374.370,71.111 373.651,71.111 373.326 C 71.111 373.172,71.319 373.053,71.574 373.062 C 73.009 373.116,73.724 372.926,73.494 372.553 C 73.321 372.274,73.506 372.227,74.074 372.407 C 74.699 372.606,74.834 372.553,74.615 372.199 C 74.407 371.863,74.501 371.794,74.939 371.962 C 75.278 372.093,75.556 372.038,75.556 371.840 C 75.556 371.643,75.681 371.512,75.833 371.550 C 75.986 371.588,76.694 371.365,77.407 371.054 C 78.120 370.743,79.620 370.187,80.741 369.819 C 81.861 369.451,82.880 368.994,83.004 368.803 C 83.129 368.612,83.340 368.482,83.474 368.515 C 84.012 368.647,85.926 368.068,85.926 367.773 C 85.926 367.599,86.346 367.533,86.860 367.626 C 87.489 367.740,87.869 367.601,88.022 367.201 C 88.158 366.848,88.524 366.679,88.926 366.784 C 89.298 366.881,89.787 366.738,90.013 366.465 C 90.240 366.193,90.690 366.072,91.014 366.196 C 91.439 366.359,91.518 366.284,91.296 365.926 C 91.072 365.563,91.156 365.493,91.606 365.666 C 91.945 365.796,92.222 365.757,92.222 365.579 C 92.222 365.400,92.582 365.349,93.021 365.463 C 93.620 365.620,93.744 365.549,93.516 365.181 C 93.296 364.825,93.379 364.753,93.817 364.921 C 94.150 365.049,94.661 364.916,94.952 364.625 C 95.467 364.109,96.784 363.557,100.556 362.275 C 101.574 361.929,102.824 361.407,103.333 361.116 C 103.843 360.824,104.445 360.622,104.673 360.668 C 104.900 360.713,105.287 360.508,105.533 360.212 C 105.779 359.916,106.245 359.775,106.569 359.900 C 106.957 360.049,107.068 359.979,106.893 359.697 C 106.720 359.416,106.827 359.344,107.203 359.488 C 107.519 359.610,107.778 359.540,107.778 359.334 C 107.778 359.127,108.137 359.052,108.576 359.167 C 109.176 359.324,109.299 359.253,109.071 358.884 C 108.850 358.527,108.936 358.457,109.384 358.629 C 109.723 358.759,110.000 358.709,110.000 358.519 C 110.000 358.328,110.228 358.259,110.508 358.366 C 110.787 358.473,111.122 358.284,111.252 357.946 C 111.388 357.590,111.720 357.420,112.040 357.543 C 112.344 357.659,112.593 357.606,112.593 357.425 C 112.593 357.243,113.218 356.903,113.981 356.670 C 114.745 356.436,115.745 356.090,116.204 355.900 C 119.937 354.356,120.147 354.276,122.500 353.477 C 123.569 353.114,124.444 352.655,124.444 352.458 C 124.444 352.260,124.542 352.196,124.661 352.315 C 124.971 352.625,127.037 351.850,127.037 351.423 C 127.037 351.228,127.204 351.170,127.407 351.296 C 127.611 351.422,127.778 351.354,127.778 351.145 C 127.778 350.935,128.055 350.870,128.394 351.000 C 128.832 351.169,128.926 351.100,128.718 350.764 C 128.499 350.410,128.635 350.357,129.259 350.556 C 129.827 350.736,130.012 350.689,129.839 350.410 C 129.686 350.162,129.879 350.000,130.327 350.000 C 130.734 350.000,131.163 349.845,131.280 349.657 C 131.396 349.468,132.114 349.109,132.876 348.860 C 133.637 348.610,135.009 348.072,135.926 347.663 C 136.843 347.254,137.759 346.895,137.963 346.865 C 138.167 346.834,138.667 346.678,139.074 346.518 C 139.481 346.358,140.273 346.056,140.833 345.846 C 141.394 345.637,141.852 345.324,141.852 345.152 C 141.852 344.979,142.080 344.926,142.360 345.033 C 142.639 345.140,143.097 345.010,143.378 344.744 C 143.659 344.477,144.097 344.243,144.352 344.222 C 145.808 344.106,145.951 344.044,145.702 343.641 C 145.522 343.349,145.636 343.285,146.050 343.444 C 146.402 343.579,146.667 343.500,146.667 343.260 C 146.667 343.029,146.778 342.951,146.914 343.087 C 147.051 343.223,147.426 343.113,147.748 342.841 C 148.070 342.570,149.167 342.041,150.185 341.666 C 151.204 341.292,152.754 340.605,153.630 340.141 C 154.507 339.677,155.493 339.400,155.821 339.526 C 156.216 339.678,156.328 339.610,156.153 339.326 C 155.983 339.053,156.082 338.972,156.424 339.103 C 156.719 339.217,157.182 339.073,157.451 338.785 C 157.721 338.496,158.264 338.345,158.658 338.448 C 159.175 338.583,159.293 338.502,159.080 338.158 C 158.884 337.841,158.956 337.739,159.297 337.852 C 159.578 337.946,160.023 337.808,160.285 337.545 C 160.548 337.283,161.035 337.173,161.368 337.301 C 161.808 337.470,161.890 337.398,161.667 337.037 C 161.444 336.676,161.525 336.604,161.966 336.773 C 162.299 336.901,162.826 336.751,163.137 336.439 C 163.449 336.128,163.706 336.010,163.709 336.177 C 163.712 336.345,163.837 336.306,163.987 336.092 C 164.137 335.878,165.054 335.405,166.025 335.040 C 166.997 334.676,167.998 334.171,168.251 333.919 C 168.504 333.666,168.917 333.528,169.170 333.612 C 169.423 333.696,169.630 333.585,169.630 333.364 C 169.630 333.144,169.755 332.990,169.907 333.024 C 170.509 333.155,172.421 332.435,173.608 331.630 C 174.312 331.152,175.119 330.881,175.453 331.009 C 175.883 331.174,175.963 331.100,175.741 330.741 C 175.517 330.378,175.600 330.308,176.050 330.481 C 176.389 330.611,176.667 330.546,176.667 330.337 C 176.667 330.128,176.833 330.059,177.037 330.185 C 177.241 330.311,177.407 330.228,177.407 330.000 C 177.407 329.772,177.574 329.689,177.778 329.815 C 177.981 329.941,178.148 329.872,178.148 329.663 C 178.148 329.454,178.385 329.373,178.675 329.485 C 178.965 329.596,179.532 329.357,179.935 328.954 C 180.338 328.551,181.055 328.098,181.527 327.948 C 182.273 327.712,189.177 321.111,188.679 321.111 C 188.576 321.111,189.081 320.594,189.801 319.963 C 190.520 319.331,191.024 318.677,190.920 318.510 C 190.817 318.342,191.231 317.850,191.841 317.415 C 192.450 316.981,192.911 316.427,192.864 316.183 C 192.816 315.940,192.986 315.782,193.241 315.833 C 193.495 315.884,193.704 315.593,193.704 315.185 C 193.704 314.741,193.951 314.444,194.321 314.444 C 194.660 314.444,194.828 314.334,194.694 314.200 C 194.559 314.065,194.784 313.721,195.194 313.434 C 195.603 313.147,195.849 312.768,195.741 312.593 C 195.632 312.417,195.921 312.008,196.383 311.685 C 196.844 311.361,197.222 310.958,197.222 310.788 C 197.222 310.618,197.764 310.023,198.426 309.466 C 199.088 308.908,199.630 308.216,199.630 307.928 C 199.630 307.639,200.041 307.045,200.543 306.608 C 201.045 306.172,201.382 305.695,201.292 305.549 C 201.202 305.403,201.958 304.418,202.971 303.361 C 203.985 302.303,204.815 301.281,204.815 301.089 C 204.815 300.898,204.976 300.741,205.172 300.741 C 205.369 300.741,205.719 300.387,205.950 299.955 C 206.290 299.319,206.275 299.227,205.870 299.471 C 205.498 299.695,205.508 299.602,205.911 299.107 C 206.208 298.741,206.836 298.295,207.306 298.116 C 207.777 297.937,208.321 297.371,208.516 296.858 C 208.711 296.346,209.041 295.926,209.250 295.926 C 209.459 295.926,209.630 295.682,209.630 295.383 C 209.630 295.085,209.973 294.657,210.393 294.432 C 210.813 294.208,211.099 293.853,211.029 293.644 C 210.960 293.435,211.787 292.343,212.868 291.218 C 213.950 290.093,214.580 289.270,214.269 289.389 C 213.304 289.760,213.643 289.327,215.086 288.347 C 215.846 287.830,216.305 287.404,216.104 287.399 C 215.904 287.395,216.157 287.047,216.667 286.626 C 217.176 286.206,217.343 285.972,217.037 286.106 C 216.670 286.268,216.699 286.173,217.124 285.824 C 217.477 285.534,217.658 285.189,217.525 285.056 C 217.392 284.923,217.452 284.815,217.657 284.815 C 217.862 284.815,218.223 284.389,218.461 283.868 C 218.698 283.347,219.062 283.026,219.270 283.155 C 219.478 283.283,219.603 283.251,219.549 283.083 C 219.495 282.915,219.741 282.366,220.095 281.862 C 220.450 281.358,220.741 281.054,220.741 281.186 C 220.741 281.318,221.145 281.065,221.639 280.625 C 222.222 280.106,222.419 279.681,222.199 279.417 C 221.977 279.149,222.166 278.846,222.751 278.533 C 223.241 278.271,223.727 277.727,223.833 277.324 C 223.938 276.922,224.202 276.702,224.420 276.836 C 224.637 276.971,224.815 276.839,224.815 276.543 C 224.815 276.247,225.075 275.905,225.394 275.783 C 225.712 275.661,225.891 275.429,225.792 275.268 C 225.692 275.107,226.098 274.587,226.694 274.113 C 227.290 273.638,227.778 273.084,227.778 272.882 C 227.778 272.680,228.191 272.189,228.697 271.791 C 229.202 271.394,229.577 270.929,229.530 270.759 C 229.483 270.588,229.944 269.995,230.556 269.440 C 231.167 268.885,231.417 268.554,231.111 268.703 C 230.806 268.852,231.139 268.436,231.852 267.778 C 232.565 267.119,232.898 266.698,232.593 266.840 C 232.287 266.983,232.619 266.598,233.331 265.986 C 234.043 265.373,234.504 264.751,234.356 264.603 C 234.208 264.455,234.429 264.038,234.846 263.677 C 235.263 263.315,235.581 262.886,235.552 262.722 C 235.523 262.559,235.702 262.358,235.950 262.276 C 236.241 262.179,236.295 262.306,236.103 262.637 C 235.928 262.939,235.945 263.022,236.144 262.840 C 236.330 262.670,236.483 262.420,236.484 262.284 C 236.486 262.148,236.777 261.625,237.132 261.121 C 237.487 260.618,237.778 260.332,237.778 260.486 C 237.778 260.640,238.278 260.197,238.889 259.501 C 239.500 258.805,240.000 258.115,240.000 257.967 C 240.000 257.482,243.691 253.047,244.283 252.820 C 244.601 252.698,244.763 252.438,244.643 252.243 C 244.522 252.048,244.743 251.718,245.133 251.510 C 245.822 251.141,247.602 248.568,247.492 248.100 C 247.462 247.971,247.930 247.488,248.533 247.026 C 249.136 246.564,249.630 245.970,249.630 245.707 C 249.630 245.444,249.822 245.110,250.057 244.965 C 250.346 244.786,250.385 244.869,250.179 245.221 C 250.010 245.507,250.241 245.418,250.690 245.023 C 251.140 244.629,251.426 244.093,251.326 243.833 C 251.226 243.573,251.679 242.921,252.332 242.383 C 252.984 241.846,253.269 241.521,252.963 241.660 C 252.657 241.800,252.991 241.386,253.704 240.741 C 254.417 240.095,254.750 239.681,254.444 239.821 C 254.139 239.960,254.556 239.462,255.370 238.714 C 256.185 237.966,256.644 237.459,256.389 237.588 C 255.452 238.061,255.963 237.199,257.045 236.481 C 258.226 235.698,260.886 232.639,259.977 233.109 C 259.684 233.260,259.986 232.902,260.648 232.313 C 261.310 231.724,261.852 231.086,261.852 230.895 C 261.852 230.705,262.185 230.340,262.593 230.086 C 263.000 229.832,263.332 229.416,263.330 229.164 C 263.328 228.911,263.870 228.235,264.534 227.661 C 265.556 226.778,265.599 226.683,264.815 227.038 L 263.889 227.457 264.815 226.700 C 265.324 226.283,265.866 225.939,266.019 225.934 C 266.171 225.930,266.296 225.732,266.296 225.496 C 266.296 225.259,266.921 224.489,267.685 223.785 C 268.449 223.080,268.866 222.617,268.611 222.755 C 267.732 223.233,268.152 222.458,269.352 221.390 C 270.014 220.802,270.306 220.443,270.000 220.594 C 269.627 220.778,269.677 220.603,270.150 220.064 C 270.538 219.621,271.070 219.259,271.332 219.259 C 271.594 219.259,271.929 219.064,272.076 218.826 C 272.261 218.526,272.125 218.469,271.635 218.641 C 270.847 218.918,271.416 218.350,273.353 216.927 C 273.852 216.561,274.009 216.380,273.704 216.524 C 273.398 216.668,273.523 216.373,273.981 215.869 C 274.440 215.365,274.817 214.713,274.820 214.421 C 274.825 213.975,274.884 213.978,275.185 214.444 C 275.489 214.915,275.545 214.918,275.550 214.465 C 275.553 214.170,276.014 213.436,276.574 212.833 C 277.134 212.231,277.384 211.856,277.130 212.002 C 276.085 212.598,276.766 211.811,278.049 210.939 C 278.809 210.423,279.287 210.000,279.110 210.000 C 278.933 210.000,279.228 209.655,279.765 209.232 C 280.302 208.810,280.741 208.227,280.741 207.936 C 280.741 207.645,280.907 207.407,281.111 207.407 C 281.315 207.407,281.481 207.175,281.481 206.891 C 281.481 206.608,281.733 206.279,282.040 206.161 C 282.348 206.043,282.556 205.817,282.503 205.658 C 282.402 205.355,283.213 204.364,284.907 202.718 C 285.468 202.174,285.926 201.515,285.926 201.254 C 285.926 200.992,286.508 200.335,287.219 199.792 C 287.930 199.250,288.431 198.677,288.333 198.518 C 288.235 198.359,288.575 197.954,289.089 197.617 C 289.603 197.280,289.933 196.858,289.823 196.680 C 289.713 196.502,290.035 196.031,290.539 195.634 C 291.044 195.238,291.366 194.822,291.255 194.711 C 291.144 194.600,291.559 194.135,292.179 193.677 C 292.798 193.220,293.225 192.718,293.129 192.562 C 293.033 192.406,293.456 191.921,294.070 191.485 C 294.683 191.048,295.185 190.458,295.185 190.173 C 295.185 189.888,295.519 189.477,295.926 189.259 C 296.333 189.041,296.667 188.659,296.667 188.409 C 296.667 188.160,297.000 187.748,297.407 187.493 C 297.815 187.239,298.148 186.811,298.148 186.543 C 298.148 186.275,298.560 185.668,299.063 185.196 C 299.566 184.723,299.889 184.194,299.782 184.020 C 299.674 183.846,299.721 183.700,299.886 183.695 C 300.050 183.691,300.602 183.343,301.111 182.923 C 301.620 182.502,301.787 182.280,301.481 182.430 C 301.176 182.579,301.593 182.074,302.407 181.306 C 303.222 180.539,303.651 180.043,303.361 180.203 C 303.070 180.363,303.695 179.458,304.750 178.191 C 305.804 176.924,306.667 175.756,306.667 175.596 C 306.667 175.435,307.093 175.110,307.613 174.873 C 308.134 174.635,308.472 174.299,308.365 174.125 C 308.257 173.950,308.664 173.366,309.270 172.827 C 309.875 172.288,310.370 171.638,310.370 171.383 C 310.370 171.128,310.704 170.711,311.111 170.456 C 311.519 170.202,311.852 169.836,311.852 169.644 C 311.852 169.451,312.636 168.521,313.594 167.576 C 314.553 166.631,315.377 165.582,315.426 165.244 C 315.475 164.906,315.930 164.272,316.438 163.834 C 316.945 163.397,317.273 162.952,317.166 162.845 C 317.060 162.739,317.404 162.369,317.931 162.024 C 318.458 161.679,318.889 161.189,318.889 160.935 C 318.889 160.682,319.296 160.169,319.793 159.795 C 320.290 159.422,320.618 158.991,320.523 158.836 C 320.428 158.682,320.848 158.188,321.457 157.738 C 322.065 157.287,322.488 156.798,322.396 156.649 C 322.305 156.500,322.811 155.935,323.522 155.393 C 324.233 154.850,324.815 154.183,324.815 153.910 C 324.815 153.636,325.065 153.317,325.370 153.199 C 325.676 153.082,325.926 152.737,325.926 152.432 C 325.926 152.127,326.259 151.700,326.667 151.481 C 327.074 151.263,327.407 150.873,327.407 150.615 C 327.407 150.356,328.024 149.487,328.779 148.683 C 329.533 147.880,330.158 147.125,330.167 147.006 C 330.177 146.888,330.685 146.332,331.296 145.773 C 331.907 145.213,332.157 144.865,331.852 145.000 C 331.546 145.135,331.713 144.846,332.222 144.358 C 332.731 143.871,333.190 143.274,333.241 143.032 C 333.292 142.790,333.625 142.287,333.981 141.913 C 334.338 141.539,334.868 140.881,335.160 140.451 C 335.452 140.021,335.853 139.769,336.051 139.892 C 336.249 140.014,336.296 139.929,336.157 139.703 C 336.016 139.475,336.319 139.019,336.837 138.679 C 337.351 138.343,337.685 137.927,337.579 137.756 C 337.473 137.585,337.738 137.257,338.167 137.027 C 338.595 136.798,338.860 136.385,338.755 136.111 C 338.649 135.836,338.984 135.336,339.499 134.998 C 340.014 134.661,340.338 134.289,340.220 134.170 C 340.101 134.052,340.337 133.723,340.743 133.438 C 341.149 133.154,341.481 132.694,341.481 132.416 C 341.481 132.139,342.077 131.357,342.805 130.678 C 344.284 129.300,345.236 127.879,344.389 128.317 C 344.114 128.459,344.282 128.229,344.763 127.806 C 345.244 127.383,345.504 127.037,345.341 127.037 C 345.177 127.037,345.367 126.800,345.763 126.511 C 346.158 126.222,346.486 125.847,346.491 125.678 C 346.500 125.384,347.736 123.349,348.140 122.963 C 348.246 122.861,348.731 121.986,349.218 121.019 C 349.705 120.051,350.256 119.259,350.444 119.259 C 350.631 119.259,350.681 119.093,350.556 118.889 C 350.430 118.685,350.513 118.519,350.741 118.519 C 350.968 118.519,351.052 118.352,350.926 118.148 C 350.800 117.944,350.883 117.778,351.111 117.778 C 351.339 117.778,351.422 117.611,351.296 117.407 C 351.170 117.204,351.254 117.037,351.481 117.037 C 351.709 117.037,351.802 116.885,351.687 116.700 C 351.366 116.180,351.880 115.159,352.324 115.433 C 352.571 115.586,352.630 115.447,352.482 115.061 C 352.352 114.721,352.424 114.444,352.644 114.444 C 352.863 114.444,352.946 114.194,352.829 113.889 C 352.712 113.583,352.795 113.333,353.014 113.333 C 353.233 113.333,353.313 113.075,353.192 112.759 C 353.054 112.398,353.123 112.277,353.377 112.435 C 353.648 112.602,353.700 112.424,353.533 111.898 C 353.377 111.407,353.444 111.111,353.710 111.111 C 353.944 111.111,354.067 110.904,353.983 110.651 C 353.898 110.399,354.060 109.961,354.341 109.680 C 354.672 109.350,354.770 108.789,354.620 108.102 C 354.464 107.395,354.534 107.037,354.826 107.037 C 355.114 107.037,355.183 106.707,355.025 106.080 C 354.854 105.397,354.910 105.200,355.220 105.392 C 355.530 105.583,355.606 105.325,355.484 104.497 C 355.390 103.857,355.474 103.333,355.671 103.333 C 355.884 103.333,355.940 102.475,355.811 101.204 C 355.678 99.909,355.716 99.364,355.906 99.815 C 356.097 100.268,356.219 98.614,356.219 95.556 C 356.219 92.683,356.093 90.871,355.922 91.296 C 355.754 91.716,355.716 91.090,355.834 89.850 C 355.984 88.263,355.926 87.734,355.619 87.924 C 355.319 88.109,355.265 87.840,355.434 86.998 C 355.602 86.156,355.548 85.887,355.249 86.072 C 354.949 86.257,354.895 85.988,355.063 85.146 C 355.244 84.243,355.189 84.028,354.833 84.248 C 354.489 84.461,354.431 84.330,354.615 83.750 C 354.752 83.317,354.710 82.963,354.521 82.963 C 354.332 82.963,354.261 82.522,354.364 81.982 C 354.485 81.351,354.413 81.087,354.162 81.242 C 353.915 81.394,353.849 81.190,353.982 80.683 C 354.124 80.140,354.055 79.968,353.766 80.147 C 353.491 80.317,353.419 80.207,353.562 79.834 C 353.684 79.517,353.589 79.259,353.351 79.259 C 353.114 79.259,353.029 79.082,353.163 78.866 C 353.296 78.649,353.114 78.149,352.757 77.754 C 352.400 77.360,352.222 77.037,352.363 77.037 C 352.504 77.037,352.411 76.662,352.157 76.204 C 351.902 75.745,351.732 75.240,351.777 75.081 C 351.905 74.633,350.763 72.593,350.385 72.593 C 350.200 72.593,349.837 72.009,349.579 71.296 C 349.321 70.583,348.977 70.000,348.814 70.000 C 348.652 70.000,348.519 69.750,348.519 69.444 C 348.519 69.139,348.352 68.889,348.148 68.889 C 347.944 68.889,347.778 68.634,347.778 68.322 C 347.778 68.010,347.529 67.659,347.224 67.542 C 346.920 67.425,346.764 67.179,346.877 66.996 C 346.991 66.812,346.824 66.562,346.507 66.440 C 346.190 66.318,346.017 66.078,346.124 65.906 C 346.230 65.734,345.981 65.413,345.570 65.193 C 345.159 64.973,344.840 64.673,344.862 64.526 C 344.978 63.755,344.753 63.333,344.225 63.333 C 343.900 63.333,343.549 63.008,343.445 62.610 C 343.341 62.212,342.857 61.625,342.369 61.305 C 341.881 60.985,341.479 60.519,341.476 60.269 C 341.474 60.019,340.476 58.837,339.258 57.643 C 338.041 56.448,337.125 55.342,337.222 55.185 C 337.320 55.028,337.151 54.693,336.848 54.441 C 336.544 54.189,336.296 54.100,336.296 54.242 C 336.296 54.385,334.767 52.947,332.899 51.047 C 331.030 49.147,329.626 47.843,329.779 48.148 C 329.932 48.454,329.752 48.370,329.380 47.963 C 328.287 46.766,324.929 44.074,324.529 44.074 C 324.327 44.074,323.475 43.388,322.636 42.549 C 321.797 41.710,321.106 41.169,321.100 41.345 C 321.094 41.522,320.917 41.371,320.707 41.011 C 320.497 40.650,320.177 40.446,319.996 40.558 C 319.815 40.670,319.483 40.419,319.259 40.000 C 319.035 39.581,318.711 39.326,318.539 39.432 C 318.367 39.538,318.126 39.366,318.004 39.048 C 317.883 38.731,317.614 38.576,317.407 38.704 C 317.201 38.831,316.932 38.676,316.810 38.359 C 316.689 38.042,316.450 37.868,316.280 37.973 C 316.110 38.078,315.800 37.869,315.590 37.508 C 315.380 37.147,315.203 36.988,315.196 37.155 C 315.182 37.532,312.888 35.957,312.477 35.289 C 312.312 35.019,312.020 34.896,311.829 35.014 C 311.638 35.132,311.481 35.025,311.481 34.775 C 311.481 34.525,311.384 34.418,311.265 34.537 C 311.147 34.656,310.724 34.428,310.326 34.030 C 309.928 33.632,309.454 33.398,309.271 33.511 C 309.089 33.624,308.835 33.546,308.707 33.339 C 308.579 33.132,308.151 32.963,307.756 32.963 C 307.361 32.963,307.037 32.787,307.037 32.572 C 307.037 32.246,304.006 30.622,303.303 30.571 C 302.827 30.537,299.058 28.689,298.838 28.382 C 298.708 28.201,298.390 28.184,298.132 28.343 C 297.805 28.545,297.755 28.484,297.966 28.142 C 298.187 27.786,298.101 27.717,297.653 27.888 C 297.314 28.019,297.037 27.946,297.037 27.727 C 297.037 27.507,296.778 27.427,296.462 27.549 C 296.146 27.670,295.981 27.618,296.095 27.433 C 296.345 27.029,294.252 26.513,293.713 26.846 C 293.504 26.975,293.333 26.886,293.333 26.649 C 293.333 26.411,293.083 26.313,292.778 26.430 C 292.472 26.547,292.222 26.501,292.222 26.326 C 292.222 26.151,291.681 25.906,291.019 25.781 C 290.356 25.655,289.398 25.461,288.889 25.350 C 284.260 24.336,273.999 24.167,269.283 25.027 M285.237 36.513 C 300.629 39.431,324.388 55.325,335.019 69.815 C 336.215 71.444,337.478 73.086,337.826 73.463 C 339.242 74.998,342.609 82.528,343.702 86.603 C 347.350 100.206,343.846 111.088,330.000 129.153 C 327.473 132.450,328.099 132.699,324.463 126.944 C 322.758 124.245,320.440 120.870,319.311 119.444 C 318.182 118.019,316.675 116.102,315.962 115.185 C 305.477 101.705,286.785 85.394,270.263 75.308 C 261.878 70.189,243.056 61.481,240.376 61.481 C 238.560 61.481,251.776 46.745,257.466 42.425 C 264.788 36.867,275.299 34.629,285.237 36.513 M236.559 71.837 C 243.932 73.776,257.030 79.579,263.704 83.864 C 265.028 84.714,267.028 85.975,268.148 86.665 C 286.195 97.791,308.411 120.268,318.102 137.207 C 320.652 141.664,321.412 140.095,309.783 154.374 L 308.181 156.341 307.046 154.093 C 297.614 135.407,272.831 110.767,249.561 96.938 C 241.960 92.421,232.303 87.798,225.000 85.181 C 223.167 84.524,221.523 83.854,221.347 83.692 C 220.999 83.371,231.426 70.739,232.036 70.743 C 232.240 70.744,234.275 71.237,236.559 71.837 M220.926 94.883 C 226.684 96.920,236.667 101.597,236.667 102.257 C 236.667 102.491,235.130 104.537,233.252 106.804 C 227.184 114.131,222.076 120.379,220.399 122.530 C 219.498 123.685,217.830 125.713,216.691 127.037 C 215.553 128.361,213.958 130.278,213.147 131.296 C 212.337 132.315,209.413 135.815,206.651 139.074 C 203.889 142.333,198.997 148.167,195.781 152.037 C 192.564 155.907,189.052 160.080,187.978 161.308 C 186.903 162.537,184.675 165.204,183.026 167.234 C 181.377 169.265,179.397 171.675,178.625 172.591 C 177.854 173.506,173.566 178.673,169.098 184.072 C 161.043 193.804,157.435 198.155,153.148 203.307 C 151.926 204.775,150.371 206.674,149.693 207.525 C 149.014 208.377,146.993 210.824,145.201 212.963 C 143.408 215.102,138.140 221.435,133.494 227.037 C 128.847 232.639,123.867 238.639,122.427 240.370 C 120.987 242.102,119.310 244.223,118.701 245.085 C 117.326 247.028,117.364 247.030,115.069 244.966 C 110.423 240.789,103.262 238.902,94.776 239.620 C 92.862 239.782,91.246 239.870,91.186 239.815 C 91.125 239.761,92.791 237.606,94.889 235.025 C 96.987 232.445,99.845 228.884,101.240 227.111 C 102.634 225.339,104.303 223.306,104.947 222.593 C 105.592 221.880,106.697 220.546,107.403 219.630 C 108.110 218.713,110.200 216.130,112.047 213.889 C 113.895 211.648,117.389 207.398,119.811 204.444 C 122.234 201.491,125.402 197.657,126.852 195.926 C 128.301 194.194,130.116 191.944,130.883 190.926 C 131.651 189.907,132.810 188.491,133.460 187.778 C 134.110 187.065,135.306 185.650,136.117 184.634 C 136.929 183.619,142.655 176.702,148.842 169.264 C 155.028 161.826,161.528 154.011,163.286 151.897 C 165.044 149.783,167.481 146.891,168.704 145.470 C 169.926 144.050,171.754 141.863,172.767 140.610 C 173.779 139.358,180.184 131.750,187.000 123.704 C 193.816 115.657,200.071 108.257,200.900 107.259 C 201.729 106.260,203.574 104.093,205.000 102.443 C 206.426 100.794,208.258 98.611,209.071 97.592 C 213.695 91.802,212.798 92.007,220.926 94.883 M249.359 109.312 C 252.882 111.682,261.852 118.436,263.519 119.974 C 264.333 120.726,266.167 122.284,267.593 123.435 C 269.019 124.587,272.263 127.505,274.802 129.921 L 279.419 134.313 277.973 136.323 C 277.177 137.429,275.673 139.333,274.630 140.556 C 273.588 141.778,271.474 144.361,269.933 146.296 C 268.392 148.231,263.591 154.148,259.263 159.444 C 246.569 174.978,244.351 177.706,242.611 179.930 C 241.704 181.089,237.945 185.704,234.258 190.185 C 224.053 202.589,216.133 212.332,213.295 215.973 C 212.357 217.176,210.577 219.366,209.339 220.839 C 208.101 222.313,203.153 228.352,198.342 234.259 C 193.532 240.167,188.895 245.822,188.039 246.827 C 187.182 247.832,185.531 249.896,184.369 251.414 C 183.207 252.931,181.259 255.359,180.039 256.809 C 178.820 258.258,173.883 264.278,169.067 270.185 C 164.251 276.093,159.538 281.873,158.594 283.031 L 156.876 285.137 155.726 282.106 C 150.604 268.609,141.075 261.359,127.238 260.432 L 123.549 260.185 123.061 258.519 C 122.449 256.430,122.630 256.011,125.622 252.583 C 126.910 251.108,128.477 249.215,129.106 248.376 C 130.384 246.671,151.589 221.052,155.440 216.559 C 156.801 214.973,158.162 213.306,158.464 212.856 C 158.767 212.405,159.945 210.964,161.082 209.653 C 162.218 208.342,164.315 205.825,165.741 204.059 C 167.167 202.293,172.083 196.390,176.667 190.940 C 181.250 185.491,186.250 179.495,187.778 177.616 C 189.306 175.736,191.339 173.296,192.296 172.192 C 194.166 170.036,214.332 145.745,220.512 138.206 C 222.573 135.691,225.259 132.456,226.481 131.018 C 227.704 129.579,229.352 127.553,230.145 126.516 C 230.938 125.478,232.604 123.443,233.849 121.994 C 235.093 120.544,238.344 116.660,241.072 113.363 C 244.254 109.520,246.216 107.440,246.543 107.565 C 246.823 107.672,248.090 108.459,249.359 109.312 M292.273 150.265 C 295.551 155.158,298.475 160.340,300.001 163.957 L 300.811 165.877 295.668 172.105 C 292.839 175.531,288.839 180.417,286.779 182.963 C 284.718 185.509,282.271 188.509,281.340 189.630 C 280.409 190.750,278.857 192.667,277.892 193.889 C 276.926 195.111,272.733 200.278,268.574 205.370 C 264.414 210.463,259.659 216.288,258.006 218.315 C 256.353 220.342,253.746 223.509,252.213 225.352 C 250.680 227.195,248.303 230.120,246.931 231.852 C 244.363 235.091,241.280 238.892,234.352 247.357 C 222.421 261.935,220.506 264.304,212.778 274.041 C 211.352 275.838,208.359 279.539,206.126 282.265 C 200.225 289.473,193.137 298.233,190.370 301.739 C 180.568 314.161,181.277 313.450,180.930 311.204 C 179.987 305.119,179.133 302.773,176.675 299.527 C 174.539 296.705,169.703 292.912,167.032 291.964 C 164.691 291.132,164.657 291.284,168.068 287.276 C 169.654 285.413,174.697 279.306,179.275 273.704 C 183.853 268.102,188.598 262.303,189.818 260.817 C 191.038 259.331,192.594 257.414,193.275 256.558 C 193.956 255.701,195.810 253.417,197.396 251.481 C 198.981 249.546,204.145 243.213,208.870 237.407 C 213.595 231.602,218.688 225.352,220.187 223.519 C 221.686 221.685,223.910 218.935,225.130 217.407 C 229.098 212.438,248.934 188.068,254.221 181.667 C 255.566 180.037,257.341 177.826,258.165 176.753 C 259.910 174.479,280.820 148.852,284.133 144.925 L 286.384 142.257 287.689 143.814 C 288.406 144.670,290.469 147.573,292.273 150.265 M102.696 250.179 C 109.260 251.889,112.738 256.140,113.880 263.844 C 114.764 269.807,115.773 270.577,122.184 270.186 C 135.356 269.382,144.986 276.510,147.559 288.968 C 147.883 290.537,148.148 292.500,148.148 293.330 C 148.148 297.185,149.344 298.088,155.741 299.063 C 167.107 300.795,172.605 308.009,170.953 319.025 L 170.698 320.725 167.478 322.244 C 165.708 323.079,161.859 324.765,158.926 325.990 C 155.993 327.215,152.327 328.797,150.778 329.505 C 149.230 330.214,145.380 331.870,142.222 333.187 C 139.065 334.503,135.065 336.233,133.333 337.031 C 131.602 337.829,127.602 339.558,124.444 340.873 C 121.287 342.188,117.408 343.870,115.823 344.611 C 112.498 346.165,112.395 346.144,112.048 343.833 C 109.950 329.841,96.347 316.733,79.426 312.396 C 76.601 311.672,74.238 311.028,74.175 310.966 C 74.023 310.813,76.552 298.459,77.216 296.111 C 77.504 295.093,79.091 287.759,80.742 279.815 C 82.393 271.870,84.139 263.870,84.622 262.037 C 85.104 260.204,85.861 256.870,86.302 254.630 C 86.744 252.389,87.228 250.425,87.379 250.266 C 88.344 249.247,98.890 249.188,102.696 250.179 M77.730 322.458 C 86.853 325.101,95.639 331.487,99.370 338.185 C 100.472 340.163,103.581 349.185,103.250 349.443 C 103.109 349.553,96.330 352.158,88.148 355.247 C 84.380 356.669,78.296 358.967,74.630 360.354 C 67.379 363.097,64.088 364.222,63.914 364.019 C 63.314 363.319,68.593 334.602,71.553 322.463 C 71.957 320.804,72.025 320.804,77.730 322.458 " stroke="none" fill="#050404" fill-rule="evenodd"></path><path id="path2" d="M271.352 36.493 C 261.560 38.345,254.963 43.201,243.194 57.222 C 240.432 60.513,239.902 61.481,240.861 61.481 C 243.014 61.481,259.099 68.656,267.178 73.221 C 289.384 85.766,317.980 113.129,326.807 130.278 C 327.684 131.982,327.582 132.067,332.233 125.759 C 350.685 100.730,349.049 82.373,326.442 60.760 C 307.838 42.974,286.585 33.612,271.352 36.493 " stroke="none" fill="#f74a68" fill-rule="evenodd"></path><path id="path3" d="M89.202 249.900 C 87.781 250.014,87.441 250.184,87.269 250.872 C 87.154 251.331,85.885 257.281,84.449 264.094 C 83.013 270.907,81.416 278.204,80.901 280.309 C 80.386 282.414,78.981 288.914,77.779 294.754 C 76.577 300.593,75.348 306.532,75.047 307.951 C 74.455 310.749,74.510 311.111,75.530 311.111 C 76.795 311.111,84.937 313.759,88.517 315.334 C 100.165 320.460,110.113 332.035,112.263 342.963 C 112.523 344.287,112.759 345.412,112.788 345.463 C 112.816 345.514,115.742 344.291,119.290 342.745 C 122.838 341.199,128.241 338.888,131.296 337.609 C 134.352 336.329,138.519 334.531,140.556 333.612 C 142.593 332.693,146.843 330.844,150.000 329.503 C 161.922 324.440,170.068 320.821,170.490 320.399 C 171.543 319.346,171.038 311.533,169.740 308.793 C 166.839 302.669,162.265 299.825,154.074 299.053 C 149.847 298.655,148.148 297.459,148.148 294.883 C 148.148 288.682,144.560 280.066,140.356 276.174 C 135.543 271.718,132.440 270.690,123.378 270.546 C 114.826 270.410,114.874 270.446,113.566 263.062 C 111.660 252.301,104.902 248.650,89.202 249.900 " stroke="none" fill="#fbda82" fill-rule="evenodd"></path><path id="path4" d="M226.654 77.065 C 223.757 80.541,221.532 83.514,221.711 83.671 C 221.891 83.828,224.452 84.852,227.403 85.947 C 257.161 96.984,292.620 126.680,306.068 151.825 L 308.248 155.900 310.513 153.086 C 311.758 151.539,314.018 148.670,315.533 146.711 C 317.049 144.752,318.662 142.746,319.120 142.253 L 319.951 141.357 318.425 138.549 C 302.258 108.804,263.680 78.322,232.906 70.979 C 231.997 70.762,231.525 71.222,226.654 77.065 M313.972 131.825 C 315.037 133.436,316.693 136.230,317.653 138.034 L 319.399 141.313 316.689 144.638 C 315.198 146.467,313.834 148.019,313.656 148.086 C 313.479 148.154,313.333 148.370,313.333 148.566 C 313.333 148.885,309.047 154.360,308.441 154.815 C 308.305 154.917,307.413 153.500,306.459 151.667 C 305.505 149.833,303.834 147.055,302.745 145.492 L 300.765 142.651 303.623 139.147 C 305.195 137.220,307.648 134.125,309.074 132.269 C 312.180 128.226,311.628 128.276,313.972 131.825 M72.222 321.465 C 72.528 321.671,73.097 321.843,73.488 321.846 C 74.435 321.854,74.140 321.642,72.778 321.337 C 71.966 321.156,71.816 321.190,72.222 321.465 M86.160 326.578 C 87.206 327.176,88.540 327.997,89.123 328.402 C 90.678 329.479,91.441 329.811,90.377 328.947 C 89.155 327.955,85.928 326.021,85.000 325.726 C 84.593 325.596,85.115 325.980,86.160 326.578 M69.835 331.317 C 69.696 332.060,69.656 332.742,69.746 332.833 C 69.837 332.923,70.025 332.389,70.165 331.646 C 70.304 330.903,70.344 330.221,70.254 330.130 C 70.163 330.040,69.975 330.574,69.835 331.317 M93.889 332.222 C 95.098 333.444,96.171 334.444,96.273 334.444 C 96.375 334.444,95.469 333.444,94.259 332.222 C 93.050 331.000,91.977 330.000,91.875 330.000 C 91.773 330.000,92.679 331.000,93.889 332.222 M100.026 340.556 C 100.026 340.759,100.264 341.343,100.556 341.852 C 100.847 342.361,101.085 342.611,101.085 342.407 C 101.085 342.204,100.847 341.620,100.556 341.111 C 100.264 340.602,100.026 340.352,100.026 340.556 M64.530 360.370 C 64.530 361.083,64.607 361.375,64.700 361.019 C 64.793 360.662,64.793 360.079,64.700 359.722 C 64.607 359.366,64.530 359.657,64.530 360.370 M64.125 362.836 C 64.080 363.878,64.165 363.980,64.907 363.777 C 65.555 363.599,65.601 363.519,65.115 363.418 C 64.771 363.346,64.419 362.923,64.332 362.477 C 64.220 361.900,64.160 362.004,64.125 362.836 " stroke="none" fill="#1d86ae" fill-rule="evenodd"></path><path id="path5" d="M243.704 74.382 C 244.009 74.571,244.676 74.837,245.185 74.973 C 245.829 75.145,245.942 75.116,245.556 74.877 C 245.250 74.689,244.583 74.423,244.074 74.286 C 243.431 74.114,243.318 74.143,243.704 74.382 M247.037 75.741 C 247.546 76.032,248.130 76.270,248.333 76.270 C 248.537 76.270,248.287 76.032,247.778 75.741 C 247.269 75.450,246.685 75.211,246.481 75.211 C 246.278 75.211,246.528 75.450,247.037 75.741 M258.148 80.907 C 258.148 81.009,258.648 81.351,259.259 81.667 C 259.870 81.983,260.370 82.158,260.370 82.056 C 260.370 81.954,259.870 81.612,259.259 81.296 C 258.648 80.980,258.148 80.805,258.148 80.907 M234.444 89.074 C 234.954 89.365,235.537 89.603,235.741 89.603 C 235.944 89.603,235.694 89.365,235.185 89.074 C 234.676 88.783,234.093 88.545,233.889 88.545 C 233.685 88.545,233.935 88.783,234.444 89.074 M290.370 104.259 C 291.061 104.972,291.710 105.556,291.812 105.556 C 291.914 105.556,291.432 104.972,290.741 104.259 C 290.050 103.546,289.401 102.963,289.299 102.963 C 289.197 102.963,289.679 103.546,290.370 104.259 M274.815 115.301 C 274.815 115.365,275.356 115.906,276.019 116.505 L 277.222 117.593 276.134 116.389 C 275.120 115.267,274.815 115.015,274.815 115.301 M280.556 120.741 C 281.971 122.167,283.212 123.333,283.313 123.333 C 283.415 123.333,282.341 122.167,280.926 120.741 C 279.511 119.315,278.270 118.148,278.168 118.148 C 278.066 118.148,279.141 119.315,280.556 120.741 M286.667 126.852 C 288.389 128.583,289.882 130.000,289.984 130.000 C 290.085 130.000,288.760 128.583,287.037 126.852 C 285.315 125.120,283.822 123.704,283.720 123.704 C 283.618 123.704,284.944 125.120,286.667 126.852 M311.574 129.184 C 311.218 129.550,309.926 131.150,308.704 132.741 C 304.194 138.609,300.634 142.774,300.230 142.654 C 300.002 142.586,299.954 142.670,300.123 142.840 C 300.293 143.009,300.613 143.148,300.833 143.148 C 301.054 143.148,301.312 143.380,301.406 143.663 C 301.520 144.006,301.419 144.079,301.102 143.883 C 300.788 143.689,300.717 143.736,300.894 144.023 C 301.042 144.261,301.308 144.366,301.487 144.256 C 302.109 143.871,306.158 150.435,305.728 151.131 C 305.603 151.334,305.721 151.454,305.991 151.398 C 306.286 151.337,306.471 151.621,306.454 152.111 C 306.439 152.559,306.567 152.839,306.739 152.733 C 307.078 152.523,308.122 154.717,307.984 155.351 C 307.937 155.565,307.969 155.615,308.055 155.461 C 308.141 155.307,308.342 155.261,308.501 155.359 C 308.660 155.458,309.104 155.170,309.488 154.720 C 310.068 154.039,310.076 153.986,309.537 154.404 C 309.181 154.680,308.889 154.739,308.889 154.535 C 308.889 154.065,309.820 153.277,310.074 153.531 C 310.180 153.636,310.910 152.927,311.697 151.954 C 312.485 150.981,312.842 150.414,312.490 150.693 C 311.598 151.404,311.688 150.633,312.593 149.815 C 313.000 149.446,313.333 148.920,313.333 148.646 C 313.333 148.202,313.780 147.993,314.512 148.096 C 314.807 148.137,318.519 143.545,318.519 143.139 C 318.519 142.989,317.662 143.975,316.615 145.331 C 315.568 146.688,314.635 147.721,314.541 147.628 C 314.274 147.361,318.564 142.206,318.887 142.406 C 319.045 142.504,319.397 142.295,319.668 141.940 C 319.939 141.586,320.031 141.404,319.873 141.535 C 319.507 141.838,315.856 134.858,316.140 134.398 C 316.256 134.210,316.151 134.102,315.907 134.157 C 315.663 134.213,315.379 134.028,315.276 133.745 C 315.151 133.400,315.246 133.327,315.565 133.524 C 315.879 133.718,315.949 133.671,315.772 133.385 C 315.625 133.146,315.358 133.042,315.178 133.152 C 314.999 133.263,314.677 133.027,314.463 132.627 C 313.957 131.682,313.970 131.374,314.502 131.702 C 314.769 131.867,314.829 131.803,314.661 131.533 C 314.514 131.294,314.251 131.187,314.077 131.295 C 313.903 131.402,313.414 131.004,312.991 130.410 C 312.134 129.207,312.004 128.710,312.650 129.109 C 312.915 129.273,312.977 129.211,312.813 128.946 C 312.462 128.378,312.336 128.402,311.574 129.184 M290.370 130.857 C 290.370 130.920,290.912 131.462,291.574 132.060 L 292.778 133.148 291.690 131.944 C 290.676 130.822,290.370 130.570,290.370 130.857 M317.963 137.778 C 318.479 138.796,318.985 139.630,319.087 139.630 C 319.188 139.630,318.849 138.796,318.333 137.778 C 317.817 136.759,317.312 135.926,317.210 135.926 C 317.108 135.926,317.447 136.759,317.963 137.778 M302.812 146.759 C 303.564 147.931,304.248 148.889,304.333 148.889 C 304.581 148.889,303.241 146.742,302.306 145.642 C 301.832 145.085,302.060 145.588,302.812 146.759 M311.096 152.244 C 310.652 152.866,310.196 153.282,310.082 153.168 C 309.893 152.979,311.413 151.111,311.756 151.111 C 311.837 151.111,311.539 151.621,311.096 152.244 M72.141 321.505 C 71.662 321.784,71.562 322.162,71.736 323.032 C 71.900 323.850,71.844 324.113,71.545 323.928 C 71.245 323.743,71.191 324.012,71.360 324.854 C 71.528 325.696,71.474 325.965,71.175 325.780 C 70.875 325.595,70.821 325.864,70.989 326.706 C 71.158 327.548,71.104 327.817,70.804 327.632 C 70.506 327.447,70.444 327.730,70.592 328.593 C 70.757 329.549,70.713 329.694,70.388 329.259 C 70.068 328.831,70.024 329.043,70.199 330.185 C 70.369 331.294,70.326 331.527,70.028 331.111 C 69.729 330.692,69.690 330.866,69.873 331.817 C 70.059 332.781,70.006 333.010,69.648 332.789 C 69.289 332.568,69.242 332.782,69.444 333.704 C 69.642 334.603,69.595 334.837,69.259 334.630 C 68.924 334.423,68.873 334.670,69.057 335.602 C 69.250 336.579,69.212 336.731,68.884 336.296 C 68.557 335.865,68.514 336.071,68.690 337.222 C 68.831 338.144,68.791 338.518,68.585 338.211 C 68.203 337.645,68.294 337.263,66.498 347.037 C 65.806 350.806,65.335 354.372,65.451 354.962 C 65.602 355.727,65.538 355.959,65.230 355.769 C 64.912 355.572,64.864 355.916,65.048 357.066 C 65.228 358.196,65.180 358.559,64.876 358.371 C 64.570 358.182,64.520 358.593,64.692 359.854 C 64.884 361.250,64.833 361.537,64.440 361.293 C 64.078 361.070,64.014 361.160,64.196 361.636 C 64.333 361.992,64.444 362.507,64.444 362.781 C 64.444 364.130,65.097 363.932,82.593 357.293 C 99.678 350.810,100.914 350.319,101.160 349.920 C 101.291 349.708,101.550 349.628,101.736 349.743 C 101.921 349.857,102.297 349.812,102.572 349.642 C 103.153 349.283,101.820 343.031,101.063 342.563 C 100.832 342.420,100.775 342.096,100.936 341.836 C 101.114 341.547,101.076 341.459,100.837 341.607 C 100.397 341.879,99.887 340.853,100.206 340.337 C 100.320 340.152,100.228 340.000,100.000 340.000 C 99.772 340.000,99.689 339.833,99.815 339.630 C 99.941 339.426,99.857 339.259,99.630 339.259 C 99.402 339.259,99.319 339.093,99.444 338.889 C 99.570 338.685,99.469 338.519,99.219 338.519 C 98.970 338.519,98.874 338.410,99.007 338.277 C 99.139 338.145,98.959 337.799,98.605 337.509 C 98.252 337.219,98.204 337.108,98.499 337.262 C 98.812 337.425,98.687 337.053,98.196 336.363 C 97.734 335.715,97.265 335.185,97.152 335.185 C 97.039 335.185,97.175 335.477,97.455 335.833 C 97.911 336.416,97.900 336.432,97.337 335.991 C 96.992 335.722,96.787 335.303,96.880 335.061 C 96.973 334.818,95.921 333.539,94.543 332.217 L 92.037 329.815 94.074 332.060 C 95.464 333.592,95.236 333.415,93.355 331.504 C 91.838 329.964,90.734 328.929,90.899 329.204 C 91.143 329.609,91.051 329.624,90.415 329.283 C 89.983 329.052,89.630 328.776,89.630 328.669 C 89.630 328.562,89.822 328.594,90.057 328.739 C 90.316 328.899,90.385 328.841,90.231 328.592 C 90.091 328.366,89.748 328.268,89.470 328.375 C 89.192 328.482,88.838 328.365,88.684 328.116 C 88.493 327.808,88.558 327.759,88.889 327.963 C 89.203 328.157,89.284 328.118,89.119 327.851 C 88.980 327.625,88.637 327.527,88.359 327.634 C 88.081 327.741,87.727 327.624,87.573 327.375 C 87.382 327.067,87.447 327.018,87.778 327.222 C 88.092 327.416,88.173 327.377,88.008 327.110 C 87.868 326.884,87.482 326.803,87.150 326.931 C 86.713 327.098,86.629 327.027,86.848 326.672 C 87.048 326.350,87.008 326.270,86.733 326.441 C 86.502 326.583,85.852 326.432,85.287 326.104 C 84.722 325.776,84.560 325.600,84.927 325.713 C 85.346 325.842,85.503 325.770,85.348 325.519 C 85.212 325.300,84.793 325.201,84.415 325.300 C 84.038 325.399,83.765 325.305,83.809 325.092 C 83.918 324.565,77.398 322.217,76.528 322.470 C 76.046 322.610,75.918 322.534,76.111 322.222 C 76.311 321.899,76.167 321.843,75.602 322.022 C 75.143 322.168,74.815 322.111,74.815 321.886 C 74.815 321.650,74.360 321.591,73.646 321.734 C 72.811 321.901,72.553 321.845,72.742 321.539 C 73.060 321.025,72.973 321.020,72.141 321.505 " stroke="none" fill="#206486" fill-rule="evenodd"></path><path id="path6" d="M277.870 24.329 C 278.227 24.423,278.810 24.423,279.167 24.329 C 279.523 24.236,279.231 24.160,278.519 24.160 C 277.806 24.160,277.514 24.236,277.870 24.329 M261.389 39.655 C 260.625 40.058,260.000 40.471,260.000 40.572 C 260.000 40.737,262.925 39.370,263.302 39.029 C 263.729 38.643,262.616 39.007,261.389 39.655 M294.444 39.444 C 294.954 39.736,295.537 39.974,295.741 39.974 C 295.944 39.974,295.694 39.736,295.185 39.444 C 294.676 39.153,294.093 38.915,293.889 38.915 C 293.685 38.915,293.935 39.153,294.444 39.444 M297.037 40.556 C 297.546 40.847,298.130 41.085,298.333 41.085 C 298.537 41.085,298.287 40.847,297.778 40.556 C 297.269 40.264,296.685 40.026,296.481 40.026 C 296.278 40.026,296.528 40.264,297.037 40.556 M252.764 46.389 L 250.926 48.333 252.870 46.495 C 254.677 44.788,254.985 44.444,254.708 44.444 C 254.650 44.444,253.775 45.319,252.764 46.389 M308.704 46.859 C 309.111 47.190,309.778 47.625,310.185 47.825 L 310.926 48.189 310.185 47.586 C 309.778 47.254,309.111 46.819,308.704 46.619 L 307.963 46.255 308.704 46.859 M246.834 52.685 L 245.370 54.259 246.944 52.795 C 248.408 51.434,248.689 51.111,248.408 51.111 C 248.348 51.111,247.640 51.819,246.834 52.685 M317.522 52.849 C 317.834 53.353,320.741 55.699,320.741 55.446 C 320.741 55.352,319.957 54.632,318.999 53.847 C 318.041 53.062,317.376 52.613,317.522 52.849 M328.142 62.315 C 331.747 66.013,332.222 66.465,332.222 66.197 C 332.222 66.143,330.431 64.351,328.241 62.216 L 324.259 58.333 328.142 62.315 M253.333 66.481 C 253.843 66.773,254.426 67.011,254.630 67.011 C 254.833 67.011,254.583 66.773,254.074 66.481 C 253.565 66.190,252.981 65.952,252.778 65.952 C 252.574 65.952,252.824 66.190,253.333 66.481 M337.421 73.148 C 337.423 73.352,337.765 73.935,338.181 74.444 C 338.684 75.059,338.810 75.122,338.556 74.630 C 337.931 73.422,337.419 72.752,337.421 73.148 M278.519 80.505 C 278.519 80.607,279.019 81.046,279.630 81.481 C 280.241 81.917,280.741 82.189,280.741 82.087 C 280.741 81.986,280.241 81.546,279.630 81.111 C 279.019 80.676,278.519 80.403,278.519 80.505 M344.530 91.111 C 344.530 91.824,344.607 92.116,344.700 91.759 C 344.793 91.403,344.793 90.819,344.700 90.463 C 344.607 90.106,344.530 90.398,344.530 91.111 M344.944 95.926 C 344.944 97.657,345.008 98.366,345.086 97.500 C 345.164 96.634,345.164 95.218,345.086 94.352 C 345.008 93.486,344.944 94.194,344.944 95.926 M211.643 94.537 L 210.556 95.741 211.759 94.653 C 212.421 94.055,212.963 93.513,212.963 93.449 C 212.963 93.163,212.657 93.415,211.643 94.537 M228.519 98.148 C 229.231 98.538,229.981 98.858,230.185 98.858 C 230.389 98.858,229.972 98.538,229.259 98.148 C 228.546 97.758,227.796 97.438,227.593 97.438 C 227.389 97.438,227.806 97.758,228.519 98.148 M303.704 101.597 C 303.704 101.661,304.245 102.203,304.907 102.801 L 306.111 103.889 305.023 102.685 C 304.009 101.563,303.704 101.311,303.704 101.597 M308.889 107.153 C 308.889 107.217,309.431 107.758,310.093 108.357 L 311.296 109.444 310.208 108.241 C 309.194 107.119,308.889 106.867,308.889 107.153 M339.259 115.185 C 338.844 116.000,338.587 116.667,338.689 116.667 C 338.791 116.667,339.214 116.000,339.630 115.185 C 340.045 114.370,340.302 113.704,340.200 113.704 C 340.098 113.704,339.675 114.370,339.259 115.185 M270.185 125.926 C 270.981 126.741,271.715 127.407,271.817 127.407 C 271.919 127.407,271.351 126.741,270.556 125.926 C 269.760 125.111,269.026 124.444,268.924 124.444 C 268.822 124.444,269.390 125.111,270.185 125.926 M331.643 126.545 C 331.073 127.293,330.795 127.788,331.027 127.645 C 331.501 127.352,333.104 125.185,332.847 125.185 C 332.755 125.185,332.214 125.797,331.643 126.545 M325.138 127.963 C 325.338 128.370,325.773 129.037,326.104 129.444 L 326.708 130.185 326.344 129.444 C 326.144 129.037,325.709 128.370,325.377 127.963 L 324.774 127.222 325.138 127.963 M277.778 133.148 C 278.469 133.861,279.118 134.444,279.219 134.444 C 279.321 134.444,278.839 133.861,278.148 133.148 C 277.457 132.435,276.808 131.852,276.707 131.852 C 276.605 131.852,277.087 132.435,277.778 133.148 M268.682 222.007 C 268.287 222.296,268.062 222.630,268.182 222.750 C 268.302 222.870,268.702 222.633,269.072 222.224 C 269.859 221.355,269.697 221.265,268.682 222.007 M256.707 236.688 C 256.220 237.094,255.899 237.504,255.995 237.600 C 256.091 237.696,256.561 237.359,257.038 236.850 C 258.078 235.744,257.928 235.671,256.707 236.688 M95.278 239.515 C 95.634 239.608,96.218 239.608,96.574 239.515 C 96.931 239.421,96.639 239.345,95.926 239.345 C 95.213 239.345,94.921 239.421,95.278 239.515 M99.722 239.515 C 100.079 239.608,100.662 239.608,101.019 239.515 C 101.375 239.421,101.083 239.345,100.370 239.345 C 99.657 239.345,99.366 239.421,99.722 239.515 M114.815 244.560 C 114.815 244.624,115.356 245.166,116.019 245.764 L 117.222 246.852 116.134 245.648 C 115.120 244.526,114.815 244.274,114.815 244.560 M93.796 249.515 C 94.153 249.608,94.736 249.608,95.093 249.515 C 95.449 249.421,95.157 249.345,94.444 249.345 C 93.731 249.345,93.440 249.421,93.796 249.515 M108.519 253.079 C 108.519 253.143,109.060 253.684,109.722 254.283 L 110.926 255.370 109.838 254.167 C 108.824 253.045,108.519 252.793,108.519 253.079 M236.354 261.759 C 235.674 262.421,235.267 262.963,235.452 262.963 C 235.837 262.963,237.990 260.798,237.751 260.652 C 237.664 260.599,237.035 261.097,236.354 261.759 M146.667 268.333 C 147.358 269.046,148.006 269.630,148.108 269.630 C 148.210 269.630,147.728 269.046,147.037 268.333 C 146.346 267.620,145.697 267.037,145.595 267.037 C 145.494 267.037,145.976 267.620,146.667 268.333 M115.836 269.537 C 116.316 269.995,116.990 270.360,117.335 270.347 C 117.753 270.331,117.655 270.201,117.045 269.957 C 116.540 269.756,115.865 269.391,115.545 269.147 C 115.225 268.903,115.356 269.079,115.836 269.537 M123.056 270.270 C 123.819 270.350,125.069 270.350,125.833 270.270 C 126.597 270.190,125.972 270.125,124.444 270.125 C 122.917 270.125,122.292 270.190,123.056 270.270 M139.985 275.648 C 141.519 277.283,141.852 277.577,141.852 277.299 C 141.852 277.240,141.060 276.448,140.093 275.540 L 138.333 273.889 139.985 275.648 M222.478 278.680 C 222.081 278.981,221.960 279.282,222.181 279.419 C 222.387 279.546,222.736 279.312,222.957 278.899 C 223.427 278.022,223.377 277.998,222.478 278.680 M145.072 282.403 C 145.411 283.113,145.754 283.629,145.834 283.548 C 146.004 283.379,144.880 281.111,144.626 281.111 C 144.533 281.111,144.734 281.692,145.072 282.403 M219.630 282.330 C 218.605 283.571,218.036 284.444,218.253 284.444 C 218.487 284.444,220.826 281.441,220.685 281.321 C 220.614 281.259,220.139 281.713,219.630 282.330 M170.741 293.802 C 170.741 293.883,171.449 294.513,172.315 295.201 C 173.181 295.889,173.654 296.159,173.366 295.801 C 172.825 295.127,170.741 293.540,170.741 293.802 M149.578 297.756 C 150.059 298.175,150.628 298.519,150.844 298.519 C 151.299 298.519,151.277 298.500,149.815 297.644 L 148.704 296.993 149.578 297.756 M152.134 298.780 C 152.595 298.869,153.261 298.866,153.615 298.773 C 153.970 298.680,153.593 298.608,152.778 298.612 C 151.963 298.616,151.673 298.692,152.134 298.780 M76.132 300.576 C 75.992 301.319,75.952 302.002,76.043 302.092 C 76.133 302.183,76.321 301.649,76.461 300.905 C 76.600 300.162,76.640 299.480,76.550 299.389 C 76.459 299.299,76.271 299.833,76.132 300.576 M202.365 303.964 C 201.580 304.922,201.131 305.587,201.368 305.441 C 201.872 305.129,204.217 302.222,203.965 302.222 C 203.870 302.222,203.151 303.006,202.365 303.964 M98.519 321.583 C 98.519 321.639,99.810 322.931,101.389 324.454 L 104.259 327.222 101.491 324.352 C 98.919 321.686,98.519 321.312,98.519 321.583 M164.074 323.519 C 163.565 323.810,163.315 324.048,163.519 324.048 C 163.722 324.048,164.306 323.810,164.815 323.519 C 165.324 323.227,165.574 322.989,165.370 322.989 C 165.167 322.989,164.583 323.227,164.074 323.519 M105.347 329.011 C 105.918 329.759,106.459 330.370,106.551 330.370 C 106.808 330.370,105.205 328.204,104.730 327.911 C 104.499 327.768,104.777 328.263,105.347 329.011 M173.981 331.323 C 172.597 332.074,172.681 332.387,174.074 331.667 C 174.685 331.351,175.185 331.013,175.185 330.916 C 175.185 330.678,175.145 330.692,173.981 331.323 M154.167 339.811 C 153.505 340.099,152.963 340.417,152.963 340.518 C 152.963 340.805,155.161 339.968,155.393 339.593 C 155.652 339.173,155.623 339.178,154.167 339.811 M112.103 343.704 C 112.339 345.715,112.672 346.139,113.575 345.576 C 114.211 345.180,114.205 345.165,113.489 345.358 C 112.822 345.538,112.664 345.329,112.313 343.801 L 111.907 342.037 112.103 343.704 M115.185 344.630 C 114.676 344.921,114.426 345.159,114.630 345.159 C 114.833 345.159,115.417 344.921,115.926 344.630 C 116.435 344.339,116.685 344.100,116.481 344.100 C 116.278 344.100,115.694 344.339,115.185 344.630 M53.704 372.338 C 53.704 372.402,54.245 372.944,54.907 373.542 L 56.111 374.630 55.023 373.426 C 54.009 372.304,53.704 372.052,53.704 372.338 " stroke="none" fill="#4b5023" fill-rule="evenodd"></path><path id="path7" d="M92.875 239.521 C 93.335 239.610,94.002 239.606,94.356 239.514 C 94.710 239.421,94.333 239.349,93.519 239.353 C 92.704 239.357,92.414 239.433,92.875 239.521 M126.389 260.265 C 126.949 260.350,127.866 260.350,128.426 260.265 C 128.986 260.180,128.528 260.111,127.407 260.111 C 126.287 260.111,125.829 260.180,126.389 260.265 M173.704 296.042 C 173.704 296.106,174.245 296.647,174.907 297.246 L 176.111 298.333 175.023 297.130 C 174.009 296.008,173.704 295.756,173.704 296.042 " stroke="none" fill="#8a7816" fill-rule="evenodd"></path><path id="path8" d="M96.759 239.159 C 97.523 239.239,98.773 239.239,99.537 239.159 C 100.301 239.079,99.676 239.013,98.148 239.013 C 96.620 239.013,95.995 239.079,96.759 239.159 M147.222 268.519 C 148.018 269.333,148.752 270.000,148.854 270.000 C 148.956 270.000,148.388 269.333,147.593 268.519 C 146.797 267.704,146.063 267.037,145.961 267.037 C 145.859 267.037,146.427 267.704,147.222 268.519 M166.111 303.704 C 166.907 304.519,167.641 305.185,167.743 305.185 C 167.845 305.185,167.277 304.519,166.481 303.704 C 165.686 302.889,164.952 302.222,164.850 302.222 C 164.748 302.222,165.315 302.889,166.111 303.704 M181.140 311.574 C 181.124 311.931,181.257 312.222,181.436 312.222 C 181.615 312.222,181.990 311.931,182.269 311.574 C 182.724 310.995,182.713 310.977,182.166 311.404 C 181.665 311.795,181.518 311.795,181.362 311.404 C 181.239 311.100,181.159 311.162,181.140 311.574 M109.517 335.736 C 109.856 336.446,110.199 336.962,110.279 336.882 C 110.448 336.712,109.324 334.444,109.071 334.444 C 108.977 334.444,109.178 335.026,109.517 335.736 " stroke="none" fill="#a69c25" fill-rule="evenodd"></path></g></svg>