<svg id="svg" version="1.1" xmlns="http://www.w3.org/2000/svg" xmlns:xlink="http://www.w3.org/1999/xlink" width="400" height="400" viewBox="0, 0, 400,400"><g id="svgg"><path id="path0" d="M315.430 85.601 C 311.133 87.114,299.619 91.167,289.844 94.607 C 280.068 98.048,263.896 103.806,253.906 107.404 C 243.916 111.001,232.139 115.217,227.734 116.773 C 207.899 123.780,209.309 119.701,209.790 168.686 C 210.216 212.091,209.673 208.012,215.891 214.524 C 221.713 220.620,222.928 222.381,224.382 226.825 C 225.334 229.737,225.853 230.036,227.566 228.660 C 231.040 225.871,233.760 224.211,236.779 223.039 C 243.993 220.237,276.524 209.343,278.748 208.983 C 288.414 207.420,295.859 215.945,292.552 224.786 C 290.810 229.440,286.603 232.083,274.609 236.059 C 271.064 237.234,265.264 239.290,261.719 240.629 C 245.464 246.764,240.127 248.218,236.145 247.594 C 230.566 246.719,227.397 243.956,225.609 238.409 C 224.339 234.470,224.662 234.301,217.609 242.578 C 212.502 248.572,212.124 250.169,213.265 260.938 C 213.481 262.979,213.661 266.083,213.665 267.837 C 213.690 279.397,216.663 281.304,229.973 278.297 C 238.495 276.372,239.231 276.445,243.609 279.639 C 247.693 282.619,249.581 282.462,254.492 278.735 C 258.872 275.410,259.071 275.348,265.443 275.267 L 271.057 275.195 275.420 272.924 C 278.611 271.263,280.730 270.450,283.310 269.899 C 287.521 268.999,289.009 268.159,293.279 264.270 C 296.164 261.642,297.342 260.915,304.022 257.638 C 314.970 252.267,318.457 249.365,319.742 244.556 C 320.061 243.361,320.857 241.368,321.510 240.127 C 323.889 235.609,324.733 230.358,325.167 217.383 C 325.289 213.730,325.666 208.281,326.004 205.273 C 326.756 198.588,327.140 187.335,328.508 131.836 C 329.031 110.655,329.021 87.732,328.488 85.814 C 327.420 81.969,325.821 81.943,315.430 85.601 M306.472 122.840 C 316.007 125.685,315.593 137.696,305.797 142.449 C 297.876 146.292,243.774 164.139,239.343 164.371 C 226.210 165.057,223.265 150.720,235.352 144.935 C 236.641 144.318,242.529 142.145,248.438 140.106 C 254.346 138.067,267.604 133.478,277.899 129.908 C 302.080 121.524,302.068 121.527,306.472 122.840 M308.403 162.475 C 315.170 165.410,316.415 175.003,310.683 180.049 C 307.815 182.573,295.864 187.253,277.148 193.180 C 273.926 194.200,264.961 197.227,257.227 199.906 C 241.384 205.392,238.161 206.033,234.139 204.497 C 226.806 201.697,225.122 192.619,230.941 187.256 C 233.365 185.022,235.442 184.140,251.518 178.524 C 259.384 175.776,267.754 172.811,270.117 171.935 C 297.094 161.937,303.507 160.352,308.403 162.475 " stroke="none" fill="#42bac2" fill-rule="evenodd"></path><path id="path1" d="M74.337 82.796 C 71.939 83.820,71.743 99.075,72.483 226.953 C 72.760 274.994,72.509 273.313,79.993 277.105 C 83.168 278.714,113.925 289.773,152.930 303.330 C 169.391 309.051,179.053 312.422,180.811 313.055 C 187.199 315.359,187.393 314.652,187.464 288.828 C 187.511 271.919,187.296 271.360,182.227 275.239 C 171.027 283.810,161.534 278.735,160.586 263.672 C 160.040 255.005,160.194 255.089,144.816 255.051 C 114.417 254.978,111.004 254.124,108.224 245.898 C 106.414 240.543,106.650 214.264,108.546 209.977 C 111.590 203.097,113.910 202.494,138.672 202.151 C 161.909 201.830,160.624 202.341,161.300 193.135 C 162.347 178.886,171.401 174.533,181.971 183.198 C 185.886 186.408,187.399 186.711,188.380 184.483 C 189.256 182.492,189.056 130.425,188.163 127.863 C 186.097 121.944,187.063 122.386,133.594 102.918 C 121.025 98.342,103.482 91.942,94.607 88.695 C 78.633 82.850,76.003 82.085,74.337 82.796 " stroke="none" fill="#fbb13f" fill-rule="evenodd"></path><path id="path2" d="M328.906 52.760 C 326.113 53.252,326.702 53.057,307.422 59.844 C 254.631 78.427,207.689 95.247,202.539 97.427 C 199.377 98.765,198.258 98.696,194.039 96.904 C 192.054 96.060,182.871 92.615,173.633 89.249 C 70.492 51.660,73.604 52.734,67.843 52.734 C 55.823 52.734,48.089 59.671,46.496 71.881 C 46.187 74.252,46.099 103.504,46.189 174.609 L 46.315 274.023 47.171 277.472 C 49.044 285.022,53.530 292.033,59.243 296.337 C 64.517 300.312,64.936 300.487,109.180 317.179 C 119.922 321.232,131.523 325.631,134.961 326.954 C 140.877 329.232,174.789 342.074,183.583 345.367 C 198.174 350.830,199.342 350.663,232.813 338.305 C 262.094 327.494,276.696 322.151,304.883 311.935 C 337.630 300.065,339.559 299.185,345.090 293.614 C 351.892 286.762,354.491 280.811,355.460 269.870 C 356.012 263.628,356.002 79.616,355.449 74.162 C 353.874 58.635,343.422 50.207,328.906 52.760 M346.765 75.678 C 346.675 76.272,346.599 75.879,346.596 74.805 C 346.593 73.730,346.667 73.245,346.759 73.725 C 346.852 74.206,346.854 75.084,346.765 75.678 M77.743 76.505 C 79.135 76.903,87.744 79.962,96.875 83.303 C 106.006 86.643,127.451 94.477,144.531 100.711 C 161.611 106.945,177.020 112.577,178.772 113.226 C 188.330 116.767,192.303 120.307,194.399 127.148 C 195.502 130.748,195.508 189.808,194.406 192.665 C 192.182 198.427,188.311 197.989,181.166 191.166 C 172.129 182.535,168.217 183.548,167.540 194.696 C 167.047 202.805,166.067 205.161,162.365 207.139 C 160.767 207.993,160.430 208.010,140.430 208.249 C 111.386 208.597,113.477 207.024,113.477 228.516 C 113.477 249.595,111.869 248.417,140.641 248.430 C 165.951 248.441,166.504 248.692,167.236 260.489 C 168.026 273.241,171.660 274.952,180.416 266.697 C 186.986 260.503,189.971 259.424,192.778 262.231 C 194.945 264.399,194.953 264.516,194.835 292.075 L 194.727 317.383 193.750 319.316 C 190.880 324.996,190.204 324.898,163.100 314.845 C 152.780 311.017,135.635 304.689,125.000 300.783 C 69.847 280.524,73.225 282.000,69.585 276.550 C 66.332 271.679,66.602 280.839,66.602 175.185 L 66.602 81.424 67.588 79.508 C 69.383 76.020,72.659 75.051,77.743 76.505 M331.511 77.252 C 332.190 77.735,333.156 78.964,333.658 79.983 L 334.570 81.836 334.475 155.859 C 334.334 265.238,334.257 269.307,332.251 273.689 C 329.435 279.840,327.609 280.725,289.648 294.341 C 278.094 298.486,268.876 301.831,246.875 309.862 C 209.343 323.563,209.768 323.453,206.834 320.252 C 204.584 317.796,204.630 318.440,204.276 283.789 C 203.865 243.462,203.487 246.147,210.685 238.177 C 218.733 229.265,218.754 227.470,210.910 218.945 C 203.191 210.555,203.833 215.120,203.766 168.212 C 203.691 115.331,201.623 119.874,230.462 109.574 C 238.085 106.851,248.895 102.981,254.485 100.974 C 263.226 97.836,313.327 80.167,321.875 77.208 C 325.675 75.893,329.628 75.911,331.511 77.252 M346.760 82.520 C 346.667 83.003,346.591 82.607,346.591 81.641 C 346.591 80.674,346.667 80.278,346.760 80.762 C 346.853 81.245,346.853 82.036,346.760 82.520 M346.754 101.074 C 346.655 101.450,346.575 101.143,346.575 100.391 C 346.575 99.639,346.655 99.331,346.754 99.707 C 346.852 100.083,346.852 100.698,346.754 101.074 M346.754 104.590 C 346.655 104.966,346.575 104.658,346.575 103.906 C 346.575 103.154,346.655 102.847,346.754 103.223 C 346.852 103.599,346.852 104.214,346.754 104.590 M298.633 128.986 C 297.988 129.211,291.924 131.289,285.156 133.605 C 278.389 135.921,268.281 139.429,262.695 141.400 C 257.109 143.372,249.727 145.957,246.289 147.146 C 235.833 150.761,233.416 152.601,234.785 155.907 C 235.713 158.146,238.585 158.753,242.930 157.627 C 247.656 156.402,300.552 138.031,303.112 136.726 C 309.857 133.284,305.903 126.451,298.633 128.986 M346.760 164.941 C 346.667 165.425,346.591 165.029,346.591 164.063 C 346.591 163.096,346.667 162.700,346.760 163.184 C 346.853 163.667,346.853 164.458,346.760 164.941 M289.844 171.836 C 261.244 181.412,238.753 189.420,236.909 190.683 C 232.231 193.889,234.717 199.119,240.507 198.251 C 241.484 198.104,249.952 195.347,259.325 192.124 C 268.698 188.900,280.498 184.853,285.547 183.129 C 305.811 176.210,307.978 174.951,306.633 170.877 C 305.466 167.339,302.824 167.490,289.844 171.836 M346.770 175.488 C 346.688 176.401,346.621 175.654,346.621 173.828 C 346.621 172.002,346.688 171.255,346.770 172.168 C 346.853 173.081,346.853 174.575,346.770 175.488 M346.754 181.934 C 346.655 182.310,346.575 182.002,346.575 181.250 C 346.575 180.498,346.655 180.190,346.754 180.566 C 346.852 180.942,346.852 181.558,346.754 181.934 M346.754 196.387 C 346.655 196.763,346.575 196.455,346.575 195.703 C 346.575 194.951,346.655 194.644,346.754 195.020 C 346.852 195.396,346.852 196.011,346.754 196.387 M183.707 205.895 C 184.727 206.402,188.139 209.555,192.690 214.196 C 206.182 227.954,206.213 228.284,195.172 239.929 C 182.406 253.393,179.421 254.416,176.403 246.360 C 175.076 242.818,174.185 241.652,171.970 240.561 L 170.117 239.648 149.023 239.453 C 125.970 239.240,126.288 239.273,124.168 236.858 C 121.638 233.975,121.031 224.620,123.141 221.030 C 125.529 216.968,126.617 216.797,150.001 216.797 C 173.722 216.797,173.482 216.856,176.126 210.352 C 178.190 205.272,180.143 204.124,183.707 205.895 M346.764 214.355 C 346.675 214.946,346.601 214.463,346.601 213.281 C 346.601 212.100,346.675 211.616,346.764 212.207 C 346.854 212.798,346.854 213.765,346.764 214.355 M276.953 216.556 C 275.094 217.073,259.656 222.359,246.841 226.867 C 234.869 231.079,232.478 233.064,234.552 237.074 C 236.034 239.939,239.420 239.869,248.450 236.784 C 280.384 225.874,282.987 224.842,284.398 222.528 C 287.010 218.243,282.862 214.916,276.953 216.556 M346.770 248.535 C 346.688 249.448,346.621 248.701,346.621 246.875 C 346.621 245.049,346.688 244.302,346.770 245.215 C 346.853 246.128,346.853 247.622,346.770 248.535 M346.754 252.637 C 346.655 253.013,346.575 252.705,346.575 251.953 C 346.575 251.201,346.655 250.894,346.754 251.270 C 346.852 251.646,346.852 252.261,346.754 252.637 M346.761 260.640 C 346.667 261.126,346.587 260.820,346.583 259.961 C 346.579 259.102,346.655 258.704,346.753 259.077 C 346.851 259.451,346.854 260.154,346.761 260.640 M346.764 270.605 C 346.675 271.196,346.601 270.713,346.601 269.531 C 346.601 268.350,346.675 267.866,346.764 268.457 C 346.854 269.048,346.854 270.015,346.764 270.605 " stroke="none" fill="#0b394b" fill-rule="evenodd"></path><path id="path3" d="M319.336 82.584 C 316.543 83.522,309.512 85.962,303.711 88.007 C 279.706 96.470,260.737 103.203,254.492 105.476 C 250.840 106.805,241.436 110.161,233.594 112.934 C 211.409 120.777,209.488 122.108,208.157 130.549 C 207.450 135.030,207.954 205.807,208.710 208.250 C 209.456 210.662,210.906 212.682,215.405 217.578 C 223.783 226.694,223.573 230.908,214.242 241.016 C 212.227 243.198,210.399 245.611,209.803 246.875 L 208.789 249.023 208.917 267.773 C 209.244 315.673,209.277 316.016,213.481 316.016 C 214.727 316.016,245.202 305.462,258.398 300.461 C 261.836 299.158,271.504 295.632,279.883 292.625 C 288.262 289.618,297.754 286.162,300.977 284.943 C 304.199 283.725,309.956 281.616,313.769 280.256 C 329.491 274.649,328.893 275.911,329.315 247.461 C 330.610 160.206,330.706 84.895,329.525 82.943 C 327.955 80.349,326.183 80.286,319.336 82.584 M327.318 83.568 C 329.059 85.309,329.357 97.402,328.508 131.836 C 327.140 187.335,326.756 198.588,326.004 205.273 C 325.666 208.281,325.289 213.730,325.167 217.383 C 324.733 230.358,323.889 235.609,321.510 240.127 C 320.857 241.368,320.061 243.361,319.742 244.556 C 318.457 249.365,314.970 252.267,304.022 257.638 C 297.342 260.915,296.164 261.642,293.279 264.270 C 289.009 268.159,287.521 268.999,283.310 269.899 C 280.730 270.450,278.611 271.263,275.420 272.924 L 271.057 275.195 265.443 275.267 C 259.071 275.348,258.872 275.410,254.492 278.735 C 249.581 282.462,247.693 282.619,243.609 279.639 C 239.231 276.445,238.495 276.372,229.973 278.297 C 216.663 281.304,213.690 279.397,213.665 267.837 C 213.661 266.083,213.481 262.979,213.265 260.938 C 212.124 250.169,212.502 248.572,217.609 242.578 C 224.662 234.301,224.339 234.470,225.609 238.409 C 227.397 243.956,230.566 246.719,236.145 247.594 C 240.127 248.218,245.464 246.764,261.719 240.629 C 265.264 239.290,271.064 237.234,274.609 236.059 C 286.603 232.083,290.810 229.440,292.552 224.786 C 295.859 215.945,288.414 207.420,278.748 208.983 C 276.524 209.343,243.993 220.237,236.779 223.039 C 233.760 224.211,231.040 225.871,227.566 228.660 C 225.853 230.036,225.334 229.737,224.382 226.825 C 222.928 222.381,221.713 220.620,215.891 214.524 C 209.673 208.012,210.216 212.091,209.790 168.686 C 209.309 119.701,207.899 123.780,227.734 116.773 C 232.139 115.217,243.916 111.001,253.906 107.404 C 263.896 103.806,280.068 98.048,289.844 94.607 C 299.619 91.167,311.133 87.114,315.430 85.601 C 323.835 82.642,326.018 82.268,327.318 83.568 M298.602 122.877 C 297.511 123.174,288.195 126.338,277.899 129.908 C 267.604 133.478,254.346 138.067,248.438 140.106 C 242.529 142.145,236.641 144.318,235.352 144.935 C 223.265 150.720,226.210 165.057,239.343 164.371 C 243.774 164.139,297.876 146.292,305.797 142.449 C 319.432 135.834,313.207 118.899,298.602 122.877 M306.990 124.983 C 313.801 128.476,312.374 137.351,304.439 140.860 C 298.280 143.584,244.285 161.947,240.795 162.504 C 231.260 164.027,225.938 154.890,232.767 148.721 C 235.416 146.327,232.219 147.526,284.570 129.299 C 301.368 123.451,303.285 123.082,306.990 124.983 M301.758 161.591 C 298.229 162.098,284.919 166.449,270.117 171.935 C 267.754 172.811,259.384 175.776,251.518 178.524 C 235.442 184.140,233.365 185.022,230.941 187.256 C 225.122 192.619,226.806 201.697,234.139 204.497 C 238.161 206.033,241.384 205.392,257.227 199.906 C 264.961 197.227,273.926 194.200,277.148 193.180 C 295.864 187.253,307.815 182.573,310.683 180.049 C 318.830 172.877,312.619 160.033,301.758 161.591 M307.238 164.754 C 313.875 168.156,312.978 176.645,305.584 180.408 C 299.077 183.720,243.169 202.440,239.258 202.616 C 227.758 203.136,225.882 190.730,236.719 185.825 C 239.040 184.775,294.719 165.416,298.242 164.434 C 301.586 163.503,305.036 163.625,307.238 164.754 M285.628 212.794 C 289.991 215.129,291.349 220.520,288.648 224.779 C 286.398 228.327,285.771 228.606,259.720 237.667 C 238.623 245.004,236.611 245.327,232.350 242.060 C 225.256 236.622,228.881 228.538,240.211 224.529 C 277.669 211.277,281.124 210.384,285.628 212.794 " stroke="none" fill="#2b9abb" fill-rule="evenodd"></path><path id="path4" d="M329.102 51.561 C 327.813 51.749,325.352 52.331,323.633 52.854 C 318.432 54.437,212.574 92.107,204.688 95.181 C 198.912 97.432,198.859 97.426,187.891 93.250 C 172.843 87.520,78.458 53.267,75.781 52.564 C 61.284 48.756,49.349 54.661,45.970 67.314 L 45.117 70.508 45.117 172.070 C 45.117 268.834,45.151 273.798,45.830 277.139 C 48.115 288.378,54.051 296.150,64.258 301.264 C 65.762 302.017,82.197 308.392,100.781 315.429 C 119.365 322.466,144.063 331.821,155.664 336.219 C 184.445 347.129,187.632 348.277,191.097 348.990 C 195.003 349.793,202.263 349.793,206.169 348.990 C 209.365 348.333,209.692 348.217,240.234 336.921 C 251.084 332.909,276.660 323.555,297.070 316.135 C 317.480 308.715,335.248 302.162,336.554 301.572 C 346.791 296.951,353.548 288.097,355.937 276.172 C 356.847 271.628,356.668 70.986,355.751 67.408 C 352.779 55.821,342.368 49.630,329.102 51.561 M340.234 53.345 C 349.524 56.094,354.276 62.596,355.449 74.162 C 356.002 79.616,356.012 263.628,355.460 269.870 C 354.491 280.811,351.892 286.762,345.090 293.614 C 339.559 299.185,337.630 300.065,304.883 311.935 C 276.696 322.151,262.094 327.494,232.813 338.305 C 199.342 350.663,198.174 350.830,183.583 345.367 C 174.789 342.074,140.877 329.232,134.961 326.954 C 131.523 325.631,119.922 321.232,109.180 317.179 C 64.936 300.487,64.517 300.312,59.243 296.337 C 53.530 292.033,49.044 285.022,47.171 277.472 L 46.315 274.023 46.189 174.609 C 46.099 103.504,46.187 74.252,46.496 71.881 C 48.089 59.671,55.823 52.734,67.843 52.734 C 73.604 52.734,70.492 51.660,173.633 89.249 C 182.871 92.615,192.054 96.060,194.039 96.904 C 198.258 98.696,199.377 98.765,202.539 97.427 C 203.828 96.881,207.520 95.465,210.742 94.279 C 226.515 88.476,320.306 55.172,325.391 53.569 C 329.561 52.254,336.209 52.154,340.234 53.345 M346.596 74.805 C 346.599 75.879,346.675 76.272,346.765 75.678 C 346.854 75.084,346.852 74.206,346.759 73.725 C 346.667 73.245,346.593 73.730,346.596 74.805 M346.591 81.641 C 346.591 82.607,346.667 83.003,346.760 82.520 C 346.853 82.036,346.853 81.245,346.760 80.762 C 346.667 80.278,346.591 80.674,346.591 81.641 M346.575 100.391 C 346.575 101.143,346.655 101.450,346.754 101.074 C 346.852 100.698,346.852 100.083,346.754 99.707 C 346.655 99.331,346.575 99.639,346.575 100.391 M346.575 103.906 C 346.575 104.658,346.655 104.966,346.754 104.590 C 346.852 104.214,346.852 103.599,346.754 103.223 C 346.655 102.847,346.575 103.154,346.575 103.906 M346.591 164.063 C 346.591 165.029,346.667 165.425,346.760 164.941 C 346.853 164.458,346.853 163.667,346.760 163.184 C 346.667 162.700,346.591 163.096,346.591 164.063 M346.621 173.828 C 346.621 175.654,346.688 176.401,346.770 175.488 C 346.853 174.575,346.853 173.081,346.770 172.168 C 346.688 171.255,346.621 172.002,346.621 173.828 M346.575 181.250 C 346.575 182.002,346.655 182.310,346.754 181.934 C 346.852 181.558,346.852 180.942,346.754 180.566 C 346.655 180.190,346.575 180.498,346.575 181.250 M346.575 195.703 C 346.575 196.455,346.655 196.763,346.754 196.387 C 346.852 196.011,346.852 195.396,346.754 195.020 C 346.655 194.644,346.575 194.951,346.575 195.703 M346.601 213.281 C 346.601 214.463,346.675 214.946,346.764 214.355 C 346.854 213.765,346.854 212.798,346.764 212.207 C 346.675 211.616,346.601 212.100,346.601 213.281 M346.621 246.875 C 346.621 248.701,346.688 249.448,346.770 248.535 C 346.853 247.622,346.853 246.128,346.770 245.215 C 346.688 244.302,346.621 245.049,346.621 246.875 M346.575 251.953 C 346.575 252.705,346.655 253.013,346.754 252.637 C 346.852 252.261,346.852 251.646,346.754 251.270 C 346.655 250.894,346.575 251.201,346.575 251.953 M346.583 259.961 C 346.587 260.820,346.667 261.126,346.761 260.640 C 346.854 260.154,346.851 259.451,346.753 259.077 C 346.655 258.704,346.579 259.102,346.583 259.961 M346.601 269.531 C 346.601 270.713,346.675 271.196,346.764 270.605 C 346.854 270.015,346.854 269.048,346.764 268.457 C 346.675 267.866,346.601 268.350,346.601 269.531 " stroke="none" fill="#04090f" fill-rule="evenodd"></path><path id="path5" d="M70.286 76.687 C 69.034 77.349,68.309 78.107,67.588 79.508 L 66.602 81.424 66.602 175.185 C 66.602 280.839,66.332 271.679,69.585 276.550 C 73.225 282.000,69.847 280.524,125.000 300.783 C 135.635 304.689,152.780 311.017,163.100 314.845 C 190.204 324.898,190.880 324.996,193.750 319.316 L 194.727 317.383 194.835 292.075 C 194.953 264.516,194.945 264.399,192.778 262.231 C 189.971 259.424,186.986 260.503,180.416 266.697 C 171.660 274.952,168.026 273.241,167.236 260.489 C 166.504 248.692,165.951 248.441,140.641 248.430 C 111.869 248.417,113.477 249.595,113.477 228.516 C 113.477 207.024,111.386 208.597,140.430 208.249 C 167.196 207.929,166.722 208.166,167.540 194.696 C 168.217 183.548,172.129 182.535,181.166 191.166 C 188.311 197.989,192.182 198.427,194.406 192.665 C 195.508 189.808,195.502 130.748,194.399 127.148 C 192.303 120.307,188.330 116.767,178.772 113.226 C 177.020 112.577,161.611 106.945,144.531 100.711 C 127.451 94.477,106.006 86.643,96.875 83.303 C 74.281 75.037,73.686 74.889,70.286 76.687 M94.141 85.926 C 103.057 89.189,125.820 97.485,144.727 104.360 C 190.160 120.883,189.688 120.627,191.403 129.672 C 191.944 132.521,191.916 185.533,191.373 187.891 C 190.224 192.878,187.559 192.556,181.360 186.682 C 172.168 177.971,164.896 181.160,164.081 194.259 C 163.742 199.711,163.229 201.572,161.671 203.001 C 159.690 204.820,159.458 204.840,138.281 205.067 C 120.168 205.261,118.010 205.351,116.623 205.974 C 114.004 207.148,112.454 208.603,111.379 210.896 L 110.352 213.086 110.352 228.320 L 110.352 243.555 111.468 245.829 C 114.191 251.373,115.156 251.583,139.453 251.895 C 164.270 252.214,163.421 251.871,163.899 261.756 C 164.591 276.070,171.371 279.356,181.609 270.340 C 187.308 265.322,189.176 264.881,190.820 268.166 C 191.735 269.994,191.950 312.156,191.061 315.457 C 189.807 320.113,187.181 320.125,174.805 315.533 C 159.410 309.820,140.943 303.004,127.930 298.231 C 78.656 280.159,79.525 280.490,76.758 278.724 C 73.263 276.492,71.197 273.533,70.339 269.531 C 69.661 266.367,69.227 87.840,69.890 84.692 C 71.300 77.994,72.660 78.063,94.141 85.926 " stroke="none" fill="#785b41" fill-rule="evenodd"></path><path id="path6" d="M321.875 77.208 C 313.327 80.167,263.226 97.836,254.485 100.974 C 248.895 102.981,238.085 106.851,230.462 109.574 C 212.302 116.059,208.856 117.952,206.170 122.914 C 203.585 127.690,203.705 125.433,203.766 168.212 C 203.833 215.120,203.191 210.555,210.910 218.945 C 218.754 227.470,218.733 229.265,210.685 238.177 C 203.487 246.147,203.865 243.462,204.276 283.789 C 204.630 318.440,204.584 317.796,206.834 320.252 C 209.768 323.453,209.343 323.563,246.875 309.862 C 268.876 301.831,278.094 298.486,289.648 294.341 C 327.609 280.725,329.435 279.840,332.251 273.689 C 334.257 269.307,334.334 265.238,334.475 155.859 L 334.570 81.836 333.658 79.983 C 331.762 76.134,327.726 75.183,321.875 77.208 M327.847 81.283 C 330.745 82.604,330.815 85.490,330.077 172.852 C 329.380 255.419,329.156 267.726,328.305 270.234 C 326.764 274.779,324.232 276.525,313.769 280.256 C 309.956 281.616,304.199 283.725,300.977 284.943 C 297.754 286.162,288.262 289.618,279.883 292.625 C 271.504 295.632,261.836 299.158,258.398 300.461 C 245.202 305.462,214.727 316.016,213.481 316.016 C 209.277 316.016,209.244 315.673,208.917 267.773 L 208.789 249.023 209.803 246.875 C 210.399 245.611,212.227 243.198,214.242 241.016 C 223.573 230.908,223.783 226.694,215.405 217.578 C 210.906 212.682,209.456 210.662,208.710 208.250 C 207.954 205.807,207.450 135.030,208.157 130.549 C 209.488 122.108,211.409 120.777,233.594 112.934 C 241.436 110.161,250.840 106.805,254.492 105.476 C 260.737 103.203,279.706 96.470,303.711 88.007 C 324.682 80.614,325.734 80.321,327.847 81.283 M299.414 124.400 C 298.125 124.701,291.445 126.906,284.570 129.299 C 232.219 147.526,235.416 146.327,232.767 148.721 C 225.938 154.890,231.260 164.027,240.795 162.504 C 244.285 161.947,298.280 143.584,304.439 140.860 C 316.143 135.684,311.815 121.505,299.414 124.400 M304.695 129.106 C 307.868 130.747,307.043 134.720,303.112 136.726 C 300.552 138.031,247.656 156.402,242.930 157.627 C 238.585 158.753,235.713 158.146,234.785 155.907 C 233.416 152.601,235.833 150.761,246.289 147.146 C 249.727 145.957,257.109 143.372,262.695 141.400 C 268.281 139.429,278.389 135.921,285.156 133.605 C 291.924 131.289,297.988 129.211,298.633 128.986 C 300.379 128.377,303.402 128.437,304.695 129.106 M298.242 164.434 C 294.719 165.416,239.040 184.775,236.719 185.825 C 225.882 190.730,227.758 203.136,239.258 202.616 C 243.169 202.440,299.077 183.720,305.584 180.408 C 317.327 174.431,311.088 160.856,298.242 164.434 M305.065 168.939 C 306.681 169.774,307.284 171.810,306.442 173.585 C 305.214 176.173,303.124 177.128,285.547 183.129 C 280.498 184.853,268.698 188.900,259.325 192.124 C 249.952 195.347,241.484 198.104,240.507 198.251 C 234.717 199.119,232.231 193.889,236.909 190.683 C 238.598 189.526,239.238 189.288,260.938 181.749 C 300.512 167.999,302.264 167.490,305.065 168.939 M178.617 206.029 C 177.958 206.584,177.051 208.088,176.439 209.642 C 174.890 213.579,174.115 214.633,172.011 215.669 L 170.117 216.602 150.195 216.807 L 130.273 217.013 149.805 217.098 C 174.491 217.206,173.581 217.424,176.887 210.601 C 180.486 203.173,182.259 203.866,194.604 217.521 C 204.204 228.141,204.177 228.530,193.055 239.909 C 183.733 249.445,181.863 250.558,179.293 248.102 C 178.651 247.488,178.125 246.775,178.125 246.517 C 178.125 245.849,176.252 242.551,175.256 241.466 C 172.794 238.784,173.457 238.852,151.153 239.009 C 128.437 239.169,127.457 239.087,124.959 236.830 C 122.230 234.365,121.197 225.447,123.181 221.484 C 123.711 220.427,123.727 220.292,123.253 220.886 C 120.932 223.800,121.506 233.825,124.168 236.858 C 126.288 239.273,125.970 239.240,149.023 239.453 L 170.117 239.648 171.970 240.561 C 174.185 241.652,175.076 242.818,176.403 246.360 C 179.421 254.416,182.406 253.393,195.172 239.929 C 206.213 228.284,206.182 227.954,192.690 214.196 C 183.615 204.941,181.422 203.669,178.617 206.029 M278.320 211.748 C 276.790 212.011,253.772 219.731,240.211 224.529 C 228.881 228.538,225.256 236.622,232.350 242.060 C 236.611 245.327,238.623 245.004,259.720 237.667 C 281.449 230.109,283.176 229.454,285.529 227.869 C 294.499 221.829,289.156 209.881,278.320 211.748 M282.579 216.560 C 286.272 218.103,285.918 222.433,281.907 224.783 C 280.363 225.688,269.052 229.745,248.450 236.784 C 239.420 239.869,236.034 239.939,234.552 237.074 C 232.478 233.064,234.869 231.079,246.841 226.867 C 278.706 215.657,279.718 215.365,282.579 216.560 " stroke="none" fill="#267e90" fill-rule="evenodd"></path><path id="path7" d="M179.350 206.491 C 178.853 206.839,177.694 208.747,176.773 210.731 C 175.146 214.237,173.948 215.627,171.680 216.640 C 171.250 216.832,161.230 217.077,149.414 217.186 L 127.930 217.383 126.177 218.364 C 121.353 221.065,120.574 232.869,124.959 236.830 C 127.457 239.087,128.437 239.169,151.153 239.009 C 173.457 238.852,172.794 238.784,175.256 241.466 C 176.252 242.551,178.125 245.849,178.125 246.517 C 178.125 246.775,178.651 247.488,179.293 248.102 C 181.863 250.558,183.733 249.445,193.055 239.909 C 204.179 228.528,204.206 228.136,194.596 217.521 C 184.594 206.472,182.028 204.616,179.350 206.491 " stroke="none" fill="#4a9164" fill-rule="evenodd"></path><path id="path8" d="M72.808 80.046 C 69.189 81.614,69.393 75.336,69.650 177.148 C 69.888 271.219,69.861 269.824,71.535 273.134 C 74.450 278.897,70.872 277.304,127.930 298.231 C 140.943 303.004,159.410 309.820,174.805 315.533 C 187.181 320.125,189.807 320.113,191.061 315.457 C 191.950 312.156,191.735 269.994,190.820 268.166 C 189.176 264.881,187.308 265.322,181.609 270.340 C 171.371 279.356,164.591 276.070,163.899 261.756 C 163.421 251.871,164.270 252.214,139.453 251.895 C 115.156 251.583,114.191 251.373,111.468 245.829 L 110.352 243.555 110.352 228.320 L 110.352 213.086 111.379 210.896 C 112.454 208.603,114.004 207.148,116.623 205.974 C 118.010 205.351,120.168 205.261,138.281 205.067 C 159.458 204.840,159.690 204.820,161.671 203.001 C 163.229 201.572,163.742 199.711,164.081 194.259 C 164.896 181.160,172.168 177.971,181.360 186.682 C 187.559 192.556,190.224 192.878,191.373 187.891 C 191.916 185.533,191.944 132.521,191.403 129.672 C 189.688 120.627,190.160 120.883,144.727 104.360 C 125.820 97.485,103.057 89.189,94.141 85.926 C 77.821 79.952,74.890 79.145,72.808 80.046 M94.607 88.695 C 103.482 91.942,121.025 98.342,133.594 102.918 C 187.063 122.386,186.097 121.944,188.163 127.863 C 189.056 130.425,189.256 182.492,188.380 184.483 C 187.399 186.711,185.886 186.408,181.971 183.198 C 175.217 177.661,169.227 177.412,164.673 182.477 C 162.406 184.999,161.744 187.089,161.300 193.135 C 160.624 202.341,161.909 201.830,138.672 202.151 C 106.899 202.591,106.684 202.792,107.124 231.641 C 107.475 254.630,108.009 254.962,144.816 255.051 C 160.194 255.089,160.040 255.005,160.586 263.672 C 161.534 278.735,171.027 283.810,182.227 275.239 C 187.296 271.360,187.511 271.919,187.464 288.828 C 187.393 314.652,187.199 315.359,180.811 313.055 C 179.053 312.422,169.391 309.051,152.930 303.330 C 113.925 289.773,83.168 278.714,79.993 277.105 C 75.756 274.958,73.708 272.175,73.079 267.708 C 72.103 260.777,71.852 86.307,72.816 84.444 C 74.366 81.447,75.290 81.627,94.607 88.695 " stroke="none" fill="#a46444" fill-rule="evenodd"></path></g></svg>
