<svg id="svg" version="1.1" xmlns="http://www.w3.org/2000/svg" xmlns:xlink="http://www.w3.org/1999/xlink" width="400" height="400" viewBox="0, 0, 400,400"><g id="svgg"><path id="path0" d="M153.519 50.981 C 121.496 53.479,93.392 69.878,75.710 96.380 C 56.183 125.647,54.549 160.538,71.147 193.801 C 86.496 224.562,125.486 246.543,160.556 244.207 C 178.483 243.012,190.487 239.571,205.262 231.390 C 269.433 195.858,273.806 105.224,213.252 65.776 C 197.023 55.203,173.638 49.411,153.519 50.981 M174.630 65.354 C 208.877 70.828,236.507 99.377,241.317 134.259 C 247.593 179.771,214.924 222.242,168.704 228.661 C 110.479 236.746,61.975 183.303,77.817 128.519 C 90.209 85.667,131.829 58.512,174.630 65.354 " stroke="none" fill="#04a6d9" fill-rule="evenodd"></path><path id="path1" d="M153.702 77.037 C 106.595 82.446,75.559 133.295,92.816 176.791 C 95.834 184.398,104.609 197.506,108.972 200.926 C 109.232 201.130,110.694 202.367,112.222 203.676 C 123.075 212.972,146.586 222.538,151.868 219.806 C 152.495 219.482,152.963 219.403,152.963 219.620 C 152.963 219.829,153.505 220.020,154.167 220.044 L 155.370 220.088 154.259 220.370 C 153.379 220.594,153.634 220.662,155.489 220.697 C 157.061 220.726,158.003 220.569,158.353 220.218 C 158.656 219.915,159.221 219.786,159.696 219.910 C 160.477 220.114,160.481 220.138,159.795 220.407 C 159.271 220.612,159.479 220.694,160.556 220.709 C 161.517 220.722,161.861 220.618,161.535 220.411 C 161.243 220.226,162.170 220.168,163.757 220.272 C 166.272 220.437,166.425 220.407,165.741 219.877 C 165.056 219.346,165.118 219.332,166.566 219.694 C 167.427 219.910,168.427 219.958,168.788 219.803 C 169.149 219.647,169.861 219.552,170.370 219.591 C 171.051 219.644,171.161 219.571,170.784 219.316 C 170.399 219.055,170.565 218.905,171.459 218.709 C 172.111 218.565,172.745 218.547,172.866 218.668 C 172.987 218.790,172.781 218.889,172.407 218.889 C 172.034 218.889,171.821 218.981,171.933 219.094 C 172.278 219.438,177.008 218.030,176.774 217.652 C 176.641 217.437,176.976 217.405,177.629 217.569 C 178.219 217.717,178.585 217.721,178.443 217.579 C 177.864 216.999,179.211 216.244,180.036 216.686 C 180.510 216.940,180.735 216.958,180.595 216.730 C 180.280 216.221,181.643 215.817,182.685 216.110 C 183.367 216.302,183.418 216.267,182.963 215.918 C 182.504 215.565,182.552 215.523,183.241 215.674 C 183.700 215.775,183.990 215.719,183.886 215.551 C 183.626 215.130,186.178 214.327,186.717 214.661 C 186.978 214.822,187.053 214.770,186.904 214.528 C 186.604 214.043,187.967 213.548,188.572 213.922 C 188.860 214.100,188.903 214.026,188.700 213.698 C 188.478 213.339,188.567 213.273,189.033 213.451 C 189.382 213.585,189.577 213.548,189.466 213.368 C 189.355 213.188,189.521 212.942,189.836 212.821 C 190.164 212.695,190.312 212.758,190.183 212.967 C 189.781 213.616,190.318 213.357,191.151 212.500 C 191.596 212.042,191.836 211.887,191.682 212.157 C 191.510 212.461,191.980 212.353,192.924 211.872 C 194.486 211.075,195.107 210.393,193.611 211.119 C 192.795 211.514,192.793 211.510,193.519 210.917 C 194.818 209.855,197.791 208.483,198.219 208.748 C 198.456 208.894,198.530 208.837,198.393 208.615 C 198.142 208.210,199.040 207.651,200.000 207.613 C 200.306 207.601,200.556 207.342,200.557 207.037 C 200.557 206.731,200.807 206.475,201.112 206.468 C 201.890 206.448,203.736 205.167,203.511 204.803 C 203.266 204.407,205.452 202.855,205.881 203.121 C 206.063 203.233,206.440 203.035,206.717 202.681 C 207.174 202.098,207.161 202.085,206.574 202.545 C 205.125 203.682,206.051 202.646,207.685 201.304 C 208.653 200.508,209.194 200.192,208.889 200.600 C 208.583 201.008,209.000 200.622,209.815 199.742 C 210.630 198.862,211.479 198.143,211.702 198.145 C 212.245 198.149,213.459 196.779,213.567 196.038 C 213.615 195.712,213.854 195.321,214.097 195.171 C 214.340 195.021,214.434 194.728,214.306 194.520 C 214.169 194.298,214.350 194.215,214.748 194.320 C 215.130 194.419,215.652 194.204,215.952 193.822 C 216.446 193.193,216.434 193.185,215.771 193.704 C 215.381 194.009,215.631 193.478,216.327 192.523 C 217.023 191.568,217.787 190.776,218.024 190.764 C 218.262 190.751,219.012 190.039,219.691 189.181 C 220.370 188.323,220.718 187.749,220.463 187.906 C 219.769 188.334,219.905 187.575,220.627 186.990 C 221.166 186.552,221.215 186.559,220.980 187.037 C 220.829 187.343,221.003 187.190,221.366 186.697 C 221.728 186.204,222.028 185.538,222.031 185.215 C 222.034 184.893,222.245 184.671,222.500 184.722 C 222.755 184.773,222.943 184.690,222.919 184.537 C 222.803 183.802,223.000 183.312,223.329 183.516 C 223.547 183.650,223.596 183.484,223.451 183.107 C 223.287 182.678,223.347 182.558,223.637 182.736 C 223.915 182.908,223.990 182.804,223.850 182.441 C 223.722 182.105,224.058 181.478,224.688 180.879 C 225.267 180.329,225.532 179.999,225.278 180.146 C 224.606 180.535,224.713 179.975,225.556 178.704 C 226.346 177.511,226.545 177.683,225.905 179.006 C 225.528 179.787,225.534 179.790,226.091 179.096 C 226.407 178.700,226.686 178.117,226.709 177.800 C 226.733 177.482,226.791 177.056,226.838 176.852 C 226.885 176.648,226.950 176.263,226.981 175.997 C 227.012 175.730,227.174 175.597,227.342 175.700 C 227.510 175.804,227.635 175.522,227.620 175.074 C 227.604 174.584,227.788 174.300,228.083 174.361 C 228.428 174.433,228.499 174.226,228.322 173.667 C 228.135 173.079,228.192 172.946,228.536 173.159 C 228.841 173.347,228.911 173.298,228.737 173.017 C 228.403 172.476,228.833 171.033,229.251 171.291 C 229.421 171.397,229.467 171.123,229.352 170.683 C 229.218 170.171,229.284 169.972,229.537 170.128 C 229.789 170.284,229.856 170.084,229.722 169.572 C 229.588 169.060,229.655 168.861,229.907 169.017 C 230.160 169.173,230.226 168.973,230.092 168.461 C 229.958 167.949,230.025 167.749,230.277 167.906 C 230.530 168.062,230.597 167.862,230.463 167.350 C 230.329 166.838,230.395 166.638,230.648 166.794 C 230.896 166.948,230.970 166.764,230.848 166.297 C 230.742 165.889,230.817 165.556,231.017 165.556 C 231.216 165.556,231.305 165.097,231.216 164.537 C 231.103 163.832,231.160 163.670,231.400 164.011 C 231.845 164.643,232.231 162.898,232.001 161.296 C 231.865 160.349,231.897 160.294,232.221 160.926 C 232.518 161.506,232.557 161.346,232.398 160.185 C 232.242 159.051,232.290 158.834,232.603 159.259 C 232.920 159.692,232.981 159.508,232.877 158.432 C 232.803 157.671,232.876 157.004,233.039 156.950 C 233.202 156.896,233.497 155.185,233.695 153.148 C 234.149 148.475,234.150 140.264,233.696 141.296 C 233.490 141.765,233.453 141.235,233.595 139.850 C 233.732 138.510,233.683 137.747,233.468 137.879 C 233.264 138.006,233.179 137.571,233.265 136.838 C 233.357 136.050,233.206 135.375,232.862 135.031 C 232.223 134.392,231.719 131.566,232.059 130.527 C 232.229 130.008,232.195 129.950,231.936 130.313 C 231.469 130.965,230.975 129.161,231.321 128.070 C 231.496 127.519,231.434 127.393,231.094 127.603 C 230.801 127.784,230.719 127.742,230.874 127.491 C 231.011 127.270,230.919 126.331,230.671 125.404 C 230.423 124.476,230.106 123.903,229.965 124.130 C 229.822 124.362,229.599 124.037,229.457 123.392 C 229.318 122.758,229.326 122.044,229.474 121.804 C 229.656 121.510,229.584 121.466,229.254 121.670 C 228.890 121.895,228.829 121.801,229.020 121.305 C 229.224 120.773,229.174 120.721,228.775 121.052 C 228.370 121.388,228.283 121.222,228.317 120.178 C 228.341 119.469,228.219 118.889,228.047 118.889 C 227.875 118.889,227.837 118.722,227.963 118.519 C 228.089 118.315,228.006 118.148,227.778 118.148 C 227.550 118.148,227.467 117.982,227.593 117.778 C 227.914 117.258,225.581 113.003,224.724 112.544 C 224.314 112.325,224.105 111.936,224.226 111.619 C 224.361 111.268,224.282 111.168,224.007 111.338 C 223.722 111.514,223.656 111.400,223.810 110.999 C 223.937 110.666,223.857 110.280,223.630 110.140 C 223.381 109.986,223.323 110.054,223.483 110.313 C 223.628 110.548,223.660 110.741,223.553 110.741 C 223.447 110.741,223.170 110.387,222.939 109.955 C 222.616 109.351,222.622 109.233,222.964 109.445 C 223.210 109.597,223.124 109.284,222.774 108.749 C 222.423 108.215,221.990 107.778,221.809 107.778 C 221.629 107.778,221.523 107.638,221.574 107.467 C 221.625 107.296,221.125 106.698,220.463 106.138 C 219.312 105.164,218.762 104.094,219.716 104.683 C 219.967 104.838,219.531 104.182,218.746 103.223 C 217.961 102.265,217.229 101.481,217.120 101.481 C 217.011 101.481,217.225 101.816,217.595 102.224 C 217.964 102.633,218.180 103.055,218.073 103.162 C 217.858 103.376,216.624 101.631,216.524 100.971 C 216.413 100.241,215.885 99.611,215.556 99.815 C 215.380 99.923,215.130 99.840,215.000 99.630 C 214.870 99.419,214.610 99.342,214.423 99.458 C 214.236 99.573,214.174 99.431,214.285 99.141 C 214.396 98.851,214.217 98.510,213.887 98.384 C 213.557 98.257,213.373 98.014,213.478 97.843 C 213.761 97.385,210.152 93.958,209.241 93.819 C 208.481 93.703,207.407 92.879,207.407 92.412 C 207.407 92.284,207.600 92.297,207.835 92.443 C 208.094 92.603,208.162 92.545,208.008 92.296 C 207.868 92.069,207.513 91.977,207.219 92.090 C 206.892 92.215,206.525 91.956,206.276 91.425 C 205.777 90.358,201.936 87.614,201.038 87.681 C 200.679 87.709,200.273 87.549,200.135 87.327 C 199.975 87.068,200.060 87.030,200.370 87.222 C 200.684 87.416,200.766 87.377,200.601 87.110 C 200.461 86.884,200.109 86.790,199.819 86.901 C 199.529 87.013,198.861 86.673,198.335 86.146 C 197.315 85.126,194.937 83.743,195.349 84.410 C 195.500 84.653,195.373 84.722,195.021 84.587 C 194.706 84.466,194.540 84.220,194.651 84.040 C 194.762 83.859,194.623 83.800,194.342 83.908 C 193.719 84.148,191.652 83.410,191.993 83.069 C 192.689 82.373,182.378 79.008,175.185 77.583 C 171.541 76.861,158.189 76.522,153.702 77.037 M149.968 85.340 C 149.883 85.426,149.314 85.599,148.703 85.727 L 147.593 85.958 148.704 85.439 C 149.694 84.976,150.386 84.922,149.968 85.340 M135.550 92.500 C 135.545 93.004,135.474 93.037,135.226 92.646 C 134.964 92.232,134.721 92.256,133.843 92.783 L 132.778 93.421 133.704 92.645 C 134.838 91.694,135.557 91.637,135.550 92.500 M179.033 104.630 C 179.215 105.441,179.180 105.591,178.906 105.185 C 178.699 104.880,178.527 104.310,178.524 103.920 C 178.517 102.972,178.729 103.268,179.033 104.630 M225.959 114.630 C 226.257 115.212,226.175 115.183,225.576 114.496 C 225.158 114.015,224.817 113.432,224.820 113.200 C 224.826 112.758,225.317 113.373,225.959 114.630 M98.780 147.125 C 98.692 147.586,98.616 147.296,98.612 146.481 C 98.608 145.667,98.680 145.290,98.773 145.644 C 98.866 145.998,98.869 146.665,98.780 147.125 M219.398 189.093 C 218.652 190.231,218.335 190.283,218.955 189.167 C 219.209 188.708,219.377 188.196,219.329 188.028 C 219.280 187.860,219.410 187.827,219.616 187.955 C 219.854 188.102,219.773 188.520,219.398 189.093 " stroke="none" fill="#f9247d" fill-rule="evenodd"></path><path id="path2" d="M160.652 39.521 C 161.113 39.610,161.780 39.606,162.134 39.514 C 162.488 39.421,162.111 39.349,161.296 39.353 C 160.481 39.357,160.192 39.433,160.652 39.521 M163.986 39.521 C 164.447 39.610,165.113 39.606,165.467 39.514 C 165.821 39.421,165.444 39.349,164.630 39.353 C 163.815 39.357,163.525 39.433,163.986 39.521 M232.593 223.370 C 231.472 224.393,228.844 226.581,226.751 228.231 C 222.967 231.215,222.950 231.235,223.639 232.005 C 224.544 233.014,238.845 250.104,241.481 253.326 C 242.602 254.695,244.769 257.313,246.296 259.144 C 247.824 260.974,252.574 266.705,256.852 271.879 C 261.130 277.054,265.807 282.622,267.246 284.255 C 268.685 285.887,272.554 290.472,275.844 294.444 C 290.467 312.097,308.456 333.093,310.687 335.110 C 317.963 341.688,328.519 338.090,328.519 329.031 C 328.519 325.531,327.769 324.083,323.355 319.054 C 322.630 318.228,321.546 316.978,320.947 316.276 C 319.547 314.638,315.075 309.685,309.444 303.535 C 301.791 295.176,291.071 283.365,287.437 279.286 C 283.074 274.388,277.937 268.775,271.483 261.852 C 268.730 258.898,264.311 254.067,261.664 251.116 C 259.018 248.165,255.677 244.498,254.240 242.968 C 252.804 241.437,250.887 239.343,249.981 238.313 C 248.568 236.708,239.867 227.173,235.901 222.885 L 234.630 221.510 232.593 223.370 " stroke="none" fill="#f47307" fill-rule="evenodd"></path><path id="path3" d="M157.778 39.678 C 155.028 39.806,151.611 39.993,150.185 40.094 C 146.725 40.339,139.630 41.522,139.630 41.855 C 139.630 42.000,139.213 42.040,138.704 41.943 C 138.194 41.845,137.778 41.936,137.778 42.144 C 137.778 42.353,137.444 42.436,137.037 42.330 C 136.630 42.223,136.296 42.294,136.296 42.488 C 136.296 42.681,136.088 42.858,135.833 42.880 C 135.579 42.902,135.120 42.987,134.815 43.069 C 134.509 43.150,133.759 43.344,133.148 43.499 C 130.449 44.183,124.527 46.021,123.463 46.506 C 122.821 46.798,122.057 47.037,121.765 47.037 C 121.473 47.037,121.112 47.160,120.962 47.310 C 120.811 47.460,120.492 47.588,120.252 47.593 C 119.364 47.613,117.037 48.588,117.037 48.939 C 117.037 49.139,116.870 49.200,116.667 49.074 C 116.463 48.948,116.296 49.032,116.296 49.259 C 116.296 49.487,116.128 49.569,115.922 49.442 C 115.717 49.315,115.111 49.555,114.576 49.976 C 114.041 50.397,113.393 50.741,113.135 50.741 C 112.877 50.741,111.362 51.407,109.769 52.222 C 108.176 53.037,106.659 53.704,106.399 53.704 C 106.139 53.704,105.926 53.880,105.926 54.096 C 105.926 54.312,105.773 54.393,105.585 54.278 C 105.398 54.162,105.015 54.297,104.735 54.577 C 104.454 54.858,103.876 55.198,103.450 55.333 C 103.024 55.469,102.240 55.983,101.707 56.476 C 101.175 56.970,100.156 57.650,99.444 57.988 C 98.731 58.326,98.148 58.751,98.148 58.931 C 98.148 59.112,97.952 59.259,97.712 59.259 C 97.137 59.259,93.333 61.887,93.333 62.284 C 93.333 62.454,93.099 62.593,92.813 62.593 C 92.328 62.593,90.650 63.889,88.613 65.836 C 88.132 66.296,86.842 67.334,85.748 68.143 C 84.653 68.952,83.495 69.988,83.175 70.445 C 82.855 70.902,82.593 71.193,82.593 71.092 C 82.593 70.649,75.160 78.224,73.148 80.718 C 71.926 82.233,70.551 83.850,70.093 84.312 C 69.634 84.774,69.259 85.409,69.259 85.724 C 69.259 86.039,69.117 86.296,68.943 86.296 C 68.550 86.296,65.556 90.523,65.556 91.077 C 65.556 91.300,65.389 91.481,65.185 91.481 C 64.981 91.481,64.815 91.723,64.815 92.019 C 64.815 92.314,64.596 92.689,64.328 92.852 C 63.748 93.205,61.111 97.510,61.111 98.104 C 61.111 98.332,60.944 98.519,60.741 98.519 C 60.537 98.519,60.412 98.644,60.463 98.796 C 60.571 99.121,57.384 105.647,56.974 105.939 C 56.499 106.277,54.847 110.279,55.084 110.516 C 55.208 110.640,55.114 110.741,54.877 110.741 C 54.639 110.741,54.444 111.064,54.444 111.460 C 54.444 111.855,54.266 112.289,54.049 112.423 C 53.831 112.557,53.743 112.901,53.852 113.186 C 53.961 113.471,53.889 113.704,53.692 113.704 C 53.495 113.704,53.333 114.031,53.333 114.431 C 53.333 114.831,52.986 116.039,52.562 117.116 C 52.137 118.193,51.818 119.119,51.853 119.175 C 52.000 119.406,50.183 126.499,49.930 126.681 C 49.778 126.791,49.607 127.458,49.549 128.163 C 49.492 128.868,49.343 129.528,49.219 129.630 C 48.826 129.953,47.799 137.966,47.338 144.309 C 46.745 152.464,47.828 170.741,48.904 170.741 C 49.043 170.741,49.083 171.124,48.994 171.592 C 48.904 172.061,49.162 173.436,49.567 174.648 C 50.240 176.661,51.096 179.639,51.265 180.556 C 51.375 181.150,53.371 187.521,53.702 188.333 C 53.868 188.741,54.538 190.449,55.192 192.130 C 55.845 193.810,56.537 195.185,56.730 195.185 C 56.923 195.185,56.978 195.352,56.852 195.556 C 56.726 195.759,56.762 195.926,56.933 195.926 C 57.275 195.926,59.485 200.760,59.346 201.204 C 59.298 201.356,59.406 201.481,59.586 201.481 C 59.766 201.481,60.003 201.825,60.113 202.245 C 60.458 203.563,63.434 208.500,63.762 208.297 C 63.934 208.191,64.075 208.323,64.077 208.589 C 64.078 208.856,64.911 210.295,65.929 211.788 C 66.946 213.281,67.778 214.646,67.778 214.823 C 67.778 214.999,68.110 215.376,68.516 215.660 C 68.922 215.945,69.148 216.284,69.019 216.413 C 68.889 216.543,69.057 216.754,69.391 216.883 C 69.726 217.011,70.000 217.276,70.000 217.472 C 70.000 217.668,70.875 218.734,71.944 219.842 C 73.014 220.950,73.889 222.010,73.889 222.197 C 73.889 222.576,83.747 232.570,84.135 232.584 C 84.458 232.595,85.902 233.807,88.451 236.204 C 89.588 237.273,90.717 238.148,90.960 238.148 C 91.203 238.148,91.498 238.398,91.615 238.704 C 91.733 239.009,92.010 239.259,92.231 239.259 C 92.452 239.259,93.615 239.926,94.815 240.741 C 96.015 241.556,97.080 242.222,97.183 242.222 C 97.285 242.222,97.777 242.597,98.276 243.056 C 98.774 243.514,100.152 244.389,101.337 245.000 C 102.523 245.611,103.684 246.285,103.918 246.497 C 104.152 246.709,105.491 247.363,106.894 247.949 C 108.297 248.536,109.861 249.297,110.370 249.640 C 110.880 249.984,111.528 250.184,111.811 250.084 C 112.094 249.985,112.226 250.064,112.105 250.260 C 111.984 250.456,113.086 251.070,114.554 251.626 C 116.021 252.182,117.563 252.803,117.979 253.007 C 118.395 253.210,118.978 253.418,119.275 253.468 C 119.572 253.519,121.231 254.026,122.963 254.595 C 124.694 255.165,126.403 255.697,126.759 255.778 C 128.241 256.116,129.139 256.306,130.282 256.522 C 130.946 256.648,131.576 256.891,131.683 257.063 C 131.789 257.235,132.148 257.271,132.480 257.143 C 132.915 256.976,133.000 257.048,132.783 257.398 C 132.555 257.768,132.719 257.840,133.463 257.698 C 134.003 257.595,134.444 257.632,134.444 257.781 C 134.444 258.605,151.452 260.357,159.531 260.366 C 167.168 260.374,182.579 258.681,182.888 257.801 C 182.949 257.628,183.324 257.571,183.721 257.675 C 184.119 257.779,184.444 257.706,184.444 257.512 C 184.444 257.319,184.653 257.150,184.907 257.137 C 185.514 257.106,197.003 253.804,197.963 253.385 C 199.096 252.891,202.675 251.570,203.611 251.301 C 204.069 251.169,204.444 250.896,204.444 250.694 C 204.444 250.492,204.611 250.430,204.815 250.556 C 205.019 250.681,205.185 250.598,205.185 250.370 C 205.185 250.143,205.352 250.059,205.556 250.185 C 205.759 250.311,205.926 250.244,205.926 250.036 C 205.926 249.828,206.585 249.481,207.391 249.264 C 208.196 249.047,209.113 248.612,209.428 248.297 C 209.742 247.982,210.000 247.808,210.000 247.910 C 210.000 248.013,211.458 247.278,213.241 246.278 L 216.481 244.460 218.574 246.709 C 219.725 247.945,220.683 249.025,220.704 249.108 C 220.724 249.191,221.032 249.563,221.389 249.935 C 221.745 250.307,222.620 251.347,223.333 252.246 C 224.046 253.146,225.235 254.508,225.975 255.274 C 226.715 256.040,227.245 256.667,227.153 256.667 C 226.969 256.667,233.347 264.177,236.274 267.407 C 237.289 268.528,238.641 270.153,239.277 271.019 C 239.914 271.884,240.587 272.593,240.773 272.593 C 240.959 272.593,241.111 272.769,241.111 272.986 C 241.111 273.202,242.194 274.472,243.519 275.810 C 244.843 277.147,245.926 278.455,245.926 278.717 C 245.926 278.979,246.439 279.625,247.065 280.152 C 247.692 280.680,248.080 281.111,247.928 281.111 C 247.776 281.111,248.707 282.167,249.997 283.458 C 251.287 284.749,252.344 285.958,252.345 286.144 C 252.347 286.534,255.985 290.823,257.716 292.478 C 258.361 293.094,258.889 293.759,258.889 293.955 C 258.889 294.151,259.264 294.652,259.722 295.069 C 260.181 295.486,261.056 296.460,261.667 297.233 C 262.278 298.006,263.528 299.486,264.444 300.523 C 267.214 303.656,267.582 304.082,271.833 309.074 C 274.088 311.722,276.834 314.889,277.936 316.111 C 279.037 317.333,280.494 319.058,281.173 319.945 C 281.852 320.831,282.903 322.081,283.509 322.722 C 284.115 323.364,284.619 323.972,284.629 324.074 C 284.638 324.176,285.518 325.160,286.583 326.262 C 287.647 327.363,288.519 328.463,288.519 328.706 C 288.519 328.950,289.927 330.632,291.647 332.445 C 296.022 337.053,296.667 337.783,296.667 338.125 C 296.667 338.290,297.760 339.530,299.096 340.880 C 300.433 342.229,301.396 343.333,301.238 343.333 C 300.570 343.333,305.463 347.827,306.835 348.474 C 307.659 348.863,308.784 349.600,309.336 350.113 C 310.318 351.027,313.476 352.403,315.388 352.749 C 315.919 352.845,316.888 353.101,317.542 353.317 C 319.090 353.828,321.426 353.949,322.593 353.579 C 323.311 353.351,323.394 353.376,322.963 353.693 C 322.410 354.100,322.954 354.064,326.481 353.465 C 328.897 353.054,331.827 352.111,331.638 351.805 C 331.528 351.627,331.774 351.481,332.186 351.481 C 332.597 351.481,333.298 351.106,333.744 350.648 C 334.189 350.190,334.433 350.065,334.286 350.370 C 334.139 350.676,334.379 350.468,334.818 349.907 C 335.258 349.347,335.803 348.889,336.029 348.889 C 336.620 348.889,338.519 346.991,338.519 346.401 C 338.519 346.127,338.753 345.813,339.040 345.703 C 339.589 345.492,342.222 340.400,342.222 339.550 C 342.222 339.277,342.487 338.676,342.811 338.213 C 343.135 337.751,343.306 337.131,343.193 336.835 C 343.079 336.539,343.167 336.296,343.387 336.296 C 343.652 336.296,343.706 335.701,343.545 334.537 C 343.372 333.283,343.412 332.937,343.683 333.333 C 343.962 333.741,344.064 333.279,344.068 331.596 C 344.072 330.335,343.930 329.214,343.753 329.105 C 343.577 328.996,343.513 328.486,343.611 327.972 C 343.721 327.398,343.621 327.037,343.352 327.037 C 343.082 327.037,343.003 326.752,343.148 326.296 C 343.283 325.871,343.215 325.556,342.988 325.556 C 342.770 325.556,342.593 325.285,342.593 324.954 C 342.593 323.058,338.888 316.481,336.703 314.496 C 336.174 314.016,335.991 313.748,336.296 313.902 C 336.602 314.055,336.170 313.449,335.336 312.554 C 332.650 309.670,332.165 309.106,330.746 307.222 C 329.978 306.204,328.890 304.954,328.328 304.444 C 327.766 303.935,326.062 301.966,324.542 300.067 C 323.022 298.169,321.693 296.702,321.588 296.807 C 321.483 296.912,320.776 296.215,320.016 295.258 C 319.256 294.301,318.108 292.959,317.465 292.276 C 316.822 291.592,316.296 290.938,316.296 290.822 C 316.296 290.706,315.255 289.564,313.981 288.283 C 311.084 285.367,310.000 284.132,310.000 283.746 C 310.000 283.580,309.125 282.608,308.056 281.586 C 305.704 279.338,302.963 276.325,302.963 275.987 C 302.964 275.851,302.146 274.907,301.147 273.889 C 298.096 270.780,296.296 268.813,296.296 268.587 C 296.296 268.469,295.469 267.530,294.457 266.501 C 291.480 263.473,289.630 261.413,289.630 261.128 C 289.630 260.982,288.949 260.252,288.118 259.505 C 287.287 258.759,286.716 258.148,286.851 258.148 C 287.122 258.148,281.375 251.709,279.177 249.552 C 278.408 248.796,277.778 248.073,277.778 247.945 C 277.778 247.710,275.714 245.385,274.167 243.876 C 273.708 243.429,273.333 242.952,273.333 242.815 C 273.333 242.679,272.344 241.531,271.134 240.265 C 269.924 238.999,268.319 237.171,267.566 236.204 C 266.813 235.236,266.053 234.444,265.876 234.444 C 265.700 234.444,265.556 234.256,265.556 234.026 C 265.556 233.796,264.846 232.921,263.979 232.082 C 261.943 230.110,260.000 227.876,260.002 227.510 C 260.002 227.352,258.794 226.046,257.316 224.609 C 254.429 221.800,252.593 219.714,252.593 219.244 C 252.593 218.870,249.260 215.926,248.837 215.926 C 248.662 215.926,248.519 215.749,248.519 215.534 C 248.519 215.318,248.696 215.251,248.914 215.386 C 249.131 215.520,249.398 215.292,249.506 214.878 C 249.614 214.464,249.947 214.032,250.245 213.917 C 250.544 213.803,250.695 213.559,250.581 213.375 C 250.468 213.191,250.624 212.945,250.928 212.828 C 251.232 212.711,251.481 212.361,251.481 212.049 C 251.481 211.737,251.648 211.481,251.852 211.481 C 252.056 211.481,252.222 211.231,252.222 210.926 C 252.222 210.620,252.389 210.370,252.593 210.370 C 252.796 210.370,252.963 210.120,252.963 209.815 C 252.963 209.509,253.130 209.259,253.333 209.259 C 253.537 209.259,253.704 209.009,253.704 208.704 C 253.704 208.398,253.898 208.148,254.136 208.148 C 254.373 208.148,254.469 208.049,254.349 207.929 C 254.228 207.808,255.009 206.410,256.084 204.822 C 258.089 201.861,261.309 195.926,260.910 195.926 C 260.788 195.926,260.950 195.664,261.270 195.344 C 261.590 195.024,261.852 194.513,261.852 194.209 C 261.852 193.904,262.461 192.374,263.205 190.809 C 263.949 189.244,264.525 187.755,264.485 187.500 C 264.445 187.245,264.573 187.037,264.770 187.037 C 264.967 187.037,265.322 186.412,265.559 185.648 C 265.796 184.884,266.223 183.739,266.509 183.102 C 266.794 182.466,267.088 181.633,267.162 181.250 C 267.236 180.868,267.383 180.306,267.490 180.000 C 268.874 176.022,270.766 167.039,270.220 167.031 C 269.995 167.028,270.035 166.886,270.311 166.711 C 270.632 166.508,270.827 165.533,270.866 163.937 C 270.910 162.139,271.051 161.524,271.389 161.652 C 271.953 161.867,272.040 159.789,271.481 159.444 C 271.278 159.319,271.111 158.860,271.111 158.426 C 271.111 157.652,271.122 157.651,271.655 158.355 C 272.156 159.017,272.200 158.923,272.210 157.151 C 272.217 156.094,272.056 155.126,271.852 155.000 C 271.305 154.662,271.402 152.702,271.976 152.482 C 272.360 152.335,272.455 151.181,272.400 147.350 C 272.318 141.542,272.340 141.736,271.797 142.071 C 271.487 142.263,271.445 141.845,271.641 140.518 C 272.368 135.590,272.366 135.716,271.714 136.257 C 271.201 136.683,271.111 136.671,271.111 136.178 C 271.111 135.860,271.278 135.496,271.481 135.370 C 271.685 135.244,271.852 134.735,271.852 134.237 C 271.852 133.740,271.685 133.333,271.481 133.333 C 271.278 133.333,271.111 132.657,271.111 131.830 C 271.111 131.003,270.979 130.408,270.818 130.508 C 270.657 130.607,270.595 130.094,270.679 129.368 C 270.786 128.453,270.705 128.126,270.417 128.305 C 270.188 128.446,270.000 128.400,270.000 128.201 C 270.000 128.002,270.141 127.784,270.313 127.716 C 270.621 127.594,269.687 122.953,269.282 122.593 C 269.168 122.491,269.054 122.074,269.030 121.667 C 269.006 121.259,268.890 120.509,268.772 120.000 C 268.653 119.491,268.469 118.672,268.362 118.180 C 268.109 117.019,267.002 113.626,266.720 113.148 C 266.599 112.944,266.492 112.611,266.481 112.407 C 266.411 111.145,265.813 109.656,265.462 109.872 C 265.205 110.031,265.145 109.898,265.296 109.505 C 265.426 109.166,265.376 108.889,265.185 108.889 C 264.994 108.889,264.926 108.660,265.033 108.381 C 265.140 108.102,264.959 107.605,264.631 107.276 C 264.303 106.948,263.966 106.326,263.883 105.894 C 263.799 105.462,263.392 104.533,262.977 103.829 C 262.562 103.126,262.222 102.305,262.222 102.004 C 262.222 101.704,261.973 101.363,261.669 101.246 C 261.364 101.129,261.199 100.898,261.302 100.732 C 261.404 100.566,261.278 100.208,261.022 99.937 C 260.765 99.666,260.497 99.112,260.426 98.707 C 260.236 97.621,259.235 95.785,258.646 95.440 C 258.363 95.275,258.229 94.983,258.347 94.792 C 258.466 94.601,258.376 94.444,258.148 94.444 C 257.920 94.444,257.837 94.278,257.963 94.074 C 258.089 93.870,258.015 93.704,257.800 93.704 C 257.584 93.704,257.446 93.579,257.492 93.426 C 257.615 93.026,256.195 90.741,255.824 90.741 C 255.652 90.741,255.599 90.599,255.706 90.426 C 255.813 90.254,255.614 89.786,255.265 89.388 C 254.503 88.519,253.962 87.685,252.959 85.833 C 252.546 85.069,252.034 84.444,251.822 84.444 C 251.611 84.444,251.530 84.295,251.643 84.113 C 251.755 83.931,251.597 83.685,251.291 83.568 C 250.984 83.450,250.777 83.220,250.830 83.057 C 250.883 82.894,250.218 82.023,249.354 81.122 C 248.489 80.221,247.686 79.184,247.570 78.816 C 247.453 78.449,247.202 78.148,247.012 78.148 C 246.822 78.148,246.708 77.998,246.759 77.815 C 246.875 77.399,246.756 77.270,240.372 70.827 C 237.201 67.626,234.963 65.641,234.698 65.793 C 234.457 65.932,234.361 65.930,234.485 65.790 C 234.751 65.491,232.020 62.407,231.488 62.407 C 231.289 62.407,230.863 62.032,230.542 61.574 C 230.221 61.116,229.798 60.741,229.603 60.741 C 229.407 60.741,228.217 59.991,226.957 59.074 C 225.697 58.157,224.450 57.407,224.185 57.407 C 223.920 57.407,223.745 57.199,223.796 56.944 C 223.848 56.684,223.602 56.530,223.235 56.592 C 222.875 56.652,222.625 56.514,222.679 56.285 C 222.733 56.055,221.694 55.310,220.370 54.629 C 219.046 53.949,217.755 53.205,217.500 52.978 C 217.245 52.750,217.034 52.695,217.031 52.856 C 217.028 53.017,216.903 52.959,216.754 52.728 C 216.458 52.272,211.471 49.850,211.019 49.943 C 210.866 49.974,210.741 49.839,210.741 49.641 C 210.741 49.444,210.463 49.389,210.124 49.519 C 209.674 49.692,209.591 49.622,209.815 49.259 C 210.041 48.894,209.954 48.827,209.486 49.007 C 209.136 49.141,208.939 49.107,209.048 48.932 C 209.199 48.686,204.237 46.562,203.333 46.486 C 203.231 46.477,202.959 46.350,202.728 46.203 C 202.498 46.056,201.669 45.834,200.887 45.710 C 200.105 45.585,198.628 45.187,197.603 44.825 C 196.579 44.463,194.741 43.952,193.519 43.690 C 192.296 43.428,191.151 43.087,190.973 42.932 C 190.796 42.777,190.393 42.749,190.079 42.870 C 189.731 43.003,189.603 42.935,189.751 42.695 C 190.680 41.193,169.053 39.152,157.778 39.678 M171.852 51.286 C 224.649 56.959,260.857 101.662,255.954 155.122 C 251.187 207.113,204.390 247.194,151.667 244.443 C 77.813 240.589,35.227 160.338,74.131 98.333 C 90.998 71.452,117.768 54.785,150.185 50.982 C 153.359 50.610,167.390 50.807,171.852 51.286 M154.444 64.682 C 121.003 68.216,93.618 88.951,80.923 120.351 C 59.855 172.456,99.492 229.074,157.037 229.074 C 168.945 229.074,177.867 227.354,189.034 222.905 C 248.153 199.352,260.165 121.177,210.741 81.634 C 195.999 69.840,172.526 62.772,154.444 64.682 M170.750 76.680 C 228.954 83.792,254.454 150.702,215.648 194.488 C 190.047 223.375,147.719 229.122,117.245 207.849 C 80.652 182.305,77.524 128.963,110.779 97.593 C 122.374 86.655,134.377 80.564,150.916 77.225 C 155.589 76.281,165.304 76.014,170.750 76.680 M243.548 230.926 C 248.175 236.019,252.066 240.269,252.195 240.370 C 252.324 240.472,254.838 243.222,257.781 246.481 C 260.723 249.741,265.984 255.491,269.471 259.259 C 276.097 266.420,282.264 273.200,288.636 280.332 C 290.710 282.653,293.741 285.991,295.370 287.749 C 297.000 289.507,298.979 291.691,299.769 292.602 C 300.558 293.514,303.058 296.259,305.324 298.702 C 307.590 301.146,310.111 303.887,310.926 304.795 C 311.741 305.702,313.407 307.544,314.630 308.887 C 318.405 313.039,324.592 320.101,325.987 321.852 C 332.197 329.646,327.185 339.797,317.659 338.720 C 313.091 338.203,310.183 335.700,300.176 323.676 C 295.337 317.862,293.047 315.162,291.875 313.889 C 291.124 313.074,289.270 310.892,287.755 309.041 C 286.240 307.189,282.750 303.024,280.000 299.786 C 277.250 296.548,273.750 292.380,272.222 290.523 C 270.694 288.666,267.518 284.914,265.162 282.184 C 262.807 279.455,259.839 275.907,258.566 274.300 C 257.293 272.692,255.359 270.359,254.269 269.114 C 253.178 267.870,251.563 265.913,250.680 264.765 C 249.797 263.617,246.213 259.283,242.717 255.135 C 232.503 243.016,225.231 234.378,223.810 232.676 C 223.083 231.805,222.553 231.048,222.633 230.994 C 224.498 229.733,229.024 226.146,231.296 224.129 C 232.926 222.682,234.457 221.536,234.698 221.582 C 234.939 221.629,238.922 225.833,243.548 230.926 M343.375 330.477 C 343.073 330.779,342.963 330.738,342.963 330.321 C 342.963 330.009,343.084 329.632,343.233 329.483 C 343.382 329.334,343.567 329.405,343.645 329.639 C 343.723 329.873,343.602 330.250,343.375 330.477 " stroke="none" fill="#040404" fill-rule="evenodd"></path><path id="path4" d="M154.444 76.648 C 153.324 76.775,155.991 76.817,160.370 76.742 C 164.750 76.668,168.500 76.550,168.704 76.481 C 169.358 76.258,156.556 76.409,154.444 76.648 M169.907 76.928 C 170.366 77.016,171.116 77.016,171.574 76.928 C 172.032 76.840,171.657 76.768,170.741 76.768 C 169.824 76.768,169.449 76.840,169.907 76.928 M137.222 80.939 C 136.296 81.385,136.265 81.436,137.037 81.248 C 138.086 80.991,139.266 80.390,138.704 80.398 C 138.500 80.401,137.833 80.645,137.222 80.939 M188.549 81.259 C 188.868 81.565,193.464 83.326,193.597 83.193 C 193.673 83.117,192.643 82.617,191.308 82.083 C 189.017 81.166,188.197 80.921,188.549 81.259 M132.012 83.122 C 127.701 85.259,128.147 85.291,132.632 83.166 C 134.545 82.259,135.933 81.509,135.716 81.500 C 135.498 81.490,133.832 82.220,132.012 83.122 M121.455 88.919 C 119.942 89.955,118.454 91.060,118.148 91.374 C 117.651 91.887,123.379 88.098,124.241 87.345 C 125.191 86.513,123.925 87.230,121.455 88.919 M203.333 88.637 C 203.333 88.717,204.292 89.478,205.463 90.328 C 207.504 91.809,207.531 91.817,206.111 90.534 C 204.701 89.259,203.333 88.325,203.333 88.637 M208.148 92.277 C 208.454 92.584,210.537 94.567,212.778 96.683 C 216.082 99.803,216.327 99.985,214.074 97.645 C 212.546 96.058,210.463 94.075,209.444 93.239 C 208.426 92.403,207.843 91.970,208.148 92.277 M109.688 98.796 C 106.881 101.597,104.038 104.639,103.371 105.556 C 102.351 106.956,102.438 106.897,103.916 105.185 C 104.883 104.065,107.828 101.023,110.462 98.426 C 113.095 95.829,115.147 93.704,115.020 93.704 C 114.894 93.704,112.494 95.995,109.688 98.796 M218.124 102.500 C 219.016 103.569,219.817 104.444,219.904 104.444 C 220.155 104.444,217.874 101.650,217.154 101.075 C 216.795 100.790,217.232 101.431,218.124 102.500 M223.875 110.558 C 225.544 113.329,225.954 113.679,224.624 111.197 C 224.049 110.124,223.357 109.062,223.085 108.837 C 222.814 108.611,223.169 109.386,223.875 110.558 M98.378 112.685 C 97.035 114.788,94.439 119.802,94.452 120.269 C 94.457 120.426,95.352 118.862,96.441 116.791 C 97.531 114.721,98.789 112.513,99.236 111.884 C 99.684 111.255,99.954 110.741,99.835 110.741 C 99.717 110.741,99.062 111.616,98.378 112.685 M230.406 124.328 C 230.387 124.569,230.553 125.236,230.777 125.809 C 231.001 126.383,231.590 128.352,232.086 130.185 C 232.583 132.019,232.898 132.807,232.785 131.937 C 232.573 130.289,230.469 123.560,230.406 124.328 M90.739 129.703 C 89.626 133.347,88.561 138.585,88.383 141.296 C 88.302 142.519,88.307 143.102,88.393 142.593 C 89.514 135.992,90.129 133.017,90.914 130.400 C 91.429 128.685,91.786 127.218,91.708 127.140 C 91.630 127.062,91.194 128.215,90.739 129.703 M271.749 139.259 C 271.379 140.590,271.423 142.302,271.820 142.057 C 272.007 141.941,272.243 142.057,272.347 142.313 C 272.628 143.012,272.587 141.497,272.278 139.815 C 272.030 138.467,271.983 138.417,271.749 139.259 M87.879 145.556 C 87.879 146.472,87.951 146.847,88.039 146.389 C 88.127 145.931,88.127 145.181,88.039 144.722 C 87.951 144.264,87.879 144.639,87.879 145.556 M233.797 152.037 C 233.801 152.852,233.877 153.142,233.966 152.681 C 234.054 152.220,234.051 151.553,233.958 151.199 C 233.865 150.845,233.793 151.222,233.797 152.037 M271.944 152.489 C 271.417 152.677,271.311 154.666,271.811 154.975 C 271.993 155.087,272.253 154.580,272.391 153.848 C 272.666 152.380,272.622 152.247,271.944 152.489 M87.899 155.741 C 87.901 157.167,87.968 157.705,88.048 156.936 C 88.128 156.168,88.127 155.001,88.045 154.344 C 87.963 153.686,87.898 154.315,87.899 155.741 M233.049 158.148 C 233.049 158.861,233.125 159.153,233.218 158.796 C 233.311 158.440,233.311 157.856,233.218 157.500 C 233.125 157.144,233.049 157.435,233.049 158.148 M271.117 158.404 C 271.114 158.850,271.278 159.319,271.481 159.444 C 271.953 159.736,271.953 158.878,271.481 158.148 C 271.190 157.696,271.121 157.744,271.117 158.404 M88.377 160.822 C 88.610 163.755,90.387 171.480,91.256 173.333 C 91.589 174.046,91.763 174.296,91.641 173.889 C 90.643 170.560,89.171 164.386,88.723 161.653 C 88.225 158.612,88.196 158.543,88.377 160.822 M231.236 165.680 C 230.591 167.954,229.964 170.148,229.841 170.556 C 229.719 170.963,229.877 170.741,230.193 170.062 C 230.944 168.449,232.695 162.335,232.533 161.890 C 232.464 161.700,231.880 163.406,231.236 165.680 M224.631 181.572 C 224.057 182.643,223.254 184.019,222.847 184.630 C 222.392 185.312,222.334 185.526,222.695 185.185 C 223.380 184.539,226.009 179.960,225.810 179.761 C 225.736 179.687,225.205 180.502,224.631 181.572 M96.308 184.722 C 97.156 186.301,98.092 187.843,98.389 188.148 C 98.685 188.454,98.071 187.162,97.025 185.278 C 95.979 183.394,95.042 181.852,94.944 181.852 C 94.846 181.852,95.460 183.144,96.308 184.722 M216.540 193.056 C 214.957 194.940,214.470 195.632,215.458 194.595 C 217.298 192.662,219.800 189.630,219.555 189.630 C 219.480 189.630,218.123 191.171,216.540 193.056 M103.052 194.630 C 103.979 195.852,105.284 197.352,105.951 197.963 C 106.619 198.574,106.116 197.824,104.834 196.296 C 101.736 192.604,100.976 191.893,103.052 194.630 M209.815 199.917 C 208.796 200.881,207.130 202.394,206.111 203.279 C 204.337 204.820,204.329 204.836,205.917 203.648 C 207.653 202.349,212.172 198.178,211.852 198.169 C 211.750 198.166,210.833 198.953,209.815 199.917 M109.962 201.957 C 110.580 202.742,114.074 205.704,114.074 205.442 C 114.074 205.341,113.032 204.367,111.759 203.278 C 110.486 202.189,109.677 201.594,109.962 201.957 M202.778 205.773 L 201.667 206.728 202.870 205.931 C 203.532 205.493,204.074 205.063,204.074 204.975 C 204.074 204.698,203.917 204.794,202.778 205.773 M117.037 207.586 C 117.037 207.849,121.174 210.576,122.593 211.248 C 124.011 211.920,123.796 211.763,119.765 209.174 C 118.265 208.211,117.037 207.496,117.037 207.586 M196.738 209.624 C 195.453 210.397,194.287 211.161,194.146 211.321 C 193.735 211.786,198.277 209.236,198.876 208.665 C 199.665 207.913,199.341 208.058,196.738 209.624 M132.626 216.107 C 133.819 216.755,142.039 219.266,142.892 219.242 C 143.237 219.232,141.574 218.657,139.198 217.964 C 136.822 217.270,134.260 216.445,133.505 216.129 C 131.808 215.420,131.341 215.408,132.626 216.107 M180.000 217.042 C 178.880 217.420,177.130 217.984,176.111 218.295 C 174.865 218.675,174.683 218.791,175.556 218.648 C 177.158 218.386,183.358 216.371,182.593 216.361 C 182.287 216.358,181.120 216.664,180.000 217.042 M231.296 224.111 C 227.741 227.232,226.499 228.505,229.074 226.389 C 231.541 224.362,234.676 221.515,234.444 221.512 C 234.343 221.511,232.926 222.680,231.296 224.111 M238.333 225.556 C 239.337 226.574,240.241 227.407,240.343 227.407 C 240.444 227.407,239.707 226.574,238.704 225.556 C 237.701 224.537,236.796 223.704,236.695 223.704 C 236.593 223.704,237.330 224.537,238.333 225.556 M241.836 229.352 C 242.745 230.319,243.536 231.111,243.596 231.111 C 243.874 231.111,243.580 230.779,241.944 229.244 L 240.185 227.593 241.836 229.352 M224.478 229.657 C 223.987 230.065,223.328 230.544,223.015 230.719 C 222.399 231.064,223.260 232.297,226.651 235.926 C 227.507 236.843,227.037 236.176,225.605 234.444 L 223.001 231.296 224.371 230.106 C 225.853 228.819,225.944 228.436,224.478 229.657 M245.540 233.426 C 246.448 234.394,247.240 235.185,247.299 235.185 C 247.577 235.185,247.283 234.853,245.648 233.318 L 243.889 231.667 245.540 233.426 M250.000 238.333 C 250.691 239.046,251.340 239.630,251.442 239.630 C 251.543 239.630,251.061 239.046,250.370 238.333 C 249.679 237.620,249.031 237.037,248.929 237.037 C 248.827 237.037,249.309 237.620,250.000 238.333 M231.411 241.667 C 232.226 242.685,233.508 244.185,234.260 245.000 C 235.595 246.446,235.592 246.437,234.145 244.630 C 233.330 243.611,232.047 242.111,231.295 241.296 C 229.961 239.850,229.964 239.859,231.411 241.667 M253.693 242.388 C 255.011 243.723,256.163 244.815,256.252 244.815 C 256.563 244.815,252.403 240.465,251.852 240.214 C 251.546 240.075,252.375 241.054,253.693 242.388 M259.213 248.468 C 260.657 250.069,262.133 251.611,262.492 251.894 C 262.851 252.176,261.747 250.866,260.039 248.981 C 258.331 247.097,256.856 245.556,256.761 245.556 C 256.666 245.556,257.770 246.866,259.213 248.468 M239.630 251.481 C 240.688 252.704,241.638 253.704,241.740 253.704 C 241.842 253.704,241.059 252.704,240.000 251.481 C 238.941 250.259,237.992 249.259,237.890 249.259 C 237.788 249.259,238.571 250.259,239.630 251.481 M266.583 256.574 C 268.620 258.764,270.676 260.889,271.152 261.296 C 271.628 261.704,270.039 259.912,267.620 257.315 C 265.202 254.718,263.146 252.593,263.052 252.593 C 262.958 252.593,264.547 254.384,266.583 256.574 M246.804 260.108 C 247.797 261.271,248.687 262.222,248.783 262.222 C 249.032 262.222,245.947 258.575,245.429 258.257 C 245.193 258.112,245.812 258.945,246.804 260.108 M274.074 264.630 C 275.386 265.954,276.543 267.037,276.645 267.037 C 276.747 267.037,275.757 265.954,274.444 264.630 C 273.132 263.306,271.975 262.222,271.873 262.222 C 271.771 262.222,272.762 263.306,274.074 264.630 M253.704 268.519 C 254.763 269.741,255.712 270.741,255.814 270.741 C 255.916 270.741,255.133 269.741,254.074 268.519 C 253.015 267.296,252.066 266.296,251.964 266.296 C 251.862 266.296,252.645 267.296,253.704 268.519 M278.333 269.259 C 279.337 270.278,280.241 271.111,280.343 271.111 C 280.444 271.111,279.707 270.278,278.704 269.259 C 277.701 268.241,276.796 267.407,276.695 267.407 C 276.593 267.407,277.330 268.241,278.333 269.259 M282.222 273.519 C 283.329 274.639,284.317 275.556,284.419 275.556 C 284.521 275.556,283.699 274.639,282.593 273.519 C 281.486 272.398,280.498 271.481,280.396 271.481 C 280.294 271.481,281.116 272.398,282.222 273.519 M260.740 277.036 C 261.592 278.054,262.483 279.005,262.719 279.150 C 262.955 279.296,262.336 278.463,261.344 277.300 C 260.352 276.137,259.461 275.185,259.365 275.185 C 259.269 275.185,259.888 276.018,260.740 277.036 M289.633 281.759 C 291.135 283.440,292.431 284.815,292.513 284.815 C 292.781 284.815,289.728 281.326,288.299 280.000 C 287.530 279.287,288.131 280.079,289.633 281.759 M267.040 284.448 C 268.306 285.876,269.532 287.160,269.764 287.300 C 269.996 287.441,269.040 286.272,267.640 284.704 C 266.240 283.135,265.014 281.852,264.916 281.852 C 264.819 281.852,265.774 283.020,267.040 284.448 M296.111 288.889 C 297.114 289.907,298.018 290.741,298.120 290.741 C 298.222 290.741,297.485 289.907,296.481 288.889 C 295.478 287.870,294.574 287.037,294.472 287.037 C 294.370 287.037,295.108 287.870,296.111 288.889 M274.814 293.703 C 275.666 294.720,276.557 295.672,276.793 295.817 C 277.029 295.962,276.410 295.129,275.418 293.966 C 274.426 292.803,273.535 291.852,273.439 291.852 C 273.343 291.852,273.962 292.685,274.814 293.703 M303.148 296.667 C 303.944 297.481,304.678 298.148,304.780 298.148 C 304.882 298.148,304.314 297.481,303.519 296.667 C 302.723 295.852,301.989 295.185,301.887 295.185 C 301.785 295.185,302.353 295.852,303.148 296.667 M307.037 300.926 C 308.143 302.046,309.132 302.963,309.234 302.963 C 309.336 302.963,308.514 302.046,307.407 300.926 C 306.301 299.806,305.312 298.889,305.210 298.889 C 305.109 298.889,305.931 299.806,307.037 300.926 M282.730 303.071 C 283.723 304.234,284.613 305.185,284.709 305.185 C 284.958 305.185,281.873 301.538,281.355 301.220 C 281.119 301.075,281.738 301.908,282.730 303.071 M310.741 305.000 C 311.640 305.917,312.447 306.667,312.533 306.667 C 312.846 306.667,309.804 303.402,309.460 303.368 C 309.265 303.349,309.841 304.083,310.741 305.000 M287.798 309.057 C 289.090 310.758,290.740 312.600,290.729 312.328 C 290.722 312.168,289.931 311.196,288.970 310.168 C 288.009 309.140,287.481 308.640,287.798 309.057 M316.064 310.852 C 317.464 312.420,318.689 313.704,318.787 313.704 C 319.030 313.704,314.467 308.575,313.940 308.255 C 313.708 308.115,314.664 309.283,316.064 310.852 M295.910 318.655 C 297.151 320.156,298.526 321.697,298.964 322.081 C 299.403 322.464,298.460 321.236,296.869 319.352 C 295.278 317.468,293.904 315.926,293.814 315.926 C 293.725 315.926,294.668 317.154,295.910 318.655 M323.333 319.074 C 324.024 319.787,324.673 320.370,324.775 320.370 C 324.877 320.370,324.395 319.787,323.704 319.074 C 323.013 318.361,322.364 317.778,322.262 317.778 C 322.160 317.778,322.642 318.361,323.333 319.074 M301.045 324.722 C 301.861 325.690,303.390 327.398,304.442 328.519 C 305.494 329.639,304.898 328.847,303.118 326.759 C 301.337 324.671,299.808 322.963,299.721 322.963 C 299.633 322.963,300.229 323.755,301.045 324.722 M343.233 329.483 C 343.084 329.632,342.963 330.009,342.963 330.321 C 342.963 330.738,343.073 330.779,343.375 330.477 C 343.602 330.250,343.723 329.873,343.645 329.639 C 343.567 329.405,343.382 329.334,343.233 329.483 M308.161 332.870 C 309.263 334.144,310.225 335.185,310.299 335.185 C 310.553 335.185,308.218 332.404,307.189 331.481 C 306.621 330.972,307.058 331.597,308.161 332.870 M324.863 336.681 C 322.540 338.616,317.122 338.962,314.009 337.374 C 313.230 336.977,312.593 336.735,312.593 336.837 C 312.593 337.346,315.688 338.497,317.659 338.720 C 320.347 339.024,323.523 338.227,325.080 336.857 C 326.306 335.777,326.125 335.630,324.863 336.681 " stroke="none" fill="#5f181b" fill-rule="evenodd"></path><path id="path5" d="M74.939 149.630 C 74.939 151.157,75.005 151.782,75.085 151.019 C 75.165 150.255,75.165 149.005,75.085 148.241 C 75.005 147.477,74.939 148.102,74.939 149.630 M97.037 203.889 C 97.728 204.602,98.377 205.185,98.479 205.185 C 98.580 205.185,98.098 204.602,97.407 203.889 C 96.716 203.176,96.068 202.593,95.966 202.593 C 95.864 202.593,96.346 203.176,97.037 203.889 M217.940 203.796 L 216.852 205.000 218.056 203.912 C 219.178 202.898,219.430 202.593,219.143 202.593 C 219.080 202.593,218.538 203.134,217.940 203.796 M226.834 215.648 L 225.370 217.222 226.944 215.758 C 228.408 214.397,228.689 214.074,228.408 214.074 C 228.348 214.074,227.640 214.782,226.834 215.648 " stroke="none" fill="#054960" fill-rule="evenodd"></path><path id="path6" d="M191.992 83.227 C 192.315 83.550,195.556 84.800,195.556 84.601 C 195.556 84.368,192.658 82.963,192.175 82.963 C 191.929 82.963,191.847 83.082,191.992 83.227 M148.704 85.439 L 147.593 85.958 148.703 85.727 C 149.850 85.488,150.236 85.282,149.969 85.053 C 149.884 84.980,149.315 85.153,148.704 85.439 M197.778 85.688 C 197.778 85.946,202.306 88.928,202.461 88.773 C 202.534 88.701,201.718 88.053,200.648 87.334 C 198.311 85.762,197.778 85.456,197.778 85.688 M205.926 90.897 C 205.926 91.272,208.330 93.560,208.981 93.806 C 209.964 94.177,209.793 93.957,207.778 92.258 C 206.759 91.399,205.926 90.787,205.926 90.897 M133.704 92.645 L 132.778 93.421 133.843 92.783 C 134.721 92.256,134.964 92.232,135.226 92.646 C 135.474 93.037,135.545 93.004,135.550 92.500 C 135.557 91.637,134.838 91.694,133.704 92.645 M213.833 98.320 C 214.235 98.625,214.403 99.027,214.239 99.292 C 214.076 99.556,214.114 99.649,214.331 99.515 C 214.731 99.267,216.171 100.666,217.224 102.326 C 217.584 102.893,217.962 103.273,218.064 103.171 C 218.348 102.887,214.104 97.776,213.595 97.790 C 213.349 97.796,213.457 98.035,213.833 98.320 M178.524 103.920 C 178.527 104.310,178.699 104.880,178.906 105.185 C 179.180 105.591,179.215 105.441,179.033 104.630 C 178.729 103.268,178.517 102.972,178.524 103.920 M219.164 104.663 C 219.605 105.292,220.258 106.042,220.616 106.329 C 221.103 106.720,221.066 106.564,220.466 105.708 C 220.025 105.079,219.371 104.329,219.013 104.041 C 218.526 103.650,218.564 103.807,219.164 104.663 M223.361 110.556 C 223.818 111.370,224.352 112.204,224.546 112.407 C 225.101 112.989,223.832 110.642,223.145 109.815 C 222.806 109.407,222.903 109.741,223.361 110.556 M224.820 113.200 C 224.817 113.432,225.158 114.015,225.576 114.496 C 226.175 115.183,226.257 115.212,225.959 114.630 C 225.317 113.373,224.826 112.758,224.820 113.200 M228.271 120.242 C 228.305 120.884,228.448 121.339,228.588 121.253 C 228.727 121.167,229.099 121.891,229.415 122.863 C 229.763 123.939,229.928 124.195,229.835 123.519 C 229.580 121.664,228.192 118.755,228.271 120.242 M231.111 128.427 C 231.111 128.648,231.346 129.801,231.634 130.989 C 231.921 132.176,232.263 133.626,232.393 134.210 C 232.522 134.795,232.695 135.206,232.777 135.124 C 232.953 134.948,231.572 128.486,231.300 128.213 C 231.196 128.110,231.111 128.206,231.111 128.427 M98.612 146.481 C 98.616 147.296,98.692 147.586,98.780 147.125 C 98.869 146.665,98.866 145.998,98.773 145.644 C 98.680 145.290,98.608 145.667,98.612 146.481 M229.620 169.339 C 227.998 174.056,228.015 173.997,228.484 173.333 C 228.975 172.639,231.239 165.930,231.047 165.738 C 230.969 165.661,230.327 167.281,229.620 169.339 M227.244 175.376 C 226.444 177.289,226.550 177.505,227.451 175.798 C 227.864 175.015,228.116 174.289,228.011 174.184 C 227.907 174.080,227.561 174.616,227.244 175.376 M225.407 178.926 C 225.042 179.545,224.830 180.139,224.937 180.245 C 225.043 180.352,225.405 179.908,225.741 179.259 C 226.533 177.726,226.271 177.464,225.407 178.926 M223.532 182.566 C 223.023 183.570,222.437 184.497,222.229 184.625 C 222.022 184.754,221.857 185.057,221.864 185.300 C 221.870 185.542,222.133 185.407,222.449 185.000 C 223.180 184.055,224.887 180.741,224.642 180.741 C 224.540 180.741,224.041 181.562,223.532 182.566 M220.266 187.405 C 219.981 187.811,219.624 188.019,219.473 187.868 C 219.321 187.717,219.247 187.759,219.307 187.963 C 219.367 188.167,219.200 188.750,218.935 189.259 C 218.383 190.319,220.029 188.564,220.759 187.315 C 221.277 186.426,220.903 186.495,220.266 187.405 M216.367 192.465 C 215.694 193.389,215.307 194.043,215.507 193.919 C 216.103 193.550,218.237 190.739,217.901 190.764 C 217.732 190.776,217.041 191.542,216.367 192.465 M214.318 194.648 C 214.431 194.944,214.357 195.185,214.153 195.185 C 213.950 195.185,213.673 195.473,213.538 195.825 C 213.359 196.289,213.551 196.221,214.239 195.575 C 215.350 194.531,215.334 194.581,214.648 194.318 C 214.290 194.180,214.180 194.290,214.318 194.648 M208.491 200.589 C 208.222 200.913,206.944 201.933,205.651 202.856 C 204.357 203.779,203.379 204.613,203.476 204.710 C 203.663 204.897,208.678 201.011,209.072 200.374 C 209.434 199.788,209.032 199.937,208.491 200.589 M200.000 207.091 C 199.491 207.515,197.991 208.412,196.667 209.086 C 195.343 209.759,193.926 210.586,193.519 210.924 C 192.500 211.768,199.232 208.163,200.582 207.141 C 201.178 206.689,201.500 206.320,201.296 206.320 C 201.093 206.321,200.509 206.668,200.000 207.091 M188.519 213.420 C 185.800 214.667,179.914 216.657,179.571 216.445 C 179.396 216.337,178.993 216.510,178.674 216.828 C 177.829 217.673,178.340 217.568,183.161 215.906 C 187.337 214.466,190.370 213.147,190.370 212.770 C 190.370 212.553,190.524 212.499,188.519 213.420 M170.926 218.889 L 170.185 219.207 170.926 219.207 C 171.333 219.207,172.000 219.064,172.407 218.889 L 173.148 218.571 172.407 218.571 C 172.000 218.571,171.333 218.714,170.926 218.889 M151.849 219.833 C 150.986 220.311,151.070 220.341,153.148 220.302 C 154.370 220.278,154.871 220.186,154.260 220.096 C 153.650 220.007,153.066 219.796,152.962 219.628 C 152.858 219.459,152.357 219.552,151.849 219.833 M158.478 220.025 C 157.667 220.526,158.394 220.844,159.504 220.474 C 160.457 220.156,160.476 220.114,159.754 219.925 C 159.323 219.813,158.749 219.858,158.478 220.025 " stroke="none" fill="#f93ca4" fill-rule="evenodd"></path><path id="path7" d="M152.875 51.003 C 153.335 51.091,154.002 51.088,154.356 50.995 C 154.710 50.903,154.333 50.830,153.519 50.834 C 152.704 50.838,152.414 50.914,152.875 51.003 M218.148 87.894 C 218.148 87.957,218.690 88.499,219.352 89.097 L 220.556 90.185 219.468 88.981 C 218.454 87.859,218.148 87.608,218.148 87.894 M96.088 94.537 L 95.000 95.741 96.204 94.653 C 97.326 93.639,97.578 93.333,97.292 93.333 C 97.228 93.333,96.686 93.875,96.088 94.537 M256.012 138.519 C 256.012 139.231,256.088 139.523,256.181 139.167 C 256.274 138.810,256.274 138.227,256.181 137.870 C 256.088 137.514,256.012 137.806,256.012 138.519 M75.271 140.741 C 75.271 141.454,75.347 141.745,75.440 141.389 C 75.534 141.032,75.534 140.449,75.440 140.093 C 75.347 139.736,75.271 140.028,75.271 140.741 M59.783 148.148 C 59.783 151.917,59.838 153.458,59.906 151.574 C 59.973 149.690,59.973 146.606,59.906 144.722 C 59.838 142.838,59.783 144.380,59.783 148.148 M74.901 144.444 C 74.901 145.157,74.977 145.449,75.070 145.093 C 75.163 144.736,75.163 144.153,75.070 143.796 C 74.977 143.440,74.901 143.731,74.901 144.444 M74.930 154.259 C 74.932 155.481,75.001 155.937,75.083 155.271 C 75.166 154.605,75.164 153.605,75.079 153.049 C 74.995 152.492,74.928 153.037,74.930 154.259 M155.648 229.515 C 156.005 229.608,156.588 229.608,156.944 229.515 C 157.301 229.421,157.009 229.345,156.296 229.345 C 155.583 229.345,155.292 229.421,155.648 229.515 M158.611 229.525 C 159.171 229.609,160.088 229.609,160.648 229.525 C 161.208 229.440,160.750 229.370,159.630 229.370 C 158.509 229.370,158.051 229.440,158.611 229.525 M152.870 244.342 C 153.532 244.424,154.616 244.424,155.278 244.342 C 155.940 244.260,155.398 244.193,154.074 244.193 C 152.750 244.193,152.208 244.260,152.870 244.342 " stroke="none" fill="#046c78" fill-rule="evenodd"></path><path id="path8" d="M226.667 76.111 C 227.773 77.231,228.762 78.148,228.864 78.148 C 228.965 78.148,228.143 77.231,227.037 76.111 C 225.931 74.991,224.942 74.074,224.840 74.074 C 224.738 74.074,225.560 74.991,226.667 76.111 M93.495 75.648 L 92.407 76.852 93.611 75.764 C 94.733 74.750,94.985 74.444,94.699 74.444 C 94.635 74.444,94.094 74.986,93.495 75.648 M90.162 78.611 L 89.074 79.815 90.278 78.727 C 91.400 77.713,91.652 77.407,91.366 77.407 C 91.302 77.407,90.760 77.949,90.162 78.611 M230.926 80.370 C 231.929 81.389,232.833 82.222,232.935 82.222 C 233.037 82.222,232.299 81.389,231.296 80.370 C 230.293 79.352,229.389 78.519,229.287 78.519 C 229.185 78.519,229.923 79.352,230.926 80.370 M82.754 86.389 L 81.667 87.593 82.870 86.505 C 83.992 85.491,84.244 85.185,83.958 85.185 C 83.894 85.185,83.353 85.727,82.754 86.389 M215.185 85.287 C 215.185 85.343,216.477 86.635,218.056 88.157 L 220.926 90.926 218.157 88.056 C 215.586 85.390,215.185 85.016,215.185 85.287 M101.643 88.981 L 100.556 90.185 101.759 89.097 C 102.881 88.083,103.133 87.778,102.847 87.778 C 102.783 87.778,102.242 88.319,101.643 88.981 M241.603 140.926 C 241.605 142.352,241.672 142.890,241.752 142.121 C 241.832 141.353,241.831 140.186,241.749 139.529 C 241.667 138.871,241.601 139.500,241.603 140.926 M241.575 146.111 C 241.579 146.926,241.655 147.216,241.743 146.755 C 241.832 146.294,241.829 145.628,241.736 145.273 C 241.643 144.919,241.571 145.296,241.575 146.111 M241.592 150.000 C 241.592 151.120,241.662 151.579,241.747 151.019 C 241.832 150.458,241.832 149.542,241.747 148.981 C 241.662 148.421,241.592 148.880,241.592 150.000 M241.197 154.444 C 241.197 155.157,241.273 155.449,241.366 155.093 C 241.460 154.736,241.460 154.153,241.366 153.796 C 241.273 153.440,241.197 153.731,241.197 154.444 M94.444 200.926 C 95.135 201.639,95.784 202.222,95.886 202.222 C 95.988 202.222,95.506 201.639,94.815 200.926 C 94.124 200.213,93.475 199.630,93.373 199.630 C 93.271 199.630,93.753 200.213,94.444 200.926 M230.000 212.407 C 229.100 213.324,228.448 214.074,228.549 214.074 C 228.651 214.074,229.471 213.324,230.370 212.407 C 231.270 211.491,231.923 210.741,231.821 210.741 C 231.719 210.741,230.900 211.491,230.000 212.407 M88.704 217.407 C 89.913 218.630,90.986 219.630,91.088 219.630 C 91.190 219.630,90.284 218.630,89.074 217.407 C 87.865 216.185,86.792 215.185,86.690 215.185 C 86.588 215.185,87.494 216.185,88.704 217.407 M224.236 218.241 L 223.148 219.444 224.352 218.357 C 225.014 217.758,225.556 217.217,225.556 217.153 C 225.556 216.867,225.250 217.119,224.236 218.241 M147.870 244.339 C 148.431 244.424,149.347 244.424,149.907 244.339 C 150.468 244.254,150.009 244.185,148.889 244.185 C 147.769 244.185,147.310 244.254,147.870 244.339 M163.061 244.340 C 163.624 244.425,164.457 244.423,164.912 244.335 C 165.368 244.247,164.907 244.177,163.889 244.180 C 162.870 244.183,162.498 244.255,163.061 244.340 M156.581 244.713 C 157.246 244.795,158.246 244.794,158.803 244.709 C 159.359 244.625,158.815 244.557,157.593 244.559 C 156.370 244.561,155.915 244.630,156.581 244.713 " stroke="none" fill="#08343c" fill-rule="evenodd"></path></g></svg>