<svg id="svg" version="1.1" xmlns="http://www.w3.org/2000/svg" xmlns:xlink="http://www.w3.org/1999/xlink" width="400" height="400" viewBox="0, 0, 400,400"><g id="svgg"><path id="path0" d="M96.291 169.648 C 96.069 170.473,95.984 171.453,96.103 171.826 C 96.235 172.242,96.105 172.587,95.767 172.716 C 95.464 172.833,94.947 173.855,94.617 174.987 C 94.247 176.262,93.866 176.952,93.619 176.799 C 93.382 176.653,93.326 176.725,93.481 176.976 C 93.767 177.440,92.941 181.481,92.560 181.481 C 92.431 181.481,92.405 181.898,92.502 182.407 C 92.603 182.935,92.506 183.333,92.277 183.333 C 92.056 183.333,91.971 183.583,92.088 183.889 C 92.206 184.194,92.176 184.736,92.024 185.093 C 91.871 185.449,91.782 186.199,91.827 186.759 C 91.872 187.323,91.719 187.778,91.484 187.778 C 91.226 187.778,91.155 188.074,91.302 188.536 C 91.434 188.953,91.372 189.501,91.162 189.753 C 90.953 190.005,90.781 190.789,90.779 191.494 C 90.777 192.200,90.613 194.111,90.414 195.741 C 88.351 212.649,92.517 235.020,100.831 251.667 C 122.388 294.830,165.131 318.246,213.333 313.298 C 218.970 312.720,231.599 309.770,233.519 308.584 C 233.722 308.458,234.215 308.304,234.614 308.242 C 235.012 308.180,235.452 307.946,235.591 307.721 C 235.730 307.496,236.014 307.418,236.223 307.547 C 236.432 307.677,236.659 307.620,236.728 307.420 C 236.796 307.221,237.269 306.983,237.778 306.890 C 238.287 306.797,238.704 306.697,238.704 306.666 C 238.704 306.635,238.975 306.557,239.306 306.493 C 240.631 306.234,241.481 305.858,241.481 305.531 C 241.481 305.341,241.908 305.185,242.429 305.185 C 242.959 305.185,243.277 305.024,243.151 304.819 C 243.025 304.616,243.160 304.543,243.452 304.655 C 243.741 304.766,244.212 304.639,244.498 304.373 C 244.784 304.107,245.262 303.834,245.561 303.767 C 245.860 303.699,246.189 303.516,246.293 303.359 C 246.667 302.793,248.173 302.194,248.583 302.448 C 248.860 302.619,248.900 302.540,248.700 302.217 C 248.478 301.857,248.567 301.791,249.033 301.970 C 249.382 302.104,249.577 302.066,249.466 301.886 C 249.206 301.465,250.313 301.032,250.831 301.352 C 251.063 301.496,251.117 301.420,250.962 301.170 C 250.805 300.916,251.078 300.571,251.639 300.316 C 252.155 300.080,252.681 299.564,252.806 299.169 C 252.956 298.698,253.268 298.512,253.712 298.628 C 254.166 298.747,254.327 298.643,254.201 298.315 C 254.012 297.823,253.178 297.954,252.330 298.609 C 252.002 298.862,251.925 298.730,252.043 298.116 C 252.167 297.472,252.103 297.378,251.769 297.712 C 251.150 298.332,250.622 298.252,250.880 297.578 C 251.021 297.212,250.914 297.046,250.583 297.115 C 249.952 297.246,246.971 294.109,247.269 293.628 C 247.386 293.439,247.257 293.331,246.982 293.390 C 246.707 293.448,246.029 293.194,245.477 292.826 C 244.925 292.457,243.758 292.068,242.884 291.960 C 242.011 291.853,241.097 291.515,240.853 291.210 C 239.127 289.044,238.045 288.131,237.435 288.325 C 236.778 288.533,235.994 287.937,235.984 287.222 C 235.981 287.019,235.300 286.695,234.471 286.503 C 233.642 286.311,232.963 286.019,232.963 285.855 C 232.963 285.690,232.505 285.550,231.944 285.542 C 231.384 285.535,230.509 285.291,230.000 285.000 L 229.074 284.471 230.300 284.458 C 230.974 284.450,231.436 284.300,231.327 284.124 C 231.218 283.947,230.701 283.885,230.179 283.985 C 229.503 284.114,229.260 284.019,229.336 283.657 C 229.413 283.295,229.103 283.174,228.262 283.239 C 227.611 283.289,226.976 283.164,226.851 282.962 C 226.726 282.759,226.911 282.593,227.262 282.593 C 227.614 282.593,227.810 282.501,227.698 282.389 C 227.586 282.278,227.051 282.298,226.508 282.434 C 225.965 282.570,225.610 282.770,225.718 282.878 C 225.953 283.113,224.787 284.051,224.259 284.051 C 224.056 284.051,224.222 283.790,224.630 283.471 C 225.329 282.924,225.297 282.908,224.074 283.193 C 223.361 283.360,222.252 283.501,221.609 283.507 C 220.967 283.513,220.518 283.644,220.613 283.796 C 220.707 283.949,220.668 284.074,220.526 284.074 C 220.384 284.074,218.249 284.419,215.782 284.840 C 213.315 285.261,210.921 285.534,210.463 285.447 C 210.005 285.359,209.630 285.437,209.630 285.620 C 209.630 285.802,208.588 285.963,207.315 285.978 C 198.165 286.084,197.360 286.054,191.667 285.391 C 160.875 281.809,132.952 259.353,123.714 230.741 C 119.738 218.427,118.189 202.247,120.044 192.407 C 120.745 188.687,121.098 185.581,120.882 185.020 C 120.600 184.283,119.630 184.268,119.630 185.000 C 119.630 185.306,119.463 185.556,119.259 185.556 C 119.056 185.556,118.889 185.306,118.889 185.000 C 118.889 184.694,118.715 184.444,118.503 184.444 C 118.291 184.444,117.759 184.111,117.322 183.704 C 116.885 183.296,116.179 182.963,115.753 182.963 C 114.742 182.963,113.333 181.963,113.333 181.244 C 113.333 180.933,113.125 180.749,112.870 180.835 C 112.616 180.921,112.241 180.782,112.037 180.526 C 111.833 180.271,110.917 179.814,110.000 179.513 C 108.887 179.146,108.141 178.616,107.753 177.918 C 107.379 177.244,106.755 176.787,105.996 176.631 C 104.629 176.352,103.704 175.678,103.704 174.962 C 103.704 174.685,103.245 174.345,102.685 174.207 C 101.398 173.890,100.027 172.919,100.012 172.315 C 100.005 172.035,99.488 171.852,98.704 171.852 C 97.917 171.852,97.405 171.670,97.402 171.389 C 97.398 171.079,97.275 171.110,97.032 171.481 C 96.776 171.872,96.707 171.459,96.802 170.093 C 96.963 167.758,96.831 167.643,96.291 169.648 " stroke="none" fill="#7834d7" fill-rule="evenodd"></path><path id="path1" d="M256.092 95.213 C 251.988 107.412,251.336 107.698,238.889 102.752 C 214.728 93.152,181.878 93.009,160.185 102.409 C 147.566 107.878,142.657 111.114,145.185 112.297 C 145.491 112.440,145.036 112.484,144.175 112.394 L 142.609 112.231 143.372 113.695 C 143.791 114.499,144.030 115.328,143.901 115.536 C 143.528 116.140,144.110 118.519,144.631 118.519 C 144.891 118.519,145.204 118.912,145.325 119.394 C 145.445 119.875,146.384 121.149,147.410 122.225 C 148.709 123.587,149.211 124.383,149.064 124.848 C 148.920 125.300,149.156 125.713,149.796 126.133 C 150.316 126.473,150.741 126.979,150.741 127.256 C 150.741 127.856,151.918 129.868,152.315 129.946 C 152.468 129.976,152.907 130.000,153.291 130.000 C 153.801 130.000,154.152 130.500,154.598 131.863 C 155.128 133.483,156.283 135.185,156.852 135.185 C 156.954 135.185,157.214 135.185,157.429 135.185 C 157.645 135.185,157.718 135.352,157.593 135.556 C 157.467 135.759,157.624 135.926,157.941 135.926 C 158.259 135.926,158.519 135.749,158.519 135.534 C 158.519 135.318,158.671 135.236,158.857 135.351 C 159.044 135.466,159.252 135.424,159.320 135.257 C 159.507 134.802,167.730 131.236,171.407 130.016 C 190.344 123.732,216.639 124.653,230.803 132.095 C 237.002 135.353,236.989 138.164,230.708 151.840 C 228.608 156.414,228.493 155.996,231.669 155.330 C 233.091 155.032,238.256 154.126,243.146 153.316 C 258.515 150.771,264.883 149.624,268.704 148.713 C 270.741 148.227,273.741 147.644,275.370 147.417 C 279.981 146.775,286.471 145.535,287.028 145.191 C 287.419 144.949,285.620 141.075,278.997 127.903 C 266.963 103.964,258.905 88.040,258.744 87.880 C 258.668 87.804,257.475 91.104,256.092 95.213 M155.556 135.533 C 155.556 135.838,156.643 136.875,156.695 136.619 C 156.711 136.544,156.774 136.224,156.836 135.909 C 156.904 135.567,156.668 135.315,156.252 135.284 C 155.869 135.255,155.556 135.367,155.556 135.533 M305.615 185.954 C 304.324 186.122,302.491 186.514,301.541 186.826 C 299.225 187.588,288.193 190.230,285.185 190.743 L 282.778 191.154 282.899 201.040 C 283.097 217.294,281.261 227.201,275.900 238.806 C 274.417 242.015,268.285 252.398,266.884 254.071 L 266.111 254.995 266.978 254.262 C 267.755 253.604,267.889 253.588,268.274 254.110 C 268.510 254.430,269.134 254.799,269.661 254.930 C 270.187 255.061,271.219 255.646,271.954 256.231 C 272.689 256.815,274.342 257.684,275.627 258.162 C 277.058 258.695,277.704 259.088,277.295 259.176 C 276.468 259.356,277.144 260.366,278.101 260.379 C 278.432 260.383,279.120 260.713,279.630 261.111 C 280.139 261.509,280.722 261.839,280.926 261.844 C 281.130 261.849,281.781 262.269,282.372 262.778 C 282.964 263.287,283.673 263.704,283.946 263.704 C 284.220 263.704,284.444 263.870,284.444 264.074 C 284.444 264.278,284.776 264.444,285.181 264.444 C 285.637 264.444,286.273 265.008,286.852 265.926 C 287.366 266.741,287.878 267.407,287.989 267.407 C 288.101 267.407,288.084 267.233,287.953 267.021 C 287.652 266.534,288.484 265.490,288.946 265.776 C 289.135 265.893,289.183 266.349,289.054 266.790 C 288.317 269.296,294.953 259.241,298.546 252.407 C 307.982 234.461,312.174 208.404,308.870 188.233 C 308.679 187.066,308.522 185.986,308.521 185.833 C 308.519 185.681,308.394 185.577,308.241 185.603 C 308.088 185.628,306.907 185.787,305.615 185.954 " stroke="none" fill="#f16947" fill-rule="evenodd"></path><path id="path2" d="M256.816 70.682 C 256.983 70.953,256.871 71.024,256.501 70.882 C 256.167 70.754,255.926 70.859,255.926 71.133 C 255.926 71.393,255.826 71.505,255.703 71.382 C 255.402 71.081,252.173 74.436,252.405 74.811 C 252.506 74.974,252.381 75.187,252.128 75.284 C 251.874 75.382,251.333 76.566,250.926 77.916 C 250.519 79.266,250.049 80.370,249.882 80.370 C 249.716 80.370,249.692 80.725,249.830 81.157 C 250.005 81.710,249.950 81.865,249.645 81.676 C 249.383 81.515,249.251 81.607,249.312 81.907 C 249.369 82.182,249.206 82.784,248.951 83.245 C 248.697 83.705,248.453 84.580,248.411 85.189 C 248.368 85.797,248.191 86.295,248.016 86.296 C 247.841 86.296,247.790 86.536,247.903 86.828 C 248.015 87.120,247.930 87.418,247.715 87.490 C 247.499 87.562,247.270 88.097,247.207 88.679 C 247.143 89.262,246.908 89.851,246.685 89.989 C 246.322 90.213,246.113 90.814,245.778 92.593 C 245.635 93.356,244.288 93.494,243.609 92.815 C 243.302 92.508,242.948 92.361,242.822 92.487 C 242.696 92.613,242.593 92.527,242.593 92.296 C 242.593 92.056,242.328 91.977,241.976 92.112 C 241.590 92.260,241.451 92.201,241.604 91.954 C 241.878 91.509,240.857 90.996,240.337 91.317 C 240.152 91.431,240.000 91.371,240.000 91.183 C 240.000 90.628,233.716 88.713,229.259 87.910 C 228.750 87.819,226.262 87.335,223.731 86.835 C 221.199 86.335,218.824 85.926,218.453 85.926 C 218.082 85.926,217.778 85.737,217.778 85.505 C 217.778 85.219,217.239 85.158,216.092 85.316 C 214.895 85.480,214.480 85.427,214.662 85.132 C 214.844 84.838,214.266 84.765,212.666 84.881 C 211.349 84.976,210.501 84.903,210.624 84.704 C 210.749 84.502,209.014 84.418,206.343 84.497 C 203.873 84.570,201.852 84.505,201.852 84.352 C 201.852 84.199,199.519 84.074,196.667 84.074 C 193.815 84.074,191.481 84.213,191.481 84.383 C 191.481 84.553,190.148 84.615,188.519 84.521 C 186.492 84.403,185.556 84.479,185.556 84.760 C 185.556 85.036,184.989 85.093,183.831 84.935 C 182.471 84.748,182.169 84.800,182.403 85.178 C 182.634 85.552,182.410 85.604,181.384 85.411 C 180.661 85.276,180.012 85.317,179.942 85.504 C 179.872 85.691,179.148 85.931,178.333 86.038 C 176.633 86.261,170.893 87.554,168.704 88.207 C 167.889 88.450,167.056 88.667,166.852 88.689 C 165.594 88.824,160.741 90.116,160.740 90.315 C 160.740 90.447,160.287 90.582,159.733 90.614 C 159.180 90.646,158.669 90.845,158.599 91.056 C 158.528 91.267,158.204 91.338,157.878 91.213 C 157.508 91.071,157.378 91.135,157.532 91.384 C 157.692 91.642,157.497 91.709,156.980 91.574 C 156.436 91.432,156.264 91.501,156.443 91.789 C 156.608 92.056,156.510 92.139,156.178 92.011 C 155.888 91.900,155.391 92.069,155.074 92.386 C 154.757 92.703,154.329 92.963,154.122 92.963 C 153.916 92.963,152.363 93.612,150.670 94.406 C 148.977 95.200,146.968 96.108,146.204 96.424 C 145.440 96.740,144.815 97.184,144.815 97.410 C 144.815 97.636,144.648 97.718,144.444 97.593 C 144.241 97.467,144.074 97.550,144.074 97.778 C 144.074 98.006,143.907 98.089,143.704 97.963 C 143.500 97.837,143.333 97.905,143.333 98.115 C 143.333 98.324,143.056 98.389,142.717 98.259 C 142.270 98.087,142.184 98.157,142.404 98.513 C 142.603 98.835,142.564 98.915,142.290 98.746 C 141.883 98.494,140.186 99.348,139.444 100.177 C 138.930 100.752,133.951 103.516,133.611 103.416 C 133.458 103.370,133.333 103.510,133.333 103.726 C 133.333 103.941,133.175 104.020,132.982 103.900 C 132.788 103.781,132.450 104.019,132.230 104.430 C 132.010 104.841,131.690 105.138,131.519 105.089 C 131.349 105.040,130.841 105.417,130.391 105.926 C 129.941 106.435,129.682 106.602,129.814 106.296 C 129.947 105.991,129.695 106.199,129.256 106.759 C 128.816 107.319,128.261 107.778,128.021 107.778 C 127.782 107.778,127.373 108.118,127.114 108.533 C 126.855 108.948,126.512 109.207,126.352 109.108 C 126.192 109.009,125.827 109.253,125.541 109.649 C 125.255 110.046,124.821 110.370,124.575 110.370 C 124.329 110.370,123.782 110.810,123.360 111.346 C 122.938 111.883,122.587 112.175,122.579 111.994 C 122.572 111.814,122.137 112.167,121.613 112.778 C 121.088 113.389,120.787 113.655,120.943 113.369 C 121.130 113.024,121.082 112.937,120.798 113.113 C 120.563 113.258,120.370 113.622,120.370 113.922 C 120.370 114.222,120.079 114.575,119.722 114.707 C 119.366 114.838,118.101 116.000,116.912 117.288 C 115.722 118.576,114.527 119.630,114.255 119.630 C 113.983 119.630,113.372 120.155,112.899 120.798 C 112.425 121.440,111.257 122.763,110.303 123.737 C 109.350 124.711,108.386 125.852,108.161 126.273 C 107.936 126.693,107.517 127.037,107.231 127.037 C 106.945 127.037,106.591 127.229,106.446 127.465 C 106.272 127.746,106.360 127.800,106.702 127.622 C 106.988 127.474,106.899 127.615,106.503 127.935 C 106.108 128.256,105.941 128.524,106.133 128.531 C 106.325 128.538,106.114 128.850,105.664 129.226 C 105.214 129.601,104.923 129.984,105.016 130.078 C 105.109 130.171,104.727 130.681,104.167 131.212 C 102.911 132.400,102.219 133.229,102.169 133.604 C 102.099 134.125,99.905 137.211,99.113 137.903 C 98.684 138.277,98.583 138.472,98.889 138.337 C 99.194 138.202,99.077 138.417,98.627 138.815 C 98.177 139.212,97.913 139.642,98.040 139.769 C 98.168 139.896,98.067 140.000,97.818 140.000 C 97.568 140.000,97.467 140.168,97.594 140.373 C 97.721 140.578,97.579 140.840,97.279 140.955 C 96.979 141.070,96.628 141.584,96.500 142.095 C 96.371 142.607,95.940 143.377,95.541 143.805 C 95.141 144.234,94.815 144.803,94.815 145.070 C 94.815 145.337,94.475 145.895,94.061 146.310 C 93.646 146.725,93.406 147.225,93.527 147.421 C 93.648 147.617,93.607 147.778,93.435 147.778 C 92.916 147.778,91.790 149.970,92.073 150.428 C 92.248 150.712,92.172 150.754,91.846 150.552 C 91.487 150.330,91.421 150.419,91.599 150.884 C 91.734 151.234,91.695 151.428,91.513 151.316 C 91.332 151.204,91.009 151.612,90.796 152.223 C 90.583 152.834,90.495 153.333,90.601 153.333 C 90.707 153.333,90.519 153.608,90.183 153.944 C 89.847 154.280,89.653 154.863,89.751 155.240 C 89.850 155.617,89.752 155.926,89.533 155.926 C 89.315 155.926,89.239 156.029,89.365 156.155 C 89.491 156.281,89.352 156.627,89.056 156.922 C 88.761 157.218,88.519 157.804,88.519 158.223 C 88.519 158.643,88.197 159.506,87.805 160.141 C 87.412 160.777,87.087 161.424,87.081 161.580 C 87.052 162.432,85.739 165.926,85.448 165.926 C 85.260 165.926,85.198 166.165,85.310 166.458 C 85.422 166.750,85.329 167.051,85.103 167.126 C 84.876 167.202,84.691 167.796,84.691 168.447 C 84.691 169.097,84.535 169.630,84.343 169.630 C 84.152 169.630,84.094 169.888,84.215 170.204 C 84.337 170.521,84.291 170.690,84.115 170.581 C 83.744 170.352,83.235 172.504,83.542 173.001 C 83.655 173.184,83.551 173.333,83.312 173.333 C 83.059 173.333,82.958 173.644,83.070 174.074 C 83.177 174.481,83.123 174.901,82.951 175.007 C 82.779 175.114,82.703 175.535,82.781 175.944 C 82.860 176.352,82.766 176.589,82.573 176.470 C 82.380 176.350,82.194 176.804,82.159 177.478 C 82.063 179.338,82.007 179.751,81.744 180.556 C 80.670 183.842,79.496 195.511,79.471 203.148 C 79.445 211.127,79.538 212.640,80.570 220.926 C 81.403 227.620,81.571 228.686,81.856 229.074 C 82.006 229.278,82.069 229.811,81.996 230.259 C 81.922 230.707,82.019 231.171,82.211 231.289 C 82.403 231.408,82.466 231.750,82.352 232.049 C 82.237 232.348,82.312 232.593,82.518 232.593 C 82.725 232.593,82.800 232.952,82.685 233.391 C 82.529 233.987,82.600 234.113,82.963 233.889 C 83.326 233.664,83.397 233.791,83.241 234.387 C 83.126 234.826,83.174 235.185,83.347 235.185 C 83.520 235.185,83.597 235.519,83.519 235.926 C 83.440 236.333,83.544 236.667,83.750 236.667 C 83.963 236.667,84.016 237.006,83.874 237.454 C 83.718 237.946,83.765 238.154,84.000 238.009 C 84.226 237.869,84.298 238.072,84.182 238.518 C 84.075 238.926,84.169 239.259,84.390 239.259 C 84.612 239.259,84.686 239.534,84.555 239.876 C 84.392 240.299,84.459 240.405,84.767 240.215 C 85.093 240.013,85.150 240.198,84.975 240.895 C 84.828 241.480,84.889 241.852,85.133 241.852 C 85.353 241.852,85.426 242.128,85.296 242.468 C 85.145 242.861,85.205 242.994,85.462 242.835 C 85.709 242.683,85.958 243.057,86.103 243.793 C 86.233 244.457,86.483 245.333,86.659 245.741 C 87.360 247.361,88.322 250.199,88.249 250.427 C 88.207 250.561,88.417 250.873,88.716 251.121 C 89.015 251.369,89.259 251.978,89.259 252.475 C 89.259 252.975,89.422 253.276,89.625 253.151 C 89.835 253.021,89.897 253.170,89.771 253.499 C 89.650 253.815,89.735 254.074,89.960 254.074 C 90.186 254.074,90.337 254.199,90.297 254.352 C 90.131 254.978,90.821 256.290,91.195 256.059 C 91.422 255.919,91.490 255.983,91.352 256.206 C 91.007 256.765,91.481 257.822,91.948 257.533 C 92.163 257.400,92.228 257.469,92.093 257.687 C 91.791 258.176,92.195 259.320,92.585 259.079 C 92.742 258.982,93.220 259.691,93.649 260.655 C 94.460 262.479,95.194 263.755,95.619 264.078 C 95.755 264.182,95.982 264.723,96.122 265.281 C 96.262 265.840,96.506 266.296,96.664 266.296 C 96.822 266.296,97.238 266.733,97.588 267.268 C 97.939 267.802,98.024 268.115,97.779 267.964 C 97.436 267.752,97.431 267.870,97.754 268.474 C 97.985 268.906,98.345 269.259,98.553 269.259 C 98.762 269.259,98.835 269.418,98.715 269.611 C 98.596 269.805,98.840 270.146,99.259 270.370 C 99.678 270.595,99.934 270.919,99.827 271.091 C 99.721 271.263,99.893 271.503,100.211 271.625 C 100.528 271.747,100.684 272.014,100.557 272.220 C 100.430 272.425,100.507 272.593,100.727 272.593 C 100.947 272.593,101.331 273.051,101.579 273.611 C 102.062 274.697,102.396 275.188,103.426 276.323 C 103.782 276.716,104.074 277.164,104.074 277.318 C 104.074 277.473,104.424 277.818,104.851 278.085 C 105.278 278.352,105.534 278.664,105.419 278.778 C 105.073 279.125,105.914 280.370,106.495 280.370 C 106.793 280.370,107.037 280.555,107.037 280.780 C 107.037 281.005,107.455 281.519,107.966 281.921 C 108.478 282.323,108.813 282.786,108.711 282.951 C 108.610 283.115,109.400 284.064,110.467 285.059 C 112.787 287.223,113.827 288.450,112.963 288.003 C 112.321 287.671,114.195 289.383,116.793 291.501 C 117.778 292.305,118.458 292.963,118.302 292.963 C 118.146 292.963,118.410 293.380,118.889 293.889 C 119.367 294.398,120.063 294.815,120.435 294.815 C 120.807 294.815,121.111 295.075,121.111 295.392 C 121.111 295.710,121.269 295.872,121.463 295.752 C 121.656 295.633,121.996 295.873,122.217 296.286 C 122.438 296.699,122.802 297.037,123.025 297.037 C 123.249 297.037,123.730 297.381,124.095 297.802 C 124.460 298.223,124.896 298.589,125.065 298.615 C 125.404 298.667,125.949 299.077,127.156 300.185 C 127.600 300.593,128.081 300.926,128.225 300.926 C 128.369 300.926,128.756 301.259,129.086 301.667 C 129.415 302.074,129.574 302.157,129.440 301.852 C 129.305 301.546,129.557 301.713,130.000 302.222 C 130.443 302.731,130.693 302.898,130.556 302.593 C 130.418 302.287,130.650 302.454,131.071 302.963 C 131.491 303.472,131.844 303.722,131.855 303.519 C 131.866 303.315,132.044 303.440,132.252 303.796 C 132.460 304.153,132.871 304.444,133.167 304.444 C 133.462 304.444,133.704 304.611,133.704 304.815 C 133.704 305.019,133.954 305.185,134.259 305.185 C 134.565 305.185,134.815 305.352,134.815 305.556 C 134.815 305.759,134.940 305.899,135.093 305.866 C 135.657 305.745,137.433 306.673,137.633 307.193 C 137.746 307.489,138.082 307.638,138.379 307.524 C 138.711 307.396,138.878 307.512,138.811 307.825 C 138.752 308.105,138.912 308.292,139.167 308.241 C 139.421 308.190,139.630 308.325,139.630 308.540 C 139.630 308.756,139.767 308.848,139.934 308.745 C 140.101 308.641,140.513 308.878,140.850 309.271 C 141.194 309.673,141.708 309.890,142.027 309.767 C 142.338 309.648,142.593 309.745,142.593 309.982 C 142.593 310.220,142.742 310.322,142.924 310.209 C 143.107 310.096,143.351 310.253,143.468 310.558 C 143.585 310.862,144.019 311.111,144.433 311.111 C 144.847 311.111,145.185 311.285,145.185 311.497 C 145.185 311.709,146.307 312.386,147.677 313.001 C 149.048 313.616,150.279 314.297,150.414 314.514 C 150.548 314.732,150.869 314.779,151.127 314.620 C 151.432 314.431,151.504 314.479,151.332 314.758 C 151.081 315.162,151.224 315.246,152.315 315.333 C 152.569 315.354,153.000 315.580,153.271 315.837 C 153.542 316.093,153.917 316.208,154.104 316.093 C 154.291 315.977,154.444 316.059,154.444 316.274 C 154.444 316.490,154.768 316.667,155.163 316.667 C 155.559 316.667,155.994 316.848,156.131 317.069 C 156.268 317.291,156.658 317.399,156.997 317.311 C 157.337 317.222,157.835 317.385,158.104 317.674 C 158.374 317.962,158.856 318.098,159.175 317.975 C 159.494 317.853,159.869 317.936,160.007 318.160 C 160.146 318.384,160.576 318.627,160.963 318.700 C 161.350 318.773,161.667 318.867,161.667 318.909 C 161.667 318.951,162.083 319.011,162.593 319.042 C 163.102 319.073,163.685 319.200,163.889 319.325 C 164.093 319.449,165.676 319.925,167.407 320.383 C 169.139 320.841,170.757 321.373,171.002 321.566 C 171.248 321.758,171.623 321.808,171.836 321.677 C 172.048 321.545,172.222 321.628,172.222 321.859 C 172.222 322.139,172.612 322.195,173.380 322.027 C 174.206 321.845,174.462 321.894,174.275 322.197 C 174.089 322.498,174.308 322.548,175.024 322.368 C 175.803 322.173,175.968 322.226,175.738 322.596 C 175.506 322.972,175.739 323.030,176.794 322.859 C 177.643 322.721,178.148 322.786,178.148 323.034 C 178.148 323.288,178.686 323.342,179.657 323.187 C 180.748 323.012,181.093 323.063,180.903 323.371 C 180.717 323.671,181.036 323.750,181.986 323.639 C 182.727 323.553,183.333 323.632,183.333 323.816 C 183.333 324.000,184.174 324.077,185.201 323.988 C 186.228 323.898,187.153 323.962,187.256 324.129 C 187.359 324.295,188.269 324.340,189.277 324.228 C 190.286 324.116,191.111 324.168,191.111 324.344 C 191.111 324.736,203.995 324.668,204.914 324.272 C 205.275 324.117,207.316 324.069,209.451 324.166 C 211.586 324.263,213.333 324.205,213.333 324.037 C 213.333 323.870,214.333 323.813,215.556 323.911 C 216.812 324.012,217.778 323.939,217.778 323.744 C 217.778 323.554,218.278 323.477,218.889 323.573 C 219.500 323.669,220.000 323.582,220.000 323.379 C 220.000 323.161,220.554 323.099,221.354 323.229 C 222.389 323.397,222.640 323.339,222.419 322.981 C 222.197 322.623,222.411 322.575,223.333 322.778 C 224.198 322.968,224.463 322.922,224.275 322.617 C 224.089 322.317,224.308 322.267,225.024 322.447 C 225.594 322.590,225.947 322.556,225.833 322.369 C 225.721 322.186,226.228 322.023,226.961 322.006 C 227.693 321.989,228.357 321.781,228.436 321.543 C 228.515 321.306,228.907 321.111,229.307 321.111 C 229.707 321.111,231.372 320.678,233.008 320.148 C 234.644 319.619,236.178 319.152,236.417 319.112 C 236.656 319.072,237.216 318.838,237.661 318.593 C 238.106 318.348,238.907 318.148,239.442 318.148 C 239.988 318.148,240.315 317.988,240.188 317.782 C 240.058 317.572,240.207 317.510,240.536 317.636 C 240.852 317.758,241.111 317.678,241.111 317.459 C 241.111 317.240,241.361 317.156,241.667 317.273 C 241.972 317.391,242.222 317.307,242.222 317.088 C 242.222 316.869,242.472 316.786,242.778 316.903 C 243.083 317.020,243.333 316.922,243.333 316.684 C 243.333 316.447,243.500 316.356,243.704 316.481 C 243.907 316.607,244.074 316.524,244.074 316.296 C 244.074 316.069,244.251 315.991,244.467 316.125 C 244.954 316.426,247.094 315.578,246.849 315.181 C 246.623 314.814,247.732 314.373,248.182 314.650 C 248.367 314.765,248.519 314.704,248.519 314.516 C 248.519 314.095,252.214 312.449,252.908 312.561 C 253.196 312.608,253.298 312.464,253.148 312.222 C 252.999 311.982,253.102 311.832,253.389 311.871 C 254.355 312.004,254.856 311.848,254.632 311.486 C 254.498 311.268,254.664 311.219,255.042 311.363 C 255.470 311.528,255.591 311.467,255.412 311.178 C 255.233 310.889,255.354 310.829,255.782 310.993 C 256.211 311.157,256.331 311.097,256.153 310.808 C 255.985 310.536,256.080 310.453,256.414 310.581 C 256.704 310.692,257.045 310.513,257.172 310.183 C 257.299 309.853,257.570 309.686,257.775 309.813 C 257.980 309.940,258.148 309.849,258.148 309.612 C 258.148 309.374,258.406 309.279,258.723 309.401 C 259.098 309.545,259.206 309.472,259.033 309.192 C 258.858 308.910,258.968 308.840,259.353 308.988 C 259.696 309.119,260.027 308.983,260.152 308.657 C 260.269 308.351,260.533 308.205,260.738 308.332 C 260.943 308.459,261.111 308.389,261.111 308.178 C 261.111 307.966,261.778 307.453,262.593 307.037 C 263.407 306.621,264.074 306.118,264.074 305.918 C 264.074 305.719,264.199 305.575,264.352 305.599 C 265.120 305.721,265.948 305.520,265.783 305.253 C 265.680 305.087,266.087 304.661,266.687 304.306 C 267.287 303.952,267.778 303.786,267.778 303.939 C 267.778 304.091,268.022 303.892,268.322 303.497 C 268.621 303.101,268.871 302.940,268.877 303.138 C 268.884 303.336,269.150 303.125,269.470 302.669 C 269.789 302.213,270.188 301.925,270.357 302.029 C 270.525 302.133,270.763 301.958,270.885 301.641 C 271.006 301.324,271.274 301.168,271.479 301.295 C 271.684 301.421,271.852 301.339,271.852 301.111 C 271.852 300.883,272.023 300.803,272.231 300.932 C 272.440 301.061,272.565 300.953,272.509 300.693 C 272.453 300.432,272.574 300.209,272.778 300.196 C 272.981 300.184,273.608 299.709,274.170 299.141 C 274.732 298.573,275.344 298.203,275.530 298.318 C 275.717 298.433,276.227 298.025,276.664 297.412 C 277.100 296.798,277.605 296.296,277.784 296.296 C 277.963 296.296,278.556 295.883,279.102 295.377 C 279.647 294.872,280.227 294.541,280.391 294.643 C 280.751 294.865,281.273 294.102,281.287 293.334 C 281.292 293.029,281.496 292.779,281.741 292.779 C 281.985 292.778,282.402 292.545,282.667 292.260 C 283.064 291.833,283.058 291.795,282.628 292.040 C 282.277 292.240,282.195 292.196,282.376 291.903 C 282.523 291.665,282.780 291.554,282.947 291.657 C 283.113 291.759,283.455 291.596,283.707 291.292 C 283.959 290.989,284.030 290.741,283.865 290.741 C 283.700 290.741,284.038 290.247,284.617 289.643 C 285.196 289.039,285.791 288.620,285.941 288.713 C 286.281 288.923,287.105 287.969,286.825 287.690 C 286.712 287.577,287.589 286.510,288.773 285.319 C 289.957 284.128,290.500 283.485,289.980 283.891 C 289.461 284.297,289.669 283.999,290.443 283.227 C 291.218 282.456,291.852 281.724,291.852 281.600 C 291.852 281.476,292.477 280.797,293.241 280.091 C 294.005 279.384,294.372 278.950,294.057 279.125 C 293.741 279.301,293.801 279.153,294.190 278.796 C 294.579 278.440,294.753 278.143,294.578 278.136 C 294.403 278.129,294.676 277.777,295.185 277.353 C 295.694 276.930,296.111 276.442,296.111 276.270 C 296.111 276.099,296.444 275.688,296.852 275.359 C 297.259 275.029,297.343 274.869,297.037 275.002 C 296.731 275.136,296.929 274.832,297.476 274.327 C 298.024 273.822,298.395 273.333,298.301 273.239 C 298.207 273.145,298.384 272.858,298.695 272.600 C 299.005 272.342,299.259 271.921,299.259 271.665 C 299.259 271.408,299.597 271.109,300.011 271.001 C 300.424 270.893,300.720 270.665,300.670 270.495 C 300.619 270.325,301.100 269.621,301.740 268.932 C 302.379 268.243,302.821 267.469,302.722 267.211 C 302.624 266.954,302.846 266.518,303.216 266.242 C 303.586 265.966,303.942 265.407,304.007 265.000 C 304.072 264.593,304.322 264.092,304.563 263.888 C 304.803 263.683,305.054 263.266,305.120 262.962 C 305.187 262.657,305.395 262.352,305.583 262.284 C 305.772 262.216,305.926 261.942,305.926 261.675 C 305.926 261.407,306.325 260.805,306.812 260.336 C 307.305 259.861,307.606 259.242,307.490 258.940 C 307.355 258.590,307.435 258.492,307.715 258.665 C 308.103 258.905,308.316 258.468,308.192 257.685 C 308.168 257.532,308.343 257.407,308.580 257.407 C 308.818 257.407,308.909 257.304,308.783 257.178 C 308.657 257.052,308.789 256.714,309.076 256.427 C 309.363 256.139,309.494 255.632,309.366 255.299 C 309.210 254.894,309.277 254.782,309.567 254.961 C 309.805 255.108,310.019 255.094,310.042 254.929 C 310.065 254.764,310.141 254.146,310.210 253.555 C 310.278 252.964,310.509 252.305,310.723 252.092 C 310.936 251.878,311.111 251.404,311.111 251.037 C 311.111 250.670,311.288 250.370,311.503 250.370 C 311.719 250.370,311.793 250.204,311.667 250.000 C 311.541 249.796,311.642 249.630,311.892 249.630 C 312.141 249.630,312.236 249.520,312.102 249.386 C 311.968 249.252,312.044 248.919,312.271 248.645 C 312.498 248.372,312.548 248.148,312.382 248.148 C 312.216 248.148,312.335 247.940,312.646 247.685 C 312.957 247.431,313.424 246.472,313.684 245.556 C 313.944 244.639,314.346 243.764,314.578 243.611 C 314.878 243.413,314.840 243.228,314.444 242.969 C 313.975 242.661,313.996 242.603,314.577 242.598 C 315.035 242.594,315.193 242.407,315.051 242.037 C 314.934 241.731,315.019 241.481,315.240 241.481 C 315.461 241.481,315.555 241.148,315.448 240.740 C 315.327 240.278,315.401 240.090,315.644 240.240 C 315.894 240.394,315.967 240.133,315.848 239.511 C 315.733 238.910,315.805 238.629,316.038 238.773 C 316.268 238.915,316.332 238.695,316.204 238.206 C 316.078 237.725,316.142 237.497,316.363 237.634 C 316.582 237.769,316.689 237.432,316.627 236.801 C 316.570 236.218,316.732 235.359,316.986 234.893 C 317.241 234.427,317.407 233.760,317.355 233.411 C 317.303 233.063,317.472 232.156,317.731 231.396 C 317.989 230.636,318.103 229.856,317.983 229.662 C 317.864 229.469,317.952 229.195,318.179 229.055 C 318.417 228.908,318.503 228.346,318.380 227.733 C 318.263 227.146,318.304 226.667,318.472 226.667 C 318.640 226.667,318.710 225.984,318.626 225.150 C 318.527 224.164,318.609 223.716,318.858 223.870 C 319.111 224.026,319.171 223.596,319.033 222.609 C 318.886 221.562,318.959 221.111,319.275 221.111 C 319.589 221.111,319.666 220.657,319.528 219.630 C 319.396 218.644,319.460 218.229,319.719 218.389 C 319.984 218.552,320.035 217.874,319.880 216.259 C 319.718 214.580,319.758 214.105,320.018 214.630 C 320.277 215.155,320.330 214.540,320.198 212.518 C 320.089 210.837,320.162 209.573,320.377 209.441 C 320.594 209.306,320.730 206.650,320.715 202.849 C 320.699 198.947,320.565 196.768,320.370 197.222 C 320.067 197.929,320.051 197.925,320.026 197.130 C 320.012 196.671,320.125 196.297,320.278 196.297 C 320.431 196.297,320.498 195.380,320.429 194.259 C 320.348 192.966,320.161 192.308,319.916 192.459 C 319.656 192.620,319.614 192.137,319.787 190.980 C 319.929 190.035,319.926 189.069,319.781 188.834 C 319.635 188.599,319.458 187.806,319.386 187.073 C 319.204 185.207,318.990 183.552,318.902 183.333 C 318.753 182.965,318.502 181.280,318.492 180.589 C 318.486 180.200,318.288 179.533,318.051 179.108 C 317.814 178.682,317.660 178.196,317.708 178.028 C 317.757 177.860,317.659 177.808,317.491 177.911 C 317.323 178.015,316.973 177.760,316.713 177.345 C 316.326 176.724,316.329 176.642,316.732 176.884 C 317.091 177.100,317.080 177.004,316.691 176.526 C 315.337 174.858,306.674 173.300,306.665 174.722 C 306.664 174.875,305.922 175.043,305.017 175.095 C 304.111 175.147,302.934 175.355,302.402 175.558 C 301.869 175.760,301.027 175.926,300.531 175.926 C 300.035 175.926,299.630 176.064,299.630 176.232 C 299.630 176.401,299.106 176.462,298.466 176.368 C 297.753 176.263,297.390 176.339,297.529 176.563 C 297.664 176.783,297.388 176.860,296.841 176.755 C 296.338 176.659,295.925 176.725,295.924 176.901 C 295.923 177.078,295.219 177.249,294.360 177.283 C 293.502 177.316,292.745 177.507,292.678 177.706 C 292.612 177.906,292.232 177.984,291.834 177.880 C 291.408 177.769,291.111 177.877,291.111 178.145 C 291.111 178.394,290.866 178.504,290.567 178.389 C 290.268 178.274,289.940 178.316,289.838 178.482 C 289.735 178.647,288.605 178.989,287.326 179.240 C 286.047 179.492,284.583 179.833,284.074 179.999 C 282.859 180.394,278.387 181.369,276.365 181.680 C 272.607 182.257,270.666 186.213,271.827 190.926 C 272.830 194.998,272.562 214.422,271.476 216.374 C 271.282 216.723,271.232 217.292,271.365 217.639 C 271.542 218.100,271.475 218.188,271.116 217.966 C 270.731 217.728,270.676 217.919,270.863 218.850 C 270.993 219.503,270.968 219.955,270.807 219.856 C 270.461 219.642,269.557 223.656,269.846 224.124 C 269.955 224.300,269.849 224.444,269.612 224.444 C 269.374 224.444,269.276 224.694,269.393 225.000 C 269.510 225.306,269.427 225.556,269.208 225.556 C 268.989 225.556,268.906 225.806,269.023 226.111 C 269.140 226.417,269.055 226.667,268.834 226.667 C 268.605 226.667,268.508 227.065,268.609 227.593 C 268.707 228.102,268.663 228.519,268.513 228.519 C 268.363 228.519,268.241 228.954,268.241 229.487 C 268.241 230.019,268.012 230.600,267.731 230.777 C 267.451 230.955,267.373 231.102,267.557 231.105 C 267.742 231.109,267.639 231.403,267.329 231.759 C 267.020 232.116,266.647 232.906,266.502 233.515 C 266.356 234.124,266.126 234.707,265.989 234.811 C 265.853 234.915,265.368 235.792,264.912 236.759 C 264.457 237.727,263.920 238.519,263.720 238.519 C 263.520 238.519,263.463 238.796,263.593 239.135 C 263.751 239.546,263.687 239.663,263.401 239.486 C 263.120 239.313,263.048 239.420,263.192 239.796 C 263.337 240.173,263.201 240.370,262.796 240.370 C 262.456 240.370,262.275 240.527,262.393 240.718 C 262.511 240.909,262.313 241.237,261.952 241.447 C 261.591 241.657,261.447 241.834,261.631 241.841 C 261.816 241.847,261.665 242.185,261.296 242.593 C 260.928 243.000,260.735 243.333,260.869 243.333 C 261.002 243.333,260.819 243.655,260.463 244.048 C 259.225 245.411,258.934 245.848,259.132 246.046 C 259.242 246.155,258.982 246.463,258.555 246.730 C 258.127 246.997,257.778 247.425,257.778 247.682 C 257.778 247.938,257.547 248.148,257.265 248.148 C 256.983 248.148,256.465 248.585,256.115 249.120 C 255.684 249.778,255.640 250.004,255.980 249.821 C 256.478 249.552,255.271 250.734,250.833 254.860 C 249.560 256.043,248.519 257.184,248.519 257.395 C 248.519 257.605,248.274 257.778,247.976 257.778 C 247.678 257.778,247.255 258.111,247.037 258.519 C 246.819 258.926,246.410 259.259,246.129 259.259 C 245.848 259.259,245.562 259.391,245.494 259.553 C 245.426 259.714,244.745 260.228,243.981 260.694 C 243.218 261.160,242.593 261.702,242.593 261.898 C 242.593 262.094,242.301 262.206,241.944 262.146 C 241.554 262.080,241.339 262.239,241.404 262.545 C 241.473 262.869,241.304 262.974,240.941 262.835 C 240.576 262.695,240.370 262.826,240.370 263.199 C 240.370 263.566,240.164 263.704,239.815 263.570 C 239.509 263.453,239.259 263.509,239.259 263.695 C 239.259 264.144,231.428 268.347,230.833 268.217 C 230.579 268.161,230.370 268.299,230.370 268.524 C 230.370 268.749,230.217 268.838,230.030 268.722 C 229.843 268.606,229.466 268.735,229.193 269.008 C 228.920 269.281,228.490 269.435,228.237 269.351 C 227.985 269.266,227.778 269.373,227.778 269.587 C 227.778 269.801,227.500 269.870,227.161 269.740 C 226.775 269.592,226.636 269.651,226.789 269.898 C 227.101 270.403,226.116 270.790,225.310 270.481 C 224.871 270.313,224.778 270.381,224.986 270.717 C 225.202 271.068,225.074 271.126,224.491 270.941 C 223.979 270.778,223.704 270.850,223.704 271.148 C 223.704 271.399,223.594 271.495,223.460 271.361 C 223.326 271.227,223.028 271.274,222.797 271.465 C 222.567 271.657,221.718 271.977,220.911 272.178 C 220.105 272.379,218.419 272.799,217.166 273.111 C 210.421 274.790,198.480 275.206,190.185 274.050 C 188.073 273.755,183.492 272.775,179.101 271.677 C 178.709 271.579,178.285 271.332,178.159 271.129 C 178.033 270.926,177.521 270.713,177.021 270.657 C 176.520 270.601,175.885 270.342,175.609 270.080 C 175.333 269.818,174.824 269.694,174.477 269.804 C 174.131 269.914,173.524 269.702,173.127 269.333 C 172.481 268.731,171.179 268.102,165.069 265.442 C 164.088 265.015,162.879 264.260,162.383 263.764 C 161.887 263.268,161.476 263.010,161.470 263.190 C 161.464 263.371,161.287 263.223,161.077 262.863 C 160.867 262.502,160.547 262.298,160.366 262.410 C 160.185 262.522,159.854 262.271,159.630 261.852 C 159.405 261.433,159.070 261.184,158.884 261.299 C 158.524 261.522,158.389 261.419,155.102 258.418 C 153.935 257.353,152.809 256.439,152.598 256.388 C 151.887 256.214,147.142 251.303,146.881 250.473 C 146.739 250.020,146.131 249.298,145.529 248.870 C 144.928 248.442,144.531 247.938,144.647 247.749 C 144.763 247.561,144.599 247.407,144.281 247.407 C 143.753 247.407,143.532 246.963,143.669 246.176 C 143.698 246.008,143.584 245.956,143.414 246.061 C 143.062 246.279,140.617 242.698,140.617 241.965 C 140.617 241.699,140.478 241.481,140.309 241.481 C 140.139 241.481,140.000 241.238,140.000 240.940 C 140.000 240.643,139.625 240.035,139.167 239.590 C 138.708 239.144,138.542 238.898,138.796 239.041 C 139.521 239.451,139.341 238.997,138.426 238.108 C 137.968 237.663,137.843 237.419,138.148 237.566 C 138.496 237.733,138.464 237.636,138.061 237.306 C 137.708 237.016,137.527 236.670,137.660 236.537 C 137.793 236.405,137.712 236.296,137.481 236.296 C 137.249 236.296,137.148 236.068,137.255 235.788 C 137.362 235.509,137.219 235.049,136.936 234.767 C 136.653 234.484,136.499 234.023,136.592 233.741 C 136.690 233.449,136.595 233.334,136.371 233.472 C 136.156 233.606,135.871 233.337,135.739 232.876 C 135.249 231.171,134.251 228.892,133.993 228.890 C 133.847 228.890,133.823 228.639,133.940 228.333 C 134.057 228.028,133.974 227.778,133.755 227.778 C 133.536 227.778,133.453 227.528,133.570 227.222 C 133.687 226.917,133.589 226.667,133.351 226.667 C 133.114 226.667,133.022 226.500,133.148 226.296 C 133.274 226.093,133.245 225.718,133.083 225.463 C 132.921 225.208,132.766 224.875,132.737 224.722 C 132.709 224.569,132.655 224.403,132.618 224.352 C 132.580 224.301,132.481 223.594,132.396 222.781 C 132.311 221.968,132.071 221.246,131.862 221.176 C 131.648 221.105,131.587 220.635,131.721 220.099 C 131.899 219.392,131.841 219.222,131.496 219.436 C 131.142 219.654,131.095 219.436,131.296 218.519 C 131.499 217.596,131.451 217.382,131.092 217.604 C 130.751 217.815,130.681 217.676,130.833 217.095 C 130.948 216.656,130.879 216.196,130.680 216.073 C 130.474 215.946,130.423 215.228,130.562 214.406 C 130.699 213.598,130.656 212.963,130.465 212.963 C 130.277 212.963,130.202 212.024,130.298 210.873 C 130.415 209.463,130.344 208.862,130.080 209.025 C 129.814 209.189,129.709 208.034,129.751 205.408 C 129.786 203.286,129.950 201.743,130.116 201.979 C 130.282 202.215,130.356 201.376,130.280 200.114 C 130.203 198.853,130.267 197.899,130.421 197.995 C 130.576 198.090,130.619 197.482,130.518 196.644 C 130.382 195.515,130.450 195.191,130.781 195.395 C 131.111 195.599,131.170 195.320,131.007 194.317 C 130.883 193.552,130.941 192.963,131.140 192.963 C 131.334 192.963,131.488 192.505,131.483 191.944 C 131.466 190.330,131.584 189.630,131.874 189.630 C 132.023 189.630,132.141 189.255,132.138 188.796 C 132.132 187.852,132.345 186.952,132.933 185.432 C 133.156 184.855,133.244 184.230,133.129 184.043 C 133.014 183.856,133.106 183.704,133.333 183.704 C 133.561 183.704,133.651 183.548,133.533 183.357 C 133.416 183.167,133.653 182.417,134.061 181.691 C 134.468 180.964,134.732 180.370,134.646 180.370 C 134.560 180.370,134.745 179.620,135.057 178.703 C 135.370 177.787,135.774 177.129,135.957 177.241 C 136.139 177.354,136.178 177.160,136.044 176.810 C 135.865 176.345,135.931 176.256,136.291 176.478 C 136.602 176.670,136.692 176.637,136.538 176.387 C 136.216 175.866,136.652 174.762,137.076 175.024 C 137.258 175.137,137.427 175.011,137.450 174.744 C 137.474 174.477,137.532 174.093,137.579 173.889 C 137.626 173.685,137.690 173.300,137.721 173.034 C 137.752 172.767,137.970 172.668,138.205 172.813 C 138.460 172.970,138.533 172.915,138.386 172.678 C 138.080 172.182,138.885 170.324,139.296 170.578 C 139.461 170.680,139.778 170.083,140.002 169.251 C 140.226 168.420,140.650 167.647,140.945 167.534 C 141.240 167.421,141.481 167.096,141.481 166.812 C 141.481 166.528,141.648 166.296,141.852 166.296 C 142.056 166.296,142.222 166.086,142.222 165.830 C 142.222 165.573,142.572 165.145,142.999 164.878 C 143.426 164.611,143.679 164.296,143.560 164.178 C 143.442 164.059,143.634 163.725,143.987 163.435 C 144.413 163.086,144.442 162.990,144.074 163.152 C 143.769 163.286,144.102 162.894,144.815 162.280 C 145.528 161.666,146.132 160.986,146.157 160.767 C 146.183 160.549,146.225 160.230,146.250 160.059 C 146.275 159.888,146.693 159.568,147.178 159.347 C 147.663 159.126,148.538 158.269,149.122 157.443 C 149.707 156.617,150.373 155.938,150.603 155.934 C 150.832 155.929,151.249 155.644,151.529 155.299 C 151.967 154.759,151.960 154.716,151.481 154.989 C 151.176 155.162,151.330 154.861,151.824 154.319 C 152.831 153.213,153.323 152.985,152.552 153.981 C 152.143 154.509,152.204 154.498,152.877 153.924 C 153.332 153.536,153.713 153.036,153.724 152.813 C 153.735 152.590,154.277 151.994,154.928 151.489 C 155.579 150.983,155.944 150.823,155.741 151.133 C 155.537 151.442,155.787 151.229,156.296 150.659 C 156.806 150.089,157.413 149.624,157.646 149.626 C 157.878 149.628,158.169 149.369,158.291 149.051 C 158.413 148.732,158.673 148.570,158.868 148.691 C 159.063 148.811,159.390 148.595,159.596 148.211 C 159.977 147.500,161.610 146.278,162.362 146.141 C 163.540 145.927,164.432 145.464,164.245 145.163 C 164.130 144.976,164.277 144.916,164.573 145.029 C 164.868 145.143,165.447 144.873,165.860 144.430 C 166.272 143.987,166.789 143.736,167.009 143.871 C 167.228 144.007,167.407 143.931,167.407 143.704 C 167.407 143.476,167.574 143.393,167.778 143.519 C 167.981 143.644,168.148 143.543,168.148 143.293 C 168.148 143.044,168.260 142.951,168.396 143.087 C 168.532 143.223,168.907 143.104,169.229 142.822 C 169.551 142.540,171.398 141.764,173.333 141.098 C 175.269 140.431,177.034 139.747,177.256 139.576 C 177.479 139.405,177.757 139.362,177.876 139.481 C 178.203 139.808,182.224 138.822,182.006 138.468 C 181.901 138.298,182.349 138.266,183.002 138.397 C 183.919 138.580,184.122 138.525,183.893 138.155 C 183.661 137.779,183.897 137.732,184.983 137.935 C 185.971 138.121,186.295 138.075,186.111 137.778 C 185.928 137.481,186.301 137.428,187.407 137.593 C 188.286 137.724,188.873 137.681,188.757 137.494 C 188.643 137.309,189.460 137.239,190.626 137.336 C 192.114 137.459,192.625 137.389,192.438 137.087 C 192.249 136.780,193.735 136.667,197.941 136.667 C 201.937 136.667,203.704 136.793,203.704 137.080 C 203.704 137.357,204.488 137.444,206.086 137.342 C 207.396 137.259,208.383 137.327,208.280 137.494 C 208.177 137.661,208.855 137.726,209.787 137.639 C 210.719 137.552,211.481 137.609,211.481 137.766 C 211.481 137.923,212.148 137.974,212.963 137.880 C 213.848 137.778,214.444 137.863,214.444 138.092 C 214.444 138.303,214.782 138.411,215.195 138.331 C 215.669 138.240,215.854 138.336,215.696 138.592 C 215.529 138.861,215.774 138.933,216.426 138.809 C 216.966 138.706,217.407 138.783,217.407 138.980 C 217.407 139.177,217.641 139.249,217.927 139.139 C 218.212 139.030,218.551 139.044,218.678 139.172 C 218.806 139.300,219.146 139.439,219.433 139.481 C 220.385 139.621,222.770 140.461,223.216 140.814 C 223.716 141.209,223.218 142.907,221.738 145.854 C 221.257 146.810,220.941 147.824,221.036 148.107 C 221.150 148.451,221.049 148.524,220.730 148.327 C 220.379 148.110,220.309 148.243,220.463 148.831 C 220.598 149.349,220.531 149.544,220.273 149.384 C 220.024 149.230,219.959 149.360,220.101 149.730 C 220.226 150.056,220.152 150.381,219.937 150.453 C 219.721 150.525,219.496 151.033,219.436 151.581 C 219.375 152.130,219.061 152.844,218.737 153.168 C 218.413 153.492,218.148 154.050,218.148 154.409 C 218.148 154.768,218.043 155.167,217.914 155.296 C 216.497 156.713,215.121 164.734,216.148 165.587 C 216.429 165.819,216.579 166.139,216.481 166.296 C 216.384 166.454,216.594 166.810,216.949 167.088 C 217.509 167.527,217.544 167.518,217.222 167.020 C 217.019 166.704,217.206 166.847,217.638 167.337 C 218.193 167.966,218.648 168.157,219.181 167.988 C 219.597 167.856,220.045 167.921,220.176 168.133 C 220.464 168.600,222.099 168.647,222.378 168.196 C 222.488 168.018,223.081 167.932,223.696 168.003 C 224.319 168.076,224.815 167.960,224.815 167.741 C 224.815 167.498,225.237 167.441,225.926 167.593 C 226.673 167.757,227.037 167.693,227.037 167.397 C 227.037 167.144,227.292 167.056,227.640 167.189 C 227.971 167.316,228.469 167.232,228.747 167.001 C 229.055 166.746,229.772 166.680,230.588 166.833 C 231.564 167.017,231.852 166.967,231.657 166.651 C 231.463 166.336,231.707 166.287,232.546 166.471 C 233.203 166.615,233.704 166.575,233.704 166.377 C 233.704 166.185,234.120 166.108,234.630 166.206 C 235.139 166.303,235.556 166.215,235.556 166.010 C 235.556 165.795,236.124 165.714,236.896 165.818 C 237.633 165.917,238.145 165.850,238.033 165.669 C 237.921 165.488,238.441 165.411,239.188 165.499 C 240.345 165.634,240.479 165.577,240.096 165.116 C 239.716 164.657,239.823 164.601,240.802 164.745 C 241.601 164.862,241.877 164.785,241.697 164.494 C 241.369 163.963,241.579 163.966,242.770 164.508 C 243.523 164.851,243.819 164.840,244.177 164.454 C 244.535 164.068,244.532 164.020,244.167 164.227 C 243.912 164.371,243.704 164.300,243.704 164.071 C 243.704 163.819,244.004 163.749,244.460 163.894 C 245.405 164.194,248.218 163.746,247.964 163.336 C 247.862 163.169,248.486 163.114,249.352 163.213 C 250.582 163.353,250.805 163.300,250.370 162.971 C 249.940 162.644,250.169 162.603,251.389 162.788 C 252.399 162.942,252.963 162.888,252.963 162.637 C 252.963 162.422,253.213 162.341,253.519 162.459 C 253.824 162.576,254.366 162.554,254.722 162.409 C 255.079 162.265,256.204 162.076,257.222 161.991 C 258.241 161.905,259.125 161.685,259.188 161.501 C 259.251 161.318,259.698 161.240,260.183 161.328 C 260.667 161.416,261.168 161.319,261.295 161.113 C 261.423 160.907,261.915 160.835,262.390 160.955 C 262.864 161.074,263.350 161.013,263.469 160.821 C 263.588 160.628,264.128 160.519,264.668 160.578 C 265.209 160.637,266.088 160.509,266.622 160.292 C 267.156 160.075,267.959 159.918,268.408 159.943 C 268.856 159.968,269.321 159.830,269.440 159.636 C 269.560 159.442,270.178 159.387,270.813 159.514 C 271.629 159.678,271.890 159.621,271.706 159.323 C 271.522 159.025,271.778 158.967,272.574 159.126 C 273.286 159.268,273.704 159.201,273.704 158.944 C 273.704 158.689,274.119 158.620,274.815 158.759 C 275.531 158.903,275.926 158.831,275.926 158.558 C 275.926 158.291,276.268 158.220,276.852 158.366 C 277.413 158.507,277.778 158.441,277.778 158.198 C 277.778 157.943,278.217 157.883,278.981 158.035 C 280.060 158.248,280.134 158.211,279.691 157.672 C 279.244 157.129,279.316 157.105,280.429 157.424 C 281.991 157.872,281.968 157.875,281.734 157.264 C 281.596 156.904,281.750 156.806,282.250 156.937 C 282.660 157.044,282.963 156.935,282.963 156.680 C 282.963 156.381,283.323 156.316,284.074 156.481 C 284.760 156.632,285.185 156.576,285.185 156.335 C 285.185 156.099,285.624 156.032,286.296 156.167 C 286.908 156.289,287.407 156.231,287.407 156.036 C 287.407 155.842,287.907 155.757,288.519 155.847 C 289.130 155.937,289.630 155.860,289.630 155.677 C 289.630 155.288,289.960 155.240,293.831 155.063 C 295.617 154.982,296.846 154.754,297.021 154.471 C 297.177 154.218,297.453 154.048,297.634 154.093 C 297.815 154.139,298.145 153.821,298.366 153.387 C 298.588 152.952,298.903 152.721,299.065 152.873 C 299.228 153.024,299.286 152.909,299.194 152.616 C 299.103 152.323,299.343 151.768,299.728 151.383 C 300.113 150.998,300.337 150.446,300.225 150.157 C 300.114 149.867,300.185 149.630,300.382 149.630 C 300.579 149.630,300.741 149.213,300.741 148.704 C 300.741 148.194,300.571 147.778,300.363 147.778 C 300.146 147.778,300.084 147.386,300.218 146.852 C 300.361 146.281,300.293 145.926,300.040 145.926 C 299.814 145.926,299.630 145.709,299.630 145.444 C 299.630 145.180,299.431 144.765,299.189 144.522 C 298.775 144.108,298.528 143.384,298.435 142.315 C 298.413 142.060,298.283 141.852,298.146 141.852 C 297.850 141.852,296.879 139.937,296.972 139.537 C 297.008 139.384,296.882 139.259,296.692 139.259 C 296.340 139.259,295.719 137.820,295.853 137.315 C 295.893 137.162,295.749 137.037,295.534 137.037 C 295.318 137.037,295.244 136.870,295.370 136.667 C 295.496 136.463,295.413 136.296,295.185 136.296 C 294.957 136.296,294.874 136.130,295.000 135.926 C 295.126 135.722,295.058 135.556,294.848 135.556 C 294.639 135.556,294.574 135.278,294.704 134.939 C 294.863 134.525,294.799 134.411,294.507 134.591 C 294.103 134.840,294.027 134.687,293.922 133.410 C 293.900 133.147,293.634 132.775,293.330 132.583 C 293.026 132.391,292.928 132.231,293.112 132.228 C 293.296 132.225,293.130 131.931,292.742 131.574 C 292.354 131.218,291.982 130.678,291.915 130.374 C 291.847 130.070,291.597 129.698,291.359 129.546 C 291.121 129.395,291.063 129.268,291.230 129.265 C 291.397 129.262,290.857 128.035,290.031 126.538 C 289.205 125.041,288.638 123.708,288.771 123.575 C 288.904 123.442,288.808 123.333,288.558 123.333 C 288.309 123.333,288.207 123.167,288.333 122.963 C 288.459 122.759,288.376 122.593,288.148 122.593 C 287.920 122.593,287.837 122.426,287.963 122.222 C 288.089 122.019,288.006 121.852,287.778 121.852 C 287.550 121.852,287.457 121.700,287.572 121.515 C 287.851 121.063,287.407 119.957,287.037 120.185 C 286.642 120.430,286.232 119.293,286.538 118.798 C 286.692 118.548,286.602 118.515,286.291 118.707 C 285.931 118.929,285.865 118.840,286.044 118.375 C 286.178 118.025,286.156 117.821,285.994 117.921 C 285.833 118.021,285.233 117.029,284.662 115.718 C 284.090 114.406,283.465 113.333,283.271 113.333 C 283.078 113.333,283.010 113.186,283.121 113.006 C 283.232 112.827,282.981 112.245,282.563 111.714 C 282.146 111.183,281.908 110.580,282.035 110.374 C 282.162 110.168,282.080 110.000,281.852 110.000 C 281.624 110.000,281.532 109.847,281.648 109.659 C 281.764 109.472,281.615 109.075,281.317 108.778 C 281.020 108.480,280.879 108.133,281.005 108.007 C 281.131 107.881,281.030 107.778,280.781 107.778 C 280.531 107.778,280.430 107.611,280.556 107.407 C 280.681 107.204,280.613 107.037,280.404 107.037 C 280.195 107.037,280.119 106.788,280.235 106.485 C 280.356 106.170,280.193 105.835,279.855 105.705 C 279.530 105.580,279.347 105.342,279.450 105.176 C 279.553 105.010,279.373 104.611,279.051 104.289 C 278.729 103.967,278.587 103.704,278.735 103.704 C 278.883 103.704,278.762 103.412,278.467 103.056 C 278.172 102.699,277.744 101.991,277.515 101.481 C 277.286 100.972,276.562 99.351,275.906 97.880 C 275.234 96.372,274.549 95.306,274.337 95.437 C 274.129 95.565,274.071 95.490,274.207 95.270 C 274.521 94.762,273.702 92.920,273.279 93.182 C 273.105 93.289,272.949 93.242,272.932 93.077 C 272.915 92.913,272.857 92.370,272.803 91.871 C 272.750 91.372,272.512 90.899,272.276 90.821 C 272.040 90.742,271.941 90.525,272.057 90.339 C 272.172 90.152,272.089 90.000,271.874 90.000 C 271.658 90.000,271.523 89.792,271.574 89.537 C 271.625 89.282,271.458 89.116,271.204 89.167 C 270.949 89.218,270.774 89.134,270.814 88.981 C 270.952 88.460,270.322 87.037,269.953 87.037 C 269.751 87.037,269.689 86.870,269.815 86.667 C 269.941 86.463,269.839 86.296,269.590 86.296 C 269.340 86.296,269.231 86.201,269.347 86.085 C 269.463 85.969,269.333 85.439,269.057 84.908 C 268.782 84.377,268.641 83.805,268.745 83.638 C 268.848 83.470,268.775 83.333,268.583 83.333 C 268.391 83.333,267.947 82.896,267.597 82.362 C 267.247 81.827,267.158 81.512,267.400 81.662 C 267.659 81.822,267.595 81.461,267.243 80.782 C 266.916 80.148,266.475 79.630,266.265 79.630 C 266.054 79.630,265.985 79.463,266.111 79.259 C 266.237 79.056,266.154 78.889,265.926 78.889 C 265.698 78.889,265.615 78.722,265.741 78.519 C 265.867 78.315,265.775 78.148,265.538 78.148 C 265.300 78.148,265.205 77.890,265.327 77.573 C 265.471 77.198,265.398 77.090,265.118 77.264 C 264.832 77.440,264.767 77.325,264.924 76.917 C 265.068 76.540,264.986 76.339,264.709 76.393 C 264.462 76.442,264.301 76.273,264.352 76.019 C 264.403 75.764,264.278 75.556,264.074 75.556 C 263.870 75.556,263.704 75.306,263.704 75.000 C 263.704 74.694,263.527 74.444,263.311 74.444 C 263.096 74.444,263.002 74.311,263.102 74.148 C 263.564 73.401,259.939 70.643,258.243 70.452 C 257.040 70.316,256.630 70.382,256.816 70.682 M260.363 89.722 C 263.912 97.571,265.025 99.909,265.658 100.839 C 266.745 102.437,288.182 145.275,287.990 145.467 C 287.705 145.752,283.322 146.598,276.017 147.777 C 272.198 148.393,265.407 149.638,260.926 150.544 C 256.444 151.449,247.634 153.043,241.347 154.086 C 235.060 155.128,229.685 156.070,229.403 156.178 C 228.473 156.535,228.846 155.338,231.988 147.895 C 235.656 139.204,235.794 138.695,235.003 136.803 C 231.512 128.447,203.302 123.586,181.677 127.614 C 162.866 131.118,144.101 143.567,134.257 159.074 C 119.115 182.927,115.758 205.351,123.706 229.547 C 133.466 259.261,156.150 278.352,189.396 284.831 C 220.795 290.951,259.586 270.849,274.474 240.743 C 280.833 227.885,282.317 220.843,282.439 202.963 L 282.522 190.926 285.613 190.250 C 287.313 189.879,292.161 188.758,296.387 187.761 C 306.412 185.394,308.704 185.136,309.005 186.343 C 310.715 193.199,310.474 214.088,308.574 223.704 C 303.325 250.268,287.303 276.609,267.572 291.115 C 266.361 292.006,264.537 293.355,263.519 294.115 C 253.470 301.605,233.697 309.987,220.370 312.406 C 161.702 323.052,106.079 286.500,92.432 228.333 C 83.367 189.697,97.598 145.786,127.037 121.554 C 160.062 94.370,201.846 87.629,241.111 103.150 C 251.501 107.257,251.673 107.122,257.469 90.278 C 258.817 86.361,258.842 86.356,260.363 89.722 M206.578 324.706 C 207.039 324.795,207.706 324.792,208.060 324.699 C 208.414 324.606,208.037 324.534,207.222 324.538 C 206.407 324.542,206.118 324.618,206.578 324.706 " stroke="none" fill="#040404" fill-rule="evenodd"></path><path id="path3" d="M141.898 111.650 C 116.629 126.895,102.191 146.129,93.871 175.628 C 92.631 180.024,92.778 180.571,94.101 176.481 C 94.694 174.648,95.388 172.981,95.645 172.778 C 95.901 172.574,96.135 171.716,96.164 170.871 C 96.194 170.025,96.381 169.042,96.581 168.684 C 96.844 168.215,96.906 168.591,96.806 170.036 C 96.709 171.438,96.776 171.871,97.032 171.481 C 97.275 171.110,97.398 171.079,97.402 171.389 C 97.405 171.670,97.917 171.852,98.704 171.852 C 99.488 171.852,100.005 172.035,100.012 172.315 C 100.027 172.919,101.398 173.890,102.685 174.207 C 103.245 174.345,103.704 174.685,103.704 174.962 C 103.704 175.678,104.629 176.352,105.996 176.631 C 106.755 176.787,107.379 177.244,107.753 177.918 C 108.141 178.616,108.887 179.146,110.000 179.513 C 110.917 179.814,111.833 180.271,112.037 180.526 C 112.241 180.782,112.616 180.921,112.870 180.835 C 113.125 180.749,113.333 180.933,113.333 181.244 C 113.333 181.963,114.742 182.963,115.753 182.963 C 116.179 182.963,116.885 183.296,117.322 183.704 C 117.759 184.111,118.291 184.444,118.503 184.444 C 118.715 184.444,118.889 184.694,118.889 185.000 C 118.889 185.306,119.056 185.556,119.259 185.556 C 119.463 185.556,119.630 185.306,119.630 185.000 C 119.630 184.268,120.600 184.283,120.882 185.020 C 121.102 185.593,120.735 188.765,120.011 192.551 C 119.801 193.648,119.656 195.148,119.689 195.884 L 119.748 197.222 119.897 195.926 C 122.547 172.922,135.423 151.839,155.556 137.537 C 157.468 136.178,158.250 135.185,157.407 135.185 C 157.204 135.185,156.954 135.185,156.852 135.185 C 156.283 135.185,155.128 133.483,154.598 131.863 C 154.037 130.148,153.376 129.615,152.404 130.093 C 152.132 130.226,150.741 127.853,150.741 127.256 C 150.741 126.979,150.316 126.473,149.796 126.133 C 149.156 125.713,148.920 125.300,149.064 124.848 C 149.211 124.383,148.709 123.587,147.410 122.225 C 146.384 121.149,145.445 119.875,145.325 119.394 C 145.204 118.912,144.891 118.519,144.631 118.519 C 144.110 118.519,143.528 116.140,143.901 115.536 C 144.030 115.328,143.791 114.499,143.372 113.695 L 142.609 112.231 144.175 112.394 C 145.036 112.484,145.491 112.440,145.185 112.297 C 143.919 111.705,144.428 110.537,146.498 109.282 C 148.247 108.222,148.814 107.778,148.417 107.778 C 148.361 107.778,145.427 109.520,141.898 111.650 M156.836 135.909 C 156.774 136.224,156.711 136.544,156.695 136.619 C 156.643 136.875,155.556 135.838,155.556 135.533 C 155.556 135.367,155.869 135.255,156.252 135.284 C 156.668 135.315,156.904 135.567,156.836 135.909 M194.352 137.310 C 195.421 137.385,197.171 137.385,198.241 137.310 C 199.310 137.235,198.435 137.174,196.296 137.174 C 194.157 137.174,193.282 137.235,194.352 137.310 M201.764 137.299 C 202.224 137.388,202.891 137.384,203.245 137.292 C 203.599 137.199,203.222 137.126,202.407 137.130 C 201.593 137.135,201.303 137.210,201.764 137.299 M290.463 155.811 C 290.819 155.904,291.403 155.904,291.759 155.811 C 292.116 155.718,291.824 155.641,291.111 155.641 C 290.398 155.641,290.106 155.718,290.463 155.811 M283.148 157.037 C 282.123 157.298,282.109 157.323,282.963 157.358 C 283.472 157.379,284.139 157.235,284.444 157.037 C 285.075 156.630,284.749 156.630,283.148 157.037 M147.037 250.857 C 147.037 250.920,147.579 251.462,148.241 252.060 L 149.444 253.148 148.357 251.944 C 147.343 250.822,147.037 250.570,147.037 250.857 M266.082 254.537 C 262.102 259.639,253.603 267.273,247.222 271.478 C 245.593 272.552,243.798 273.749,243.234 274.139 C 241.620 275.254,235.536 278.306,232.347 279.601 C 230.751 280.249,229.111 280.929,228.704 281.112 C 226.144 282.260,221.098 283.540,214.869 284.622 C 212.089 285.104,210.231 285.511,210.741 285.525 C 211.858 285.556,218.839 284.368,222.338 283.552 C 225.427 282.831,225.503 282.829,224.608 283.507 C 224.212 283.806,224.056 284.051,224.259 284.051 C 224.840 284.051,225.942 283.102,225.673 282.834 C 225.541 282.701,225.700 282.593,226.028 282.593 C 226.355 282.593,226.726 282.759,226.851 282.962 C 226.976 283.164,227.611 283.289,228.262 283.239 C 229.103 283.174,229.413 283.295,229.336 283.657 C 229.260 284.019,229.503 284.114,230.179 283.985 C 230.701 283.885,231.218 283.947,231.327 284.124 C 231.436 284.300,230.974 284.450,230.300 284.458 L 229.074 284.471 230.000 285.000 C 230.509 285.291,231.384 285.535,231.944 285.542 C 232.505 285.550,232.963 285.690,232.963 285.855 C 232.963 286.019,233.671 286.311,234.537 286.503 C 235.403 286.695,236.114 287.019,236.117 287.222 C 236.129 288.003,236.757 288.540,237.414 288.331 C 238.048 288.130,239.100 289.010,240.853 291.210 C 241.097 291.515,242.011 291.853,242.884 291.960 C 243.758 292.068,244.925 292.457,245.477 292.826 C 246.029 293.194,246.707 293.448,246.982 293.390 C 247.257 293.331,247.386 293.439,247.269 293.628 C 246.971 294.109,249.952 297.246,250.583 297.115 C 250.914 297.046,251.021 297.212,250.880 297.578 C 250.622 298.252,251.150 298.332,251.769 297.712 C 252.103 297.378,252.167 297.472,252.043 298.116 C 251.925 298.730,252.002 298.862,252.330 298.609 C 253.178 297.954,254.012 297.823,254.201 298.315 C 254.327 298.643,254.166 298.747,253.712 298.628 C 253.268 298.512,252.956 298.698,252.807 299.167 C 252.676 299.580,251.265 300.571,249.467 301.513 C 247.755 302.410,246.410 303.200,246.479 303.269 C 246.942 303.732,257.367 297.862,263.580 293.640 C 273.650 286.797,289.296 270.347,289.060 266.852 C 288.960 265.378,288.973 265.395,288.316 265.940 C 288.002 266.201,287.830 266.638,287.934 266.911 C 288.302 267.870,287.778 267.392,286.852 265.926 C 286.273 265.008,285.637 264.444,285.181 264.444 C 284.776 264.444,284.444 264.278,284.444 264.074 C 284.444 263.870,284.220 263.704,283.946 263.704 C 283.673 263.704,282.964 263.287,282.372 262.778 C 281.781 262.269,281.130 261.849,280.926 261.844 C 280.722 261.839,280.139 261.509,279.630 261.111 C 279.120 260.713,278.432 260.383,278.101 260.379 C 277.144 260.366,276.468 259.356,277.295 259.176 C 277.704 259.088,277.058 258.695,275.627 258.162 C 274.342 257.684,272.689 256.815,271.954 256.231 C 271.219 255.646,270.187 255.061,269.661 254.930 C 269.134 254.799,268.510 254.430,268.274 254.110 C 267.889 253.588,267.755 253.604,266.978 254.262 L 266.111 254.995 266.889 254.071 C 267.763 253.035,268.268 252.222,268.039 252.222 C 267.956 252.222,267.075 253.264,266.082 254.537 M290.752 265.028 C 289.894 266.164,289.276 267.177,289.378 267.279 C 289.480 267.381,290.251 266.452,291.092 265.214 C 293.005 262.396,292.817 262.294,290.752 265.028 M207.135 285.821 C 207.698 285.906,208.531 285.904,208.987 285.816 C 209.442 285.728,208.981 285.659,207.963 285.661 C 206.944 285.664,206.572 285.736,207.135 285.821 M199.733 286.199 C 200.707 286.275,202.207 286.274,203.067 286.197 C 203.926 286.119,203.130 286.056,201.296 286.057 C 199.463 286.059,198.760 286.122,199.733 286.199 M197.505 325.081 C 198.068 325.166,198.901 325.163,199.357 325.076 C 199.812 324.988,199.352 324.918,198.333 324.921 C 197.315 324.924,196.942 324.995,197.505 325.081 " stroke="none" fill="#be36b6" fill-rule="evenodd"></path><path id="path4" d="M196.204 126.201 C 197.681 126.271,200.097 126.271,201.574 126.201 C 203.051 126.131,201.843 126.073,198.889 126.073 C 195.935 126.073,194.727 126.131,196.204 126.201 M144.977 146.019 L 143.889 147.222 145.093 146.134 C 145.755 145.536,146.296 144.994,146.296 144.931 C 146.296 144.645,145.991 144.896,144.977 146.019 M141.469 149.537 L 139.444 151.667 141.574 149.642 C 143.553 147.762,143.873 147.407,143.598 147.407 C 143.541 147.407,142.582 148.366,141.469 149.537 M260.912 260.093 L 259.074 262.037 261.019 260.199 C 262.825 258.491,263.133 258.148,262.856 258.148 C 262.798 258.148,261.923 259.023,260.912 260.093 " stroke="none" fill="#7e3d45" fill-rule="evenodd"></path><path id="path5" d="M260.772 91.667 C 260.772 91.870,261.091 92.620,261.481 93.333 C 261.872 94.046,262.191 94.463,262.191 94.259 C 262.191 94.056,261.872 93.306,261.481 92.593 C 261.091 91.880,260.772 91.463,260.772 91.667 M192.326 95.458 C 193.300 95.534,194.800 95.534,195.659 95.456 C 196.519 95.378,195.722 95.316,193.889 95.317 C 192.056 95.318,191.352 95.381,192.326 95.458 M201.772 95.459 C 202.848 95.534,204.515 95.533,205.475 95.457 C 206.436 95.381,205.556 95.319,203.519 95.320 C 201.481 95.321,200.695 95.384,201.772 95.459 M187.319 95.818 C 187.780 95.906,188.447 95.903,188.801 95.810 C 189.155 95.717,188.778 95.645,187.963 95.649 C 187.148 95.653,186.858 95.729,187.319 95.818 M209.171 95.818 C 209.632 95.906,210.298 95.903,210.652 95.810 C 211.007 95.717,210.630 95.645,209.815 95.649 C 209.000 95.653,208.710 95.729,209.171 95.818 M253.333 102.132 C 253.333 102.354,252.881 103.090,252.328 103.768 C 251.501 104.781,251.474 104.869,252.177 104.263 C 253.175 103.403,253.856 102.251,253.549 101.944 C 253.430 101.825,253.333 101.910,253.333 102.132 M267.963 106.296 C 268.279 106.907,268.621 107.407,268.723 107.407 C 268.825 107.407,268.649 106.907,268.333 106.296 C 268.017 105.685,267.675 105.185,267.574 105.185 C 267.472 105.185,267.647 105.685,267.963 106.296 M191.209 126.192 C 191.772 126.277,192.605 126.275,193.061 126.187 C 193.516 126.099,193.056 126.029,192.037 126.032 C 191.019 126.035,190.646 126.107,191.209 126.192 M205.093 126.194 C 205.755 126.276,206.838 126.276,207.500 126.194 C 208.162 126.112,207.620 126.044,206.296 126.044 C 204.972 126.044,204.431 126.112,205.093 126.194 M187.130 126.552 C 187.486 126.645,188.069 126.645,188.426 126.552 C 188.782 126.458,188.491 126.382,187.778 126.382 C 187.065 126.382,186.773 126.458,187.130 126.552 M209.912 126.558 C 210.372 126.647,211.039 126.643,211.393 126.551 C 211.747 126.458,211.370 126.386,210.556 126.390 C 209.741 126.394,209.451 126.470,209.912 126.558 M274.537 147.663 C 274.894 147.756,275.477 147.756,275.833 147.663 C 276.190 147.570,275.898 147.493,275.185 147.493 C 274.472 147.493,274.181 147.570,274.537 147.663 M270.926 148.148 C 269.935 148.400,269.915 148.431,270.741 148.431 C 271.250 148.431,272.167 148.304,272.778 148.148 C 273.769 147.896,273.789 147.865,272.963 147.865 C 272.454 147.865,271.537 147.993,270.926 148.148 M230.801 150.942 C 230.180 152.304,230.299 152.594,230.970 151.356 C 231.283 150.778,231.470 150.236,231.385 150.151 C 231.301 150.066,231.038 150.422,230.801 150.942 " stroke="none" fill="#a66930" fill-rule="evenodd"></path><path id="path6" d="M193.981 136.928 C 194.440 137.016,195.190 137.016,195.648 136.928 C 196.106 136.840,195.731 136.768,194.815 136.768 C 193.898 136.768,193.523 136.840,193.981 136.928 M197.505 136.932 C 198.068 137.018,198.901 137.015,199.357 136.927 C 199.812 136.839,199.352 136.770,198.333 136.773 C 197.315 136.775,196.942 136.847,197.505 136.932 M90.456 191.852 C 90.456 192.565,90.533 192.856,90.626 192.500 C 90.719 192.144,90.719 191.560,90.626 191.204 C 90.533 190.847,90.456 191.139,90.456 191.852 M90.101 195.556 C 90.101 196.472,90.173 196.847,90.261 196.389 C 90.350 195.931,90.350 195.181,90.261 194.722 C 90.173 194.264,90.101 194.639,90.101 195.556 M89.784 205.370 C 89.784 209.241,89.839 210.774,89.906 208.777 C 89.973 206.780,89.972 203.614,89.905 201.740 C 89.838 199.866,89.784 201.500,89.784 205.370 M119.370 204.074 C 119.370 205.194,119.440 205.653,119.525 205.093 C 119.609 204.532,119.609 203.616,119.525 203.056 C 119.440 202.495,119.370 202.954,119.370 204.074 M119.345 208.889 C 119.345 209.602,119.421 209.894,119.515 209.537 C 119.608 209.181,119.608 208.597,119.515 208.241 C 119.421 207.884,119.345 208.176,119.345 208.889 M90.093 214.630 C 90.098 215.444,90.173 215.734,90.262 215.273 C 90.351 214.813,90.347 214.146,90.254 213.792 C 90.162 213.438,90.089 213.815,90.093 214.630 M90.456 217.778 C 90.456 218.491,90.533 218.782,90.626 218.426 C 90.719 218.069,90.719 217.486,90.626 217.130 C 90.533 216.773,90.456 217.065,90.456 217.778 M123.731 230.582 C 123.693 231.141,124.868 234.515,125.040 234.342 C 125.119 234.264,124.862 233.297,124.470 232.193 C 124.078 231.088,123.746 230.364,123.731 230.582 M96.693 242.678 C 96.650 243.116,97.857 245.970,98.017 245.810 C 98.098 245.729,97.839 244.931,97.441 244.035 C 97.044 243.140,96.707 242.529,96.693 242.678 M136.667 254.931 C 136.667 254.994,137.208 255.536,137.870 256.134 L 139.074 257.222 137.986 256.019 C 136.972 254.896,136.667 254.645,136.667 254.931 M104.259 258.519 C 104.575 259.130,104.917 259.630,105.019 259.630 C 105.121 259.630,104.946 259.130,104.630 258.519 C 104.314 257.907,103.972 257.407,103.870 257.407 C 103.768 257.407,103.943 257.907,104.259 258.519 M142.593 261.296 C 144.315 263.028,145.808 264.444,145.910 264.444 C 146.011 264.444,144.685 263.028,142.963 261.296 C 141.240 259.565,139.748 258.148,139.646 258.148 C 139.544 258.148,140.870 259.565,142.593 261.296 M146.667 264.931 C 146.667 264.994,147.208 265.536,147.870 266.134 L 149.074 267.222 147.986 266.019 C 146.972 264.896,146.667 264.645,146.667 264.931 M109.630 267.037 C 110.065 267.648,110.504 268.148,110.606 268.148 C 110.708 268.148,110.435 267.648,110.000 267.037 C 109.565 266.426,109.125 265.926,109.024 265.926 C 108.922 265.926,109.194 266.426,109.630 267.037 M115.556 274.931 C 115.556 274.994,116.097 275.536,116.759 276.134 L 117.963 277.222 116.875 276.019 C 115.861 274.896,115.556 274.645,115.556 274.931 M160.741 274.988 C 160.741 275.089,161.574 275.595,162.593 276.111 C 163.611 276.627,164.444 276.966,164.444 276.864 C 164.444 276.762,163.611 276.257,162.593 275.741 C 161.574 275.225,160.741 274.886,160.741 274.988 M122.407 282.222 C 125.050 284.870,127.295 287.037,127.397 287.037 C 127.499 287.037,125.420 284.870,122.778 282.222 C 120.136 279.574,117.890 277.407,117.788 277.407 C 117.687 277.407,119.765 279.574,122.407 282.222 M138.027 295.215 C 138.487 295.771,140.741 297.189,140.741 296.922 C 140.741 296.836,140.032 296.298,139.167 295.727 C 138.301 295.156,137.788 294.926,138.027 295.215 M149.630 302.035 C 149.630 302.284,153.379 304.152,153.545 303.986 C 153.621 303.910,152.771 303.401,151.656 302.854 C 150.542 302.307,149.630 301.939,149.630 302.035 M168.549 309.784 C 168.786 310.020,174.687 311.486,175.247 311.448 C 175.519 311.429,174.241 311.017,172.407 310.531 C 169.090 309.652,168.255 309.490,168.549 309.784 M229.074 310.000 C 228.607 310.201,228.539 310.318,228.889 310.318 C 229.194 310.318,229.778 310.175,230.185 310.000 C 230.652 309.799,230.721 309.682,230.370 309.682 C 230.065 309.682,229.481 309.825,229.074 310.000 M226.481 310.741 C 226.015 310.941,225.946 311.059,226.296 311.059 C 226.602 311.059,227.185 310.916,227.593 310.741 C 228.059 310.540,228.128 310.422,227.778 310.422 C 227.472 310.422,226.889 310.566,226.481 310.741 M204.172 313.969 C 204.735 314.055,205.568 314.052,206.024 313.964 C 206.479 313.877,206.019 313.807,205.000 313.810 C 203.981 313.812,203.609 313.884,204.172 313.969 " stroke="none" fill="#3d235b" fill-rule="evenodd"></path><path id="path7" d="M196.019 95.070 C 196.375 95.163,196.958 95.163,197.315 95.070 C 197.671 94.977,197.380 94.901,196.667 94.901 C 195.954 94.901,195.662 94.977,196.019 95.070 M200.838 95.081 C 201.401 95.166,202.235 95.163,202.690 95.076 C 203.146 94.988,202.685 94.918,201.667 94.921 C 200.648 94.924,200.275 94.995,200.838 95.081 M116.097 117.870 L 114.259 119.815 116.204 117.977 C 117.273 116.966,118.148 116.091,118.148 116.032 C 118.148 115.756,117.805 116.064,116.097 117.870 M110.350 123.611 L 109.074 125.000 110.463 123.724 C 111.227 123.022,111.852 122.397,111.852 122.335 C 111.852 122.052,111.538 122.318,110.350 123.611 M120.547 127.500 L 117.593 130.556 120.648 127.601 C 122.329 125.976,123.704 124.601,123.704 124.546 C 123.704 124.276,123.291 124.662,120.547 127.500 M212.593 137.920 C 212.593 137.998,213.009 138.141,213.519 138.239 C 214.028 138.336,214.444 138.272,214.444 138.097 C 214.444 137.921,214.028 137.778,213.519 137.778 C 213.009 137.778,212.593 137.842,212.593 137.920 M161.012 146.865 C 160.252 147.382,159.630 147.884,159.630 147.982 C 159.630 148.079,160.296 147.717,161.111 147.178 C 162.405 146.322,162.842 145.926,162.493 145.926 C 162.439 145.926,161.772 146.349,161.012 146.865 M291.173 155.139 C 290.847 155.346,291.067 155.438,291.820 155.411 C 292.448 155.389,292.962 155.245,292.962 155.093 C 292.963 154.719,291.787 154.750,291.173 155.139 M228.745 166.970 C 228.642 167.137,229.049 167.201,229.649 167.113 C 230.250 167.025,230.741 166.889,230.741 166.810 C 230.741 166.528,228.929 166.673,228.745 166.970 M219.532 168.199 C 219.697 168.364,220.329 168.353,220.935 168.174 C 222.023 167.854,222.019 167.850,220.635 167.874 C 219.863 167.888,219.367 168.034,219.532 168.199 M319.630 191.689 C 319.630 192.210,319.781 192.543,319.965 192.429 C 320.150 192.315,320.214 191.888,320.107 191.481 C 319.841 190.462,319.630 190.554,319.630 191.689 M320.270 209.483 C 320.122 209.632,320.011 210.184,320.023 210.710 L 320.047 211.667 320.404 210.772 C 320.790 209.809,320.710 209.043,320.270 209.483 M260.176 260.463 L 257.222 263.519 260.278 260.564 C 261.958 258.939,263.333 257.564,263.333 257.509 C 263.333 257.239,262.920 257.625,260.176 260.463 M238.056 276.508 C 236.671 277.259,236.755 277.572,238.148 276.852 C 238.759 276.536,239.259 276.198,239.259 276.102 C 239.259 275.863,239.219 275.877,238.056 276.508 M278.499 281.019 L 277.222 282.407 278.611 281.131 C 279.375 280.429,280.000 279.804,280.000 279.742 C 280.000 279.459,279.687 279.726,278.499 281.019 M289.792 283.796 L 288.704 285.000 289.907 283.912 C 290.569 283.314,291.111 282.772,291.111 282.708 C 291.111 282.422,290.806 282.674,289.792 283.796 M274.606 284.907 L 273.519 286.111 274.722 285.023 C 275.384 284.425,275.926 283.883,275.926 283.820 C 275.926 283.533,275.620 283.785,274.606 284.907 M285.185 289.074 C 284.286 289.991,283.633 290.741,283.735 290.741 C 283.837 290.741,284.656 289.991,285.556 289.074 C 286.455 288.157,287.108 287.407,287.006 287.407 C 286.904 287.407,286.085 288.157,285.185 289.074 M204.685 324.356 C 204.517 324.626,209.796 324.548,210.556 324.269 C 210.759 324.194,209.561 324.119,207.892 324.103 C 206.224 324.087,204.780 324.201,204.685 324.356 M198.433 324.713 C 199.098 324.795,200.098 324.794,200.655 324.709 C 201.211 324.625,200.667 324.557,199.444 324.559 C 198.222 324.561,197.767 324.630,198.433 324.713 " stroke="none" fill="#3f1f25" fill-rule="evenodd"></path><path id="path8" d="M198.241 95.070 C 198.597 95.163,199.181 95.163,199.537 95.070 C 199.894 94.977,199.602 94.901,198.889 94.901 C 198.176 94.901,197.884 94.977,198.241 95.070 M309.345 190.741 C 309.345 191.454,309.421 191.745,309.515 191.389 C 309.608 191.032,309.608 190.449,309.515 190.093 C 309.421 189.736,309.345 190.028,309.345 190.741 M309.736 195.000 C 309.738 196.019,309.810 196.391,309.895 195.828 C 309.981 195.265,309.978 194.432,309.890 193.976 C 309.802 193.521,309.733 193.981,309.736 195.000 M282.750 202.778 C 282.751 207.259,282.804 209.042,282.869 206.739 C 282.934 204.436,282.934 200.769,282.869 198.591 C 282.803 196.412,282.750 198.296,282.750 202.778 M310.134 202.222 C 310.134 204.157,310.196 204.949,310.272 203.981 C 310.349 203.014,310.349 201.431,310.272 200.463 C 310.196 199.495,310.134 200.287,310.134 202.222 M309.744 210.556 C 309.746 211.778,309.816 212.233,309.898 211.567 C 309.980 210.902,309.979 209.902,309.894 209.345 C 309.810 208.789,309.742 209.333,309.744 210.556 M309.345 215.556 C 309.345 216.269,309.421 216.560,309.515 216.204 C 309.608 215.847,309.608 215.264,309.515 214.907 C 309.421 214.551,309.345 214.843,309.345 215.556 " stroke="none" fill="#503622" fill-rule="evenodd"></path></g></svg>